  0
SECTION
  2
HEADER
  9
$ACADVER
  1
AC1024
  9
$ACADMAINTVER
 70
     6
  9
$DWGCODEPAGE
  3
ANSI_1252
  9
$INSBASE
 10
0.0
 20
0.0
 30
0.0
  9
$EXTMIN
 10
1.000000000000000E+20
 20
1.000000000000000E+20
 30
1.000000000000000E+20
  9
$EXTMAX
 10
-1.000000000000000E+20
 20
-1.000000000000000E+20
 30
-1.000000000000000E+20
  9
$LIMMIN
 10
0.0
 20
0.0
  9
$LIMMAX
 10
12.0
 20
9.0
  9
$ORTHOMODE
 70
     0
  9
$REGENMODE
 70
     1
  9
$FILLMODE
 70
     1
  9
$QTEXTMODE
 70
     0
  9
$MIRRTEXT
 70
     1
  9
$LTSCALE
 40
1.0
  9
$ATTMODE
 70
     1
  9
$TEXTSIZE
 40
0.2
  9
$TRACEWID
 40
0.05
  9
$TEXTSTYLE
  7
Standard
  9
$CLAYER
  8
0
  9
$CELTYPE
  6
ByLayer
  9
$CECOLOR
 62
   256
  9
$CELTSCALE
 40
1.0
  9
$DISPSILH
 70
     0
  9
$DIMSCALE
 40
1.0
  9
$DIMASZ
 40
0.18
  9
$DIMEXO
 40
0.0625
  9
$DIMDLI
 40
0.38
  9
$DIMRND
 40
0.0
  9
$DIMDLE
 40
0.0
  9
$DIMEXE
 40
0.18
  9
$DIMTP
 40
0.0
  9
$DIMTM
 40
0.0
  9
$DIMTXT
 40
0.18
  9
$DIMCEN
 40
0.09
  9
$DIMTSZ
 40
0.0
  9
$DIMTOL
 70
     0
  9
$DIMLIM
 70
     0
  9
$DIMTIH
 70
     1
  9
$DIMTOH
 70
     1
  9
$DIMSE1
 70
     0
  9
$DIMSE2
 70
     0
  9
$DIMTAD
 70
     0
  9
$DIMZIN
 70
     0
  9
$DIMBLK
  1

  9
$DIMASO
 70
     1
  9
$DIMSHO
 70
     1
  9
$DIMPOST
  1

  9
$DIMAPOST
  1

  9
$DIMALT
 70
     0
  9
$DIMALTD
 70
     2
  9
$DIMALTF
 40
25.4
  9
$DIMLFAC
 40
1.0
  9
$DIMTOFL
 70
     0
  9
$DIMTVP
 40
0.0
  9
$DIMTIX
 70
     0
  9
$DIMSOXD
 70
     0
  9
$DIMSAH
 70
     0
  9
$DIMBLK1
  1

  9
$DIMBLK2
  1

  9
$DIMSTYLE
  2
Standard
  9
$DIMCLRD
 70
     0
  9
$DIMCLRE
 70
     0
  9
$DIMCLRT
 70
     0
  9
$DIMTFAC
 40
1.0
  9
$DIMGAP
 40
0.09
  9
$DIMJUST
 70
     0
  9
$DIMSD1
 70
     0
  9
$DIMSD2
 70
     0
  9
$DIMTOLJ
 70
     1
  9
$DIMTZIN
 70
     0
  9
$DIMALTZ
 70
     0
  9
$DIMALTTZ
 70
     0
  9
$DIMUPT
 70
     0
  9
$DIMDEC
 70
     4
  9
$DIMTDEC
 70
     4
  9
$DIMALTU
 70
     2
  9
$DIMALTTD
 70
     2
  9
$DIMTXSTY
  7
Standard
  9
$DIMAUNIT
 70
     0
  9
$DIMADEC
 70
     0
  9
$DIMALTRND
 40
0.0
  9
$DIMAZIN
 70
     0
  9
$DIMDSEP
 70
    46
  9
$DIMATFIT
 70
     3
  9
$DIMFRAC
 70
     0
  9
$DIMLDRBLK
  1

  9
$DIMLUNIT
 70
     2
  9
$DIMLWD
 70
    -2
  9
$DIMLWE
 70
    -2
  9
$DIMTMOVE
 70
     0
  9
$DIMFXL
 40
1.0
  9
$DIMFXLON
 70
     0
  9
$DIMJOGANG
 40
0.7853981633974483
  9
$DIMTFILL
 70
     0
  9
$DIMTFILLCLR
 70
     0
  9
$DIMARCSYM
 70
     0
  9
$DIMLTYPE
  6

  9
$DIMLTEX1
  6

  9
$DIMLTEX2
  6

  9
$DIMTXTDIRECTION
 70
     0
  9
$LUNITS
 70
     2
  9
$LUPREC
 70
     4
  9
$SKETCHINC
 40
0.1
  9
$FILLETRAD
 40
0.5
  9
$AUNITS
 70
     0
  9
$AUPREC
 70
     0
  9
$MENU
  1
.
  9
$ELEVATION
 40
0.0
  9
$PELEVATION
 40
0.0
  9
$THICKNESS
 40
0.0
  9
$LIMCHECK
 70
     0
  9
$CHAMFERA
 40
0.5
  9
$CHAMFERB
 40
0.5
  9
$CHAMFERC
 40
1.0
  9
$CHAMFERD
 40
0.0
  9
$SKPOLY
 70
     0
  9
$TDCREATE
 40
2459346.795116551
  9
$TDUCREATE
 40
2459347.003449884
  9
$TDUPDATE
 40
2459346.795116562
  9
$TDUUPDATE
 40
2459347.003449896
  9
$TDINDWG
 40
0.0000000116
  9
$TDUSRTIMER
 40
0.0000000116
  9
$USRTIMER
 70
     1
  9
$ANGBASE
 50
0.0
  9
$ANGDIR
 70
     0
  9
$PDMODE
 70
     0
  9
$PDSIZE
 40
0.0
  9
$PLINEWID
 40
0.0
  9
$SPLFRAME
 70
     0
  9
$SPLINETYPE
 70
     6
  9
$SPLINESEGS
 70
     8
  9
$HANDSEED
  5
45
  9
$SURFTAB1
 70
     6
  9
$SURFTAB2
 70
     6
  9
$SURFTYPE
 70
     6
  9
$SURFU
 70
     6
  9
$SURFV
 70
     6
  9
$UCSBASE
  2

  9
$UCSNAME
  2

  9
$UCSORG
 10
0.0
 20
0.0
 30
0.0
  9
$UCSXDIR
 10
1.0
 20
0.0
 30
0.0
  9
$UCSYDIR
 10
0.0
 20
1.0
 30
0.0
  9
$UCSORTHOREF
  2

  9
$UCSORTHOVIEW
 70
     0
  9
$UCSORGTOP
 10
0.0
 20
0.0
 30
0.0
  9
$UCSORGBOTTOM
 10
0.0
 20
0.0
 30
0.0
  9
$UCSORGLEFT
 10
0.0
 20
0.0
 30
0.0
  9
$UCSORGRIGHT
 10
0.0
 20
0.0
 30
0.0
  9
$UCSORGFRONT
 10
0.0
 20
0.0
 30
0.0
  9
$UCSORGBACK
 10
0.0
 20
0.0
 30
0.0
  9
$PUCSBASE
  2

  9
$PUCSNAME
  2

  9
$PUCSORG
 10
0.0
 20
0.0
 30
0.0
  9
$PUCSXDIR
 10
1.0
 20
0.0
 30
0.0
  9
$PUCSYDIR
 10
0.0
 20
1.0
 30
0.0
  9
$PUCSORTHOREF
  2

  9
$PUCSORTHOVIEW
 70
     0
  9
$PUCSORGTOP
 10
0.0
 20
0.0
 30
0.0
  9
$PUCSORGBOTTOM
 10
0.0
 20
0.0
 30
0.0
  9
$PUCSORGLEFT
 10
0.0
 20
0.0
 30
0.0
  9
$PUCSORGRIGHT
 10
0.0
 20
0.0
 30
0.0
  9
$PUCSORGFRONT
 10
0.0
 20
0.0
 30
0.0
  9
$PUCSORGBACK
 10
0.0
 20
0.0
 30
0.0
  9
$USERI1
 70
     0
  9
$USERI2
 70
     0
  9
$USERI3
 70
     0
  9
$USERI4
 70
     0
  9
$USERI5
 70
     0
  9
$USERR1
 40
0.0
  9
$USERR2
 40
0.0
  9
$USERR3
 40
0.0
  9
$USERR4
 40
0.0
  9
$USERR5
 40
0.0
  9
$WORLDVIEW
 70
     1
  9
$SHADEDGE
 70
     3
  9
$SHADEDIF
 70
    70
  9
$TILEMODE
 70
     1
  9
$MAXACTVP
 70
    64
  9
$PINSBASE
 10
0.0
 20
0.0
 30
0.0
  9
$PLIMCHECK
 70
     0
  9
$PEXTMIN
 10
1.000000000000000E+20
 20
1.000000000000000E+20
 30
1.000000000000000E+20
  9
$PEXTMAX
 10
-1.000000000000000E+20
 20
-1.000000000000000E+20
 30
-1.000000000000000E+20
  9
$PLIMMIN
 10
0.0
 20
0.0
  9
$PLIMMAX
 10
12.0
 20
9.0
  9
$UNITMODE
 70
     0
  9
$VISRETAIN
 70
     1
  9
$PLINEGEN
 70
     0
  9
$PSLTSCALE
 70
     1
  9
$TREEDEPTH
 70
  3020
  9
$CMLSTYLE
  2
Standard
  9
$CMLJUST
 70
     0
  9
$CMLSCALE
 40
1.0
  9
$PROXYGRAPHICS
 70
     1
  9
$MEASUREMENT
 70
     0
  9
$CELWEIGHT
370
    -1
  9
$ENDCAPS
280
     0
  9
$JOINSTYLE
280
     0
  9
$LWDISPLAY
290
     1
  9
$INSUNITS
 70
     0
  9
$HYPERLINKBASE
  1

  9
$STYLESHEET
  1

  9
$XEDIT
290
     1
  9
$CEPSNTYPE
380
     0
  9
$PSTYLEMODE
290
     1
  9
$FINGERPRINTGUID
  2
{5B942228-EB50-4D0C-925E-B98DC9AAA9FF}
  9
$VERSIONGUID
  2
{FAEB1C32-E019-11D5-929B-00C0DF256EC4}
  9
$EXTNAMES
290
     1
  9
$PSVPSCALE
 40
0.0
  9
$OLESTARTUP
290
     0
  9
$SORTENTS
280
   127
  9
$INDEXCTL
280
     0
  9
$HIDETEXT
280
     1
  9
$XCLIPFRAME
280
     2
  9
$HALOGAP
280
     0
  9
$OBSCOLOR
 70
   257
  9
$OBSLTYPE
280
     0
  9
$INTERSECTIONDISPLAY
280
     0
  9
$INTERSECTIONCOLOR
 70
   257
  9
$DIMASSOC
280
     2
  9
$PROJECTNAME
  1

  9
$CAMERADISPLAY
290
     0
  9
$LENSLENGTH
 40
50.0
  9
$CAMERAHEIGHT
 40
0.0
  9
$STEPSPERSEC
 40
2.0
  9
$STEPSIZE
 40
6.0
  9
$3DDWFPREC
 40
2.0
  9
$PSOLWIDTH
 40
0.25
  9
$PSOLHEIGHT
 40
4.0
  9
$LOFTANG1
 40
1.570796326794897
  9
$LOFTANG2
 40
1.570796326794897
  9
$LOFTMAG1
 40
0.0
  9
$LOFTMAG2
 40
0.0
  9
$LOFTPARAM
 70
     7
  9
$LOFTNORMALS
280
     1
  9
$LATITUDE
 40
37.795
  9
$LONGITUDE
 40
-122.394
  9
$NORTHDIRECTION
 40
0.0
  9
$TIMEZONE
 70
 -8000
  9
$LIGHTGLYPHDISPLAY
280
     1
  9
$TILEMODELIGHTSYNCH
280
     1
  9
$CMATERIAL
347
3C
  9
$SOLIDHIST
280
     1
  9
$SHOWHIST
280
     1
  9
$DWFFRAME
280
     2
  9
$DGNFRAME
280
     2
  9
$REALWORLDSCALE
290
     1
  9
$INTERFERECOLOR
 62
   256
  9
$CSHADOW
280
     0
  9
$SHADOWPLANELOCATION
 40
0.0
  0
ENDSEC
  0
SECTION
  2
CLASSES
  0
CLASS
  1
ACDBDICTIONARYWDFLT
  2
AcDbDictionaryWithDefault
  3
ObjectDBX Classes
 90
        0
 91
        4
280
     0
281
     0
  0
CLASS
  1
VISUALSTYLE
  2
AcDbVisualStyle
  3
ObjectDBX Classes
 90
     4095
 91
        4
280
     0
281
     0
  0
CLASS
  1
MATERIAL
  2
AcDbMaterial
  3
ObjectDBX Classes
 90
     1153
 91
        4
280
     0
281
     0
  0
CLASS
  1
SUN
  2
AcDbSun
  3
SCENEOE
 90
     1024
 91
        4
280
     0
281
     0
  0
ENDSEC
  0
SECTION
  2
TABLES
  0
TABLE
  2
VPORT
  5
8
330
0
100
AcDbSymbolTable
 70
     1
  0
VPORT
  5
29
330
8
100
AcDbSymbolTableRecord
100
AcDbViewportTableRecord
  2
*Active
 70
     0
 10
0.0
 20
0.0
 11
1.0
 21
1.0
 12
0.0
 22
0.0
 13
0.0
 23
0.0
 14
0.5
 24
0.5
 15
0.5
 25
0.5
 16
0.0
 26
0.0
 36
1.0
 17
540.0
 27
-540.0
 37
0.0
 40
1080.0
 41
1.0
 42
50.0
 43
0.0
 44
0.0
 50
0.0
 51
0.0
 71
     0
 72
   100
 73
     1
 74
     3
 75
     0
 76
     0
 77
     0
 78
     0
281
     0
 65
     1
110
0.0
120
0.0
130
0.0
111
1.0
121
0.0
131
0.0
112
0.0
122
1.0
132
0.0
 79
     0
146
0.0
 60
     3
 61
     5
292
     1
282
     1
141
0.0
142
0.0
 63
   250
361
3F
  0
ENDTAB
  0
TABLE
  2
LTYPE
  5
5
330
0
100
AcDbSymbolTable
 70
     1
  0
LTYPE
  5
14
330
5
100
AcDbSymbolTableRecord
100
AcDbLinetypeTableRecord
  2
ByBlock
 70
     0
  3

 72
    65
 73
     0
 40
0.0
  0
LTYPE
  5
15
330
5
100
AcDbSymbolTableRecord
100
AcDbLinetypeTableRecord
  2
ByLayer
 70
     0
  3

 72
    65
 73
     0
 40
0.0
  0
LTYPE
  5
16
330
5
100
AcDbSymbolTableRecord
100
AcDbLinetypeTableRecord
  2
Continuous
 70
     0
  3
Solid line
 72
    65
 73
     0
 40
0.0
  0
ENDTAB
  0
TABLE
  2
LAYER
  5
2
330
0
100
AcDbSymbolTable
 70
     2
  0
LAYER
  5
10
330
2
100
AcDbSymbolTableRecord
100
AcDbLayerTableRecord
  2
0
 70
     0
 62
     7
  6
Continuous
370
    -3
390
F
347
3E
  0
LAYER
  5
40
330
2
100
AcDbSymbolTableRecord
100
AcDbLayerTableRecord
  2
JIN_GREEN
 70
     0
 62
     7
  6
Continuous
370
    -3
390
F
347
3E
  0
ENDTAB
  0
TABLE
  2
STYLE
  5
3
330
0
100
AcDbSymbolTable
 70
     1
  0
STYLE
  5
11
330
3
100
AcDbSymbolTableRecord
100
AcDbTextStyleTableRecord
  2
Standard
 70
     0
 40
0.0
 41
1.0
 50
0.0
 71
     0
 42
0.2
  3
txt
  4

  0
ENDTAB
  0
TABLE
  2
VIEW
  5
6
330
0
100
AcDbSymbolTable
 70
     0
  0
ENDTAB
  0
TABLE
  2
UCS
  5
7
330
0
100
AcDbSymbolTable
 70
     0
  0
ENDTAB
  0
TABLE
  2
APPID
  5
9
330
0
100
AcDbSymbolTable
 70
     1
  0
APPID
  5
12
330
9
100
AcDbSymbolTableRecord
100
AcDbRegAppTableRecord
  2
ACAD
 70
     0
  0
ENDTAB
  0
TABLE
  2
DIMSTYLE
  5
A
330
0
100
AcDbSymbolTable
 70
     1
100
AcDbDimStyleTable
  0
DIMSTYLE
105
27
330
A
100
AcDbSymbolTableRecord
100
AcDbDimStyleTableRecord
  2
Standard
 70
     0
178
     0
340
11
  0
ENDTAB
  0
TABLE
  2
BLOCK_RECORD
  5
1
330
0
100
AcDbSymbolTable
 70
     1
  0
BLOCK_RECORD
  5
1F
330
1
100
AcDbSymbolTableRecord
100
AcDbBlockTableRecord
  2
*Model_Space
340
22
 70
     0
280
     1
281
     0
  0
BLOCK_RECORD
  5
1B
330
1
100
AcDbSymbolTableRecord
100
AcDbBlockTableRecord
  2
*Paper_Space
340
1E
 70
     0
280
     1
281
     0
  0
BLOCK_RECORD
  5
23
330
1
100
AcDbSymbolTableRecord
100
AcDbBlockTableRecord
  2
*Paper_Space0
340
26
 70
     0
280
     1
281
     0
  0
ENDTAB
  0
ENDSEC
  0
SECTION
  2
BLOCKS
  0
BLOCK
  5
20
330
1F
100
AcDbEntity
  8
0
100
AcDbBlockBegin
  2
*Model_Space
 70
     0
 10
0.0
 20
0.0
 30
0.0
  3
*Model_Space
  1

  0
ENDBLK
  5
21
330
1F
100
AcDbEntity
  8
0
100
AcDbBlockEnd
  0
BLOCK
  5
1C
330
1B
100
AcDbEntity
 67
     1
  8
0
100
AcDbBlockBegin
  2
*Paper_Space
 70
     0
 10
0.0
 20
0.0
 30
0.0
  3
*Paper_Space
  1

  0
ENDBLK
  5
1D
330
1B
100
AcDbEntity
 67
     1
  8
0
100
AcDbBlockEnd
  0
BLOCK
  5
24
330
23
100
AcDbEntity
  8
0
100
AcDbBlockBegin
  2
*Paper_Space0
 70
     0
 10
0.0
 20
0.0
 30
0.0
  3
*Paper_Space0
  1

  0
ENDBLK
  5
25
330
23
100
AcDbEntity
  8
0
100
AcDbBlockEnd
  0
ENDSEC
  0
SECTION
  2
ENTITIES
  0
SPLINE
  5
41
330
1F
100
AcDbEntity
  8
JIN_GREEN
370
     0
100
AcDbSpline
210
0.0
220
0.0
230
1.0
 70
    11
 71
     3
 72
   239
 73
   235
 74
     0
 42
0.0000000001
 43
0.0000000001
 12
1.0
 22
0.0
 32
0.0
 13
1.0
 23
0.0
 33
0.0
 40
0.0
 40
0.0
 40
0.0
 40
0.0
 40
1.0
 40
1.0
 40
1.0
 40
2.0
 40
2.0
 40
2.0
 40
3.0
 40
3.0
 40
3.0
 40
4.0
 40
4.0
 40
4.0
 40
5.0
 40
5.0
 40
5.0
 40
6.0
 40
6.0
 40
6.0
 40
7.0
 40
7.0
 40
7.0
 40
8.0
 40
8.0
 40
8.0
 40
9.0
 40
9.0
 40
9.0
 40
10.0
 40
10.0
 40
10.0
 40
11.0
 40
11.0
 40
11.0
 40
12.0
 40
12.0
 40
12.0
 40
13.0
 40
13.0
 40
13.0
 40
14.0
 40
14.0
 40
14.0
 40
15.0
 40
15.0
 40
15.0
 40
16.0
 40
16.0
 40
16.0
 40
17.0
 40
17.0
 40
17.0
 40
18.0
 40
18.0
 40
18.0
 40
19.0
 40
19.0
 40
19.0
 40
20.0
 40
20.0
 40
20.0
 40
21.0
 40
21.0
 40
21.0
 40
22.0
 40
22.0
 40
22.0
 40
23.0
 40
23.0
 40
23.0
 40
24.0
 40
24.0
 40
24.0
 40
25.0
 40
25.0
 40
25.0
 40
26.0
 40
26.0
 40
26.0
 40
27.0
 40
27.0
 40
27.0
 40
28.0
 40
28.0
 40
28.0
 40
29.0
 40
29.0
 40
29.0
 40
30.0
 40
30.0
 40
30.0
 40
31.0
 40
31.0
 40
31.0
 40
32.0
 40
32.0
 40
32.0
 40
33.0
 40
33.0
 40
33.0
 40
34.0
 40
34.0
 40
34.0
 40
35.0
 40
35.0
 40
35.0
 40
36.0
 40
36.0
 40
36.0
 40
37.0
 40
37.0
 40
37.0
 40
38.0
 40
38.0
 40
38.0
 40
39.0
 40
39.0
 40
39.0
 40
40.0
 40
40.0
 40
40.0
 40
41.0
 40
41.0
 40
41.0
 40
42.0
 40
42.0
 40
42.0
 40
43.0
 40
43.0
 40
43.0
 40
44.0
 40
44.0
 40
44.0
 40
45.0
 40
45.0
 40
45.0
 40
46.0
 40
46.0
 40
46.0
 40
47.0
 40
47.0
 40
47.0
 40
48.0
 40
48.0
 40
48.0
 40
49.0
 40
49.0
 40
49.0
 40
50.0
 40
50.0
 40
50.0
 40
51.0
 40
51.0
 40
51.0
 40
52.0
 40
52.0
 40
52.0
 40
53.0
 40
53.0
 40
53.0
 40
54.0
 40
54.0
 40
54.0
 40
55.0
 40
55.0
 40
55.0
 40
56.0
 40
56.0
 40
56.0
 40
57.0
 40
57.0
 40
57.0
 40
58.0
 40
58.0
 40
58.0
 40
59.0
 40
59.0
 40
59.0
 40
60.0
 40
60.0
 40
60.0
 40
61.0
 40
61.0
 40
61.0
 40
62.0
 40
62.0
 40
62.0
 40
63.0
 40
63.0
 40
63.0
 40
64.0
 40
64.0
 40
64.0
 40
65.0
 40
65.0
 40
65.0
 40
66.0
 40
66.0
 40
66.0
 40
67.0
 40
67.0
 40
67.0
 40
68.0
 40
68.0
 40
68.0
 40
69.0
 40
69.0
 40
69.0
 40
70.0
 40
70.0
 40
70.0
 40
71.0
 40
71.0
 40
71.0
 40
72.0
 40
72.0
 40
72.0
 40
73.0
 40
73.0
 40
73.0
 40
74.0
 40
74.0
 40
74.0
 40
75.0
 40
75.0
 40
75.0
 40
76.0
 40
76.0
 40
76.0
 40
77.0
 40
77.0
 40
77.0
 40
78.0
 40
78.0
 40
78.0
 40
78.0
 10
788.3699951171875
 20
-299.6199951171884
 30
0.0
 10
798.030029296875
 20
-278.5700073242188
 30
0.0
 10
788.5999755859375
 20
-250.0299682617188
 30
0.0
 10
761.0499877929688
 20
-217.0399780273438
 30
0.0
 10
740.280029296875
 20
-192.1699829101562
 30
0.0
 10
716.280029296875
 20
-173.219970703125
 30
0.0
 10
716.0399780273438
 20
-173.0399780273438
 30
0.0
 10
655.3599853515625
 20
-124.8200073242188
 30
0.0
 10
613.7000122070312
 20
-117.4500122070312
 30
0.0
 10
589.4299926757812
 20
-119.760009765625
 30
0.0
 10
566.3200073242188
 20
-121.9599609375
 30
0.0
 10
554.3200073242188
 20
-132.8099975585938
 30
0.0
 10
551.27001953125
 20
-135.97998046875
 30
0.0
 10
546.4600219726562
 20
-133.0599975585938
 30
0.0
 10
540.3599853515625
 20
-130.0700073242188
 30
0.0
 10
533.1500244140625
 20
-127.9199829101562
 30
0.0
 10
515.4600219726562
 20
-122.6599731445312
 30
0.0
 10
487.5
 20
-121.8599853515634
 30
0.0
 10
454.8200073242188
 20
-147.8699951171884
 30
0.0
 10
445.1099853515634
 20
-155.5899658203134
 30
0.0
 10
436.1900024414062
 20
-164.8299560546884
 30
0.0
 10
428.3200073242188
 20
-175.3200073242188
 30
0.0
 10
421.010009765625
 20
-185.0499877929688
 30
0.0
 10
405.22998046875
 20
-204.7699584960938
 30
0.0
 10
381.5999755859384
 20
-227.5899658203134
 30
0.0
 10
377.5399780273438
 20
-231.510009765625
 30
0.0
 10
373.4199829101562
 20
-235.2699584960938
 30
0.0
 10
370.2899780273438
 20
-238.1099853515634
 30
0.0
 10
361.5700073242188
 20
-246.0
 30
0.0
 10
319.25
 20
-287.75
 30
0.0
 10
340.260009765625
 20
-336.2699584960938
 30
0.0
 10
337.530029296875
 20
-350.6400146484384
 30
0.0
 10
338.47998046875
 20
-368.4199829101562
 30
0.0
 10
349.1500244140634
 20
-387.8599853515634
 30
0.0
 10
349.4400024414062
 20
-388.3900146484384
 30
0.0
 10
350.0499877929688
 20
-388.6499633789062
 30
0.0
 10
350.6300048828134
 20
-388.489990234375
 30
0.0
 10
351.2100219726562
 20
-388.3299560546884
 30
0.0
 10
351.6099853515634
 20
-387.7999877929688
 30
0.0
 10
351.5900268554688
 20
-387.2000122070312
 30
0.0
 10
351.52001953125
 20
-384.0399780273438
 30
0.0
 10
351.8900146484384
 20
-376.22998046875
 30
0.0
 10
354.0499877929688
 20
-371.4299926757812
 30
0.0
 10
355.6900024414062
 20
-381.4599609375
 30
0.0
 10
362.6400146484384
 20
-410.4500122070312
 30
0.0
 10
389.3800048828134
 20
-426.1300048828134
 30
0.0
 10
388.1699829101562
 20
-428.010009765625
 30
0.0
 10
387.4299926757812
 20
-430.239990234375
 30
0.0
 10
387.3200073242188
 20
-432.6199951171884
 30
0.0
 10
386.77001953125
 20
-444.469970703125
 30
0.0
 10
390.3400268554688
 20
-473.8900146484384
 30
0.0
 10
434.9500122070312
 20
-492.1900024414062
 30
0.0
 10
436.4299926757812
 20
-498.0
 30
0.0
 10
438.1400146484384
 20
-505.0
 30
0.0
 10
439.77001953125
 20
-512.2099609375
 30
0.0
 10
442.25
 20
-523.2000122070312
 30
0.0
 10
447.7999877929688
 20
-533.0599975585938
 30
0.0
 10
455.8099975585938
 20
-540.7099609375
 30
0.0
 10
466.4099731445312
 20
-550.8299560546875
 30
0.0
 10
485.02001953125
 20
-563.5799560546875
 30
0.0
 10
515.5
 20
-570.5700073242188
 30
0.0
 10
515.280029296875
 20
-570.6599731445312
 30
0.0
 10
515.0700073242188
 20
-570.75
 30
0.0
 10
514.8400268554688
 20
-570.8499755859375
 30
0.0
 10
503.8099975585938
 20
-575.8099975585938
 30
0.0
 10
495.6199951171884
 20
-585.8699951171875
 30
0.0
 10
492.9500122070312
 20
-597.75
 30
0.0
 10
490.6099853515634
 20
-608.1400146484375
 30
0.0
 10
488.2999877929688
 20
-624.22998046875
 30
0.0
 10
490.5399780273438
 20
-641.9400024414062
 30
0.0
 10
491.260009765625
 20
-647.6300048828125
 30
0.0
 10
493.6400146484384
 20
-652.9299926757812
 30
0.0
 10
497.4199829101562
 20
-657.2699584960938
 30
0.0
 10
498.8300170898438
 20
-658.8999633789062
 30
0.0
 10
500.6199951171884
 20
-660.7799682617188
 30
0.0
 10
502.760009765625
 20
-662.7099609375
 30
0.0
 10
502.6699829101562
 20
-665.6799926757812
 30
0.0
 10
502.3499755859384
 20
-679.6099853515625
 30
0.0
 10
503.6400146484384
 20
-695.5799560546875
 30
0.0
 10
503.9400024414062
 20
-699.2699584960938
 30
0.0
 10
503.989990234375
 20
-703.0199584960938
 30
0.0
 10
503.780029296875
 20
-706.7000122070312
 30
0.0
 10
502.9600219726562
 20
-721.0899658203125
 30
0.0
 10
503.7000122070312
 20
-730.25
 30
0.0
 10
505.969970703125
 20
-734.0199584960938
 30
0.0
 10
503.5599975585938
 20
-737.1199951171875
 30
0.0
 10
504.1799926757812
 20
-744.5199584960938
 30
0.0
 10
504.3499755859384
 20
-746.1400146484375
 30
0.0
 10
504.3900146484384
 20
-746.5399780273438
 30
0.0
 10
504.6199951171884
 20
-746.9099731445312
 30
0.0
 10
504.97998046875
 20
-747.1199951171875
 30
0.0
 10
505.25
 20
-747.2799682617188
 30
0.0
 10
505.6300048828134
 20
-747.3900146484375
 30
0.0
 10
506.0399780273438
 20
-747.469970703125
 30
0.0
 10
496.7100219726562
 20
-782.7099609375
 30
0.0
 10
492.1500244140634
 20
-820.4199829101562
 30
0.0
 10
490.260009765625
 20
-839.9299926757812
 30
0.0
 10
489.4299926757812
 20
-848.4099731445312
 30
0.0
 10
487.3099975585938
 20
-856.7000122070312
 30
0.0
 10
483.9600219726562
 20
-864.5799560546875
 30
0.0
 10
467.989990234375
 20
-902.0399780273438
 30
0.0
 10
463.75
 20
-934.0700073242188
 30
0.0
 10
462.6699829101562
 20
-946.0999755859375
 30
0.0
 10
462.5499877929688
 20
-947.4400024414062
 30
0.0
 10
463.25
 20
-948.6799926757812
 30
0.0
 10
464.4500122070312
 20
-949.260009765625
 30
0.0
 10
464.719970703125
 20
-949.3999633789062
 30
0.0
 10
465.010009765625
 20
-949.47998046875
 30
0.0
 10
465.2999877929688
 20
-949.5399780273438
 30
0.0
 10
464.1900024414062
 20
-953.8099975585938
 30
0.0
 10
464.1500244140634
 20
-957.0700073242188
 30
0.0
 10
464.3499755859384
 20
-959.1599731445312
 30
0.0
 10
464.5599975585938
 20
-961.4500122070312
 30
0.0
 10
466.25
 20
-963.3699951171875
 30
0.0
 10
468.5499877929688
 20
-963.9199829101562
 30
0.0
 10
476.719970703125
 20
-965.8900146484375
 30
0.0
 10
483.5599975585938
 20
-966.6699829101562
 30
0.0
 10
489.260009765625
 20
-966.6699829101562
 30
0.0
 10
505.4000244140634
 20
-966.6699829101562
 30
0.0
 10
512.4199829101562
 20
-960.4400024414062
 30
0.0
 10
514.8699951171875
 20
-957.4400024414062
 30
0.0
 10
516.989990234375
 20
-959.8200073242188
 30
0.0
 10
519.6199951171875
 20
-961.0700073242188
 30
0.0
 10
522.5900268554688
 20
-961.0700073242188
 30
0.0
 10
522.969970703125
 20
-961.0700073242188
 30
0.0
 10
523.3499755859375
 20
-961.0499877929688
 30
0.0
 10
523.739990234375
 20
-961.010009765625
 30
0.0
 10
529.6400146484375
 20
-960.3999633789062
 30
0.0
 10
534.27001953125
 20
-955.5199584960938
 30
0.0
 10
534.739990234375
 20
-949.3999633789062
 30
0.0
 10
539.9500122070312
 20
-882.2000122070312
 30
0.0
 10
559.0399780273438
 20
-844.760009765625
 30
0.0
 10
574.1400146484375
 20
-825.1799926757812
 30
0.0
 10
577.1300048828125
 20
-821.3099975585938
 30
0.0
 10
580.0800170898438
 20
-817.9599609375
 30
0.0
 10
582.9199829101562
 20
-815.0799560546875
 30
0.0
 10
584.3900146484375
 20
-820.4299926757812
 30
0.0
 10
588.1699829101562
 20
-835.1199951171875
 30
0.0
 10
589.5399780273438
 20
-849.510009765625
 30
0.0
 10
590.0599975585938
 20
-854.9599609375
 30
0.0
 10
589.75
 20
-860.4199829101562
 30
0.0
 10
588.6300048828125
 20
-865.719970703125
 30
0.0
 10
585.510009765625
 20
-880.5
 30
0.0
 10
578.4400024414062
 20
-918.219970703125
 30
0.0
 10
580.3099975585938
 20
-949.219970703125
 30
0.0
 10
580.4000244140625
 20
-950.760009765625
 30
0.0
 10
581.1199951171875
 20
-952.219970703125
 30
0.0
 10
582.27001953125
 20
-953.22998046875
 30
0.0
 10
583.3200073242188
 20
-954.1499633789062
 30
0.0
 10
584.6199951171875
 20
-954.6400146484375
 30
0.0
 10
585.97998046875
 20
-954.6400146484375
 30
0.0
 10
586.1199951171875
 20
-954.6400146484375
 30
0.0
 10
586.25
 20
-954.6400146484375
 30
0.0
 10
586.3800048828125
 20
-954.6300048828125
 30
0.0
 10
588.1699829101562
 20
-954.5
 30
0.0
 10
590.3599853515625
 20
-954.0700073242188
 30
0.0
 10
592.6900024414062
 20
-953.0
 30
0.0
 10
592.9500122070312
 20
-953.4299926757812
 30
0.0
 10
593.2899780273438
 20
-953.9599609375
 30
0.0
 10
593.7000122070312
 20
-954.5399780273438
 30
0.0
 10
595.75
 20
-957.4400024414062
 30
0.0
 10
598.989990234375
 20
-959.4500122070312
 30
0.0
 10
602.5800170898438
 20
-960.0499877929688
 30
0.0
 10
606.4199829101562
 20
-960.6900024414062
 30
0.0
 10
612.9400024414062
 20
-961.5
 30
0.0
 10
621.239990234375
 20
-961.5
 30
0.0
 10
625.5999755859375
 20
-961.5
 30
0.0
 10
630.4600219726562
 20
-961.2799682617188
 30
0.0
 10
635.6799926757812
 20
-960.6799926757812
 30
0.0
 10
640.2100219726562
 20
-960.1699829101562
 30
0.0
 10
644.3499755859375
 20
-958.0700073242188
 30
0.0
 10
647.3400268554688
 20
-954.7699584960938
 30
0.0
 10
648.9000244140625
 20
-953.0499877929688
 30
0.0
 10
650.0900268554688
 20
-951.3299560546875
 30
0.0
 10
650.9299926757812
 20
-949.6199951171875
 30
0.0
 10
651.6799926757812
 20
-949.6799926757812
 30
0.0
 10
652.4400024414062
 20
-949.5799560546875
 30
0.0
 10
653.1799926757812
 20
-949.2799682617188
 30
0.0
 10
654.9299926757812
 20
-948.5700073242188
 30
0.0
 10
656.0999755859375
 20
-946.9599609375
 30
0.0
 10
656.219970703125
 20
-945.0799560546875
 30
0.0
 10
656.8300170898438
 20
-936.1599731445312
 30
0.0
 10
657.8300170898438
 20
-910.7000122070312
 30
0.0
 10
654.02001953125
 20
-866.97998046875
 30
0.0
 10
653.6199951171875
 20
-862.3699951171875
 30
0.0
 10
653.8599853515625
 20
-857.72998046875
 30
0.0
 10
654.739990234375
 20
-853.2099609375
 30
0.0
 10
658.530029296875
 20
-833.8499755859375
 30
0.0
 10
666.9500122070312
 20
-784.3299560546875
 30
0.0
 10
663.5399780273438
 20
-742.47998046875
 30
0.0
 10
663.72998046875
 20
-740.4599609375
 30
0.0
 10
664.3099975585938
 20
-732.0999755859375
 30
0.0
 10
661.5900268554688
 20
-729.1199951171875
 30
0.0
 10
662.510009765625
 20
-724.6400146484375
 30
0.0
 10
662.22998046875
 20
-718.1300048828125
 30
0.0
 10
660.739990234375
 20
-709.6900024414062
 30
0.0
 10
659.6400146484375
 20
-703.47998046875
 30
0.0
 10
659.1300048828125
 20
-696.9099731445312
 30
0.0
 10
659.239990234375
 20
-690.1799926757812
 30
0.0
 10
659.3599853515625
 20
-682.3399658203125
 30
0.0
 10
658.77001953125
 20
-674.469970703125
 30
0.0
 10
658.6099853515625
 20
-672.5700073242188
 30
0.0
 10
659.7999877929688
 20
-670.719970703125
 30
0.0
 10
660.8300170898438
 20
-668.739990234375
 30
0.0
 10
661.6599731445312
 20
-666.6699829101562
 30
0.0
 10
671.1300048828125
 20
-643.0199584960938
 30
0.0
 10
668.3699951171875
 20
-611.7699584960938
 30
0.0
 10
666.75
 20
-599.4299926757812
 30
0.0
 10
665.7999877929688
 20
-592.2000122070312
 30
0.0
 10
662.780029296875
 20
-585.6699829101562
 30
0.0
 10
658.02001953125
 20
-580.5299682617188
 30
0.0
 10
652.0900268554688
 20
-574.1300048828125
 30
0.0
 10
644.77001953125
 20
-569.719970703125
 30
0.0
 10
640.739990234375
 20
-567.5700073242188
 30
0.0
 10
680.7999877929688
 20
-554.760009765625
 30
0.0
 10
701.5800170898438
 20
-534.2699584960938
 30
0.0
 10
712.3400268554688
 20
-516.72998046875
 30
0.0
 10
719.02001953125
 20
-505.8499755859384
 30
0.0
 10
722.1400146484375
 20
-493.1300048828134
 30
0.0
 10
721.3699951171875
 20
-479.9500122070312
 30
0.0
 10
721.2899780273438
 20
-478.5700073242188
 30
0.0
 10
721.219970703125
 20
-477.219970703125
 30
0.0
 10
721.1699829101562
 20
-475.8699951171884
 30
0.0
 10
762.1599731445312
 20
-453.9400024414062
 30
0.0
 10
757.2999877929688
 20
-409.72998046875
 30
0.0
 10
756.5999755859375
 20
-404.7099609375
 30
0.0
 10
761.5999755859375
 20
-397.5199584960938
 30
0.0
 10
765.010009765625
 20
-389.260009765625
 30
0.0
 10
766.77001953125
 20
-380.0399780273438
 30
0.0
 10
794.0800170898438
 20
-368.719970703125
 30
0.0
 10
790.7999877929688
 20
-321.739990234375
 30
0.0
 10
790.6500244140625
 20
-319.75
 30
0.0
 10
790.239990234375
 20
-312.3699951171884
 30
0.0
 10
789.4400024414062
 20
-305.6900024414062
 30
0.0
 10
788.3699951171875
 20
-299.6199951171884
 30
0.0
  0
HATCH
  5
42
330
1F
100
AcDbEntity
  8
JIN_GREEN
 62
    83
420
  7974000
100
AcDbHatch
 10
0.0
 20
0.0
 30
0.0
210
0.0
220
0.0
230
1.0
  2
SOLID
 70
     1
 71
     0
 91
        1
 92
        1
 93
        1
 72
     4
 94
        3
 73
     0
 74
     1
 95
      239
 96
      235
 40
0.0
 40
0.0
 40
0.0
 40
0.0
 40
1.0
 40
1.0
 40
1.0
 40
2.0
 40
2.0
 40
2.0
 40
3.0
 40
3.0
 40
3.0
 40
4.0
 40
4.0
 40
4.0
 40
5.0
 40
5.0
 40
5.0
 40
6.0
 40
6.0
 40
6.0
 40
7.0
 40
7.0
 40
7.0
 40
8.0
 40
8.0
 40
8.0
 40
9.0
 40
9.0
 40
9.0
 40
10.0
 40
10.0
 40
10.0
 40
11.0
 40
11.0
 40
11.0
 40
12.0
 40
12.0
 40
12.0
 40
13.0
 40
13.0
 40
13.0
 40
14.0
 40
14.0
 40
14.0
 40
15.0
 40
15.0
 40
15.0
 40
16.0
 40
16.0
 40
16.0
 40
17.0
 40
17.0
 40
17.0
 40
18.0
 40
18.0
 40
18.0
 40
19.0
 40
19.0
 40
19.0
 40
20.0
 40
20.0
 40
20.0
 40
21.0
 40
21.0
 40
21.0
 40
22.0
 40
22.0
 40
22.0
 40
23.0
 40
23.0
 40
23.0
 40
24.0
 40
24.0
 40
24.0
 40
25.0
 40
25.0
 40
25.0
 40
26.0
 40
26.0
 40
26.0
 40
27.0
 40
27.0
 40
27.0
 40
28.0
 40
28.0
 40
28.0
 40
29.0
 40
29.0
 40
29.0
 40
30.0
 40
30.0
 40
30.0
 40
31.0
 40
31.0
 40
31.0
 40
32.0
 40
32.0
 40
32.0
 40
33.0
 40
33.0
 40
33.0
 40
34.0
 40
34.0
 40
34.0
 40
35.0
 40
35.0
 40
35.0
 40
36.0
 40
36.0
 40
36.0
 40
37.0
 40
37.0
 40
37.0
 40
38.0
 40
38.0
 40
38.0
 40
39.0
 40
39.0
 40
39.0
 40
40.0
 40
40.0
 40
40.0
 40
41.0
 40
41.0
 40
41.0
 40
42.0
 40
42.0
 40
42.0
 40
43.0
 40
43.0
 40
43.0
 40
44.0
 40
44.0
 40
44.0
 40
45.0
 40
45.0
 40
45.0
 40
46.0
 40
46.0
 40
46.0
 40
47.0
 40
47.0
 40
47.0
 40
48.0
 40
48.0
 40
48.0
 40
49.0
 40
49.0
 40
49.0
 40
50.0
 40
50.0
 40
50.0
 40
51.0
 40
51.0
 40
51.0
 40
52.0
 40
52.0
 40
52.0
 40
53.0
 40
53.0
 40
53.0
 40
54.0
 40
54.0
 40
54.0
 40
55.0
 40
55.0
 40
55.0
 40
56.0
 40
56.0
 40
56.0
 40
57.0
 40
57.0
 40
57.0
 40
58.0
 40
58.0
 40
58.0
 40
59.0
 40
59.0
 40
59.0
 40
60.0
 40
60.0
 40
60.0
 40
61.0
 40
61.0
 40
61.0
 40
62.0
 40
62.0
 40
62.0
 40
63.0
 40
63.0
 40
63.0
 40
64.0
 40
64.0
 40
64.0
 40
65.0
 40
65.0
 40
65.0
 40
66.0
 40
66.0
 40
66.0
 40
67.0
 40
67.0
 40
67.0
 40
68.0
 40
68.0
 40
68.0
 40
69.0
 40
69.0
 40
69.0
 40
70.0
 40
70.0
 40
70.0
 40
71.0
 40
71.0
 40
71.0
 40
72.0
 40
72.0
 40
72.0
 40
73.0
 40
73.0
 40
73.0
 40
74.0
 40
74.0
 40
74.0
 40
75.0
 40
75.0
 40
75.0
 40
76.0
 40
76.0
 40
76.0
 40
77.0
 40
77.0
 40
77.0
 40
78.0
 40
78.0
 40
78.0
 40
78.0
 10
788.3699951171875
 20
-299.6199951171884
 10
798.030029296875
 20
-278.5700073242188
 10
788.5999755859375
 20
-250.0299682617188
 10
761.0499877929688
 20
-217.0399780273438
 10
740.280029296875
 20
-192.1699829101562
 10
716.280029296875
 20
-173.219970703125
 10
716.0399780273438
 20
-173.0399780273438
 10
655.3599853515625
 20
-124.8200073242188
 10
613.7000122070312
 20
-117.4500122070312
 10
589.4299926757812
 20
-119.760009765625
 10
566.3200073242188
 20
-121.9599609375
 10
554.3200073242188
 20
-132.8099975585938
 10
551.27001953125
 20
-135.97998046875
 10
546.4600219726562
 20
-133.0599975585938
 10
540.3599853515625
 20
-130.0700073242188
 10
533.1500244140625
 20
-127.9199829101562
 10
515.4600219726562
 20
-122.6599731445312
 10
487.5
 20
-121.8599853515634
 10
454.8200073242188
 20
-147.8699951171884
 10
445.1099853515634
 20
-155.5899658203134
 10
436.1900024414062
 20
-164.8299560546884
 10
428.3200073242188
 20
-175.3200073242188
 10
421.010009765625
 20
-185.0499877929688
 10
405.22998046875
 20
-204.7699584960938
 10
381.5999755859384
 20
-227.5899658203134
 10
377.5399780273438
 20
-231.510009765625
 10
373.4199829101562
 20
-235.2699584960938
 10
370.2899780273438
 20
-238.1099853515634
 10
361.5700073242188
 20
-246.0
 10
319.25
 20
-287.75
 10
340.260009765625
 20
-336.2699584960938
 10
337.530029296875
 20
-350.6400146484384
 10
338.47998046875
 20
-368.4199829101562
 10
349.1500244140634
 20
-387.8599853515634
 10
349.4400024414062
 20
-388.3900146484384
 10
350.0499877929688
 20
-388.6499633789062
 10
350.6300048828134
 20
-388.489990234375
 10
351.2100219726562
 20
-388.3299560546884
 10
351.6099853515634
 20
-387.7999877929688
 10
351.5900268554688
 20
-387.2000122070312
 10
351.52001953125
 20
-384.0399780273438
 10
351.8900146484384
 20
-376.22998046875
 10
354.0499877929688
 20
-371.4299926757812
 10
355.6900024414062
 20
-381.4599609375
 10
362.6400146484384
 20
-410.4500122070312
 10
389.3800048828134
 20
-426.1300048828134
 10
388.1699829101562
 20
-428.010009765625
 10
387.4299926757812
 20
-430.239990234375
 10
387.3200073242188
 20
-432.6199951171884
 10
386.77001953125
 20
-444.469970703125
 10
390.3400268554688
 20
-473.8900146484384
 10
434.9500122070312
 20
-492.1900024414062
 10
436.4299926757812
 20
-498.0
 10
438.1400146484384
 20
-505.0
 10
439.77001953125
 20
-512.2099609375
 10
442.25
 20
-523.2000122070312
 10
447.7999877929688
 20
-533.0599975585938
 10
455.8099975585938
 20
-540.7099609375
 10
466.4099731445312
 20
-550.8299560546875
 10
485.02001953125
 20
-563.5799560546875
 10
515.5
 20
-570.5700073242188
 10
515.280029296875
 20
-570.6599731445312
 10
515.0700073242188
 20
-570.75
 10
514.8400268554688
 20
-570.8499755859375
 10
503.8099975585938
 20
-575.8099975585938
 10
495.6199951171884
 20
-585.8699951171875
 10
492.9500122070312
 20
-597.75
 10
490.6099853515634
 20
-608.1400146484375
 10
488.2999877929688
 20
-624.22998046875
 10
490.5399780273438
 20
-641.9400024414062
 10
491.260009765625
 20
-647.6300048828125
 10
493.6400146484384
 20
-652.9299926757812
 10
497.4199829101562
 20
-657.2699584960938
 10
498.8300170898438
 20
-658.8999633789062
 10
500.6199951171884
 20
-660.7799682617188
 10
502.760009765625
 20
-662.7099609375
 10
502.6699829101562
 20
-665.6799926757812
 10
502.3499755859384
 20
-679.6099853515625
 10
503.6400146484384
 20
-695.5799560546875
 10
503.9400024414062
 20
-699.2699584960938
 10
503.989990234375
 20
-703.0199584960938
 10
503.780029296875
 20
-706.7000122070312
 10
502.9600219726562
 20
-721.0899658203125
 10
503.7000122070312
 20
-730.25
 10
505.969970703125
 20
-734.0199584960938
 10
503.5599975585938
 20
-737.1199951171875
 10
504.1799926757812
 20
-744.5199584960938
 10
504.3499755859384
 20
-746.1400146484375
 10
504.3900146484384
 20
-746.5399780273438
 10
504.6199951171884
 20
-746.9099731445312
 10
504.97998046875
 20
-747.1199951171875
 10
505.25
 20
-747.2799682617188
 10
505.6300048828134
 20
-747.3900146484375
 10
506.0399780273438
 20
-747.469970703125
 10
496.7100219726562
 20
-782.7099609375
 10
492.1500244140634
 20
-820.4199829101562
 10
490.260009765625
 20
-839.9299926757812
 10
489.4299926757812
 20
-848.4099731445312
 10
487.3099975585938
 20
-856.7000122070312
 10
483.9600219726562
 20
-864.5799560546875
 10
467.989990234375
 20
-902.0399780273438
 10
463.75
 20
-934.0700073242188
 10
462.6699829101562
 20
-946.0999755859375
 10
462.5499877929688
 20
-947.4400024414062
 10
463.25
 20
-948.6799926757812
 10
464.4500122070312
 20
-949.260009765625
 10
464.719970703125
 20
-949.3999633789062
 10
465.010009765625
 20
-949.47998046875
 10
465.2999877929688
 20
-949.5399780273438
 10
464.1900024414062
 20
-953.8099975585938
 10
464.1500244140634
 20
-957.0700073242188
 10
464.3499755859384
 20
-959.1599731445312
 10
464.5599975585938
 20
-961.4500122070312
 10
466.25
 20
-963.3699951171875
 10
468.5499877929688
 20
-963.9199829101562
 10
476.719970703125
 20
-965.8900146484375
 10
483.5599975585938
 20
-966.6699829101562
 10
489.260009765625
 20
-966.6699829101562
 10
505.4000244140634
 20
-966.6699829101562
 10
512.4199829101562
 20
-960.4400024414062
 10
514.8699951171875
 20
-957.4400024414062
 10
516.989990234375
 20
-959.8200073242188
 10
519.6199951171875
 20
-961.0700073242188
 10
522.5900268554688
 20
-961.0700073242188
 10
522.969970703125
 20
-961.0700073242188
 10
523.3499755859375
 20
-961.0499877929688
 10
523.739990234375
 20
-961.010009765625
 10
529.6400146484375
 20
-960.3999633789062
 10
534.27001953125
 20
-955.5199584960938
 10
534.739990234375
 20
-949.3999633789062
 10
539.9500122070312
 20
-882.2000122070312
 10
559.0399780273438
 20
-844.760009765625
 10
574.1400146484375
 20
-825.1799926757812
 10
577.1300048828125
 20
-821.3099975585938
 10
580.0800170898438
 20
-817.9599609375
 10
582.9199829101562
 20
-815.0799560546875
 10
584.3900146484375
 20
-820.4299926757812
 10
588.1699829101562
 20
-835.1199951171875
 10
589.5399780273438
 20
-849.510009765625
 10
590.0599975585938
 20
-854.9599609375
 10
589.75
 20
-860.4199829101562
 10
588.6300048828125
 20
-865.719970703125
 10
585.510009765625
 20
-880.5
 10
578.4400024414062
 20
-918.219970703125
 10
580.3099975585938
 20
-949.219970703125
 10
580.4000244140625
 20
-950.760009765625
 10
581.1199951171875
 20
-952.219970703125
 10
582.27001953125
 20
-953.22998046875
 10
583.3200073242188
 20
-954.1499633789062
 10
584.6199951171875
 20
-954.6400146484375
 10
585.97998046875
 20
-954.6400146484375
 10
586.1199951171875
 20
-954.6400146484375
 10
586.25
 20
-954.6400146484375
 10
586.3800048828125
 20
-954.6300048828125
 10
588.1699829101562
 20
-954.5
 10
590.3599853515625
 20
-954.0700073242188
 10
592.6900024414062
 20
-953.0
 10
592.9500122070312
 20
-953.4299926757812
 10
593.2899780273438
 20
-953.9599609375
 10
593.7000122070312
 20
-954.5399780273438
 10
595.75
 20
-957.4400024414062
 10
598.989990234375
 20
-959.4500122070312
 10
602.5800170898438
 20
-960.0499877929688
 10
606.4199829101562
 20
-960.6900024414062
 10
612.9400024414062
 20
-961.5
 10
621.239990234375
 20
-961.5
 10
625.5999755859375
 20
-961.5
 10
630.4600219726562
 20
-961.2799682617188
 10
635.6799926757812
 20
-960.6799926757812
 10
640.2100219726562
 20
-960.1699829101562
 10
644.3499755859375
 20
-958.0700073242188
 10
647.3400268554688
 20
-954.7699584960938
 10
648.9000244140625
 20
-953.0499877929688
 10
650.0900268554688
 20
-951.3299560546875
 10
650.9299926757812
 20
-949.6199951171875
 10
651.6799926757812
 20
-949.6799926757812
 10
652.4400024414062
 20
-949.5799560546875
 10
653.1799926757812
 20
-949.2799682617188
 10
654.9299926757812
 20
-948.5700073242188
 10
656.0999755859375
 20
-946.9599609375
 10
656.219970703125
 20
-945.0799560546875
 10
656.8300170898438
 20
-936.1599731445312
 10
657.8300170898438
 20
-910.7000122070312
 10
654.02001953125
 20
-866.97998046875
 10
653.6199951171875
 20
-862.3699951171875
 10
653.8599853515625
 20
-857.72998046875
 10
654.739990234375
 20
-853.2099609375
 10
658.530029296875
 20
-833.8499755859375
 10
666.9500122070312
 20
-784.3299560546875
 10
663.5399780273438
 20
-742.47998046875
 10
663.72998046875
 20
-740.4599609375
 10
664.3099975585938
 20
-732.0999755859375
 10
661.5900268554688
 20
-729.1199951171875
 10
662.510009765625
 20
-724.6400146484375
 10
662.22998046875
 20
-718.1300048828125
 10
660.739990234375
 20
-709.6900024414062
 10
659.6400146484375
 20
-703.47998046875
 10
659.1300048828125
 20
-696.9099731445312
 10
659.239990234375
 20
-690.1799926757812
 10
659.3599853515625
 20
-682.3399658203125
 10
658.77001953125
 20
-674.469970703125
 10
658.6099853515625
 20
-672.5700073242188
 10
659.7999877929688
 20
-670.719970703125
 10
660.8300170898438
 20
-668.739990234375
 10
661.6599731445312
 20
-666.6699829101562
 10
671.1300048828125
 20
-643.0199584960938
 10
668.3699951171875
 20
-611.7699584960938
 10
666.75
 20
-599.4299926757812
 10
665.7999877929688
 20
-592.2000122070312
 10
662.780029296875
 20
-585.6699829101562
 10
658.02001953125
 20
-580.5299682617188
 10
652.0900268554688
 20
-574.1300048828125
 10
644.77001953125
 20
-569.719970703125
 10
640.739990234375
 20
-567.5700073242188
 10
680.7999877929688
 20
-554.760009765625
 10
701.5800170898438
 20
-534.2699584960938
 10
712.3400268554688
 20
-516.72998046875
 10
719.02001953125
 20
-505.8499755859384
 10
722.1400146484375
 20
-493.1300048828134
 10
721.3699951171875
 20
-479.9500122070312
 10
721.2899780273438
 20
-478.5700073242188
 10
721.219970703125
 20
-477.219970703125
 10
721.1699829101562
 20
-475.8699951171884
 10
762.1599731445312
 20
-453.9400024414062
 10
757.2999877929688
 20
-409.72998046875
 10
756.5999755859375
 20
-404.7099609375
 10
761.5999755859375
 20
-397.5199584960938
 10
765.010009765625
 20
-389.260009765625
 10
766.77001953125
 20
-380.0399780273438
 10
794.0800170898438
 20
-368.719970703125
 10
790.7999877929688
 20
-321.739990234375
 10
790.6500244140625
 20
-319.75
 10
790.239990234375
 20
-312.3699951171884
 10
789.4400024414062
 20
-305.6900024414062
 10
788.3699951171875
 20
-299.6199951171884
 97
        0
 97
        0
 75
     2
 76
     1
 98
        0
  0
ENDSEC
  0
SECTION
  2
OBJECTS
  0
DICTIONARY
  5
C
330
0
100
AcDbDictionary
281
     1
  3
ACAD_GROUP
350
D
  3
ACAD_LAYOUT
350
1A
  3
ACAD_MATERIAL
350
3B
  3
ACAD_MLEADERSTYLE
350
44
  3
ACAD_MLINESTYLE
350
17
  3
ACAD_PLOTSETTINGS
350
19
  3
ACAD_PLOTSTYLENAME
350
E
  3
ACAD_TABLESTYLE
350
43
  3
ACAD_VISUALSTYLE
350
2A
  0
SUN
  5
3F
330
29
100
AcDbSun
 90
        1
290
     0
 63
     7
421
 16777215
 40
1.0
291
     1
 91
  2455826
 92
 54000000
292
     0
 70
     2
 71
   256
280
     1
  0
DICTIONARY
  5
D
102
{ACAD_REACTORS
330
C
102
}
330
C
100
AcDbDictionary
281
     1
  0
DICTIONARY
  5
1A
102
{ACAD_REACTORS
330
C
102
}
330
C
100
AcDbDictionary
281
     1
  3
Layout1
350
1E
  3
Layout2
350
26
  3
Model
350
22
  0
DICTIONARY
  5
3B
102
{ACAD_REACTORS
330
C
102
}
330
C
100
AcDbDictionary
281
     1
  3
ByBlock
350
3D
  3
ByLayer
350
3C
  3
Global
350
3E
  0
DICTIONARY
  5
44
102
{ACAD_REACTORS
330
C
102
}
330
C
100
AcDbDictionary
281
     1
  0
DICTIONARY
  5
17
102
{ACAD_REACTORS
330
C
102
}
330
C
100
AcDbDictionary
281
     1
  3
Standard
350
18
  0
DICTIONARY
  5
19
102
{ACAD_REACTORS
330
C
102
}
330
C
100
AcDbDictionary
281
     1
  0
ACDBDICTIONARYWDFLT
  5
E
102
{ACAD_REACTORS
330
C
102
}
330
C
100
AcDbDictionary
281
     1
  3
Normal
350
F
100
AcDbDictionaryWithDefault
340
F
  0
DICTIONARY
  5
43
102
{ACAD_REACTORS
330
C
102
}
330
C
100
AcDbDictionary
281
     1
  0
DICTIONARY
  5
2A
102
{ACAD_REACTORS
330
C
102
}
330
C
100
AcDbDictionary
281
     1
  3
2dWireframe
350
2F
  3
3D Hidden
350
31
  3
3dWireframe
350
30
  3
Basic
350
32
  3
Brighten
350
36
  3
ColorChange
350
3A
  3
Conceptual
350
34
  3
Dim
350
35
  3
Facepattern
350
39
  3
Flat
350
2B
  3
FlatWithEdges
350
2C
  3
Gouraud
350
2D
  3
GouraudWithEdges
350
2E
  3
Linepattern
350
38
  3
Realistic
350
33
  3
Thicken
350
37
  0
LAYOUT
  5
1E
102
{ACAD_REACTORS
330
1A
102
}
330
1A
100
AcDbPlotSettings
  1

  2
none_device
  4

  6

 40
0.0
 41
0.0
 42
0.0
 43
0.0
 44
0.0
 45
0.0
 46
0.0
 47
0.0
 48
0.0
 49
0.0
140
0.0
141
0.0
142
1.0
143
1.0
 70
   688
 72
     0
 73
     0
 74
     5
  7

 75
    16
 76
     0
 77
     2
 78
   300
147
1.0
148
0.0
149
0.0
100
AcDbLayout
  1
Layout1
 70
     1
 71
     1
 10
0.0
 20
0.0
 11
12.0
 21
9.0
 12
0.0
 22
0.0
 32
0.0
 14
1.000000000000000E+20
 24
1.000000000000000E+20
 34
1.000000000000000E+20
 15
-1.000000000000000E+20
 25
-1.000000000000000E+20
 35
-1.000000000000000E+20
146
0.0
 13
0.0
 23
0.0
 33
0.0
 16
1.0
 26
0.0
 36
0.0
 17
0.0
 27
1.0
 37
0.0
 76
     0
330
1B
  0
LAYOUT
  5
26
102
{ACAD_REACTORS
330
1A
102
}
330
1A
100
AcDbPlotSettings
  1

  2
none_device
  4

  6

 40
0.0
 41
0.0
 42
0.0
 43
0.0
 44
0.0
 45
0.0
 46
0.0
 47
0.0
 48
0.0
 49
0.0
140
0.0
141
0.0
142
1.0
143
1.0
 70
   688
 72
     0
 73
     0
 74
     5
  7

 75
    16
 76
     0
 77
     2
 78
   300
147
1.0
148
0.0
149
0.0
100
AcDbLayout
  1
Layout2
 70
     1
 71
     2
 10
0.0
 20
0.0
 11
0.0
 21
0.0
 12
0.0
 22
0.0
 32
0.0
 14
0.0
 24
0.0
 34
0.0
 15
0.0
 25
0.0
 35
0.0
146
0.0
 13
0.0
 23
0.0
 33
0.0
 16
1.0
 26
0.0
 36
0.0
 17
0.0
 27
1.0
 37
0.0
 76
     0
330
23
  0
LAYOUT
  5
22
102
{ACAD_REACTORS
330
1A
102
}
330
1A
100
AcDbPlotSettings
  1

  2
none_device
  4

  6

 40
0.0
 41
0.0
 42
0.0
 43
0.0
 44
0.0
 45
0.0
 46
0.0
 47
0.0
 48
0.0
 49
0.0
140
0.0
141
0.0
142
1.0
143
1.0
 70
  1712
 72
     0
 73
     0
 74
     0
  7

 75
     0
 76
     0
 77
     2
 78
   300
147
1.0
148
0.0
149
0.0
100
AcDbLayout
  1
Model
 70
     1
 71
     0
 10
0.0
 20
0.0
 11
12.0
 21
9.0
 12
0.0
 22
0.0
 32
0.0
 14
1.000000000000000E+20
 24
1.000000000000000E+20
 34
1.000000000000000E+20
 15
-1.000000000000000E+20
 25
-1.000000000000000E+20
 35
-1.000000000000000E+20
146
0.0
 13
0.0
 23
0.0
 33
0.0
 16
1.0
 26
0.0
 36
0.0
 17
0.0
 27
1.0
 37
0.0
 76
     0
330
1F
331
29
  0
MATERIAL
  5
3D
102
{ACAD_REACTORS
330
3B
102
}
330
3B
100
AcDbMaterial
  1
ByBlock
 72
     1
 94
      127
  0
MATERIAL
  5
3C
102
{ACAD_REACTORS
330
3B
102
}
330
3B
100
AcDbMaterial
  1
ByLayer
 72
     1
 94
      127
  0
MATERIAL
  5
3E
102
{ACAD_REACTORS
330
3B
102
}
330
3B
100
AcDbMaterial
  1
Global
 72
     1
 94
      127
  0
MLINESTYLE
  5
18
102
{ACAD_REACTORS
330
17
102
}
330
17
100
AcDbMlineStyle
  2
Standard
 70
     0
  3

 62
   256
 51
90.0
 52
90.0
 71
     2
 49
0.5
 62
   256
  6
BYLAYER
 49
-0.5
 62
   256
  6
BYLAYER
  0
ACDBPLACEHOLDER
  5
F
102
{ACAD_REACTORS
330
E
102
}
330
E
  0
VISUALSTYLE
  5
2F
102
{ACAD_REACTORS
330
2A
102
}
330
2A
100
AcDbVisualStyle
  2
2dWireframe
 70
     4
177
     2
291
     0
 71
     0
176
     1
 72
     2
176
     1
 73
     0
176
     1
 90
        0
176
     1
 40
-0.6
176
     1
 41
-30.0
176
     1
 62
     5
 63
     7
421
 16777215
176
     1
 74
     1
176
     1
 91
        4
176
     1
 64
     7
176
     1
 65
   257
176
     1
 75
     1
176
     1
175
     1
176
     1
 42
1.0
176
     1
 92
        0
176
     1
 66
   257
176
     1
 43
1.0
176
     1
 76
     1
176
     1
 77
     6
176
     1
 78
     2
176
     1
 67
     7
176
     1
 79
     5
176
     1
170
     0
176
     1
171
     0
176
     1
290
     0
176
     1
 93
        1
176
     1
 44
0.0
176
     1
173
     0
176
     1
  0
VISUALSTYLE
  5
31
102
{ACAD_REACTORS
330
2A
102
}
330
2A
100
AcDbVisualStyle
  2
3D Hidden
 70
     6
177
     2
291
     0
 71
     1
176
     1
 72
     2
176
     1
 73
     2
176
     1
 90
        0
176
     1
 40
-0.6
176
     1
 41
-30.0
176
     1
 62
     5
 63
     7
421
 16777215
176
     1
 74
     2
176
     1
 91
        2
176
     1
 64
     7
176
     1
 65
   257
176
     1
 75
     2
176
     1
175
     1
176
     1
 42
40.0
176
     1
 92
        0
176
     1
 66
   257
176
     1
 43
1.0
176
     1
 76
     1
176
     1
 77
     6
176
     1
 78
     2
176
     1
 67
     7
176
     1
 79
     3
176
     1
170
     0
176
     1
171
     0
176
     1
290
     0
176
     1
 93
        1
176
     1
 44
0.0
176
     1
173
     0
176
     1
  0
VISUALSTYLE
  5
30
102
{ACAD_REACTORS
330
2A
102
}
330
2A
100
AcDbVisualStyle
  2
3dWireframe
 70
     5
177
     2
291
     0
 71
     0
176
     1
 72
     2
176
     1
 73
     0
176
     1
 90
        0
176
     1
 40
-0.6
176
     1
 41
-30.0
176
     1
 62
     5
 63
     7
421
 16777215
176
     1
 74
     1
176
     1
 91
        4
176
     1
 64
     7
176
     1
 65
   257
176
     1
 75
     1
176
     1
175
     1
176
     1
 42
1.0
176
     1
 92
        0
176
     1
 66
   257
176
     1
 43
1.0
176
     1
 76
     1
176
     1
 77
     6
176
     1
 78
     2
176
     1
 67
     7
176
     1
 79
     5
176
     1
170
     0
176
     1
171
     0
176
     1
290
     0
176
     1
 93
        1
176
     1
 44
0.0
176
     1
173
     0
176
     1
  0
VISUALSTYLE
  5
32
102
{ACAD_REACTORS
330
2A
102
}
330
2A
100
AcDbVisualStyle
  2
Basic
 70
     7
177
     2
291
     1
 71
     1
176
     1
 72
     0
176
     1
 73
     1
176
     1
 90
        0
176
     1
 40
-0.6
176
     1
 41
-30.0
176
     1
 62
     5
 63
     7
421
 16777215
176
     1
 74
     0
176
     1
 91
        4
176
     1
 64
     7
176
     1
 65
   257
176
     1
 75
     1
176
     1
175
     1
176
     1
 42
1.0
176
     1
 92
        8
176
     1
 66
     7
176
     1
 43
1.0
176
     1
 76
     1
176
     1
 77
     6
176
     1
 78
     2
176
     1
 67
     7
176
     1
 79
     5
176
     1
170
     0
176
     1
171
     0
176
     1
290
     0
176
     1
 93
        1
176
     1
 44
0.0
176
     1
173
     0
176
     1
  0
VISUALSTYLE
  5
36
102
{ACAD_REACTORS
330
2A
102
}
330
2A
100
AcDbVisualStyle
  2
Brighten
 70
    12
177
     2
291
     1
 71
     2
176
     1
 72
     2
176
     1
 73
     0
176
     1
 90
        0
176
     1
 40
-0.6
176
     1
 41
-30.0
176
     1
 62
     5
 63
     7
421
 16777215
176
     1
 74
     1
176
     1
 91
        4
176
     1
 64
     7
176
     1
 65
   257
176
     1
 75
     1
176
     1
175
     1
176
     1
 42
1.0
176
     1
 92
        8
176
     1
 66
     7
176
     1
 43
1.0
176
     1
 76
     1
176
     1
 77
     6
176
     1
 78
     2
176
     1
 67
     7
176
     1
 79
     5
176
     1
170
     0
176
     1
171
     0
176
     1
290
     0
176
     1
 93
        1
176
     1
 44
50.0
176
     1
173
     0
176
     1
  0
VISUALSTYLE
  5
3A
102
{ACAD_REACTORS
330
2A
102
}
330
2A
100
AcDbVisualStyle
  2
ColorChange
 70
    16
177
     2
291
     1
 71
     2
176
     1
 72
     2
176
     1
 73
     3
176
     1
 90
        0
176
     1
 40
-0.6
176
     1
 41
-30.0
176
     1
 62
     5
 63
     8
421
  8421504
176
     1
 74
     1
176
     1
 91
        4
176
     1
 64
     7
176
     1
 65
   257
176
     1
 75
     1
176
     1
175
     1
176
     1
 42
1.0
176
     1
 92
        8
176
     1
 66
     8
424
  8421504
176
     1
 43
1.0
176
     1
 76
     1
176
     1
 77
     6
176
     1
 78
     2
176
     1
 67
     7
176
     1
 79
     5
176
     1
170
     0
176
     1
171
     0
176
     1
290
     0
176
     1
 93
        1
176
     1
 44
0.0
176
     1
173
     0
176
     1
  0
VISUALSTYLE
  5
34
102
{ACAD_REACTORS
330
2A
102
}
330
2A
100
AcDbVisualStyle
  2
Conceptual
 70
     9
177
     2
291
     0
 71
     3
176
     1
 72
     2
176
     1
 73
     0
176
     1
 90
        0
176
     1
 40
-0.6
176
     1
 41
-30.0
176
     1
 62
     5
 63
     7
421
 16777215
176
     1
 74
     2
176
     1
 91
        2
176
     1
 64
     7
176
     1
 65
   257
176
     1
 75
     1
176
     1
175
     1
176
     1
 42
40.0
176
     1
 92
        8
176
     1
 66
     7
176
     1
 43
1.0
176
     1
 76
     1
176
     1
 77
     6
176
     1
 78
     2
176
     1
 67
     7
176
     1
 79
     3
176
     1
170
     0
176
     1
171
     0
176
     1
290
     0
176
     1
 93
        1
176
     1
 44
0.0
176
     1
173
     0
176
     1
  0
VISUALSTYLE
  5
35
102
{ACAD_REACTORS
330
2A
102
}
330
2A
100
AcDbVisualStyle
  2
Dim
 70
    11
177
     2
291
     1
 71
     2
176
     1
 72
     2
176
     1
 73
     0
176
     1
 90
        0
176
     1
 40
-0.6
176
     1
 41
-30.0
176
     1
 62
     5
 63
     7
421
 16777215
176
     1
 74
     1
176
     1
 91
        4
176
     1
 64
     7
176
     1
 65
   257
176
     1
 75
     1
176
     1
175
     1
176
     1
 42
1.0
176
     1
 92
        8
176
     1
 66
     7
176
     1
 43
1.0
176
     1
 76
     1
176
     1
 77
     6
176
     1
 78
     2
176
     1
 67
     7
176
     1
 79
     5
176
     1
170
     0
176
     1
171
     0
176
     1
290
     0
176
     1
 93
        1
176
     1
 44
-50.0
176
     1
173
     0
176
     1
  0
VISUALSTYLE
  5
39
102
{ACAD_REACTORS
330
2A
102
}
330
2A
100
AcDbVisualStyle
  2
Facepattern
 70
    15
177
     2
291
     1
 71
     2
176
     1
 72
     2
176
     1
 73
     0
176
     1
 90
        0
176
     1
 40
-0.6
176
     1
 41
-30.0
176
     1
 62
     5
 63
     7
421
 16777215
176
     1
 74
     1
176
     1
 91
        4
176
     1
 64
     7
176
     1
 65
   257
176
     1
 75
     1
176
     1
175
     1
176
     1
 42
1.0
176
     1
 92
        8
176
     1
 66
     7
176
     1
 43
1.0
176
     1
 76
     1
176
     1
 77
     6
176
     1
 78
     2
176
     1
 67
     7
176
     1
 79
     5
176
     1
170
     0
176
     1
171
     0
176
     1
290
     0
176
     1
 93
        1
176
     1
 44
0.0
176
     1
173
     0
176
     1
  0
VISUALSTYLE
  5
2B
102
{ACAD_REACTORS
330
2A
102
}
330
2A
100
AcDbVisualStyle
  2
Flat
 70
     0
177
     2
291
     1
 71
     2
176
     1
 72
     1
176
     1
 73
     1
176
     1
 90
        2
176
     1
 40
-0.6
176
     1
 41
30.0
176
     1
 62
     5
 63
     7
421
 16777215
176
     1
 74
     0
176
     1
 91
        4
176
     1
 64
     7
176
     1
 65
   257
176
     1
 75
     1
176
     1
175
     1
176
     1
 42
1.0
176
     1
 92
        8
176
     1
 66
     7
176
     1
 43
1.0
176
     1
 76
     1
176
     1
 77
     6
176
     1
 78
     2
176
     1
 67
     7
176
     1
 79
     5
176
     1
170
     0
176
     1
171
     0
176
     1
290
     0
176
     1
 93
       13
176
     1
 44
0.0
176
     1
173
     0
176
     1
  0
VISUALSTYLE
  5
2C
102
{ACAD_REACTORS
330
2A
102
}
330
2A
100
AcDbVisualStyle
  2
FlatWithEdges
 70
     1
177
     2
291
     1
 71
     2
176
     1
 72
     1
176
     1
 73
     1
176
     1
 90
        2
176
     1
 40
-0.6
176
     1
 41
30.0
176
     1
 62
     5
 63
     7
421
 16777215
176
     1
 74
     1
176
     1
 91
        4
176
     1
 64
     7
176
     1
 65
   257
176
     1
 75
     1
176
     1
175
     1
176
     1
 42
1.0
176
     1
 92
        0
176
     1
 66
   257
176
     1
 43
1.0
176
     1
 76
     1
176
     1
 77
     6
176
     1
 78
     2
176
     1
 67
     7
176
     1
 79
     5
176
     1
170
     0
176
     1
171
     0
176
     1
290
     0
176
     1
 93
       13
176
     1
 44
0.0
176
     1
173
     0
176
     1
  0
VISUALSTYLE
  5
2D
102
{ACAD_REACTORS
330
2A
102
}
330
2A
100
AcDbVisualStyle
  2
Gouraud
 70
     2
177
     2
291
     1
 71
     2
176
     1
 72
     2
176
     1
 73
     1
176
     1
 90
        2
176
     1
 40
-0.6
176
     1
 41
30.0
176
     1
 62
     5
 63
     7
421
 16777215
176
     1
 74
     0
176
     1
 91
        4
176
     1
 64
     7
176
     1
 65
   257
176
     1
 75
     1
176
     1
175
     1
176
     1
 42
1.0
176
     1
 92
        0
176
     1
 66
     7
176
     1
 43
1.0
176
     1
 76
     1
176
     1
 77
     6
176
     1
 78
     2
176
     1
 67
     7
176
     1
 79
     5
176
     1
170
     0
176
     1
171
     0
176
     1
290
     0
176
     1
 93
       13
176
     1
 44
0.0
176
     1
173
     0
176
     1
  0
VISUALSTYLE
  5
2E
102
{ACAD_REACTORS
330
2A
102
}
330
2A
100
AcDbVisualStyle
  2
GouraudWithEdges
 70
     3
177
     2
291
     1
 71
     2
176
     1
 72
     2
176
     1
 73
     1
176
     1
 90
        2
176
     1
 40
-0.6
176
     1
 41
30.0
176
     1
 62
     5
 63
     7
421
 16777215
176
     1
 74
     1
176
     1
 91
        4
176
     1
 64
     7
176
     1
 65
   257
176
     1
 75
     1
176
     1
175
     1
176
     1
 42
1.0
176
     1
 92
        0
176
     1
 66
   257
176
     1
 43
1.0
176
     1
 76
     1
176
     1
 77
     6
176
     1
 78
     2
176
     1
 67
     7
176
     1
 79
     5
176
     1
170
     0
176
     1
171
     0
176
     1
290
     0
176
     1
 93
       13
176
     1
 44
0.0
176
     1
173
     0
176
     1
  0
VISUALSTYLE
  5
38
102
{ACAD_REACTORS
330
2A
102
}
330
2A
100
AcDbVisualStyle
  2
Linepattern
 70
    14
177
     2
291
     1
 71
     2
176
     1
 72
     2
176
     1
 73
     0
176
     1
 90
        0
176
     1
 40
-0.6
176
     1
 41
-30.0
176
     1
 62
     5
 63
     7
421
 16777215
176
     1
 74
     1
176
     1
 91
        4
176
     1
 64
     7
176
     1
 65
   257
176
     1
 75
     7
176
     1
175
     7
176
     1
 42
1.0
176
     1
 92
        8
176
     1
 66
     7
176
     1
 43
1.0
176
     1
 76
     1
176
     1
 77
     6
176
     1
 78
     2
176
     1
 67
     7
176
     1
 79
     5
176
     1
170
     0
176
     1
171
     0
176
     1
290
     0
176
     1
 93
        1
176
     1
 44
0.0
176
     1
173
     0
176
     1
  0
VISUALSTYLE
  5
33
102
{ACAD_REACTORS
330
2A
102
}
330
2A
100
AcDbVisualStyle
  2
Realistic
 70
     8
177
     2
291
     0
 71
     2
176
     1
 72
     2
176
     1
 73
     0
176
     1
 90
        0
176
     1
 40
-0.6
176
     1
 41
-30.0
176
     1
 62
     5
 63
     7
421
 16777215
176
     1
 74
     1
176
     1
 91
        0
176
     1
 64
     7
176
     1
 65
   257
176
     1
 75
     1
176
     1
175
     1
176
     1
 42
1.0
176
     1
 92
        8
176
     1
 66
     8
424
  7895160
176
     1
 43
1.0
176
     1
 76
     1
176
     1
 77
     6
176
     1
 78
     2
176
     1
 67
     7
176
     1
 79
     5
176
     1
170
     0
176
     1
171
     0
176
     1
290
     0
176
     1
 93
       13
176
     1
 44
0.0
176
     1
173
     0
176
     1
  0
VISUALSTYLE
  5
37
102
{ACAD_REACTORS
330
2A
102
}
330
2A
100
AcDbVisualStyle
  2
Thicken
 70
    13
177
     2
291
     1
 71
     2
176
     1
 72
     2
176
     1
 73
     0
176
     1
 90
        0
176
     1
 40
-0.6
176
     1
 41
-30.0
176
     1
 62
     5
 63
     7
421
 16777215
176
     1
 74
     1
176
     1
 91
        4
176
     1
 64
     7
176
     1
 65
   257
176
     1
 75
     1
176
     1
175
     1
176
     1
 42
1.0
176
     1
 92
       12
176
     1
 66
     7
176
     1
 43
1.0
176
     1
 76
     1
176
     1
 77
     6
176
     1
 78
     2
176
     1
 67
     7
176
     1
 79
     5
176
     1
170
     0
176
     1
171
     0
176
     1
290
     0
176
     1
 93
        1
176
     1
 44
0.0
176
     1
173
     0
176
     1
  0
ENDSEC
  0
EOF
