<?xml version="1.0" encoding="utf-8"?>
<!-- Generator: Adobe Illustrator 24.3.0, SVG Export Plug-In . SVG Version: 6.00 Build 0)  -->
<svg version="1.1" id="JIN_x5F_GREEN" xmlns="http://www.w3.org/2000/svg" xmlns:xlink="http://www.w3.org/1999/xlink" x="0px"
	 y="0px" viewBox="0 0 1080 1080" style="enable-background:new 0 0 1080 1080;" xml:space="preserve">
<style type="text/css">
	.st0{fill:#7AAC70;}
</style>
<path id="FILL_x5F_7AAC70" class="st0" d="M788.37,299.62c9.66-21.05,0.23-49.59-27.32-82.58c-20.77-24.87-44.77-43.82-45.01-44
	c-60.68-48.22-102.34-55.59-126.61-53.28c-23.11,2.2-35.11,13.05-38.16,16.22c-4.81-2.92-10.91-5.91-18.12-8.06
	c-17.69-5.26-45.65-6.06-78.33,19.95c-9.71,7.72-18.63,16.96-26.5,27.45c-7.31,9.73-23.09,29.45-46.72,52.27
	c-4.06,3.92-8.18,7.68-11.31,10.52c-8.72,7.89-51.04,49.64-30.03,98.16c-2.73,14.37-1.78,32.15,8.89,51.59
	c0.29,0.53,0.9,0.79,1.48,0.63c0.58-0.16,0.98-0.69,0.96-1.29c-0.07-3.16,0.3-10.97,2.46-15.77c1.64,10.03,8.59,39.02,35.33,54.7
	c-1.21,1.88-1.95,4.11-2.06,6.49c-0.55,11.85,3.02,41.27,47.63,59.57c1.48,5.81,3.19,12.81,4.82,20.02
	c2.48,10.99,8.03,20.85,16.04,28.5c10.6,10.12,29.21,22.87,59.69,29.86c-0.22,0.09-0.43,0.18-0.66,0.28
	c-11.03,4.96-19.22,15.02-21.89,26.9c-2.34,10.39-4.65,26.48-2.41,44.19c0.72,5.69,3.1,10.99,6.88,15.33
	c1.41,1.63,3.2,3.51,5.34,5.44c-0.09,2.97-0.41,16.9,0.88,32.87c0.3,3.69,0.35,7.44,0.14,11.12c-0.82,14.39-0.08,23.55,2.19,27.32
	c-2.41,3.1-1.79,10.5-1.62,12.12c0.04,0.4,0.27,0.77,0.63,0.98c0.27,0.16,0.65,0.27,1.06,0.35c-9.33,35.24-13.89,72.95-15.78,92.46
	c-0.83,8.48-2.95,16.77-6.3,24.65c-15.97,37.46-20.21,69.49-21.29,81.52c-0.12,1.34,0.58,2.58,1.78,3.16
	c0.27,0.14,0.56,0.22,0.85,0.28c-1.11,4.27-1.15,7.53-0.95,9.62c0.21,2.29,1.9,4.21,4.2,4.76c8.17,1.97,15.01,2.75,20.71,2.75
	c16.14,0,23.16-6.23,25.61-9.23c2.12,2.38,4.75,3.63,7.72,3.63c0.38,0,0.76-0.02,1.15-0.06c5.9-0.61,10.53-5.49,11-11.61
	c5.21-67.2,24.3-104.64,39.4-124.22c2.99-3.87,5.94-7.22,8.78-10.1c1.47,5.35,5.25,20.04,6.62,34.43
	c0.52,5.45,0.21,10.91-0.91,16.21c-3.12,14.78-10.19,52.5-8.32,83.5c0.09,1.54,0.81,3,1.96,4.01c1.05,0.92,2.35,1.41,3.71,1.41
	c0.14,0,0.27,0,0.4-0.01c1.79-0.13,3.98-0.56,6.31-1.63c0.26,0.43,0.6,0.96,1.01,1.54c2.05,2.9,5.29,4.91,8.88,5.51
	c3.84,0.64,10.36,1.45,18.66,1.45c4.36,0,9.22-0.22,14.44-0.82c4.53-0.51,8.67-2.61,11.66-5.91c1.56-1.72,2.75-3.44,3.59-5.15
	c0.75,0.06,1.51-0.04,2.25-0.34c1.75-0.71,2.92-2.32,3.04-4.2c0.61-8.92,1.61-34.38-2.2-78.1c-0.4-4.61-0.16-9.25,0.72-13.77
	c3.79-19.36,12.21-68.88,8.8-110.73c0.19-2.02,0.77-10.38-1.95-13.36c0.92-4.48,0.64-10.99-0.85-19.43
	c-1.1-6.21-1.61-12.78-1.5-19.51c0.12-7.84-0.47-15.71-0.63-17.61c1.19-1.85,2.22-3.83,3.05-5.9c9.47-23.65,6.71-54.9,5.09-67.24
	c-0.95-7.23-3.97-13.76-8.73-18.9c-5.93-6.4-13.25-10.81-17.28-12.96c40.06-12.81,60.84-33.3,71.6-50.84
	c6.68-10.88,9.8-23.6,9.03-36.78c-0.08-1.38-0.15-2.73-0.2-4.08c40.99-21.93,36.13-66.14,35.43-71.16c5-7.19,8.41-15.45,10.17-24.67
	c27.31-11.32,24.03-58.3,23.88-60.29C790.24,312.37,789.44,305.69,788.37,299.62z"/>
</svg>
