<?xml version="1.0" encoding="utf-8"?>
<!-- Generator: Adobe Illustrator 24.3.0, SVG Export Plug-In . SVG Version: 6.00 Build 0)  -->
<svg version="1.1" id="JIN_x5F_COLORS" xmlns="http://www.w3.org/2000/svg" xmlns:xlink="http://www.w3.org/1999/xlink" x="0px"
	 y="0px" viewBox="0 0 1080 1080" style="enable-background:new 0 0 1080 1080;" xml:space="preserve">
<style type="text/css">
	.st0{fill:#010202;}
	.st1{display:none;fill:#010202;}
	.st2{fill:#C89B5F;}
	.st3{fill:#FDE8B8;}
	.st4{fill:#B27A4D;}
	.st5{fill:#73583F;}
	.st6{fill:#433129;}
	.st7{fill:#71532D;}
	.st8{fill:#FFFFFF;}
	.st9{fill:#7AAC70;}
</style>
<path id="FILL_x5F_000000" class="st0" d="M788.37,299.62c9.66-21.05,0.23-49.59-27.32-82.58c-20.77-24.87-44.77-43.82-45.01-44
	c-60.68-48.22-102.34-55.59-126.61-53.28c-23.11,2.2-35.11,13.05-38.16,16.22c-4.81-2.92-10.91-5.91-18.12-8.06
	c-17.69-5.26-45.65-6.06-78.33,19.95c-9.71,7.72-18.63,16.96-26.5,27.45c-7.31,9.73-23.09,29.45-46.72,52.27
	c-4.06,3.92-8.18,7.68-11.31,10.52c-8.72,7.89-51.04,49.64-30.03,98.16c-2.73,14.37-1.78,32.15,8.89,51.59
	c0.29,0.53,0.9,0.79,1.48,0.63c0.58-0.16,0.98-0.69,0.96-1.29c-0.07-3.16,0.3-10.97,2.46-15.77c1.64,10.03,8.59,39.02,35.33,54.7
	c-1.21,1.88-1.95,4.11-2.06,6.49c-0.55,11.85,3.02,41.27,47.63,59.57c1.48,5.81,3.19,12.81,4.82,20.02
	c2.48,10.99,8.03,20.85,16.04,28.5c10.6,10.12,29.21,22.87,59.69,29.86c-0.22,0.09-0.43,0.18-0.66,0.28
	c-11.03,4.96-19.22,15.02-21.89,26.9c-2.34,10.39-4.65,26.48-2.41,44.19c0.72,5.69,3.1,10.99,6.88,15.33
	c1.41,1.63,3.2,3.51,5.34,5.44c-0.09,2.97-0.41,16.9,0.88,32.87c0.3,3.69,0.35,7.44,0.14,11.12c-0.82,14.39-0.08,23.55,2.19,27.32
	c-2.41,3.1-1.79,10.5-1.62,12.12c0.04,0.4,0.27,0.77,0.63,0.98c0.27,0.16,0.65,0.27,1.06,0.35c-9.33,35.24-13.89,72.95-15.78,92.46
	c-0.83,8.48-2.95,16.77-6.3,24.65c-15.97,37.46-20.21,69.49-21.29,81.52c-0.12,1.34,0.58,2.58,1.78,3.16
	c0.27,0.14,0.56,0.22,0.85,0.28c-1.11,4.27-1.15,7.53-0.95,9.62c0.21,2.29,1.9,4.21,4.2,4.76c8.17,1.97,15.01,2.75,20.71,2.75
	c16.14,0,23.16-6.23,25.61-9.23c2.12,2.38,4.75,3.63,7.72,3.63c0.38,0,0.76-0.02,1.15-0.06c5.9-0.61,10.53-5.49,11-11.61
	c5.21-67.2,24.3-104.64,39.4-124.22c2.99-3.87,5.94-7.22,8.78-10.1c1.47,5.35,5.25,20.04,6.62,34.43
	c0.52,5.45,0.21,10.91-0.91,16.21c-3.12,14.78-10.19,52.5-8.32,83.5c0.09,1.54,0.81,3,1.96,4.01c1.05,0.92,2.35,1.41,3.71,1.41
	c0.14,0,0.27,0,0.4-0.01c1.79-0.13,3.98-0.56,6.31-1.63c0.26,0.43,0.6,0.96,1.01,1.54c2.05,2.9,5.29,4.91,8.88,5.51
	c3.84,0.64,10.36,1.45,18.66,1.45c4.36,0,9.22-0.22,14.44-0.82c4.53-0.51,8.67-2.61,11.66-5.91c1.56-1.72,2.75-3.44,3.59-5.15
	c0.75,0.06,1.51-0.04,2.25-0.34c1.75-0.71,2.92-2.32,3.04-4.2c0.61-8.92,1.61-34.38-2.2-78.1c-0.4-4.61-0.16-9.25,0.72-13.77
	c3.79-19.36,12.21-68.88,8.8-110.73c0.19-2.02,0.77-10.38-1.95-13.36c0.92-4.48,0.64-10.99-0.85-19.43
	c-1.1-6.21-1.61-12.78-1.5-19.51c0.12-7.84-0.47-15.71-0.63-17.61c1.19-1.85,2.22-3.83,3.05-5.9c9.47-23.65,6.71-54.9,5.09-67.24
	c-0.95-7.23-3.97-13.76-8.73-18.9c-5.93-6.4-13.25-10.81-17.28-12.96c40.06-12.81,60.84-33.3,71.6-50.84
	c6.68-10.88,9.8-23.6,9.03-36.78c-0.08-1.38-0.15-2.73-0.2-4.08c40.99-21.93,36.13-66.14,35.43-71.16c5-7.19,8.41-15.45,10.17-24.67
	c27.31-11.32,24.03-58.3,23.88-60.29C790.24,312.37,789.44,305.69,788.37,299.62z"/>
<path id="OUTLINE_x5F_000000" class="st1" d="M788.37,299.62c9.66-21.05,0.23-49.59-27.32-82.58c-20.77-24.87-44.77-43.82-45.01-44
	c-60.68-48.22-102.34-55.59-126.61-53.28c-23.11,2.2-35.11,13.05-38.16,16.22c-4.81-2.92-10.91-5.91-18.12-8.06
	c-17.69-5.26-45.65-6.06-78.33,19.95c-9.71,7.72-18.63,16.96-26.5,27.45c-7.31,9.73-23.09,29.45-46.72,52.27
	c-4.06,3.92-8.18,7.68-11.31,10.52c-8.72,7.89-51.04,49.64-30.03,98.16c-2.73,14.37-1.78,32.15,8.89,51.59
	c0.29,0.53,0.9,0.79,1.48,0.63c0.58-0.16,0.98-0.69,0.96-1.29c-0.07-3.16,0.3-10.97,2.46-15.77c1.64,10.03,8.59,39.02,35.33,54.7
	c-1.21,1.88-1.95,4.11-2.06,6.49c-0.55,11.85,3.02,41.27,47.63,59.57c1.48,5.81,3.19,12.81,4.82,20.02
	c2.48,10.99,8.03,20.85,16.04,28.5c10.6,10.12,29.21,22.87,59.69,29.86c-0.22,0.09-0.43,0.18-0.66,0.28
	c-11.03,4.96-19.22,15.02-21.89,26.9c-2.34,10.39-4.65,26.48-2.41,44.19c0.72,5.69,3.1,10.99,6.88,15.33
	c1.41,1.63,3.2,3.51,5.34,5.44c-0.09,2.97-0.41,16.9,0.88,32.87c0.3,3.69,0.35,7.44,0.14,11.12c-0.82,14.39-0.08,23.55,2.19,27.32
	c-2.41,3.1-1.79,10.5-1.62,12.12c0.04,0.4,0.27,0.77,0.63,0.98c0.27,0.16,0.65,0.27,1.06,0.35c-9.33,35.24-13.89,72.95-15.78,92.46
	c-0.83,8.48-2.95,16.77-6.3,24.65c-15.97,37.46-20.21,69.49-21.29,81.52c-0.12,1.34,0.58,2.58,1.78,3.16
	c0.27,0.14,0.56,0.22,0.85,0.28c-1.11,4.27-1.15,7.53-0.95,9.62c0.21,2.29,1.9,4.21,4.2,4.76c8.17,1.97,15.01,2.75,20.71,2.75
	c16.14,0,23.16-6.23,25.61-9.23c2.12,2.38,4.75,3.63,7.72,3.63c0.38,0,0.76-0.02,1.15-0.06c5.9-0.61,10.53-5.49,11-11.61
	c5.21-67.2,24.3-104.64,39.4-124.22c2.99-3.87,5.94-7.22,8.78-10.1c1.47,5.35,5.25,20.04,6.62,34.43
	c0.52,5.45,0.21,10.91-0.91,16.21c-3.12,14.78-10.19,52.5-8.32,83.5c0.09,1.54,0.81,3,1.96,4.01c1.05,0.92,2.35,1.41,3.71,1.41
	c0.14,0,0.27,0,0.4-0.01c1.79-0.13,3.98-0.56,6.31-1.63c0.26,0.43,0.6,0.96,1.01,1.54c2.05,2.9,5.29,4.91,8.88,5.51
	c3.84,0.64,10.36,1.45,18.66,1.45c4.36,0,9.22-0.22,14.44-0.82c4.53-0.51,8.67-2.61,11.66-5.91c1.56-1.72,2.75-3.44,3.59-5.15
	c0.75,0.06,1.51-0.04,2.25-0.34c1.75-0.71,2.92-2.32,3.04-4.2c0.61-8.92,1.61-34.38-2.2-78.1c-0.4-4.61-0.16-9.25,0.72-13.77
	c3.79-19.36,12.21-68.88,8.8-110.73c0.19-2.02,0.77-10.38-1.95-13.36c0.92-4.48,0.64-10.99-0.85-19.43
	c-1.1-6.21-1.61-12.78-1.5-19.51c0.12-7.84-0.47-15.71-0.63-17.61c1.19-1.85,2.22-3.83,3.05-5.9c9.47-23.65,6.71-54.9,5.09-67.24
	c-0.95-7.23-3.97-13.76-8.73-18.9c-5.93-6.4-13.25-10.81-17.28-12.96c40.06-12.81,60.84-33.3,71.6-50.84
	c6.68-10.88,9.8-23.6,9.03-36.78c-0.08-1.38-0.15-2.73-0.2-4.08c40.99-21.93,36.13-66.14,35.43-71.16c5-7.19,8.41-15.45,10.17-24.67
	c27.31-11.32,24.03-58.3,23.88-60.29C790.24,312.37,789.44,305.69,788.37,299.62z M389.92,432.74c0.18-4.06,2.6-7.56,6.15-8.92
	c5.41-2.07,9.91,1.71,11.02,2.76c0.95,5.01,1.97,9.53,3.04,13.62c-2.62-1.45-6.98-3.38-12.51-4.1c-0.63-0.09-1.21,0.36-1.29,0.99
	c-0.08,0.63,0.36,1.2,0.99,1.29c7.04,0.92,12.15,4.02,13.68,5.04c7.74,27.4,17.41,33.38,20.22,34.57c0.41,1.5,1.5,5.54,2.92,11.04
	C392.76,471.33,389.4,443.88,389.92,432.74z M505.01,661.26c-2.12-1.88-4.01-3.83-5.63-5.7c-3.44-3.94-5.6-8.77-6.26-13.95
	c-2.19-17.33,0.08-33.11,2.37-43.29c2.49-11.09,10.12-20.47,20.41-25.1c2.09-0.94,3.67-1.46,4.27-1.65
	c2.71,0.55,5.51,1.04,8.39,1.49c-0.54,3.76-0.26,7.03,0.22,9.47c-0.4,1.56-2.23,8.98-2.86,15.79c-2.33,2.69-17,20.39-18.34,40.71
	c-0.04,0.72,0.5,1.34,1.22,1.38c0.03,0.01,0.05,0.01,0.08,0.01c0.68,0,1.25-0.53,1.3-1.22c1.04-15.8,10.85-30.36,15.52-36.46
	c0,0.1,0,0.19,0,0.28c0,0.21,0.06,0.42,0.16,0.6c0.31,0.58,7.83,14.18,20.83,17.28c1.72,0.41,3.46,0.62,5.21,0.62
	c4.76,0,9.61-1.55,14.46-4.59c0.79,3.54,1.85,13.08-4.55,27.83c-0.27,0.59-0.54,1.2-0.83,1.82c-0.89,1.93-1.91,3.94-3.07,6.03
	c-0.32,0.58-0.65,1.16-0.99,1.75c-0.48,0.83-0.99,1.68-1.52,2.54c-3.12,1-6.04,2.2-8.33,3.65c-0.41,0.26-0.64,0.72-0.6,1.21
	c0.04,0.48,0.34,0.9,0.79,1.09c0.01,0,0.04,0.01,0.08,0.03c-2.65,1.71-7.91,5.22-14,10.01c-0.06,0-0.13,0-0.2,0
	c-11.77,0-21.22-5.48-28.11-11.6C505.03,661.28,505.02,661.27,505.01,661.26z M542.09,554.72c0.17-0.14,0.34-0.28,0.51-0.41
	c0.01-0.01,0.01-0.01,0.01-0.01c1.16-0.86,2.46-1.31,3.75-1.27c1.67,0.04,2.7,0.84,3.2,2.51c-1.26,1.26-4.41,4.62-6.63,8.52
	c-0.36,0.63-0.14,1.42,0.49,1.78c0.2,0.11,0.42,0.17,0.64,0.17c0.45,0,0.89-0.24,1.13-0.66c2.25-3.97,5.66-7.44,6.51-8.28
	c0.64-0.2,2.65-0.71,4.54,0.13c1.26,0.55,2.27,1.63,3.01,3.19c-1.48,1.3-4.69,4.38-6.04,7.78c-0.27,0.66,0.05,1.42,0.72,1.68
	c0.16,0.07,0.32,0.1,0.48,0.1c0.52,0,1.01-0.31,1.21-0.82c1.31-3.29,4.92-6.44,5.81-7.18c0.52-0.12,2.03-0.39,3.32,0.41
	c0.99,0.62,1.68,1.76,2.07,3.41c-0.81,0.5-1.55,1.14-2.18,1.93c-2.56,3.26-3.85,6.45-3.91,6.58c-0.26,0.67,0.06,1.42,0.73,1.69
	c0.67,0.27,1.42-0.06,1.69-0.72c0.01-0.03,1.21-2.99,3.53-5.94c0.5-0.63,1.11-1.13,1.77-1.5c0.01,0,0.02,0.01,0.04,0.01
	c0.24-0.04,0.45-0.16,0.63-0.31c1.04-0.41,2.2-0.5,3.34-0.2c2.15,0.54,3.72,2.27,4.1,4.49c0.31,1.86,0.43,4.35-0.79,5.67
	c-0.69,0.73-1.81,1.1-3.34,1.1c-0.12-2.25-0.25-3.66-0.25-3.69c-0.07-0.72-0.71-1.24-1.42-1.17c-0.71,0.06-1.24,0.7-1.17,1.41
	c0.01,0.08,0.72,7.85,0.36,16.51c-0.13,3.23-2.29,6.06-5.37,7.04c-7.12,2.28-18.08,2.39-29.82-10c-1.73-1.83-2.9-4.03-3.38-6.36
	C530.21,576.59,530.04,565.4,542.09,554.72z M534.17,553.84c0.72-1.14,1.85-1.95,3.1-2.24c1.77-0.41,2.62,0.49,3.02,1.25
	c-2.23,1.98-4.07,3.99-5.58,5.98C533.23,557.25,533.04,555.61,534.17,553.84z M582.04,578.62c8.43-0.71,16.36-1.69,23.82-2.89
	c-2.05,6.08-8.86,24.65-19.53,38.08c-2.13-2.24-7.16-7.72-10.39-12.8c0.84-2.08,1.67-4.38,2.48-6.91
	C581.24,590.22,582.45,585.02,582.04,578.62z M601.63,606.14c-1.56,1.09-6.62,4.52-11.34,6.74c10.69-14.65,17.16-33.59,18.47-37.63
	c4.14-0.71,8.13-1.49,11.98-2.34c-0.18,4.09-0.95,14.89-4.24,23.35l-6.19-8.36c-0.25-0.34-0.65-0.53-1.06-0.53
	c-0.42,0.01-0.81,0.21-1.05,0.55l-6.38,9.1c-0.17,0.24-0.25,0.53-0.24,0.82C601.59,597.89,601.87,602.68,601.63,606.14z
	 M580.98,631.79c-0.3,1.68-0.57,3.44-0.79,5.28c-0.53,4.3-0.83,8.98-0.67,13.8c-1.43,0.88-2.34,1.56-2.8,1.93
	c-1.91,0.18-9.87,1.03-17.66,3.05c0.23-0.4,0.46-0.8,0.69-1.19c1.55-2.74,2.87-5.35,3.99-7.82c2.63-5.8,4.16-10.86,5-15.16
	c1.75-9.03,0.44-14.66-0.17-16.57c0.61-0.84,1.78-2.57,3.24-5.24c4.32,2.89,10.44,5.57,12.97,6.63
	C583.99,618.85,582.24,624.48,580.98,631.79z M586.99,691.33c-0.04,0.03-0.06,0.07-0.1,0.1c-1.18,1.23-2.52,2.23-3.73,2.99
	c-3.11,1.96-5.76,4.63-7.65,7.74c-2.75,4.51-7.29,9.26-10.18,12.09c4.97-35.98-9.26-48.95-14.9-52.61
	c8.54-4.25,23.38-5.93,26.38-6.23c12.36,10.69,13.19,28.72,13.24,30.39C589.6,687.99,588.41,689.83,586.99,691.33z M590.56,693.74
	c0.38,1.42-0.17,3.08-1.37,3.78c-0.63,0.36-1.54,0.34-2.5-0.05c-0.64-0.26-1.23-0.67-1.69-1.15c1.1-0.72,2.27-1.61,3.36-2.68
	C589.1,693.68,589.84,693.71,590.56,693.74z M606.86,748.41h-25.81l-1.18-2.43c0-0.01,0-0.01-0.01-0.01l-5.61-11.55h25.37
	L606.86,748.41z M603.06,735.4c7.45-0.26,14.15-0.6,16.93-0.75v9.16c-2.06,0.27-6.82,0.78-12.27,0.6L603.06,735.4z M576.68,745.35
	c-6.25,0.32-12.21,0.32-14.68,0.3l-0.49-8.93c0.51,0,1.15,0.01,1.88,0.01c2.36,0,5.67-0.07,8.93-0.34L576.68,745.35z M541.65,707.17
	c0.03,0.1,0.85,2.58,2.51,5.61c0.38,0.69,0.13,1.35-0.23,1.73c-0.18,0.19-0.82,0.75-1.7,0.31c-1.94-0.94-3.61-2.66-4.98-5.11
	c-0.29-0.54-0.47-1.13-0.5-1.72c-0.09-1.65-0.13-5.76,1.36-8.19c0.37-0.62,0.18-1.42-0.43-1.79c-0.61-0.38-1.41-0.18-1.79,0.43
	c-1.8,2.94-1.86,7.33-1.74,9.69c0.06,0.98,0.34,1.97,0.83,2.85c0.76,1.36,1.62,2.53,2.56,3.52c-0.09,0.77-0.68,1.14-0.88,1.24
	c-0.24,0.13-1.09,0.47-1.89-0.24c-2.42-2.16-4.2-4.49-5.27-6.06c-0.73-1.07-1.07-2.35-0.98-3.6c0.55-6.97,2.97-13.76,3-13.83
	c0.24-0.68-0.11-1.42-0.79-1.66c-0.67-0.25-1.42,0.1-1.66,0.78c-0.1,0.29-2.56,7.17-3.14,14.5c-0.14,1.84,0.36,3.71,1.42,5.28
	c0.24,0.35,0.52,0.75,0.83,1.16c0.02,1.22-0.82,1.82-1.64,1.97c-0.82,0.14-1.92-0.13-2.31-1.4c-2.28-7.44-1.59-16.86-1.58-16.95
	c0.4-4.95,3.72-12.67,4.37-14.14c10.11-9,20.05-15.44,22.77-17.14c4.14,3.05,12.08,11.18,13.66,29.3c-1.31,0.69-4.35,2.16-8.52,3.32
	c-3.48,0.97-6.54,2.83-8.84,5.36c-1.22,1.35-2.53,2.44-3.88,3.26C541.69,705.97,541.46,706.59,541.65,707.17z M555.63,699.54
	c3.56-1,6.32-2.19,8.01-3.01c0.25,5.28-0.03,11.35-1.04,18.29c-4.05-5.14-6.67-12.31-7.58-15.09
	C555.22,699.67,555.42,699.6,555.63,699.54z M573.02,607.55c0.55-1.11,1.13-2.32,1.71-3.66c2.02,2.95,4.43,5.86,6.46,8.16
	C578.52,610.79,575.41,609.18,573.02,607.55z M575.47,593.66c-1.45,1.63-3.12,2.71-4.7,3.44c1.06-1.55,1.7-3.4,1.78-5.36
	c0.16-3.9,0.11-7.62,0-10.57c2.22-0.02,3.94-0.67,5.12-1.93c0.08-0.09,0.15-0.2,0.23-0.29c0.52-0.04,1.03-0.08,1.55-0.12
	C579.85,585.22,578.53,590.22,575.47,593.66z M532.87,590.46c3.64,3.84,7.23,6.53,10.66,8.37c0.61,0.33,1.21,0.63,1.81,0.91
	c2.23,1.02,4.38,1.7,6.42,2.12c0.68,0.14,1.34,0.25,2,0.34c1.2,0.15,2.36,0.22,3.46,0.22c3.18,0,5.89-0.57,7.98-1.22
	c0.93-0.04,5.08-0.4,9.07-3.08c-3.64,9.68-7.38,14.9-8.06,15.81c-6.43,4.4-12.79,5.9-18.9,4.45c-10.92-2.6-17.9-13.84-19.01-15.73
	c-0.02-4.94,1.19-11.43,2.09-15.6C531.06,588.27,531.89,589.42,532.87,590.46z M505.3,664.88c6.19,4.99,14.64,9.72,24.94,10.49
	c-1.69,1.4-3.43,2.87-5.16,4.42c-0.05,0.04-0.06,0.09-0.1,0.13c-0.04,0.05-0.09,0.08-0.12,0.13c-0.07,0.09-6.22,9.39-12.3,16.14
	c-1.74,1.93-2.05,4.74-0.77,6.83c0.71,1.17,1.74,1.89,2.97,2.09c0.23,0.04,0.47,0.06,0.71,0.06c1.35,0,2.87-0.58,4.6-1.74
	c0.2,3.09,0.66,6.68,1.68,9.98c0.61,2.01,2.34,3.27,4.35,3.27c0.3,0,0.6-0.03,0.91-0.08c1.38-0.26,2.47-1.04,3.12-2.12
	c0.84,0.97,1.81,1.98,2.91,2.96c0.81,0.72,1.82,1.09,2.85,1.09c0.66,0,1.33-0.15,1.95-0.47c0.78-0.4,1.4-1.02,1.8-1.75
	c0.47,0.31,0.95,0.61,1.45,0.85c0.58,0.29,1.19,0.42,1.8,0.42c1.07,0,2.12-0.43,2.92-1.27c1.25-1.32,1.5-3.2,0.63-4.78
	c-0.95-1.74-1.61-3.3-1.98-4.24c1.24-0.86,2.43-1.91,3.55-3.15c1.28-1.4,2.83-2.56,4.59-3.43c1.15,3.48,4.51,12.51,9.92,17.94
	c0.01,0.01,0.02,0.02,0.03,0.03c0.02,0.02,0.04,0.03,0.06,0.04c0.07,0.07,0.14,0.13,0.23,0.18c0.03,0.02,0.06,0.02,0.1,0.04
	c0.03,0.02,0.06,0.03,0.1,0.04c0.14,0.05,0.28,0.08,0.43,0.08c0.16,0,0.32-0.03,0.47-0.09c0.05-0.02,0.09-0.05,0.14-0.08
	c0.08-0.05,0.17-0.08,0.25-0.15c0.36-0.32,8.94-7.9,13.4-15.23c0.92-1.5,2.04-2.88,3.31-4.12c-0.07,3.4-0.11,9.36,0.26,15.96
	c0.03,0.66,0.08,1.32,0.12,1.99c0.15,2.23,0.35,4.5,0.61,6.75c0.07,0.66,0.16,1.32,0.25,1.98c0.26,1.97,0.57,3.9,0.94,5.75h-11.04
	c-0.45,0-0.87,0.23-1.1,0.61c-0.24,0.38-0.27,0.85-0.07,1.26l0.09,0.18c-4.67,0.34-9.33,0.26-10.59,0.23
	c-3.89-2.42-8.15-0.58-9.29,0.01c-1.83,0.12-12.71,0.79-25.7,0.36c-0.66-0.03-1.32-0.05-2-0.08c-2.21-0.09-4.48-0.22-6.76-0.38
	c-0.66-0.05-1.33-0.11-2-0.17c-0.3-0.02-0.61-0.04-0.91-0.07l-5.47-0.81c-2.04-2.61-2.79-12.26-2.01-26.11
	c0.22-3.81,0.17-7.67-0.14-11.48C505.15,681.97,505.21,670.02,505.3,664.88z M519.94,700.28c-2.68,2.17-4.14,2.37-4.77,2.26
	c-0.3-0.05-0.75-0.19-1.16-0.87c-0.69-1.12-0.49-2.66,0.48-3.74c2.37-2.63,4.75-5.63,6.78-8.35c-0.59,2.03-1.07,4.11-1.21,5.91
	C520.04,695.66,519.9,697.55,519.94,700.28z M559.42,746.2c-1.15,0.55-3.79,1.46-6.53,0v-10c1.16-0.49,3.71-1.29,5.98-0.07
	L559.42,746.2z M534.42,737.21c7.42,0,13.31-0.29,15.87-0.44v8.9c-17.19,0.46-33.31-0.58-37.53-0.88c-0.6-6.31,0.79-8.04,1.21-8.4
	C521.17,737.01,528.31,737.21,534.42,737.21z M510.16,744.87c-1.33,0.14-2.58,0.18-3.3,0.12c-0.26-3.55,0-8.18,1.19-9.45l3.03,0.45
	C510.3,737.57,509.74,740.26,510.16,744.87z M508.7,747.6c1.05-0.05,2.1-0.17,2.92-0.29c0.88,0.07,6.07,0.46,13.53,0.75
	c-5.55,11.42-16.62,17.87-21.39,20.22C505.23,761.39,506.88,754.44,508.7,747.6z M469.16,961.4c-1.22-0.3-2.11-1.3-2.23-2.49
	c-0.2-2.13-0.11-5.66,1.37-10.42c1.37-1.26,2.75-2.33,4.13-3.24c-0.91,1.5-1.83,3.24-2.46,5.01c-0.36,1.01-0.2,2.12,0.42,2.97
	s1.62,1.36,2.66,1.31c4.07-0.11,14.31-0.05,21.43,2.8c1.46,0.59,2.97,0.88,4.46,0.88c1.97,0,3.9-0.51,5.61-1.52
	c2.52-1.48,4.48-3.11,5.86-4.86c0.97,1.04,1.91,2.19,2.82,3.46C511.15,958.11,500.79,969.02,469.16,961.4z M477.41,942.69
	c11.25-4.28,22.19,1,28.49,5.25c0.91,0.61,1.79,1.3,2.64,2.07c-1.18,1.56-2.99,3.09-5.31,4.45c-2.3,1.36-5.14,1.53-7.79,0.47
	c-7.29-2.93-17.2-3.13-22.46-2.99c-0.28-0.02-0.42-0.14-0.48-0.23c-0.06-0.08-0.18-0.29-0.08-0.58
	C473.74,947.41,476.58,943.72,477.41,942.69z M572.24,823.39c-15.38,19.86-34.82,57.8-40.09,125.81c-0.38,4.86-4.03,8.75-8.68,9.23
	c-3.08,0.32-5.57-0.96-7.6-3.9c-2.58-3.77-5.37-6.63-8.52-8.75c-8.7-5.86-25.6-13.53-41.08,1.04c-0.28,0.26-0.57,0.16-0.68,0.11
	c-0.14-0.07-0.37-0.24-0.33-0.59c1.07-11.91,5.27-43.62,21.09-80.74c3.46-8.12,5.65-16.68,6.5-25.42
	c1.47-15.14,4.55-41.31,10.24-68.72c3.38-1.44,18.26-8.49,24.87-23.3c4.05,0.13,8.6,0.23,13.42,0.23c3.2,0,6.51-0.05,9.86-0.15
	c1.68,1.01,3.32,1.36,4.79,1.36c2.41,0,4.31-0.92,5.08-1.36c0.48,0.01,1.41,0.01,2.68,0.01c3.24,0,8.65-0.05,14.12-0.36l1.16,2.38
	c0.21,0.45,0.67,0.74,1.17,0.74h3.33c0.27,7.43,1.25,46.47-6,65.97C575.81,818.95,574.03,821.07,572.24,823.39z M581.67,812.62
	c5.66-21,4.78-54.37,4.51-61.61h11.49c0.38,5.92,1.8,32.83-2.54,50.41C591.34,803.95,586.71,807.56,581.67,812.62z M645.42,953.03
	c-2.57,2.82-6.13,4.63-10.04,5.07c-14.82,1.69-26.64,0.34-32.37-0.62c-2.91-0.48-5.53-2.1-7.19-4.44c-0.34-0.48-0.62-0.92-0.85-1.28
	c1.84-1.17,3.71-2.78,5.5-4.99c0.92-1.13,1.88-2.17,2.87-3.11c0.28,1.05,0.68,2.35,1.18,3.6c0.88,2.19,2.89,3.7,5.24,3.95
	c3.05,0.32,8.05,0.73,14.11,0.73c3.71,0,7.82-0.15,12.12-0.56c3.58-0.34,6.66-2.88,7.66-6.32c0.12-0.4,0.2-0.8,0.28-1.2
	c1.08,1.06,2.15,2.21,3.2,3.5c0.32,0.39,0.66,0.75,0.99,1.05c0.12,0.1,0.25,0.19,0.37,0.28
	C647.76,950.11,646.74,951.56,645.42,953.03z M605.55,941.78c0.99-0.76,2.01-1.43,3.05-1.99c6.74-3.64,17.09-6.8,28.11-1.23
	c1.7,0.86,3.34,1.95,4.94,3.25c-0.1,0.83-0.25,1.68-0.49,2.53c-0.71,2.42-2.88,4.21-5.41,4.45c-11.12,1.06-20.89,0.35-25.72-0.17
	c-1.39-0.15-2.58-1.04-3.1-2.33C606.26,944.61,605.78,942.78,605.55,941.78z M652.19,852.71c-0.93,4.76-1.19,9.64-0.76,14.5
	c3.79,43.54,2.8,68.84,2.2,77.7c-0.06,0.89-0.59,1.62-1.43,1.96c-0.82,0.34-1.69,0.19-2.34-0.4c-0.24-0.21-0.48-0.47-0.72-0.75
	c-3.53-4.34-7.22-7.44-11.26-9.48c-12.03-6.08-23.23-2.67-30.51,1.26c-1.37,0.74-2.7,1.64-3.99,2.68c-0.01,0-0.02,0.01-0.03,0.02
	c-1.72,1.39-3.36,3.04-4.9,4.94c-4.29,5.29-9.03,6.67-12.25,6.9c-0.81,0.06-1.59-0.22-2.21-0.76c-0.65-0.57-1.03-1.36-1.09-2.21
	c-1.84-30.69,5.17-68.13,8.28-82.81c1.17-5.56,1.49-11.28,0.95-16.99c-1.53-16.12-6.05-32.58-7.1-36.27
	c11.64-11.16,20.74-14.38,20.86-14.42c0.68-0.23,1.04-0.97,0.81-1.65c-0.23-0.67-0.97-1.04-1.65-0.81c-0.25,0.09-2.8,0.98-6.81,3.35
	c3.73-17.88,2.44-42.35,2.04-48.46H609c0.45,0,0.88-0.24,1.11-0.63c0.24-0.39,0.25-0.87,0.04-1.27l-1.07-2.07
	c0.31,0.01,0.62,0.01,0.93,0.01c5.33,0,9.61-0.55,11.01-0.75c1.65,0.98,3.26,1.32,4.71,1.32c2.45,0,4.38-0.96,5.12-1.4
	c11.88-0.53,21.82-1.62,24.99-1.99c0.57,0.03,1.4,0.07,2.31,0.07c0.96,0,2-0.05,2.9-0.18C664.14,785.34,655.91,833.67,652.19,852.71
	z M622.59,744.21v-10.13c1.16-0.5,3.69-1.31,5.98-0.06l0.55,10.19C627.97,744.78,625.35,745.7,622.59,744.21z M631.2,734.52
	c3.38-0.16,12.71-0.71,22.19-2.2c0.69,0.61,1.85,3.08,1.29,9.42c-3.71,0.43-12.52,1.34-22.99,1.84L631.2,734.52z M661.01,741.52
	c-0.77,0.13-2.15,0.19-3.63,0.16c-0.02-0.01-0.05-0.03-0.08-0.04c0.43-5.27-0.26-8.23-1.14-9.88l3.67-0.77
	C660.98,732.4,661.33,737.19,661.01,741.52z M659.09,728.49l-5.69,1.2c-10.6,1.69-21.12,2.19-23.23,2.27
	c-3.87-2.39-8.09-0.56-9.24,0.04c-1.58,0.08-9.95,0.53-19.19,0.85l-0.17-0.33c-0.23-0.43-0.67-0.7-1.16-0.7h-14.54
	c-2.58-12.4-2.32-29.31-2.19-34c0.64,0.62,1.41,1.16,2.26,1.51c0.74,0.29,1.48,0.44,2.18,0.44c0.76,0,1.47-0.17,2.07-0.52
	c1.85-1.07,2.76-3.32,2.43-5.44c1.8,0.05,3.55,0.07,5.25,0.07c24.76,0,39.85-5.16,48.42-9.79c3.82-2.07,7.19-4.89,9.95-8.25
	c0.22,3.4,0.48,8.85,0.4,14.3c-0.11,6.9,0.41,13.63,1.54,20C659.58,718.07,659.9,724.38,659.09,728.49z M656.11,582.29
	c4.4,4.75,7.18,10.79,8.06,17.48c0.14,1.06,0.29,2.26,0.44,3.58c0.07,0.63,0.14,1.3,0.21,1.99c0.2,2.03,0.4,4.3,0.57,6.74
	c0.04,0.65,0.08,1.32,0.12,2c0.83,14.73,0.34,35.13-6.26,51.62c-2.78,6.93-7.82,12.65-14.2,16.1c-9.11,4.93-25.9,10.47-54.55,9.33
	c1-1.44,1.77-3.09,2.13-4.98c0.02-0.08,0.02-0.16,0.02-0.25c0-0.82-0.32-19.77-13.35-31.76c4.14-2.84,19.25-11.47,49.2-10.9
	c0.7,0.02,1.32-0.56,1.33-1.27c0.01-0.72-0.56-1.31-1.28-1.33c-3.7-0.07-7.17,0-10.43,0.17c-0.31-6.42,3.37-17.63,3.41-17.75
	c0.22-0.68-0.15-1.42-0.83-1.65c-0.67-0.22-1.41,0.15-1.64,0.83c-0.17,0.51-3.87,11.77-3.53,18.73c-16.8,1.22-27.54,5.35-33.45,8.45
	c-0.22-15.47,4.31-29.6,5.34-32.61c6.65-2.06,15.82-8.61,16.22-8.9c0.31-0.22,0.5-0.57,0.54-0.94c0.28-3.1,0.1-7.42,0.03-8.83
	l5.08-7.25l6.47,8.74c0.27,0.37,0.71,0.57,1.17,0.52c0.46-0.05,0.86-0.33,1.05-0.75c4.52-9.72,5.26-23.21,5.39-27.08
	c4.82-1.12,9.43-2.33,13.8-3.64C639.42,569.75,648.97,574.59,656.11,582.29z M710.13,515.37c-14.97,24.39-49.86,54.63-130.98,60.87
	c0.29-1.36,0.29-2.99-0.03-4.87c-0.55-3.26-2.86-5.78-6.02-6.58c-1.3-0.34-2.62-0.32-3.86-0.03c-0.58-2.14-1.63-3.7-3.15-4.63
	c-1.62-0.99-3.36-1-4.49-0.85c-1.02-2.16-2.47-3.66-4.34-4.47c-2.03-0.89-4.06-0.74-5.36-0.47c-0.9-2.47-2.81-3.84-5.48-3.91
	c-1.36-0.02-2.72,0.3-3.99,0.94c-0.98-1.59-2.89-2.96-5.75-2.3c-1.91,0.44-3.62,1.67-4.71,3.37c-1.87,2.95-1.41,6.02,1.22,8.55
	c-2.13,3.3-3.42,6.52-4.14,9.52c-37.73-5.87-59.66-20.43-71.44-31.68c-7.64-7.3-12.93-16.7-15.3-27.19
	c-3.87-17.12-8.22-33.02-8.71-34.81c0.16-8.52-1.64-18.37-2.35-21.87c3.75-0.75,7.35-1.59,10.8-2.5c0.88-0.24,1.74-0.47,2.6-0.72
	c13.89-3.9,25.32-9,34.68-14.51c1.28-0.75,2.52-1.51,3.72-2.28c10.45-6.67,18.05-13.77,23.45-20.01c3.04-3.51,5.55-6.9,7.61-10.06
	c-7.39,15.89-16.63,21.24-16.79,21.33c-0.52,0.28-0.78,0.88-0.64,1.45s0.64,0.98,1.23,0.99c0.36,0.01,0.71,0.01,1.07,0.01
	c10.63,0,18.46-3.47,24.17-7.95c0.76-0.61,1.49-1.23,2.18-1.87c4.46-4.09,7.37-8.7,9.15-12.23c-0.28,5.95-2.02,10.04-3.8,12.71
	c-0.48,0.73-0.97,1.35-1.42,1.87c-1.44,1.64-2.65,2.37-2.78,2.44c-0.53,0.3-0.78,0.92-0.61,1.5c0.17,0.58,0.73,0.97,1.32,0.93
	c5.52-0.31,10.3-1.53,14.44-3.39c1.03-0.46,2.02-0.97,2.98-1.51c1.43-0.8,2.78-1.69,4.04-2.65c0.54-0.4,1.05-0.82,1.56-1.24
	c9.92-8.36,14.41-20.87,16.41-29.51c4.78,25.36,23.93,35.24,24.15,35.34c0.45,0.23,0.98,0.18,1.38-0.13
	c14.77-11.39,22.96-28.7,24.12-50.6c2.53,4.83,7.17,12.46,14.14,19.52c0.01,0.02,0.04,0.05,0.06,0.07c0.52,0.53,1.06,1.06,1.62,1.59
	c3.95,3.73,8.81,7.4,14.6,10.16c1.11,0.53,2.26,1.03,3.44,1.49c5.15,2.01,10.95,3.26,17.41,3.26c4.7,0,9.76-0.68,15.16-2.2
	c12.59,8.56,26.52,12.35,41.04,11.05c-1.21,4.86-4.29,18.95-5.15,38.63c-0.01,0.05-0.01,0.1-0.01,0.15
	c-0.25,5.91-0.3,12.31-0.04,19.12c0,0.01,0,0.01,0,0.02c0.06,1.6,0.13,3.22,0.23,4.87C719.52,492.75,716.53,504.94,710.13,515.37z
	 M721.06,472.98c-0.17-5.79-0.11-11.26,0.1-16.37C735,443.32,737.59,425.9,738,422.24c0.65-0.41,1.29-0.83,1.93-1.26
	c2.24-1.07,5.85-2.29,10.14-1.89c0.66,0.05,1.19-0.41,1.25-1.04c0.06-0.64-0.41-1.2-1.04-1.25c-1.78-0.16-3.44-0.07-4.97,0.15
	c3.37-2.79,6.37-5.85,9.01-9.17C755.18,418.42,755.27,453.92,721.06,472.98z M767.29,376.96c0.57-3.93,0.87-8.02,0.86-12.26
	c-0.03-19.14-5.92-34.36-6.18-35c-0.26-0.67-1.01-1-1.68-0.73c-0.67,0.26-1,1.01-0.74,1.68c0.06,0.15,5.97,15.4,6,34.06
	c0.04,24.89-9.87,43.61-29.47,55.65c-0.35,0.22-0.58,0.6-0.61,1.01c-0.02,0.19-1.48,17.65-14.11,31.33
	c1.28-22.18,5.3-36.32,5.36-36.51c0.12-0.42,0.02-0.87-0.26-1.21c-0.28-0.33-0.71-0.5-1.14-0.45
	c-47.17,5.66-71.14-45.67-71.37-46.19c-0.3-0.65-1.07-0.94-1.72-0.64c-0.66,0.3-0.95,1.07-0.65,1.72
	c0.25,0.55,6.23,13.54,18.34,26.02c3.23,3.33,6.58,6.27,10.04,8.85c-10.22,2.52-19.82,2.06-28.72-1.36
	c-6.23-2.39-12.11-6.23-17.61-11.51c-0.42-0.4-0.84-0.81-1.25-1.23c-10.05-10.14-15.26-21.87-15.97-23.53
	c0-3.72-0.2-7.56-0.59-11.52c-2.23-22.61-10.01-41.28-10.09-41.47c-0.28-0.66-1.05-0.97-1.71-0.69c-0.66,0.28-0.97,1.04-0.69,1.7
	c0.08,0.18,7.73,18.54,9.91,40.77c1.98,20.14-0.27,47.65-22.01,64.93c-3.85-2.27-22.23-14.57-23.05-42.48
	c-0.02-0.69-0.58-1.25-1.28-1.26c-0.71,0.01-1.28,0.54-1.32,1.23c0,0.11-0.64,11.13-5.76,22.21c-3.1,6.72-7.09,12-11.94,15.85
	c-2.29,1.81-4.76,3.3-7.42,4.46c-2.91,1.28-6.05,2.17-9.4,2.67c0.43-0.48,0.88-1.03,1.33-1.65c2.77-3.84,5.58-10.46,4.49-21.01
	c-0.06-0.63-0.56-1.11-1.18-1.17c-0.62-0.04-1.2,0.35-1.37,0.96c-0.19,0.68-3.21,11.18-12.75,18.59c-4.73,3.68-11.06,6.6-19.45,7.18
	c8.11-6.75,26.83-28.3,23.23-81.75c-0.05-0.72-0.67-1.25-1.39-1.21c-0.72,0.04-1.26,0.67-1.21,1.38c1.15,17.11-0.07,30.89-2.49,41.9
	c-1.42,4.69-10.35,29.96-42.63,48.92c-9.24,5.42-20.4,10.33-33.84,14.09c-4.52,1.27-9.29,2.4-14.34,3.38
	c-0.35,0.06-0.65,0.27-0.84,0.56s-0.26,0.65-0.18,0.99c0.02,0.12,2.43,11.06,2.56,20.7c-3.99-2.57-14.54-12.6-21.43-49.22
	c-0.04-0.24-0.16-0.47-0.33-0.65c-0.25-0.27-6.34-6.63-14.1-3.66c-1.56,0.6-2.95,1.53-4.11,2.69
	c-31.63-18.3-34.82-55.97-34.85-56.35c-0.04-0.51-0.37-0.95-0.85-1.12c-0.47-0.18-1.01-0.06-1.37,0.29
	c-3.35,3.35-4.45,10.41-4.81,15.28c-9.89-20.57-10.25-41.48-1.06-62.23c7.38-16.65,18.5-26.95,18.61-27.05
	c0.53-0.48,0.57-1.31,0.08-1.84c-0.48-0.53-1.3-0.56-1.83-0.08c-0.47,0.43-11.59,10.71-19.2,27.83c-1.7,3.82-3.28,8.17-4.49,12.97
	c-16.9-45.42,22.5-84.25,30.77-91.75c3.15-2.84,7.28-6.62,11.38-10.57c23.76-22.95,39.64-42.79,46.98-52.58
	c7.75-10.31,16.51-19.39,26.05-26.98c25.13-20,51.37-26.75,75.86-19.52c18.55,5.48,29.76,17.11,29.87,17.23
	c0.5,0.52,1.32,0.54,1.84,0.04c0.52-0.49,0.54-1.31,0.05-1.83c-0.26-0.28-3.94-4.1-10.52-8.41c3.37-3.3,15.06-13.12,36.38-15.08
	c23.75-2.19,64.64,5.18,124.51,52.75c0.92,0.72,89.45,70.98,73.03,119.78c-7.11-33.91-22.63-46.39-23.43-47
	c-0.56-0.44-1.38-0.34-1.82,0.22c-0.44,0.57-0.34,1.39,0.23,1.83c0.22,0.18,22.75,18.36,25.62,70.01
	C788.09,320.39,791.21,365.16,767.29,376.96z M614.46,147.47c0.58,0.41,0.72,1.22,0.31,1.81c-0.42,0.59-1.23,0.72-1.81,0.31
	c-22.71-16.03-38.54,2.15-39.2,2.93c-0.26,0.31-0.63,0.46-1,0.46c-0.29,0-0.59-0.1-0.83-0.3c-0.55-0.47-0.62-1.29-0.16-1.83
	C571.95,150.64,589.76,130.04,614.46,147.47z M596.13,737.61l3.9,5.91c0.26,0.4,0.28,0.91,0.06,1.33c-0.23,0.42-0.67,0.69-1.15,0.69
	h-13.05c-0.45,0-0.87-0.24-1.1-0.62l-3.66-5.91c-0.25-0.4-0.26-0.91-0.03-1.32c0.23-0.41,0.66-0.67,1.14-0.67h12.8
	C595.48,737.02,595.89,737.24,596.13,737.61z M591.69,718.31c-2.8,0-5.09,2.28-5.09,5.09c0,2.8,2.29,5.08,5.09,5.08
	c2.81,0,5.09-2.28,5.09-5.08C596.78,720.59,594.5,718.31,591.69,718.31z M591.69,726.48c-1.7,0-3.09-1.38-3.09-3.08
	c0-1.71,1.39-3.09,3.09-3.09s3.09,1.38,3.09,3.09C594.78,725.1,593.39,726.48,591.69,726.48z M590.5,629.34
	c-2.81,0-5.09,2.28-5.09,5.09s2.28,5.09,5.09,5.09s5.09-2.28,5.09-5.09S593.31,629.34,590.5,629.34z M590.5,637.52
	c-1.7,0-3.09-1.39-3.09-3.09s1.39-3.09,3.09-3.09s3.09,1.39,3.09,3.09S592.2,637.52,590.5,637.52z M594.29,169.89
	c0.42,0.58,0.29,1.4-0.3,1.81c-0.23,0.17-0.49,0.25-0.75,0.25c-0.41,0-0.81-0.19-1.06-0.55c-9.44-13.17-18.89-9.98-18.98-9.95
	c-0.67,0.24-1.42-0.11-1.66-0.79c-0.24-0.68,0.11-1.42,0.79-1.66C572.79,158.83,583.72,155.15,594.29,169.89z M561.64,158.62
	c-0.37,0.61-1.17,0.8-1.78,0.43c-29.63-17.95-48.75,9.28-49.55,10.45c-0.25,0.37-0.66,0.56-1.08,0.56c-0.25,0-0.5-0.07-0.73-0.22
	c-0.59-0.41-0.74-1.22-0.34-1.81c0.21-0.3,21.3-30.44,53.04-11.2C561.82,157.2,562.01,158,561.64,158.62z"/>
<path id="CODE_x5F_C89B5F" class="st2" d="M762.44,249.91c-0.57-0.44-0.67-1.26-0.23-1.83c0.44-0.56,1.26-0.66,1.82-0.22
	c0.8,0.61,16.32,13.09,23.43,47c16.42-48.8-72.11-119.06-73.03-119.78c-59.87-47.57-100.76-54.94-124.51-52.75
	c-21.32,1.96-33.01,11.78-36.38,15.08c6.58,4.31,10.26,8.13,10.52,8.41c0.49,0.52,0.47,1.34-0.05,1.83
	c-0.52,0.5-1.34,0.48-1.84-0.04c-0.11-0.12-11.32-11.75-29.87-17.23c-24.49-7.23-50.73-0.48-75.86,19.52
	c-9.54,7.59-18.3,16.67-26.05,26.98c-7.34,9.79-23.22,29.63-46.98,52.58c-4.1,3.95-8.23,7.73-11.38,10.57
	c-8.27,7.5-47.67,46.33-30.77,91.75c1.21-4.8,2.79-9.15,4.49-12.97c7.61-17.12,18.73-27.4,19.2-27.83c0.53-0.48,1.35-0.45,1.83,0.08
	c0.49,0.53,0.45,1.36-0.08,1.84c-0.11,0.1-11.23,10.4-18.61,27.05c-9.19,20.75-8.83,41.66,1.06,62.23
	c0.36-4.87,1.46-11.93,4.81-15.28c0.36-0.35,0.9-0.47,1.37-0.29c0.48,0.17,0.81,0.61,0.85,1.12c0.03,0.38,3.22,38.05,34.85,56.35
	c1.16-1.16,2.55-2.09,4.11-2.69c7.76-2.97,13.85,3.39,14.1,3.66c0.17,0.18,0.29,0.41,0.33,0.65c6.89,36.62,17.44,46.65,21.43,49.22
	c-0.13-9.64-2.54-20.58-2.56-20.7c-0.08-0.34-0.01-0.7,0.18-0.99s0.49-0.5,0.84-0.56c5.05-0.98,9.82-2.11,14.34-3.38
	c13.44-3.76,24.6-8.67,33.84-14.09c32.28-18.96,41.21-44.23,42.63-48.92c2.42-11.01,3.64-24.79,2.49-41.9
	c-0.05-0.71,0.49-1.34,1.21-1.38c0.72-0.04,1.34,0.49,1.39,1.21c3.6,53.45-15.12,75-23.23,81.75c8.39-0.58,14.72-3.5,19.45-7.18
	c9.54-7.41,12.56-17.91,12.75-18.59c0.17-0.61,0.75-1,1.37-0.96c0.62,0.06,1.12,0.54,1.18,1.17c1.09,10.55-1.72,17.17-4.49,21.01
	c-0.45,0.62-0.9,1.17-1.33,1.65c3.35-0.5,6.49-1.39,9.4-2.67c2.66-1.16,5.13-2.65,7.42-4.46c4.85-3.85,8.84-9.13,11.94-15.85
	c5.12-11.08,5.76-22.1,5.76-22.21c0.04-0.69,0.61-1.22,1.32-1.23c0.7,0.01,1.26,0.57,1.28,1.26c0.82,27.91,19.2,40.21,23.05,42.48
	c21.74-17.28,23.99-44.79,22.01-64.93c-2.18-22.23-9.83-40.59-9.91-40.77c-0.28-0.66,0.03-1.42,0.69-1.7
	c0.66-0.28,1.43,0.03,1.71,0.69c0.08,0.19,7.86,18.86,10.09,41.47c0.39,3.96,0.59,7.8,0.59,11.52c0.71,1.66,5.92,13.39,15.97,23.53
	c0.41,0.42,0.83,0.83,1.25,1.23c5.5,5.28,11.38,9.12,17.61,11.51c8.9,3.42,18.5,3.88,28.72,1.36c-3.46-2.58-6.81-5.52-10.04-8.85
	c-12.11-12.48-18.09-25.47-18.34-26.02c-0.3-0.65-0.01-1.42,0.65-1.72c0.65-0.3,1.42-0.01,1.72,0.64
	c0.23,0.52,24.2,51.85,71.37,46.19c0.43-0.05,0.86,0.12,1.14,0.45c0.28,0.34,0.38,0.79,0.26,1.21c-0.06,0.19-4.08,14.33-5.36,36.51
	c12.63-13.68,14.09-31.14,14.11-31.33c0.03-0.41,0.26-0.79,0.61-1.01c19.6-12.04,29.51-30.76,29.47-55.65
	c-0.03-18.66-5.94-33.91-6-34.06c-0.26-0.67,0.07-1.42,0.74-1.68c0.67-0.27,1.42,0.06,1.68,0.73c0.26,0.64,6.15,15.86,6.18,35
	c0.01,4.24-0.29,8.33-0.86,12.26c23.92-11.8,20.8-56.57,20.77-57.04C785.19,268.27,762.66,250.09,762.44,249.91z M561.64,158.62
	c-0.37,0.61-1.17,0.8-1.78,0.43c-29.63-17.95-48.75,9.28-49.55,10.45c-0.25,0.37-0.66,0.56-1.08,0.56c-0.25,0-0.5-0.07-0.73-0.22
	c-0.59-0.41-0.74-1.22-0.34-1.81c0.21-0.3,21.3-30.44,53.04-11.2C561.82,157.2,562.01,158,561.64,158.62z M593.99,171.7
	c-0.23,0.17-0.49,0.25-0.75,0.25c-0.41,0-0.81-0.19-1.06-0.55c-9.44-13.17-18.89-9.98-18.98-9.95c-0.67,0.24-1.42-0.11-1.66-0.79
	c-0.24-0.68,0.11-1.42,0.79-1.66c0.46-0.17,11.39-3.85,21.96,10.89C594.71,170.47,594.58,171.29,593.99,171.7z M614.77,149.28
	c-0.42,0.59-1.23,0.72-1.81,0.31c-22.71-16.03-38.54,2.15-39.2,2.93c-0.26,0.31-0.63,0.46-1,0.46c-0.29,0-0.59-0.1-0.83-0.3
	c-0.55-0.47-0.62-1.29-0.16-1.83c0.18-0.21,17.99-20.81,42.69-3.38C615.04,147.88,615.18,148.69,614.77,149.28z M677.42,446.23
	c4.6,10.46,0.87,23.17-9.25,29.67c-11.19,7.18-26,4.11-33.02-6.83c-0.42-0.65-0.8-1.32-1.14-2c-0.31-0.59-0.58-1.2-0.83-1.82
	l10.86-4.86c0.35-0.16,0.75-0.1,1.05,0.14l3.81,3.16c4,3.32,8.61,2.72,11.59,1.05c2.97-1.67,5.88-5.29,5.13-10.44l-0.45-3.09
	c-0.06-0.42,0.14-0.83,0.52-1.03l10.84-5.75C676.86,445.02,677.15,445.62,677.42,446.23z M574.25,734.42l5.61,11.55
	c0.01,0,0.01,0,0.01,0.01l1.18,2.43h25.81l-7.24-13.99H574.25z M600.09,744.85c-0.23,0.42-0.67,0.69-1.15,0.69h-13.05
	c-0.45,0-0.87-0.24-1.1-0.62l-3.66-5.91c-0.25-0.4-0.26-0.91-0.03-1.32c0.23-0.41,0.66-0.67,1.14-0.67h12.8
	c0.44,0,0.85,0.22,1.09,0.59l3.9,5.91C600.29,743.92,600.31,744.43,600.09,744.85z M528.02,455.96c3,5.44,3.33,11.28,1.01,17.78
	c-2.12,5.93-6.47,10.66-12.24,13.32c-5.79,2.67-12.32,2.95-18.38,0.78c-5.71-2.03-10.36-6-13.2-11.23
	c-0.19-0.33-0.36-0.67-0.53-1.01c-0.13-0.26-0.25-0.52-0.35-0.78l10.61-4.85c0.35-0.16,0.76-0.1,1.05,0.14l3.81,3.16
	c4.01,3.32,8.61,2.72,11.59,1.05c2.97-1.67,5.88-5.29,5.13-10.44l-0.45-3.09c-0.06-0.42,0.15-0.83,0.52-1.03l10.39-5.51
	C527.36,454.82,527.71,455.39,528.02,455.96z"/>
<path id="CODE_x5F_FDE8B8" class="st3" d="M721.06,472.98c-0.17-5.79-0.11-11.26,0.1-16.37C735,443.32,737.59,425.9,738,422.24
	c0.65-0.41,1.29-0.83,1.93-1.26c2.24-1.07,5.85-2.29,10.14-1.89c0.66,0.05,1.19-0.41,1.25-1.04c0.06-0.64-0.41-1.2-1.04-1.25
	c-1.78-0.16-3.44-0.07-4.97,0.15c3.37-2.79,6.37-5.85,9.01-9.17C755.18,418.42,755.27,453.92,721.06,472.98z M718.77,480.1
	c0.75,12.65-2.24,24.84-8.64,35.27c-14.97,24.39-49.86,54.63-130.98,60.87c0.29-1.36,0.29-2.99-0.03-4.87
	c-0.55-3.26-2.86-5.78-6.02-6.58c-1.3-0.34-2.62-0.32-3.86-0.03c-0.58-2.14-1.63-3.7-3.15-4.63c-1.62-0.99-3.36-1-4.49-0.85
	c-1.02-2.16-2.47-3.66-4.34-4.47c-2.03-0.89-4.06-0.74-5.36-0.47c-0.9-2.47-2.81-3.84-5.48-3.91c-1.36-0.02-2.72,0.3-3.99,0.94
	c-0.98-1.59-2.89-2.96-5.75-2.3c-1.91,0.44-3.62,1.67-4.71,3.37c-1.87,2.95-1.41,6.02,1.22,8.55c-2.13,3.3-3.42,6.52-4.14,9.52
	c-37.73-5.87-59.66-20.43-71.44-31.68c-7.64-7.3-12.93-16.7-15.3-27.19c-3.87-17.12-8.22-33.02-8.71-34.81
	c0.16-8.52-1.64-18.37-2.35-21.87c3.75-0.75,7.35-1.59,10.8-2.5c-0.21,0.42-0.43,0.87-0.65,1.32c-0.68,1.42-0.24,3.1,1.05,4
	c2.28,1.59,6.99,4.66,12.99,7.48c0.14,0.06,0.28,0.09,0.43,0.09c0.09,0,0.19-0.01,0.28-0.04c1.06,3.49,5.49,15.78,17.09,24.91
	c3.63,3.11,8.07,5.24,12.7,6.61c4.63,1.38,9.52,1.98,14.37,1.78c1.21-0.03,2.42-0.23,3.62-0.34l1.81-0.21l1.78-0.37
	c1.18-0.27,2.37-0.51,3.53-0.82c1.15-0.37,2.29-0.76,3.43-1.15l1.7-0.6l1.64-0.76l3.24-1.55c2.1-1.16,4.1-2.49,6.06-3.81
	c9.5-7.42,13.17-18.43,14.1-21.74c0.08,0.02,0.16,0.03,0.25,0.03c0.13,0,0.26-0.02,0.38-0.07c0.41-0.17,0.66-0.58,0.62-1.02
	c-0.04-0.44-1.12-11.04-11.8-19.91c-10.64-8.83-26.64-12.65-47.62-11.34c10.45-6.67,18.05-13.77,23.45-20.01
	c3.04-3.51,5.55-6.9,7.61-10.06c-7.39,15.89-16.63,21.24-16.79,21.33c-0.52,0.28-0.78,0.88-0.64,1.45s0.64,0.98,1.23,0.99
	c0.36,0.01,0.71,0.01,1.07,0.01c10.63,0,18.46-3.47,24.17-7.95c1.9,0.09,4.4,0.32,6.11,0.48c-1.44,1.64-2.65,2.37-2.78,2.44
	c-0.53,0.3-0.78,0.92-0.61,1.5c0.17,0.58,0.73,0.97,1.32,0.93c5.52-0.31,10.3-1.53,14.44-3.39c4.23,0.58,11.12,2.62,11.2,2.64
	c0.1,0.03,0.19,0.04,0.29,0.04c0.26,0,0.51-0.1,0.7-0.28c0.26-0.26,0.36-0.64,0.26-0.99c-0.81-2.91-2.72-5.46-3.87-6.81
	c9.92-8.36,14.41-20.87,16.41-29.51c4.78,25.36,23.93,35.24,24.15,35.34c0.45,0.23,0.98,0.18,1.38-0.13
	c14.77-11.39,22.96-28.7,24.12-50.6c2.53,4.83,7.17,12.46,14.14,19.52c-6.09,1.58-11.4,5.52-14.82,11.06
	c-3.84,6.22-6.61,13.14-6.64,13.21c-0.15,0.39-0.05,0.83,0.26,1.11c0.19,0.17,0.43,0.26,0.67,0.26c0.16,0,0.32-0.04,0.47-0.11
	c16.53-8.65,35.73-11.66,39.78-12.22c5.15,2.01,10.95,3.26,17.41,3.26c4.7,0,9.76-0.68,15.16-2.2
	c12.59,8.56,26.52,12.35,41.04,11.05c-1.21,4.86-4.29,18.95-5.15,38.63c-0.01,0.05-0.01,0.1-0.01,0.15
	c-0.25,5.91-0.3,12.31-0.04,19.12c0,0.01,0,0.01,0,0.02C718.6,476.83,718.67,478.45,718.77,480.1z M618.21,528.9
	c-0.5-0.5-1.33-0.5-1.83,0c-4.75,4.75-9.95,6.65-15.46,5.63c-6.59-1.21-13.58-0.63-20.21,1.66c-10.97,3.79-18.65-3.45-18.98-3.77
	c-0.52-0.5-1.34-0.49-1.84,0.03c-0.5,0.51-0.49,1.33,0.03,1.83c0.29,0.29,5.88,5.61,14.45,5.61c2.21,0,4.62-0.35,7.19-1.24
	c6.21-2.15,12.74-2.69,18.9-1.56c6.3,1.16,12.44-1.04,17.75-6.35C618.72,530.24,618.72,529.41,618.21,528.9z M713.43,436.47
	c0-1-0.47-1.91-1.27-2.49c-4.92-3.63-18.58-11.99-39.28-11.84c-15.56,0.14-30.23,5.5-41.3,15.09c-8.16,7.07-12.94,15.02-14.22,23.62
	c-0.07,0.5,0.24,0.97,0.72,1.11c0.09,0.03,0.18,0.04,0.27,0.04c0.16,0,0.31-0.04,0.45-0.11c1.59,3.02,7.37,12.97,17.02,18.6
	c3.85,2.61,8.24,4.39,12.79,5.52c4.56,1.13,9.35,1.54,14.08,0.98c2.36-0.31,4.7-0.8,6.96-1.56c2.23-0.82,4.43-1.77,6.44-3.03
	c4.04-2.48,7.47-5.82,10.09-9.64c9.44-8.29,12.41-21.98,13.06-25.74c0.21,0.04,0.44,0.01,0.64-0.1c0.07-0.04,6.59-3.64,12.28-7.91
	C712.97,438.41,713.44,437.48,713.43,436.47z M578.42,594.1c-0.81,2.53-1.64,4.83-2.48,6.91c3.23,5.08,8.26,10.56,10.39,12.8
	c10.67-13.43,17.48-32,19.53-38.08c-7.46,1.2-15.39,2.18-23.82,2.89C582.45,585.02,581.24,590.22,578.42,594.1z M576.56,571.8
	c-0.38-2.22-1.95-3.95-4.1-4.49c-1.14-0.3-2.3-0.21-3.34,0.2c-0.18,0.15-0.39,0.27-0.63,0.31c-0.02,0-0.03-0.01-0.04-0.01
	c-0.66,0.37-1.27,0.87-1.77,1.5c-2.32,2.95-3.52,5.91-3.53,5.94c-0.27,0.66-1.02,0.99-1.69,0.72c-0.67-0.27-0.99-1.02-0.73-1.69
	c0.06-0.13,1.35-3.32,3.91-6.58c0.63-0.79,1.37-1.43,2.18-1.93c-0.39-1.65-1.08-2.79-2.07-3.41c-1.29-0.8-2.8-0.53-3.32-0.41
	c-0.89,0.74-4.5,3.89-5.81,7.18c-0.2,0.51-0.69,0.82-1.21,0.82c-0.16,0-0.32-0.03-0.48-0.1c-0.67-0.26-0.99-1.02-0.72-1.68
	c1.35-3.4,4.56-6.48,6.04-7.78c-0.74-1.56-1.75-2.64-3.01-3.19c-1.89-0.84-3.9-0.33-4.54-0.13c-0.85,0.84-4.26,4.31-6.51,8.28
	c-0.24,0.42-0.68,0.66-1.13,0.66c-0.22,0-0.44-0.06-0.64-0.17c-0.63-0.36-0.85-1.15-0.49-1.78c2.22-3.9,5.37-7.26,6.63-8.52
	c-0.5-1.67-1.53-2.47-3.2-2.51c-1.29-0.04-2.59,0.41-3.75,1.27c0,0,0,0-0.01,0.01c-0.17,0.13-0.34,0.27-0.51,0.41
	c-12.05,10.68-11.88,21.87-10.71,27.59c0.48,2.33,1.65,4.53,3.38,6.36c11.74,12.39,22.7,12.28,29.82,10
	c3.08-0.98,5.24-3.81,5.37-7.04c0.36-8.66-0.35-16.43-0.36-16.51c-0.07-0.71,0.46-1.35,1.17-1.41c0.71-0.07,1.35,0.45,1.42,1.17
	c0,0.03,0.13,1.44,0.25,3.69c1.53,0,2.65-0.37,3.34-1.1C576.99,576.15,576.87,573.66,576.56,571.8z M549.79,664.41
	c-2.72,1.7-12.66,8.14-22.77,17.14c-0.65,1.47-3.97,9.19-4.37,14.14c-0.01,0.09-0.7,9.51,1.58,16.95c0.39,1.27,1.49,1.54,2.31,1.4
	c0.82-0.15,1.66-0.75,1.64-1.97c-0.31-0.41-0.59-0.81-0.83-1.16c-1.06-1.57-1.56-3.44-1.42-5.28c0.58-7.33,3.04-14.21,3.14-14.5
	c0.24-0.68,0.99-1.03,1.66-0.78c0.68,0.24,1.03,0.98,0.79,1.66c-0.03,0.07-2.45,6.86-3,13.83c-0.09,1.25,0.25,2.53,0.98,3.6
	c1.07,1.57,2.85,3.9,5.27,6.06c0.8,0.71,1.65,0.37,1.89,0.24c0.2-0.1,0.79-0.47,0.88-1.24c-0.94-0.99-1.8-2.16-2.56-3.52
	c-0.49-0.88-0.77-1.87-0.83-2.85c-0.12-2.36-0.06-6.75,1.74-9.69c0.38-0.61,1.18-0.81,1.79-0.43c0.61,0.37,0.8,1.17,0.43,1.79
	c-1.49,2.43-1.45,6.54-1.36,8.19c0.03,0.59,0.21,1.18,0.5,1.72c1.37,2.45,3.04,4.17,4.98,5.11c0.88,0.44,1.52-0.12,1.7-0.31
	c0.36-0.38,0.61-1.04,0.23-1.73c-1.66-3.03-2.48-5.51-2.51-5.61c-0.19-0.58,0.04-1.2,0.56-1.52c1.35-0.82,2.66-1.91,3.88-3.26
	c2.3-2.53,5.36-4.39,8.84-5.36c4.17-1.16,7.21-2.63,8.52-3.32C561.87,675.59,553.93,667.46,549.79,664.41z M540.29,552.85
	c-0.4-0.76-1.25-1.66-3.02-1.25c-1.25,0.29-2.38,1.1-3.1,2.24c-1.13,1.77-0.94,3.41,0.54,4.99
	C536.22,556.84,538.06,554.83,540.29,552.85z M514.01,701.67c0.41,0.68,0.86,0.82,1.16,0.87c0.63,0.11,2.09-0.09,4.77-2.26
	c-0.04-2.73,0.1-4.62,0.12-4.79c0.14-1.8,0.62-3.88,1.21-5.91c-2.03,2.72-4.41,5.72-6.78,8.35
	C513.52,699.01,513.32,700.55,514.01,701.67z M411,443.42c-1.53-1.02-6.64-4.12-13.68-5.04c-0.63-0.09-1.07-0.66-0.99-1.29
	c0.08-0.63,0.66-1.08,1.29-0.99c5.53,0.72,9.89,2.65,12.51,4.1c-1.07-4.09-2.09-8.61-3.04-13.62c-1.11-1.05-5.61-4.83-11.02-2.76
	c-3.55,1.36-5.97,4.86-6.15,8.92c-0.52,11.14,2.84,38.59,44.22,56.29c-1.42-5.5-2.51-9.54-2.92-11.04
	C428.41,476.8,418.74,470.82,411,443.42z"/>
<path id="CODE_x5F_B27A4D" class="st4" d="M582.08,649.42c5.91-3.1,16.65-7.23,33.45-8.45c-0.34-6.96,3.36-18.22,3.53-18.73
	c0.23-0.68,0.97-1.05,1.64-0.83c0.68,0.23,1.05,0.97,0.83,1.65c-0.04,0.12-3.72,11.33-3.41,17.75c3.26-0.17,6.73-0.24,10.43-0.17
	c0.72,0.02,1.29,0.61,1.28,1.33c-0.01,0.71-0.63,1.29-1.33,1.27c-29.95-0.57-45.06,8.06-49.2,10.9
	c13.03,11.99,13.35,30.94,13.35,31.76c0,0.09,0,0.17-0.02,0.25c-0.36,1.89-1.13,3.54-2.13,4.98c28.65,1.14,45.44-4.4,54.55-9.33
	c6.38-3.45,11.42-9.17,14.2-16.1c6.6-16.49,7.09-36.89,6.26-51.62l-3.28,0.26l-0.22-2.73l-2.73,0.22l-0.42-5.27l2.73-0.22
	l-0.22-2.73l3.24-0.26c-0.15-1.32-0.3-2.52-0.44-3.58c-0.88-6.69-3.66-12.73-8.06-17.48c-7.14-7.7-16.69-12.54-18.94-13.61
	c-4.37,1.31-8.98,2.52-13.8,3.64c-0.13,3.87-0.87,17.36-5.39,27.08c-0.19,0.42-0.59,0.7-1.05,0.75c-0.46,0.05-0.9-0.15-1.17-0.52
	l-6.47-8.74l-5.08,7.25c0.07,1.41,0.25,5.73-0.03,8.83c-0.04,0.37-0.23,0.72-0.54,0.94c-0.4,0.29-9.57,6.84-16.22,8.9
	C586.39,619.82,581.86,633.95,582.08,649.42z M646.26,649.97l2.69,0.53l0.54-2.68l5.18,1.04l-0.54,2.69l2.68,0.54l-1.04,5.18
	l-2.68-0.54l-0.54,2.69l-5.19-1.04l0.54-2.69l-2.68-0.54L646.26,649.97z M596.37,659.81l0.35,2.72l-5.24,0.68l-0.35-2.72l-2.72,0.35
	l-0.67-5.25l2.71-0.34l-0.34-2.72l5.24-0.67l0.35,2.71l2.72-0.34l0.67,5.24L596.37,659.81z M614.75,685.2l-5.24,0.69l-0.36-2.71
	l-2.72,0.36l-0.69-5.24l2.72-0.36l-0.36-2.72l5.24-0.69l0.36,2.72l2.72-0.36l0.69,5.24l-2.72,0.36L614.75,685.2z M632.03,662.85
	l-4.18,3.24l-1.68-2.17l-2.16,1.68l-3.24-4.18l2.17-1.68l-1.68-2.16l4.18-3.24l1.68,2.17l2.16-1.68l3.24,4.18l-2.17,1.68
	L632.03,662.85z M644.76,623.95v5.29h-2.73v2.73h-5.29v-2.73H634v-5.29h2.74v-2.74h5.29v2.74H644.76z M628.01,588.7l2.7,0.43
	l0.43-2.71l5.22,0.82l-0.43,2.7l2.71,0.43l-0.82,5.22l-2.7-0.42l-0.43,2.7l-5.23-0.82l0.43-2.71l-2.71-0.42L628.01,588.7z
	 M599.74,618.83l4.5-2.76l1.43,2.33l2.34-1.43l2.76,4.51l-2.33,1.43l1.43,2.33l-4.5,2.77l-1.43-2.33l-2.34,1.43l-2.77-4.51
	l2.34-1.43L599.74,618.83z M590.5,629.34c2.81,0,5.09,2.28,5.09,5.09s-2.28,5.09-5.09,5.09s-5.09-2.28-5.09-5.09
	S587.69,629.34,590.5,629.34z M656.64,690.14c0.08-5.45-0.18-10.9-0.4-14.3c-2.76,3.36-6.13,6.18-9.95,8.25
	c-8.57,4.63-23.66,9.79-48.42,9.79c-1.7,0-3.45-0.02-5.25-0.07c0.33,2.12-0.58,4.37-2.43,5.44c-0.6,0.35-1.31,0.52-2.07,0.52
	c-0.7,0-1.44-0.15-2.18-0.44c-0.85-0.35-1.62-0.89-2.26-1.51c-0.13,4.69-0.39,21.6,2.19,34h14.54c0.49,0,0.93,0.27,1.16,0.7
	l0.17,0.33c9.24-0.32,17.61-0.77,19.19-0.85c1.15-0.6,5.37-2.43,9.24-0.04c2.11-0.08,12.63-0.58,23.23-2.27l5.69-1.2
	c0.81-4.11,0.49-10.42-0.91-18.35C657.05,703.77,656.53,697.04,656.64,690.14z M591.69,728.48c-2.8,0-5.09-2.28-5.09-5.08
	c0-2.81,2.29-5.09,5.09-5.09c2.81,0,5.09,2.28,5.09,5.09C596.78,726.2,594.5,728.48,591.69,728.48z M604.78,708.5l-0.89-2.59
	l-2.59,0.89l-1.72-5l2.59-0.89l-0.89-2.59l5-1.72l0.89,2.59l2.59-0.89l1.72,5l-2.59,0.89l0.89,2.59L604.78,708.5z M619.92,723.49
	l0.55,2.69l-5.18,1.05l-0.55-2.68l-2.68,0.55l-1.06-5.18l2.68-0.55l-0.54-2.68l5.18-1.06l0.54,2.68l2.69-0.54l1.05,5.18
	L619.92,723.49z M651.74,720.17H649v2.74h-5.28v-2.74h-2.74v-5.29h2.74v-2.73H649v2.73h2.74V720.17z M653.05,697.47l-2.71-0.31
	h-0.01l-0.31,2.72l-5.25-0.59l0.31-2.72l-2.72-0.31l0.59-5.26l2.72,0.31l0.31-2.72l5.26,0.6l-0.31,2.71l2.72,0.31L653.05,697.47z
	 M601.63,606.14c-1.56,1.09-6.62,4.52-11.34,6.74c10.69-14.65,17.16-33.59,18.47-37.63c4.14-0.71,8.13-1.49,11.98-2.34
	c-0.18,4.09-0.95,14.89-4.24,23.35l-6.19-8.36c-0.25-0.34-0.65-0.53-1.06-0.53c-0.42,0.01-0.81,0.21-1.05,0.55l-6.38,9.1
	c-0.17,0.24-0.25,0.53-0.24,0.82C601.59,597.89,601.87,602.68,601.63,606.14z M594.78,723.4c0,1.7-1.39,3.08-3.09,3.08
	s-3.09-1.38-3.09-3.08c0-1.71,1.39-3.09,3.09-3.09S594.78,721.69,594.78,723.4z M587.41,634.43c0-1.7,1.39-3.09,3.09-3.09
	s3.09,1.39,3.09,3.09s-1.39,3.09-3.09,3.09S587.41,636.13,587.41,634.43z M586.69,697.47c-0.64-0.26-1.23-0.67-1.69-1.15
	c1.1-0.72,2.27-1.61,3.36-2.68c0.74,0.04,1.48,0.07,2.2,0.1c0.38,1.42-0.17,3.08-1.37,3.78
	C588.56,697.88,587.65,697.86,586.69,697.47z M575.51,702.16c1.89-3.11,4.54-5.78,7.65-7.74c1.21-0.76,2.55-1.76,3.73-2.99
	c0.04-0.03,0.06-0.07,0.1-0.1c1.42-1.5,2.61-3.34,3.06-5.53c-0.05-1.67-0.88-19.7-13.24-30.39c-3,0.3-17.84,1.98-26.38,6.23
	c5.64,3.66,19.87,16.63,14.9,52.61C568.22,711.42,572.76,706.67,575.51,702.16z M572.53,684.67h2.74v-2.74h5.29v2.74h2.74v5.29
	h-2.74v2.74h-5.29v-2.74h-2.74V684.67z M562.19,669.98v-2.74h-2.74v-5.29h2.74v-2.74h5.29v2.74h2.74v5.29h-2.74v2.74H562.19z
	 M578.73,726.28l-0.15-2.73l-2.74,0.15l-0.3-5.28l2.73-0.15l-0.15-2.74l3.18-0.18c-0.37-6.6-0.33-12.56-0.26-15.96
	c-1.27,1.24-2.39,2.62-3.31,4.12c-4.46,7.33-13.04,14.91-13.4,15.23c-0.08,0.07-0.17,0.1-0.25,0.15c-0.05,0.03-0.09,0.06-0.14,0.08
	c-0.15,0.06-0.31,0.09-0.47,0.09c-0.15,0-0.29-0.03-0.43-0.08c-0.04-0.01-0.07-0.02-0.1-0.04c-0.04-0.02-0.07-0.02-0.1-0.04
	c-0.09-0.05-0.16-0.11-0.23-0.18c-0.02-0.01-0.04-0.02-0.06-0.04c-0.01-0.01-0.02-0.02-0.03-0.03c-5.41-5.43-8.77-14.46-9.92-17.94
	c-1.76,0.87-3.31,2.03-4.59,3.43c-1.12,1.24-2.31,2.29-3.55,3.15c0.37,0.94,1.03,2.5,1.98,4.24c0.87,1.58,0.62,3.46-0.63,4.78
	c-0.8,0.84-1.85,1.27-2.92,1.27c-0.61,0-1.22-0.13-1.8-0.42c-0.5-0.24-0.98-0.54-1.45-0.85c-0.4,0.73-1.02,1.35-1.8,1.75
	c-0.62,0.32-1.29,0.47-1.95,0.47c-1.03,0-2.04-0.37-2.85-1.09c-1.1-0.98-2.07-1.99-2.91-2.96c-0.65,1.08-1.74,1.86-3.12,2.12
	c-0.31,0.05-0.61,0.08-0.91,0.08c-2.01,0-3.74-1.26-4.35-3.27c-1.02-3.3-1.48-6.89-1.68-9.98c-1.73,1.16-3.25,1.74-4.6,1.74
	c-0.24,0-0.48-0.02-0.71-0.06c-1.23-0.2-2.26-0.92-2.97-2.09c-1.28-2.09-0.97-4.9,0.77-6.83c6.08-6.75,12.23-16.05,12.3-16.14
	c0.03-0.05,0.08-0.08,0.12-0.13c0.04-0.04,0.05-0.09,0.1-0.13c1.73-1.55,3.47-3.02,5.16-4.42c-10.3-0.77-18.75-5.5-24.94-10.49
	c-0.09,5.14-0.15,17.09,0.93,30.49c0.31,3.81,0.36,7.67,0.14,11.48c-0.78,13.85-0.03,23.5,2.01,26.11l5.47,0.81
	c0.3,0.03,0.61,0.05,0.91,0.07l0.09-3.15l2.73,0.07l0.07-2.74l5.29,0.14l-0.07,2.74l2.74,0.07l-0.09,3.5
	c12.99,0.43,23.87-0.24,25.7-0.36c1.14-0.59,5.4-2.43,9.29-0.01c1.26,0.03,5.92,0.11,10.59-0.23l-0.09-0.18
	c-0.2-0.41-0.17-0.88,0.07-1.26c0.23-0.38,0.65-0.61,1.1-0.61h11.04c-0.37-1.85-0.68-3.78-0.94-5.75L578.73,726.28z M512.57,673.73
	l5.21-0.92l0.48,2.7l2.69-0.48l0.92,5.21l-2.7,0.48l0.48,2.69l-5.21,0.92l-0.48-2.7l-2.69,0.48l-0.92-5.21l2.7-0.48L512.57,673.73z
	 M557.05,728.74l-5.02,1.64l-0.86-2.6l-2.6,0.85l-1.65-5.02l2.61-0.85l-0.86-2.61l5.02-1.64l0.86,2.6l2.6-0.86l1.65,5.03l-2.61,0.85
	L557.05,728.74z M571.81,609.87c4.32,2.89,10.44,5.57,12.97,6.63c-0.79,2.35-2.54,7.98-3.8,15.29h-2.06v-2.74h-5.29v2.74h-2.74v5.28
	h2.74v2.74h5.29v-2.74h1.27c-0.53,4.3-0.83,8.98-0.67,13.8c-1.43,0.88-2.34,1.56-2.8,1.93c-1.91,0.18-9.87,1.03-17.66,3.05
	c0.23-0.4,0.46-0.8,0.69-1.19c1.55-2.74,2.87-5.35,3.99-7.82c2.63-5.8,4.16-10.86,5-15.16c1.75-9.03,0.44-14.66-0.17-16.57
	C569.18,614.27,570.35,612.54,571.81,609.87z M575.47,593.66c-1.45,1.63-3.12,2.71-4.7,3.44c1.06-1.55,1.7-3.4,1.78-5.36
	c0.16-3.9,0.11-7.62,0-10.57c2.22-0.02,3.94-0.67,5.12-1.93c0.08-0.09,0.15-0.2,0.23-0.29c0.52-0.04,1.03-0.08,1.55-0.12
	C579.85,585.22,578.53,590.22,575.47,593.66z M574.73,603.89c2.02,2.95,4.43,5.86,6.46,8.16c-2.67-1.26-5.78-2.87-8.17-4.5
	C573.57,606.44,574.15,605.23,574.73,603.89z M528.3,602.65c-0.02-4.94,1.19-11.43,2.09-15.6c0.67,1.22,1.5,2.37,2.48,3.41
	c3.64,3.84,7.23,6.53,10.66,8.37l-1.05,2.96l2.58,0.92l-0.92,2.58l4.98,1.77l0.92-2.58l2.58,0.92l1.14-3.2
	c1.2,0.15,2.36,0.22,3.46,0.22c3.18,0,5.89-0.57,7.98-1.22c0.93-0.04,5.08-0.4,9.07-3.08c-3.64,9.68-7.38,14.9-8.06,15.81
	c-6.43,4.4-12.79,5.9-18.9,4.45C536.39,615.78,529.41,604.54,528.3,602.65z M533.34,672.89c6.09-4.79,11.35-8.3,14-10.01
	c-0.04-0.02-0.07-0.03-0.08-0.03c-0.45-0.19-0.75-0.61-0.79-1.09c-0.04-0.49,0.19-0.95,0.6-1.21c2.29-1.45,5.21-2.65,8.33-3.65
	c0.53-0.86,1.04-1.71,1.52-2.54l-2.6-1.31l1.23-2.45l-2.45-1.23l2.37-4.72l2.45,1.22l1.22-2.45l2.67,1.34
	c6.4-14.75,5.34-24.29,4.55-27.83c-4.85,3.04-9.7,4.59-14.46,4.59c-1.75,0-3.49-0.21-5.21-0.62c-13-3.1-20.52-16.7-20.83-17.28
	c-0.1-0.18-0.16-0.39-0.16-0.6c0-0.09,0-0.18,0-0.28c-4.67,6.1-14.48,20.66-15.52,36.46c-0.05,0.69-0.62,1.22-1.3,1.22
	c-0.03,0-0.05,0-0.08-0.01c-0.72-0.04-1.26-0.66-1.22-1.38c1.34-20.32,16.01-38.02,18.34-40.71c0.63-6.81,2.46-14.23,2.86-15.79
	c-0.48-2.44-0.76-5.71-0.22-9.47c-2.88-0.45-5.68-0.94-8.39-1.49c-0.6,0.19-2.18,0.71-4.27,1.65c-10.29,4.63-17.92,14.01-20.41,25.1
	c-2.29,10.18-4.56,25.96-2.37,43.29c0.66,5.18,2.82,10.01,6.26,13.95c1.62,1.87,3.51,3.82,5.63,5.7c0.01,0.01,0.02,0.02,0.02,0.03
	c6.89,6.12,16.34,11.6,28.11,11.6C533.21,672.89,533.28,672.89,533.34,672.89z M503.41,625.46l0.7,2.65l-5.12,1.35l-0.7-2.65
	l-2.64,0.7l-1.35-5.11l2.65-0.7l-0.7-2.65l5.11-1.35l0.7,2.65l2.65-0.7l1.35,5.11L503.41,625.46z M509,587.62l2.62,0.81l0.81-2.62
	l5.05,1.56l-0.81,2.61l2.62,0.81l-1.56,5.05l-2.62-0.81l-0.81,2.62l-5.05-1.55l0.81-2.62l-2.62-0.81L509,587.62z M521.23,622.89
	l2.67,0.62l0.61-2.67l5.16,1.19l-0.61,2.67l2.66,0.61l-1.19,5.15l-2.66-0.61l-0.62,2.67l-5.16-1.19l0.62-2.66l-2.67-0.62
	L521.23,622.89z M531.86,657.84l-2.67-0.62l-0.62,2.68l-5.15-1.19l0.62-2.67l-2.67-0.62l1.19-5.15l2.67,0.62l0.61-2.67l5.15,1.19
	l-0.61,2.66l2.67,0.62L531.86,657.84z M555.63,699.54c3.56-1,6.32-2.19,8.01-3.01c0.25,5.28-0.03,11.35-1.04,18.29
	c-4.05-5.14-6.67-12.31-7.58-15.09C555.22,699.67,555.42,699.6,555.63,699.54z"/>
<path id="CODE_x5F_73583F" class="st5" d="M651.43,867.21c3.79,43.54,2.8,68.84,2.2,77.7c-0.06,0.89-0.59,1.62-1.43,1.96
	c-0.82,0.34-1.69,0.19-2.34-0.4c-0.24-0.21-0.48-0.47-0.72-0.75c-3.53-4.34-7.22-7.44-11.26-9.48c-12.03-6.08-23.23-2.67-30.51,1.26
	c-1.37,0.74-2.7,1.64-3.99,2.68c-0.01,0-0.02,0.01-0.03,0.02c-1.72,1.39-3.36,3.04-4.9,4.94c-4.29,5.29-9.03,6.67-12.25,6.9
	c-0.81,0.06-1.59-0.22-2.21-0.76c-0.65-0.57-1.03-1.36-1.09-2.21c-1.84-30.69,5.17-68.13,8.28-82.81
	c1.17-5.56,1.49-11.28,0.95-16.99c-1.53-16.12-6.05-32.58-7.1-36.27c11.64-11.16,20.74-14.38,20.86-14.42
	c0.68-0.23,1.04-0.97,0.81-1.65c-0.23-0.67-0.97-1.04-1.65-0.81c-0.25,0.09-2.8,0.98-6.81,3.35c3.73-17.88,2.44-42.35,2.04-48.46
	H609c0.45,0,0.88-0.24,1.11-0.63c0.24-0.39,0.25-0.87,0.04-1.27l-1.07-2.07c0.31,0.01,0.62,0.01,0.93,0.01
	c5.33,0,9.61-0.55,11.01-0.75c1.65,0.98,3.26,1.32,4.71,1.32c2.45,0,4.38-0.96,5.12-1.4c11.88-0.53,21.82-1.62,24.99-1.99
	c0.57,0.03,1.4,0.07,2.31,0.07c0.96,0,2-0.05,2.9-0.18c3.09,41.22-5.14,89.55-8.86,108.59C651.26,857.47,651,862.35,651.43,867.21z
	 M657.3,741.64c0.03,0.01,0.06,0.03,0.08,0.04c1.48,0.03,2.86-0.03,3.63-0.16c0.32-4.33-0.03-9.12-1.18-10.53l-3.67,0.77
	C657.04,733.41,657.73,736.37,657.3,741.64z M629.12,744.21l-0.55-10.19c-2.29-1.25-4.82-0.44-5.98,0.06v10.13
	C625.35,745.7,627.97,744.78,629.12,744.21z M597.67,751.01h-11.49c0.27,7.24,1.15,40.61-4.51,61.61c5.04-5.06,9.67-8.67,13.46-11.2
	C599.47,783.84,598.05,756.93,597.67,751.01z M583.57,751.01h-3.33c-0.5,0-0.96-0.29-1.17-0.74l-1.16-2.38
	c-5.47,0.31-10.88,0.36-14.12,0.36c-1.27,0-2.2,0-2.68-0.01c-0.77,0.44-2.67,1.36-5.08,1.36c-1.47,0-3.11-0.35-4.79-1.36
	c-3.35,0.1-6.66,0.15-9.86,0.15c-4.82,0-9.37-0.1-13.42-0.23c-6.61,14.81-21.49,21.86-24.87,23.3
	c-5.69,27.41-8.77,53.58-10.24,68.72c-0.85,8.74-3.04,17.3-6.5,25.42c-15.82,37.12-20.02,68.83-21.09,80.74
	c-0.04,0.35,0.19,0.52,0.33,0.59c0.11,0.05,0.4,0.15,0.68-0.11c15.48-14.57,32.38-6.9,41.08-1.04c3.15,2.12,5.94,4.98,8.52,8.75
	c2.03,2.94,4.52,4.22,7.6,3.9c4.65-0.48,8.3-4.37,8.68-9.23c5.27-68.01,24.71-105.95,40.09-125.81c1.79-2.32,3.57-4.44,5.33-6.41
	C584.82,797.48,583.84,758.44,583.57,751.01z M559.42,746.2l-0.55-10.07c-2.27-1.22-4.82-0.42-5.98,0.07v10
	C555.63,747.66,558.27,746.75,559.42,746.2z M525.15,748.06c-7.46-0.29-12.65-0.68-13.53-0.75c-0.82,0.12-1.87,0.24-2.92,0.29
	c-1.82,6.84-3.47,13.79-4.94,20.68C508.53,765.93,519.6,759.48,525.15,748.06z M510.16,744.87c-0.42-4.61,0.14-7.3,0.92-8.88
	l-3.03-0.45c-1.19,1.27-1.45,5.9-1.19,9.45C507.58,745.05,508.83,745.01,510.16,744.87z"/>
<path id="CODE_x5F_433129" class="st6" d="M665.62,454.3c0.75,5.15-2.16,8.77-5.13,10.44c-2.98,1.67-7.59,2.27-11.59-1.05
	l-3.81-3.16c-0.3-0.24-0.7-0.3-1.05-0.14l-10.86,4.86c-2.87-7.1-2.23-15.46,1.93-21.95c0.31-0.23,0.63-0.46,0.96-0.68
	c-0.29,0.9-0.44,1.8-0.44,2.67c0,2.14,0.89,3.97,2.5,5.15c1.03,0.75,2.27,1.14,3.6,1.14c0.75,0,1.52-0.12,2.31-0.36
	c2.1-0.65,4.06-2.1,5.51-4.08c1.44-1.96,2.11-4.38,1.89-6.82c-0.17-1.91-0.88-3.61-1.98-4.81c2.87-1.1,5.97-2.07,9.34-2.85
	c0.1-0.02,0.42-0.06,0.94-0.13c0,0,0,0,0.01,0c6.53,1.04,12.34,4.87,15.96,10.51c0.29,0.46,0.57,0.92,0.82,1.39l-10.84,5.75
	c-0.38,0.2-0.58,0.61-0.52,1.03L665.62,454.3z M631.2,734.52l0.49,9.06c10.47-0.5,19.28-1.41,22.99-1.84
	c0.56-6.34-0.6-8.81-1.29-9.42C643.91,733.81,634.58,734.36,631.2,734.52z M647.13,947.36c-1.05-1.29-2.12-2.44-3.2-3.5
	c-0.08,0.4-0.16,0.8-0.28,1.2c-1,3.44-4.08,5.98-7.66,6.32c-4.3,0.41-8.41,0.56-12.12,0.56c-6.06,0-11.06-0.41-14.11-0.73
	c-2.35-0.25-4.36-1.76-5.24-3.95c-0.5-1.25-0.9-2.55-1.18-3.6c-0.99,0.94-1.95,1.98-2.87,3.11c-1.79,2.21-3.66,3.82-5.5,4.99
	c0.23,0.36,0.51,0.8,0.85,1.28c1.66,2.34,4.28,3.96,7.19,4.44c5.73,0.96,17.55,2.31,32.37,0.62c3.91-0.44,7.47-2.25,10.04-5.07
	c1.32-1.47,2.34-2.92,3.07-4.34c-0.12-0.09-0.25-0.18-0.37-0.28C647.79,948.11,647.45,947.75,647.13,947.36z M609.88,417.53
	c0.16,0,0.32-0.04,0.47-0.11c16.53-8.65,35.73-11.66,39.78-12.22c-1.18-0.46-2.33-0.96-3.44-1.49c-5.79-2.76-10.65-6.43-14.6-10.16
	c-0.56-0.53-1.1-1.06-1.62-1.59c-0.02-0.02-0.05-0.05-0.06-0.07c-6.09,1.58-11.4,5.52-14.82,11.06c-3.84,6.22-6.61,13.14-6.64,13.21
	c-0.15,0.39-0.05,0.83,0.26,1.11C609.4,417.44,609.64,417.53,609.88,417.53z M605.55,941.78c0.23,1,0.71,2.83,1.38,4.51
	c0.52,1.29,1.71,2.18,3.1,2.33c4.83,0.52,14.6,1.23,25.72,0.17c2.53-0.24,4.7-2.03,5.41-4.45c0.24-0.85,0.39-1.7,0.49-2.53
	c-1.6-1.3-3.24-2.39-4.94-3.25c-11.02-5.57-21.37-2.41-28.11,1.23C607.56,940.35,606.54,941.02,605.55,941.78z M619.99,743.81v-9.16
	c-2.78,0.15-9.48,0.49-16.93,0.75l4.66,9.01C613.17,744.59,617.93,744.08,619.99,743.81z M563.39,736.73
	c-0.73,0-1.37-0.01-1.88-0.01l0.49,8.93c2.47,0.02,8.43,0.02,14.68-0.3l-4.36-8.96C569.06,736.66,565.75,736.73,563.39,736.73z
	 M550.21,417.27c-0.51,0.42-1.02,0.84-1.56,1.24c-1.26,0.96-2.61,1.85-4.04,2.65c-0.96,0.54-1.95,1.05-2.98,1.51
	c4.23,0.58,11.12,2.62,11.2,2.64c0.1,0.03,0.19,0.04,0.29,0.04c0.26,0,0.51-0.1,0.7-0.28c0.26-0.26,0.36-0.64,0.26-0.99
	C553.27,421.17,551.36,418.62,550.21,417.27z M513.97,736.39c-0.42,0.36-1.81,2.09-1.21,8.4c4.22,0.3,20.34,1.34,37.53,0.88v-8.9
	c-2.56,0.15-8.45,0.44-15.87,0.44C528.31,737.21,521.17,737.01,513.97,736.39z M530.68,419.32c1.78-2.67,3.52-6.76,3.8-12.71
	c-1.78,3.53-4.69,8.14-9.15,12.23c-0.69,0.64-1.42,1.26-2.18,1.87c1.9,0.09,4.4,0.32,6.11,0.48
	C529.71,420.67,530.2,420.05,530.68,419.32z M494.94,469.97c0.35-0.16,0.76-0.1,1.05,0.14l3.81,3.16c4.01,3.32,8.61,2.72,11.59,1.05
	c2.97-1.67,5.88-5.29,5.13-10.44l-0.45-3.09c-0.06-0.42,0.15-0.83,0.52-1.03l10.39-5.51c-0.03-0.05-0.06-0.09-0.09-0.14
	c-9.18-6.45-17.8-8.99-23.2-9.99c3.05,2.42,3.12,7.63,0.11,11.73c-1.04,1.42-2.32,2.53-3.67,3.28c-1.36,0.75-2.79,1.15-4.16,1.15
	c-1.31,0-2.55-0.36-3.6-1.13c-3.22-2.37-3.35-7.7-0.28-11.89c0.46-0.63,0.97-1.2,1.51-1.69c-4.66,2.68-8.11,6.8-9.96,11.97
	c-2.02,5.66-1.78,11.76,0.69,17.28L494.94,469.97z M504.55,956.7c-1.71,1.01-3.64,1.52-5.61,1.52c-1.49,0-3-0.29-4.46-0.88
	c-7.12-2.85-17.36-2.91-21.43-2.8c-1.04,0.05-2.04-0.46-2.66-1.31s-0.78-1.96-0.42-2.97c0.63-1.77,1.55-3.51,2.46-5.01
	c-1.38,0.91-2.76,1.98-4.13,3.24c-1.48,4.76-1.57,8.29-1.37,10.42c0.12,1.19,1.01,2.19,2.23,2.49c31.63,7.62,41.99-3.29,44.07-6.1
	c-0.91-1.27-1.85-2.42-2.82-3.46C509.03,953.59,507.07,955.22,504.55,956.7z M472.5,951.71c0.06,0.09,0.2,0.21,0.48,0.23
	c5.26-0.14,15.17,0.06,22.46,2.99c2.65,1.06,5.49,0.89,7.79-0.47c2.32-1.36,4.13-2.89,5.31-4.45c-0.85-0.77-1.73-1.46-2.64-2.07
	c-6.3-4.25-17.24-9.53-28.49-5.25c-0.83,1.03-3.67,4.72-4.99,8.44C472.32,951.42,472.44,951.63,472.5,951.71z"/>
<path id="CODE_x5F_71532D" class="st7" d="M712.16,433.98c-4.92-3.63-18.58-11.99-39.28-11.84c-15.56,0.14-30.23,5.5-41.3,15.09
	c-8.16,7.07-12.94,15.02-14.22,23.62c-0.07,0.5,0.24,0.97,0.72,1.11c0.09,0.03,0.18,0.04,0.27,0.04c0.16,0,0.31-0.04,0.45-0.11
	c0.2-0.1,0.37-0.27,0.47-0.49c0.06-0.13,3.38-7.54,12.04-15.06c-2.65,6.58-2.5,14.17,0.44,20.65c0.49,1.09,1.07,2.14,1.72,3.16
	c4.23,6.6,11.06,10.55,18.37,11.44c1.04,0.13,2.1,0.19,3.16,0.19c4.87,0,9.82-1.36,14.25-4.2c11.31-7.25,15.24-21.67,9.51-33.21
	c-0.41-0.82-0.87-1.62-1.37-2.41c-2.88-4.49-7.04-7.93-11.86-9.88c8.41-0.33,22.8,0.43,32.19,8.24c0.15,0.93,0.54,3.51,0.68,5.78
	c0.02,0.35,0.22,0.65,0.52,0.82c0.1,0.05,0.21,0.09,0.32,0.1c0.21,0.04,0.44,0.01,0.64-0.1c0.07-0.04,6.59-3.64,12.28-7.91
	c0.81-0.6,1.28-1.53,1.27-2.54C713.43,435.47,712.96,434.56,712.16,433.98z M675.71,443.04c0.29,0.46,0.57,0.92,0.82,1.39
	c0.33,0.59,0.62,1.19,0.89,1.8c4.6,10.46,0.87,23.17-9.25,29.67c-11.19,7.18-26,4.11-33.02-6.83c-0.42-0.65-0.8-1.32-1.14-2
	c-0.31-0.59-0.58-1.2-0.83-1.82c-2.87-7.1-2.23-15.46,1.93-21.95c0.31-0.23,0.63-0.46,0.96-0.68c1.04-0.74,2.13-1.46,3.29-2.16
	c2.42-1.47,5.09-2.86,8.04-4.12c0.67-0.28,1.36-0.56,2.06-0.83c2.87-1.1,5.97-2.07,9.34-2.85c0.1-0.02,0.42-0.06,0.94-0.13
	c0,0,0,0,0.01,0C666.28,433.57,672.09,437.4,675.71,443.04z M675.1,480.63c3.99-2.02,7.64-4.76,11.08-7.87
	c-2.62,3.82-6.05,7.16-10.09,9.64c-2.01,1.26-4.21,2.21-6.44,3.03c-2.26,0.76-4.6,1.25-6.96,1.56c-4.73,0.56-9.52,0.15-14.08-0.98
	c-4.55-1.13-8.94-2.91-12.79-5.52c4.32,1.64,8.74,2.81,13.19,3.54c0.84,0.13,1.68,0.24,2.52,0.34c1.4,0.17,2.79,0.28,4.18,0.31
	c2.24,0.08,4.47,0.03,6.67-0.27C666.8,483.92,671.09,482.61,675.1,480.63z M618.21,528.9c0.51,0.51,0.51,1.34,0,1.84
	c-5.31,5.31-11.45,7.51-17.75,6.35c-6.16-1.13-12.69-0.59-18.9,1.56c-2.57,0.89-4.98,1.24-7.19,1.24c-8.57,0-14.16-5.32-14.45-5.61
	c-0.52-0.5-0.53-1.32-0.03-1.83c0.5-0.52,1.32-0.53,1.84-0.03c0.33,0.32,8.01,7.56,18.98,3.77c6.63-2.29,13.62-2.87,20.21-1.66
	c5.51,1.02,10.71-0.88,15.46-5.63C616.88,528.4,617.71,528.4,618.21,528.9z M530.67,446.29c-10.64-8.83-26.64-12.65-47.62-11.34
	c-1.2,0.77-2.44,1.53-3.72,2.28c-9.36,5.51-20.79,10.61-34.68,14.51c-0.86,0.25-1.72,0.48-2.6,0.72c-0.21,0.42-0.43,0.87-0.65,1.32
	c-0.68,1.42-0.24,3.1,1.05,4c2.28,1.59,6.99,4.66,12.99,7.48c0.14,0.06,0.28,0.09,0.43,0.09c0.09,0,0.19-0.01,0.28-0.04
	c0.06-0.02,0.13-0.05,0.19-0.08c0.28-0.15,0.47-0.42,0.52-0.73c0.01-0.09,0.34-2.31,0.53-4.87c0.06-0.87,0.44-1.7,1.05-2.33
	c1.44-1.48,13.97-13.66,35.06-13.94c-5.52,2.86-9.62,7.54-11.75,13.51c-2.29,6.43-1.9,13.4,1.13,19.61
	c0.01,0.03,0.03,0.06,0.05,0.09c3.02,6.16,8.27,10.83,14.8,13.16c2.92,1.04,5.94,1.56,8.95,1.56c3.74,0,7.47-0.81,10.94-2.41
	c6.27-2.89,10.99-8.03,13.29-14.47c2.24-6.27,2.21-11.99-0.12-17.35c3.32,2.72,6.66,5.97,9.91,9.87c0.14,0.17,0.32,0.28,0.52,0.33
	c0.08,0.02,0.16,0.03,0.25,0.03c0.13,0,0.26-0.02,0.38-0.07c0.41-0.17,0.66-0.58,0.62-1.02
	C542.43,465.76,541.35,455.16,530.67,446.29z M529.03,473.74c-2.12,5.93-6.47,10.66-12.24,13.32c-5.79,2.67-12.32,2.95-18.38,0.78
	c-5.71-2.03-10.36-6-13.2-11.23c-0.19-0.33-0.36-0.67-0.53-1.01c-0.13-0.26-0.25-0.52-0.35-0.78c-2.47-5.52-2.71-11.62-0.69-17.28
	c1.85-5.17,5.3-9.29,9.96-11.97c1.47-0.85,3.07-1.55,4.77-2.09c0.79,0.03,2.67,0.15,5.32,0.64c5.4,1,14.02,3.54,23.2,9.99
	c0.03,0.05,0.06,0.09,0.09,0.14c0.38,0.57,0.73,1.14,1.04,1.71C531.02,461.4,531.35,467.24,529.03,473.74z M520.54,491.65
	c2.2-0.82,4.33-1.83,6.58-2.65c-1.96,1.32-3.96,2.65-6.06,3.81l-3.24,1.55l-1.64,0.76l-1.7,0.6c-1.14,0.39-2.28,0.78-3.43,1.15
	c-1.16,0.31-2.35,0.55-3.53,0.82l-1.78,0.37l-1.81,0.21c-1.2,0.11-2.41,0.31-3.62,0.34c-4.85,0.2-9.74-0.4-14.37-1.78
	c-4.63-1.37-9.07-3.5-12.7-6.61c4.21,2.2,8.67,3.69,13.2,4.65c1.14,0.22,2.26,0.49,3.41,0.61c1.15,0.13,2.28,0.38,3.44,0.39
	c1.16,0.05,2.3,0.19,3.45,0.21l3.46-0.06c1.15-0.02,2.3-0.19,3.45-0.28l1.72-0.16l1.7-0.31c1.14-0.21,2.29-0.37,3.42-0.61
	c1.12-0.31,2.24-0.6,3.37-0.88l1.7-0.43l1.65-0.58L520.54,491.65z"/>
<path id="CODE_x5F_FFFFFF" class="st8" d="M699.24,447.02c-0.65,3.76-3.62,17.45-13.06,25.74c-3.44,3.11-7.09,5.85-11.08,7.87
	c-4.01,1.98-8.3,3.29-12.72,3.78c-2.2,0.3-4.43,0.35-6.67,0.27c-1.39-0.03-2.78-0.14-4.18-0.31c-0.84-0.1-1.68-0.21-2.52-0.34
	c-4.45-0.73-8.87-1.9-13.19-3.54c-9.65-5.63-15.43-15.58-17.02-18.6c0.2-0.1,0.37-0.27,0.47-0.49c0.06-0.13,3.38-7.54,12.04-15.06
	c-2.65,6.58-2.5,14.17,0.44,20.65c0.49,1.09,1.07,2.14,1.72,3.16c4.23,6.6,11.06,10.55,18.37,11.44c1.04,0.13,2.1,0.19,3.16,0.19
	c4.87,0,9.82-1.36,14.25-4.2c11.31-7.25,15.24-21.67,9.51-33.21c-0.41-0.82-0.87-1.62-1.37-2.41c-2.88-4.49-7.04-7.93-11.86-9.88
	c8.41-0.33,22.8,0.43,32.19,8.24c0.15,0.93,0.54,3.51,0.68,5.78c0.02,0.35,0.22,0.65,0.52,0.82
	C699.02,446.97,699.13,447.01,699.24,447.02z M664.82,605.34c-0.07-0.69-0.14-1.36-0.21-1.99l-3.24,0.26l0.22,2.73l-2.73,0.22
	l0.42,5.27l2.73-0.22l0.22,2.73l3.28-0.26c-0.04-0.68-0.08-1.35-0.12-2C665.22,609.64,665.02,607.37,664.82,605.34z M638.13,450.44
	c1.03,0.75,2.27,1.14,3.6,1.14c0.75,0,1.52-0.12,2.31-0.36c2.1-0.65,4.06-2.1,5.51-4.08c1.44-1.96,2.11-4.38,1.89-6.82
	c-0.17-1.91-0.88-3.61-1.98-4.81c-0.7,0.27-1.39,0.55-2.06,0.83c-2.95,1.26-5.62,2.65-8.04,4.12c-1.16,0.7-2.25,1.42-3.29,2.16
	c-0.29,0.9-0.44,1.8-0.44,2.67C635.63,447.43,636.52,449.26,638.13,450.44z M649,712.15h-5.28v2.73h-2.74v5.29h2.74v2.74H649v-2.74
	h2.74v-5.29H649V712.15z M642.03,631.97v-2.73h2.73v-5.29h-2.73v-2.74h-5.29v2.74H634v5.29h2.74v2.73H642.03z M631.14,586.42
	l-0.43,2.71l-2.7-0.43l-0.83,5.22l2.71,0.42l-0.43,2.71l5.23,0.82l0.43-2.7l2.7,0.42l0.82-5.22l-2.71-0.43l0.43-2.7L631.14,586.42z
	 M629.28,654.83l-2.16,1.68l-1.68-2.17l-4.18,3.24l1.68,2.16l-2.17,1.68l3.24,4.18l2.16-1.68l1.68,2.17l4.18-3.24l-1.68-2.16
	l2.17-1.68L629.28,654.83z M621.55,717.77l-2.69,0.54l-0.54-2.68l-5.18,1.06l0.54,2.68l-2.68,0.55l1.06,5.18l2.68-0.55l0.55,2.68
	l5.18-1.05l-0.55-2.69l2.68-0.54L621.55,717.77z M608.46,677.94l-2.72,0.36l0.69,5.24l2.72-0.36l0.36,2.71l5.24-0.69l-0.36-2.71
	l2.72-0.36l-0.69-5.24l-2.72,0.36l-0.36-2.72l-5.24,0.69L608.46,677.94z M611.48,703.3l-1.72-5l-2.59,0.89l-0.89-2.59l-5,1.72
	l0.89,2.59l-2.59,0.89l1.72,5l2.59-0.89l0.89,2.59l5-1.72l-0.89-2.59L611.48,703.3z M601.6,627.11l2.34-1.43l1.43,2.33l4.5-2.77
	l-1.43-2.33l2.33-1.43l-2.76-4.51l-2.34,1.43l-1.43-2.33l-4.5,2.76l1.43,2.34l-2.34,1.43L601.6,627.11z M598.42,654.23l-2.72,0.34
	l-0.35-2.71l-5.24,0.67l0.34,2.72l-2.71,0.34l0.67,5.25l2.72-0.35l0.35,2.72l5.24-0.68l-0.35-2.72l2.72-0.34L598.42,654.23z
	 M580.56,681.93h-5.29v2.74h-2.74v5.29h2.74v2.74h5.29v-2.74h2.74v-5.29h-2.74V681.93z M582.03,724.09
	c0.07,0.66,0.16,1.32,0.25,1.98l-3.55,0.21l-0.15-2.73l-2.74,0.15l-0.3-5.28l2.73-0.15l-0.15-2.74l3.18-0.18
	c0.03,0.66,0.08,1.32,0.12,1.99C581.57,719.57,581.77,721.84,582.03,724.09z M573.63,639.81h5.29v-2.74h1.27
	c0.22-1.84,0.49-3.6,0.79-5.28h-2.06v-2.74h-5.29v2.74h-2.74v5.28h2.74V639.81z M567.48,659.21h-5.29v2.74h-2.74v5.29h2.74v2.74
	h5.29v-2.74h2.74v-5.29h-2.74V659.21z M557.15,720.25l-2.6,0.86l-0.86-2.6l-5.02,1.64l0.86,2.61l-2.61,0.85l1.65,5.02l2.6-0.85
	l0.86,2.6l5.02-1.64l-0.86-2.61l2.61-0.85L557.15,720.25z M530.79,457.06c2.33,5.36,2.36,11.08,0.12,17.35
	c-2.3,6.44-7.02,11.58-13.29,14.47c-3.47,1.6-7.2,2.41-10.94,2.41c-3.01,0-6.03-0.52-8.95-1.56c-6.53-2.33-11.78-7-14.8-13.16
	c-0.02-0.03-0.04-0.06-0.05-0.09c-3.03-6.21-3.42-13.18-1.13-19.61c2.13-5.97,6.23-10.65,11.75-13.51
	c-21.09,0.28-33.62,12.46-35.06,13.94c-0.61,0.63-0.99,1.46-1.05,2.33c-0.19,2.56-0.52,4.78-0.53,4.87
	c-0.05,0.31-0.24,0.58-0.52,0.73c-0.06,0.03-0.13,0.06-0.19,0.08c1.06,3.49,5.49,15.78,17.09,24.91c4.21,2.2,8.67,3.69,13.2,4.65
	c1.14,0.22,2.26,0.49,3.41,0.61c1.15,0.13,2.28,0.38,3.44,0.39c1.16,0.05,2.3,0.19,3.45,0.21l3.46-0.06
	c1.15-0.02,2.3-0.19,3.45-0.28l1.72-0.16l1.7-0.31c1.14-0.21,2.29-0.37,3.42-0.61c1.12-0.31,2.24-0.6,3.37-0.88l1.7-0.43l1.65-0.58
	l3.33-1.12c2.2-0.82,4.33-1.83,6.58-2.65c9.5-7.42,13.17-18.43,14.1-21.74c-0.2-0.05-0.38-0.16-0.52-0.33
	C537.45,463.03,534.11,459.78,530.79,457.06z M530.99,649.41l-5.15-1.19l-0.61,2.67l-2.67-0.62l-1.19,5.15l2.67,0.62l-0.62,2.67
	l5.15,1.19l0.62-2.68l2.67,0.62l1.19-5.15l-2.67-0.62L530.99,649.41z M524.51,620.84l-0.61,2.67l-2.67-0.62l-1.19,5.16l2.67,0.62
	l-0.62,2.66l5.16,1.19l0.62-2.67l2.66,0.61l1.19-5.15l-2.66-0.61l0.61-2.67L524.51,620.84z M519.17,680.72l2.7-0.48l-0.92-5.21
	l-2.69,0.48l-0.48-2.7l-5.21,0.92l0.48,2.69l-2.7,0.48l0.92,5.21l2.69-0.48l0.48,2.7l5.21-0.92L519.17,680.72z M492.37,459.15
	c1.05,0.77,2.29,1.13,3.6,1.13c1.37,0,2.8-0.4,4.16-1.15c1.35-0.75,2.63-1.86,3.67-3.28c3.01-4.1,2.94-9.31-0.11-11.73
	c-2.65-0.49-4.53-0.61-5.32-0.64c-1.7,0.54-3.3,1.24-4.77,2.09c-0.54,0.49-1.05,1.06-1.51,1.69
	C489.02,451.45,489.15,456.78,492.37,459.15z M555.55,650.6l-1.23,2.45l2.6,1.31c0.34-0.59,0.67-1.17,0.99-1.75
	c1.16-2.09,2.18-4.1,3.07-6.03c0.29-0.62,0.56-1.23,0.83-1.82l-2.67-1.34l-1.22,2.45l-2.45-1.22l-2.37,4.72L555.55,650.6z
	 M522.94,728.16l-5.29-0.14l-0.07,2.74l-2.73-0.07l-0.09,3.15c0.67,0.06,1.34,0.12,2,0.17c2.28,0.16,4.55,0.29,6.76,0.38
	c0.68,0.03,1.34,0.05,2,0.08l0.09-3.5l-2.74-0.07L522.94,728.16z M514.3,597.65l0.81-2.62l2.62,0.81l1.56-5.05l-2.62-0.81l0.81-2.61
	l-5.05-1.56l-0.81,2.62l-2.62-0.81l-1.56,5.05l2.62,0.81l-0.81,2.62L514.3,597.65z M504.71,619.65l-2.65,0.7l-0.7-2.65l-5.11,1.35
	l0.7,2.65l-2.65,0.7l1.35,5.11l2.64-0.7l0.7,2.65l5.12-1.35l-0.7-2.65l2.65-0.7L504.71,619.65z M654.67,648.86l-5.18-1.04
	l-0.54,2.68l-2.69-0.53l-1.04,5.18l2.68,0.54l-0.54,2.69l5.19,1.04l0.54-2.69l2.68,0.54l1.04-5.18l-2.68-0.54L654.67,648.86z
	 M651.24,689.19l-5.26-0.6l-0.31,2.72l-2.72-0.31l-0.59,5.26l2.72,0.31l-0.31,2.72l5.25,0.59l0.31-2.72h0.01l2.71,0.31l0.6-5.26
	l-2.72-0.31L651.24,689.19z M549.12,607.06l0.92-2.58l2.58,0.92l1.14-3.2c-0.66-0.09-1.32-0.2-2-0.34c-2.04-0.42-4.19-1.1-6.42-2.12
	c-0.6-0.28-1.2-0.58-1.81-0.91l-1.05,2.96l2.58,0.92l-0.92,2.58L549.12,607.06z"/>
<path id="CODE_x5F_7AAC70" class="st9" d="M812.3,319.75c0.15,1.99,3.43,48.97-23.88,60.29c-1.76,9.22-5.17,17.48-10.17,24.67
	c0.7,5.02,5.56,49.23-35.43,71.16c0.05,1.35,0.12,2.7,0.2,4.08c0.77,13.18-2.35,25.9-9.03,36.78
	c-10.76,17.54-31.54,38.03-71.6,50.84c4.03,2.15,11.35,6.56,17.28,12.96c4.76,5.14,7.78,11.67,8.73,18.9
	c1.62,12.34,4.38,43.59-5.09,67.24c-0.83,2.07-1.86,4.05-3.05,5.9c0.16,1.9,0.75,9.77,0.63,17.61c-0.11,6.73,0.4,13.3,1.5,19.51
	c1.49,8.44,1.77,14.95,0.85,19.43c2.72,2.98,2.14,11.34,1.95,13.36c3.41,41.85-5.01,91.37-8.8,110.73
	c-0.88,4.52-1.12,9.16-0.72,13.77c3.81,43.72,2.81,69.18,2.2,78.1c-0.12,1.88-1.29,3.49-3.04,4.2c-0.74,0.3-1.5,0.4-2.25,0.34
	c-0.84,1.71-2.03,3.43-3.59,5.15c-2.99,3.3-7.13,5.4-11.66,5.91c-5.22,0.6-10.08,0.82-14.44,0.82c-4.05,0-7.68-0.19-10.78-0.47
	c1.17-0.1,2.36-0.21,3.57-0.35c4.53-0.51,8.67-2.61,11.66-5.91c1.56-1.72,2.75-3.44,3.59-5.15c0.75,0.06,1.51-0.04,2.25-0.34
	c1.75-0.71,2.92-2.32,3.04-4.2c0.61-8.92,1.61-34.38-2.2-78.1c-0.4-4.61-0.16-9.25,0.72-13.77c3.79-19.36,12.21-68.88,8.8-110.73
	c0.19-2.02,0.77-10.38-1.95-13.36c0.92-4.48,0.64-10.99-0.85-19.43c-1.1-6.21-1.61-12.78-1.5-19.51c0.12-7.84-0.47-15.71-0.63-17.61
	c1.19-1.85,2.22-3.83,3.05-5.9c9.47-23.65,6.71-54.9,5.09-67.24c-0.95-7.23-3.97-13.76-8.73-18.9c-5.93-6.4-13.25-10.81-17.28-12.96
	c40.06-12.81,60.84-33.3,71.6-50.84c6.68-10.88,9.8-23.6,9.03-36.78c-0.08-1.38-0.15-2.73-0.2-4.08
	c40.99-21.93,36.13-66.14,35.43-71.16c5-7.19,8.41-15.45,10.17-24.67c27.31-11.32,24.03-58.3,23.88-60.29
	c-0.41-7.38-1.21-14.06-2.28-20.13c9.66-21.05,0.23-49.59-27.32-82.58c-20.77-24.87-44.77-43.82-45.01-44
	c-46.96-37.32-82.53-50.17-107.46-53c0.82-0.1,1.65-0.2,2.5-0.28c24.27-2.31,65.93,5.06,126.61,53.28
	c0.24,0.18,24.24,19.13,45.01,44c27.55,32.99,36.98,61.53,27.32,82.58C811.09,305.69,811.89,312.37,812.3,319.75z M574.14,825.18
	c-15.1,19.58-34.19,57.02-39.4,124.22c-0.47,6.12-5.1,11-11,11.61c-0.39,0.04-0.77,0.06-1.15,0.06c-2.97,0-5.6-1.25-7.72-3.63
	c-1.86,2.28-6.39,6.43-15.55,8.28c4.3,0.66,8.16,0.95,11.59,0.95c16.14,0,23.16-6.23,25.61-9.23c2.12,2.38,4.75,3.63,7.72,3.63
	c0.38,0,0.76-0.02,1.15-0.06c5.9-0.61,10.53-5.49,11-11.61c4.32-55.73,18.19-90.98,31.41-112.56c-1.68-9.63-3.85-18-4.88-21.76
	C580.08,817.96,577.13,821.31,574.14,825.18z"/>
</svg>
