  0
SECTION
  2
HEADER
  9
$ACADVER
  1
AC1024
  9
$ACADMAINTVER
 70
     6
  9
$DWGCODEPAGE
  3
ANSI_1252
  9
$INSBASE
 10
0.0
 20
0.0
 30
0.0
  9
$EXTMIN
 10
1.000000000000000E+20
 20
1.000000000000000E+20
 30
1.000000000000000E+20
  9
$EXTMAX
 10
-1.000000000000000E+20
 20
-1.000000000000000E+20
 30
-1.000000000000000E+20
  9
$LIMMIN
 10
0.0
 20
0.0
  9
$LIMMAX
 10
12.0
 20
9.0
  9
$ORTHOMODE
 70
     0
  9
$REGENMODE
 70
     1
  9
$FILLMODE
 70
     1
  9
$QTEXTMODE
 70
     0
  9
$MIRRTEXT
 70
     1
  9
$LTSCALE
 40
1.0
  9
$ATTMODE
 70
     1
  9
$TEXTSIZE
 40
0.2
  9
$TRACEWID
 40
0.05
  9
$TEXTSTYLE
  7
Standard
  9
$CLAYER
  8
0
  9
$CELTYPE
  6
ByLayer
  9
$CECOLOR
 62
   256
  9
$CELTSCALE
 40
1.0
  9
$DISPSILH
 70
     0
  9
$DIMSCALE
 40
1.0
  9
$DIMASZ
 40
0.18
  9
$DIMEXO
 40
0.0625
  9
$DIMDLI
 40
0.38
  9
$DIMRND
 40
0.0
  9
$DIMDLE
 40
0.0
  9
$DIMEXE
 40
0.18
  9
$DIMTP
 40
0.0
  9
$DIMTM
 40
0.0
  9
$DIMTXT
 40
0.18
  9
$DIMCEN
 40
0.09
  9
$DIMTSZ
 40
0.0
  9
$DIMTOL
 70
     0
  9
$DIMLIM
 70
     0
  9
$DIMTIH
 70
     1
  9
$DIMTOH
 70
     1
  9
$DIMSE1
 70
     0
  9
$DIMSE2
 70
     0
  9
$DIMTAD
 70
     0
  9
$DIMZIN
 70
     0
  9
$DIMBLK
  1

  9
$DIMASO
 70
     1
  9
$DIMSHO
 70
     1
  9
$DIMPOST
  1

  9
$DIMAPOST
  1

  9
$DIMALT
 70
     0
  9
$DIMALTD
 70
     2
  9
$DIMALTF
 40
25.4
  9
$DIMLFAC
 40
1.0
  9
$DIMTOFL
 70
     0
  9
$DIMTVP
 40
0.0
  9
$DIMTIX
 70
     0
  9
$DIMSOXD
 70
     0
  9
$DIMSAH
 70
     0
  9
$DIMBLK1
  1

  9
$DIMBLK2
  1

  9
$DIMSTYLE
  2
Standard
  9
$DIMCLRD
 70
     0
  9
$DIMCLRE
 70
     0
  9
$DIMCLRT
 70
     0
  9
$DIMTFAC
 40
1.0
  9
$DIMGAP
 40
0.09
  9
$DIMJUST
 70
     0
  9
$DIMSD1
 70
     0
  9
$DIMSD2
 70
     0
  9
$DIMTOLJ
 70
     1
  9
$DIMTZIN
 70
     0
  9
$DIMALTZ
 70
     0
  9
$DIMALTTZ
 70
     0
  9
$DIMUPT
 70
     0
  9
$DIMDEC
 70
     4
  9
$DIMTDEC
 70
     4
  9
$DIMALTU
 70
     2
  9
$DIMALTTD
 70
     2
  9
$DIMTXSTY
  7
Standard
  9
$DIMAUNIT
 70
     0
  9
$DIMADEC
 70
     0
  9
$DIMALTRND
 40
0.0
  9
$DIMAZIN
 70
     0
  9
$DIMDSEP
 70
    46
  9
$DIMATFIT
 70
     3
  9
$DIMFRAC
 70
     0
  9
$DIMLDRBLK
  1

  9
$DIMLUNIT
 70
     2
  9
$DIMLWD
 70
    -2
  9
$DIMLWE
 70
    -2
  9
$DIMTMOVE
 70
     0
  9
$DIMFXL
 40
1.0
  9
$DIMFXLON
 70
     0
  9
$DIMJOGANG
 40
0.7853981633974483
  9
$DIMTFILL
 70
     0
  9
$DIMTFILLCLR
 70
     0
  9
$DIMARCSYM
 70
     0
  9
$DIMLTYPE
  6

  9
$DIMLTEX1
  6

  9
$DIMLTEX2
  6

  9
$DIMTXTDIRECTION
 70
     0
  9
$LUNITS
 70
     2
  9
$LUPREC
 70
     4
  9
$SKETCHINC
 40
0.1
  9
$FILLETRAD
 40
0.5
  9
$AUNITS
 70
     0
  9
$AUPREC
 70
     0
  9
$MENU
  1
.
  9
$ELEVATION
 40
0.0
  9
$PELEVATION
 40
0.0
  9
$THICKNESS
 40
0.0
  9
$LIMCHECK
 70
     0
  9
$CHAMFERA
 40
0.5
  9
$CHAMFERB
 40
0.5
  9
$CHAMFERC
 40
1.0
  9
$CHAMFERD
 40
0.0
  9
$SKPOLY
 70
     0
  9
$TDCREATE
 40
2459346.799953125
  9
$TDUCREATE
 40
2459347.008286458
  9
$TDUPDATE
 40
2459346.799953137
  9
$TDUUPDATE
 40
2459347.00828647
  9
$TDINDWG
 40
0.0000000116
  9
$TDUSRTIMER
 40
0.0000000116
  9
$USRTIMER
 70
     1
  9
$ANGBASE
 50
0.0
  9
$ANGDIR
 70
     0
  9
$PDMODE
 70
     0
  9
$PDSIZE
 40
0.0
  9
$PLINEWID
 40
0.0
  9
$SPLFRAME
 70
     0
  9
$SPLINETYPE
 70
     6
  9
$SPLINESEGS
 70
     8
  9
$HANDSEED
  5
45
  9
$SURFTAB1
 70
     6
  9
$SURFTAB2
 70
     6
  9
$SURFTYPE
 70
     6
  9
$SURFU
 70
     6
  9
$SURFV
 70
     6
  9
$UCSBASE
  2

  9
$UCSNAME
  2

  9
$UCSORG
 10
0.0
 20
0.0
 30
0.0
  9
$UCSXDIR
 10
1.0
 20
0.0
 30
0.0
  9
$UCSYDIR
 10
0.0
 20
1.0
 30
0.0
  9
$UCSORTHOREF
  2

  9
$UCSORTHOVIEW
 70
     0
  9
$UCSORGTOP
 10
0.0
 20
0.0
 30
0.0
  9
$UCSORGBOTTOM
 10
0.0
 20
0.0
 30
0.0
  9
$UCSORGLEFT
 10
0.0
 20
0.0
 30
0.0
  9
$UCSORGRIGHT
 10
0.0
 20
0.0
 30
0.0
  9
$UCSORGFRONT
 10
0.0
 20
0.0
 30
0.0
  9
$UCSORGBACK
 10
0.0
 20
0.0
 30
0.0
  9
$PUCSBASE
  2

  9
$PUCSNAME
  2

  9
$PUCSORG
 10
0.0
 20
0.0
 30
0.0
  9
$PUCSXDIR
 10
1.0
 20
0.0
 30
0.0
  9
$PUCSYDIR
 10
0.0
 20
1.0
 30
0.0
  9
$PUCSORTHOREF
  2

  9
$PUCSORTHOVIEW
 70
     0
  9
$PUCSORGTOP
 10
0.0
 20
0.0
 30
0.0
  9
$PUCSORGBOTTOM
 10
0.0
 20
0.0
 30
0.0
  9
$PUCSORGLEFT
 10
0.0
 20
0.0
 30
0.0
  9
$PUCSORGRIGHT
 10
0.0
 20
0.0
 30
0.0
  9
$PUCSORGFRONT
 10
0.0
 20
0.0
 30
0.0
  9
$PUCSORGBACK
 10
0.0
 20
0.0
 30
0.0
  9
$USERI1
 70
     0
  9
$USERI2
 70
     0
  9
$USERI3
 70
     0
  9
$USERI4
 70
     0
  9
$USERI5
 70
     0
  9
$USERR1
 40
0.0
  9
$USERR2
 40
0.0
  9
$USERR3
 40
0.0
  9
$USERR4
 40
0.0
  9
$USERR5
 40
0.0
  9
$WORLDVIEW
 70
     1
  9
$SHADEDGE
 70
     3
  9
$SHADEDIF
 70
    70
  9
$TILEMODE
 70
     1
  9
$MAXACTVP
 70
    64
  9
$PINSBASE
 10
0.0
 20
0.0
 30
0.0
  9
$PLIMCHECK
 70
     0
  9
$PEXTMIN
 10
1.000000000000000E+20
 20
1.000000000000000E+20
 30
1.000000000000000E+20
  9
$PEXTMAX
 10
-1.000000000000000E+20
 20
-1.000000000000000E+20
 30
-1.000000000000000E+20
  9
$PLIMMIN
 10
0.0
 20
0.0
  9
$PLIMMAX
 10
12.0
 20
9.0
  9
$UNITMODE
 70
     0
  9
$VISRETAIN
 70
     1
  9
$PLINEGEN
 70
     0
  9
$PSLTSCALE
 70
     1
  9
$TREEDEPTH
 70
  3020
  9
$CMLSTYLE
  2
Standard
  9
$CMLJUST
 70
     0
  9
$CMLSCALE
 40
1.0
  9
$PROXYGRAPHICS
 70
     1
  9
$MEASUREMENT
 70
     0
  9
$CELWEIGHT
370
    -1
  9
$ENDCAPS
280
     0
  9
$JOINSTYLE
280
     0
  9
$LWDISPLAY
290
     1
  9
$INSUNITS
 70
     0
  9
$HYPERLINKBASE
  1

  9
$STYLESHEET
  1

  9
$XEDIT
290
     1
  9
$CEPSNTYPE
380
     0
  9
$PSTYLEMODE
290
     1
  9
$FINGERPRINTGUID
  2
{0B59B391-6B24-4FE8-89A2-7BB56BA10AFD}
  9
$VERSIONGUID
  2
{FAEB1C32-E019-11D5-929B-00C0DF256EC4}
  9
$EXTNAMES
290
     1
  9
$PSVPSCALE
 40
0.0
  9
$OLESTARTUP
290
     0
  9
$SORTENTS
280
   127
  9
$INDEXCTL
280
     0
  9
$HIDETEXT
280
     1
  9
$XCLIPFRAME
280
     2
  9
$HALOGAP
280
     0
  9
$OBSCOLOR
 70
   257
  9
$OBSLTYPE
280
     0
  9
$INTERSECTIONDISPLAY
280
     0
  9
$INTERSECTIONCOLOR
 70
   257
  9
$DIMASSOC
280
     2
  9
$PROJECTNAME
  1

  9
$CAMERADISPLAY
290
     0
  9
$LENSLENGTH
 40
50.0
  9
$CAMERAHEIGHT
 40
0.0
  9
$STEPSPERSEC
 40
2.0
  9
$STEPSIZE
 40
6.0
  9
$3DDWFPREC
 40
2.0
  9
$PSOLWIDTH
 40
0.25
  9
$PSOLHEIGHT
 40
4.0
  9
$LOFTANG1
 40
1.570796326794897
  9
$LOFTANG2
 40
1.570796326794897
  9
$LOFTMAG1
 40
0.0
  9
$LOFTMAG2
 40
0.0
  9
$LOFTPARAM
 70
     7
  9
$LOFTNORMALS
280
     1
  9
$LATITUDE
 40
37.795
  9
$LONGITUDE
 40
-122.394
  9
$NORTHDIRECTION
 40
0.0
  9
$TIMEZONE
 70
 -8000
  9
$LIGHTGLYPHDISPLAY
280
     1
  9
$TILEMODELIGHTSYNCH
280
     1
  9
$CMATERIAL
347
3C
  9
$SOLIDHIST
280
     1
  9
$SHOWHIST
280
     1
  9
$DWFFRAME
280
     2
  9
$DGNFRAME
280
     2
  9
$REALWORLDSCALE
290
     1
  9
$INTERFERECOLOR
 62
   256
  9
$CSHADOW
280
     0
  9
$SHADOWPLANELOCATION
 40
0.0
  0
ENDSEC
  0
SECTION
  2
CLASSES
  0
CLASS
  1
ACDBDICTIONARYWDFLT
  2
AcDbDictionaryWithDefault
  3
ObjectDBX Classes
 90
        0
 91
        4
280
     0
281
     0
  0
CLASS
  1
VISUALSTYLE
  2
AcDbVisualStyle
  3
ObjectDBX Classes
 90
     4095
 91
        4
280
     0
281
     0
  0
CLASS
  1
MATERIAL
  2
AcDbMaterial
  3
ObjectDBX Classes
 90
     1153
 91
        4
280
     0
281
     0
  0
CLASS
  1
SUN
  2
AcDbSun
  3
SCENEOE
 90
     1024
 91
        4
280
     0
281
     0
  0
ENDSEC
  0
SECTION
  2
TABLES
  0
TABLE
  2
VPORT
  5
8
330
0
100
AcDbSymbolTable
 70
     1
  0
VPORT
  5
29
330
8
100
AcDbSymbolTableRecord
100
AcDbViewportTableRecord
  2
*Active
 70
     0
 10
0.0
 20
0.0
 11
1.0
 21
1.0
 12
0.0
 22
0.0
 13
0.0
 23
0.0
 14
0.5
 24
0.5
 15
0.5
 25
0.5
 16
0.0
 26
0.0
 36
1.0
 17
540.0
 27
-540.0
 37
0.0
 40
1080.0
 41
1.0
 42
50.0
 43
0.0
 44
0.0
 50
0.0
 51
0.0
 71
     0
 72
   100
 73
     1
 74
     3
 75
     0
 76
     0
 77
     0
 78
     0
281
     0
 65
     1
110
0.0
120
0.0
130
0.0
111
1.0
121
0.0
131
0.0
112
0.0
122
1.0
132
0.0
 79
     0
146
0.0
 60
     3
 61
     5
292
     1
282
     1
141
0.0
142
0.0
 63
   250
361
3F
  0
ENDTAB
  0
TABLE
  2
LTYPE
  5
5
330
0
100
AcDbSymbolTable
 70
     1
  0
LTYPE
  5
14
330
5
100
AcDbSymbolTableRecord
100
AcDbLinetypeTableRecord
  2
ByBlock
 70
     0
  3

 72
    65
 73
     0
 40
0.0
  0
LTYPE
  5
15
330
5
100
AcDbSymbolTableRecord
100
AcDbLinetypeTableRecord
  2
ByLayer
 70
     0
  3

 72
    65
 73
     0
 40
0.0
  0
LTYPE
  5
16
330
5
100
AcDbSymbolTableRecord
100
AcDbLinetypeTableRecord
  2
Continuous
 70
     0
  3
Solid line
 72
    65
 73
     0
 40
0.0
  0
ENDTAB
  0
TABLE
  2
LAYER
  5
2
330
0
100
AcDbSymbolTable
 70
     2
  0
LAYER
  5
10
330
2
100
AcDbSymbolTableRecord
100
AcDbLayerTableRecord
  2
0
 70
     0
 62
     7
  6
Continuous
370
    -3
390
F
347
3E
  0
LAYER
  5
40
330
2
100
AcDbSymbolTableRecord
100
AcDbLayerTableRecord
  2
SUGA_LIGHT BLUE
 70
     0
 62
     7
  6
Continuous
370
    -3
390
F
347
3E
  0
ENDTAB
  0
TABLE
  2
STYLE
  5
3
330
0
100
AcDbSymbolTable
 70
     1
  0
STYLE
  5
11
330
3
100
AcDbSymbolTableRecord
100
AcDbTextStyleTableRecord
  2
Standard
 70
     0
 40
0.0
 41
1.0
 50
0.0
 71
     0
 42
0.2
  3
txt
  4

  0
ENDTAB
  0
TABLE
  2
VIEW
  5
6
330
0
100
AcDbSymbolTable
 70
     0
  0
ENDTAB
  0
TABLE
  2
UCS
  5
7
330
0
100
AcDbSymbolTable
 70
     0
  0
ENDTAB
  0
TABLE
  2
APPID
  5
9
330
0
100
AcDbSymbolTable
 70
     1
  0
APPID
  5
12
330
9
100
AcDbSymbolTableRecord
100
AcDbRegAppTableRecord
  2
ACAD
 70
     0
  0
ENDTAB
  0
TABLE
  2
DIMSTYLE
  5
A
330
0
100
AcDbSymbolTable
 70
     1
100
AcDbDimStyleTable
  0
DIMSTYLE
105
27
330
A
100
AcDbSymbolTableRecord
100
AcDbDimStyleTableRecord
  2
Standard
 70
     0
178
     0
340
11
  0
ENDTAB
  0
TABLE
  2
BLOCK_RECORD
  5
1
330
0
100
AcDbSymbolTable
 70
     1
  0
BLOCK_RECORD
  5
1F
330
1
100
AcDbSymbolTableRecord
100
AcDbBlockTableRecord
  2
*Model_Space
340
22
 70
     0
280
     1
281
     0
  0
BLOCK_RECORD
  5
1B
330
1
100
AcDbSymbolTableRecord
100
AcDbBlockTableRecord
  2
*Paper_Space
340
1E
 70
     0
280
     1
281
     0
  0
BLOCK_RECORD
  5
23
330
1
100
AcDbSymbolTableRecord
100
AcDbBlockTableRecord
  2
*Paper_Space0
340
26
 70
     0
280
     1
281
     0
  0
ENDTAB
  0
ENDSEC
  0
SECTION
  2
BLOCKS
  0
BLOCK
  5
20
330
1F
100
AcDbEntity
  8
0
100
AcDbBlockBegin
  2
*Model_Space
 70
     0
 10
0.0
 20
0.0
 30
0.0
  3
*Model_Space
  1

  0
ENDBLK
  5
21
330
1F
100
AcDbEntity
  8
0
100
AcDbBlockEnd
  0
BLOCK
  5
1C
330
1B
100
AcDbEntity
 67
     1
  8
0
100
AcDbBlockBegin
  2
*Paper_Space
 70
     0
 10
0.0
 20
0.0
 30
0.0
  3
*Paper_Space
  1

  0
ENDBLK
  5
1D
330
1B
100
AcDbEntity
 67
     1
  8
0
100
AcDbBlockEnd
  0
BLOCK
  5
24
330
23
100
AcDbEntity
  8
0
100
AcDbBlockBegin
  2
*Paper_Space0
 70
     0
 10
0.0
 20
0.0
 30
0.0
  3
*Paper_Space0
  1

  0
ENDBLK
  5
25
330
23
100
AcDbEntity
  8
0
100
AcDbBlockEnd
  0
ENDSEC
  0
SECTION
  2
ENTITIES
  0
SPLINE
  5
41
330
1F
100
AcDbEntity
  8
SUGA_LIGHT BLUE
370
     0
100
AcDbSpline
210
0.0
220
0.0
230
1.0
 70
    11
 71
     3
 72
   275
 73
   271
 74
     0
 42
0.0000000001
 43
0.0000000001
 12
1.0
 22
0.0
 32
0.0
 13
1.0
 23
0.0
 33
0.0
 40
0.0
 40
0.0
 40
0.0
 40
0.0
 40
1.0
 40
1.0
 40
1.0
 40
2.0
 40
2.0
 40
2.0
 40
3.0
 40
3.0
 40
3.0
 40
4.0
 40
4.0
 40
4.0
 40
5.0
 40
5.0
 40
5.0
 40
6.0
 40
6.0
 40
6.0
 40
7.0
 40
7.0
 40
7.0
 40
8.0
 40
8.0
 40
8.0
 40
9.0
 40
9.0
 40
9.0
 40
10.0
 40
10.0
 40
10.0
 40
11.0
 40
11.0
 40
11.0
 40
12.0
 40
12.0
 40
12.0
 40
13.0
 40
13.0
 40
13.0
 40
14.0
 40
14.0
 40
14.0
 40
15.0
 40
15.0
 40
15.0
 40
16.0
 40
16.0
 40
16.0
 40
17.0
 40
17.0
 40
17.0
 40
18.0
 40
18.0
 40
18.0
 40
19.0
 40
19.0
 40
19.0
 40
20.0
 40
20.0
 40
20.0
 40
21.0
 40
21.0
 40
21.0
 40
22.0
 40
22.0
 40
22.0
 40
23.0
 40
23.0
 40
23.0
 40
24.0
 40
24.0
 40
24.0
 40
25.0
 40
25.0
 40
25.0
 40
26.0
 40
26.0
 40
26.0
 40
27.0
 40
27.0
 40
27.0
 40
28.0
 40
28.0
 40
28.0
 40
29.0
 40
29.0
 40
29.0
 40
30.0
 40
30.0
 40
30.0
 40
31.0
 40
31.0
 40
31.0
 40
32.0
 40
32.0
 40
32.0
 40
33.0
 40
33.0
 40
33.0
 40
34.0
 40
34.0
 40
34.0
 40
35.0
 40
35.0
 40
35.0
 40
36.0
 40
36.0
 40
36.0
 40
37.0
 40
37.0
 40
37.0
 40
38.0
 40
38.0
 40
38.0
 40
39.0
 40
39.0
 40
39.0
 40
40.0
 40
40.0
 40
40.0
 40
41.0
 40
41.0
 40
41.0
 40
42.0
 40
42.0
 40
42.0
 40
43.0
 40
43.0
 40
43.0
 40
44.0
 40
44.0
 40
44.0
 40
45.0
 40
45.0
 40
45.0
 40
46.0
 40
46.0
 40
46.0
 40
47.0
 40
47.0
 40
47.0
 40
48.0
 40
48.0
 40
48.0
 40
49.0
 40
49.0
 40
49.0
 40
50.0
 40
50.0
 40
50.0
 40
51.0
 40
51.0
 40
51.0
 40
52.0
 40
52.0
 40
52.0
 40
53.0
 40
53.0
 40
53.0
 40
54.0
 40
54.0
 40
54.0
 40
55.0
 40
55.0
 40
55.0
 40
56.0
 40
56.0
 40
56.0
 40
57.0
 40
57.0
 40
57.0
 40
58.0
 40
58.0
 40
58.0
 40
59.0
 40
59.0
 40
59.0
 40
60.0
 40
60.0
 40
60.0
 40
61.0
 40
61.0
 40
61.0
 40
62.0
 40
62.0
 40
62.0
 40
63.0
 40
63.0
 40
63.0
 40
64.0
 40
64.0
 40
64.0
 40
65.0
 40
65.0
 40
65.0
 40
66.0
 40
66.0
 40
66.0
 40
67.0
 40
67.0
 40
67.0
 40
68.0
 40
68.0
 40
68.0
 40
69.0
 40
69.0
 40
69.0
 40
70.0
 40
70.0
 40
70.0
 40
71.0
 40
71.0
 40
71.0
 40
72.0
 40
72.0
 40
72.0
 40
73.0
 40
73.0
 40
73.0
 40
74.0
 40
74.0
 40
74.0
 40
75.0
 40
75.0
 40
75.0
 40
76.0
 40
76.0
 40
76.0
 40
77.0
 40
77.0
 40
77.0
 40
78.0
 40
78.0
 40
78.0
 40
79.0
 40
79.0
 40
79.0
 40
80.0
 40
80.0
 40
80.0
 40
81.0
 40
81.0
 40
81.0
 40
82.0
 40
82.0
 40
82.0
 40
83.0
 40
83.0
 40
83.0
 40
84.0
 40
84.0
 40
84.0
 40
85.0
 40
85.0
 40
85.0
 40
86.0
 40
86.0
 40
86.0
 40
87.0
 40
87.0
 40
87.0
 40
88.0
 40
88.0
 40
88.0
 40
89.0
 40
89.0
 40
89.0
 40
90.0
 40
90.0
 40
90.0
 40
90.0
 10
745.969970703125
 20
-858.6199951171875
 30
0.0
 10
745.969970703125
 20
-858.6099853515625
 30
0.0
 10
745.969970703125
 20
-858.6099853515625
 30
0.0
 10
745.9600219726562
 20
-858.6099853515625
 30
0.0
 10
744.6199951171875
 20
-855.3599853515625
 30
0.0
 10
743.3300170898438
 20
-852.3399658203125
 30
0.0
 10
742.1599731445312
 20
-849.6499633789062
 30
0.0
 10
737.260009765625
 20
-838.4400024414062
 30
0.0
 10
733.4000244140625
 20
-826.760009765625
 30
0.0
 10
730.6900024414062
 20
-814.9500122070312
 30
0.0
 10
724.0599975585938
 20
-786.0700073242188
 30
0.0
 10
719.97998046875
 20
-756.4500122070312
 30
0.0
 10
717.7000122070312
 20
-736.2699584960938
 30
0.0
 10
736.9299926757812
 20
-723.7899780273438
 30
0.0
 10
747.3800048828125
 20
-711.3599853515625
 30
0.0
 10
748.7100219726562
 20
-699.3299560546875
 30
0.0
 10
749.7899780273438
 20
-689.5599975585938
 30
0.0
 10
744.2999877929688
 20
-683.8800048828125
 30
0.0
 10
744.0700073242188
 20
-683.6499633789062
 30
0.0
 10
744.0700073242188
 20
-683.6499633789062
 30
0.0
 10
744.0700073242188
 20
-683.6400146484375
 30
0.0
 10
744.0700073242188
 20
-683.6400146484375
 30
0.0
 10
744.0399780273438
 20
-683.6199951171875
 30
0.0
 10
744.010009765625
 20
-683.6099853515625
 30
0.0
 10
743.989990234375
 20
-683.5899658203125
 30
0.0
 10
743.8900146484375
 20
-683.510009765625
 30
0.0
 10
743.7899780273438
 20
-683.4199829101562
 30
0.0
 10
743.6699829101562
 20
-683.3699951171875
 30
0.0
 10
743.6599731445312
 20
-683.3699951171875
 30
0.0
 10
743.6500244140625
 20
-683.3599853515625
 30
0.0
 10
743.6400146484375
 20
-683.3599853515625
 30
0.0
 10
743.6300048828125
 20
-683.3599853515625
 30
0.0
 10
743.6300048828125
 20
-683.3599853515625
 30
0.0
 10
743.6300048828125
 20
-683.3599853515625
 30
0.0
 10
723.260009765625
 20
-675.1199951171875
 30
0.0
 10
712.510009765625
 20
-647.1199951171875
 30
0.0
 10
711.510009765625
 20
-644.3999633789062
 30
0.0
 10
712.1599731445312
 20
-598.6300048828125
 30
0.0
 10
706.77001953125
 20
-551.7899780273438
 30
0.0
 10
706.2999877929688
 20
-547.739990234375
 30
0.0
 10
723.0900268554688
 20
-493.7099609375
 30
0.0
 10
728.9400024414062
 20
-429.6900024414062
 30
0.0
 10
729.9500122070312
 20
-417.3900146484384
 30
0.0
 10
730.030029296875
 20
-416.4500122070312
 30
0.0
 10
729.5700073242188
 20
-415.5700073242188
 30
0.0
 10
728.77001953125
 20
-415.0799560546884
 30
0.0
 10
728.5
 20
-414.9199829101562
 30
0.0
 10
728.2000122070312
 20
-414.8399658203134
 30
0.0
 10
727.9000244140625
 20
-414.7799682617188
 30
0.0
 10
727.9000244140625
 20
-414.7799682617188
 30
0.0
 10
727.9000244140625
 20
-414.75
 30
0.0
 10
727.9000244140625
 20
-414.75
 30
0.0
 10
759.4400024414062
 20
-377.8200073242188
 30
0.0
 10
750.3599853515625
 20
-355.8599853515634
 30
0.0
 10
744.9600219726562
 20
-348.1099853515634
 30
0.0
 10
742.5800170898438
 20
-344.6900024414062
 30
0.0
 10
739.1900024414062
 20
-342.0799560546884
 30
0.0
 10
735.4099731445312
 20
-340.7699584960938
 30
0.0
 10
733.1799926757812
 20
-339.989990234375
 30
0.0
 10
731.1500244140625
 20
-339.7799682617188
 30
0.0
 10
729.3099975585938
 20
-339.969970703125
 30
0.0
 10
734.2999877929688
 20
-330.6300048828134
 30
0.0
 10
750.2000122070312
 20
-296.4299926757812
 30
0.0
 10
748.7999877929688
 20
-242.8499755859384
 30
0.0
 10
751.7999877929688
 20
-247.1199951171884
 30
0.0
 10
753.6199951171875
 20
-250.25
 30
0.0
 10
753.6599731445312
 20
-250.3299560546884
 30
0.0
 10
753.9000244140625
 20
-250.75
 30
0.0
 10
754.3400268554688
 20
-250.989990234375
 30
0.0
 10
754.7899780273438
 20
-250.989990234375
 30
0.0
 10
754.969970703125
 20
-250.989990234375
 30
0.0
 10
755.1599731445312
 20
-250.9500122070312
 30
0.0
 10
755.3300170898438
 20
-250.8699951171884
 30
0.0
 10
755.9500122070312
 20
-250.5799560546884
 30
0.0
 10
756.239990234375
 20
-249.8800048828134
 30
0.0
 10
756.02001953125
 20
-249.25
 30
0.0
 10
734.4099731445312
 20
-188.4400024414062
 30
0.0
 10
700.2000122070312
 20
-144.6900024414062
 30
0.0
 10
654.3300170898438
 20
-119.2099609375
 30
0.0
 10
616.3499755859375
 20
-98.0999755859375
 30
0.0
 10
579.7000122070312
 20
-95.1400146484375
 30
0.0
 10
561.1699829101562
 20
-95.239990234375
 30
0.0
 10
548.1900024414062
 20
-95.32000732421875
 30
0.0
 10
535.6699829101562
 20
-98.52996826171875
 30
0.0
 10
524.9600219726562
 20
-104.5399780273438
 30
0.0
 10
510.9299926757812
 20
-112.3999633789062
 30
0.0
 10
502.969970703125
 20
-122.9400024414062
 30
0.0
 10
498.5800170898438
 20
-133.4599609375
 30
0.0
 10
494.6099853515634
 20
-129.97998046875
 30
0.0
 10
482.1400146484384
 20
-119.8099975585938
 30
0.0
 10
465.489990234375
 20
-113.4599609375
 30
0.0
 10
446.719970703125
 20
-106.3099975585938
 30
0.0
 10
418.6900024414062
 20
-102.6599731445312
 30
0.0
 10
391.739990234375
 20
-125.8999633789062
 30
0.0
 10
391.5
 20
-126.0999755859384
 30
0.0
 10
367.780029296875
 20
-145.489990234375
 30
0.0
 10
343.22998046875
 20
-176.6199951171884
 30
0.0
 10
320.5399780273438
 20
-205.3800048828134
 30
0.0
 10
292.47998046875
 20
-250.3599853515634
 30
0.0
 10
287.5900268554688
 20
-301.2799682617188
 30
0.0
 10
283.239990234375
 20
-346.5799560546884
 30
0.0
 10
294.3300170898438
 20
-392.3200073242188
 30
0.0
 10
327.0700073242188
 20
-431.4099731445312
 30
0.0
 10
327.3200073242188
 20
-431.7000122070312
 30
0.0
 10
327.6900024414062
 20
-431.8699951171884
 30
0.0
 10
328.0700073242188
 20
-431.8699951171884
 30
0.0
 10
328.1599731445312
 20
-431.8699951171884
 30
0.0
 10
328.25
 20
-431.8599853515634
 30
0.0
 10
328.3400268554688
 20
-431.8399658203134
 30
0.0
 10
328.8099975585938
 20
-431.739990234375
 30
0.0
 10
329.1900024414062
 20
-431.3900146484384
 30
0.0
 10
329.3200073242188
 20
-430.9299926757812
 30
0.0
 10
329.3200073242188
 20
-430.9299926757812
 30
0.0
 10
333.5499877929688
 20
-423.0999755859384
 30
0.0
 10
333.5499877929688
 20
-423.0999755859384
 30
0.0
 10
342.7899780273438
 20
-434.1199951171884
 30
0.0
 10
354.4099731445312
 20
-442.1699829101562
 30
0.0
 10
368.1799926757812
 20
-447.0
 30
0.0
 10
367.9000244140634
 20
-449.75
 30
0.0
 10
367.6500244140634
 20
-457.3099975585938
 30
0.0
 10
371.72998046875
 20
-466.8399658203134
 30
0.0
 10
376.3300170898438
 20
-477.6099853515634
 30
0.0
 10
387.6099853515634
 20
-493.0399780273438
 30
0.0
 10
415.1699829101562
 20
-505.4099731445312
 30
0.0
 10
415.3099975585938
 20
-507.0
 30
0.0
 10
415.7100219726562
 20
-508.5799560546884
 30
0.0
 10
416.4000244140634
 20
-510.0599975585938
 30
0.0
 10
417.6500244140634
 20
-512.7699584960938
 30
0.0
 10
420.3699951171884
 20
-516.5199584960938
 30
0.0
 10
425.8599853515634
 20
-516.5199584960938
 30
0.0
 10
427.3699951171884
 20
-516.5199584960938
 30
0.0
 10
429.0999755859384
 20
-516.219970703125
 30
0.0
 10
431.0599975585938
 20
-515.5499877929688
 30
0.0
 10
438.989990234375
 20
-535.2999877929688
 30
0.0
 10
455.1199951171884
 20
-550.9599609375
 30
0.0
 10
475.1400146484384
 20
-558.0499877929688
 30
0.0
 10
489.9600219726562
 20
-563.2899780273438
 30
0.0
 10
507.0499877929688
 20
-565.9199829101562
 30
0.0
 10
526.25
 20
-565.9199829101562
 30
0.0
 10
532.25
 20
-565.9199829101562
 30
0.0
 10
538.47998046875
 20
-565.6400146484375
 30
0.0
 10
544.9000244140625
 20
-565.1300048828125
 30
0.0
 10
543.1799926757812
 20
-569.4299926757812
 30
0.0
 10
539.2000122070312
 20
-580.1599731445312
 30
0.0
 10
537.1900024414062
 20
-591.9400024414062
 30
0.0
 10
536.1900024414062
 20
-594.2000122070312
 30
0.0
 10
523.9600219726562
 20
-622.6099853515625
 30
0.0
 10
516.8200073242188
 20
-668.3499755859375
 30
0.0
 10
515.5
 20
-676.7999877929688
 30
0.0
 10
515.3699951171875
 20
-685.2799682617188
 30
0.0
 10
516.4299926757812
 20
-693.5700073242188
 30
0.0
 10
520.3499755859375
 20
-724.1699829101562
 30
0.0
 10
528.7899780273438
 20
-742.3099975585938
 30
0.0
 10
541.510009765625
 20
-747.47998046875
 30
0.0
 10
541.969970703125
 20
-747.72998046875
 30
0.0
 10
546.2100219726562
 20
-750.0199584960938
 30
0.0
 10
550.27001953125
 20
-750.989990234375
 30
0.0
 10
549.3200073242188
 20
-753.9500122070312
 30
0.0
 10
548.25
 20
-756.6499633789062
 30
0.0
 10
547.0599975585938
 20
-759.0700073242188
 30
0.0
 10
546.8699951171875
 20
-759.469970703125
 30
0.0
 10
528.3099975585938
 20
-799.5599975585938
 30
0.0
 10
522.989990234375
 20
-842.1400146484375
 30
0.0
 10
522.6900024414062
 20
-844.469970703125
 30
0.0
 10
522.030029296875
 20
-846.7899780273438
 30
0.0
 10
521.0
 20
-849.0199584960938
 30
0.0
 10
515.239990234375
 20
-861.5899658203125
 30
0.0
 10
501.47998046875
 20
-892.75
 30
0.0
 10
498.27001953125
 20
-910.5899658203125
 30
0.0
 10
498.0599975585938
 20
-911.75
 30
0.0
 10
498.3400268554688
 20
-912.9099731445312
 30
0.0
 10
499.0
 20
-913.8399658203125
 30
0.0
 10
496.5999755859384
 20
-916.4400024414062
 30
0.0
 10
490.0599975585938
 20
-924.0199584960938
 30
0.0
 10
488.2899780273438
 20
-931.3499755859375
 30
0.0
 10
488.280029296875
 20
-931.3599853515625
 30
0.0
 10
488.27001953125
 20
-931.3699951171875
 30
0.0
 10
488.27001953125
 20
-931.3800048828125
 30
0.0
 10
488.260009765625
 20
-931.4199829101562
 30
0.0
 10
488.260009765625
 20
-931.4599609375
 30
0.0
 10
488.25
 20
-931.5
 30
0.0
 10
487.739990234375
 20
-933.7000122070312
 30
0.0
 10
487.6500244140634
 20
-935.8699951171875
 30
0.0
 10
488.25
 20
-937.8800048828125
 30
0.0
 10
488.3499755859384
 20
-938.1900024414062
 30
0.0
 10
488.5599975585938
 20
-938.4599609375
 30
0.0
 10
488.8499755859384
 20
-938.6300048828125
 30
0.0
 10
489.030029296875
 20
-938.72998046875
 30
0.0
 10
501.8900146484384
 20
-945.97998046875
 30
0.0
 10
518.3599853515625
 20
-945.97998046875
 30
0.0
 10
525.1500244140625
 20
-945.97998046875
 30
0.0
 10
532.5599975585938
 20
-944.75
 30
0.0
 10
539.9400024414062
 20
-941.2699584960938
 30
0.0
 10
540.1599731445312
 20
-941.1599731445312
 30
0.0
 10
540.3599853515625
 20
-940.989990234375
 30
0.0
 10
540.489990234375
 20
-940.7699584960938
 30
0.0
 10
540.5700073242188
 20
-940.6400146484375
 30
0.0
 10
541.6699829101562
 20
-938.8200073242188
 30
0.0
 10
543.0399780273438
 20
-935.7799682617188
 30
0.0
 10
544.3200073242188
 20
-936.0499877929688
 30
0.0
 10
546.5700073242188
 20
-936.4299926757812
 30
0.0
 10
549.0599975585938
 20
-936.4299926757812
 30
0.0
 10
552.6400146484375
 20
-936.4299926757812
 30
0.0
 10
556.7100219726562
 20
-935.6400146484375
 30
0.0
 10
559.0800170898438
 20
-932.6199951171875
 30
0.0
 10
561.2000122070312
 20
-932.9400024414062
 30
0.0
 10
563.4099731445312
 20
-933.1199951171875
 30
0.0
 10
565.7100219726562
 20
-933.1199951171875
 30
0.0
 10
567.3699951171875
 20
-933.1199951171875
 30
0.0
 10
569.0700073242188
 20
-933.0299682617188
 30
0.0
 10
570.8200073242188
 20
-932.8200073242188
 30
0.0
 10
573.5900268554688
 20
-932.5
 30
0.0
 10
575.7100219726562
 20
-930.1400146484375
 30
0.0
 10
575.760009765625
 20
-927.3499755859375
 30
0.0
 10
576.0399780273438
 20
-910.0299682617188
 30
0.0
 10
580.030029296875
 20
-822.2000122070312
 30
0.0
 10
630.5900268554688
 20
-788.8399658203125
 30
0.0
 10
650.9099731445312
 20
-794.3499755859375
 30
0.0
 10
664.239990234375
 20
-816.010009765625
 30
0.0
 10
672.1500244140625
 20
-834.6199951171875
 30
0.0
 10
678.6699829101562
 20
-849.9400024414062
 30
0.0
 10
682.8499755859375
 20
-866.5899658203125
 30
0.0
 10
684.5900268554688
 20
-884.1199951171875
 30
0.0
 10
686.239990234375
 20
-900.8099975585938
 30
0.0
 10
687.1799926757812
 20
-918.6699829101562
 30
0.0
 10
687.5999755859375
 20
-927.8299560546875
 30
0.0
 10
687.6799926757812
 20
-929.739990234375
 30
0.0
 10
688.6300048828125
 20
-931.4500122070312
 30
0.0
 10
690.2000122070312
 20
-932.5199584960938
 30
0.0
 10
691.22998046875
 20
-933.22998046875
 30
0.0
 10
692.4199829101562
 20
-933.5899658203125
 30
0.0
 10
693.6199951171875
 20
-933.5899658203125
 30
0.0
 10
694.280029296875
 20
-933.5899658203125
 30
0.0
 10
694.9400024414062
 20
-933.47998046875
 30
0.0
 10
695.5800170898438
 20
-933.2699584960938
 30
0.0
 10
696.5499877929688
 20
-932.9400024414062
 30
0.0
 10
697.52001953125
 20
-932.5999755859375
 30
0.0
 10
698.47998046875
 20
-932.260009765625
 30
0.0
 10
699.8300170898438
 20
-934.219970703125
 30
0.0
 10
703.510009765625
 20
-938.3699951171875
 30
0.0
 10
710.52001953125
 20
-938.3699951171875
 30
0.0
 10
710.6699829101562
 20
-938.3699951171875
 30
0.0
 10
710.8200073242188
 20
-938.3499755859375
 30
0.0
 10
710.969970703125
 20
-938.3499755859375
 30
0.0
 10
711.6099853515625
 20
-939.6300048828125
 30
0.0
 10
712.0999755859375
 20
-940.4400024414062
 30
0.0
 10
712.1599731445312
 20
-940.5399780273438
 30
0.0
 10
712.280029296875
 20
-940.75
 30
0.0
 10
712.469970703125
 20
-940.9099731445312
 30
0.0
 10
712.6900024414062
 20
-941.0199584960938
 30
0.0
 10
720.9500122070312
 20
-945.1199951171875
 30
0.0
 10
729.030029296875
 20
-946.47998046875
 30
0.0
 10
736.1400146484375
 20
-946.47998046875
 30
0.0
 10
750.27001953125
 20
-946.47998046875
 30
0.0
 10
760.5499877929688
 20
-941.0799560546875
 30
0.0
 10
760.7000122070312
 20
-941.0
 30
0.0
 10
761.0599975585938
 20
-940.8099975585938
 30
0.0
 10
761.3099975585938
 20
-940.4599609375
 30
0.0
 10
761.3699951171875
 20
-940.0599975585938
 30
0.0
 10
761.8699951171875
 20
-936.9099731445312
 30
0.0
 10
760.7899780273438
 20
-932.3999633789062
 30
0.0
 10
759.969970703125
 20
-929.6099853515625
 30
0.0
 10
760.52001953125
 20
-929.5999755859375
 30
0.0
 10
761.0700073242188
 20
-929.489990234375
 30
0.0
 10
761.5999755859375
 20
-929.260009765625
 30
0.0
 10
763.1500244140625
 20
-928.5899658203125
 30
0.0
 10
764.1300048828125
 20
-927.1099853515625
 30
0.0
 10
764.1500244140625
 20
-925.4199829101562
 30
0.0
 10
764.4299926757812
 20
-907.0499877929688
 30
0.0
 10
754.1599731445312
 20
-878.4400024414062
 30
0.0
 10
745.969970703125
 20
-858.6199951171875
 30
0.0
  0
HATCH
  5
42
330
1F
100
AcDbEntity
  8
SUGA_LIGHT BLUE
 62
   135
420
  5544365
100
AcDbHatch
 10
0.0
 20
0.0
 30
0.0
210
0.0
220
0.0
230
1.0
  2
SOLID
 70
     1
 71
     0
 91
        1
 92
        1
 93
        1
 72
     4
 94
        3
 73
     0
 74
     1
 95
      275
 96
      271
 40
0.0
 40
0.0
 40
0.0
 40
0.0
 40
1.0
 40
1.0
 40
1.0
 40
2.0
 40
2.0
 40
2.0
 40
3.0
 40
3.0
 40
3.0
 40
4.0
 40
4.0
 40
4.0
 40
5.0
 40
5.0
 40
5.0
 40
6.0
 40
6.0
 40
6.0
 40
7.0
 40
7.0
 40
7.0
 40
8.0
 40
8.0
 40
8.0
 40
9.0
 40
9.0
 40
9.0
 40
10.0
 40
10.0
 40
10.0
 40
11.0
 40
11.0
 40
11.0
 40
12.0
 40
12.0
 40
12.0
 40
13.0
 40
13.0
 40
13.0
 40
14.0
 40
14.0
 40
14.0
 40
15.0
 40
15.0
 40
15.0
 40
16.0
 40
16.0
 40
16.0
 40
17.0
 40
17.0
 40
17.0
 40
18.0
 40
18.0
 40
18.0
 40
19.0
 40
19.0
 40
19.0
 40
20.0
 40
20.0
 40
20.0
 40
21.0
 40
21.0
 40
21.0
 40
22.0
 40
22.0
 40
22.0
 40
23.0
 40
23.0
 40
23.0
 40
24.0
 40
24.0
 40
24.0
 40
25.0
 40
25.0
 40
25.0
 40
26.0
 40
26.0
 40
26.0
 40
27.0
 40
27.0
 40
27.0
 40
28.0
 40
28.0
 40
28.0
 40
29.0
 40
29.0
 40
29.0
 40
30.0
 40
30.0
 40
30.0
 40
31.0
 40
31.0
 40
31.0
 40
32.0
 40
32.0
 40
32.0
 40
33.0
 40
33.0
 40
33.0
 40
34.0
 40
34.0
 40
34.0
 40
35.0
 40
35.0
 40
35.0
 40
36.0
 40
36.0
 40
36.0
 40
37.0
 40
37.0
 40
37.0
 40
38.0
 40
38.0
 40
38.0
 40
39.0
 40
39.0
 40
39.0
 40
40.0
 40
40.0
 40
40.0
 40
41.0
 40
41.0
 40
41.0
 40
42.0
 40
42.0
 40
42.0
 40
43.0
 40
43.0
 40
43.0
 40
44.0
 40
44.0
 40
44.0
 40
45.0
 40
45.0
 40
45.0
 40
46.0
 40
46.0
 40
46.0
 40
47.0
 40
47.0
 40
47.0
 40
48.0
 40
48.0
 40
48.0
 40
49.0
 40
49.0
 40
49.0
 40
50.0
 40
50.0
 40
50.0
 40
51.0
 40
51.0
 40
51.0
 40
52.0
 40
52.0
 40
52.0
 40
53.0
 40
53.0
 40
53.0
 40
54.0
 40
54.0
 40
54.0
 40
55.0
 40
55.0
 40
55.0
 40
56.0
 40
56.0
 40
56.0
 40
57.0
 40
57.0
 40
57.0
 40
58.0
 40
58.0
 40
58.0
 40
59.0
 40
59.0
 40
59.0
 40
60.0
 40
60.0
 40
60.0
 40
61.0
 40
61.0
 40
61.0
 40
62.0
 40
62.0
 40
62.0
 40
63.0
 40
63.0
 40
63.0
 40
64.0
 40
64.0
 40
64.0
 40
65.0
 40
65.0
 40
65.0
 40
66.0
 40
66.0
 40
66.0
 40
67.0
 40
67.0
 40
67.0
 40
68.0
 40
68.0
 40
68.0
 40
69.0
 40
69.0
 40
69.0
 40
70.0
 40
70.0
 40
70.0
 40
71.0
 40
71.0
 40
71.0
 40
72.0
 40
72.0
 40
72.0
 40
73.0
 40
73.0
 40
73.0
 40
74.0
 40
74.0
 40
74.0
 40
75.0
 40
75.0
 40
75.0
 40
76.0
 40
76.0
 40
76.0
 40
77.0
 40
77.0
 40
77.0
 40
78.0
 40
78.0
 40
78.0
 40
79.0
 40
79.0
 40
79.0
 40
80.0
 40
80.0
 40
80.0
 40
81.0
 40
81.0
 40
81.0
 40
82.0
 40
82.0
 40
82.0
 40
83.0
 40
83.0
 40
83.0
 40
84.0
 40
84.0
 40
84.0
 40
85.0
 40
85.0
 40
85.0
 40
86.0
 40
86.0
 40
86.0
 40
87.0
 40
87.0
 40
87.0
 40
88.0
 40
88.0
 40
88.0
 40
89.0
 40
89.0
 40
89.0
 40
90.0
 40
90.0
 40
90.0
 40
90.0
 10
745.969970703125
 20
-858.6199951171875
 10
745.969970703125
 20
-858.6099853515625
 10
745.969970703125
 20
-858.6099853515625
 10
745.9600219726562
 20
-858.6099853515625
 10
744.6199951171875
 20
-855.3599853515625
 10
743.3300170898438
 20
-852.3399658203125
 10
742.1599731445312
 20
-849.6499633789062
 10
737.260009765625
 20
-838.4400024414062
 10
733.4000244140625
 20
-826.760009765625
 10
730.6900024414062
 20
-814.9500122070312
 10
724.0599975585938
 20
-786.0700073242188
 10
719.97998046875
 20
-756.4500122070312
 10
717.7000122070312
 20
-736.2699584960938
 10
736.9299926757812
 20
-723.7899780273438
 10
747.3800048828125
 20
-711.3599853515625
 10
748.7100219726562
 20
-699.3299560546875
 10
749.7899780273438
 20
-689.5599975585938
 10
744.2999877929688
 20
-683.8800048828125
 10
744.0700073242188
 20
-683.6499633789062
 10
744.0700073242188
 20
-683.6499633789062
 10
744.0700073242188
 20
-683.6400146484375
 10
744.0700073242188
 20
-683.6400146484375
 10
744.0399780273438
 20
-683.6199951171875
 10
744.010009765625
 20
-683.6099853515625
 10
743.989990234375
 20
-683.5899658203125
 10
743.8900146484375
 20
-683.510009765625
 10
743.7899780273438
 20
-683.4199829101562
 10
743.6699829101562
 20
-683.3699951171875
 10
743.6599731445312
 20
-683.3699951171875
 10
743.6500244140625
 20
-683.3599853515625
 10
743.6400146484375
 20
-683.3599853515625
 10
743.6300048828125
 20
-683.3599853515625
 10
743.6300048828125
 20
-683.3599853515625
 10
743.6300048828125
 20
-683.3599853515625
 10
723.260009765625
 20
-675.1199951171875
 10
712.510009765625
 20
-647.1199951171875
 10
711.510009765625
 20
-644.3999633789062
 10
712.1599731445312
 20
-598.6300048828125
 10
706.77001953125
 20
-551.7899780273438
 10
706.2999877929688
 20
-547.739990234375
 10
723.0900268554688
 20
-493.7099609375
 10
728.9400024414062
 20
-429.6900024414062
 10
729.9500122070312
 20
-417.3900146484384
 10
730.030029296875
 20
-416.4500122070312
 10
729.5700073242188
 20
-415.5700073242188
 10
728.77001953125
 20
-415.0799560546884
 10
728.5
 20
-414.9199829101562
 10
728.2000122070312
 20
-414.8399658203134
 10
727.9000244140625
 20
-414.7799682617188
 10
727.9000244140625
 20
-414.7799682617188
 10
727.9000244140625
 20
-414.75
 10
727.9000244140625
 20
-414.75
 10
759.4400024414062
 20
-377.8200073242188
 10
750.3599853515625
 20
-355.8599853515634
 10
744.9600219726562
 20
-348.1099853515634
 10
742.5800170898438
 20
-344.6900024414062
 10
739.1900024414062
 20
-342.0799560546884
 10
735.4099731445312
 20
-340.7699584960938
 10
733.1799926757812
 20
-339.989990234375
 10
731.1500244140625
 20
-339.7799682617188
 10
729.3099975585938
 20
-339.969970703125
 10
734.2999877929688
 20
-330.6300048828134
 10
750.2000122070312
 20
-296.4299926757812
 10
748.7999877929688
 20
-242.8499755859384
 10
751.7999877929688
 20
-247.1199951171884
 10
753.6199951171875
 20
-250.25
 10
753.6599731445312
 20
-250.3299560546884
 10
753.9000244140625
 20
-250.75
 10
754.3400268554688
 20
-250.989990234375
 10
754.7899780273438
 20
-250.989990234375
 10
754.969970703125
 20
-250.989990234375
 10
755.1599731445312
 20
-250.9500122070312
 10
755.3300170898438
 20
-250.8699951171884
 10
755.9500122070312
 20
-250.5799560546884
 10
756.239990234375
 20
-249.8800048828134
 10
756.02001953125
 20
-249.25
 10
734.4099731445312
 20
-188.4400024414062
 10
700.2000122070312
 20
-144.6900024414062
 10
654.3300170898438
 20
-119.2099609375
 10
616.3499755859375
 20
-98.0999755859375
 10
579.7000122070312
 20
-95.1400146484375
 10
561.1699829101562
 20
-95.239990234375
 10
548.1900024414062
 20
-95.32000732421875
 10
535.6699829101562
 20
-98.52996826171875
 10
524.9600219726562
 20
-104.5399780273438
 10
510.9299926757812
 20
-112.3999633789062
 10
502.969970703125
 20
-122.9400024414062
 10
498.5800170898438
 20
-133.4599609375
 10
494.6099853515634
 20
-129.97998046875
 10
482.1400146484384
 20
-119.8099975585938
 10
465.489990234375
 20
-113.4599609375
 10
446.719970703125
 20
-106.3099975585938
 10
418.6900024414062
 20
-102.6599731445312
 10
391.739990234375
 20
-125.8999633789062
 10
391.5
 20
-126.0999755859384
 10
367.780029296875
 20
-145.489990234375
 10
343.22998046875
 20
-176.6199951171884
 10
320.5399780273438
 20
-205.3800048828134
 10
292.47998046875
 20
-250.3599853515634
 10
287.5900268554688
 20
-301.2799682617188
 10
283.239990234375
 20
-346.5799560546884
 10
294.3300170898438
 20
-392.3200073242188
 10
327.0700073242188
 20
-431.4099731445312
 10
327.3200073242188
 20
-431.7000122070312
 10
327.6900024414062
 20
-431.8699951171884
 10
328.0700073242188
 20
-431.8699951171884
 10
328.1599731445312
 20
-431.8699951171884
 10
328.25
 20
-431.8599853515634
 10
328.3400268554688
 20
-431.8399658203134
 10
328.8099975585938
 20
-431.739990234375
 10
329.1900024414062
 20
-431.3900146484384
 10
329.3200073242188
 20
-430.9299926757812
 10
329.3200073242188
 20
-430.9299926757812
 10
333.5499877929688
 20
-423.0999755859384
 10
333.5499877929688
 20
-423.0999755859384
 10
342.7899780273438
 20
-434.1199951171884
 10
354.4099731445312
 20
-442.1699829101562
 10
368.1799926757812
 20
-447.0
 10
367.9000244140634
 20
-449.75
 10
367.6500244140634
 20
-457.3099975585938
 10
371.72998046875
 20
-466.8399658203134
 10
376.3300170898438
 20
-477.6099853515634
 10
387.6099853515634
 20
-493.0399780273438
 10
415.1699829101562
 20
-505.4099731445312
 10
415.3099975585938
 20
-507.0
 10
415.7100219726562
 20
-508.5799560546884
 10
416.4000244140634
 20
-510.0599975585938
 10
417.6500244140634
 20
-512.7699584960938
 10
420.3699951171884
 20
-516.5199584960938
 10
425.8599853515634
 20
-516.5199584960938
 10
427.3699951171884
 20
-516.5199584960938
 10
429.0999755859384
 20
-516.219970703125
 10
431.0599975585938
 20
-515.5499877929688
 10
438.989990234375
 20
-535.2999877929688
 10
455.1199951171884
 20
-550.9599609375
 10
475.1400146484384
 20
-558.0499877929688
 10
489.9600219726562
 20
-563.2899780273438
 10
507.0499877929688
 20
-565.9199829101562
 10
526.25
 20
-565.9199829101562
 10
532.25
 20
-565.9199829101562
 10
538.47998046875
 20
-565.6400146484375
 10
544.9000244140625
 20
-565.1300048828125
 10
543.1799926757812
 20
-569.4299926757812
 10
539.2000122070312
 20
-580.1599731445312
 10
537.1900024414062
 20
-591.9400024414062
 10
536.1900024414062
 20
-594.2000122070312
 10
523.9600219726562
 20
-622.6099853515625
 10
516.8200073242188
 20
-668.3499755859375
 10
515.5
 20
-676.7999877929688
 10
515.3699951171875
 20
-685.2799682617188
 10
516.4299926757812
 20
-693.5700073242188
 10
520.3499755859375
 20
-724.1699829101562
 10
528.7899780273438
 20
-742.3099975585938
 10
541.510009765625
 20
-747.47998046875
 10
541.969970703125
 20
-747.72998046875
 10
546.2100219726562
 20
-750.0199584960938
 10
550.27001953125
 20
-750.989990234375
 10
549.3200073242188
 20
-753.9500122070312
 10
548.25
 20
-756.6499633789062
 10
547.0599975585938
 20
-759.0700073242188
 10
546.8699951171875
 20
-759.469970703125
 10
528.3099975585938
 20
-799.5599975585938
 10
522.989990234375
 20
-842.1400146484375
 10
522.6900024414062
 20
-844.469970703125
 10
522.030029296875
 20
-846.7899780273438
 10
521.0
 20
-849.0199584960938
 10
515.239990234375
 20
-861.5899658203125
 10
501.47998046875
 20
-892.75
 10
498.27001953125
 20
-910.5899658203125
 10
498.0599975585938
 20
-911.75
 10
498.3400268554688
 20
-912.9099731445312
 10
499.0
 20
-913.8399658203125
 10
496.5999755859384
 20
-916.4400024414062
 10
490.0599975585938
 20
-924.0199584960938
 10
488.2899780273438
 20
-931.3499755859375
 10
488.280029296875
 20
-931.3599853515625
 10
488.27001953125
 20
-931.3699951171875
 10
488.27001953125
 20
-931.3800048828125
 10
488.260009765625
 20
-931.4199829101562
 10
488.260009765625
 20
-931.4599609375
 10
488.25
 20
-931.5
 10
487.739990234375
 20
-933.7000122070312
 10
487.6500244140634
 20
-935.8699951171875
 10
488.25
 20
-937.8800048828125
 10
488.3499755859384
 20
-938.1900024414062
 10
488.5599975585938
 20
-938.4599609375
 10
488.8499755859384
 20
-938.6300048828125
 10
489.030029296875
 20
-938.72998046875
 10
501.8900146484384
 20
-945.97998046875
 10
518.3599853515625
 20
-945.97998046875
 10
525.1500244140625
 20
-945.97998046875
 10
532.5599975585938
 20
-944.75
 10
539.9400024414062
 20
-941.2699584960938
 10
540.1599731445312
 20
-941.1599731445312
 10
540.3599853515625
 20
-940.989990234375
 10
540.489990234375
 20
-940.7699584960938
 10
540.5700073242188
 20
-940.6400146484375
 10
541.6699829101562
 20
-938.8200073242188
 10
543.0399780273438
 20
-935.7799682617188
 10
544.3200073242188
 20
-936.0499877929688
 10
546.5700073242188
 20
-936.4299926757812
 10
549.0599975585938
 20
-936.4299926757812
 10
552.6400146484375
 20
-936.4299926757812
 10
556.7100219726562
 20
-935.6400146484375
 10
559.0800170898438
 20
-932.6199951171875
 10
561.2000122070312
 20
-932.9400024414062
 10
563.4099731445312
 20
-933.1199951171875
 10
565.7100219726562
 20
-933.1199951171875
 10
567.3699951171875
 20
-933.1199951171875
 10
569.0700073242188
 20
-933.0299682617188
 10
570.8200073242188
 20
-932.8200073242188
 10
573.5900268554688
 20
-932.5
 10
575.7100219726562
 20
-930.1400146484375
 10
575.760009765625
 20
-927.3499755859375
 10
576.0399780273438
 20
-910.0299682617188
 10
580.030029296875
 20
-822.2000122070312
 10
630.5900268554688
 20
-788.8399658203125
 10
650.9099731445312
 20
-794.3499755859375
 10
664.239990234375
 20
-816.010009765625
 10
672.1500244140625
 20
-834.6199951171875
 10
678.6699829101562
 20
-849.9400024414062
 10
682.8499755859375
 20
-866.5899658203125
 10
684.5900268554688
 20
-884.1199951171875
 10
686.239990234375
 20
-900.8099975585938
 10
687.1799926757812
 20
-918.6699829101562
 10
687.5999755859375
 20
-927.8299560546875
 10
687.6799926757812
 20
-929.739990234375
 10
688.6300048828125
 20
-931.4500122070312
 10
690.2000122070312
 20
-932.5199584960938
 10
691.22998046875
 20
-933.22998046875
 10
692.4199829101562
 20
-933.5899658203125
 10
693.6199951171875
 20
-933.5899658203125
 10
694.280029296875
 20
-933.5899658203125
 10
694.9400024414062
 20
-933.47998046875
 10
695.5800170898438
 20
-933.2699584960938
 10
696.5499877929688
 20
-932.9400024414062
 10
697.52001953125
 20
-932.5999755859375
 10
698.47998046875
 20
-932.260009765625
 10
699.8300170898438
 20
-934.219970703125
 10
703.510009765625
 20
-938.3699951171875
 10
710.52001953125
 20
-938.3699951171875
 10
710.6699829101562
 20
-938.3699951171875
 10
710.8200073242188
 20
-938.3499755859375
 10
710.969970703125
 20
-938.3499755859375
 10
711.6099853515625
 20
-939.6300048828125
 10
712.0999755859375
 20
-940.4400024414062
 10
712.1599731445312
 20
-940.5399780273438
 10
712.280029296875
 20
-940.75
 10
712.469970703125
 20
-940.9099731445312
 10
712.6900024414062
 20
-941.0199584960938
 10
720.9500122070312
 20
-945.1199951171875
 10
729.030029296875
 20
-946.47998046875
 10
736.1400146484375
 20
-946.47998046875
 10
750.27001953125
 20
-946.47998046875
 10
760.5499877929688
 20
-941.0799560546875
 10
760.7000122070312
 20
-941.0
 10
761.0599975585938
 20
-940.8099975585938
 10
761.3099975585938
 20
-940.4599609375
 10
761.3699951171875
 20
-940.0599975585938
 10
761.8699951171875
 20
-936.9099731445312
 10
760.7899780273438
 20
-932.3999633789062
 10
759.969970703125
 20
-929.6099853515625
 10
760.52001953125
 20
-929.5999755859375
 10
761.0700073242188
 20
-929.489990234375
 10
761.5999755859375
 20
-929.260009765625
 10
763.1500244140625
 20
-928.5899658203125
 10
764.1300048828125
 20
-927.1099853515625
 10
764.1500244140625
 20
-925.4199829101562
 10
764.4299926757812
 20
-907.0499877929688
 10
754.1599731445312
 20
-878.4400024414062
 10
745.969970703125
 20
-858.6199951171875
 97
        0
 97
        0
 75
     2
 76
     1
 98
        0
  0
ENDSEC
  0
SECTION
  2
OBJECTS
  0
DICTIONARY
  5
C
330
0
100
AcDbDictionary
281
     1
  3
ACAD_GROUP
350
D
  3
ACAD_LAYOUT
350
1A
  3
ACAD_MATERIAL
350
3B
  3
ACAD_MLEADERSTYLE
350
44
  3
ACAD_MLINESTYLE
350
17
  3
ACAD_PLOTSETTINGS
350
19
  3
ACAD_PLOTSTYLENAME
350
E
  3
ACAD_TABLESTYLE
350
43
  3
ACAD_VISUALSTYLE
350
2A
  0
SUN
  5
3F
330
29
100
AcDbSun
 90
        1
290
     0
 63
     7
421
 16777215
 40
1.0
291
     1
 91
  2455826
 92
 54000000
292
     0
 70
     2
 71
   256
280
     1
  0
DICTIONARY
  5
D
102
{ACAD_REACTORS
330
C
102
}
330
C
100
AcDbDictionary
281
     1
  0
DICTIONARY
  5
1A
102
{ACAD_REACTORS
330
C
102
}
330
C
100
AcDbDictionary
281
     1
  3
Layout1
350
1E
  3
Layout2
350
26
  3
Model
350
22
  0
DICTIONARY
  5
3B
102
{ACAD_REACTORS
330
C
102
}
330
C
100
AcDbDictionary
281
     1
  3
ByBlock
350
3D
  3
ByLayer
350
3C
  3
Global
350
3E
  0
DICTIONARY
  5
44
102
{ACAD_REACTORS
330
C
102
}
330
C
100
AcDbDictionary
281
     1
  0
DICTIONARY
  5
17
102
{ACAD_REACTORS
330
C
102
}
330
C
100
AcDbDictionary
281
     1
  3
Standard
350
18
  0
DICTIONARY
  5
19
102
{ACAD_REACTORS
330
C
102
}
330
C
100
AcDbDictionary
281
     1
  0
ACDBDICTIONARYWDFLT
  5
E
102
{ACAD_REACTORS
330
C
102
}
330
C
100
AcDbDictionary
281
     1
  3
Normal
350
F
100
AcDbDictionaryWithDefault
340
F
  0
DICTIONARY
  5
43
102
{ACAD_REACTORS
330
C
102
}
330
C
100
AcDbDictionary
281
     1
  0
DICTIONARY
  5
2A
102
{ACAD_REACTORS
330
C
102
}
330
C
100
AcDbDictionary
281
     1
  3
2dWireframe
350
2F
  3
3D Hidden
350
31
  3
3dWireframe
350
30
  3
Basic
350
32
  3
Brighten
350
36
  3
ColorChange
350
3A
  3
Conceptual
350
34
  3
Dim
350
35
  3
Facepattern
350
39
  3
Flat
350
2B
  3
FlatWithEdges
350
2C
  3
Gouraud
350
2D
  3
GouraudWithEdges
350
2E
  3
Linepattern
350
38
  3
Realistic
350
33
  3
Thicken
350
37
  0
LAYOUT
  5
1E
102
{ACAD_REACTORS
330
1A
102
}
330
1A
100
AcDbPlotSettings
  1

  2
none_device
  4

  6

 40
0.0
 41
0.0
 42
0.0
 43
0.0
 44
0.0
 45
0.0
 46
0.0
 47
0.0
 48
0.0
 49
0.0
140
0.0
141
0.0
142
1.0
143
1.0
 70
   688
 72
     0
 73
     0
 74
     5
  7

 75
    16
 76
     0
 77
     2
 78
   300
147
1.0
148
0.0
149
0.0
100
AcDbLayout
  1
Layout1
 70
     1
 71
     1
 10
0.0
 20
0.0
 11
12.0
 21
9.0
 12
0.0
 22
0.0
 32
0.0
 14
1.000000000000000E+20
 24
1.000000000000000E+20
 34
1.000000000000000E+20
 15
-1.000000000000000E+20
 25
-1.000000000000000E+20
 35
-1.000000000000000E+20
146
0.0
 13
0.0
 23
0.0
 33
0.0
 16
1.0
 26
0.0
 36
0.0
 17
0.0
 27
1.0
 37
0.0
 76
     0
330
1B
  0
LAYOUT
  5
26
102
{ACAD_REACTORS
330
1A
102
}
330
1A
100
AcDbPlotSettings
  1

  2
none_device
  4

  6

 40
0.0
 41
0.0
 42
0.0
 43
0.0
 44
0.0
 45
0.0
 46
0.0
 47
0.0
 48
0.0
 49
0.0
140
0.0
141
0.0
142
1.0
143
1.0
 70
   688
 72
     0
 73
     0
 74
     5
  7

 75
    16
 76
     0
 77
     2
 78
   300
147
1.0
148
0.0
149
0.0
100
AcDbLayout
  1
Layout2
 70
     1
 71
     2
 10
0.0
 20
0.0
 11
0.0
 21
0.0
 12
0.0
 22
0.0
 32
0.0
 14
0.0
 24
0.0
 34
0.0
 15
0.0
 25
0.0
 35
0.0
146
0.0
 13
0.0
 23
0.0
 33
0.0
 16
1.0
 26
0.0
 36
0.0
 17
0.0
 27
1.0
 37
0.0
 76
     0
330
23
  0
LAYOUT
  5
22
102
{ACAD_REACTORS
330
1A
102
}
330
1A
100
AcDbPlotSettings
  1

  2
none_device
  4

  6

 40
0.0
 41
0.0
 42
0.0
 43
0.0
 44
0.0
 45
0.0
 46
0.0
 47
0.0
 48
0.0
 49
0.0
140
0.0
141
0.0
142
1.0
143
1.0
 70
  1712
 72
     0
 73
     0
 74
     0
  7

 75
     0
 76
     0
 77
     2
 78
   300
147
1.0
148
0.0
149
0.0
100
AcDbLayout
  1
Model
 70
     1
 71
     0
 10
0.0
 20
0.0
 11
12.0
 21
9.0
 12
0.0
 22
0.0
 32
0.0
 14
1.000000000000000E+20
 24
1.000000000000000E+20
 34
1.000000000000000E+20
 15
-1.000000000000000E+20
 25
-1.000000000000000E+20
 35
-1.000000000000000E+20
146
0.0
 13
0.0
 23
0.0
 33
0.0
 16
1.0
 26
0.0
 36
0.0
 17
0.0
 27
1.0
 37
0.0
 76
     0
330
1F
331
29
  0
MATERIAL
  5
3D
102
{ACAD_REACTORS
330
3B
102
}
330
3B
100
AcDbMaterial
  1
ByBlock
 72
     1
 94
      127
  0
MATERIAL
  5
3C
102
{ACAD_REACTORS
330
3B
102
}
330
3B
100
AcDbMaterial
  1
ByLayer
 72
     1
 94
      127
  0
MATERIAL
  5
3E
102
{ACAD_REACTORS
330
3B
102
}
330
3B
100
AcDbMaterial
  1
Global
 72
     1
 94
      127
  0
MLINESTYLE
  5
18
102
{ACAD_REACTORS
330
17
102
}
330
17
100
AcDbMlineStyle
  2
Standard
 70
     0
  3

 62
   256
 51
90.0
 52
90.0
 71
     2
 49
0.5
 62
   256
  6
BYLAYER
 49
-0.5
 62
   256
  6
BYLAYER
  0
ACDBPLACEHOLDER
  5
F
102
{ACAD_REACTORS
330
E
102
}
330
E
  0
VISUALSTYLE
  5
2F
102
{ACAD_REACTORS
330
2A
102
}
330
2A
100
AcDbVisualStyle
  2
2dWireframe
 70
     4
177
     2
291
     0
 71
     0
176
     1
 72
     2
176
     1
 73
     0
176
     1
 90
        0
176
     1
 40
-0.6
176
     1
 41
-30.0
176
     1
 62
     5
 63
     7
421
 16777215
176
     1
 74
     1
176
     1
 91
        4
176
     1
 64
     7
176
     1
 65
   257
176
     1
 75
     1
176
     1
175
     1
176
     1
 42
1.0
176
     1
 92
        0
176
     1
 66
   257
176
     1
 43
1.0
176
     1
 76
     1
176
     1
 77
     6
176
     1
 78
     2
176
     1
 67
     7
176
     1
 79
     5
176
     1
170
     0
176
     1
171
     0
176
     1
290
     0
176
     1
 93
        1
176
     1
 44
0.0
176
     1
173
     0
176
     1
  0
VISUALSTYLE
  5
31
102
{ACAD_REACTORS
330
2A
102
}
330
2A
100
AcDbVisualStyle
  2
3D Hidden
 70
     6
177
     2
291
     0
 71
     1
176
     1
 72
     2
176
     1
 73
     2
176
     1
 90
        0
176
     1
 40
-0.6
176
     1
 41
-30.0
176
     1
 62
     5
 63
     7
421
 16777215
176
     1
 74
     2
176
     1
 91
        2
176
     1
 64
     7
176
     1
 65
   257
176
     1
 75
     2
176
     1
175
     1
176
     1
 42
40.0
176
     1
 92
        0
176
     1
 66
   257
176
     1
 43
1.0
176
     1
 76
     1
176
     1
 77
     6
176
     1
 78
     2
176
     1
 67
     7
176
     1
 79
     3
176
     1
170
     0
176
     1
171
     0
176
     1
290
     0
176
     1
 93
        1
176
     1
 44
0.0
176
     1
173
     0
176
     1
  0
VISUALSTYLE
  5
30
102
{ACAD_REACTORS
330
2A
102
}
330
2A
100
AcDbVisualStyle
  2
3dWireframe
 70
     5
177
     2
291
     0
 71
     0
176
     1
 72
     2
176
     1
 73
     0
176
     1
 90
        0
176
     1
 40
-0.6
176
     1
 41
-30.0
176
     1
 62
     5
 63
     7
421
 16777215
176
     1
 74
     1
176
     1
 91
        4
176
     1
 64
     7
176
     1
 65
   257
176
     1
 75
     1
176
     1
175
     1
176
     1
 42
1.0
176
     1
 92
        0
176
     1
 66
   257
176
     1
 43
1.0
176
     1
 76
     1
176
     1
 77
     6
176
     1
 78
     2
176
     1
 67
     7
176
     1
 79
     5
176
     1
170
     0
176
     1
171
     0
176
     1
290
     0
176
     1
 93
        1
176
     1
 44
0.0
176
     1
173
     0
176
     1
  0
VISUALSTYLE
  5
32
102
{ACAD_REACTORS
330
2A
102
}
330
2A
100
AcDbVisualStyle
  2
Basic
 70
     7
177
     2
291
     1
 71
     1
176
     1
 72
     0
176
     1
 73
     1
176
     1
 90
        0
176
     1
 40
-0.6
176
     1
 41
-30.0
176
     1
 62
     5
 63
     7
421
 16777215
176
     1
 74
     0
176
     1
 91
        4
176
     1
 64
     7
176
     1
 65
   257
176
     1
 75
     1
176
     1
175
     1
176
     1
 42
1.0
176
     1
 92
        8
176
     1
 66
     7
176
     1
 43
1.0
176
     1
 76
     1
176
     1
 77
     6
176
     1
 78
     2
176
     1
 67
     7
176
     1
 79
     5
176
     1
170
     0
176
     1
171
     0
176
     1
290
     0
176
     1
 93
        1
176
     1
 44
0.0
176
     1
173
     0
176
     1
  0
VISUALSTYLE
  5
36
102
{ACAD_REACTORS
330
2A
102
}
330
2A
100
AcDbVisualStyle
  2
Brighten
 70
    12
177
     2
291
     1
 71
     2
176
     1
 72
     2
176
     1
 73
     0
176
     1
 90
        0
176
     1
 40
-0.6
176
     1
 41
-30.0
176
     1
 62
     5
 63
     7
421
 16777215
176
     1
 74
     1
176
     1
 91
        4
176
     1
 64
     7
176
     1
 65
   257
176
     1
 75
     1
176
     1
175
     1
176
     1
 42
1.0
176
     1
 92
        8
176
     1
 66
     7
176
     1
 43
1.0
176
     1
 76
     1
176
     1
 77
     6
176
     1
 78
     2
176
     1
 67
     7
176
     1
 79
     5
176
     1
170
     0
176
     1
171
     0
176
     1
290
     0
176
     1
 93
        1
176
     1
 44
50.0
176
     1
173
     0
176
     1
  0
VISUALSTYLE
  5
3A
102
{ACAD_REACTORS
330
2A
102
}
330
2A
100
AcDbVisualStyle
  2
ColorChange
 70
    16
177
     2
291
     1
 71
     2
176
     1
 72
     2
176
     1
 73
     3
176
     1
 90
        0
176
     1
 40
-0.6
176
     1
 41
-30.0
176
     1
 62
     5
 63
     8
421
  8421504
176
     1
 74
     1
176
     1
 91
        4
176
     1
 64
     7
176
     1
 65
   257
176
     1
 75
     1
176
     1
175
     1
176
     1
 42
1.0
176
     1
 92
        8
176
     1
 66
     8
424
  8421504
176
     1
 43
1.0
176
     1
 76
     1
176
     1
 77
     6
176
     1
 78
     2
176
     1
 67
     7
176
     1
 79
     5
176
     1
170
     0
176
     1
171
     0
176
     1
290
     0
176
     1
 93
        1
176
     1
 44
0.0
176
     1
173
     0
176
     1
  0
VISUALSTYLE
  5
34
102
{ACAD_REACTORS
330
2A
102
}
330
2A
100
AcDbVisualStyle
  2
Conceptual
 70
     9
177
     2
291
     0
 71
     3
176
     1
 72
     2
176
     1
 73
     0
176
     1
 90
        0
176
     1
 40
-0.6
176
     1
 41
-30.0
176
     1
 62
     5
 63
     7
421
 16777215
176
     1
 74
     2
176
     1
 91
        2
176
     1
 64
     7
176
     1
 65
   257
176
     1
 75
     1
176
     1
175
     1
176
     1
 42
40.0
176
     1
 92
        8
176
     1
 66
     7
176
     1
 43
1.0
176
     1
 76
     1
176
     1
 77
     6
176
     1
 78
     2
176
     1
 67
     7
176
     1
 79
     3
176
     1
170
     0
176
     1
171
     0
176
     1
290
     0
176
     1
 93
        1
176
     1
 44
0.0
176
     1
173
     0
176
     1
  0
VISUALSTYLE
  5
35
102
{ACAD_REACTORS
330
2A
102
}
330
2A
100
AcDbVisualStyle
  2
Dim
 70
    11
177
     2
291
     1
 71
     2
176
     1
 72
     2
176
     1
 73
     0
176
     1
 90
        0
176
     1
 40
-0.6
176
     1
 41
-30.0
176
     1
 62
     5
 63
     7
421
 16777215
176
     1
 74
     1
176
     1
 91
        4
176
     1
 64
     7
176
     1
 65
   257
176
     1
 75
     1
176
     1
175
     1
176
     1
 42
1.0
176
     1
 92
        8
176
     1
 66
     7
176
     1
 43
1.0
176
     1
 76
     1
176
     1
 77
     6
176
     1
 78
     2
176
     1
 67
     7
176
     1
 79
     5
176
     1
170
     0
176
     1
171
     0
176
     1
290
     0
176
     1
 93
        1
176
     1
 44
-50.0
176
     1
173
     0
176
     1
  0
VISUALSTYLE
  5
39
102
{ACAD_REACTORS
330
2A
102
}
330
2A
100
AcDbVisualStyle
  2
Facepattern
 70
    15
177
     2
291
     1
 71
     2
176
     1
 72
     2
176
     1
 73
     0
176
     1
 90
        0
176
     1
 40
-0.6
176
     1
 41
-30.0
176
     1
 62
     5
 63
     7
421
 16777215
176
     1
 74
     1
176
     1
 91
        4
176
     1
 64
     7
176
     1
 65
   257
176
     1
 75
     1
176
     1
175
     1
176
     1
 42
1.0
176
     1
 92
        8
176
     1
 66
     7
176
     1
 43
1.0
176
     1
 76
     1
176
     1
 77
     6
176
     1
 78
     2
176
     1
 67
     7
176
     1
 79
     5
176
     1
170
     0
176
     1
171
     0
176
     1
290
     0
176
     1
 93
        1
176
     1
 44
0.0
176
     1
173
     0
176
     1
  0
VISUALSTYLE
  5
2B
102
{ACAD_REACTORS
330
2A
102
}
330
2A
100
AcDbVisualStyle
  2
Flat
 70
     0
177
     2
291
     1
 71
     2
176
     1
 72
     1
176
     1
 73
     1
176
     1
 90
        2
176
     1
 40
-0.6
176
     1
 41
30.0
176
     1
 62
     5
 63
     7
421
 16777215
176
     1
 74
     0
176
     1
 91
        4
176
     1
 64
     7
176
     1
 65
   257
176
     1
 75
     1
176
     1
175
     1
176
     1
 42
1.0
176
     1
 92
        8
176
     1
 66
     7
176
     1
 43
1.0
176
     1
 76
     1
176
     1
 77
     6
176
     1
 78
     2
176
     1
 67
     7
176
     1
 79
     5
176
     1
170
     0
176
     1
171
     0
176
     1
290
     0
176
     1
 93
       13
176
     1
 44
0.0
176
     1
173
     0
176
     1
  0
VISUALSTYLE
  5
2C
102
{ACAD_REACTORS
330
2A
102
}
330
2A
100
AcDbVisualStyle
  2
FlatWithEdges
 70
     1
177
     2
291
     1
 71
     2
176
     1
 72
     1
176
     1
 73
     1
176
     1
 90
        2
176
     1
 40
-0.6
176
     1
 41
30.0
176
     1
 62
     5
 63
     7
421
 16777215
176
     1
 74
     1
176
     1
 91
        4
176
     1
 64
     7
176
     1
 65
   257
176
     1
 75
     1
176
     1
175
     1
176
     1
 42
1.0
176
     1
 92
        0
176
     1
 66
   257
176
     1
 43
1.0
176
     1
 76
     1
176
     1
 77
     6
176
     1
 78
     2
176
     1
 67
     7
176
     1
 79
     5
176
     1
170
     0
176
     1
171
     0
176
     1
290
     0
176
     1
 93
       13
176
     1
 44
0.0
176
     1
173
     0
176
     1
  0
VISUALSTYLE
  5
2D
102
{ACAD_REACTORS
330
2A
102
}
330
2A
100
AcDbVisualStyle
  2
Gouraud
 70
     2
177
     2
291
     1
 71
     2
176
     1
 72
     2
176
     1
 73
     1
176
     1
 90
        2
176
     1
 40
-0.6
176
     1
 41
30.0
176
     1
 62
     5
 63
     7
421
 16777215
176
     1
 74
     0
176
     1
 91
        4
176
     1
 64
     7
176
     1
 65
   257
176
     1
 75
     1
176
     1
175
     1
176
     1
 42
1.0
176
     1
 92
        0
176
     1
 66
     7
176
     1
 43
1.0
176
     1
 76
     1
176
     1
 77
     6
176
     1
 78
     2
176
     1
 67
     7
176
     1
 79
     5
176
     1
170
     0
176
     1
171
     0
176
     1
290
     0
176
     1
 93
       13
176
     1
 44
0.0
176
     1
173
     0
176
     1
  0
VISUALSTYLE
  5
2E
102
{ACAD_REACTORS
330
2A
102
}
330
2A
100
AcDbVisualStyle
  2
GouraudWithEdges
 70
     3
177
     2
291
     1
 71
     2
176
     1
 72
     2
176
     1
 73
     1
176
     1
 90
        2
176
     1
 40
-0.6
176
     1
 41
30.0
176
     1
 62
     5
 63
     7
421
 16777215
176
     1
 74
     1
176
     1
 91
        4
176
     1
 64
     7
176
     1
 65
   257
176
     1
 75
     1
176
     1
175
     1
176
     1
 42
1.0
176
     1
 92
        0
176
     1
 66
   257
176
     1
 43
1.0
176
     1
 76
     1
176
     1
 77
     6
176
     1
 78
     2
176
     1
 67
     7
176
     1
 79
     5
176
     1
170
     0
176
     1
171
     0
176
     1
290
     0
176
     1
 93
       13
176
     1
 44
0.0
176
     1
173
     0
176
     1
  0
VISUALSTYLE
  5
38
102
{ACAD_REACTORS
330
2A
102
}
330
2A
100
AcDbVisualStyle
  2
Linepattern
 70
    14
177
     2
291
     1
 71
     2
176
     1
 72
     2
176
     1
 73
     0
176
     1
 90
        0
176
     1
 40
-0.6
176
     1
 41
-30.0
176
     1
 62
     5
 63
     7
421
 16777215
176
     1
 74
     1
176
     1
 91
        4
176
     1
 64
     7
176
     1
 65
   257
176
     1
 75
     7
176
     1
175
     7
176
     1
 42
1.0
176
     1
 92
        8
176
     1
 66
     7
176
     1
 43
1.0
176
     1
 76
     1
176
     1
 77
     6
176
     1
 78
     2
176
     1
 67
     7
176
     1
 79
     5
176
     1
170
     0
176
     1
171
     0
176
     1
290
     0
176
     1
 93
        1
176
     1
 44
0.0
176
     1
173
     0
176
     1
  0
VISUALSTYLE
  5
33
102
{ACAD_REACTORS
330
2A
102
}
330
2A
100
AcDbVisualStyle
  2
Realistic
 70
     8
177
     2
291
     0
 71
     2
176
     1
 72
     2
176
     1
 73
     0
176
     1
 90
        0
176
     1
 40
-0.6
176
     1
 41
-30.0
176
     1
 62
     5
 63
     7
421
 16777215
176
     1
 74
     1
176
     1
 91
        0
176
     1
 64
     7
176
     1
 65
   257
176
     1
 75
     1
176
     1
175
     1
176
     1
 42
1.0
176
     1
 92
        8
176
     1
 66
     8
424
  7895160
176
     1
 43
1.0
176
     1
 76
     1
176
     1
 77
     6
176
     1
 78
     2
176
     1
 67
     7
176
     1
 79
     5
176
     1
170
     0
176
     1
171
     0
176
     1
290
     0
176
     1
 93
       13
176
     1
 44
0.0
176
     1
173
     0
176
     1
  0
VISUALSTYLE
  5
37
102
{ACAD_REACTORS
330
2A
102
}
330
2A
100
AcDbVisualStyle
  2
Thicken
 70
    13
177
     2
291
     1
 71
     2
176
     1
 72
     2
176
     1
 73
     0
176
     1
 90
        0
176
     1
 40
-0.6
176
     1
 41
-30.0
176
     1
 62
     5
 63
     7
421
 16777215
176
     1
 74
     1
176
     1
 91
        4
176
     1
 64
     7
176
     1
 65
   257
176
     1
 75
     1
176
     1
175
     1
176
     1
 42
1.0
176
     1
 92
       12
176
     1
 66
     7
176
     1
 43
1.0
176
     1
 76
     1
176
     1
 77
     6
176
     1
 78
     2
176
     1
 67
     7
176
     1
 79
     5
176
     1
170
     0
176
     1
171
     0
176
     1
290
     0
176
     1
 93
        1
176
     1
 44
0.0
176
     1
173
     0
176
     1
  0
ENDSEC
  0
EOF
