<?xml version="1.0" encoding="utf-8"?>
<!-- Generator: Adobe Illustrator 24.3.0, SVG Export Plug-In . SVG Version: 6.00 Build 0)  -->
<svg version="1.1" id="TH_x5F_COLORS" xmlns="http://www.w3.org/2000/svg" xmlns:xlink="http://www.w3.org/1999/xlink" x="0px"
	 y="0px" viewBox="0 0 1080 1080" style="enable-background:new 0 0 1080 1080;" xml:space="preserve">
<style type="text/css">
	.st0{fill:#010202;}
	.st1{display:none;fill:#010202;}
	.st2{fill:#EFD285;}
	.st3{fill:#FDE8B8;}
	.st4{fill:#4F6237;}
	.st5{fill:#592F29;}
	.st6{fill:#6B5939;}
	.st7{fill:#704D2F;}
	.st8{fill:#FFFFFF;}
	.st9{fill:#50A689;}
</style>
<path id="FILL_x5F_000000" class="st0" d="M757.5,348.22c-2.26,30.12-19.5,58.13-51.23,83.27c-0.6,2.89-4.03,17.32-14.13,25.36
	c-0.45,5.35-0.83,11.79-0.84,18.46c0.56,2.29,5.27,24.03-10.41,44.98c-11.67,15.59-31.27,26.46-58.51,32.51
	c-1.09,2.81-5.31,14.83-4.51,32c16.89,17.59,37.58,47.3,46.81,92.88c0.4,0.34,0.81,0.66,1.22,1.01c0.26,0.22,0.42,0.52,0.45,0.86
	c0.05,0.49,1.12,12.02-6.58,22.43c-0.53,1.83-4.46,15.25-8.05,27.96c-0.04,0.13-3.43,11.89-3.5,24.94c-0.01,2.44-1.6,4.36-3.9,4.86
	c8.4,13.96,56.84,97.33,63.5,174.69c1.97,1.14,7.63,5.06,7.59,12.07c0.24,0.66,0.95,2.73,0.95,4.61c0,0.46-0.24,0.89-0.64,1.12
	c-0.56,0.34-10.13,5.91-24.39,5.91c-5.92,0-12.65-0.97-19.87-3.66c-1.4,0.57-2.89,0.9-4.41,0.95c-1.32,0.05-2.79,0.08-4.37,0.08
	c-10.11,0-24.71-1.19-33.49-7.23c-3.71-2.55-5.87-6.89-5.78-11.6c0.4-20.29-2.05-88.86-49.7-125.16
	c-7.96,15.67-12.24,31.2-14.37,41.03c-0.89,4.07-1.47,8.28-1.74,12.49c-3.95,61.61-15.18,81.78-23.9,87.84
	c-2.68,1.87-4.96,2.24-6.36,2.24c-0.25,0-0.47-0.01-0.66-0.03c-2.85,2.66-6.26,4.1-6.41,4.17c-0.07,0.03-0.14,0.05-0.21,0.07
	c-6.32,1.45-12.69,1.97-18.55,1.97c-14.06,0-25.2-2.98-25.85-3.16c-0.2-0.06-0.39-0.16-0.54-0.3c-2.47-2.27-3.19-5.08-3.4-6.28
	c-14.31-11.19-0.55-53.76,9.01-78.33c3.9-10,5.37-20.95,4.27-31.67c-4.32-41.94-5.22-81.06-5.36-88.11
	c-3.23-0.41-5.04-0.68-5.13-0.69c-0.4-0.07-0.75-0.31-0.94-0.66c-0.2-0.36-0.22-0.78-0.05-1.15c2.01-4.61,2.32-14.62,0.88-28.96
	c-0.77-7.62-2.13-15.58-4.17-24.33c-5.24-22.46-6.55-56.06-6.81-65.11c-39.76,25.49-68.49,41.9-71.3,43.5
	c-1.33,1.8-9.77,12.61-22.31,15.84c-0.95,1.66-4.13,6.76-9.01,9.85c0.24,0.47,0.41,1.01,0.48,1.61c0.12,1.14-0.12,2.31-0.71,3.38
	c-2.99,5.43-6.42,8.46-10.2,9.02c-0.42,0.06-0.84,0.09-1.24,0.09c-2.95,0-5.12-1.53-5.92-2.2c-0.32,0.04-0.64,0.07-0.95,0.07
	c-0.13,0-0.25-0.01-0.37-0.01c-3.12-0.15-5.06-2.15-5.85-3.16c-0.34,0.03-0.68,0.06-1.01,0.06c-1.41,0-2.74-0.26-3.98-0.77
	c-5.12-2.09-7.25-7.86-8.01-10.75c-4.48,2.15-8.77,3.6-12.78,4.3c-0.36,0.06-0.71,0.09-1.06,0.09c-2.37,0-4.45-1.38-5.39-3.65
	c-1.08-2.59-0.25-5.43,2.05-7.04c2.67-1.89,5.5-3.78,8.41-5.63c4.06-2.57,7.55-5.79,10.37-9.57c6.43-8.62,15.65-17.3,18.77-20.16
	c-0.29-0.09-0.55-0.26-0.72-0.52c-0.24-0.36-0.29-0.82-0.13-1.22c0.09-0.2,8.16-19,26.75-19.6c40.89-41.55,66.01-64.2,81.22-76.54
	c-1.71,0.23-3.43,0.34-5.1,0.34c-6.83,0-12.69-1.53-13.06-1.62c-0.19-0.05-0.37-0.15-0.52-0.28c-10.64-9.34-16.72-24.18-19.34-31.94
	c-1.07,3.49-2.6,6.06-2.69,6.22c-0.21,0.35-0.57,0.58-0.98,0.62c-0.41,0.04-0.82-0.11-1.09-0.41
	c-19.01-20.74-34.82-56.29-35.5-57.82c-1.53-0.35-3.08-0.81-4.64-1.4c-11.77-4.47-20.92-14.96-27.18-31.19
	c-0.23-0.64-4.39-12.08-2.74-23.57c-0.04-0.05-0.09-0.09-0.12-0.13c-32.58-44.57-40.54-88.81-23.68-131.5
	c14.01-35.47,42.22-61.05,57.78-73.14c9.32-7.23,17.93-15.25,25.6-23.83c39.17-43.84,73.56-57.08,95.52-60.47
	c21.34-3.29,35.12,1.67,38.31,2.99c12.4-7.93,29.42-12.77,50.89-14.42c13.4-1.04,26.6,2.16,38.12,9.25
	c14.6,8.98,34.33,24.77,45.46,49.02c2.39,5.22,4.28,10.6,5.67,16.13c3.53,0.75,16.83,4.6,31.14,21.74
	c8.97,10.74,19.36,28.23,27.34,56.15C731.75,272.52,760.71,305.31,757.5,348.22z"/>
<path id="OUTLINE_x5F_000000" class="st1" d="M729.72,270.28c-7.98-27.92-18.37-45.41-27.34-56.15
	c-14.31-17.14-27.61-20.99-31.14-21.74c-1.39-5.53-3.28-10.91-5.67-16.13c-11.13-24.25-30.86-40.04-45.46-49.02
	c-11.52-7.09-24.72-10.29-38.12-9.25c-21.47,1.65-38.49,6.49-50.89,14.42c-3.19-1.32-16.97-6.28-38.31-2.99
	c-21.96,3.39-56.35,16.63-95.52,60.47c-7.67,8.58-16.28,16.6-25.6,23.83c-15.56,12.09-43.77,37.67-57.78,73.14
	c-16.86,42.69-8.9,86.93,23.68,131.5c0.03,0.04,0.08,0.08,0.12,0.13c-1.65,11.49,2.51,22.93,2.74,23.57
	c6.26,16.23,15.41,26.72,27.18,31.19c1.56,0.59,3.11,1.05,4.64,1.4c0.68,1.53,16.49,37.08,35.5,57.82c0.27,0.3,0.68,0.45,1.09,0.41
	c0.41-0.04,0.77-0.27,0.98-0.62c0.09-0.16,1.62-2.73,2.69-6.22c2.62,7.76,8.7,22.6,19.34,31.94c0.15,0.13,0.33,0.23,0.52,0.28
	c0.37,0.09,6.23,1.62,13.06,1.62c1.67,0,3.39-0.11,5.1-0.34c-15.21,12.34-40.33,34.99-81.22,76.54c-18.59,0.6-26.66,19.4-26.75,19.6
	c-0.16,0.4-0.11,0.86,0.13,1.22c0.17,0.26,0.43,0.43,0.72,0.52c-3.12,2.86-12.34,11.54-18.77,20.16c-2.82,3.78-6.31,7-10.37,9.57
	c-2.91,1.85-5.74,3.74-8.41,5.63c-2.3,1.61-3.13,4.45-2.05,7.04c0.94,2.27,3.02,3.65,5.39,3.65c0.35,0,0.7-0.03,1.06-0.09
	c4.01-0.7,8.3-2.15,12.78-4.3c0.76,2.89,2.89,8.66,8.01,10.75c1.24,0.51,2.57,0.77,3.98,0.77c0.33,0,0.67-0.03,1.01-0.06
	c0.79,1.01,2.73,3.01,5.85,3.16c0.12,0,0.24,0.01,0.37,0.01c0.31,0,0.63-0.03,0.95-0.07c0.8,0.67,2.97,2.2,5.92,2.2
	c0.4,0,0.82-0.03,1.24-0.09c3.78-0.56,7.21-3.59,10.2-9.02c0.59-1.07,0.83-2.24,0.71-3.38c-0.07-0.6-0.24-1.14-0.48-1.61
	c4.88-3.09,8.06-8.19,9.01-9.85c12.54-3.23,20.98-14.04,22.31-15.84c2.81-1.6,31.54-18.01,71.3-43.5
	c0.26,9.05,1.57,42.65,6.81,65.11c2.04,8.75,3.4,16.71,4.17,24.33c1.44,14.34,1.13,24.35-0.88,28.96c-0.17,0.37-0.15,0.79,0.05,1.15
	c0.19,0.35,0.54,0.59,0.94,0.66c0.09,0.01,1.9,0.28,5.13,0.69c0.14,7.05,1.04,46.17,5.36,88.11c1.1,10.72-0.37,21.67-4.27,31.67
	c-9.56,24.57-23.32,67.14-9.01,78.33c0.21,1.2,0.93,4.01,3.4,6.28c0.15,0.14,0.34,0.24,0.54,0.3c0.65,0.18,11.79,3.16,25.85,3.16
	c5.86,0,12.23-0.52,18.55-1.97c0.07-0.02,0.14-0.04,0.21-0.07c0.15-0.07,3.56-1.51,6.41-4.17c0.19,0.02,0.41,0.03,0.66,0.03
	c1.4,0,3.68-0.37,6.36-2.24c8.72-6.06,19.95-26.23,23.9-87.84c0.27-4.21,0.85-8.42,1.74-12.49c2.13-9.83,6.41-25.36,14.37-41.03
	c47.65,36.3,50.1,104.87,49.7,125.16c-0.09,4.71,2.07,9.05,5.78,11.6c8.78,6.04,23.38,7.23,33.49,7.23c1.58,0,3.05-0.03,4.37-0.08
	c1.52-0.05,3.01-0.38,4.41-0.95c7.22,2.69,13.95,3.66,19.87,3.66c14.26,0,23.83-5.57,24.39-5.91c0.4-0.23,0.64-0.66,0.64-1.12
	c0-1.88-0.71-3.95-0.95-4.61c0.04-7.01-5.62-10.93-7.59-12.07c-6.66-77.36-55.1-160.73-63.5-174.69c2.3-0.5,3.89-2.42,3.9-4.86
	c0.07-13.05,3.46-24.81,3.5-24.94c3.59-12.71,7.52-26.13,8.05-27.96c7.7-10.41,6.63-21.94,6.58-22.43
	c-0.03-0.34-0.19-0.64-0.45-0.86c-0.41-0.35-0.82-0.67-1.22-1.01c-9.23-45.58-29.92-75.29-46.81-92.88
	c-0.8-17.17,3.42-29.19,4.51-32c27.24-6.05,46.84-16.92,58.51-32.51c15.68-20.95,10.97-42.69,10.41-44.98
	c0.01-6.67,0.39-13.11,0.84-18.46c10.1-8.04,13.53-22.47,14.13-25.36c31.73-25.14,48.97-53.15,51.23-83.27
	C760.71,305.31,731.75,272.52,729.72,270.28z M373.27,215.78c9.44-7.33,18.16-15.46,25.94-24.16
	c38.56-43.16,72.28-56.23,93.77-59.59c17.95-2.81,30.58,0.49,35.46,2.17c-5.02,3.59-9.2,7.75-12.51,12.47
	c-13.03,18.62-7.6,38.88-7.36,39.74c0.16,0.55,0.65,0.93,1.22,0.95c0.6,0,1.09-0.35,1.27-0.89c4.73-14.37,18.22-23.23,18.35-23.32
	c0.6-0.39,0.78-1.19,0.39-1.8c-0.39-0.6-1.2-0.77-1.8-0.38c-0.53,0.34-11.81,7.73-17.7,20.38c-0.85-6.83-1.07-20.59,7.79-33.22
	c11.12-15.86,32.69-25.13,64.1-27.55c12.86-0.99,25.51,2.07,36.56,8.87c18.39,11.31,42.23,31.68,50.15,63.98
	c-0.02,0.27,0.05,0.51,0.17,0.73c4.97,21.01,3.19,47.03-11.09,78.84c-3.76-2.33-7.65-4.4-11.6-6.23c13.92-31-0.45-45.31-10.35-51.1
	c-2.38-1.38-4.96-2.29-7.64-2.71c-1.17-0.19-2.36-0.28-3.55-0.28c-0.65,0-1.3,0.02-1.95,0.08c-17.27,1.52-32.49,15.58-44.4,40.85
	c-0.01,0.02-0.02,0.04-0.03,0.06c-1.59,3.39-3.13,6.97-4.6,10.75c-7.44,19.1-11.27,38.09-12.54,45.15
	c-32.13-41.57-8.64-88.56-8.4-89.03c0.33-0.64,0.08-1.43-0.56-1.75c-0.64-0.33-1.42-0.08-1.75,0.56
	c-0.27,0.51-6.49,12.77-8.37,30.57c-1.38,12.95-0.51,30.82,9.07,48.91c0.44,13.91-0.99,25.97-4.28,36.1
	c-1.06,3.25-2.3,6.29-3.74,9.14c-2.51,5-5.61,9.37-9.29,13.12c-6.66,6.78-14.16,10.26-20.15,12.04c-2.95,0.88-5.54,1.35-7.48,1.6
	c0.59-0.6,1.15-1.23,1.67-1.88c11.04-13.31,11.8-36.68,11.83-37.8c0.01-0.63-0.42-1.17-1.03-1.3c-0.62-0.14-1.24,0.19-1.48,0.78
	c-7.49,18.3-18.82,29.42-29.62,36.16c-4.63,2.9-9.15,4.98-13.24,6.49c-9.44,3.48-17.91,4.45-22.88,4.69
	c9.91-6.78,18.97-18.02,27.06-33.61c0.33-0.63,0.09-1.42-0.55-1.75s-1.42-0.08-1.75,0.56c-11.94,22.99-25.9,36.19-41.49,39.21
	c-0.18,0.04-0.36,0.07-0.53,0.1c-14.09,2.52-25.68-4.2-30.03-7.21c38.56-15.18,46.52-61.94,46.6-62.42c0.11-0.7-0.37-1.37-1.08-1.49
	c-0.71-0.11-1.37,0.37-1.49,1.08c-0.07,0.47-8.12,47.52-47.14,61.22c-0.44,0.15-0.76,0.53-0.85,0.98c-0.09,0.46,0.08,0.92,0.43,1.23
	c0.3,0.25,3.88,3.28,9.7,5.9c-8.65,12.47-12.55,36.59-13.67,44.86l-8.68-9.51c0.2-4.71-1.2-9.03-4.17-12.86
	c-5.19-6.67-13.92-9.91-22.78-8.45c-9.46,1.57-16.23,5.76-20.11,12.45c-1.24,2.15-2.12,4.42-2.72,6.74
	C266.95,315.22,338.85,242.51,373.27,215.78z M614.84,217.16c2.64-0.93,5.39-1.56,8.28-1.81c1.48-0.13,2.95-0.09,4.39,0.1
	c1.83,2.62,10.89,17.85-4.47,43.1c-4.22-1.1-8.33-1.98-12.24-2.7C619.23,238.91,615.97,221.78,614.84,217.16z M608.12,255.38
	c-12.26-2.07-22.13-2.47-26.31-2.54c7.42-15.24,17.42-28.92,30.58-34.7C613.49,223,616.31,239.55,608.12,255.38z M631.01,216.26
	c1.28,0.42,2.52,0.97,3.7,1.66c9.16,5.34,22.38,18.63,9.3,47.79c-6.11-2.67-12.32-4.78-18.36-6.46
	C638.83,237.15,634.07,222.18,631.01,216.26z M433.33,555.82c-13.83-12.34-19.78-35.26-19.83-35.49c-0.16-0.62-0.75-1.03-1.39-0.98
	c-0.63,0.06-1.13,0.58-1.17,1.22c-0.22,3.47-1.6,6.85-2.52,8.76c-16.12-18.27-29.73-46.85-33.05-54.08
	c10.79,1.56,20.07-1.83,23.43-3.3c6.93,18.14,20.29,33.94,39.72,46.97c14.68,9.85,32.86,18.14,54.08,24.7
	c0.25,0.71,0.75,1.87,1.66,3.19c-13.69-4.92-20.83-2.46-21.97-1.99c-0.46,0.12-1.57,0.51-3.7,1.71c-0.1,0.03-0.17,0.09-0.25,0.14
	c-2.66,1.52-6.81,4.25-13.12,9.14C446.76,558.82,435.29,556.29,433.33,555.82z M368.48,638.71c-0.46,3.22-2.97,11.71-16.53,18.85
	c-2.51-1.51-4.72-2.18-6.21-2.46C347.99,650.88,355.19,639.63,368.48,638.71z M332.04,707.43c-4.36-1.78-6.1-7.37-6.62-9.55
	c0.14-0.08,0.28-0.15,0.42-0.22c0.9-0.16,4.2-0.83,7.33-2.47c-0.11,1.56-0.19,3.19-0.23,4.86c-0.05,2.27,1.3,4.24,3.43,5.02
	c0.61,0.22,1.24,0.33,1.85,0.33c1.55,0,3.03-0.69,4.05-1.96c1.54-1.91,2.83-3.81,3.87-5.68c0.78,0,1.37,0.15,1.69,0.44
	c0.27,0.25,0.41,0.68,0.41,1.29c0,1.4-0.74,2.78-1.99,3.71C340.46,707.49,335.68,708.92,332.04,707.43z M342.04,711.1
	c-1.28-0.05-2.26-0.59-2.96-1.15c2.69-0.8,5.6-2.35,8.72-4.66c1.89-1.4,3.02-3.55,3.04-5.75c1.38-0.28,2.31-0.04,2.74,0.72
	c0.38,0.68,0.27,1.63-0.27,2.37C348.06,709.8,344.29,711.2,342.04,711.1z M358.3,705.47c-2.54,4.6-5.4,7.26-8.28,7.7
	c-1.39,0.22-2.62-0.12-3.55-0.54c2.86-1.42,5.85-4.25,8.94-8.47c0.41-0.56,0.69-1.18,0.85-1.82c0.87-0.12,1.56-0.05,1.93,0.22
	c0.27,0.21,0.44,0.57,0.5,1.09C358.76,704.24,358.62,704.89,358.3,705.47z M358.71,699.96c-0.72-0.25-1.57-0.32-2.54-0.21
	c-0.09-0.26-0.19-0.52-0.33-0.77c-0.61-1.1-2.15-2.71-5.65-1.96c-0.19-0.31-0.41-0.56-0.61-0.74c-0.57-0.52-1.32-0.83-2.21-0.99
	c0.09-0.2,0.19-0.41,0.27-0.61c0.92-2.25,2.2-4.33,3.79-6.18c1.03-1.2,1.87-2.3,2.49-3.27c0.39-0.61,0.21-1.41-0.4-1.8
	c-0.6-0.38-1.4-0.21-1.79,0.4c-0.56,0.86-1.32,1.87-2.27,2.97c-1.77,2.07-3.19,4.38-4.23,6.89c-1.07,2.62-2.75,5.34-4.98,8.11
	c-0.88,1.09-2.12,1.14-2.98,0.83c-0.86-0.31-1.76-1.14-1.73-2.52c0.21-9.68,1.95-18.41,1.97-18.5c0.14-0.7-0.31-1.39-1.02-1.53
	c-0.7-0.15-1.39,0.31-1.53,1.02c-0.05,0.26-0.94,4.75-1.53,10.91c-3.47,2.35-8.17,3.11-8.22,3.12c-0.14,0.02-0.29,0.07-0.42,0.14
	c-5.31,2.88-10.35,4.74-14.97,5.54c-1.92,0.34-3.15-0.86-3.61-1.98c-0.46-1.12-0.44-2.81,1.14-3.93c2.64-1.86,5.44-3.72,8.32-5.55
	c4.32-2.74,8.04-6.18,11.05-10.22c6.98-9.35,17.88-19.34,19.83-21.1c5.1,1.6,15.9,7.9,21.02,32.53
	C366.73,692.03,363.49,697.26,358.71,699.96z M369.92,689.14c-3.7-17.04-10.04-25.63-15.56-29.93c7.26-4.05,11.39-8.52,13.73-12.36
	c1.01-0.48,4.38-1.79,8.28,0.06c4.36,2.06,10.22,8.57,13.49,27.81C388.26,676.81,380.64,686.04,369.92,689.14z M392.19,673.02
	c-2.82-15.63-7.78-25.22-14.76-28.49c-2.96-1.38-5.68-1.33-7.67-0.93c1.11-2.66,1.36-4.73,1.41-5.7
	c65.27-66.34,89.93-84.12,98.12-88.85c7.39,0.06,13.45,2.43,18.01,7.06c9.09,9.24,10.78,25.5,10.59,37.5
	c-0.13,8.4-1.66,16.32-4.54,23.54c-3.44,8.63-7.57,13.41-12.28,14.21c-4.31,0.73-8.17-2.13-9.97-3.76c0,0,0,0,0-0.01
	c0.69-0.48,17.04-12.28,15.61-42.3c-0.03-0.72-0.64-1.26-1.36-1.24c-0.72,0.04-1.27,0.65-1.24,1.36
	c1.36,28.51-14.35,39.94-14.46,40.03C429.73,651.3,399.33,668.92,392.19,673.02z M476.48,750.41c1.7-5.48,1.87-15.11,0.5-28.68
	c-0.77-7.73-2.16-15.8-4.22-24.66c-5.56-23.87-6.65-60.6-6.79-66.17c0.95-0.61,1.91-1.23,2.87-1.85c1.65,1.62,5.74,5.03,10.81,5.03
	c0.6,0,1.21-0.05,1.84-0.15c5.67-0.95,10.48-6.27,14.28-15.81c2.99-7.53,4.58-15.76,4.72-24.47c0.2-12.5-1.61-29.48-11.34-39.37
	c-3.92-3.98-8.81-6.45-14.58-7.4c6.34-1.31,35.4-2.73,90.19,60.22c0.03,0.03,0.08,0.05,0.11,0.08c-1.09,2.81-2.44,5.6-4.1,8.32
	c-0.14,0.24-0.21,0.51-0.18,0.79c0.05,0.63,5.49,63.66,21.94,112.3c0.09,0.24,0.24,0.46,0.44,0.61c0.19,0.15,2.57,1.99,6.1,4.22
	c-3.79,8.12-9.98,17.66-11.51,19.98C528.03,756.96,485.11,751.6,476.48,750.41z M608.81,625.48c0.66,13.22,2.25,31.48,6.11,43.32
	c-5.41,8.26-2.19,18.11-0.96,21.18c-2.42,2.02-5.3,4.72-7.94,7.97c-0.69,0.54-4.99,3.76-11.07,5.45c-2.12,0.59-3.51,2.45-3.45,4.64
	c0.05,2.15,1.5,3.92,3.6,4.39c5.02,1.14,10.66,0.62,16.8-1.54c-0.76,4.07-3.11,13.7-9.78,26.35c-7.97-3.08-15.64-8.65-17.25-9.86
	c-15.55-46.21-21.16-105.34-21.66-110.89c4.33-7.24,6.61-14.9,7.65-22.25c0.06-0.17,0.08-0.35,0.07-0.53
	c2.16-16.21-1.73-30.81-3.33-35.89c4.37,0.36,6.91,0.48,7.03,0.48c1.05-0.03,2.09-0.08,3.13-0.12c0.01,0,0.02,0.01,0.03,0.02
	c0.1,0.04,6.12,2.61,14.93,8.63C593.26,572.02,597.17,606.3,608.81,625.48z M595.57,568.83c2.43,1.75,5.02,3.74,7.73,5.98
	c-0.05,2.53-0.45,12.39-3.26,19.35C597.51,583.39,596.14,573.52,595.57,568.83z M616.58,671.06c1.24,1.63,3.31,5.7,3.49,14.63
	c-0.1,0.02-0.18,0.03-0.19,0.03c-0.16,0.03-0.32,0.09-0.46,0.18c-0.12,0.08-1.42,0.91-3.32,2.36
	C614.96,685.07,612.96,677.5,616.58,671.06z M546.32,579.34c0.93-4.58,0.95-10.36,0.91-12.91c2.57-0.07,5.16-0.46,7.69-1.28
	c1,1.69,3.32,5.43,6.62,9.44l-1.32,8.93c-2.16,1.08-4.92,1.37-5.96,1.45L546.32,579.34z M552.5,586.91l-0.3,2.63
	c-2.33-2.41-4.61-4.7-6.84-6.87c0.09-0.21,0.17-0.42,0.25-0.64L552.5,586.91z M555.05,587.51c1.41-0.14,3.88-0.52,6.05-1.54
	l7.16,8.2c-0.49,3.38-1.27,6.82-2.4,10.24c-3.9-4.46-7.67-8.59-11.32-12.43L555.05,587.51z M562.79,583.94l0.99-6.75
	c1.58,1.73,3.31,3.43,5.19,4.99c0.06,2.73-0.03,5.58-0.3,8.51L562.79,583.94z M568.81,578.58c-5.61-5.22-9.8-11.7-11.41-14.37
	c2.71-1.2,5.34-2.94,7.8-5.37C566.25,562.21,568.21,569.52,568.81,578.58z M519.38,554.38c-1.94-1.29-4.18-1.98-6.47-2.01
	c-10.73-0.15-15.2-4.8-16.96-7.74c0.58,0.17,1.15,0.35,1.73,0.52c26.29,7.6,51.22,10.89,65.25,12.25
	C548.49,571.04,527.84,559.98,519.38,554.38z M543.31,580.69c-12.61-12.05-23.45-20.27-32.6-25.82c0.7,0.05,1.41,0.08,2.17,0.09
	c1.78,0.03,3.54,0.58,5.07,1.59c4.39,2.91,15.21,9.24,26.68,9.85C544.69,569.96,544.53,576.69,543.31,580.69z M519.36,956.82
	c-19.45,4.45-39.96-0.41-42.71-1.11c-1.52-1.51-2.09-3.3-2.3-4.25c1.41-1.01,5.03-3.43,9.95-5.52c0.61,1,1.69,2.57,3.08,3.8
	c0.17,0.15,0.39,0.26,0.62,0.3c0.37,0.07,6.4,1.18,13.81,1.18c3.83,0,8.03-0.29,12-1.19c0.06-0.01,0.11-0.02,0.16-0.04
	c0.27-0.1,2.29-0.86,3.62-2.37c2.33,1.57,4.62,3.54,6.83,6C522.27,955.47,519.86,956.59,519.36,956.82z M486.76,944.97
	c7.94-2.89,18.45-4.41,28.56,1.25c-0.73,0.64-1.7,1.12-2.16,1.3c-10.1,2.23-22.11,0.4-24.33,0.03
	C487.97,946.72,487.25,945.73,486.76,944.97z M713.71,950.36c-3.42,1.76-19.3,8.94-39.24,2.42c0.63-0.46,1.23-0.98,1.78-1.56
	c0.24-0.25,0.49-0.5,0.75-0.75c5.11,1.42,10.08,1.96,14.63,1.96c10.36,0,18.58-2.73,21.69-3.94
	C713.48,949.04,713.64,949.7,713.71,950.36z M712.81,945.9c-3.43,1.34-17.73,6.29-33.53,2.48c10.66-9,24.61-11.43,27.07-11.8
	C707.69,937.32,712.52,940.39,712.81,945.9z M705.19,934.13c-4.52,0.74-20.08,4.03-30.82,15.3c-1.02,1.06-2.19,1.89-3.46,2.47
	c-0.01,0.01-0.02,0.01-0.03,0.02c-1.24,0.55-2.56,0.87-3.92,0.91c-7.62,0.25-26.4,0.11-36.3-6.69c-2.99-2.05-4.73-5.57-4.65-9.41
	c0.4-20.65-2.11-90.58-51.09-127.55c4.08-7.68,9.06-15.32,15.12-22.27c0.47-0.54,0.41-1.36-0.13-1.83
	c-0.54-0.47-1.36-0.42-1.83,0.12c-19.44,22.3-27.95,51.42-31.29,66.8c-0.91,4.2-1.51,8.53-1.79,12.88
	c-4.06,63.35-15.9,80.91-22.59,85.73c-2.71,1.95-4.74,1.97-5.49,1.9c-13.89-15.97-30.78-13.77-42.1-9.43
	c-0.17,0.01-0.34,0.05-0.51,0.13c-0.06,0.03-0.1,0.09-0.16,0.13c-5.45,2.17-9.51,4.77-11.18,5.92c-9.08-7.81-5.41-35.03,10.18-75.09
	c4.05-10.38,5.58-21.75,4.44-32.87c-4.24-41.18-5.19-79.64-5.34-87.54c11.17,1.31,33.49,3.44,60.76,3.44
	c11.11,0,23.05-0.35,35.38-1.26c0.4-0.02,0.76-0.24,0.98-0.57c0.32-0.47,7.52-11.21,11.93-20.59c2.9,1.71,6.3,3.49,9.81,4.86
	c-0.35,1.81,0.46,3.44,1.65,4.4c1.77,1.43,4.12,1.39,5.85-0.09c3.21-2.74,6.27-5.64,9.13-8.66c-1.69,3.47-3.73,7.78-5.97,12.69
	c-0.94,2.08-0.24,4.37,1.71,5.57c1.95,1.19,4.31,0.78,5.73-1.01c1.99-2.5,3.96-4.92,5.89-7.27c-1.16,4.35-1.37,8.23-0.69,11.9
	c0.48,2.54,2.58,4.28,5.14,4.28c0.06,0,0.12,0,0.19,0c2.18-0.08,4.55-1.49,4.91-4.5c0.54-4.54,1.78-8.51,3.03-11.59
	c-0.31,4.08-0.09,7.65,0.65,10.68c0.39,1.6,1.42,2.81,2.77,3.42C645.06,765.88,698.03,853.3,705.19,934.13z M649.22,729.22
	c-0.14,0.49-3.52,12.21-3.6,25.64c0,1.59-1.15,2.29-2.13,2.41c-0.98,0.12-2.26-0.3-2.64-1.85c-1.08-4.44-0.92-10.25,0.48-17.28
	c0.12-0.61-0.2-1.21-0.76-1.45c-0.57-0.25-1.23-0.05-1.58,0.45c-0.23,0.33-5.56,8.14-6.92,19.5c-0.19,1.57-1.37,2.17-2.42,2.21
	c-1.03,0.02-2.37-0.51-2.68-2.15c-0.92-4.91-0.01-10.34,2.86-17.06c1.42-1.66,2.83-3.28,4.2-4.84c0.48-0.54,0.43-1.36-0.11-1.83
	c-0.54-0.48-1.36-0.43-1.84,0.11c-1.42,1.62-2.88,3.29-4.35,5.02h-0.01c-3.41,4.01-6.94,8.3-10.55,12.82
	c-0.72,0.91-1.68,0.81-2.33,0.41c-0.66-0.4-1.18-1.21-0.7-2.28c5.89-12.95,10.49-21.71,10.54-21.8c0.31-0.59,0.12-1.33-0.44-1.69
	c-0.56-0.37-1.31-0.25-1.73,0.28c-4.57,5.77-9.81,11.2-15.59,16.14c-0.92,0.79-1.91,0.54-2.53,0.04c-0.63-0.51-1.1-1.45-0.51-2.54
	c9.67-17.94,10.9-29.97,10.94-30.48c0.05-0.45-0.15-0.89-0.51-1.16c-0.37-0.27-0.85-0.33-1.27-0.16c-6.46,2.62-12.3,3.36-17.36,2.22
	c-1.14-0.26-1.56-1.16-1.58-1.92c-0.02-0.79,0.38-1.75,1.55-2.08c7.16-1.99,11.92-5.85,12.12-6.01c0.06-0.06,0.13-0.12,0.18-0.19
	c5.12-6.35,11.42-10.65,12.65-11.46c2.54-0.4,24.41-3.25,36.56,13.41C656.32,704.53,652.61,717.21,649.22,729.22z M658.55,699.19
	c-11.16-14.29-29.04-14.37-35.88-13.8c-0.15-6.39-1.22-10.52-2.4-13.16c0.75-1.42,3.31-5.45,8.94-6.8c6-1.44,16.84-0.01,34.59,14.89
	C663.89,682.47,663.89,691.12,658.55,699.19z M661.48,675.12c-13.18-10.21-24.25-14.32-32.94-12.2c-5.26,1.28-8.26,4.55-9.74,6.73
	c-0.53-0.72-1.01-1.18-1.34-1.45c-6.44-19.47-6.51-58.69-6.51-59.08c0-0.72-0.58-1.3-1.3-1.3c-0.72,0-1.3,0.58-1.3,1.3
	c0,0.5,0.01,4.54,0.21,10.45c-3.15-6.42-5.63-14.03-7.55-21.48c0.02-0.02,0.04-0.04,0.05-0.07c3.62-6.26,4.54-16.25,4.77-21.07
	c2.35,2.04,4.77,4.26,7.22,6.67C629.76,600.09,651.51,629.22,661.48,675.12z M615.18,582.08c-0.13-0.14-0.27-0.27-0.4-0.4
	c-13.36-13.14-25.44-20.47-31.63-23.76c13.23-0.74,25.31-2.23,36.21-4.47C617.83,557.81,614.93,567.99,615.18,582.08z M691.1,443.07
	c-0.25,1.66-0.92,6.47-1.49,12.92c0,0.02,0,0.03,0,0.04c-0.49,5.58-0.91,12.38-0.91,19.44c0,0.11,0.01,0.22,0.04,0.33
	c0.06,0.22,5.53,22.32-9.97,42.98c-11.35,15.13-30.55,25.69-57.27,31.57c-0.2,0-0.4,0.04-0.58,0.13
	c-13.53,2.93-28.96,4.68-46.28,5.22c-0.36-0.01-36.79-1.63-76.28-13.07c-36.28-10.5-82.67-31.67-97.61-72.9
	c-0.13-0.35-0.4-0.63-0.75-0.76c-0.35-0.14-0.74-0.12-1.07,0.05c-0.15,0.08-15.02,7.62-30.39,1.79
	c-11.06-4.19-19.7-14.18-25.67-29.67c-0.07-0.19-6.88-18.91,0.48-31.58c3.47-5.99,9.62-9.75,18.27-11.18
	c7.92-1.32,15.7,1.55,20.31,7.48c2.11,2.72,3.3,5.73,3.57,8.97c-14.04-11.6-31.52-2.11-31.71-2.01c-0.55,0.31-0.75,1.01-0.44,1.56
	c0.31,0.56,1.01,0.76,1.56,0.45c0.72-0.4,17.64-9.54,30.68,3.17c0.06,0.17,0.15,0.33,0.27,0.46l10.94,12
	c0.35,0.38,0.88,0.52,1.37,0.36c0.48-0.15,0.83-0.58,0.89-1.09c0.03-0.33,3.72-32.85,13.91-46.94c4.2,1.61,9.29,2.86,14.99,2.86
	c1.95,0,3.96-0.14,6.03-0.48c0.45-0.06,0.9-0.14,1.36-0.23c0.21-0.04,0.43-0.08,0.64-0.14c3.87-0.8,7.63-2.2,11.28-4.17
	c0.35,0.01,0.89,0.03,1.64,0.03c4.1,0,13.84-0.5,25.28-4.5c0.36-0.13,0.73-0.26,1.1-0.4c4.36-1.6,9.2-3.84,14.14-6.95
	c1.08-0.68,2.17-1.41,3.26-2.18c8.61-6.1,17.24-15.01,23.88-28.03c-1.08,7.91-3.74,20.3-10.34,28.46c-0.52,0.65-1.06,1.27-1.64,1.86
	c-0.86,0.89-1.79,1.71-2.78,2.45c-0.44,0.33-0.63,0.91-0.46,1.44c0.15,0.46,0.54,0.8,1.01,0.88c0.06,0.01,0.13,0.02,0.2,0.02
	c0.4,0.01,5.47,0.06,12.31-2.01c1.02-0.32,2.08-0.67,3.18-1.09c5.57-2.1,11.92-5.64,17.76-11.56c3.75-3.81,6.93-8.23,9.52-13.25
	c0.31-0.6,0.61-1.2,0.9-1.82c1.08-2.26,2.05-4.64,2.9-7.13c0.22-0.64,0.43-1.3,0.64-1.96c2.82-9.04,4.23-19.52,4.22-31.37
	c2.05,3.33,4.4,6.66,7.13,9.96c0.25,0.3,0.62,0.47,1,0.47c0.11,0,0.23-0.02,0.34-0.05c0.5-0.14,0.87-0.55,0.94-1.06
	c0.08-0.53,4.81-30.74,17.18-57.42c6.67,0.03,49.88,1.07,80.51,22.76c1.54,1.09,3.01,2.26,4.42,3.49c0.01,0,0.01,0.01,0.01,0.01
	c0.01,0.01,0.01,0.01,0.02,0.02c7.65,6.65,13.4,15.24,16.74,25.15c4.49,13.27,9.95,32.67,12.89,55.13c0.09,0.74,0.19,1.49,0.28,2.25
	c0,0,0,0,0,0.01c0.5,4.13,0.92,8.37,1.23,12.68c0.06,0.9,0.12,1.8,0.17,2.71c0.67,11.19,0.58,22.88-0.62,34.76
	c-0.11,1.02-0.22,2.05-0.34,3.07c-0.73,6.24-1.78,12.52-3.2,18.8c-0.17,0.76-0.35,1.51-0.53,2.26c-0.3,1.27-0.62,2.53-0.95,3.79
	c-0.01,0.05-0.02,0.09-0.02,0.13c0,0.02-0.04,0.23-0.09,0.62V443.07z M754.9,348.03c-2.21,29.48-19.24,56.97-50.62,81.71
	c-0.25,0.2-0.41,0.48-0.47,0.79c-0.03,0.15-2.64,14.04-11.31,22.54c0.57-5.74,1.16-9.62,1.25-10.16c0.51-1.92,0.98-3.83,1.41-5.75
	c1.49-6.53,2.58-13.05,3.33-19.53c1.53-13.1,1.69-26.01,0.95-38.3c-0.33-5.44-0.83-10.75-1.47-15.91
	c-2.9-23.42-8.58-43.66-13.22-57.41c-3.33-9.85-8.94-18.47-16.37-25.28c2.81-2.45,10.99-8.69,18.55-5.74
	c6.94,2.71,15.5,14.14,16.86,53.23c0.02,0.7,0.6,1.26,1.3,1.26c0.01,0,0.03,0,0.04,0c0.72-0.03,1.28-0.63,1.26-1.35
	c-1.13-32.53-7.37-51.22-18.52-55.56c-9.24-3.6-18.58,3.82-21.47,6.43c-1.23-1.03-2.5-2.01-3.81-2.94c-0.79-0.56-1.59-1.1-2.4-1.64
	c13.01-28.82,16.93-55.36,11.72-79.17c4.49,1.27,16.26,5.82,28.67,20.78c14.6,17.6,33.06,53.57,38.12,124.94
	c0.05,0.69,0.62,1.21,1.3,1.21c0.03,0,0.06,0,0.09,0c0.72-0.05,1.26-0.67,1.21-1.39c-1.83-25.78-5.41-46.98-9.93-64.43
	C739.35,286.68,757.45,314.11,754.9,348.03z M586.41,693.29c-3.09,0-5.62,2.52-5.62,5.62c0,3.09,2.53,5.61,5.62,5.61
	c3.1,0,5.62-2.52,5.62-5.61C592.03,695.81,589.51,693.29,586.41,693.29z M586.41,701.92c-1.66,0-3.02-1.35-3.02-3.01
	c0-1.67,1.36-3.02,3.02-3.02c1.67,0,3.02,1.35,3.02,3.02C589.43,700.57,588.08,701.92,586.41,701.92z M586.16,665.53
	c0-3.1-2.52-5.62-5.62-5.62c-3.1,0-5.62,2.52-5.62,5.62c0,3.1,2.52,5.62,5.62,5.62C583.64,671.15,586.16,668.63,586.16,665.53z
	 M580.54,668.55c-1.67,0-3.02-1.36-3.02-3.02c0-1.66,1.35-3.02,3.02-3.02c1.66,0,3.02,1.36,3.02,3.02
	C583.56,667.19,582.2,668.55,580.54,668.55z M581.84,634.52c0-3.09-2.52-5.61-5.62-5.61c-3.1,0-5.62,2.52-5.62,5.61
	c0,3.1,2.52,5.62,5.62,5.62C579.32,640.14,581.84,637.62,581.84,634.52z M573.2,634.52c0-1.66,1.36-3.01,3.02-3.01
	c1.66,0,3.02,1.35,3.02,3.01c0,1.67-1.36,3.02-3.02,3.02C574.56,637.54,573.2,636.19,573.2,634.52z M374.47,315.13
	c-3.05-30.88,17.04-51.4,29.29-60.88c4.12-3.19,8.73-5.61,12.72-7.63c39.64-20.04,45.01-54.75,45.06-55.1
	c0.1-0.71,0.76-1.2,1.47-1.1c0.71,0.1,1.2,0.76,1.1,1.47c-0.05,0.36-5.56,36.37-46.46,57.05c-3.88,1.96-8.36,4.31-12.3,7.37
	c-11.83,9.15-31.22,28.93-28.29,58.56c0.07,0.72-0.45,1.35-1.17,1.42c-0.04,0.01-0.08,0.01-0.13,0.01
	C375.1,316.3,374.54,315.8,374.47,315.13z"/>
<path id="CODE_x5F_EFD285" class="st2" d="M754.9,348.03c-2.21,29.48-19.24,56.97-50.62,81.71c-0.25,0.2-0.41,0.48-0.47,0.79
	c-0.03,0.15-2.64,14.04-11.31,22.54c0.57-5.74,1.16-9.62,1.25-10.16c0.51-1.92,0.98-3.83,1.41-5.75c1.49-6.53,2.58-13.05,3.33-19.53
	c1.53-13.1,1.69-26.01,0.95-38.3c-0.33-5.44-0.83-10.75-1.47-15.91c-2.9-23.42-8.58-43.66-13.22-57.41
	c-3.33-9.85-8.94-18.47-16.37-25.28c2.81-2.45,10.99-8.69,18.55-5.74c6.94,2.71,15.5,14.14,16.86,53.23c0.02,0.7,0.6,1.26,1.3,1.26
	c0.01,0,0.03,0,0.04,0c0.72-0.03,1.28-0.63,1.26-1.35c-1.13-32.53-7.37-51.22-18.52-55.56c-9.24-3.6-18.58,3.82-21.47,6.43
	c-1.23-1.03-2.5-2.01-3.81-2.94c-0.79-0.56-1.59-1.1-2.4-1.64c13.01-28.82,16.93-55.36,11.72-79.17
	c4.49,1.27,16.26,5.82,28.67,20.78c14.6,17.6,33.06,53.57,38.12,124.94c0.05,0.69,0.62,1.21,1.3,1.21c0.03,0,0.06,0,0.09,0
	c0.72-0.05,1.26-0.67,1.21-1.39c-1.83-25.78-5.41-46.98-9.93-64.43C739.35,286.68,757.45,314.11,754.9,348.03z M677.39,422.51
	c-0.15-0.66-0.33-1.31-0.55-1.94l-11.57,4.78c-0.4,0.16-0.65,0.57-0.62,1c0.07,0.88,0.09,1.77,0.05,2.62
	c-0.23,5.17-3.38,9.59-8.21,11.53c-4.71,1.89-9.69,0.96-13.32-2.5c-2.3-2.19-3.17-4.05-3.18-4.06c-0.21-0.46-0.73-0.69-1.2-0.54
	l-6.33,1.94c0.58,0.53,1.17,1.04,1.77,1.55c1.81,1.55,3.67,3.03,5.57,4.45c2.06,1.52,4.19,2.95,6.38,4.27
	c2.18,1.33,4.43,2.57,6.75,3.62c2.23,1.03,4.5,1.93,6.84,2.64c11.98-3.53,19.85-15.51,17.99-27.5
	C677.66,423.74,677.54,423.12,677.39,422.51z M552.92,220.54c0.33-0.64,0.08-1.43-0.56-1.75c-0.64-0.33-1.42-0.08-1.75,0.56
	c-0.27,0.51-6.49,12.77-8.37,30.57c-1.38,12.95-0.51,30.82,9.07,48.91c0.44,13.91-0.99,25.97-4.28,36.1
	c-1.06,3.25-2.3,6.29-3.74,9.14c-2.51,5-5.61,9.37-9.29,13.12c-6.66,6.78-14.16,10.26-20.15,12.04c-2.95,0.88-5.54,1.35-7.48,1.6
	c0.59-0.6,1.15-1.23,1.67-1.88c11.04-13.31,11.8-36.68,11.83-37.8c0.01-0.63-0.42-1.17-1.03-1.3c-0.62-0.14-1.24,0.19-1.48,0.78
	c-7.49,18.3-18.82,29.42-29.62,36.16c-4.63,2.9-9.15,4.98-13.24,6.49c-9.44,3.48-17.91,4.45-22.88,4.69
	c9.91-6.78,18.97-18.02,27.06-33.61c0.33-0.63,0.09-1.42-0.55-1.75s-1.42-0.08-1.75,0.56c-11.94,22.99-25.9,36.19-41.49,39.21
	c-0.18,0.04-0.36,0.07-0.53,0.1c-14.09,2.52-25.68-4.2-30.03-7.21c38.56-15.18,46.52-61.94,46.6-62.42c0.11-0.7-0.37-1.37-1.08-1.49
	c-0.71-0.11-1.37,0.37-1.49,1.08c-0.07,0.47-8.12,47.52-47.14,61.22c-0.44,0.15-0.76,0.53-0.85,0.98c-0.09,0.46,0.08,0.92,0.43,1.23
	c0.3,0.25,3.88,3.28,9.7,5.9c-8.65,12.47-12.55,36.59-13.67,44.86l-8.68-9.51c0.2-4.71-1.2-9.03-4.17-12.86
	c-5.19-6.67-13.92-9.91-22.78-8.45c-9.46,1.57-16.23,5.76-20.11,12.45c-1.24,2.15-2.12,4.42-2.72,6.74
	c-71.42-99.78,0.48-172.49,34.9-199.22c9.44-7.33,18.16-15.46,25.94-24.16c38.56-43.16,72.28-56.23,93.77-59.59
	c17.95-2.81,30.58,0.49,35.46,2.17c-5.02,3.59-9.2,7.75-12.51,12.47c-13.03,18.62-7.6,38.88-7.36,39.74
	c0.16,0.55,0.65,0.93,1.22,0.95c0.6,0,1.09-0.35,1.27-0.89c4.73-14.37,18.22-23.23,18.35-23.32c0.6-0.39,0.78-1.19,0.39-1.8
	c-0.39-0.6-1.2-0.77-1.8-0.38c-0.53,0.34-11.81,7.73-17.7,20.38c-0.85-6.83-1.07-20.59,7.79-33.22
	c11.12-15.86,32.69-25.13,64.1-27.55c12.86-0.99,25.51,2.07,36.56,8.87c18.39,11.31,42.23,31.68,50.15,63.98
	c-0.02,0.27,0.05,0.51,0.17,0.73c4.97,21.01,3.19,47.03-11.09,78.84c-3.76-2.33-7.65-4.4-11.6-6.23c13.92-31-0.45-45.31-10.35-51.1
	c-2.38-1.38-4.96-2.29-7.64-2.71c-1.17-0.19-2.36-0.28-3.55-0.28c-0.65,0-1.3,0.02-1.95,0.08c-17.27,1.52-32.49,15.58-44.4,40.85
	c-0.01,0.02-0.02,0.04-0.03,0.06c-1.59,3.39-3.13,6.97-4.6,10.75c-7.44,19.1-11.27,38.09-12.54,45.15
	C529.19,268,552.68,221.01,552.92,220.54z M464.11,191.89c0.1-0.71-0.39-1.37-1.1-1.47c-0.71-0.1-1.37,0.39-1.47,1.1
	c-0.05,0.35-5.42,35.06-45.06,55.1c-3.99,2.02-8.6,4.44-12.72,7.63c-12.25,9.48-32.34,30-29.29,60.88c0.07,0.67,0.63,1.17,1.29,1.17
	c0.05,0,0.09,0,0.13-0.01c0.72-0.07,1.24-0.7,1.17-1.42c-2.93-29.63,16.46-49.41,28.29-58.56c3.94-3.06,8.42-5.41,12.3-7.37
	C458.55,228.26,464.06,192.25,464.11,191.89z M634.71,217.92c-1.18-0.69-2.42-1.24-3.7-1.66c3.06,5.92,7.82,20.89-5.36,42.99
	c6.04,1.68,12.25,3.79,18.36,6.46C657.09,236.55,643.87,223.26,634.71,217.92z M627.51,215.45c-1.44-0.19-2.91-0.23-4.39-0.1
	c-2.89,0.25-5.64,0.88-8.28,1.81c1.13,4.62,4.39,21.75-4.04,38.69c3.91,0.72,8.02,1.6,12.24,2.7
	C638.4,233.3,629.34,218.07,627.51,215.45z M583.15,557.92c6.19,3.29,18.27,10.62,31.63,23.76c0.13,0.13,0.27,0.26,0.4,0.4
	c-0.25-14.09,2.65-24.27,4.18-28.63C608.46,555.69,596.38,557.18,583.15,557.92z M581.81,252.84c4.18,0.07,14.05,0.47,26.31,2.54
	c8.19-15.83,5.37-32.38,4.27-37.24C599.23,223.92,589.23,237.6,581.81,252.84z M586.41,695.89c-1.66,0-3.02,1.35-3.02,3.02
	c0,1.66,1.36,3.01,3.02,3.01c1.67,0,3.02-1.35,3.02-3.01C589.43,697.24,588.08,695.89,586.41,695.89z M580.54,662.51
	c-1.67,0-3.02,1.36-3.02,3.02c0,1.66,1.35,3.02,3.02,3.02c1.66,0,3.02-1.36,3.02-3.02C583.56,663.87,582.2,662.51,580.54,662.51z
	 M579.24,634.52c0-1.66-1.36-3.01-3.02-3.01c-1.66,0-3.02,1.35-3.02,3.01c0,1.67,1.36,3.02,3.02,3.02
	C577.88,637.54,579.24,636.19,579.24,634.52z M519.42,398.07l-11.57,4.77c-0.4,0.17-0.65,0.57-0.61,1c0.07,0.89,0.08,1.77,0.05,2.62
	c-0.23,5.17-3.38,9.59-8.21,11.53c-4.71,1.9-9.69,0.96-13.32-2.5c-2.3-2.19-3.17-4.05-3.18-4.06c-0.21-0.46-0.72-0.69-1.2-0.54
	l-9.24,2.82c0.22,0.64,0.47,1.26,0.76,1.87c3.37,7.49,10.45,13.01,18.94,14.32c0.03,0,0.05,0,0.07,0.01
	c0.93,0.11,1.86,0.19,2.79,0.26c0.33,0.01,0.67,0.02,1.01,0.02c13.75,0,24.94-11,24.94-24.51c0-1.95-0.23-3.85-0.68-5.67
	C519.82,399.35,519.63,398.7,519.42,398.07z M438.52,518.92c-19.43-13.03-32.79-28.83-39.72-46.97c-3.36,1.47-12.64,4.86-23.43,3.3
	c3.32,7.23,16.93,35.81,33.05,54.08c0.92-1.91,2.3-5.29,2.52-8.76c0.04-0.64,0.54-1.16,1.17-1.22c0.64-0.05,1.23,0.36,1.39,0.98
	c0.05,0.23,6,23.15,19.83,35.49c1.96,0.47,13.43,3,21.89-0.01c6.31-4.89,10.46-7.62,13.12-9.14c0.08-0.05,0.15-0.11,0.25-0.14
	c2.13-1.2,3.24-1.59,3.7-1.71c1.14-0.47,8.28-2.93,21.97,1.99c-0.91-1.32-1.41-2.48-1.66-3.19
	C471.38,537.06,453.2,528.77,438.52,518.92z"/>
<path id="CODE_x5F_FDE8B8" class="st3" d="M653.84,389.52c0.25,0,0.51,0,0.77,0.01c0.03-0.01,24.36,0.2,41.62,24.86
	c1.2-11.88,1.29-23.57,0.62-34.76c-26.63-22.51-73.9-11.31-74.38-11.19c-0.42,0.1-0.87-0.08-1.09-0.45
	c-0.23-0.38-0.18-0.86,0.11-1.18c20.34-22.93,64.07-8.4,73.68-4.83c-2.94-22.46-8.4-41.86-12.89-55.13
	c-3.34-9.91-9.09-18.5-16.74-25.15c-0.01-0.01-0.01-0.01-0.02-0.02c0,0,0-0.01-0.01-0.01c-1.41-1.23-2.88-2.4-4.42-3.49
	c-30.63-21.69-73.84-22.73-80.51-22.76c-12.37,26.68-17.1,56.89-17.18,57.42c-0.07,0.51-0.44,0.92-0.94,1.06
	c-0.11,0.03-0.23,0.05-0.34,0.05c-0.38,0-0.75-0.17-1-0.47c-2.73-3.3-5.08-6.63-7.13-9.96c0.01,11.85-1.4,22.33-4.22,31.37
	c3.51,1.97,14.47,9.24,16.63,24.32c0.07,0.44-0.17,0.88-0.58,1.06c-0.13,0.06-0.27,0.08-0.41,0.08c-0.29,0-0.57-0.12-0.77-0.36
	c-0.1-0.12-9.65-11.55-19.31-14.19c-2.59,5.02-5.77,9.44-9.52,13.25c-5.84,5.92-12.19,9.46-17.76,11.56
	c25.84,8.9,27.42,30.69,27.43,30.92c0.03,0.46-0.26,0.87-0.69,1.01c-0.18,0.06-0.36,0.06-0.53,0.02
	c-0.87,3.51-4.63,15.62-16.02,21.85c-5.36,3.33-11.33,5.78-17.58,7.14c-3.12,0.71-6.31,1.05-9.51,1.26c-3.21,0.12-6.41,0-9.6-0.33
	c-3.32-0.4-6.61-1.05-9.82-1.93v3.12c0,0.55-0.45,1-1,1c-0.56,0-1-0.45-1-1v-3.71c-1.55-0.48-3.09-1.01-4.6-1.61l-1.86,3.5
	c-0.18,0.34-0.53,0.53-0.88,0.53c-0.16,0-0.32-0.04-0.47-0.12c-0.49-0.26-0.68-0.86-0.42-1.35l1.77-3.32
	c-0.06-0.03-0.12-0.05-0.18-0.08c-1.63-0.7-3.24-1.47-4.82-2.3l-2.39,3.69c-0.19,0.29-0.51,0.45-0.84,0.45
	c-0.18,0-0.37-0.05-0.54-0.16c-0.46-0.3-0.6-0.92-0.3-1.38l2.31-3.54c-1.62-0.9-3.21-1.88-4.73-2.93l-3.22,4.2
	c-0.19,0.26-0.49,0.39-0.79,0.39c-0.21,0-0.43-0.06-0.61-0.2c-0.44-0.34-0.52-0.97-0.18-1.41l3.19-4.13
	c-1.11-0.82-2.19-1.69-3.23-2.6c-3.65-2.51-6.13-8.72-6.97-11.09c-0.11,0.05-0.22,0.06-0.32,0.06c-0.23,0-0.44-0.07-0.62-0.22
	c-10.26-8.12-13.99-17.81-15.04-21.17c-2.07,0.34-4.08,0.48-6.03,0.48c-5.7,0-10.79-1.25-14.99-2.86
	c-10.19,14.09-13.88,46.61-13.91,46.94c-0.06,0.51-0.41,0.94-0.89,1.09c-0.49,0.16-1.02,0.02-1.37-0.36l-10.94-12
	c-0.12-0.13-0.21-0.29-0.27-0.46c-13.04-12.71-29.96-3.57-30.68-3.17c-0.55,0.31-1.25,0.11-1.56-0.45
	c-0.31-0.55-0.11-1.25,0.44-1.56c0.19-0.1,17.67-9.59,31.71,2.01c-0.27-3.24-1.46-6.25-3.57-8.97c-4.61-5.93-12.39-8.8-20.31-7.48
	c-8.65,1.43-14.8,5.19-18.27,11.18c-7.36,12.67-0.55,31.39-0.48,31.58c5.97,15.49,14.61,25.48,25.67,29.67
	c15.37,5.83,30.24-1.71,30.39-1.79c0.33-0.17,0.72-0.19,1.07-0.05c0.35,0.13,0.62,0.41,0.75,0.76c14.94,41.23,61.33,62.4,97.61,72.9
	c39.49,11.44,75.92,13.06,76.28,13.07c17.32-0.54,32.75-2.29,46.28-5.22c0.18-0.09,0.38-0.13,0.58-0.13
	c26.72-5.88,45.92-16.44,57.27-31.57c15.5-20.66,10.03-42.76,9.97-42.98c-0.03-0.11-0.04-0.22-0.04-0.33
	c0-7.06,0.42-13.86,0.91-19.44c0-0.01,0-0.02,0-0.04c0.57-6.45,1.24-11.26,1.49-12.92c-1.46,3.18-4.03,7.09-8.34,9.28
	c-1.09,0.49-2.19,1.03-3.36,1.41l2.65,5.61c0.23,0.5,0.02,1.1-0.48,1.33c-0.14,0.07-0.28,0.1-0.43,0.1c-0.37,0-0.73-0.21-0.9-0.57
	l-2.76-5.85c-0.08,0.02-0.17,0.04-0.25,0.06l-1.93,0.45c-0.56,0.1-1.11,0.19-1.67,0.26l0.95,5.96c0.08,0.54-0.29,1.06-0.83,1.14
	c-0.06,0.01-0.11,0.01-0.16,0.01c-0.49,0-0.91-0.35-0.99-0.84l-0.97-6.07c-1.42,0.12-2.86,0.14-4.29,0.06
	c-0.09-0.01-0.18-0.01-0.27-0.02l0.37,5.37c0.04,0.55-0.38,1.02-0.93,1.06c-0.02,0-0.05,0-0.07,0c-0.52,0-0.96-0.4-1-0.93
	l-0.38-5.69c-1.3-0.16-2.59-0.38-3.86-0.65v4.24c0,0.56-0.44,1-1,1c-0.55,0-1-0.44-1-1v-4.73c-2.49-0.68-4.92-1.57-7.28-2.59
	c-4.87-2.14-9.41-4.94-13.63-8.11c-2.12-1.58-4.17-3.25-6.1-5.04c-0.34-0.32-0.68-0.63-1.02-0.96c-1.59-1.49-3.12-3.02-4.56-4.7
	c-0.2-0.23-0.28-0.52-0.25-0.79c-5.04-7.66-3.4-16.18-2.65-18.98c-0.06-0.01-0.12-0.04-0.18-0.07c-0.42-0.22-0.63-0.72-0.49-1.18
	C623.12,411.42,630.22,389.52,653.84,389.52z M617.59,484.7c-2.22,0.74-4.46,1.05-6.65,1.05c-5,0-9.72-1.6-13.23-3.22
	c-4.81-2.22-10.01-3.05-15.02-2.38c-15.19,2.02-27.29-4.67-27.8-4.96c-0.62-0.35-0.85-1.14-0.49-1.77c0.35-0.62,1.14-0.85,1.77-0.49
	c0.11,0.06,11.86,6.54,26.17,4.64c5.51-0.73,11.2,0.17,16.46,2.6c4.62,2.14,11.48,4.23,17.97,2.07c0.68-0.23,1.41,0.14,1.64,0.82
	C618.64,483.74,618.27,484.48,617.59,484.7z M657.16,701.65c-0.84,2.88-4.55,15.56-7.94,27.57c-0.14,0.49-3.52,12.21-3.6,25.64
	c0,1.59-1.15,2.29-2.13,2.41c-0.98,0.12-2.26-0.3-2.64-1.85c-1.08-4.44-0.92-10.25,0.48-17.28c0.12-0.61-0.2-1.21-0.76-1.45
	c-0.57-0.25-1.23-0.05-1.58,0.45c-0.23,0.33-5.56,8.14-6.92,19.5c-0.19,1.57-1.37,2.17-2.42,2.21c-1.03,0.02-2.37-0.51-2.68-2.15
	c-0.92-4.91-0.01-10.34,2.86-17.06c1.42-1.66,2.83-3.28,4.2-4.84c0.48-0.54,0.43-1.36-0.11-1.83c-0.54-0.48-1.36-0.43-1.84,0.11
	c-1.42,1.62-2.88,3.29-4.35,5.02h-0.01c-3.41,4.01-6.94,8.3-10.55,12.82c-0.72,0.91-1.68,0.81-2.33,0.41
	c-0.66-0.4-1.18-1.21-0.7-2.28c5.89-12.95,10.49-21.71,10.54-21.8c0.31-0.59,0.12-1.33-0.44-1.69c-0.56-0.37-1.31-0.25-1.73,0.28
	c-4.57,5.77-9.81,11.2-15.59,16.14c-0.92,0.79-1.91,0.54-2.53,0.04c-0.63-0.51-1.1-1.45-0.51-2.54
	c9.67-17.94,10.9-29.97,10.94-30.48c0.05-0.45-0.15-0.89-0.51-1.16c-0.37-0.27-0.85-0.33-1.27-0.16c-6.46,2.62-12.3,3.36-17.36,2.22
	c-1.14-0.26-1.56-1.16-1.58-1.92c-0.02-0.79,0.38-1.75,1.55-2.08c7.16-1.99,11.92-5.85,12.12-6.01c0.06-0.06,0.13-0.12,0.18-0.19
	c5.12-6.35,11.42-10.65,12.65-11.46C623.14,687.84,645.01,684.99,657.16,701.65z M497.68,545.15c26.29,7.6,51.22,10.89,65.25,12.25
	c-14.44,13.64-35.09,2.58-43.55-3.02c-1.94-1.29-4.18-1.98-6.47-2.01c-10.73-0.15-15.2-4.8-16.96-7.74
	C496.53,544.8,497.1,544.98,497.68,545.15z M492.69,366.63c8.61-6.1,17.24-15.01,23.88-28.03c-1.08,7.91-3.74,20.3-10.34,28.46
	C504.12,366.86,498.66,366.42,492.69,366.63z M367.57,690.56c-0.84,1.47-4.08,6.7-8.86,9.4c-0.72-0.25-1.57-0.32-2.54-0.21
	c-0.09-0.26-0.19-0.52-0.33-0.77c-0.61-1.1-2.15-2.71-5.65-1.96c-0.19-0.31-0.41-0.56-0.61-0.74c-0.57-0.52-1.32-0.83-2.21-0.99
	c0.09-0.2,0.19-0.41,0.27-0.61c0.92-2.25,2.2-4.33,3.79-6.18c1.03-1.2,1.87-2.3,2.49-3.27c0.39-0.61,0.21-1.41-0.4-1.8
	c-0.6-0.38-1.4-0.21-1.79,0.4c-0.56,0.86-1.32,1.87-2.27,2.97c-1.77,2.07-3.19,4.38-4.23,6.89c-1.07,2.62-2.75,5.34-4.98,8.11
	c-0.88,1.09-2.12,1.14-2.98,0.83c-0.86-0.31-1.76-1.14-1.73-2.52c0.21-9.68,1.95-18.41,1.97-18.5c0.14-0.7-0.31-1.39-1.02-1.53
	c-0.7-0.15-1.39,0.31-1.53,1.02c-0.05,0.26-0.94,4.75-1.53,10.91c-3.47,2.35-8.17,3.11-8.22,3.12c-0.14,0.02-0.29,0.07-0.42,0.14
	c-5.31,2.88-10.35,4.74-14.97,5.54c-1.92,0.34-3.15-0.86-3.61-1.98c-0.46-1.12-0.44-2.81,1.14-3.93c2.64-1.86,5.44-3.72,8.32-5.55
	c4.32-2.74,8.04-6.18,11.05-10.22c6.98-9.35,17.88-19.34,19.83-21.1C351.65,659.63,362.45,665.93,367.57,690.56z M358.69,703.65
	c0.07,0.59-0.07,1.24-0.39,1.82c-2.54,4.6-5.4,7.26-8.28,7.7c-1.39,0.22-2.62-0.12-3.55-0.54c2.86-1.42,5.85-4.25,8.94-8.47
	c0.41-0.56,0.69-1.18,0.85-1.82c0.87-0.12,1.56-0.05,1.93,0.22C358.46,702.77,358.63,703.13,358.69,703.65z M342.04,711.1
	c-1.28-0.05-2.26-0.59-2.96-1.15c2.69-0.8,5.6-2.35,8.72-4.66c1.89-1.4,3.02-3.55,3.04-5.75c1.38-0.28,2.31-0.04,2.74,0.72
	c0.38,0.68,0.27,1.63-0.27,2.37C348.06,709.8,344.29,711.2,342.04,711.1z M346.25,703.2c-5.79,4.29-10.57,5.72-14.21,4.23
	c-4.36-1.78-6.1-7.37-6.62-9.55c0.14-0.08,0.28-0.15,0.42-0.22c0.9-0.16,4.2-0.83,7.33-2.47c-0.11,1.56-0.19,3.19-0.23,4.86
	c-0.05,2.27,1.3,4.24,3.43,5.02c0.61,0.22,1.24,0.33,1.85,0.33c1.55,0,3.03-0.69,4.05-1.96c1.54-1.91,2.83-3.81,3.87-5.68
	c0.78,0,1.37,0.15,1.69,0.44c0.27,0.25,0.41,0.68,0.41,1.29C348.24,700.89,347.5,702.27,346.25,703.2z"/>
<path id="CODE_x5F_4F6237" class="st4" d="M705.19,934.13c-4.52,0.74-20.08,4.03-30.82,15.3c-1.02,1.06-2.19,1.89-3.46,2.47
	c-0.01,0.01-0.02,0.01-0.03,0.02c-1.24,0.55-2.56,0.87-3.92,0.91c-7.62,0.25-26.4,0.11-36.3-6.69c-2.99-2.05-4.73-5.57-4.65-9.41
	c0.4-20.65-2.11-90.58-51.09-127.55c4.08-7.68,9.06-15.32,15.12-22.27c0.47-0.54,0.41-1.36-0.13-1.83
	c-0.54-0.47-1.36-0.42-1.83,0.12c-19.44,22.3-27.95,51.42-31.29,66.8c-0.91,4.2-1.51,8.53-1.79,12.88
	c-4.06,63.35-15.9,80.91-22.59,85.73c-2.71,1.95-4.74,1.97-5.49,1.9c-13.89-15.97-30.78-13.77-42.1-9.43
	c-0.17,0.01-0.34,0.05-0.51,0.13c-0.06,0.03-0.1,0.09-0.16,0.13c-5.45,2.17-9.51,4.77-11.18,5.92c-9.08-7.81-5.41-35.03,10.18-75.09
	c4.05-10.38,5.58-21.75,4.44-32.87c-4.24-41.18-5.19-79.64-5.34-87.54c11.17,1.31,33.49,3.44,60.76,3.44
	c11.11,0,23.05-0.35,35.38-1.26c0.4-0.02,0.76-0.24,0.98-0.57c0.32-0.47,7.52-11.21,11.93-20.59c2.9,1.71,6.3,3.49,9.81,4.86
	c-0.35,1.81,0.46,3.44,1.65,4.4c1.77,1.43,4.12,1.39,5.85-0.09c3.21-2.74,6.27-5.64,9.13-8.66c-1.69,3.47-3.73,7.78-5.97,12.69
	c-0.94,2.08-0.24,4.37,1.71,5.57c1.95,1.19,4.31,0.78,5.73-1.01c1.99-2.5,3.96-4.92,5.89-7.27c-1.16,4.35-1.37,8.23-0.69,11.9
	c0.48,2.54,2.58,4.28,5.14,4.28c0.06,0,0.12,0,0.19,0c2.18-0.08,4.55-1.49,4.91-4.5c0.54-4.54,1.78-8.51,3.03-11.59
	c-0.31,4.08-0.09,7.65,0.65,10.68c0.39,1.6,1.42,2.81,2.77,3.42C645.06,765.88,698.03,853.3,705.19,934.13z M567.6,557.82
	c4.37,0.36,6.91,0.48,7.03,0.48c1.05-0.03,2.09-0.08,3.13-0.12c0.01,0,0.02,0.01,0.03,0.02c0.1,0.04,6.12,2.61,14.93,8.63
	c0.54,5.19,4.45,39.47,16.09,58.65c0.66,13.22,2.25,31.48,6.11,43.32c-5.41,8.26-2.19,18.11-0.96,21.18
	c-2.42,2.02-5.3,4.72-7.94,7.97c-0.69,0.54-4.99,3.76-11.07,5.45c-2.12,0.59-3.51,2.45-3.45,4.64c0.05,2.15,1.5,3.92,3.6,4.39
	c5.02,1.14,10.66,0.62,16.8-1.54c-0.76,4.07-3.11,13.7-9.78,26.35c-7.97-3.08-15.64-8.65-17.25-9.86
	c-15.55-46.21-21.16-105.34-21.66-110.89c4.33-7.24,6.61-14.9,7.65-22.25c0.06-0.17,0.08-0.35,0.07-0.53
	C573.09,577.5,569.2,562.9,567.6,557.82z M586.41,693.29c-3.09,0-5.62,2.52-5.62,5.62c0,3.09,2.53,5.61,5.62,5.61
	c3.1,0,5.62-2.52,5.62-5.61C592.03,695.81,589.51,693.29,586.41,693.29z M580.54,659.91c-3.1,0-5.62,2.52-5.62,5.62
	c0,3.1,2.52,5.62,5.62,5.62c3.1,0,5.62-2.52,5.62-5.62C586.16,662.43,583.64,659.91,580.54,659.91z M570.6,634.52
	c0,3.1,2.52,5.62,5.62,5.62c3.1,0,5.62-2.52,5.62-5.62c0-3.09-2.52-5.61-5.62-5.61C573.12,628.91,570.6,631.43,570.6,634.52z
	 M476.98,721.73c1.37,13.57,1.2,23.2-0.5,28.68c8.63,1.19,51.55,6.55,101.08,2.99c1.53-2.32,7.72-11.86,11.51-19.98
	c-3.53-2.23-5.91-4.07-6.1-4.22c-0.2-0.15-0.35-0.37-0.44-0.61c-16.45-48.64-21.89-111.67-21.94-112.3
	c-0.03-0.28,0.04-0.55,0.18-0.79c1.66-2.72,3.01-5.51,4.1-8.32c-0.03-0.03-0.08-0.05-0.11-0.08
	c-54.79-62.95-83.85-61.53-90.19-60.22c5.77,0.95,10.66,3.42,14.58,7.4c9.73,9.89,11.54,26.87,11.34,39.37
	c-0.14,8.71-1.73,16.94-4.72,24.47c-3.8,9.54-8.61,14.86-14.28,15.81c-0.63,0.1-1.24,0.15-1.84,0.15c-5.07,0-9.16-3.41-10.81-5.03
	c-0.96,0.62-1.92,1.24-2.87,1.85c0.14,5.57,1.23,42.3,6.79,66.17C474.82,705.93,476.21,714,476.98,721.73z"/>
<path id="CODE_x5F_592F29" class="st5" d="M713.71,950.36c-3.42,1.76-19.3,8.94-39.24,2.42c0.63-0.46,1.23-0.98,1.78-1.56
	c0.24-0.25,0.49-0.5,0.75-0.75c5.11,1.42,10.08,1.96,14.63,1.96c10.36,0,18.58-2.73,21.69-3.94
	C713.48,949.04,713.64,949.7,713.71,950.36z M712.81,945.9c-0.29-5.51-5.12-8.58-6.46-9.32c-2.46,0.37-16.41,2.8-27.07,11.8
	C695.08,952.19,709.38,947.24,712.81,945.9z M555.05,587.51l-0.51,4.47c3.65,3.84,7.42,7.97,11.32,12.43
	c1.13-3.42,1.91-6.86,2.4-10.24l-7.16-8.2C558.93,586.99,556.46,587.37,555.05,587.51z M561.54,574.59
	c-3.3-4.01-5.62-7.75-6.62-9.44c-2.53,0.82-5.12,1.21-7.69,1.28c0.04,2.55,0.02,8.33-0.91,12.91l7.94,5.63
	c1.04-0.08,3.8-0.37,5.96-1.45L561.54,574.59z M517.59,947.62c-1.33,1.51-3.35,2.27-3.62,2.37c-0.05,0.02-0.1,0.03-0.16,0.04
	c-3.97,0.9-8.17,1.19-12,1.19c-7.41,0-13.44-1.11-13.81-1.18c-0.23-0.04-0.45-0.15-0.62-0.3c-1.39-1.23-2.47-2.8-3.08-3.8
	c-4.92,2.09-8.54,4.51-9.95,5.52c0.21,0.95,0.78,2.74,2.3,4.25c2.75,0.7,23.26,5.56,42.71,1.11c0.5-0.23,2.91-1.35,5.06-3.2
	C522.21,951.16,519.92,949.19,517.59,947.62z M513.16,947.52c0.46-0.18,1.43-0.66,2.16-1.3c-10.11-5.66-20.62-4.14-28.56-1.25
	c0.49,0.76,1.21,1.75,2.07,2.58C491.05,947.92,503.06,949.75,513.16,947.52z"/>
<path id="CODE_x5F_6B5939" class="st6" d="M622.47,368.44c-0.42,0.1-0.87-0.08-1.09-0.45c-0.23-0.38-0.18-0.86,0.11-1.18
	c20.34-22.93,64.07-8.4,73.68-4.83c0.09,0.74,0.19,1.49,0.28,2.25c0,0,0,0,0,0.01c0.5,4.13,0.92,8.37,1.23,12.68
	c0.06,0.9,0.12,1.8,0.17,2.71C670.22,357.12,622.95,368.32,622.47,368.44z M676.84,420.57l-11.57,4.78c-0.4,0.16-0.65,0.57-0.62,1
	c0.07,0.88,0.09,1.77,0.05,2.62c-0.23,5.17-3.38,9.59-8.21,11.53c-4.71,1.89-9.69,0.96-13.32-2.5c-2.3-2.19-3.17-4.05-3.18-4.06
	c-0.21-0.46-0.73-0.69-1.2-0.54l-6.33,1.94c-1.42-1.28-2.81-2.6-4.13-3.96c-0.87-6.3,0.78-12.57,4.66-17.7
	c3.95-5.24,9.77-8.68,16.37-9.71C661.62,402.08,673.18,409.33,676.84,420.57z M646.11,411.19c-1.82-1.04-3.98-1.23-6.08-0.53
	c-2.06,0.69-3.83,2.16-4.97,4.14c-1.15,1.98-1.54,4.24-1.1,6.37c0.44,2.18,1.68,3.95,3.5,5c1.11,0.64,2.33,0.95,3.57,0.95
	c1.44,0,2.89-0.42,4.19-1.19c1.3-0.78,2.46-1.91,3.29-3.36C650.89,418.44,649.81,413.34,646.11,411.19z M549.77,334.89
	c-0.21,0.66-0.42,1.32-0.64,1.96c-0.85,2.49-1.82,4.87-2.9,7.13c-0.29,0.62-0.59,1.22-0.9,1.82c9.66,2.64,19.21,14.07,19.31,14.19
	c0.2,0.24,0.48,0.36,0.77,0.36c0.14,0,0.28-0.02,0.41-0.08c0.41-0.18,0.65-0.62,0.58-1.06
	C564.24,344.13,553.28,336.86,549.77,334.89z M519.42,398.07l-11.57,4.77c-0.4,0.17-0.65,0.57-0.61,1c0.07,0.89,0.08,1.77,0.05,2.62
	c-0.23,5.17-3.38,9.59-8.21,11.53c-4.71,1.9-9.69,0.96-13.32-2.5c-2.3-2.19-3.17-4.05-3.18-4.06c-0.21-0.46-0.72-0.69-1.2-0.54
	l-9.24,2.82c-0.9-2.51-1.38-5.22-1.38-8.03c0-13.51,11.19-24.5,24.95-24.5C506.76,381.18,516.15,388.27,519.42,398.07z
	 M492.2,393.69c-0.45-2.18-1.69-3.95-3.51-5c-3.7-2.14-8.66-0.52-11.04,3.6c-1.15,1.98-1.54,4.25-1.11,6.38
	c0.45,2.17,1.69,3.95,3.51,5c1.11,0.64,2.33,0.94,3.56,0.94c1.44,0,2.89-0.41,4.2-1.19c1.3-0.78,2.45-1.92,3.28-3.36
	C492.24,398.08,492.63,395.81,492.2,393.69z"/>
<path id="CODE_x5F_704D2F" class="st7" d="M696.23,414.39c-0.11,1.02-0.22,2.05-0.34,3.07c-0.73,6.24-1.78,12.52-3.2,18.8
	c-0.17,0.76-0.35,1.51-0.53,2.26l-6.1,1.91c-0.1,0.03-0.2,0.04-0.3,0.04c-0.21,0-0.42-0.07-0.59-0.19
	c-0.26-0.19-0.41-0.49-0.41-0.81v-15.71c0-1.88-0.43-3.69-1.25-5.23c-5.87-11.12-15.17-16.12-20.91-18.26
	c-3.01-1.12-5.04-1.45-5.1-1.46c-18.99-2.94-32.59,13.59-32.72,13.76c-0.26,0.32-0.68,0.44-1.07,0.32
	c-0.06-0.01-0.12-0.04-0.18-0.07c-0.42-0.22-0.63-0.72-0.49-1.18c0.08-0.22,7.18-22.12,30.8-22.12c0.25,0,0.51,0,0.77,0.01
	C654.64,389.52,678.97,389.73,696.23,414.39z M682.76,452.35c-1.09,0.49-2.19,1.03-3.36,1.41l2.65,5.61c0.23,0.5,0.02,1.1-0.48,1.33
	c-0.14,0.07-0.28,0.1-0.43,0.1c-0.37,0-0.73-0.21-0.9-0.57l-2.76-5.85c-0.08,0.02-0.17,0.04-0.25,0.06l-1.93,0.45
	c-0.56,0.1-1.11,0.19-1.67,0.26l0.95,5.96c0.08,0.54-0.29,1.06-0.83,1.14c-0.06,0.01-0.11,0.01-0.16,0.01
	c-0.49,0-0.91-0.35-0.99-0.84l-0.97-6.07c-1.42,0.12-2.86,0.14-4.29,0.06c-0.09-0.01-0.18-0.01-0.27-0.02l0.37,5.37
	c0.04,0.55-0.38,1.02-0.93,1.06c-0.02,0-0.05,0-0.07,0c-0.52,0-0.96-0.4-1-0.93l-0.38-5.69c-1.3-0.16-2.59-0.38-3.86-0.65v4.24
	c0,0.56-0.44,1-1,1c-0.55,0-1-0.44-1-1v-4.73c-2.49-0.68-4.92-1.57-7.28-2.59c-4.87-2.14-9.41-4.94-13.63-8.11
	c-2.12-1.58-4.17-3.25-6.1-5.04c-0.34-0.32-0.68-0.63-1.02-0.96c-1.59-1.49-3.12-3.02-4.56-4.7c-0.2-0.23-0.28-0.52-0.25-0.79
	c0.01,0.02,0.02,0.04,0.03,0.05c-0.01-0.06-0.02-0.11-0.02-0.17c-0.98-6.87,0.8-13.7,5.02-19.28c4.27-5.65,10.55-9.37,17.67-10.47
	c4.37-0.68,8.67-0.28,12.6,1c8.29,2.7,14.97,9.32,17.4,17.96c0.29,1.01,0.52,2.04,0.68,3.1c1.86,11.99-5.26,23.95-16.55,28.7
	c1.42,0.33,2.86,0.59,4.31,0.77c1.68,0.19,3.36,0.28,5.05,0.26c0.85,0,1.72-0.04,2.58-0.09
	C677.69,453.51,680.23,453.01,682.76,452.35z M652.93,449.23c2.23,1.03,4.5,1.93,6.84,2.64c11.98-3.53,19.85-15.51,17.99-27.5
	c-0.1-0.63-0.22-1.25-0.37-1.86c-0.15-0.66-0.33-1.31-0.55-1.94c-3.66-11.24-15.22-18.49-27.48-16.6
	c-6.6,1.03-12.42,4.47-16.37,9.71c-3.88,5.13-5.53,11.4-4.66,17.7c1.32,1.36,2.71,2.68,4.13,3.96c0.58,0.53,1.17,1.04,1.77,1.55
	c1.81,1.55,3.67,3.03,5.57,4.45c2.06,1.52,4.19,2.95,6.38,4.27C648.36,446.94,650.61,448.18,652.93,449.23z M616.77,482.24
	c-6.49,2.16-13.35,0.07-17.97-2.07c-5.26-2.43-10.95-3.33-16.46-2.6c-14.31,1.9-26.06-4.58-26.17-4.64
	c-0.63-0.36-1.42-0.13-1.77,0.49c-0.36,0.63-0.13,1.42,0.49,1.77c0.51,0.29,12.61,6.98,27.8,4.96c5.01-0.67,10.21,0.16,15.02,2.38
	c3.51,1.62,8.23,3.22,13.23,3.22c2.19,0,4.43-0.31,6.65-1.05c0.68-0.22,1.05-0.96,0.82-1.64
	C618.18,482.38,617.45,482.01,616.77,482.24z M518.05,370.61c-1.1,0.42-2.16,0.77-3.18,1.09c-6.84,2.07-11.91,2.02-12.31,2.01
	c-0.07,0-0.14-0.01-0.2-0.02c-0.47-0.08-0.86-0.42-1.01-0.88c-0.17-0.53,0.02-1.11,0.46-1.44c0.99-0.74,1.92-1.56,2.78-2.45
	c0.58-0.59,1.12-1.21,1.64-1.86c-2.11-0.2-7.57-0.64-13.54-0.43c-1.09,0.77-2.18,1.5-3.26,2.18c-4.94,3.11-9.78,5.35-14.14,6.95
	c-0.37,0.14-0.74,0.27-1.1,0.4c-11.44,4-21.18,4.5-25.28,4.5c-0.75,0-1.29-0.02-1.64-0.03c-3.65,1.97-7.41,3.37-11.28,4.17
	c-0.21,0.06-0.43,0.1-0.64,0.14c-0.46,0.09-0.91,0.17-1.36,0.23c1.05,3.36,4.78,13.05,15.04,21.17c0.18,0.15,0.39,0.22,0.62,0.22
	c0.1,0,0.21-0.01,0.32-0.06c0.02,0,0.04-0.01,0.06-0.02c0.33-0.13,0.57-0.44,0.61-0.8c0.11-0.93,3.09-22.85,30.7-28.27
	c6.04-1.19,12.35-1.32,18.8-0.4c0.98,0.14,1.96,0.3,2.95,0.49c10.63,2.03,30.04,7.93,40.55,24.62c0.14,0.23,0.37,0.39,0.62,0.44
	c0.17,0.04,0.35,0.04,0.53-0.02c0.43-0.14,0.72-0.55,0.69-1.01C545.47,401.3,543.89,379.51,518.05,370.61z M510.29,429.56
	c6.11-0.96,12.1-2.78,17.95-5.15c-5.36,3.33-11.33,5.78-17.58,7.14c-3.12,0.71-6.31,1.05-9.51,1.26c-3.21,0.12-6.41,0-9.6-0.33
	c-3.32-0.4-6.61-1.05-9.82-1.93v3.12c0,0.55-0.45,1-1,1c-0.56,0-1-0.45-1-1v-3.71c-1.55-0.48-3.09-1.01-4.6-1.61l-1.86,3.5
	c-0.18,0.34-0.53,0.53-0.88,0.53c-0.16,0-0.32-0.04-0.47-0.12c-0.49-0.26-0.68-0.86-0.42-1.35l1.77-3.32
	c-0.06-0.03-0.12-0.05-0.18-0.08c-1.63-0.7-3.24-1.47-4.82-2.3l-2.39,3.69c-0.19,0.29-0.51,0.45-0.84,0.45
	c-0.18,0-0.37-0.05-0.54-0.16c-0.46-0.3-0.6-0.92-0.3-1.38l2.31-3.54c-1.62-0.9-3.21-1.88-4.73-2.93l-3.22,4.2
	c-0.19,0.26-0.49,0.39-0.79,0.39c-0.21,0-0.43-0.06-0.61-0.2c-0.44-0.34-0.52-0.97-0.18-1.41l3.19-4.13
	c-1.11-0.82-2.19-1.69-3.23-2.6c3.6,2.2,7.33,4.11,11.16,5.76c1.89,0.82,3.8,1.58,5.73,2.28c0.45,0.16,0.9,0.32,1.35,0.46
	c1.88,0.65,3.79,1.22,5.71,1.72c-4.59-2.98-8.21-7.32-10.25-12.42c-0.02-0.04-0.04-0.1-0.06-0.15c-1.18-2.97-1.82-6.19-1.82-9.56
	c0-14.61,12.09-26.5,26.95-26.5c1.39,0,2.76,0.1,4.1,0.31c10.4,1.56,18.87,9.01,21.76,18.78c0.03,0.07,0.05,0.14,0.06,0.21
	c0.67,2.29,1.02,4.71,1.02,7.2c0,10.91-6.73,20.3-16.32,24.36C507.65,429.92,508.97,429.75,510.29,429.56z M491.84,429.9
	c0.03,0,0.05,0,0.07,0.01c0.93,0.11,1.86,0.19,2.79,0.26c0.33,0.01,0.67,0.02,1.01,0.02c13.75,0,24.94-11,24.94-24.51
	c0-1.95-0.23-3.85-0.68-5.67c-0.15-0.66-0.34-1.31-0.55-1.94c-3.27-9.8-12.66-16.89-23.71-16.89c-13.76,0-24.95,10.99-24.95,24.5
	c0,2.81,0.48,5.52,1.38,8.03c0.22,0.64,0.47,1.26,0.76,1.87C476.27,423.07,483.35,428.59,491.84,429.9z"/>
<path id="CODE_x5F_FFFFFF" class="st8" d="M692.16,438.52c-0.3,1.27-0.62,2.53-0.95,3.79c-0.01,0.05-0.02,0.09-0.02,0.13
	c0,0.02-0.04,0.23-0.09,0.62v0.01c-1.46,3.18-4.03,7.09-8.34,9.28c-2.53,0.66-5.07,1.16-7.63,1.35c-0.86,0.05-1.73,0.09-2.58,0.09
	c-1.69,0.02-3.37-0.07-5.05-0.26c-1.45-0.18-2.89-0.44-4.31-0.77c11.29-4.75,18.41-16.71,16.55-28.7c-0.16-1.06-0.39-2.09-0.68-3.1
	c-2.43-8.64-9.11-15.26-17.4-17.96c-3.93-1.28-8.23-1.68-12.6-1c-7.12,1.1-13.4,4.82-17.67,10.47c-4.22,5.58-6,12.41-5.02,19.28
	c0,0.04-0.01,0.08-0.01,0.12c-5.04-7.66-3.4-16.18-2.65-18.98c0.39,0.12,0.81,0,1.07-0.32c0.13-0.17,13.73-16.7,32.72-13.76
	c0.06,0.01,2.09,0.34,5.1,1.46c5.74,2.14,15.04,7.14,20.91,18.26c0.82,1.54,1.25,3.35,1.25,5.23v15.71c0,0.32,0.15,0.62,0.41,0.81
	c0.17,0.12,0.38,0.19,0.59,0.19c0.1,0,0.2-0.01,0.3-0.04L692.16,438.52z M629.21,665.43c-5.63,1.35-8.19,5.38-8.94,6.8
	c1.18,2.64,2.25,6.77,2.4,13.16c6.84-0.57,24.72-0.49,35.88,13.8c5.34-8.07,5.34-16.72,5.25-18.87
	C646.05,665.42,635.21,663.99,629.21,665.43z M637.46,426.17c1.11,0.64,2.33,0.95,3.57,0.95c1.44,0,2.89-0.42,4.19-1.19
	c1.3-0.78,2.46-1.91,3.29-3.36c2.38-4.13,1.3-9.23-2.4-11.38c-1.82-1.04-3.98-1.23-6.08-0.53c-2.06,0.69-3.83,2.16-4.97,4.14
	c-1.15,1.98-1.54,4.24-1.1,6.37C634.4,423.35,635.64,425.12,637.46,426.17z M618.8,669.65c1.48-2.18,4.48-5.45,9.74-6.73
	c8.69-2.12,19.76,1.99,32.94,12.2c-9.97-45.9-31.72-75.03-48.43-91.5c-2.45-2.41-4.87-4.63-7.22-6.67
	c-0.23,4.82-1.15,14.81-4.77,21.07c-0.01,0.03-0.03,0.05-0.05,0.07c1.92,7.45,4.4,15.06,7.55,21.48c-0.2-5.91-0.21-9.95-0.21-10.45
	c0-0.72,0.58-1.3,1.3-1.3c0.72,0,1.3,0.58,1.3,1.3c0,0.39,0.07,39.61,6.51,59.08C617.79,668.47,618.27,668.93,618.8,669.65z
	 M616.1,688.26c1.9-1.45,3.2-2.28,3.32-2.36c0.14-0.09,0.3-0.15,0.46-0.18c0.01,0,0.09-0.01,0.19-0.03
	c-0.18-8.93-2.25-13-3.49-14.63C612.96,677.5,614.96,685.07,616.1,688.26z M595.57,568.83c0.57,4.69,1.94,14.56,4.47,25.33
	c2.81-6.96,3.21-16.82,3.26-19.35C600.59,572.57,598,570.58,595.57,568.83z M563.78,577.19l-0.99,6.75l5.88,6.75
	c0.27-2.93,0.36-5.78,0.3-8.51C567.09,580.62,565.36,578.92,563.78,577.19z M568.81,578.58c-0.6-9.06-2.56-16.37-3.61-19.74
	c-2.46,2.43-5.09,4.17-7.8,5.37C559.01,566.88,563.2,573.36,568.81,578.58z M545.36,582.67c2.23,2.17,4.51,4.46,6.84,6.87l0.3-2.63
	l-6.89-4.88C545.53,582.25,545.45,582.46,545.36,582.67z M517.95,556.55c-1.53-1.01-3.29-1.56-5.07-1.59
	c-0.76-0.01-1.47-0.04-2.17-0.09c9.15,5.55,19.99,13.77,32.6,25.82c1.22-4,1.38-10.73,1.32-14.29
	C533.16,565.79,522.34,559.46,517.95,556.55z M544.26,402.56c-0.25-0.05-0.48-0.21-0.62-0.44c-10.51-16.69-29.92-22.59-40.55-24.62
	c-0.99-0.19-1.97-0.35-2.95-0.49c-6.45-0.92-12.76-0.79-18.8,0.4c-27.61,5.42-30.59,27.34-30.7,28.27c-0.04,0.36-0.28,0.67-0.61,0.8
	c-0.02,0.01-0.04,0.02-0.06,0.02c0.84,2.37,3.32,8.58,6.97,11.09c3.6,2.2,7.33,4.11,11.16,5.76c1.89,0.82,3.8,1.58,5.73,2.28
	c0.45,0.16,0.9,0.32,1.35,0.46c1.88,0.65,3.79,1.22,5.71,1.72c-4.59-2.98-8.21-7.32-10.25-12.42c-0.02-0.04-0.04-0.1-0.06-0.15
	c-1.18-2.97-1.82-6.19-1.82-9.56c0-14.61,12.09-26.5,26.95-26.5c1.39,0,2.76,0.1,4.1,0.31c10.4,1.56,18.87,9.01,21.76,18.78
	c0.03,0.07,0.05,0.14,0.06,0.21c0.67,2.29,1.02,4.71,1.02,7.2c0,10.91-6.73,20.3-16.32,24.36c1.32-0.12,2.64-0.29,3.96-0.48
	c6.11-0.96,12.1-2.78,17.95-5.15C539.63,418.18,543.39,406.07,544.26,402.56z M469.29,549.05c-8.19,4.73-32.85,22.51-98.12,88.85
	c-0.05,0.97-0.3,3.04-1.41,5.7c1.99-0.4,4.71-0.45,7.67,0.93c6.98,3.27,11.94,12.86,14.76,28.49c7.14-4.1,37.54-21.72,77.46-47.58
	c0.11-0.09,15.82-11.52,14.46-40.03c-0.03-0.71,0.52-1.32,1.24-1.36c0.72-0.02,1.33,0.52,1.36,1.24
	c1.43,30.02-14.92,41.82-15.61,42.3c0,0.01,0,0.01,0,0.01c1.8,1.63,5.66,4.49,9.97,3.76c4.71-0.8,8.84-5.58,12.28-14.21
	c2.88-7.22,4.41-15.14,4.54-23.54c0.19-12-1.5-28.26-10.59-37.5C482.74,551.48,476.68,549.11,469.29,549.05z M491.09,400.06
	c1.15-1.98,1.54-4.25,1.11-6.37c-0.45-2.18-1.69-3.95-3.51-5c-3.7-2.14-8.66-0.52-11.04,3.6c-1.15,1.98-1.54,4.25-1.11,6.38
	c0.45,2.17,1.69,3.95,3.51,5c1.11,0.64,2.33,0.94,3.56,0.94c1.44,0,2.89-0.41,4.2-1.19C489.11,402.64,490.26,401.5,491.09,400.06z
	 M376.37,646.91c-3.9-1.85-7.27-0.54-8.28-0.06c-2.34,3.84-6.47,8.31-13.73,12.36c5.52,4.3,11.86,12.89,15.56,29.93
	c10.72-3.1,18.34-12.33,19.94-14.42C386.59,655.48,380.73,648.97,376.37,646.91z M368.48,638.71
	c-13.29,0.92-20.49,12.17-22.74,16.39c1.49,0.28,3.7,0.95,6.21,2.46C365.51,650.42,368.02,641.93,368.48,638.71z"/>
<path id="CODE_x5F_50A689" class="st9" d="M588.22,824.99c-4.22,10.73-6.83,20.58-8.34,27.56c-0.89,4.07-1.47,8.28-1.74,12.49
	c-3.95,61.61-15.18,81.78-23.9,87.84c-2.68,1.87-4.96,2.24-6.36,2.24c-0.25,0-0.47-0.01-0.66-0.03c-2.85,2.66-6.26,4.1-6.41,4.17
	c-0.07,0.03-0.14,0.05-0.21,0.07c-6.32,1.45-12.69,1.97-18.55,1.97c-3.79,0-7.37-0.22-10.59-0.54c2.84-0.31,5.72-0.77,8.6-1.43
	c0.07-0.02,0.14-0.04,0.21-0.07c0.15-0.07,3.56-1.51,6.41-4.17c0.19,0.02,0.41,0.03,0.66,0.03c1.4,0,3.68-0.37,6.36-2.24
	c8.72-6.06,19.95-26.23,23.9-87.84c0.27-4.21,0.85-8.42,1.74-12.49c2.13-9.83,6.41-25.36,14.37-41.03
	C579.11,815.63,583.92,820.16,588.22,824.99z M750.26,270.28c-7.98-27.92-18.37-45.41-27.34-56.15
	c-14.31-17.14-27.61-20.99-31.14-21.74c-1.39-5.53-3.28-10.91-5.67-16.13c-11.13-24.25-30.86-40.04-45.46-49.02
	c-11.52-7.09-24.72-10.29-38.12-9.25c-2.02,0.16-3.98,0.35-5.92,0.56c8.26,1.28,16.21,4.21,23.5,8.69
	c14.6,8.98,34.33,24.77,45.46,49.02c2.39,5.22,4.28,10.6,5.67,16.13c3.53,0.75,16.83,4.6,31.14,21.74
	c8.97,10.74,19.36,28.23,27.34,56.15c2.03,2.24,30.99,35.03,27.78,77.94c-2.26,30.12-19.5,58.13-51.23,83.27
	c-0.6,2.89-4.03,17.32-14.13,25.36c-0.45,5.35-0.83,11.79-0.84,18.46c0.56,2.29,5.27,24.03-10.41,44.98
	c-11.67,15.59-31.27,26.46-58.51,32.51c-1.09,2.81-5.31,14.83-4.51,32c16.89,17.59,37.58,47.3,46.81,92.88
	c0.4,0.34,0.81,0.66,1.22,1.01c0.26,0.22,0.42,0.52,0.45,0.86c0.05,0.49,1.12,12.02-6.58,22.43c-0.53,1.83-4.46,15.25-8.05,27.96
	c-0.04,0.13-3.43,11.89-3.5,24.94c-0.01,2.44-1.6,4.36-3.9,4.86c8.4,13.96,56.84,97.33,63.5,174.69c1.97,1.14,7.63,5.06,7.59,12.07
	c0.24,0.66,0.95,2.73,0.95,4.61c0,0.46-0.24,0.89-0.64,1.12c-0.41,0.25-5.69,3.31-14.11,4.93c3.62,0.69,7.06,0.98,10.26,0.98
	c14.26,0,23.83-5.57,24.39-5.91c0.4-0.23,0.64-0.66,0.64-1.12c0-1.88-0.71-3.95-0.95-4.61c0.04-7.01-5.62-10.93-7.59-12.07
	c-6.66-77.36-55.1-160.73-63.5-174.69c2.3-0.5,3.89-2.42,3.9-4.86c0.07-13.05,3.46-24.81,3.5-24.94
	c3.59-12.71,7.52-26.13,8.05-27.96c7.7-10.41,6.63-21.94,6.58-22.43c-0.03-0.34-0.19-0.64-0.45-0.86c-0.41-0.35-0.82-0.67-1.22-1.01
	c-9.23-45.58-29.92-75.29-46.81-92.88c-0.8-17.17,3.42-29.19,4.51-32c27.24-6.05,46.84-16.92,58.51-32.51
	c15.68-20.95,10.97-42.69,10.41-44.98c0.01-6.67,0.39-13.11,0.84-18.46c10.1-8.04,13.53-22.47,14.13-25.36
	c31.73-25.14,48.97-53.15,51.23-83.27C781.25,305.31,752.29,272.52,750.26,270.28z"/>
</svg>
