<?xml version="1.0" encoding="utf-8"?>
<!-- Generator: Adobe Illustrator 24.3.0, SVG Export Plug-In . SVG Version: 6.00 Build 0)  -->
<svg version="1.1" id="TH_x5F_GREEN" xmlns="http://www.w3.org/2000/svg" xmlns:xlink="http://www.w3.org/1999/xlink" x="0px"
	 y="0px" viewBox="0 0 1080 1080" style="enable-background:new 0 0 1080 1080;" xml:space="preserve">
<style type="text/css">
	.st0{fill:#50A68A;}
</style>
<path id="FILL_x5F_50A689" class="st0" d="M757.5,348.22c-2.26,30.12-19.5,58.13-51.23,83.27c-0.6,2.89-4.03,17.32-14.13,25.36
	c-0.45,5.35-0.83,11.79-0.84,18.46c0.56,2.29,5.27,24.03-10.41,44.98c-11.67,15.59-31.27,26.46-58.51,32.51
	c-1.09,2.81-5.31,14.83-4.51,32c16.89,17.59,37.58,47.3,46.81,92.88c0.4,0.34,0.81,0.66,1.22,1.01c0.26,0.22,0.42,0.52,0.45,0.86
	c0.05,0.49,1.12,12.02-6.58,22.43c-0.53,1.83-4.46,15.25-8.05,27.96c-0.04,0.13-3.43,11.89-3.5,24.94c-0.01,2.44-1.6,4.36-3.9,4.86
	c8.4,13.96,56.84,97.33,63.5,174.69c1.97,1.14,7.63,5.06,7.59,12.07c0.24,0.66,0.95,2.73,0.95,4.61c0,0.46-0.24,0.89-0.64,1.12
	c-0.56,0.34-10.13,5.91-24.39,5.91c-5.92,0-12.65-0.97-19.87-3.66c-1.4,0.57-2.89,0.9-4.41,0.95c-1.32,0.05-2.79,0.08-4.37,0.08
	c-10.11,0-24.71-1.19-33.49-7.23c-3.71-2.55-5.87-6.89-5.78-11.6c0.4-20.29-2.05-88.86-49.7-125.16
	c-7.96,15.67-12.24,31.2-14.37,41.03c-0.89,4.07-1.47,8.28-1.74,12.49c-3.95,61.61-15.18,81.78-23.9,87.84
	c-2.68,1.87-4.96,2.24-6.36,2.24c-0.25,0-0.47-0.01-0.66-0.03c-2.85,2.66-6.26,4.1-6.41,4.17c-0.07,0.03-0.14,0.05-0.21,0.07
	c-6.32,1.45-12.69,1.97-18.55,1.97c-14.06,0-25.2-2.98-25.85-3.16c-0.2-0.06-0.39-0.16-0.54-0.3c-2.47-2.27-3.19-5.08-3.4-6.28
	c-14.31-11.19-0.55-53.76,9.01-78.33c3.9-10,5.37-20.95,4.27-31.67c-4.32-41.94-5.22-81.06-5.36-88.11
	c-3.23-0.41-5.04-0.68-5.13-0.69c-0.4-0.07-0.75-0.31-0.94-0.66c-0.2-0.36-0.22-0.78-0.05-1.15c2.01-4.61,2.32-14.62,0.88-28.96
	c-0.77-7.62-2.13-15.58-4.17-24.33c-5.24-22.46-6.55-56.06-6.81-65.11c-39.76,25.49-68.49,41.9-71.3,43.5
	c-1.33,1.8-9.77,12.61-22.31,15.84c-0.95,1.66-4.13,6.76-9.01,9.85c0.24,0.47,0.41,1.01,0.48,1.61c0.12,1.14-0.12,2.31-0.71,3.38
	c-2.99,5.43-6.42,8.46-10.2,9.02c-0.42,0.06-0.84,0.09-1.24,0.09c-2.95,0-5.12-1.53-5.92-2.2c-0.32,0.04-0.64,0.07-0.95,0.07
	c-0.13,0-0.25-0.01-0.37-0.01c-3.12-0.15-5.06-2.15-5.85-3.16c-0.34,0.03-0.68,0.06-1.01,0.06c-1.41,0-2.74-0.26-3.98-0.77
	c-5.12-2.09-7.25-7.86-8.01-10.75c-4.48,2.15-8.77,3.6-12.78,4.3c-0.36,0.06-0.71,0.09-1.06,0.09c-2.37,0-4.45-1.38-5.39-3.65
	c-1.08-2.59-0.25-5.43,2.05-7.04c2.67-1.89,5.5-3.78,8.41-5.63c4.06-2.57,7.55-5.79,10.37-9.57c6.43-8.62,15.65-17.3,18.77-20.16
	c-0.29-0.09-0.55-0.26-0.72-0.52c-0.24-0.36-0.29-0.82-0.13-1.22c0.09-0.2,8.16-19,26.75-19.6c40.89-41.55,66.01-64.2,81.22-76.54
	c-1.71,0.23-3.43,0.34-5.1,0.34c-6.83,0-12.69-1.53-13.06-1.62c-0.19-0.05-0.37-0.15-0.52-0.28c-10.64-9.34-16.72-24.18-19.34-31.94
	c-1.07,3.49-2.6,6.06-2.69,6.22c-0.21,0.35-0.57,0.58-0.98,0.62c-0.41,0.04-0.82-0.11-1.09-0.41
	c-19.01-20.74-34.82-56.29-35.5-57.82c-1.53-0.35-3.08-0.81-4.64-1.4c-11.77-4.47-20.92-14.96-27.18-31.19
	c-0.23-0.64-4.39-12.08-2.74-23.57c-0.04-0.05-0.09-0.09-0.12-0.13c-32.58-44.57-40.54-88.81-23.68-131.5
	c14.01-35.47,42.22-61.05,57.78-73.14c9.32-7.23,17.93-15.25,25.6-23.83c39.17-43.84,73.56-57.08,95.52-60.47
	c21.34-3.29,35.12,1.67,38.31,2.99c12.4-7.93,29.42-12.77,50.89-14.42c13.4-1.04,26.6,2.16,38.12,9.25
	c14.6,8.98,34.33,24.77,45.46,49.02c2.39,5.22,4.28,10.6,5.67,16.13c3.53,0.75,16.83,4.6,31.14,21.74
	c8.97,10.74,19.36,28.23,27.34,56.15C731.75,272.52,760.71,305.31,757.5,348.22z"/>
</svg>
