<?xml version="1.0" encoding="utf-8"?>
<!-- Generator: Adobe Illustrator 24.3.0, SVG Export Plug-In . SVG Version: 6.00 Build 0)  -->
<svg version="1.1" id="SUGA_x5F_COLORS" xmlns="http://www.w3.org/2000/svg" xmlns:xlink="http://www.w3.org/1999/xlink" x="0px"
	 y="0px" viewBox="0 0 1080 1080" style="enable-background:new 0 0 1080 1080;" xml:space="preserve">
<style type="text/css">
	.st0{fill:#010202;}
	.st1{display:none;fill:#010202;}
	.st2{fill:#5A3C37;}
	.st3{fill:#FDE8B8;}
	.st4{fill:#433129;}
	.st5{fill:#969273;}
	.st6{fill:#B38F6C;}
	.st7{fill:#6E4F2E;}
	.st8{fill:#FFFFFF;}
	.st9{fill:#559AAE;}
</style>
<path id="FILL_x5F_000000" class="st0" d="M745.97,858.62c0-0.01,0-0.01-0.01-0.01c-1.34-3.25-2.63-6.27-3.8-8.96
	c-4.9-11.21-8.76-22.89-11.47-34.7c-6.63-28.88-10.71-58.5-12.99-78.68c19.23-12.48,29.68-24.91,31.01-36.94
	c1.08-9.77-4.41-15.45-4.64-15.68v-0.01c-0.03-0.02-0.06-0.03-0.08-0.05c-0.1-0.08-0.2-0.17-0.32-0.22c-0.01,0-0.02-0.01-0.03-0.01
	s-0.01,0-0.01,0c-20.37-8.24-31.12-36.24-32.12-38.96c0.65-45.77-4.74-92.61-5.21-96.66c16.79-54.03,22.64-118.05,23.65-130.35
	c0.08-0.94-0.38-1.82-1.18-2.31c-0.27-0.16-0.57-0.24-0.87-0.3v-0.03c31.54-36.93,22.46-58.89,17.06-66.64
	c-2.38-3.42-5.77-6.03-9.55-7.34c-2.23-0.78-4.26-0.99-6.1-0.8c4.99-9.34,20.89-43.54,19.49-97.12c3,4.27,4.82,7.4,4.86,7.48
	c0.24,0.42,0.68,0.66,1.13,0.66c0.18,0,0.37-0.04,0.54-0.12c0.62-0.29,0.91-0.99,0.69-1.62c-21.61-60.81-55.82-104.56-101.69-130.04
	c-37.98-21.11-74.63-24.07-93.16-23.97c-12.98,0.08-25.5,3.29-36.21,9.3c-14.03,7.86-21.99,18.4-26.38,28.92
	c-3.97-3.48-16.44-13.65-33.09-20c-18.77-7.15-46.8-10.8-73.75,12.44c-0.24,0.2-23.96,19.59-48.51,50.72
	c-22.69,28.76-50.75,73.74-55.64,124.66c-4.35,45.3,6.74,91.04,39.48,130.13c0.25,0.29,0.62,0.46,1,0.46c0.09,0,0.18-0.01,0.27-0.03
	c0.47-0.1,0.85-0.45,0.98-0.91l4.23-7.83c9.24,11.02,20.86,19.07,34.63,23.9c-0.28,2.75-0.53,10.31,3.55,19.84
	c4.6,10.77,15.88,26.2,43.44,38.57c0.14,1.59,0.54,3.17,1.23,4.65c1.25,2.71,3.97,6.46,9.46,6.46c1.51,0,3.24-0.3,5.2-0.97
	c7.93,19.75,24.06,35.41,44.08,42.5c14.82,5.24,31.91,7.87,51.11,7.87c6,0,12.23-0.28,18.65-0.79c-1.72,4.3-5.7,15.03-7.71,26.81
	c-1,2.26-13.23,30.67-20.37,76.41c-1.32,8.45-1.45,16.93-0.39,25.22c3.92,30.6,12.36,48.74,25.08,53.91
	c0.46,0.25,4.7,2.54,8.76,3.51c-0.95,2.96-2.02,5.66-3.21,8.08c-0.19,0.4-18.75,40.49-24.07,83.07c-0.3,2.33-0.96,4.65-1.99,6.88
	c-5.76,12.57-19.52,43.73-22.73,61.57c-0.21,1.16,0.07,2.32,0.73,3.25c-2.4,2.6-8.94,10.18-10.71,17.51
	c-0.01,0.01-0.02,0.02-0.02,0.03c-0.01,0.04-0.01,0.08-0.02,0.12c-0.51,2.2-0.6,4.37,0,6.38c0.1,0.31,0.31,0.58,0.6,0.75
	c0.18,0.1,13.04,7.35,29.51,7.35c6.79,0,14.2-1.23,21.58-4.71c0.22-0.11,0.42-0.28,0.55-0.5c0.08-0.13,1.18-1.95,2.55-4.99
	c1.28,0.27,3.53,0.65,6.02,0.65c3.58,0,7.65-0.79,10.02-3.81c2.12,0.32,4.33,0.5,6.63,0.5c1.66,0,3.36-0.09,5.11-0.3
	c2.77-0.32,4.89-2.68,4.94-5.47c0.28-17.32,4.27-105.15,54.83-138.51c20.32,5.51,33.65,27.17,41.56,45.78
	c6.52,15.32,10.7,31.97,12.44,49.5c1.65,16.69,2.59,34.55,3.01,43.71c0.08,1.91,1.03,3.62,2.6,4.69c1.03,0.71,2.22,1.07,3.42,1.07
	c0.66,0,1.32-0.11,1.96-0.32c0.97-0.33,1.94-0.67,2.9-1.01c1.35,1.96,5.03,6.11,12.04,6.11c0.15,0,0.3-0.02,0.45-0.02
	c0.64,1.28,1.13,2.09,1.19,2.19c0.12,0.21,0.31,0.37,0.53,0.48c8.26,4.1,16.34,5.46,23.45,5.46c14.13,0,24.41-5.4,24.56-5.48
	c0.36-0.19,0.61-0.54,0.67-0.94c0.5-3.15-0.58-7.66-1.4-10.45c0.55-0.01,1.1-0.12,1.63-0.35c1.55-0.67,2.53-2.15,2.55-3.84
	C764.43,907.05,754.16,878.44,745.97,858.62z"/>
<path id="OUTLINE_x5F_000000" class="st1" d="M745.97,858.62c0-0.01,0-0.01-0.01-0.01c-1.34-3.25-2.63-6.27-3.8-8.96
	c-4.9-11.21-8.76-22.89-11.47-34.7c-6.63-28.88-10.71-58.5-12.99-78.68c19.23-12.48,29.68-24.91,31.01-36.94
	c1.08-9.77-4.41-15.45-4.64-15.68v-0.01c-0.03-0.02-0.06-0.03-0.08-0.05c-0.1-0.08-0.2-0.17-0.32-0.22c-0.01,0-0.02-0.01-0.03-0.01
	s-0.01,0-0.01,0c-20.37-8.24-31.12-36.24-32.12-38.96c0.65-45.77-4.74-92.61-5.21-96.66c16.79-54.03,22.64-118.05,23.65-130.35
	c0.08-0.94-0.38-1.82-1.18-2.31c-0.27-0.16-0.57-0.24-0.87-0.3v-0.03c31.54-36.93,22.46-58.89,17.06-66.64
	c-2.38-3.42-5.77-6.03-9.55-7.34c-2.23-0.78-4.26-0.99-6.1-0.8c4.99-9.34,20.89-43.54,19.49-97.12c3,4.27,4.82,7.4,4.86,7.48
	c0.24,0.42,0.68,0.66,1.13,0.66c0.18,0,0.37-0.04,0.54-0.12c0.62-0.29,0.91-0.99,0.69-1.62c-21.61-60.81-55.82-104.56-101.69-130.04
	c-37.98-21.11-74.63-24.07-93.16-23.97c-12.98,0.08-25.5,3.29-36.21,9.3c-14.03,7.86-21.99,18.4-26.38,28.92
	c-3.97-3.48-16.44-13.65-33.09-20c-18.77-7.15-46.8-10.8-73.75,12.44c-0.24,0.2-23.96,19.59-48.51,50.72
	c-22.69,28.76-50.75,73.74-55.64,124.66c-4.35,45.3,6.74,91.04,39.48,130.13c0.25,0.29,0.62,0.46,1,0.46c0.09,0,0.18-0.01,0.27-0.03
	c0.47-0.1,0.85-0.45,0.98-0.91l4.23-7.83c9.24,11.02,20.86,19.07,34.63,23.9c-0.28,2.75-0.53,10.31,3.55,19.84
	c4.6,10.77,15.88,26.2,43.44,38.57c0.14,1.59,0.54,3.17,1.23,4.65c1.25,2.71,3.97,6.46,9.46,6.46c1.51,0,3.24-0.3,5.2-0.97
	c7.93,19.75,24.06,35.41,44.08,42.5c14.82,5.24,31.91,7.87,51.11,7.87c6,0,12.23-0.28,18.65-0.79c-1.72,4.3-5.7,15.03-7.71,26.81
	c-1,2.26-13.23,30.67-20.37,76.41c-1.32,8.45-1.45,16.93-0.39,25.22c3.92,30.6,12.36,48.74,25.08,53.91
	c0.46,0.25,4.7,2.54,8.76,3.51c-0.95,2.96-2.02,5.66-3.21,8.08c-0.19,0.4-18.75,40.49-24.07,83.07c-0.3,2.33-0.96,4.65-1.99,6.88
	c-5.76,12.57-19.52,43.73-22.73,61.57c-0.21,1.16,0.07,2.32,0.73,3.25c-2.4,2.6-8.94,10.18-10.71,17.51
	c-0.01,0.01-0.02,0.02-0.02,0.03c-0.01,0.04-0.01,0.08-0.02,0.12c-0.51,2.2-0.6,4.37,0,6.38c0.1,0.31,0.31,0.58,0.6,0.75
	c0.18,0.1,13.04,7.35,29.51,7.35c6.79,0,14.2-1.23,21.58-4.71c0.22-0.11,0.42-0.28,0.55-0.5c0.08-0.13,1.18-1.95,2.55-4.99
	c1.28,0.27,3.53,0.65,6.02,0.65c3.58,0,7.65-0.79,10.02-3.81c2.12,0.32,4.33,0.5,6.63,0.5c1.66,0,3.36-0.09,5.11-0.3
	c2.77-0.32,4.89-2.68,4.94-5.47c0.28-17.32,4.27-105.15,54.83-138.51c20.32,5.51,33.65,27.17,41.56,45.78
	c6.52,15.32,10.7,31.97,12.44,49.5c1.65,16.69,2.59,34.55,3.01,43.71c0.08,1.91,1.03,3.62,2.6,4.69c1.03,0.71,2.22,1.07,3.42,1.07
	c0.66,0,1.32-0.11,1.96-0.32c0.97-0.33,1.94-0.67,2.9-1.01c1.35,1.96,5.03,6.11,12.04,6.11c0.15,0,0.3-0.02,0.45-0.02
	c0.64,1.28,1.13,2.09,1.19,2.19c0.12,0.21,0.31,0.37,0.53,0.48c8.26,4.1,16.34,5.46,23.45,5.46c14.13,0,24.41-5.4,24.56-5.48
	c0.36-0.19,0.61-0.54,0.67-0.94c0.5-3.15-0.58-7.66-1.4-10.45c0.55-0.01,1.1-0.12,1.63-0.35c1.55-0.67,2.53-2.15,2.55-3.84
	C764.43,907.05,754.16,878.44,745.97,858.62z M746.12,699.11c-0.87,7.6-6.61,19.64-28.74,34.27c-1.4-12.78-2.03-21.18-2.11-22.21
	c0.15-1.4,1.22-13.43-2.57-28.16c10.75-1.45,21.14-1.06,29.68,2.63C743.22,686.6,747,691.36,746.12,699.11z M617.48,559.67
	c-1.31-0.85-2.66-1.79-3.91-2.77c1.26-3.72,1.52-7.18,1.57-8.72c1.61-0.77,3.22-1.58,4.82-2.42
	C619.51,549.04,618.63,554.95,617.48,559.67z M622.78,544.22c0.83-0.47,1.66-0.95,2.48-1.44c-0.2,3.99-0.83,12.31-2.72,19.89
	c-0.72-0.39-1.67-0.93-2.74-1.56C621.39,554.96,622.49,546.61,622.78,544.22z M622.04,565.36c-1.02,18.5-3.56,36.45-5.01,45.61
	c-3.67-17.03-6.23-41.53-6.46-43.77l1.46-8.2C615.77,561.94,620.27,564.42,622.04,565.36z M611.35,555.28
	c-0.2-0.03-0.42-0.02-0.63,0.05c-0.44,0.15-0.77,0.54-0.85,1l-1.81,10.18l-6.66,6.44l-9.49,9.19c4.15-8.06,11.02-21.36,15.94-30.72
	c1.51-0.63,3.05-1.29,4.61-1.99C612.33,550.9,612.04,553.02,611.35,555.28z M587.85,584.36c-1.14,2.2-1.83,3.55-1.86,3.61
	c-0.15,0.28-0.18,0.6-0.11,0.89s0.24,0.55,0.49,0.74c0.23,0.18,0.5,0.26,0.78,0.26c0.32,0,0.65-0.12,0.9-0.37l10.67-10.33
	c-2.15,5.04-5.54,12.68-9.39,20.13c-2.02-2.74-4.06-6.26-5.9-9.74c-2.08-3.93-3.88-7.81-5.04-10.42
	C581.31,580.6,584.55,582.35,587.85,584.36z M577.67,575.88c1.6-2.48,3.57-5.07,4.81-6.66c2.02,3.55,4.54,7.61,7.32,11.34
	c-0.26,0.51-0.52,1.01-0.76,1.48C585.01,579.59,581.05,577.52,577.67,575.88z M591.13,577.98c-4.94-6.86-8.99-14.74-10.57-17.94
	c1.27-0.26,2.54-0.49,3.83-0.76c0.15-0.04,8.78-2.12,19.74-6.37C599.97,560.86,594.87,570.73,591.13,577.98z M581.11,566.76
	c-1.13,1.42-3.77,4.8-5.81,8c-2.7-1.25-4.87-2.15-6.16-2.67l3.58-7.73l2.9-3.36c0.76-0.14,1.53-0.29,2.3-0.44
	C578.49,561.75,579.6,563.99,581.11,566.76z M570.67,562.76c-3.67,3.62-7.6,7.24-11.44,10.63c2.19-5.06,4.26-9.09,5-10.5
	c2.42-0.36,4.87-0.75,7.35-1.18L570.67,562.76z M554.85,577.2c-2.15,1.86-4.22,3.6-6.13,5.19c2.49-9,5.4-16.11,6.32-18.26
	c1.99-0.24,3.99-0.49,6.02-0.77C559.62,566.21,557.1,571.42,554.85,577.2z M567.54,569.36l-1.34,2.89
	c-0.15,0.33-0.16,0.71-0.02,1.04c0.14,0.34,0.41,0.6,0.75,0.72c0.04,0.02,1.38,0.52,3.59,1.47c1.15,4.31,8.1,31.31,8.62,56.23
	c-6.22-19.44-22.34-44.51-25.82-49.79C557.74,578.2,562.72,573.86,567.54,569.36z M573.57,576.82c0.39,0.18,0.8,0.37,1.22,0.57
	c1.18,2.8,7.31,16.96,13.21,24.44c-1.34,2.51-2.72,4.95-4.11,7.23c-0.18,0.29-0.24,0.64-0.16,0.98l26.39,110.82
	c0.06,0.28,0.22,0.53,0.44,0.71c0.04,0.03,0.79,0.64,2.14,1.7c-13.55,11-26.72,18.44-33.48,21.94c-3.36,1.75-7.42,0.65-9.45-2.54
	c-7.27-11.44-11.58-27.99-12.14-30.19c3.88-20.79,15.09-41.31,17.73-45.95c0.39-0.68,0.83-1.45,1.21-2.26
	C588.56,639.33,576.72,589.05,573.57,576.82z M612.54,719.83l-26.15-109.87c1.46-2.42,2.91-5.02,4.31-7.68l0.01-0.01
	c6.48-12.27,11.92-25.65,12.72-27.67l4.82-4.66c0.9,8.18,3.85,33.38,7.74,47.83c0.52,3.19,10.49,63.49,23.7,84.65
	c2.28,3.68,7.08,4.93,10.92,2.87c9.71-5.23,35.21-17.97,59.5-21.89c3.43,13.21,2.82,24.5,2.62,27.06
	c-19.82,15.09-45.46,29.35-55.62,34.8c-3.21,1.72-7.1,1.54-10.16-0.48C629.44,733.25,614.93,721.74,612.54,719.83z M708.9,644.6
	c0,0.15,0.03,0.3,0.08,0.45c0.38,1.09,8.26,23.19,24.37,35.36c-29.68-4.85-70.9,15.55-83.97,22.59c-2.63,1.41-5.92,0.56-7.49-1.95
	c-12.62-20.22-22.63-79.48-23.31-83.54c0.45-2.5,4.75-27.17,6.09-52.71c2.67-9.72,3.18-20.83,3.27-23.69
	c1.25-0.81,2.49-1.65,3.69-2.52c1.98,2.87,7.78,10.29,17.69,15.46c11.05,5.76,29.4,9.59,54.59-4.33
	C704.98,559.26,709.52,602.43,708.9,644.6z M703.88,546.75c-19.88,11.36-37.8,13.06-53.26,5.05c-9.62-4.99-15.28-12.41-16.98-14.89
	c25.49-25.82,29.47-78.93,29.63-81.22c1.23-21.43,4.47-33.81,6.87-40.29c0.72-1.97,1.38-3.4,1.87-4.37
	c2.6,3.63,9.41,11.62,20.74,14.4c10.58,2.58,22.21-0.09,34.58-7.97C726.27,430.38,720.42,493.43,703.88,546.75z M677.58,404.07
	c2.58,2.46,5.74,4.34,9.4,5.59c4.53,1.56,11.14,3.29,18.05,3.29c6.33,0,12.92-1.45,18.41-5.83c0.38-0.3,0.72-0.61,1.04-0.94
	l0.37,3.94c-29.63,18.56-49.02-4.96-49.84-5.98c-0.1-0.13-0.22-0.23-0.36-0.3l0.54-2.51C675.79,402.22,676.59,403.13,677.58,404.07z
	 M675.77,364.05c0.48-2.66,0.44-5.44-0.11-8.25c-0.6-3.07-1.35-5.97-2.25-8.6c-0.52-1.56,0.28-2.77,1.13-3.34
	c0.86-0.57,2.21-0.8,3.39,0.25c3.76,3.35,6.51,8.82,8.18,16.27c0.1,0.44,0.44,0.81,0.88,0.95c0.45,0.14,11.09,3.72,11.09,18.05
	c0,0.72,0.58,1.3,1.3,1.3c0.72,0,1.3-0.58,1.3-1.3c0-4.04-0.8-7.33-1.99-10c0.93,0.55,2.18,1.03,3.73,1.03
	c0.45,0,0.92-0.04,1.41-0.13c0.25,1.15,0.78,2.23,1.58,3.14c1.32,1.49,3.16,2.31,5.14,2.31c0.22,0,0.44,0,0.66-0.03
	c0.77-0.07,1.55-0.23,2.35-0.46c0.3,0.75,0.75,1.44,1.34,2.03c1.38,1.37,3.31,1.94,5.18,1.54c2.63-0.57,4.9-2.47,6.77-5.65
	c0.37-0.62,0.16-1.42-0.46-1.78c-0.62-0.37-1.41-0.16-1.78,0.46c-1.49,2.53-3.19,4.02-5.08,4.43c-1.02,0.22-2.04-0.09-2.8-0.85
	c-0.83-0.82-1.18-2-0.94-3.14c0.86-4.04,4.54-7.48,6.65-9.18c1.81-1.44,4.09-2.02,6.09-1.54c0.86,0.21,3.47,0.84,3.76,5.49
	c0.14,2.34-0.41,4.77-1.62,7.03c-8.28,15.58-9.83,28.87-10.09,31.92c-10.45,7.19-24.89,3.9-32.75,1.21
	c-3.02-1.04-5.63-2.56-7.82-4.48c0.05-1.34,0.14-4.64-0.04-9.51c0-0.1-0.02-0.21-0.05-0.31c0-0.01,0-0.02-0.01-0.02
	c-0.02-0.09-0.05-0.16-0.09-0.24C679.75,392.52,672.97,379.67,675.77,364.05z M697.08,358.88c0.61-3.98,3.36-7.51,7.38-9.45
	c3.56-1.73,6.7-2.1,9.32-1.12c2.13,0.79,3.5,2.34,4.26,3.44c-0.32,0.12-0.64,0.23-0.96,0.38c-1.68,0.73-3.32,1.74-4.89,3.01
	c-2.59,2.11-7.12,6.48-8.35,12.13c-0.02,0.12-0.04,0.24-0.06,0.36c-1.45,0.37-2.79,0.17-3.98-0.61c-1.26-0.81-1.91-2.08-2.24-3
	C696.98,362.39,696.82,360.65,697.08,358.88z M696.97,352.44c1.96-9.63,5.54-18.24,9.85-23.65c0.89-1.13,2.17-1.18,3.06-0.85
	c0.91,0.33,1.86,1.2,1.82,2.67c-0.22,7.32-0.9,12.46-1.23,14.58c-2.22,0.05-4.61,0.67-7.14,1.9
	C700.7,348.36,698.52,350.22,696.97,352.44z M718.12,354.51c2.83-1.24,5.05-1.37,6.6-0.39c1.66,1.06,2.35,3.22,2.63,4.69
	c-2.27-0.07-4.58,0.7-6.53,2.26c-2.92,2.34-6.6,6.08-7.57,10.67c-0.06,0.31-0.1,0.62-0.11,0.92c-0.75,0.24-1.47,0.39-2.16,0.46
	c-1.4,0.12-2.71-0.39-3.62-1.42c-0.93-1.05-1.29-2.46-0.98-3.87c1.07-4.88,5.13-8.78,7.45-10.67
	C715.21,356.04,716.66,355.15,718.12,354.51z M725.37,415.61c-11.52,7.2-22.27,9.66-31.97,7.3c-11.33-2.76-17.95-11.44-19.8-14.17
	l0.39-1.84c3.18,3.34,13.55,12.85,28.72,12.85c6.62,0,14.16-1.82,22.42-6.75l0.13,1.42c0,0,0,0,0,0.01L725.37,415.61z
	 M734.55,343.22c3.27,1.14,6.21,3.4,8.28,6.38c4.95,7.11,13.15,27.15-15.27,61.52l-0.8-8.49c0.07-0.19,0.13-0.38,0.19-0.57
	c0.79-2.73,0.22-5.25-1.61-7.35c1.44-5.4,3.79-12.18,7.63-19.41c1.43-2.68,2.09-5.59,1.91-8.42c-0.24-3.89-1.91-6.47-4.82-7.55
	c-0.17-1.38-0.7-4-2.35-5.98c1.95-0.11,4.93,0.48,7.74,4.17c0.21,0.29,0.54,0.44,0.87,0.44c0.23,0,0.47-0.08,0.67-0.23
	c0.48-0.37,0.57-1.06,0.21-1.54c-4.56-6-9.83-5.21-11.79-4.64c-1.37-0.65-2.96-0.82-4.75-0.53c-0.15-0.25-0.33-0.54-0.55-0.85
	C721.24,347.82,725.7,340.14,734.55,343.22z M369.61,444.76c-27.39-9.3-45.51-30.87-53.92-64.21c-6.77-26.83-4.34-51.61-4.31-51.86
	c0.07-0.71-0.45-1.35-1.16-1.42c-0.72-0.08-1.35,0.44-1.43,1.16c-0.02,0.25-2.5,25.42,4.36,52.68c3.96,15.76,10.24,29.1,18.65,39.83
	l-4.3,6.91c-31.17-38.02-41.53-82.46-37.32-126.31c4.82-50.27,32.6-94.78,55.05-123.26c24.37-30.92,47.91-50.17,48.18-50.38
	c20.86-17.99,44.77-22.04,71.08-12.04c17.54,6.67,30.34,17.71,33.08,20.18c-1.35,3.71-2.28,7.39-2.9,10.93
	c-5.5-4.54-23.38-17.44-45.03-13.81c-0.71,0.12-1.19,0.79-1.07,1.5c0.12,0.71,0.79,1.19,1.5,1.07
	c22.41-3.77,41.22,11.72,44.14,14.27c-0.3,2.32-0.48,4.55-0.56,6.67c-3.61-3.77-11.56-10.43-23.7-11.87
	c-0.72-0.09-1.36,0.42-1.45,1.14c-0.08,0.71,0.43,1.36,1.14,1.44c14.41,1.71,22.7,11.58,23.96,13.19
	c0.09,8.47,1.54,14.27,1.58,14.44c0.18,0.69,0.89,1.11,1.59,0.93c0.69-0.18,1.11-0.89,0.93-1.59c-0.05-0.17-1.65-6.65-1.51-15.84
	c1.89-3.14,15.05-23.95,28.78-19.99c0.69,0.19,1.41-0.2,1.61-0.89s-0.2-1.41-0.89-1.61c-12.67-3.65-24.14,9.99-29.23,17.29
	c1.3-14.81,7.69-34.12,29.77-46.51c10.33-5.79,22.41-8.89,34.96-8.96c40.4-0.25,137.91,13.34,188.35,141.52
	c-5.29-7.26-13.36-16.65-22.22-21.02c-0.65-0.32-1.43-0.06-1.74,0.59c-0.32,0.64-0.06,1.42,0.59,1.74
	c7.62,3.76,14.81,11.73,19.92,18.46c2.52,61.48-18.05,98.01-20.25,101.72c-3.59,1.51-6.13,4.55-7.59,7.21
	c-0.92-0.84-2.08-1.63-3.52-2.17c-0.54-0.21-1.1-0.35-1.67-0.47c0.36-2.28,1.02-7.4,1.23-14.74c0.07-2.34-1.31-4.38-3.52-5.18
	c-2.19-0.81-4.54-0.15-5.99,1.67c-4.64,5.84-8.34,14.69-10.4,24.93c-0.08,0.4-0.16,0.83-0.24,1.27c-0.49,2.61-1.1,5.84-2.65,7.41
	c-1.25-0.84-2.33-1.36-3-1.65c-1.81-7.65-4.78-13.35-8.83-16.96c-0.76-0.67-1.64-1.1-2.54-1.28c-0.89-0.98-1.75-1.99-2.57-3.04
	c-12.56-16.01-17.25-39.47-17.3-39.71c-0.14-0.71-0.82-1.17-1.53-1.03c-0.7,0.14-1.16,0.82-1.03,1.52
	c0.18,0.91,3.64,18.2,12.78,33.48c-21.41-3.45-35.29-26.9-35.44-27.14c-0.32-0.56-1-0.79-1.6-0.56c-0.6,0.24-0.93,0.87-0.79,1.5
	c3.89,16.92,14.23,27.76,18.95,31.97c-10.5,0.95-20.33-1.87-29.25-8.41c-33.61-24.63-44.57-94.29-44.67-94.99
	c-0.11-0.71-0.78-1.2-1.48-1.09c-0.71,0.11-1.2,0.77-1.09,1.48c0.3,2.02,5.58,35.54,20.26,64.34c-1.16,16.13,4.76,32.76,6.94,38.25
	c-19.49-0.65-33.85-11.14-42.7-31.21c-6.9-15.63-7.68-31.52-7.68-31.65c-1.09-49.56-11.44-66.06-19.93-71.17
	c-2.71-1.64-5.96-1.96-8.91-0.88c-3.02,1.1-5.35,3.5-6.41,6.58c-3.14,9.19-1.67,23.87-0.4,32.35c-12.39-19.1-25.44-30.4-38.96-33.67
	c-11.3-2.72-22.63,0.14-33.66,8.52c-10.53,8-18.18,19.33-22.11,32.76c-9.9,33.81-1.76,59.84,6.8,75.72
	c6.94,12.85,15.09,21.16,18.97,24.71c-0.04,0-0.09,0-0.14,0c-5.8,0-10.76-3.79-10.81-3.83c-0.5-0.39-1.21-0.36-1.68,0.06
	c-0.47,0.43-0.56,1.13-0.22,1.67c10.59,16.44,31.03,25.5,40.48,28.97c-29.65,4.34-55.91-4.35-78.12-25.88
	c-17.57-17.02-25.87-36.15-25.95-36.34c-0.28-0.66-1.05-0.97-1.71-0.69c-0.66,0.29-0.96,1.05-0.68,1.71
	c0.08,0.19,8.54,19.73,26.47,37.13c8.14,7.9,19.11,16.15,32.97,21.57c0.38,2.72,1.53,13.99-2.99,26.77
	c-0.31,0.87-0.64,1.74-1.01,2.6c-1.05,2.54-2.32,5.01-3.79,7.41c-8.86,14.48-24.87,26.22-44.41,32.39c1.52-6.5,7.91-28.06-0.2-47.24
	c-0.28-0.66-1.04-0.97-1.7-0.69c-0.67,0.28-0.97,1.04-0.7,1.7c8.8,21.17-0.42,47.55-0.49,47.78
	C369.62,444.66,369.62,444.71,369.61,444.76z M422.66,244.96c2.39-6.31,5.68-12.04,9.76-17.06c0.96-0.51,7.2-3.47,16.28-0.65
	c9.89,3.07,24.85,13.64,40.37,46.33c-0.61,0.08-1.23,0.18-1.84,0.25c-8.11,0.99-15.18,2.57-21.35,4.54
	C446.08,245.03,428.97,243.94,422.66,244.96z M463.36,279.21c-15.53,5.44-24.91,13.36-30.43,20.01c-5.39,6.51-7.93,12.64-9.09,16.43
	c-6.57-15.58-10.96-37.98-2.81-65.83c0.2-0.66,0.41-1.32,0.62-1.97C424.85,246.98,442.38,244.2,463.36,279.21z M449.36,224.73
	c-5.61-1.72-10.21-1.45-13.42-0.77c1.95-2,4.05-3.86,6.28-5.56c1.88-1.42,3.76-2.67,5.64-3.76c1.24-0.16,9.14-0.9,19.8,4.79
	c10.59,5.66,26.09,18.99,40.14,50.32c-1.42,0.37-2.7,0.7-3.79,0.96c-4.16,1.03-8.26,1.86-12.25,2.48
	C475.68,238.99,459.85,227.95,449.36,224.73z M468.66,217.02c-6.35-3.36-11.75-4.57-15.55-4.95c6.85-2.79,13.74-3.38,20.59-1.73
	c17.39,4.2,34.14,22.64,49.8,54.8c-4.68,1.55-9.28,2.89-13.16,3.94C495.87,236.63,479.72,222.85,468.66,217.02z M516.93,247.37
	c-0.46-2.27-4.9-25.4-0.8-37.4c0.8-2.33,2.56-4.15,4.84-4.98c2.21-0.8,4.64-0.56,6.68,0.66c0.44,0.27,0.91,0.59,1.39,0.96
	c-3.23,3.22-8.57,14.79,4.8,54.72c-2.53,1.05-5.19,2.05-7.86,2.97C523.01,258.18,519.99,252.53,516.93,247.37z M531.02,208.39
	c5.31,5.49,11.73,18.11,14.27,46.97c-2.44,1.73-5.57,3.39-9.06,4.94C522.96,220.53,528.9,210.51,531.02,208.39z M396.04,435.03
	c2.14,5.83,9.28,24.85,17.31,41.41c-19.7-7.8-36.77-29.17-36.95-29.39c-0.17-0.22-0.42-0.38-0.69-0.45c-1-0.26-1.99-0.54-2.97-0.83
	C381.79,442.96,389.52,439.24,396.04,435.03z M415.79,499.81c-0.3,0.9-0.49,1.82-0.59,2.75c-25.93-11.89-36.62-26.41-41.01-36.57
	c-3.63-8.4-3.67-15.25-3.47-18.14c1.29,0.41,2.59,0.8,3.91,1.15c0.74,0.91,2.8,3.4,5.86,6.61c-1.36-0.09-2.83-0.01-3.92,0.52
	c-0.54,0.27-0.77,0.93-0.5,1.47c0.27,0.55,0.92,0.77,1.47,0.51c1.19-0.59,3.75-0.29,5.49,0.11c7.54,7.51,19.22,17.36,31.98,21.59
	c1.54,3.06,3.1,6,4.66,8.69c1.1,1.91,2.13,3.84,3.1,5.8c-0.9-0.05-1.95,0.06-3,0.52C417.93,495.64,416.59,497.31,415.79,499.81z
	 M418.21,509.23c-1.25-2.74-1.45-5.95-0.52-8.8c0.62-1.93,1.59-3.2,2.88-3.77c1.21-0.55,2.49-0.38,3.26-0.19
	c2.03,4.31,3.75,8.73,5.15,13.21l0.13,0.41c0.38,1.22,0.79,2.42,1.23,3.61C424.56,515.66,420.48,514.16,418.21,509.23z M476,555.6
	c-21.06-7.46-37.67-24.76-44.41-46.28l-0.13-0.41c-2.33-7.47-5.54-14.78-9.54-21.71c-10.53-18.26-21.4-47.48-23.66-53.66
	c9.62-6.64,16.43-14.32,20.92-21.46c0.66-1.05,1.27-2.09,1.83-3.12c0.89-1.62,1.66-3.21,2.31-4.73c0.38-0.89,0.72-1.77,1.02-2.61
	c0.03-0.07,0.06-0.14,0.08-0.21c4.16-11.83,3.71-22.18,3.25-26.5c8.9,3.15,18.94,5.11,30.12,5.11c6.22,0,12.79-0.6,19.72-1.95
	c0.59-0.11,1.03-0.62,1.05-1.22c0.03-0.6-0.36-1.14-0.94-1.3c-0.28-0.08-26.1-7.64-40.51-24.86c2.88,1.14,6.64,1.97,10.58,1.02
	c0.48-0.12,0.85-0.5,0.96-0.99c0.11-0.49-0.08-0.99-0.47-1.3c-0.11-0.09-11.58-9.18-20.6-25.95c-0.68-1.26-1.35-2.59-2.02-3.98
	c0.32-1.76,2.15-9.96,9.48-18.74c7.62-9.12,22.91-20.75,52.51-24.34c1.2-0.14,2.42-0.31,3.64-0.5c0.04,0,0.07-0.01,0.11-0.01
	c4.32-0.66,8.79-1.54,13.33-2.66c1.45-0.36,3.22-0.81,5.21-1.34c0.05-0.01,0.09-0.02,0.14-0.03c7.22-1.93,17.32-4.93,25.85-8.57
	c0.02,0,0.03,0,0.04-0.01c0.02,0,0.04-0.02,0.06-0.03c3.6-1.54,6.91-3.19,9.61-4.93c0.38,4.99,0.65,10.41,0.78,16.36
	c0.03,0.66,0.8,16.47,7.87,32.55c9.46,21.49,25.74,32.86,47.07,32.86c0.44,0,0.85-0.23,1.09-0.59c0.24-0.37,0.28-0.84,0.1-1.24
	c-0.08-0.19-7.51-17.21-7.63-34.45c6.11,10.97,13.68,20.93,22.98,27.75c7.06,5.18,14.66,8.15,22.69,8.89
	c1.36,0.14,2.73,0.2,4.11,0.2c2.41,0,4.86-0.19,7.33-0.58c0.52-0.08,0.94-0.47,1.07-0.98c0.04-0.16,0.04-0.31,0.02-0.46
	c-0.04-0.35-0.23-0.67-0.52-0.89c-0.13-0.1-11.68-8.75-17.88-24.54c6.28,7.99,18.39,20.17,34.65,21.75c0.6,0.91,1.21,1.8,1.86,2.68
	c0.52,0.73,1.06,1.44,1.62,2.13c0.39,0.5,0.79,0.98,1.2,1.46c-0.29,0.13-0.57,0.28-0.85,0.47c-2.1,1.39-2.96,3.94-2.15,6.33
	c0.86,2.53,1.58,5.31,2.16,8.27c0.49,2.49,0.52,4.95,0.1,7.29c-1.32,7.37-0.66,14.07,0.49,19.29c0.23,1.01,0.47,1.96,0.72,2.85
	c0.88,3.14,1.87,5.52,2.49,6.88c-0.79,0.43-1.75,1.1-2.4,2.09c-0.3,0.44-0.53,0.93-0.67,1.49c-0.08,0.31-0.12,0.62-0.12,0.95
	c-0.02,0.37,0.01,0.74,0.09,1.12l-1.95,9.01c-0.37,0.03-0.73,0.21-0.95,0.51c-0.17,0.22-2.21,3.01-4.48,10.4
	c-2.25,7.31-4.71,19.11-5.76,37.35c-0.04,0.55-4.14,55.36-29.55,80.22c-18.96,14.16-47.05,20.93-47.3,20.99
	C540.26,565.89,503.99,565.5,476,555.6z M547.8,564.89c1.42-0.13,2.85-0.28,4.29-0.44c-1.47,3.58-4.48,11.45-6.81,20.76
	c-1.96,1.6-3.65,2.95-4.93,3.97C542.71,577.57,546.69,567.56,547.8,564.89z M540.44,744.09c-10.66-5.91-17.86-23-21.43-50.85
	c-1.03-8.05-0.9-16.28,0.38-24.49c6.97-44.63,18.78-72.57,20.11-75.6c1.11-0.87,5.77-4.5,11.82-9.54
	c4.43,6.8,26.04,40.79,27.58,59.06c-0.54,7.72-1.96,14.83-4.67,20.48c-0.35,0.72-0.76,1.45-1.13,2.1c-1.41,2.48-5.23,9.42-9.1,18.53
	c-3.53,8.29-7.11,18.37-8.97,28.54v0.01c-0.06,0.32-0.12,0.65-0.17,0.98c-4.82-11.49-5.74-23.06-5.18-32.59
	c0.17-3.14,0.51-6.05,0.92-8.67c0.7-4.5,2.13-9.03,4.37-13.86c7.89-17.09,1.54-35.63,1.27-36.41c-0.24-0.68-0.98-1.03-1.66-0.8
	c-0.68,0.24-1.03,0.98-0.79,1.66c0.02,0.08,1.2,3.53,1.93,8.73c-5.21-6.48-7.99-16.68-8.02-16.79c-0.19-0.7-0.9-1.11-1.6-0.92
	c-0.69,0.18-1.1,0.9-0.92,1.59c0.16,0.58,3.79,13.89,10.97,20.37c0.41,6.31-0.14,14.1-3.54,21.48c-2.34,5.05-3.84,9.81-4.58,14.54
	c-1.71,10.87-2.19,26.66,4.31,42.39c-3.37,0.9-6.1,2.82-8.13,5.72C539.03,727.16,539.8,738.98,540.44,744.09z M543.27,745.47
	c-0.48-3.01-2.26-16.6,3.07-24.23c1.74-2.49,4.12-4.09,7.06-4.79c0.26,0.55,0.5,1.09,0.77,1.64c-0.14,1.24-0.26,2.48-0.33,3.72
	c-2.55,1.3-9.54,6.58-8.3,24.75C544.57,746.12,543.76,745.72,543.27,745.47z M548.24,747.66c-1.28-14.73,2.95-20.53,5.49-22.64
	c-0.01,0.5-0.02,1.01-0.01,1.51c0.1,7-0.5,13.1-1.84,18.66c-0.27,1.13-0.56,2.23-0.86,3.31
	C550.1,748.29,549.15,747.99,548.24,747.66z M501.07,915.44c1.13,0.41,2.39,0.34,3.49-0.25c6.38-3.36,16.19-5.34,27.06,3.82
	c-8.92,8.6-28.45,2.68-34.16,0.69C498.95,917.78,500.31,916.26,501.07,915.44z M495.84,921.89c3,1.11,12.38,4.28,21.65,4.28
	c6,0,11.96-1.34,16.08-5.43c1.18,1.02,3.37,2.79,6.41,4.67c-1.64,3.8-4.71,7.24-5.4,7.98c-13.26,6.84-38.02-0.62-43.53-2.42
	C492,927.85,493.9,924.63,495.84,921.89z M538.46,939.08c-22.06,10.18-44.37-0.63-47.85-2.45c-0.22-0.98-0.24-2.03-0.11-3.1
	c4.31,1.42,17.28,5.31,29.57,5.31c5.79,0,11.42-0.86,15.92-3.25c0.12-0.06,0.23-0.14,0.33-0.24c0.17-0.18,3.85-4.03,5.91-8.61
	c0.4,0.22,0.8,0.44,1.22,0.66C541.54,933.49,539.15,937.88,538.46,939.08z M544.08,933.34c0.58-1.43,1.17-3.03,1.73-4.77
	c2.98,1.38,6.4,2.63,10.17,3.47C552.69,934.55,546.81,933.84,544.08,933.34z M573.16,927.3c-0.03,1.5-1.16,2.77-2.65,2.94
	c-20.7,2.43-35.95-12.11-36.14-12.29c-0.01-0.01-0.02-0.02-0.03-0.03c-6.87-6.16-13.43-8.1-18.98-8.1c-5,0-9.18,1.58-12.01,3.07
	c-0.6,0.32-1.28,0.27-1.83-0.13c-0.55-0.41-0.81-1.05-0.69-1.71c2.66-14.77,13.08-39.69,19.22-53.57
	c1.54,2.68,4.68,6.98,10.46,10.84c6.12,4.09,16.22,8.24,32,8.24c4.94,0,10.46-0.42,16.57-1.36
	C574.1,899.07,573.28,919.77,573.16,927.3z M579.66,872.47c-44.89,7.3-56.69-14.6-58.25-18.05c0.77-1.71,1.44-3.18,1.96-4.32
	c1.13-2.47,1.87-5.04,2.2-7.64c5.26-42.16,23.66-81.89,23.83-82.26c2.01-4.09,3.7-8.93,5.01-14.41c1.38-5.77,2.01-12.08,1.91-19.3
	c-0.04-2.51,0.11-5.08,0.38-7.67c1.96,6.49,5.64,17,10.87,25.24c1.88,2.95,5.03,4.58,8.29,4.58c1.53,0,3.09-0.36,4.56-1.12
	c6.92-3.59,20.48-11.25,34.39-22.61c0.35,0.28,0.73,0.57,1.12,0.88c-0.22,4.76-1.34,34.29,2.85,59.02c-2.11-0.17-4.06-0.66-5.8-1.54
	c-2.39-1.21-3.9-2.55-4.38-3.86c-0.24-0.67-0.99-1.02-1.66-0.78c-0.68,0.25-1.03,0.99-0.78,1.67c0.71,1.97,2.61,3.75,5.64,5.29
	c2.5,1.27,5.33,1.91,8.43,1.91c0.11,0,0.22,0,0.34,0c2.25,0,4.43,0.2,6.54,0.56C599.84,807.29,586.34,842.1,579.66,872.47z
	 M621.44,784.92c-3.88-22.4-3.29-49.07-2.99-57.2c2.35,1.78,5.14,3.87,8.27,6.16c-0.38,4.42-1.98,27.81,3.49,52.16
	C627.42,785.36,624.49,784.99,621.44,784.92z M674.55,833.61c-7.94-18.65-21.2-40.27-41.48-46.76c-5.28-22.39-4.36-44.25-3.88-51.18
	c4.88,3.52,10.43,7.4,16.33,11.28c2.1,1.39,4.51,2.09,6.92,2.09c2.03,0,4.05-0.5,5.9-1.49c9.97-5.35,34.77-19.13,54.52-33.93
	c0.3,3.73,0.98,11.61,2.17,22.16c0,0.04,0,0.07,0.01,0.11c2.28,20.27,6.38,50.33,13.11,79.64c2.75,11.97,6.66,23.8,11.62,35.16
	c1.08,2.47,2.26,5.22,3.48,8.17c-16.2,16.54-50.92,15.53-57.32,15.18C683.75,859.84,679.93,846.27,674.55,833.61z M701.01,931.31
	c2.41-0.93,4.74-1.9,6.9-2.85c0.29,2.66,1.08,5.21,1.9,7.28C705.01,935.5,702.26,932.91,701.01,931.31z M711.11,931.41
	c-0.35-1.3-0.61-2.69-0.69-4.07c2.19-1.01,4.17-1.97,5.85-2.81c0.46-0.23,0.92-0.47,1.37-0.71c1.74,1.9,6.62,6.02,16.36,6.02
	c5.09,0,11.52-1.15,19.49-4.31c1.23,0.95,2.34,1.89,3.33,2.77c0.28,0.8,1.03,3.08,1.55,5.58
	C731.26,941.09,713.98,932.93,711.11,931.41z M720,922.52c1.16-0.66,2.31-1.33,3.43-2l0.55-0.32c9.52-5.64,19.64-1.54,27.02,3.52
	C731.4,931.03,722.68,925.14,720,922.52z M758.88,939c-3.66,1.74-23.53,10.16-44.69-0.14c-0.35-0.61-1.15-2.08-1.92-3.99
	c4.12,1.8,12.45,4.6,24.37,4.6c6.39,0,13.81-0.82,22.15-3.02C758.89,937.35,758.93,938.22,758.88,939z M760.56,926.88
	c-0.6,0.26-1.26,0.15-1.75-0.29c-7.51-6.77-22.18-16.89-36.16-8.63l-0.54,0.32c-2.27,1.35-4.62,2.74-7.01,3.93
	c-1.84,0.92-4.06,1.99-6.53,3.11c-4.09,1.85-8.87,3.82-13.82,5.48c-1.05,0.36-2.17,0.2-3.08-0.42c-0.89-0.61-1.43-1.58-1.48-2.66
	c-0.41-9.19-1.36-27.11-3.02-43.86c-0.24-2.41-0.52-4.81-0.85-7.18c1.34,0.07,3.43,0.15,6.06,0.15c12.68,0,37.85-1.85,51.94-15.37
	c7.97,19.5,17.5,46.55,17.23,63.92C761.54,926.05,761.17,926.61,760.56,926.88z M701.55,644.57c-1.59-0.21-39.02-5.03-48.67,5.71
	c-0.27,0.31-0.39,0.73-0.3,1.14c0.15,0.72,1.57,7.16,4.23,9.82c0.2,0.2,0.46,0.33,0.73,0.37c0.2,0.03,2.35,0.34,5.65,0.34
	c4.25,0,10.38-0.52,16.64-2.82c3.76-1.38,7.64-2.03,11.52-2.04l13.32,0.11c0.39,0,0.75-0.17,0.99-0.46c0.25-0.29,0.36-0.68,0.3-1.06
	c-0.05-0.27-1.13-6.56-3.46-10.49C702.29,644.85,701.95,644.62,701.55,644.57z M691.37,654.49c-4.19-0.03-8.38,0.71-12.43,2.2
	c-9.25,3.4-18.47,2.64-20.57,2.4c-1.47-1.77-2.61-5.55-3.09-7.54c8.79-8.43,40.38-5.07,45.29-4.48c1.26,2.39,2.1,5.63,2.52,7.51
	L691.37,654.49z M592.23,142.63c0.16-0.7,0.85-1.14,1.55-0.98c0.8,0.17,19.75,4.56,41.16,20.05c19.75,14.28,45.22,41.1,54.42,87.73
	c0.14,0.71-0.32,1.39-1.02,1.53c-0.09,0.02-0.17,0.03-0.25,0.03c-0.61,0-1.16-0.43-1.28-1.05c-9.03-45.8-34.02-72.12-53.4-86.14
	c-20.98-15.17-40.01-19.57-40.2-19.62C592.51,144.02,592.07,143.33,592.23,142.63z M616.32,692.5c-3.14,0-5.7,2.56-5.7,5.71
	c0,3.14,2.56,5.7,5.7,5.7c3.15,0,5.71-2.56,5.71-5.7C622.03,695.06,619.47,692.5,616.32,692.5z M616.32,701.91
	c-2.04,0-3.7-1.66-3.7-3.7c0-2.05,1.66-3.71,3.7-3.71c2.05,0,3.71,1.66,3.71,3.71C620.03,700.25,618.37,701.91,616.32,701.91z
	 M613.32,663.71c0-3.15-2.56-5.71-5.7-5.71c-3.15,0-5.71,2.56-5.71,5.71c0,3.14,2.56,5.7,5.71,5.7
	C610.76,669.41,613.32,666.85,613.32,663.71z M607.62,667.41c-2.05,0-3.71-1.66-3.71-3.7c0-2.05,1.66-3.71,3.71-3.71
	c2.04,0,3.7,1.66,3.7,3.71C611.32,665.75,609.66,667.41,607.62,667.41z M603.91,623.03c0-3.15-2.56-5.7-5.71-5.7
	c-3.14,0-5.7,2.55-5.7,5.7c0,3.15,2.56,5.71,5.7,5.71C601.35,628.74,603.91,626.18,603.91,623.03z M598.2,626.74
	c-2.04,0-3.7-1.66-3.7-3.71c0-2.04,1.66-3.7,3.7-3.7c2.05,0,3.71,1.66,3.71,3.7C601.91,625.08,600.25,626.74,598.2,626.74z
	 M565.91,666.95c3.14,0,5.7-2.56,5.7-5.71s-2.56-5.7-5.7-5.7c-3.15,0-5.71,2.55-5.71,5.7S562.76,666.95,565.91,666.95z
	 M565.91,657.54c2.04,0,3.7,1.66,3.7,3.7c0,2.05-1.66,3.71-3.7,3.71c-2.05,0-3.71-1.66-3.71-3.71
	C562.2,659.2,563.86,657.54,565.91,657.54z M556.93,675.68c-2.95,0-5.39,2.25-5.68,5.13c-0.02,0.19-0.03,0.38-0.03,0.58
	c0,3.15,2.56,5.7,5.71,5.7c2.56,0,4.72-1.68,5.44-4.01c0.17-0.53,0.26-1.1,0.26-1.69C562.63,678.24,560.08,675.68,556.93,675.68z
	 M556.93,685.09c-2.05,0-3.71-1.66-3.71-3.7c0-2.05,1.66-3.71,3.71-3.71c2.04,0,3.7,1.66,3.7,3.71
	C560.63,683.43,558.97,685.09,556.93,685.09z"/>
<path id="CODE_x5F_5A3C37" class="st2" d="M640.04,402.37l9.89-5.92c-3.43-5.96-9.35-10.31-16.38-11.42
	c-6.93,0.81-12.57,2.38-17.15,4.36c-0.01,0-0.01,0.01-0.01,0.01c-6.28,4.1-9.95,10.94-10.02,18.87c-0.04,4.95,1.45,9.67,4.24,13.64
	l8.2-4.45c0.4-0.21,0.9-0.14,1.21,0.2c4.72,5.04,10.44,4.36,14.42,2.91c2.95-1.09,5.29-3.21,6.42-5.83
	c2.43-5.63-1.1-10.9-1.13-10.95c-0.16-0.23-0.22-0.51-0.16-0.78C639.63,402.74,639.8,402.51,640.04,402.37z M627.22,402.81
	c-0.88,1.67-2.14,3-3.56,3.91c-1.43,0.91-3.02,1.4-4.6,1.4c-1.16,0-2.3-0.27-3.35-0.83c-1.94-1.02-3.28-2.86-3.78-5.17
	c-0.49-2.25-0.12-4.69,1.04-6.87c2.42-4.56,7.58-6.56,11.51-4.48C628.41,392.86,629.63,398.26,627.22,402.81z M487.55,447.29
	l10.04-6.01c-3.22-5.77-8.74-9.85-15.55-10.96c-9.31,0.39-17.08,3.35-17.22,3.4c-0.36,0.15-0.71,0.3-1.06,0.45
	c-6.12,4.01-9.8,11.12-9.87,19.02c-0.04,5.07,1.54,9.78,4.26,13.63l8.18-4.44c0.4-0.21,0.9-0.13,1.21,0.2
	c4.72,5.04,10.44,4.36,14.42,2.91c2.95-1.08,5.29-3.21,6.42-5.82c2.43-5.63-1.1-10.91-1.14-10.96c-0.15-0.23-0.21-0.51-0.15-0.78
	S487.32,447.43,487.55,447.29z M474.73,447.74c-0.89,1.66-2.13,2.99-3.56,3.9c-1.42,0.91-3.01,1.4-4.59,1.4
	c-1.16,0-2.3-0.27-3.36-0.83c-3.92-2.08-5.15-7.49-2.73-12.04c1.15-2.18,2.97-3.85,5.11-4.71c2.19-0.87,4.47-0.79,6.4,0.23
	c1.93,1.03,3.27,2.87,3.77,5.18C476.26,443.12,475.89,445.56,474.73,447.74z M726.17,220.67c-0.65-0.32-0.91-1.1-0.59-1.74
	c0.31-0.65,1.09-0.91,1.74-0.59c8.86,4.37,16.93,13.76,22.22,21.02C699.1,111.18,601.59,97.59,561.19,97.84
	c-12.55,0.07-24.63,3.17-34.96,8.96c-22.08,12.39-28.47,31.7-29.77,46.51c5.09-7.3,16.56-20.94,29.23-17.29
	c0.69,0.2,1.09,0.92,0.89,1.61s-0.92,1.08-1.61,0.89c-13.73-3.96-26.89,16.85-28.78,19.99c-0.14,9.19,1.46,15.67,1.51,15.84
	c0.18,0.7-0.24,1.41-0.93,1.59c-0.7,0.18-1.41-0.24-1.59-0.93c-0.04-0.17-1.49-5.97-1.58-14.44c-1.26-1.61-9.55-11.48-23.96-13.19
	c-0.71-0.08-1.22-0.73-1.14-1.44c0.09-0.72,0.73-1.23,1.45-1.14c12.14,1.44,20.09,8.1,23.7,11.87c0.08-2.12,0.26-4.35,0.56-6.67
	c-2.92-2.55-21.73-18.04-44.14-14.27c-0.71,0.12-1.38-0.36-1.5-1.07c-0.12-0.71,0.36-1.38,1.07-1.5
	c21.65-3.63,39.53,9.27,45.03,13.81c0.62-3.54,1.55-7.22,2.9-10.93c-2.74-2.47-15.54-13.51-33.08-20.18
	c-26.31-10-50.22-5.95-71.08,12.04c-0.27,0.21-23.81,19.46-48.18,50.38c-22.45,28.48-50.23,72.99-55.05,123.26
	c-4.21,43.85,6.15,88.29,37.32,126.31l4.3-6.91c-8.41-10.73-14.69-24.07-18.65-39.83c-6.86-27.26-4.38-52.43-4.36-52.68
	c0.08-0.72,0.71-1.24,1.43-1.16c0.71,0.07,1.23,0.71,1.16,1.42c-0.03,0.25-2.46,25.03,4.31,51.86
	c8.41,33.34,26.53,54.91,53.92,64.21c0.01-0.05,0.01-0.1,0.02-0.15c0.07-0.23,9.29-26.61,0.49-47.78c-0.27-0.66,0.03-1.42,0.7-1.7
	c0.66-0.28,1.42,0.03,1.7,0.69c8.11,19.18,1.72,40.74,0.2,47.24c19.54-6.17,35.55-17.91,44.41-32.39c1.47-2.4,2.74-4.87,3.79-7.41
	c0.37-0.86,0.7-1.73,1.01-2.6c4.52-12.78,3.37-24.05,2.99-26.77c-13.86-5.42-24.83-13.67-32.97-21.57
	c-17.93-17.4-26.39-36.94-26.47-37.13c-0.28-0.66,0.02-1.42,0.68-1.71c0.66-0.28,1.43,0.03,1.71,0.69
	c0.08,0.19,8.38,19.32,25.95,36.34c22.21,21.53,48.47,30.22,78.12,25.88c-9.45-3.47-29.89-12.53-40.48-28.97
	c-0.34-0.54-0.25-1.24,0.22-1.67c0.47-0.42,1.18-0.45,1.68-0.06c0.05,0.04,5.01,3.83,10.81,3.83c0.05,0,0.1,0,0.14,0
	c-3.88-3.55-12.03-11.86-18.97-24.71c-8.56-15.88-16.7-41.91-6.8-75.72c3.93-13.43,11.58-24.76,22.11-32.76
	c11.03-8.38,22.36-11.24,33.66-8.52c13.52,3.27,26.57,14.57,38.96,33.67c-1.27-8.48-2.74-23.16,0.4-32.35
	c1.06-3.08,3.39-5.48,6.41-6.58c2.95-1.08,6.2-0.76,8.91,0.88c8.49,5.11,18.84,21.61,19.93,71.17c0,0.13,0.78,16.02,7.68,31.65
	c8.85,20.07,23.21,30.56,42.7,31.21c-2.18-5.49-8.1-22.12-6.94-38.25c-14.68-28.8-19.96-62.32-20.26-64.34
	c-0.11-0.71,0.38-1.37,1.09-1.48c0.7-0.11,1.37,0.38,1.48,1.09c0.1,0.7,11.06,70.36,44.67,94.99c8.92,6.54,18.75,9.36,29.25,8.41
	c-4.72-4.21-15.06-15.05-18.95-31.97c-0.14-0.63,0.19-1.26,0.79-1.5c0.6-0.23,1.28,0,1.6,0.56c0.15,0.24,14.03,23.69,35.44,27.14
	c-9.14-15.28-12.6-32.57-12.78-33.48c-0.13-0.7,0.33-1.38,1.03-1.52c0.71-0.14,1.39,0.32,1.53,1.03c0.05,0.24,4.74,23.7,17.3,39.71
	c0.82,1.05,1.68,2.06,2.57,3.04c0.9,0.18,1.78,0.61,2.54,1.28c4.05,3.61,7.02,9.31,8.83,16.96c0.67,0.29,1.75,0.81,3,1.65
	c1.55-1.57,2.16-4.8,2.65-7.41c0.08-0.44,0.16-0.87,0.24-1.27c2.06-10.24,5.76-19.09,10.4-24.93c1.45-1.82,3.8-2.48,5.99-1.67
	c2.21,0.8,3.59,2.84,3.52,5.18c-0.21,7.34-0.87,12.46-1.23,14.74c0.57,0.12,1.13,0.26,1.67,0.47c1.44,0.54,2.6,1.33,3.52,2.17
	c1.46-2.66,4-5.7,7.59-7.21c2.2-3.71,22.77-40.24,20.25-101.72C740.98,232.4,733.79,224.43,726.17,220.67z M688.34,250.96
	c-0.09,0.02-0.17,0.03-0.25,0.03c-0.61,0-1.16-0.43-1.28-1.05c-9.03-45.8-34.02-72.12-53.4-86.14
	c-20.98-15.17-40.01-19.57-40.2-19.62c-0.7-0.16-1.14-0.85-0.98-1.55c0.16-0.7,0.85-1.14,1.55-0.98c0.8,0.17,19.75,4.56,41.16,20.05
	c19.75,14.28,45.22,41.1,54.42,87.73C689.5,250.14,689.04,250.82,688.34,250.96z M531.02,208.39c5.31,5.49,11.73,18.11,14.27,46.97
	c-2.44,1.73-5.57,3.39-9.06,4.94C522.96,220.53,528.9,210.51,531.02,208.39z M533.84,261.33c-2.53,1.05-5.19,2.05-7.86,2.97
	c-2.97-6.12-5.99-11.77-9.05-16.93c-0.46-2.27-4.9-25.4-0.8-37.4c0.8-2.33,2.56-4.15,4.84-4.98c2.21-0.8,4.64-0.56,6.68,0.66
	c0.44,0.27,0.91,0.59,1.39,0.96C525.81,209.83,520.47,221.4,533.84,261.33z M523.5,265.14c-4.68,1.55-9.28,2.89-13.16,3.94
	c-14.47-32.45-30.62-46.23-41.68-52.06c-6.35-3.36-11.75-4.57-15.55-4.95c6.85-2.79,13.74-3.38,20.59-1.73
	C491.09,214.54,507.84,232.98,523.5,265.14z M507.8,269.75c-1.42,0.37-2.7,0.7-3.79,0.96c-4.16,1.03-8.26,1.86-12.25,2.48
	c-16.08-34.2-31.91-45.24-42.4-48.46c-5.61-1.72-10.21-1.45-13.42-0.77c1.95-2,4.05-3.86,6.28-5.56c1.88-1.42,3.76-2.67,5.64-3.76
	c1.24-0.16,9.14-0.9,19.8,4.79C478.25,225.09,493.75,238.42,507.8,269.75z M465.88,278.37c-19.8-33.34-36.91-34.43-43.22-33.41
	c2.39-6.31,5.68-12.04,9.76-17.06c0.96-0.51,7.2-3.47,16.28-0.65c9.89,3.07,24.85,13.64,40.37,46.33c-0.61,0.08-1.23,0.18-1.84,0.25
	C479.12,274.82,472.05,276.4,465.88,278.37z M463.36,279.21c-15.53,5.44-24.91,13.36-30.43,20.01c-5.39,6.51-7.93,12.64-9.09,16.43
	c-6.57-15.58-10.96-37.98-2.81-65.83c0.2-0.66,0.41-1.32,0.62-1.97C424.85,246.98,442.38,244.2,463.36,279.21z M396.04,435.03
	c2.14,5.83,9.28,24.85,17.31,41.41c-19.7-7.8-36.77-29.17-36.95-29.39c-0.17-0.22-0.42-0.38-0.69-0.45c-1-0.26-1.99-0.54-2.97-0.83
	C381.79,442.96,389.52,439.24,396.04,435.03z"/>
<path id="CODE_x5F_FDE8B8" class="st3" d="M631.75,376.78c1.08-0.2,24.61-4.39,41.95,6.1c-1.15-5.22-1.81-11.92-0.49-19.29
	c0.42-2.34,0.39-4.8-0.1-7.29c-0.58-2.96-1.3-5.74-2.16-8.27c-0.81-2.39,0.05-4.94,2.15-6.33c0.28-0.19,0.56-0.34,0.85-0.47
	c-0.41-0.48-0.81-0.96-1.2-1.46c-7.69,1.3-62.34,11.37-105.53,39.81c-0.16,0.11-0.35,0.16-0.54,0.16c-0.28,0-0.56-0.11-0.75-0.33
	c-0.33-0.38-0.34-0.93-0.02-1.31c0.29-0.34,24.87-28.5,74.58-37.64c-8.03-0.74-15.63-3.71-22.69-8.89
	c-9.3-6.82-16.87-16.78-22.98-27.75c0.12,17.24,7.55,34.26,7.63,34.45c0.18,0.4,0.14,0.87-0.1,1.24c-0.24,0.36-0.65,0.59-1.09,0.59
	c-21.33,0-37.61-11.37-47.07-32.86c-7.07-16.08-7.84-31.89-7.87-32.55c-0.13-5.95-0.4-11.37-0.78-16.36
	c-2.7,1.74-6.01,3.39-9.61,4.93c-0.02,0.01-0.04,0.03-0.06,0.03c-0.01,0.01-0.02,0.01-0.04,0.01c-8.53,3.64-18.63,6.64-25.85,8.57
	c-0.05,0.01-0.09,0.02-0.14,0.03c-1.99,0.53-3.76,0.98-5.21,1.34c-4.54,1.12-9.01,2-13.33,2.66c-0.04,0-0.07,0.01-0.11,0.01
	c-1.22,0.19-2.44,0.36-3.64,0.5c-29.6,3.59-44.89,15.22-52.51,24.34c-7.33,8.78-9.16,16.98-9.48,18.74
	c0.67,1.39,1.34,2.72,2.02,3.98c9.02,16.77,20.49,25.86,20.6,25.95c0.39,0.31,0.58,0.81,0.47,1.3c-0.11,0.49-0.48,0.87-0.96,0.99
	c-3.94,0.95-7.7,0.12-10.58-1.02c14.41,17.22,40.23,24.78,40.51,24.86c0.58,0.16,0.97,0.7,0.94,1.3c-0.02,0.6-0.46,1.11-1.05,1.22
	c-6.93,1.35-13.5,1.95-19.72,1.95c-11.18,0-21.22-1.96-30.12-5.11c0.46,4.32,0.91,14.67-3.25,26.5c-0.02,0.07-0.05,0.14-0.08,0.21
	c10.12-4.19,48.37-17.82,89.09-3.89c0.48,0.17,0.76,0.66,0.65,1.16c-0.1,0.49-0.56,0.83-1.06,0.78c-0.6-0.05-59.73-5.14-93.84,12.41
	c-4.49,7.14-11.3,14.82-20.92,21.46c2.26,6.18,13.13,35.4,23.66,53.66c4,6.93,7.21,14.24,9.54,21.71l0.13,0.41
	c6.74,21.52,23.35,38.82,44.41,46.28c27.99,9.9,64.26,10.29,107.82,1.14c0.25-0.06,28.34-6.83,47.3-20.99
	c25.41-24.86,29.51-79.67,29.55-80.22c1.05-18.24,3.51-30.04,5.76-37.35c-6.29,6.05-12.81,9.63-12.81,9.63
	c-1.46,0.95-2.95,1.92-4.53,2.7c-1.59,0.74-3.18,1.54-4.87,2.06c-1.65,0.66-3.37,1.05-5.09,1.49c-0.86,0.24-1.75,0.32-2.62,0.48
	c-0.87,0.14-1.75,0.3-2.63,0.37c-3.53,0.37-7.11,0.31-10.61-0.18c-3.5-0.48-6.97-1.34-10.12-2.92
	c-12.36-6.07-17.08-21.47-17.08-21.47c-0.47,0.05-0.87-0.22-1.03-0.63c-0.1-0.25-2.31-6.13,1.52-13.27
	C601.39,387.46,613.23,380.84,631.75,376.78z M503.7,465.48c-1.81,2.97-4.37,5.43-7.12,7.56c-2.76,2.14-5.82,3.86-8.99,5.32
	c-3.22,1.33-6.53,2.48-9.95,3.1c-1.69,0.42-3.43,0.52-5.14,0.76c-1.73,0.12-3.46,0.15-5.18,0.12c-19.18-2.08-26.4-10.52-26.4-10.52
	c-0.12,0.35-0.43,0.61-0.8,0.67c-1.1,0.17-2.17,0.24-3.19,0.24c-7.96,0-13.32-4.49-13.57-4.7c-0.27-0.24-0.4-0.59-0.33-0.95
	c5.58-29.95,34.35-39.15,34.64-39.24c35.98-11.22,47.62,7.24,48.1,8.03c0.25,0.42,0.16,0.97-0.23,1.29
	C505.54,437.16,511.4,451.84,503.7,465.48z M602.94,487.48c0.34-0.64,1.13-0.87,1.76-0.54c0.63,0.34,0.87,1.13,0.53,1.77
	c-5.65,10.53-18.81,13.56-26.15,14.43c-3.18,0.38-6.43,1.46-9.64,3.22c-6.82,3.73-13.99,4.72-19.67,4.72
	c-6.19,0-10.62-1.17-10.97-1.26c-0.69-0.19-1.1-0.91-0.91-1.6s0.9-1.1,1.6-0.91c0.15,0.04,15.4,4.05,28.71-3.23
	c3.5-1.92,7.06-3.1,10.58-3.52C585.62,499.75,597.85,496.97,602.94,487.48z M634.62,313.21c6.28,7.99,18.39,20.17,34.65,21.75
	c0.6,0.91,1.21,1.8,1.86,2.68c-6.33,0.03-12.36,0.39-18.11,1c-0.04-0.35-0.23-0.67-0.52-0.89
	C652.37,337.65,640.82,329,634.62,313.21z M727.56,411.12l-0.8-8.49c0.07-0.19,0.13-0.38,0.19-0.57c0.79-2.73,0.22-5.25-1.61-7.35
	c1.44-5.4,3.79-12.18,7.63-19.41c1.43-2.68,2.09-5.59,1.91-8.42c-0.24-3.89-1.91-6.47-4.82-7.55c-0.17-1.38-0.7-4-2.35-5.98
	c1.95-0.11,4.93,0.48,7.74,4.17c0.21,0.29,0.54,0.44,0.87,0.44c0.23,0,0.47-0.08,0.67-0.23c0.48-0.37,0.57-1.06,0.21-1.54
	c-4.56-6-9.83-5.21-11.79-4.64c-1.37-0.65-2.96-0.82-4.75-0.53c-0.15-0.25-0.33-0.54-0.55-0.85c1.13-2.35,5.59-10.03,14.44-6.95
	c3.27,1.14,6.21,3.4,8.28,6.38C747.78,356.71,755.98,376.75,727.56,411.12z M730.67,374.08c-8.28,15.58-9.83,28.87-10.09,31.92
	c-10.45,7.19-24.89,3.9-32.75,1.21c-3.02-1.04-5.63-2.56-7.82-4.48c0.05-1.34,0.14-4.64-0.04-9.51c0-0.1-0.02-0.21-0.05-0.31
	c0-0.01,0-0.02-0.01-0.02c-0.02-0.09-0.05-0.16-0.09-0.24c-0.07-0.13-6.85-12.98-4.05-28.6c0.48-2.66,0.44-5.44-0.11-8.25
	c-0.6-3.07-1.35-5.97-2.25-8.6c-0.52-1.56,0.28-2.77,1.13-3.34c0.86-0.57,2.21-0.8,3.39,0.25c3.76,3.35,6.51,8.82,8.18,16.27
	c0.1,0.44,0.44,0.81,0.88,0.95c0.45,0.14,11.09,3.72,11.09,18.05c0,0.72,0.58,1.3,1.3,1.3c0.72,0,1.3-0.58,1.3-1.3
	c0-4.04-0.8-7.33-1.99-10c0.93,0.55,2.18,1.03,3.73,1.03c0.45,0,0.92-0.04,1.41-0.13c0.25,1.15,0.78,2.23,1.58,3.14
	c1.32,1.49,3.16,2.31,5.14,2.31c0.22,0,0.44,0,0.66-0.03c0.77-0.07,1.55-0.23,2.35-0.46c0.3,0.75,0.75,1.44,1.34,2.03
	c1.38,1.37,3.31,1.94,5.18,1.54c2.63-0.57,4.9-2.47,6.77-5.65c0.37-0.62,0.16-1.42-0.46-1.78c-0.62-0.37-1.41-0.16-1.78,0.46
	c-1.49,2.53-3.19,4.02-5.08,4.43c-1.02,0.22-2.04-0.09-2.8-0.85c-0.83-0.82-1.18-2-0.94-3.14c0.86-4.04,4.54-7.48,6.65-9.18
	c1.81-1.44,4.09-2.02,6.09-1.54c0.86,0.21,3.47,0.84,3.76,5.49C732.43,369.39,731.88,371.82,730.67,374.08z M713.83,357.16
	c1.38-1.12,2.83-2.01,4.29-2.65c2.83-1.24,5.05-1.37,6.6-0.39c1.66,1.06,2.35,3.22,2.63,4.69c-2.27-0.07-4.58,0.7-6.53,2.26
	c-2.92,2.34-6.6,6.08-7.57,10.67c-0.06,0.31-0.1,0.62-0.11,0.92c-0.75,0.24-1.47,0.39-2.16,0.46c-1.4,0.12-2.71-0.39-3.62-1.42
	c-0.93-1.05-1.29-2.46-0.98-3.87C707.45,362.95,711.51,359.05,713.83,357.16z M697.56,364.02c-0.58-1.63-0.74-3.37-0.48-5.14
	c0.61-3.98,3.36-7.51,7.38-9.45c3.56-1.73,6.7-2.1,9.32-1.12c2.13,0.79,3.5,2.34,4.26,3.44c-0.32,0.12-0.64,0.23-0.96,0.38
	c-1.68,0.73-3.32,1.74-4.89,3.01c-2.59,2.11-7.12,6.48-8.35,12.13c-0.02,0.12-0.04,0.24-0.06,0.36c-1.45,0.37-2.79,0.17-3.98-0.61
	C698.54,366.21,697.89,364.94,697.56,364.02z M696.97,352.44c1.96-9.63,5.54-18.24,9.85-23.65c0.89-1.13,2.17-1.18,3.06-0.85
	c0.91,0.33,1.86,1.2,1.82,2.67c-0.22,7.32-0.9,12.46-1.23,14.58c-2.22,0.05-4.61,0.67-7.14,1.9
	C700.7,348.36,698.52,350.22,696.97,352.44z M584.39,559.28c0.15-0.04,8.78-2.12,19.74-6.37c-4.16,7.95-9.26,17.82-13,25.07
	c-4.94-6.86-8.99-14.74-10.57-17.94C581.83,559.78,583.1,559.55,584.39,559.28z M419.67,488.5c1.1,1.91,2.13,3.84,3.1,5.8
	c-0.9-0.05-1.95,0.06-3,0.52c-1.84,0.82-3.18,2.49-3.98,4.99c-0.3,0.9-0.49,1.82-0.59,2.75c-25.93-11.89-36.62-26.41-41.01-36.57
	c-3.63-8.4-3.67-15.25-3.47-18.14c1.29,0.41,2.59,0.8,3.91,1.15c0.74,0.91,2.8,3.4,5.86,6.61c-1.36-0.09-2.83-0.01-3.92,0.52
	c-0.54,0.27-0.77,0.93-0.5,1.47c0.27,0.55,0.92,0.77,1.47,0.51c1.19-0.59,3.75-0.29,5.49,0.11c7.54,7.51,19.22,17.36,31.98,21.59
	C416.55,482.87,418.11,485.81,419.67,488.5z"/>
<path id="CODE_x5F_433129" class="st4" d="M633.64,536.91c25.49-25.82,29.47-78.93,29.63-81.22c1.23-21.43,4.47-33.81,6.87-40.29
	c0.72-1.97,1.38-3.4,1.87-4.37c2.6,3.63,9.41,11.62,20.74,14.4c10.58,2.58,22.21-0.09,34.58-7.97
	c-1.06,12.92-6.91,75.97-23.45,129.29c-19.88,11.36-37.8,13.06-53.26,5.05C641,546.81,635.34,539.39,633.64,536.91z M758.79,936.45
	c-8.34,2.2-15.76,3.02-22.15,3.02c-11.92,0-20.25-2.8-24.37-4.6c0.77,1.91,1.57,3.38,1.92,3.99c21.16,10.3,41.03,1.88,44.69,0.14
	C758.93,938.22,758.89,937.35,758.79,936.45z M758.37,933.88c-0.52-2.5-1.27-4.78-1.55-5.58c-0.99-0.88-2.1-1.82-3.33-2.77
	c-7.97,3.16-14.4,4.31-19.49,4.31c-9.74,0-14.62-4.12-16.36-6.02c-0.45,0.24-0.91,0.48-1.37,0.71c-1.68,0.84-3.66,1.8-5.85,2.81
	c0.08,1.38,0.34,2.77,0.69,4.07C713.98,932.93,731.26,941.09,758.37,933.88z M712.7,683.01c3.79,14.73,2.72,26.76,2.57,28.16
	c0.08,1.03,0.71,9.43,2.11,22.21c22.13-14.63,27.87-26.67,28.74-34.27c0.88-7.75-2.9-12.51-3.74-13.47
	C733.84,681.95,723.45,681.56,712.7,683.01z M723.98,920.2l-0.55,0.32c-1.12,0.67-2.27,1.34-3.43,2c2.68,2.62,11.4,8.51,31,1.2
	C743.62,918.66,733.5,914.56,723.98,920.2z M618.58,617.51c0.45-2.5,4.75-27.17,6.09-52.71c2.67-9.72,3.18-20.83,3.27-23.69
	c1.25-0.81,2.49-1.65,3.69-2.52c1.98,2.87,7.78,10.29,17.69,15.46c11.05,5.76,29.4,9.59,54.59-4.33c1.07,9.54,5.61,52.71,4.99,94.88
	c0,0.15,0.03,0.3,0.08,0.45c0.38,1.09,8.26,23.19,24.37,35.36c-29.68-4.85-70.9,15.55-83.97,22.59c-2.63,1.41-5.92,0.56-7.49-1.95
	C629.27,680.83,619.26,621.57,618.58,617.51z M652.58,651.42c0.15,0.72,1.57,7.16,4.23,9.82c0.2,0.2,0.46,0.33,0.73,0.37
	c0.2,0.03,2.35,0.34,5.65,0.34c4.25,0,10.38-0.52,16.64-2.82c3.76-1.38,7.64-2.03,11.52-2.04l13.32,0.11c0.39,0,0.75-0.17,0.99-0.46
	c0.25-0.29,0.36-0.68,0.3-1.06c-0.05-0.27-1.13-6.56-3.46-10.49c-0.21-0.34-0.55-0.57-0.95-0.62c-1.59-0.21-39.02-5.03-48.67,5.71
	C652.61,650.59,652.49,651.01,652.58,651.42z M712.73,710.46c-19.82,15.09-45.46,29.35-55.62,34.8c-3.21,1.72-7.1,1.54-10.16-0.48
	c-17.51-11.53-32.02-23.04-34.41-24.95l-26.15-109.87c1.46-2.42,2.91-5.02,4.31-7.68l0.01-0.01c6.48-12.27,11.92-25.65,12.72-27.67
	l4.82-4.66c0.9,8.18,3.85,33.38,7.74,47.83c0.52,3.19,10.49,63.49,23.7,84.65c2.28,3.68,7.08,4.93,10.92,2.87
	c9.71-5.23,35.21-17.97,59.5-21.89C713.54,696.61,712.93,707.9,712.73,710.46z M598.2,628.74c3.15,0,5.71-2.56,5.71-5.71
	c0-3.15-2.56-5.7-5.71-5.7c-3.14,0-5.7,2.55-5.7,5.7C592.5,626.18,595.06,628.74,598.2,628.74z M607.62,669.41
	c3.14,0,5.7-2.56,5.7-5.7c0-3.15-2.56-5.71-5.7-5.71c-3.15,0-5.71,2.56-5.71,5.71C601.91,666.85,604.47,669.41,607.62,669.41z
	 M622.03,698.21c0-3.15-2.56-5.71-5.71-5.71c-3.14,0-5.7,2.56-5.7,5.71c0,3.14,2.56,5.7,5.7,5.7
	C619.47,703.91,622.03,701.35,622.03,698.21z M701.01,931.31c1.25,1.6,4,4.19,8.8,4.43c-0.82-2.07-1.61-4.62-1.9-7.28
	C705.75,929.41,703.42,930.38,701.01,931.31z M678.94,656.69c4.05-1.49,8.24-2.23,12.43-2.2l11.72,0.09
	c-0.42-1.88-1.26-5.12-2.52-7.51c-4.91-0.59-36.5-3.95-45.29,4.48c0.48,1.99,1.62,5.77,3.09,7.54
	C660.47,659.33,669.69,660.09,678.94,656.69z M622.04,565.36c-1.77-0.94-6.27-3.42-10.01-6.36l-1.46,8.2
	c0.23,2.24,2.79,26.74,6.46,43.77C618.48,601.81,621.02,583.86,622.04,565.36z M616.32,694.5c-2.04,0-3.7,1.66-3.7,3.71
	c0,2.04,1.66,3.7,3.7,3.7c2.05,0,3.71-1.66,3.71-3.7C620.03,696.16,618.37,694.5,616.32,694.5z M610.12,720.86l-26.39-110.82
	c-0.08-0.34-0.02-0.69,0.16-0.98c1.39-2.28,2.77-4.72,4.11-7.23c-5.9-7.48-12.03-21.64-13.21-24.44c-0.42-0.2-0.83-0.39-1.22-0.57
	c3.15,12.23,14.99,62.51,3,87.45c-0.38,0.81-0.82,1.58-1.21,2.26c-2.64,4.64-13.85,25.16-17.73,45.95
	c0.56,2.2,4.87,18.75,12.14,30.19c2.03,3.19,6.09,4.29,9.45,2.54c6.76-3.5,19.93-10.94,33.48-21.94c-1.35-1.06-2.1-1.67-2.14-1.7
	C610.34,721.39,610.18,721.14,610.12,720.86z M607.62,660c-2.05,0-3.71,1.66-3.71,3.71c0,2.04,1.66,3.7,3.71,3.7
	c2.04,0,3.7-1.66,3.7-3.7C611.32,661.66,609.66,660,607.62,660z M598.2,619.33c-2.04,0-3.7,1.66-3.7,3.7c0,2.05,1.66,3.71,3.7,3.71
	c2.05,0,3.71-1.66,3.71-3.71C601.91,620.99,600.25,619.33,598.2,619.33z M519.01,693.24c-1.03-8.05-0.9-16.28,0.38-24.49
	c6.97-44.63,18.78-72.57,20.11-75.6c1.11-0.87,5.77-4.5,11.82-9.54c4.43,6.8,26.04,40.79,27.58,59.06
	c-0.54,7.72-1.96,14.83-4.67,20.48c-0.35,0.72-0.76,1.45-1.13,2.1c-1.41,2.48-5.23,9.42-9.1,18.53c-3.53,8.29-7.11,18.37-8.97,28.54
	v0.01c-0.06,0.32-0.12,0.65-0.17,0.98c-4.82-11.49-5.74-23.06-5.18-32.59c0.17-3.14,0.51-6.05,0.92-8.67
	c0.7-4.5,2.13-9.03,4.37-13.86c7.89-17.09,1.54-35.63,1.27-36.41c-0.24-0.68-0.98-1.03-1.66-0.8c-0.68,0.24-1.03,0.98-0.79,1.66
	c0.02,0.08,1.2,3.53,1.93,8.73c-5.21-6.48-7.99-16.68-8.02-16.79c-0.19-0.7-0.9-1.11-1.6-0.92c-0.69,0.18-1.1,0.9-0.92,1.59
	c0.16,0.58,3.79,13.89,10.97,20.37c0.41,6.31-0.14,14.1-3.54,21.48c-2.34,5.05-3.84,9.81-4.58,14.54
	c-1.71,10.87-2.19,26.66,4.31,42.39c-3.37,0.9-6.1,2.82-8.13,5.72c-5.18,7.41-4.41,19.23-3.77,24.34
	C529.78,738.18,522.58,721.09,519.01,693.24z M562.37,683.08c0.17-0.53,0.26-1.1,0.26-1.69c0-3.15-2.55-5.71-5.7-5.71
	c-2.95,0-5.39,2.25-5.68,5.13c-0.02,0.19-0.03,0.38-0.03,0.58c0,3.15,2.56,5.7,5.71,5.7C559.49,687.09,561.65,685.41,562.37,683.08z
	 M560.2,661.24c0,3.15,2.56,5.71,5.71,5.71c3.14,0,5.7-2.56,5.7-5.71s-2.56-5.7-5.7-5.7C562.76,655.54,560.2,658.09,560.2,661.24z
	 M570.52,575.48c-2.21-0.95-3.55-1.45-3.59-1.47c-0.34-0.12-0.61-0.38-0.75-0.72c-0.14-0.33-0.13-0.71,0.02-1.04l1.34-2.89
	c-4.82,4.5-9.8,8.84-14.22,12.56c3.48,5.28,19.6,30.35,25.82,49.79C578.62,606.79,571.67,579.79,570.52,575.48z M565.91,664.95
	c2.04,0,3.7-1.66,3.7-3.71c0-2.04-1.66-3.7-3.7-3.7c-2.05,0-3.71,1.66-3.71,3.7C562.2,663.29,563.86,664.95,565.91,664.95z
	 M556.93,677.68c-2.05,0-3.71,1.66-3.71,3.71c0,2.04,1.66,3.7,3.71,3.7c2.04,0,3.7-1.66,3.7-3.7
	C560.63,679.34,558.97,677.68,556.93,677.68z M544.08,933.34c2.73,0.5,8.61,1.21,11.9-1.3c-3.77-0.84-7.19-2.09-10.17-3.47
	C545.25,930.31,544.66,931.91,544.08,933.34z M536.32,935.35c-0.1,0.1-0.21,0.18-0.33,0.24c-4.5,2.39-10.13,3.25-15.92,3.25
	c-12.29,0-25.26-3.89-29.57-5.31c-0.13,1.07-0.11,2.12,0.11,3.1c3.48,1.82,25.79,12.63,47.85,2.45c0.69-1.2,3.08-5.59,4.99-11.68
	c-0.42-0.22-0.82-0.44-1.22-0.66C540.17,931.32,536.49,935.17,536.32,935.35z M534.58,933.39c0.69-0.74,3.76-4.18,5.4-7.98
	c-3.04-1.88-5.23-3.65-6.41-4.67c-4.12,4.09-10.08,5.43-16.08,5.43c-9.27,0-18.65-3.17-21.65-4.28c-1.94,2.74-3.84,5.96-4.79,9.08
	C496.56,932.77,521.32,940.23,534.58,933.39z M531.62,919.01c-10.87-9.16-20.68-7.18-27.06-3.82c-1.1,0.59-2.36,0.66-3.49,0.25
	c-0.76,0.82-2.12,2.34-3.61,4.26C503.17,921.69,522.7,927.61,531.62,919.01z"/>
<path id="CODE_x5F_969273" class="st5" d="M744.32,861.46c7.97,19.5,17.5,46.55,17.23,63.92c-0.01,0.67-0.38,1.23-0.99,1.5
	c-0.6,0.26-1.26,0.15-1.75-0.29c-7.51-6.77-22.18-16.89-36.16-8.63l-0.54,0.32c-2.27,1.35-4.62,2.74-7.01,3.93
	c-1.84,0.92-4.06,1.99-6.53,3.11c-4.09,1.85-8.87,3.82-13.82,5.48c-1.05,0.36-2.17,0.2-3.08-0.42c-0.89-0.61-1.43-1.58-1.48-2.66
	c-0.41-9.19-1.36-27.11-3.02-43.86c-0.24-2.41-0.52-4.81-0.85-7.18c1.34,0.07,3.43,0.15,6.06,0.15
	C705.06,876.83,730.23,874.98,744.32,861.46z M728.15,815.53c-6.73-29.31-10.83-59.37-13.11-79.64c-0.01-0.04-0.01-0.07-0.01-0.11
	c-1.19-10.55-1.87-18.43-2.17-22.16c-19.75,14.8-44.55,28.58-54.52,33.93c-1.85,0.99-3.87,1.49-5.9,1.49c-2.41,0-4.82-0.7-6.92-2.09
	c-5.9-3.88-11.45-7.76-16.33-11.28c-0.48,6.93-1.4,28.79,3.88,51.18c20.28,6.49,33.54,28.11,41.48,46.76
	c5.38,12.66,9.2,26.23,11.38,40.43c6.4,0.35,41.12,1.36,57.32-15.18c-1.22-2.95-2.4-5.7-3.48-8.17
	C734.81,839.33,730.9,827.5,728.15,815.53z M618.45,727.72c-0.3,8.13-0.89,34.8,2.99,57.2c3.05,0.07,5.98,0.44,8.77,1.12
	c-5.47-24.35-3.87-47.74-3.49-52.16C623.59,731.59,620.8,729.5,618.45,727.72z M620.23,787.5c-3.1,0-5.93-0.64-8.43-1.91
	c-3.03-1.54-4.93-3.32-5.64-5.29c-0.25-0.68,0.1-1.42,0.78-1.67c0.67-0.24,1.42,0.11,1.66,0.78c0.48,1.31,1.99,2.65,4.38,3.86
	c1.74,0.88,3.69,1.37,5.8,1.54c-4.19-24.73-3.07-54.26-2.85-59.02c-0.39-0.31-0.77-0.6-1.12-0.88
	c-13.91,11.36-27.47,19.02-34.39,22.61c-1.47,0.76-3.03,1.12-4.56,1.12c-3.26,0-6.41-1.63-8.29-4.58
	c-5.23-8.24-8.91-18.75-10.87-25.24c-0.27,2.59-0.42,5.16-0.38,7.67c0.1,7.22-0.53,13.53-1.91,19.3c-1.31,5.48-3,10.32-5.01,14.41
	c-0.17,0.37-18.57,40.1-23.83,82.26c-0.33,2.6-1.07,5.17-2.2,7.64c-0.52,1.14-1.19,2.61-1.96,4.32
	c1.56,3.45,13.36,25.35,58.25,18.05c6.68-30.37,20.18-65.18,47.45-84.41c-2.11-0.36-4.29-0.56-6.54-0.56
	C620.45,787.5,620.34,787.5,620.23,787.5z M562.51,876.56c-15.78,0-25.88-4.15-32-8.24c-5.78-3.86-8.92-8.16-10.46-10.84
	c-6.14,13.88-16.56,38.8-19.22,53.57c-0.12,0.66,0.14,1.3,0.69,1.71c0.55,0.4,1.23,0.45,1.83,0.13c2.83-1.49,7.01-3.07,12.01-3.07
	c5.55,0,12.11,1.94,18.98,8.1c0.01,0.01,0.02,0.02,0.03,0.03c0.19,0.18,15.44,14.72,36.14,12.29c1.49-0.17,2.62-1.44,2.65-2.94
	c0.12-7.53,0.94-28.23,5.92-52.1C572.97,876.14,567.45,876.56,562.51,876.56z"/>
<path id="CODE_x5F_B38F6C" class="st6" d="M498.48,443.08c1.42,3.14,2.19,6.7,2.19,10.51c-0.01,6.19-2.44,12.01-6.87,16.39
	c-4.47,4.44-10.42,6.83-16.72,6.8c-7.1-0.06-13.45-3.3-17.7-8.35c-0.43-0.52-0.85-1.05-1.23-1.61l8.18-4.44
	c0.4-0.21,0.9-0.13,1.21,0.2c4.72,5.04,10.44,4.36,14.42,2.91c2.95-1.08,5.29-3.21,6.42-5.82c2.43-5.63-1.1-10.91-1.14-10.96
	c-0.15-0.23-0.21-0.51-0.15-0.78s0.23-0.5,0.46-0.64l10.04-6.01C497.91,441.86,498.21,442.46,498.48,443.08z M650.86,398.22
	c-0.28-0.6-0.59-1.19-0.93-1.77l-9.89,5.92c-0.24,0.14-0.41,0.37-0.47,0.64c-0.06,0.27,0,0.55,0.16,0.78
	c0.03,0.05,3.56,5.32,1.13,10.95c-1.13,2.62-3.47,4.74-6.42,5.83c-3.98,1.45-9.7,2.13-14.42-2.91c-0.31-0.34-0.81-0.41-1.21-0.2
	l-8.2,4.45c0.39,0.55,0.8,1.08,1.25,1.6c0.38,0.47,0.79,0.92,1.22,1.36c4.38,4.45,10.24,6.93,16.48,6.99
	c0.84,0.01,1.67-0.03,2.49-0.11c5.32-0.51,10.26-2.81,14.11-6.61c4.46-4.38,6.94-10.23,6.99-16.48
	C653.18,404.95,652.36,401.4,650.86,398.22z M428.98,509.68c-1.4-4.48-3.12-8.9-5.15-13.21c-0.77-0.19-2.05-0.36-3.26,0.19
	c-1.29,0.57-2.26,1.84-2.88,3.77c-0.93,2.85-0.73,6.06,0.52,8.8c2.27,4.93,6.35,6.43,12.13,4.47c-0.44-1.19-0.85-2.39-1.23-3.61
	L428.98,509.68z"/>
<path id="CODE_x5F_6E4F2E" class="st7" d="M565.93,379.41c-0.33-0.38-0.34-0.93-0.02-1.31c0.29-0.34,24.87-28.5,74.58-37.64
	c1.36,0.14,2.73,0.2,4.11,0.2c2.41,0,4.86-0.19,7.33-0.58c0.52-0.08,0.94-0.47,1.07-0.98c0.04-0.16,0.04-0.31,0.02-0.46
	c5.75-0.61,11.78-0.97,18.11-1c0.52,0.73,1.06,1.44,1.62,2.13c-7.69,1.3-62.34,11.37-105.53,39.81c-0.16,0.11-0.35,0.16-0.54,0.16
	C566.4,379.74,566.12,379.63,565.93,379.41z M505.77,435.87c0.25,0.42,0.16,0.97-0.23,1.29c-0.38,0.31-0.94,0.3-1.31-0.04
	c-4.3-3.95-9.6-5.82-14.9-6.51c4.51,2.29,8.13,5.96,10.46,10.54c1.85,3.65,2.88,7.89,2.88,12.44c-0.01,6.73-2.66,13.05-7.46,17.81
	c-0.09,0.09-0.18,0.18-0.28,0.26c0.17-0.09,0.34-0.19,0.51-0.29c2.86-1.75,5.65-3.64,8.26-5.89c-1.81,2.97-4.37,5.43-7.12,7.56
	c-2.76,2.14-5.82,3.86-8.99,5.32c-3.22,1.33-6.53,2.48-9.95,3.1c-1.69,0.42-3.43,0.52-5.14,0.76c-1.73,0.12-3.46,0.15-5.18,0.12
	c1.66-0.54,3.32-0.91,4.95-1.38l2.44-0.72l1.22-0.34l1.2-0.4c0.8-0.27,1.6-0.54,2.4-0.78c0.05-0.02,0.1-0.03,0.15-0.05
	c-0.79,0.07-1.59,0.11-2.39,0.11c-0.08,0-0.15,0-0.22,0c-8.11-0.07-15.32-3.96-19.91-9.94c-0.07-0.08-0.13-0.16-0.19-0.24v-0.01
	c-3.23-4.29-5.13-9.64-5.08-15.42c0.05-5.8,1.91-11.2,5.17-15.45c-15.38,9.78-19.07,24.63-19.43,26.24
	c0.52,4.24,3.02,6.81,3.05,6.84c0.26,0.26,0.36,0.66,0.24,1.02c-0.12,0.35-0.43,0.61-0.8,0.67c-1.1,0.17-2.17,0.24-3.19,0.24
	c-7.96,0-13.32-4.49-13.57-4.7c-0.27-0.24-0.4-0.59-0.33-0.95c5.58-29.95,34.35-39.15,34.64-39.24
	C493.65,416.62,505.29,435.08,505.77,435.87z M482.04,430.32c-9.31,0.39-17.08,3.35-17.22,3.4c-0.36,0.15-0.71,0.3-1.06,0.45
	c-6.12,4.01-9.8,11.12-9.87,19.02c-0.04,5.07,1.54,9.78,4.26,13.63c0.38,0.56,0.8,1.09,1.23,1.61c4.25,5.05,10.6,8.29,17.7,8.35
	c6.3,0.03,12.25-2.36,16.72-6.8c4.43-4.38,6.86-10.2,6.87-16.39c0-3.81-0.77-7.37-2.19-10.51c-0.27-0.62-0.57-1.22-0.89-1.8
	C494.37,435.51,488.85,431.43,482.04,430.32z M676.91,392.61c-0.79,0.43-1.75,1.1-2.4,2.09c-0.3,0.44-0.53,0.93-0.67,1.49
	c-0.08,0.31-0.12,0.62-0.12,0.95c-8.21-13.68-29.66-12.75-29.88-12.74c-1.59,0.01-3.13,0.06-4.61,0.14
	c5.56,2.26,10.12,6.48,12.91,11.77c1.96,3.71,3.05,7.93,3.01,12.37c-0.06,6.78-2.75,13.14-7.59,17.89c-1.94,1.9-4.12,3.46-6.49,4.64
	l0.09-0.02c0.84-0.15,1.65-0.39,2.49-0.56c1.68-0.35,3.31-0.86,4.97-1.31c1.68-0.44,3.28-1.07,5-1.51c-1.46,0.95-2.95,1.92-4.53,2.7
	c-1.59,0.74-3.18,1.54-4.87,2.06c-1.65,0.66-3.37,1.05-5.09,1.49c-0.86,0.24-1.75,0.32-2.62,0.48c-0.87,0.14-1.75,0.3-2.63,0.37
	c-3.53,0.37-7.11,0.31-10.61-0.18c-3.5-0.48-6.97-1.34-10.12-2.92c3,0.47,5.97,0.74,8.94,0.87c-3.91-1.23-7.48-3.41-10.43-6.41
	c-0.74-0.75-1.43-1.54-2.05-2.37c-0.06-0.06-0.11-0.14-0.16-0.22c0,0,0-0.01,0-0.01c-3.34-4.43-5.13-9.79-5.08-15.42
	c0.05-5.71,1.82-10.9,5.02-15.06c-10.62,7.19-12.41,16.18-12.44,16.33c-0.08,0.44-0.44,0.78-0.88,0.82
	c-0.47,0.05-0.87-0.22-1.03-0.63c-0.1-0.25-2.31-6.13,1.52-13.27c4.83-8.98,16.67-15.6,35.19-19.66c1.08-0.2,24.61-4.39,41.95,6.1
	c0.23,1.01,0.47,1.96,0.72,2.85C675.3,388.87,676.29,391.25,676.91,392.61z M633.55,385.03c-6.93,0.81-12.57,2.38-17.15,4.36
	c-0.01,0-0.01,0.01-0.01,0.01c-6.28,4.1-9.95,10.94-10.02,18.87c-0.04,4.95,1.45,9.67,4.24,13.64c0.39,0.55,0.8,1.08,1.25,1.6
	c0.38,0.47,0.79,0.92,1.22,1.36c4.38,4.45,10.24,6.93,16.48,6.99c0.84,0.01,1.67-0.03,2.49-0.11c5.32-0.51,10.26-2.81,14.11-6.61
	c4.46-4.38,6.94-10.23,6.99-16.48c0.03-3.71-0.79-7.26-2.29-10.44c-0.28-0.6-0.59-1.19-0.93-1.77
	C646.5,390.49,640.58,386.14,633.55,385.03z M604.7,486.94c-0.63-0.33-1.42-0.1-1.76,0.54c-5.09,9.49-17.32,12.27-24.16,13.08
	c-3.52,0.42-7.08,1.6-10.58,3.52c-13.31,7.28-28.56,3.27-28.71,3.23c-0.7-0.19-1.41,0.22-1.6,0.91s0.22,1.41,0.91,1.6
	c0.35,0.09,4.78,1.26,10.97,1.26c5.68,0,12.85-0.99,19.67-4.72c3.21-1.76,6.46-2.84,9.64-3.22c7.34-0.87,20.5-3.9,26.15-14.43
	C605.57,488.07,605.33,487.28,604.7,486.94z M513.43,397.73c-40.72-13.93-78.97-0.3-89.09,3.89c-0.3,0.84-0.64,1.72-1.02,2.61
	c-0.65,1.52-1.42,3.11-2.31,4.73c-0.56,1.03-1.17,2.07-1.83,3.12c34.11-17.55,93.24-12.46,93.84-12.41c0.5,0.05,0.96-0.29,1.06-0.78
	C514.19,398.39,513.91,397.9,513.43,397.73z"/>
<path id="CODE_x5F_FFFFFF" class="st8" d="M477.29,478.78c0.8,0,1.6-0.04,2.39-0.11c-0.05,0.02-0.1,0.03-0.15,0.05
	c-0.8,0.24-1.6,0.51-2.4,0.78l-1.2,0.4l-1.22,0.34l-2.44,0.72c-1.63,0.47-3.29,0.84-4.95,1.38c-19.18-2.08-26.4-10.52-26.4-10.52
	c0.12-0.36,0.02-0.76-0.24-1.02c-0.03-0.03-2.53-2.6-3.05-6.84c0.36-1.61,4.05-16.46,19.43-26.24c-3.26,4.25-5.12,9.65-5.17,15.45
	c-0.05,5.78,1.85,11.13,5.08,15.42v0.01c0.05,0.09,0.12,0.18,0.19,0.24c4.59,5.98,11.8,9.87,19.91,9.94
	C477.14,478.78,477.21,478.78,477.29,478.78z M587.15,589.86c-0.28,0-0.55-0.08-0.78-0.26c-0.25-0.19-0.42-0.45-0.49-0.74
	s-0.04-0.61,0.11-0.89c0.03-0.06,0.72-1.41,1.86-3.61c-3.3-2.01-6.54-3.76-9.46-5.23c1.16,2.61,2.96,6.49,5.04,10.42
	c1.84,3.48,3.88,7,5.9,9.74c3.85-7.45,7.24-15.09,9.39-20.13l-10.67,10.33C587.8,589.74,587.47,589.86,587.15,589.86z
	 M611.66,426.27c-0.74-0.75-1.43-1.54-2.05-2.37c-3.45-4.47-5.29-9.92-5.24-15.65c0.05-5.71,1.82-10.9,5.02-15.06
	c-10.62,7.19-12.41,16.18-12.44,16.33c-0.08,0.44-0.44,0.78-0.88,0.82c0,0,4.72,15.4,17.08,21.47c3,0.47,5.97,0.74,8.94,0.87
	C618.18,431.45,614.61,429.27,611.66,426.27z M724.85,410.12l-0.37-3.94c-0.32,0.33-0.66,0.64-1.04,0.94
	c-5.49,4.38-12.08,5.83-18.41,5.83c-6.91,0-13.52-1.73-18.05-3.29c-3.66-1.25-6.82-3.13-9.4-5.59c-0.99-0.94-1.79-1.85-2.39-2.74
	l-0.54,2.51c0.14,0.07,0.26,0.17,0.36,0.3C675.83,405.16,695.22,428.68,724.85,410.12z M673.72,397.14
	c-8.21-13.68-29.66-12.75-29.88-12.74c-1.59,0.01-3.13,0.06-4.61,0.14c5.56,2.26,10.12,6.48,12.91,11.77
	c1.96,3.71,3.05,7.93,3.01,12.37c-0.06,6.78-2.75,13.14-7.59,17.89c-1.94,1.9-4.12,3.46-6.49,4.64l0.09-0.02
	c0.84-0.15,1.65-0.39,2.49-0.56c1.68-0.35,3.31-0.86,4.97-1.31c1.68-0.44,3.28-1.07,5-1.51c0,0,6.52-3.58,12.81-9.63
	c2.27-7.39,4.31-10.18,4.48-10.4c0.22-0.3,0.58-0.48,0.95-0.51l1.95-9.01C673.73,397.88,673.7,397.51,673.72,397.14z M504.23,437.12
	c-4.3-3.95-9.6-5.82-14.9-6.51c4.51,2.29,8.13,5.96,10.46,10.54c1.85,3.65,2.88,7.89,2.88,12.44c-0.01,6.73-2.66,13.05-7.46,17.81
	c-0.09,0.09-0.18,0.18-0.28,0.26c0.17-0.09,0.34-0.19,0.51-0.29c2.86-1.75,5.65-3.64,8.26-5.89c7.7-13.64,1.84-28.32,1.84-28.32
	C505.16,437.47,504.6,437.46,504.23,437.12z M725.26,414.43c0-0.01,0-0.01,0-0.01l-0.13-1.42c-8.26,4.93-15.8,6.75-22.42,6.75
	c-15.17,0-25.54-9.51-28.72-12.85l-0.39,1.84c1.85,2.73,8.47,11.41,19.8,14.17c9.7,2.36,20.45-0.1,31.97-7.3L725.26,414.43z
	 M624.48,390.77c-3.93-2.08-9.09-0.08-11.51,4.48c-1.16,2.18-1.53,4.62-1.04,6.87c0.5,2.31,1.84,4.15,3.78,5.17
	c1.05,0.56,2.19,0.83,3.35,0.83c1.58,0,3.17-0.49,4.6-1.4c1.42-0.91,2.68-2.24,3.56-3.91C629.63,398.26,628.41,392.86,624.48,390.77
	z M619.8,561.11c1.07,0.63,2.02,1.17,2.74,1.56c1.89-7.58,2.52-15.9,2.72-19.89c-0.82,0.49-1.65,0.97-2.48,1.44
	C622.49,546.61,621.39,554.96,619.8,561.11z M615.14,548.18c-0.05,1.54-0.31,5-1.57,8.72c1.25,0.98,2.6,1.92,3.91,2.77
	c1.15-4.72,2.03-10.63,2.48-13.91C618.36,546.6,616.75,547.41,615.14,548.18z M591.91,582.14l9.49-9.19l6.66-6.44l1.81-10.18
	c0.08-0.46,0.41-0.85,0.85-1c0.21-0.07,0.43-0.08,0.63-0.05c0.69-2.26,0.98-4.38,1.11-5.85c-1.56,0.7-3.1,1.36-4.61,1.99
	C602.93,560.78,596.06,574.08,591.91,582.14z M589.8,580.56c-2.78-3.73-5.3-7.79-7.32-11.34c-1.24,1.59-3.21,4.18-4.81,6.66
	c3.38,1.64,7.34,3.71,11.37,6.16C589.28,581.57,589.54,581.07,589.8,580.56z M577.92,560.56c-0.77,0.15-1.54,0.3-2.3,0.44l-2.9,3.36
	l-3.58,7.73c1.29,0.52,3.46,1.42,6.16,2.67c2.04-3.2,4.68-6.58,5.81-8C579.6,563.99,578.49,561.75,577.92,560.56z M571.58,561.71
	c-2.48,0.43-4.93,0.82-7.35,1.18c-0.74,1.41-2.81,5.44-5,10.5c3.84-3.39,7.77-7.01,11.44-10.63L571.58,561.71z M555.04,564.13
	c-0.92,2.15-3.83,9.26-6.32,18.26c1.91-1.59,3.98-3.33,6.13-5.19c2.25-5.78,4.77-10.99,6.21-13.84
	C559.03,563.64,557.03,563.89,555.04,564.13z M546.34,721.24c-5.33,7.63-3.55,21.22-3.07,24.23c0.49,0.25,1.3,0.65,2.27,1.09
	c-1.24-18.17,5.75-23.45,8.3-24.75c0.07-1.24,0.19-2.48,0.33-3.72c-0.27-0.55-0.51-1.09-0.77-1.64
	C550.46,717.15,548.08,718.75,546.34,721.24z M548.24,747.66c0.91,0.33,1.86,0.63,2.78,0.84c0.3-1.08,0.59-2.18,0.86-3.31
	c1.34-5.56,1.94-11.66,1.84-18.66c-0.01-0.5,0-1.01,0.01-1.51C551.19,727.13,546.96,732.93,548.24,747.66z M552.09,564.45
	c-1.44,0.16-2.87,0.31-4.29,0.44c-1.11,2.67-5.09,12.68-7.45,24.29c1.28-1.02,2.97-2.37,4.93-3.97
	C547.61,575.9,550.62,568.03,552.09,564.45z M463.22,452.21c1.06,0.56,2.2,0.83,3.36,0.83c1.58,0,3.17-0.49,4.59-1.4
	c1.43-0.91,2.67-2.24,3.56-3.9c1.16-2.18,1.53-4.62,1.04-6.87c-0.5-2.31-1.84-4.15-3.77-5.18c-1.93-1.02-4.21-1.1-6.4-0.23
	c-2.14,0.86-3.96,2.53-5.11,4.71C458.07,444.72,459.3,450.13,463.22,452.21z"/>
<path id="CODE_x5F_559AAE" class="st9" d="M630.59,788.84c4.74,1.28,9.09,3.45,13.09,6.25c-42.77,36.94-46.34,115.93-46.6,132.26
	c-0.05,2.79-2.17,5.15-4.94,5.47c-1.75,0.21-3.45,0.3-5.11,0.3c-2.3,0-4.51-0.18-6.63-0.5c-2.37,3.02-6.44,3.81-10.02,3.81
	c-2.49,0-4.74-0.38-6.02-0.65c-1.37,3.04-2.47,4.86-2.55,4.99c-0.13,0.22-0.33,0.39-0.55,0.5c-7.38,3.48-14.79,4.71-21.58,4.71
	c-3.88,0-7.55-0.4-10.91-1.02c3.68-0.74,7.43-1.92,11.18-3.69c0.22-0.11,0.42-0.28,0.55-0.5c0.08-0.13,1.18-1.95,2.55-4.99
	c1.28,0.27,3.53,0.65,6.02,0.65c3.58,0,7.65-0.79,10.02-3.81c2.12,0.32,4.33,0.5,6.63,0.5c1.66,0,3.36-0.09,5.11-0.3
	c2.77-0.32,4.89-2.68,4.94-5.47C576.04,910.03,580.03,822.2,630.59,788.84z M767.28,858.62c0-0.01,0-0.01-0.01-0.01
	c-1.34-3.25-2.63-6.27-3.8-8.96c-4.9-11.21-8.76-22.89-11.47-34.7c-6.63-28.88-10.71-58.5-12.99-78.68
	c19.23-12.48,29.68-24.91,31.01-36.94c1.08-9.77-4.41-15.45-4.64-15.68v-0.01c-0.03-0.02-0.06-0.03-0.08-0.05
	c-0.1-0.08-0.2-0.17-0.32-0.22c-0.01,0-0.02-0.01-0.03-0.01s-0.01,0-0.01,0c-20.37-8.24-31.12-36.24-32.12-38.96
	c0.65-45.77-4.74-92.61-5.21-96.66c16.79-54.03,22.64-118.05,23.65-130.35c0.08-0.94-0.38-1.82-1.18-2.31
	c-0.27-0.16-0.57-0.24-0.87-0.3v-0.03c31.54-36.93,22.46-58.89,17.06-66.64c-2.38-3.42-5.77-6.03-9.55-7.34
	c-2.23-0.78-4.26-0.99-6.1-0.8c4.99-9.34,20.89-43.54,19.49-97.12c3,4.27,4.82,7.4,4.86,7.48c0.24,0.42,0.68,0.66,1.13,0.66
	c0.18,0,0.37-0.04,0.54-0.12c0.62-0.29,0.91-0.99,0.69-1.62c-21.61-60.81-55.82-104.56-101.69-130.04
	c-37.98-21.11-74.63-24.07-93.16-23.97c-2.66,0.02-5.3,0.17-7.91,0.45c20.08,1.41,49.49,6.7,79.76,23.52
	c45.87,25.48,80.08,69.23,101.69,130.04c0.22,0.63-0.07,1.33-0.69,1.62c-0.17,0.08-0.36,0.12-0.54,0.12c-0.45,0-0.89-0.24-1.13-0.66
	c-0.04-0.08-1.86-3.21-4.86-7.48c1.4,53.58-14.5,87.78-19.49,97.12c1.84-0.19,3.87,0.02,6.1,0.8c3.78,1.31,7.17,3.92,9.55,7.34
	c5.4,7.75,14.48,29.71-17.06,66.64v0.03c0.3,0.06,0.6,0.14,0.87,0.3c0.8,0.49,1.26,1.37,1.18,2.31
	c-1.01,12.3-6.86,76.32-23.65,130.35c0.47,4.05,5.86,50.89,5.21,96.66c1,2.72,11.75,30.72,32.12,38.96c0,0,0,0,0.01,0
	s0.02,0.01,0.03,0.01c0.12,0.05,0.22,0.14,0.32,0.22c0.02,0.02,0.05,0.03,0.08,0.05v0.01c0.23,0.23,5.72,5.91,4.64,15.68
	c-1.33,12.03-11.78,24.46-31.01,36.94c2.28,20.18,6.36,49.8,12.99,78.68c2.71,11.81,6.57,23.49,11.47,34.7
	c1.17,2.69,2.46,5.71,3.8,8.96c0.01,0,0.01,0,0.01,0.01c8.19,19.82,18.46,48.43,18.18,66.8c-0.02,1.69-1,3.17-2.55,3.84
	c-0.53,0.23-1.08,0.34-1.63,0.35c0.82,2.79,1.9,7.3,1.4,10.45c-0.06,0.4-0.31,0.75-0.67,0.94c-0.11,0.06-5.47,2.88-13.75,4.45
	c3.66,0.73,7.19,1.03,10.5,1.03c14.13,0,24.41-5.4,24.56-5.48c0.36-0.19,0.61-0.54,0.67-0.94c0.5-3.15-0.58-7.66-1.4-10.45
	c0.55-0.01,1.1-0.12,1.63-0.35c1.55-0.67,2.53-2.15,2.55-3.84C785.74,907.05,775.47,878.44,767.28,858.62z"/>
</svg>
