<?xml version="1.0" encoding="utf-8"?>
<!-- Generator: Adobe Illustrator 24.3.0, SVG Export Plug-In . SVG Version: 6.00 Build 0)  -->
<svg version="1.1" id="JM_x5F_YELLOW" xmlns="http://www.w3.org/2000/svg" xmlns:xlink="http://www.w3.org/1999/xlink" x="0px"
	 y="0px" viewBox="0 0 1080 1080" style="enable-background:new 0 0 1080 1080;" xml:space="preserve">
<style type="text/css">
	.st0{fill:#F3B32F;}
</style>
<path id="FILL_x5F_F3B331" class="st0" d="M754.17,174.44c-0.36-0.47-0.98-0.63-1.53-0.4c-32.91,13.77-82.96-5.83-109.86-18.74
	c-20.96-10.05-42.04-18.02-62.67-23.68c-80.36-22.04-133.98-10.68-164.82,2.73c-21.56,9.37-39.01,25.95-49.1,46.31
	c-2.19,1.55-18,12.98-33.73,30.49c-15.61,17.39-34.35,44.51-34.93,75c-0.49,25.36,11.41,49.16,35.41,70.93
	c0.04,0.03,0.07,0.06,0.11,0.1c4,3.62,8.34,7.19,13.01,10.7c1.48,3.79,3.15,7.73,5,11.82c-8.67,2-16.08,4.88-22.19,8.67
	c-11.41,7.06-14.55,15.1-15.35,18.03l-8.13-0.06c-0.33,0.01-0.68,0.13-0.92,0.37c-0.25,0.25-0.39,0.58-0.39,0.93v10.48
	c0,0.72,0.58,1.3,1.3,1.3h5.02c-0.11,6.44,0.19,34.48,12.28,58.47c10.86,21.55,32.58,34.91,55.66,34.91c2.32,0,4.66-0.14,7-0.42
	c3.15,3.94,22.43,26.14,62.73,35.89c8.36,2.02,16.88,3.29,25.53,3.82c-0.1,1.76,0.12,4.98,2.56,7.47c3.05,3.12,8.48,3.97,16.11,2.53
	c1.48-0.28,2.92,0.18,3.77,1.2c0.61,0.74,0.75,1.57,0.47,2.56c-0.76,0.61-1.57,1.32-2.41,2.15c-1.45,0.92-10.06,6.93-20.08,26.17
	c-9.83,18.86-22.97,54.71-29.78,118.36c-0.28,2.58-1.09,5.04-2.36,7.1c-2.65,4.33-2.08,6.92-1.13,8.33
	c0.43,0.64,1.03,1.16,1.78,1.59c-0.11,2.76-0.43,11.79,0.04,19.65c0.03,0.51,0.35,0.94,0.81,1.13c0.09,0.04,0.81,0.32,2.05,0.64
	c-0.1,1.29-0.2,2.58-0.29,3.87c0,0-0.01,0.01-0.01,0.02c-0.14,1.95-0.26,3.89-0.36,5.82c-0.37,6.35-0.58,12.58-0.66,18.64
	c0,0.11,0,0.22,0,0.33c-0.41,29.31,2.04,54.55,3.85,68.93c0.92,7.32,0.43,14.83-1.48,22.34c-3.44,13.59-5.09,28.64-5.87,38.7
	c-0.53,6.91-0.65,11.47-0.66,11.58c0,0.23,0.05,0.45,0.16,0.65c0.43,0.81,0.88,1.59,1.33,2.38c-5.5,0.61-19.88,3.25-21.73,14.08
	c-0.89,0.87-2.42,3.18-2.22,8.74c0.01,0.31,0.14,0.61,0.35,0.84c0.51,0.54,9.86,10.15,33.01,10.15c7.8,0,17.18-1.1,28.3-4
	c0.37,0.09,0.73,0.17,1.1,0.24c4.56,1,9.08,1.41,13.45,1.41c20.71,0,37.95-9.17,38.86-9.66c0.37-0.2,0.62-0.56,0.67-0.98
	c0.6-4.58,0.76-9.4,0.57-14.32c-0.62-16.46-5.06-33.97-9.23-47.06c-5.75-18.12-4-38.06,4.81-54.72c0.92-1.74,1.87-3.45,2.84-5.11
	c33.66,34.11,31.18,112.08,31.16,112.88c-0.03,0.58,0.35,1.11,0.91,1.29c15,4.63,27.76,6.35,38.44,6.35
	c30.09,0,43.66-13.68,44.41-14.46c0.26-0.26,0.39-0.62,0.36-0.99c-2.28-34.55-24.91-79.47-34.53-97.17
	c-3.72-6.86-6.31-14.16-7.68-21.71c-4.09-22.54-4.41-54.83-4.41-55.16c0-4.1-0.4-7.61-1.01-10.56c12.12-2.2,17.56-10.22,19.74-14.93
	c1.31-2.83,0.68-6.23-1.56-8.45c-7.89-7.79-12.75-18.69-14.11-22.01c20.77-12.46,29.56-25.49,33.27-34.48
	c2.96-7.17,2.01-15.25-2.55-21.61c-38.15-53.37-40.87-111-41.06-118.4c21.01-10.38,37.54-22.83,49.43-37.21
	c2.58-0.76,15.79-5.03,25.5-14.56l1.22,9.69l-4.54,0.1c-0.34,0.01-0.66,0.17-0.86,0.45l-2.07,2.82c-0.27,0.36-0.28,0.86-0.03,1.24
	l1.81,2.82c0.2,0.32,0.55,0.51,0.93,0.51h4.92l-2.26,23.08c-0.03,0.28,0.05,0.55,0.22,0.77l4.88,6.39c0.21,0.27,0.53,0.43,0.87,0.43
	c0.01,0,0.02,0,0.03,0c0.35,0,0.67-0.18,0.87-0.46l4.26-6.01c0.16-0.23,0.23-0.5,0.19-0.77l-2.82-23.43h3.74
	c0.39,0,0.75-0.21,0.94-0.55l1.69-2.88c0.22-0.36,0.21-0.81-0.02-1.16l-1.88-2.88c-0.2-0.31-0.55-0.49-0.92-0.49h-3.56l1.46-12.68
	c0.03-0.29-0.05-0.58-0.23-0.81l-2.57-3.23c4.33-1.18,6.45-4.7,7.34-8.47c3.77-1.34,44.01-16.65,42.98-60.59
	c-0.2-8.87-4.54-16.78-11.6-21.18c-0.3-0.18-0.61-0.36-0.92-0.54c16.17-21.22,14.28-50.43,12.75-61.86
	c5.25,6.81,8.69,13.32,8.76,13.45c0.23,0.44,0.67,0.7,1.15,0.7c0.04,0,0.08,0,0.12,0c0.52-0.05,0.97-0.41,1.12-0.91
	c8.73-27.91-0.27-50.45-5.69-60.48c10.34,9.04,14.93,23.18,14.98,23.34c0.18,0.56,0.73,0.95,1.3,0.9c0.6-0.03,1.09-0.45,1.21-1.03
	c6.67-32.08-4.02-53.92-14.16-66.59c-6.92-8.66-14.4-14.26-19.12-17.28c5.58-0.01,11.45-0.9,16.95-3.35
	c9.04-4.02,15.5-11.62,19.21-22.57c1.96-1.79,2.97-3.08,3.01-3.13C754.54,175.55,754.53,174.9,754.17,174.44z M350.11,491.73
	c-9.55-7.51-22.11-22.72-27.64-52.64c-0.18-0.72-2.19-9.34-0.94-19.08l41.51-3.78c-0.51,1.04-0.7,2.21-0.53,3.37
	c1.41,9.39,8.33,19.49,10.61,22.59c0,0.03,0.01,0.07,0.02,0.1c0.03,0.1,2.7,9.67,1.1,15.83c-0.31,1.15-7.14,27.1,3.03,43.27
	c-2.46,0.01-4.98-0.12-7.58-0.41C369.6,500.97,360.44,499.85,350.11,491.73z M356.13,390.23c1.08,1.86,3.86,6.81,6.04,12.24
	l-35.86,3.24c3.28-5.31,8.46-9.9,16.53-12.47C342.97,393.2,348.06,391.75,356.13,390.23z"/>
</svg>
