<?xml version="1.0" encoding="utf-8"?>
<!-- Generator: Adobe Illustrator 24.3.0, SVG Export Plug-In . SVG Version: 6.00 Build 0)  -->
<svg version="1.1" id="RM_x5F_COLORS" xmlns="http://www.w3.org/2000/svg" xmlns:xlink="http://www.w3.org/1999/xlink" x="0px"
	 y="0px" viewBox="0 0 1080 1080" style="enable-background:new 0 0 1080 1080;" xml:space="preserve">
<style type="text/css">
	.st0{fill:#010202;}
	.st1{display:none;fill:#010202;}
	.st2{fill:#AAAA86;}
	.st3{fill:#FDE8B8;}
	.st4{fill:#564238;}
	.st5{fill:#C49C5F;}
	.st6{fill:#73684B;}
	.st7{fill:#6D4C2D;}
	.st8{fill:#FFFFFF;}
	.st9{fill:#E32741;}
</style>
<path id="FILL_x5F_000000_1_" class="st0" d="M751.41,287.11c-3.55-28.87-14.51-50.55-32.59-64.43
	c-24.72-18.97-55.32-17.15-61.55-16.54c-0.84-3.17-1.86-6.42-3.09-9.72c-8.82-23.6-30.47-54.33-83.56-66.69
	c-0.19-0.04-19.11-4.26-45.16-2.06c-24.02,2.03-59.22,10.09-90.59,36.93c-3.72,2-7.31,4.47-10.99,7.54
	c-11.2,9.38-50.9,39.06-91.18,27.28c-0.4-0.12-0.84-0.03-1.17,0.22c-0.33,0.26-0.51,0.67-0.49,1.09c0.04,1,1.37,24.73,20.79,36.3
	c1.98,1.18,4.08,2.16,6.28,3c-4.96,6.94-24.78,37.93-12.34,74.06c0.18,0.53,0.68,0.88,1.23,0.88c0.02,0,0.05,0,0.08-0.01
	c0.58-0.03,1.07-0.45,1.19-1.02c0.03-0.14,2.53-11.32,10.15-22.62c-15.92,43.08,2.58,79.25,6.84,86.66
	c-2.68,1.15-8.06,4.3-10.96,11.76c-3.97,10.16-3.6,30.12,20.49,67.52c-2.74,8.31-7.21,28.68,4.63,50.85
	c13.54,25.37,43.58,45.37,89.37,59.54c-4.47,2.32-13.03,7.66-21.76,17.89c-11.35,13.3-25.05,37.75-25.83,78.69
	c-0.01,0.69,0.52,1.27,1.22,1.32c0.01,0,0.15,0.01,0.38,0.03c-0.32,1.83-0.81,5.09-0.72,7.59c0.03,0.91-0.15,1.74-0.53,2.49
	c-3.55,6.94-15.49,32.47-20.15,69.58c-0.15,1.19-0.35,2.34-0.58,3.4c-0.49,2.26-1.6,7.01-3.54,13.38c-0.62,2.03,0.07,4.19,1.76,5.48
	c0.92,0.7,1.99,1.05,3.08,1.05c0.93,0,1.86-0.26,2.69-0.78c1.47-0.92,2.67-1.75,3.7-3.14c0.42,0.44,0.89,0.84,1.41,1.19
	c-0.14,3.05-0.38,6.66-0.84,9.9c-0.31,2.19,0.88,4.18,2.96,4.94c0.54,0.21,1.1,0.3,1.64,0.3c0.36,0,0.73-0.04,1.08-0.13
	c-0.9,8.4-3.23,34.4-1.45,63.86c1.01,16.6-0.54,32.58-4.61,47.48c-3.31,12.15-4.49,23.46-3.53,33.66c-1.05,1.32-4.01,5.5-4.07,10.34
	c-0.47,0.09-0.93,0.28-1.31,0.59c-0.69,0.56-1.09,1.39-1.09,2.28v3.55c0,1.26,0.8,2.37,1.99,2.77c8.05,2.73,16.04,3.74,23.47,3.74
	c19.24,0,34.71-6.79,37.79-8.24c1.89,0.75,3.87,1.13,5.88,1.13c2.52,0,5.06-0.6,7.45-1.81c5.43-2.75,8.8-8.01,9.02-14.06
	c0.36-10.24-0.82-21.9-3.52-34.57c-0.02-0.16-2.49-15.81-3.08-30.55c-0.31-7.68,0.71-15.28,3.03-22.59
	c2.16-6.83,5.31-15.96,8.44-22.16c1.73,1.48,3.58,3,5.57,4.55c10.45,8.15,19.52,17.21,26.97,26.94
	c8.21,10.72,13.95,20.63,17.05,29.41c0.09,0.26,8.26,25.69,12.45,71.97c0,0.03,0.01,0.05,0.01,0.08c0.01,0.03,0.02,0.06,0.02,0.09
	c0.07,0.3,0.24,0.55,0.47,0.73c0.03,0.02,0.05,0.04,0.08,0.06c0.03,0.02,0.04,0.04,0.07,0.05c0.11,0.06,0.22,0.1,0.34,0.13
	c0.01,0,0.02,0.01,0.03,0.01c0.31,0.07,6.51,1.39,11.83,1.39c0.75,0,1.46-0.04,2.16-0.1c0,0.01,0,0.03,0,0.04
	c0.25,1.38,0.85,2.63,1.68,3.69c-0.04,1.39-0.15,5.54,0.02,7.41c0.05,0.5,0.37,0.92,0.84,1.1c0.54,0.21,9.89,3.65,22.96,3.65
	c5.49,0,11.65-0.61,18.08-2.33c0.55-0.14,0.94-0.63,0.97-1.2c0-0.2,0.15-4.38-0.61-7.3c0.58-0.54,1.07-1.17,1.46-1.87
	c0.6-1.07,0.91-2.22,0.93-3.39c0.39,0.26,0.78,0.51,1.16,0.78c1.71,1.22,3.7,1.84,5.71,1.84c1.6,0,3.21-0.39,4.69-1.19
	c3.39-1.82,5.41-5.33,5.27-9.15c-0.69-19.63-5.95-50.28-26.99-84.85c-0.34-0.63-34.47-63.83-33.65-98.23c0-0.07-0.03-0.12-0.03-0.18
	l0.84-11.66c2.6-0.36,4.92-1.62,6.6-3.6c1.91-2.25,2.76-5.14,2.4-8.14c-6.37-53.31,7.71-82.18,14.06-92.12
	c1.09-1.71,3.03-2.63,5.07-2.39c9.56,1.09,21.29,1.15,22.63,1.16c0.63,0.17,1.27,0.26,1.92,0.26c1.1,0,2.2-0.24,3.22-0.72
	c3.83-1.81,11.02-6.29,16.67-16c10.59-1.75,14.77-6.97,15.05-7.35c10.97-13.38,0.1-45.98-1.72-51.13
	c5.13-7.81,4.05-23.93,3.87-26.22c3.08-10.54,4.48-19.78,5.04-24.38c0.09-0.77-0.08-1.5-0.47-2.1c0.14,0.07,0.28,0.15,0.41,0.22
	c1.34,0.69,2.78,1.04,4.2,1.04c0.66,0,1.32-0.08,1.96-0.23c4.41-1.08,5.81-5.39,5.93-7.26c0.15-1.2,0.1-2.81-0.14-4.78
	c6.04-2.59,48.99-22.24,47.38-54.88c-0.27-5.52-2.27-9.48-5.95-11.76c-1.35-0.83-2.86-1.39-4.44-1.73
	c21.62-16.45,23.97-62.2,24.06-64.24c0.12-4.85-0.06-9.34-0.49-13.52c12.01-8.9,11.08-29.82,10.31-37.34
	c2.88,2.69,5.5,8.6,6.41,11.1c0.2,0.55,0.74,0.89,1.31,0.85c0.58-0.04,1.06-0.45,1.18-1.02
	C760.06,313.8,758.49,298.59,751.41,287.11z"/>
<path id="OUTLINE_x5F_000000" class="st1" d="M751.41,287.11c-3.55-28.87-14.51-50.55-32.59-64.43
	c-24.72-18.97-55.32-17.15-61.55-16.54c-0.84-3.17-1.86-6.42-3.09-9.72c-8.82-23.6-30.47-54.33-83.56-66.69
	c-0.19-0.04-19.11-4.26-45.16-2.06c-24.02,2.03-59.22,10.09-90.59,36.93c-3.72,2-7.31,4.47-10.99,7.54
	c-11.2,9.38-50.9,39.06-91.18,27.28c-0.4-0.12-0.84-0.03-1.17,0.22c-0.33,0.26-0.51,0.67-0.49,1.09c0.04,1,1.37,24.73,20.79,36.3
	c1.98,1.18,4.08,2.16,6.28,3c-4.96,6.94-24.78,37.93-12.34,74.06c0.18,0.53,0.68,0.88,1.23,0.88c0.02,0,0.05,0,0.08-0.01
	c0.58-0.03,1.07-0.45,1.19-1.02c0.03-0.14,2.53-11.32,10.15-22.62c-15.92,43.08,2.58,79.25,6.84,86.66
	c-2.68,1.15-8.06,4.3-10.96,11.76c-3.97,10.16-3.6,30.12,20.49,67.52c-2.74,8.31-7.21,28.68,4.63,50.85
	c13.54,25.37,43.58,45.37,89.37,59.54c-4.47,2.32-13.03,7.66-21.76,17.89c-11.35,13.3-25.05,37.75-25.83,78.69
	c-0.01,0.69,0.52,1.27,1.22,1.32c0.01,0,0.15,0.01,0.38,0.03c-0.32,1.83-0.81,5.09-0.72,7.59c0.03,0.91-0.15,1.74-0.53,2.49
	c-3.55,6.94-15.49,32.47-20.15,69.58c-0.15,1.19-0.35,2.34-0.58,3.4c-0.49,2.26-1.6,7.01-3.54,13.38c-0.62,2.03,0.07,4.19,1.76,5.48
	c0.92,0.7,1.99,1.05,3.08,1.05c0.93,0,1.86-0.26,2.69-0.78c1.47-0.92,2.67-1.75,3.7-3.14c0.42,0.44,0.89,0.84,1.41,1.19
	c-0.14,3.05-0.38,6.66-0.84,9.9c-0.31,2.19,0.88,4.18,2.96,4.94c0.54,0.21,1.1,0.3,1.64,0.3c0.36,0,0.73-0.04,1.08-0.13
	c-0.9,8.4-3.23,34.4-1.45,63.86c1.01,16.6-0.54,32.58-4.61,47.48c-3.31,12.15-4.49,23.46-3.53,33.66c-1.05,1.32-4.01,5.5-4.07,10.34
	c-0.47,0.09-0.93,0.28-1.31,0.59c-0.69,0.56-1.09,1.39-1.09,2.28v3.55c0,1.26,0.8,2.37,1.99,2.77c8.05,2.73,16.04,3.74,23.47,3.74
	c19.24,0,34.71-6.79,37.79-8.24c1.89,0.75,3.87,1.13,5.88,1.13c2.52,0,5.06-0.6,7.45-1.81c5.43-2.75,8.8-8.01,9.02-14.06
	c0.36-10.24-0.82-21.9-3.52-34.57c-0.02-0.16-2.49-15.81-3.08-30.55c-0.31-7.68,0.71-15.28,3.03-22.59
	c2.16-6.83,5.31-15.96,8.44-22.16c1.73,1.48,3.58,3,5.57,4.55c10.45,8.15,19.52,17.21,26.97,26.94
	c8.21,10.72,13.95,20.63,17.05,29.41c0.09,0.26,8.26,25.69,12.45,71.97c0,0.03,0.01,0.05,0.01,0.08c0.01,0.03,0.02,0.06,0.02,0.09
	c0.07,0.3,0.24,0.55,0.47,0.73c0.03,0.02,0.05,0.04,0.08,0.06c0.03,0.02,0.04,0.04,0.07,0.05c0.11,0.06,0.22,0.1,0.34,0.13
	c0.01,0,0.02,0.01,0.03,0.01c0.31,0.07,6.51,1.39,11.83,1.39c0.75,0,1.46-0.04,2.16-0.1c0,0.01,0,0.03,0,0.04
	c0.25,1.38,0.85,2.63,1.68,3.69c-0.04,1.39-0.15,5.54,0.02,7.41c0.05,0.5,0.37,0.92,0.84,1.1c0.54,0.21,9.89,3.65,22.96,3.65
	c5.49,0,11.65-0.61,18.08-2.33c0.55-0.14,0.94-0.63,0.97-1.2c0-0.2,0.15-4.38-0.61-7.3c0.58-0.54,1.07-1.17,1.46-1.87
	c0.6-1.07,0.91-2.22,0.93-3.39c0.39,0.26,0.78,0.51,1.16,0.78c1.71,1.22,3.7,1.84,5.71,1.84c1.6,0,3.21-0.39,4.69-1.19
	c3.39-1.82,5.41-5.33,5.27-9.15c-0.69-19.63-5.95-50.28-26.99-84.85c-0.34-0.63-34.47-63.83-33.65-98.23c0-0.07-0.03-0.12-0.03-0.18
	l0.84-11.66c2.6-0.36,4.92-1.62,6.6-3.6c1.91-2.25,2.76-5.14,2.4-8.14c-6.37-53.31,7.71-82.18,14.06-92.12
	c1.09-1.71,3.03-2.63,5.07-2.39c9.56,1.09,21.29,1.15,22.63,1.16c0.63,0.17,1.27,0.26,1.92,0.26c1.1,0,2.2-0.24,3.22-0.72
	c3.83-1.81,11.02-6.29,16.67-16c10.59-1.75,14.77-6.97,15.05-7.35c10.97-13.38,0.1-45.98-1.72-51.13
	c5.13-7.81,4.05-23.93,3.87-26.22c3.08-10.54,4.48-19.78,5.04-24.38c0.09-0.77-0.08-1.5-0.47-2.1c0.14,0.07,0.28,0.15,0.41,0.22
	c1.34,0.69,2.78,1.04,4.2,1.04c0.66,0,1.32-0.08,1.96-0.23c4.41-1.08,5.81-5.39,5.93-7.26c0.15-1.2,0.1-2.81-0.14-4.78
	c6.04-2.59,48.99-22.24,47.38-54.88c-0.27-5.52-2.27-9.48-5.95-11.76c-1.35-0.83-2.86-1.39-4.44-1.73
	c21.62-16.45,23.97-62.2,24.06-64.24c0.12-4.85-0.06-9.34-0.49-13.52c12.01-8.9,11.08-29.82,10.31-37.34
	c2.88,2.69,5.5,8.6,6.41,11.1c0.2,0.55,0.74,0.89,1.31,0.85c0.58-0.04,1.06-0.45,1.18-1.02
	C760.06,313.8,758.49,298.59,751.41,287.11z M356.69,390.75c2.46-6.38,6.91-9.16,9.27-10.23c0.22,5.69,0.67,10.93,1.25,15.74
	c-2.71-2.15-5.45-3.06-5.61-3.1c-0.6-0.2-1.25,0.13-1.44,0.74c-0.2,0.6,0.13,1.25,0.74,1.44c0.04,0.02,4.03,1.35,6.79,4.54
	c3.07,21.47,8.85,33.25,9.99,35.41l-0.62,11.01c-0.15,2.56-0.57,5.14-1.26,7.7C353.51,418.8,353.05,400.19,356.69,390.75z
	 M381.71,506.89c-11.64-21.82-6.86-41.81-4.26-49.39c1.25-3.65,2-7.37,2.2-11.05l0.65-11.38c0-0.02-0.01-0.04-0.01-0.07
	c0-0.03,0.01-0.06,0.01-0.09c-0.04-0.61-0.08-1.22-0.11-1.83c-0.14-2.42-0.21-4.89-0.21-7.37c-0.07-24.96,5.89-51.46,5.95-51.75
	c0.01-0.02,0-0.04,0.01-0.05c0.02-0.11,0.03-0.23,0.02-0.34c-0.01-0.11-0.18-2.57-0.14-6.59c11.94-38.64,41.34-52.66,48.31-55.49
	c2,16.07,9.75,32.38,23.17,48.67c0.25,0.31,0.62,0.47,1,0.47c0.19,0,0.37-0.03,0.54-0.11c0.54-0.25,0.84-0.83,0.74-1.41
	c-0.02-0.12-1.68-10-0.48-18.18c0.94,3.58,2.19,7.02,3.77,10.31c11.26,23.52,34.44,30.71,35.42,31.01c0.13,0.03,0.25,0.05,0.38,0.05
	c0.41,0,0.8-0.19,1.05-0.54c0.32-0.45,0.33-1.05,0.01-1.51c-1.97-2.81-3.01-7.09-3.56-10.96c4.06,8.33,11.56,16.12,25.38,17.34
	c0.43,0.04,0.85-0.14,1.12-0.47c0.27-0.33,0.36-0.77,0.25-1.18c-0.06-0.21-5.79-20.98,4.06-38.39c5.8-10.24,15.81-17.34,29.77-21.11
	c20.79-5.61,43.46-2.84,62.22,7.59c23.23,12.92,49.99,41.29,45.5,103.07c-0.37,5.17-0.57,9.92-0.61,14.54
	c-0.06,8.5,0.08,20.83,1.09,31.52c-0.78,2.56-8.18,26.54-13.11,37.78c-0.09-3.14-0.28-6.32-0.65-9.02
	c-0.23-1.72-1.55-3.02-3.27-3.24c-0.27-0.03-0.55-0.03-0.82,0c-0.29-1.11-1.05-2.07-2.17-2.62c-1.82-0.89-3.93-0.36-5.12,1.28
	c-3.89,5.37-7.24,12.44-9.42,17.54c-0.11-5.05-0.59-10.03-1.44-14.88c-0.39-2.16-2.12-3.63-4.32-3.65c-0.02,0-0.03,0-0.05,0
	c-2.19,0-3.94,1.44-4.36,3.6c-2.24,11.49-3.78,23.34-4.39,28.37c-2.57-2.14-7.45-5.59-13.01-6.46c-2.09-0.33-4.05,0.68-5.02,2.56
	c-1,1.92-0.67,4.15,0.83,5.69c3.34,3.43,6.56,6.44,9.55,8.95c-0.01,1.42,0.11,4.9,1.25,8.8c-18.17,8.78-46.03,12.8-69.5,14.62
	c-0.03,0-0.05,0-0.08,0c-9.56,0.74-18.39,1.12-25.52,1.3c-10.36,0.26-20.72-0.96-30.81-3.64
	C430.5,555.07,396.24,534.11,381.71,506.89z M646.38,511.02c0.32-0.77,1.02-0.75,1.22-0.72c0.21,0.03,0.9,0.18,1.01,1.01
	c1.12,8.19,0.58,21.36,0.51,23.12c-0.02,0.06-0.05,0.12-0.06,0.17c-2.16-1.61-4.73-2.72-7.38-3.46
	C642.04,523.29,644.41,515.92,646.38,511.02z M639.1,530.52c-2.94-0.59-5.83-0.8-8.23-0.85c1.59-4.11,5.9-14.65,11.05-21.77
	c0.54-0.75,1.32-0.73,1.87-0.46c0.49,0.24,0.94,0.76,0.83,1.55c-0.26,0.3-0.48,0.66-0.65,1.06
	C641.96,515.03,639.55,522.5,639.1,530.52z M513.07,591.32l3.34,13.35c-4.99,1.05-22.37,4.92-34.47,9.97l0.66-0.61l42.27-38.99
	c4.17-0.19,8.65-0.45,13.32-0.79c-1.33,4.4-4.55,15.66-5.08,23.89c-4.01-2.26-13.41-7.34-18.51-8.41c-0.44-0.09-0.89,0.05-1.2,0.37
	S512.96,590.88,513.07,591.32z M483.56,571.86c9.18,2.38,18.58,3.59,28,3.59c0.95,0,1.89-0.01,2.84-0.03
	c2.02-0.05,4.18-0.12,6.45-0.21l-38.5,35.51C479.3,599.07,482.6,577.49,483.56,571.86z M472.68,568.83c0.32,0.1,0.65,0.19,0.98,0.29
	c0.71,0.21,1.43,0.41,2.15,0.61c1.72,0.5,3.46,0.98,5.22,1.46c-0.38,2.17-1.17,7.07-1.77,12.96c-0.07,0.66-0.13,1.33-0.19,2.02
	c-0.82,8.93-1.07,19.58,1.15,26.52l-2.39,2.2c-4.47-5.38-16.17-12.19-20.37-14.54l11.8-12.11c0.42-0.43,0.49-1.09,0.18-1.6
	c-0.32-0.51-0.95-0.73-1.52-0.54c-7.79,2.6-15.46,8.81-19.53,12.48C452.35,585.51,469.49,571.37,472.68,568.83z M448.9,587.35
	c4.22-4.97,8.45-8.77,12.15-11.6c-7.08,7.1-15.24,17.16-16.01,26.47c-0.05,0.55,0.26,1.07,0.76,1.3c0.5,0.22,1.08,0.11,1.47-0.28
	c0.08-0.09,7.08-7.25,15.32-11.88l-8.19,8.4c-0.28,0.29-0.41,0.7-0.35,1.1c0.06,0.41,0.31,0.76,0.67,0.95
	c0.17,0.09,16.39,8.85,21.2,14.85l-3.59,3.31c-0.31,0.26-0.59,0.52-0.85,0.79c-0.04,0.03-0.05,0.07-0.08,0.11
	c-0.05,0.06-0.09,0.13-0.13,0.2c-0.04,0.08-0.07,0.16-0.1,0.25c-0.01,0.04-0.04,0.07-0.04,0.12c-0.13,0.71-0.83,4.58-1.8,10.53
	c-0.12,0.71-0.24,1.46-0.36,2.23c-0.95,5.87-2.1,13.36-3.24,21.68c-0.11,0.81-0.22,1.62-0.33,2.44
	c-2.27,16.97-4.41,36.93-4.66,53.34c-0.03,1.34-0.04,2.65-0.03,3.93c0.03,7.71,0.54,14.45,1.73,19.46c-1.29-0.05-3.08-0.02-4.9,0.34
	c-1.26-0.32-2.5-0.63-3.71-0.93c-0.66-0.16-1.3-0.32-1.94-0.49c-7.92-1.94-14.07-3.38-15.23-3.65h-0.01
	c-2.71-1.26-7.34-1.3-7.57-1.27c-0.05,0-0.1,0.02-0.15,0.03c-0.05,0-0.09,0-0.13,0.01c-1.25,0.18-2.5-0.24-3.42-1.13
	c-0.95-0.92-1.41-2.18-1.27-3.47c0.7-6.27,2.44-12.06,4.39-16.89c0.29-0.71,0.58-1.39,0.87-2.05c0.93-2.11,1.87-4,2.74-5.62
	c0.83-1.56,1.56-3.16,2.2-4.82c1.39-3.63,2.3-7.51,2.7-11.58c0.3-3.05,0.74-6.18,1.26-9.31c0.26-1.58,0.55-3.16,0.85-4.72
	c2.5-13.04,6.05-24.95,6.92-27.8c0.12-0.4,0.19-0.62,0.2-0.64c0.2-0.63-0.1-1.3-0.69-1.57c-0.05-0.02-0.1-0.04-0.16-0.06
	c-0.52-0.17-1.07,0.02-1.39,0.42c-0.11,0.12-0.19,0.26-0.24,0.42c-0.02,0.08-0.74,2.34-1.77,6.02c-1.44,5.14-3.52,13.03-5.19,21.53
	c-4.2-3.34-10.35-4.42-12.97-4.74C424.83,623.73,437.98,600.2,448.9,587.35z M482.03,740.63l0.05,9.67
	c-3.8,0.43-7.62,0.12-10.22-0.24c-2.39-0.32-4.55-1.04-6.43-2.13c-0.88-0.51-1.64-1.05-2.31-1.65c-1-0.88-1.55-2.11-1.56-3.46
	c-0.01-1.37,0.56-2.68,1.57-3.61c0.57-0.52,1.05-0.96,1.39-1.27C466.75,738.53,474.05,740.29,482.03,740.63z M484.99,808.93
	c-4.25-4.11-7.47-7.84-9.89-11.02c-2.51-12.4-1.26-38.38-0.97-43.56c1.08-0.33,2.2-0.74,3.38-1.24c1.47,0.02,3.03-0.03,4.59-0.2
	c0.01,0.56,0.4,1.04,0.95,1.15c0.47,0.1,0.92,0.17,1.37,0.24C484.11,760.25,482.69,790.83,484.99,808.93z M484.43,740.48
	c0.47,0.01,1.04,0.03,1.65,0.09c0.87,0.09,1.82,0.24,2.64,0.5v11.05c-0.42,0.02-0.96,0.02-1.56,0.01c-0.79-0.03-1.7-0.1-2.67-0.25
	L484.43,740.48z M451.13,744.94c-6.78-0.7-12.21-2.56-13.78-3.15v-8.64c2.74,0.64,9.01,2.13,16.45,3.98c-1,0.84-1.79,1.92-2.29,3.17
	C450.92,741.8,450.81,743.41,451.13,744.94z M453.93,741.26c0.67-1.69,2.07-2.88,3.85-3.27c1.12-0.24,2.25-0.33,3.24-0.35
	c-1.33,1.39-2.07,3.26-2.06,5.2c0.02,2.06,0.9,4.02,2.42,5.38c0.81,0.72,1.71,1.37,2.75,1.97c1.97,1.13,4.2,1.92,6.62,2.33
	c-9.43,1.82-14.36-3.41-16.21-6.1C453.48,744.89,453.26,742.96,453.93,741.26z M434.95,732.23v11.03c-1.17,0.03-3.05,0.02-4.67-0.23
	v-11.54C431.62,731.56,433.54,731.76,434.95,732.23z M412.94,778.22c-0.73-0.26-1.45-0.97-1.29-2.14
	c1.07-7.59,1.03-16.82,1.02-17.21c0-0.72-0.58-1.29-1.29-1.29c-0.01,0-0.01,0-0.01,0c-0.72,0-1.3,0.59-1.29,1.3
	c0,0.04,0,1.44-0.05,3.57c-2.06-2.36-2.77-5.79-2.78-5.83c-0.14-0.71-0.82-1.16-1.52-1.03c-0.71,0.14-1.17,0.82-1.03,1.53
	c0.03,0.17,0.57,2.8,2.13,5.34c-0.88,1.46-1.9,2.16-3.4,3.11c-1.07,0.67-2.15,0.37-2.81-0.14c-0.65-0.5-1.22-1.46-0.86-2.65
	c1.97-6.46,3.1-11.29,3.6-13.59c0.25-1.14,0.46-2.36,0.62-3.63c4.6-36.68,16.38-61.87,19.88-68.72c0.59-1.14,0.86-2.41,0.82-3.76
	c-0.08-2.28,0.4-5.42,0.7-7.13c3.13,0.57,8.01,1.89,10.85,4.85c-0.76,4.16-1.4,8.39-1.8,12.47c-0.56,5.58-2.11,10.77-4.61,15.42
	c-0.96,1.79-2,3.89-3.02,6.25c-2.3,5.33-4.47,11.97-5.27,19.27c-0.23,2.09,0.51,4.14,2.04,5.62c1.19,1.15,2.72,1.8,4.31,1.88v11.78
	c-0.46,0.75-2.4,3.95-4.38,8.03c0.03-1.11,0.05-2.23,0.05-3.4c0-0.71-0.58-1.29-1.3-1.29s-1.3,0.58-1.3,1.29
	c0,13.54-1.91,23.41-5.68,29.32C414.65,778.42,413.66,778.49,412.94,778.22z M407.26,927.37c0.7-0.21,2.54-0.71,5.3-1.07
	c0.9-0.12,1.91-0.22,3.01-0.3c2.2-0.14,4.77-0.18,7.65,0.03c0.65,0.04,1.32,0.1,2,0.17c2.42,0.26,5.03,0.68,7.8,1.33
	c0.64,0.15,1.29,0.31,1.95,0.49c4.99,1.33,10.46,3.41,16.26,6.56c-5.12,2.07-10.69,3.22-16.21,3.76c-0.67,0.07-1.34,0.13-2.01,0.17
	c-2.38,0.19-4.73,0.26-7.02,0.25c-0.73,0-1.46-0.01-2.17-0.03c-5.7-0.14-10.91-0.72-14.98-1.35c-0.69-0.1-1.35-0.21-1.97-0.32
	c-1.2-0.2-2.27-0.4-3.18-0.58C403.62,932.28,406.45,928.4,407.26,927.37z M401.52,942.9c-0.13-0.04-0.22-0.17-0.22-0.31v-3.55
	c0-0.14,0.08-0.22,0.12-0.26c0.05-0.04,0.14-0.08,0.26-0.06c1.38,0.3,3.38,0.69,5.84,1.09c4.68,0.74,11.04,1.49,18,1.53
	c2.87,0.03,5.84-0.07,8.83-0.34c6.71-0.58,13.56-2,19.71-4.8c1.53,0.91,3.08,1.88,4.65,2.95c0.1,0.06,0.2,0.12,0.3,0.18
	C451.5,942.54,426.85,951.46,401.52,942.9z M478.25,837.62c-2.41,7.6-3.47,15.5-3.15,23.48c0.6,14.9,3.09,30.7,3.13,30.92
	c2.66,12.54,3.83,23.98,3.47,34.01c-0.18,5.09-3.02,9.52-7.6,11.83c-4.54,2.31-9.75,1.98-13.93-0.86
	c-9.34-6.36-18.04-9.95-25.61-11.86c-3.55-0.9-6.86-1.43-9.86-1.71c-3.56-0.32-6.7-0.3-9.34-0.1c-3.52,0.26-6.15,0.81-7.71,1.22
	c-0.75-9.61,0.44-20.26,3.56-31.69c4.14-15.18,5.72-31.44,4.7-48.33c-2.04-33.81,1.36-63.02,1.72-65.96
	c2.78-4.5,4.58-10.95,5.4-19.24c2.09-5.98,5.59-12.02,6.75-13.96c1.44,0.23,3.01,0.3,4.24,0.3c1.23,0,2.13-0.06,2.21-0.06
	c0.58-0.04,1.02-0.5,1.09-1.06c2.52,0.88,8.13,2.57,14.92,3.09c0.06,0.09,0.1,0.17,0.16,0.26c1.86,2.7,6.38,7.64,14.5,7.64
	c1.41,0,2.94-0.16,4.58-0.5c-0.31,5.91-1.16,25.09,0.27,38.07c-2.65-4.18-3.48-6.67-3.51-6.75c-0.21-0.68-0.94-1.06-1.63-0.85
	c-0.68,0.21-1.06,0.94-0.85,1.63c0.16,0.53,3.83,11.74,21.39,27.35C483.84,820.86,480.51,830.49,478.25,837.62z M570.46,961.63
	c-0.05-1.18-0.04-2.82-0.01-4.18c0.37,0.2,0.75,0.38,1.15,0.53c0.25,0.09,0.51,0.17,0.78,0.24c1.57,0.39,3.54,0.81,5.85,1.17
	c3.33,0.53,7.35,0.93,11.86,0.93c4.78,0,10.12-0.45,15.76-1.7c0.3-0.06,0.61-0.13,0.91-0.2c0.36-0.08,0.72-0.2,1.06-0.34
	c0.29,1.57,0.36,3.49,0.36,4.78C590.11,967.37,574.12,962.82,570.46,961.63z M609.35,953.49c-0.67,1.21-1.83,2.09-3.18,2.4
	c-0.06,0.01-0.12,0.03-0.18,0.04c-0.66,0.15-1.31,0.29-1.96,0.43h-0.01c-9.56,1.9-18.12,1.52-24.4,0.61
	c-0.68-0.1-1.34-0.2-1.97-0.31c-1.71-0.3-3.21-0.62-4.46-0.93c-0.06-0.01-0.12-0.03-0.18-0.04c-0.63-0.15-1.2-0.41-1.72-0.76
	c-1.29-0.83-2.22-2.2-2.51-3.79c-0.43-2.35-0.5-4.65-0.5-5.92c2.1-0.47,4.36-0.89,6.74-1.2h0.01c0.79-0.12,1.6-0.21,2.42-0.29
	c1.65-0.18,3.35-0.29,5.08-0.34c0.74-0.02,1.5-0.03,2.26-0.02c3.79,0.01,7.71,0.38,11.64,1.23c1.07,0.23,2.13,0.49,3.19,0.81h0.01
	c3.38,0.96,6.75,2.32,10.02,4.16c0.02,0.07,0.05,0.13,0.07,0.19C610.13,951,610,952.32,609.35,953.49z M569.21,784.03
	c8.15,33.89,29.77,73.92,30.93,76.06c20.78,34.14,25.96,64.33,26.64,83.64c0.1,2.83-1.39,5.42-3.9,6.77
	c-2.5,1.34-5.36,1.17-7.66-0.48c-5.85-4.19-12.12-6.67-18.35-7.99c-4.23-0.9-8.43-1.27-12.48-1.26c-2.55,0-5.04,0.15-7.43,0.4
	c-10.88,1.14-19.76,4.43-23.33,5.92c-4.26-45.47-12.31-70.49-12.4-70.77c-3.21-9.07-9.08-19.22-17.45-30.16
	c-7.59-9.9-16.82-19.12-27.44-27.41c-3.09-2.4-5.84-4.73-8.3-6.96c-2.87-16.83-1.35-50.83-1.03-57.27c0.03,0,0.07,0,0.1,0
	c0.3,0.01,0.58,0.02,0.83,0.02c0.71,0,1.27-0.03,1.63-0.06c0.05,0.02,0.09,0.05,0.15,0.06c1.56,0.24,3.05,0.36,4.45,0.36
	c0.92,0,1.79-0.05,2.64-0.16c8.04,1,15.29,1.4,17.84,1.52l-0.01,0.55c-0.01,0.57,0.37,1.07,0.92,1.19c0.39,0.09,0.79,0.16,1.21,0.21
	c0.88,0.13,1.79,0.17,2.62,0.17c1.77,0,3.18-0.18,3.28-0.2c0.59-0.07,1.04-0.57,1.05-1.17v-0.57c0.73,0.09,1.78,0.21,3.11,0.36
	C528.03,761.71,535.3,783.35,569.21,784.03z M504.62,743.64c4.83,0.34,8.77,0.65,10.27,0.77l-0.19,9.25
	c-1.91-0.09-6.39-0.34-11.84-0.87c0.14-0.08,0.29-0.16,0.43-0.25c1.8-1.13,2.83-3.07,2.77-5.17
	C506.02,745.96,505.5,744.66,504.62,743.64z M501.9,750.35c-2.66,1.68-6.38,2.27-10.78,1.74v-10.42c2.31,0.27,7.24,1.02,10.56,2.87
	c1.09,0.6,1.75,1.68,1.78,2.9C503.5,748.64,502.93,749.7,501.9,750.35z M517.06,755.84l0.23-11.55c0.99,0.02,2.53,0.13,4.18,0.59
	l-0.14,11.02C520.28,755.98,518.59,756.05,517.06,755.84z M560.89,748.06l-0.56,8.36c-17.54-0.37-32.79-2.13-36.58-2.59l0.11-8.53
	C528.47,745.32,545.91,745.58,560.89,748.06z M566.13,761.73c-0.01,5.97,0.92,12.67,2.47,19.69c-30.24-0.85-37.5-18.68-39.04-24.33
	c6.9,0.71,18.17,1.66,30.59,1.93l-0.05,0.8c-0.04,0.56,0.32,1.08,0.87,1.23C562.93,761.6,564.86,761.72,566.13,761.73z
	 M562.56,758.97l0.75-11.16c1.08-0.05,2.64,0.01,3.87,0.45l-0.8,11.07C565.47,759.33,564.05,759.28,562.56,758.97z M597.97,639.89
	c-3.01-0.35-5.92,1.02-7.55,3.57c-5.76,9.02-17.75,33.24-15.88,76.34c0.06,1.49,0.14,3,0.24,4.54c0.26,4.15,0.65,8.47,1.19,12.95
	c0.27,2.28-0.37,4.46-1.8,6.14c-1.41,1.67-3.42,2.65-5.67,2.78c-2.7-1.2-6.32-0.72-6.48-0.69c-0.07,0.01-0.13,0.04-0.2,0.06
	c-2.62-0.45-5.33-0.82-8.03-1.14c-1.59-0.19-3.17-0.36-4.74-0.5c-13.76-1.31-26.22-1.24-26.38-1.24c-0.03,0-0.05,0.01-0.07,0.01
	c-2.07-0.64-4.02-0.8-5.26-0.81c-0.78-0.02-1.28,0.02-1.33,0.03c-0.01,0-0.01,0-0.02,0c-0.08-0.02-0.14-0.05-0.22-0.06
	c-0.08,0-8-0.64-16.73-1.23c-4.31-1.36-8.79-1.67-9.04-1.69c-0.02,0-0.04,0.01-0.06,0.01c-1.14-0.44-2.47-0.66-3.65-0.77
	c-1.5-0.15-2.75-0.11-3.06-0.1c-0.02,0-0.05-0.02-0.08-0.02c-2.33-0.06-4.65-0.26-6.81-0.53c-0.69-0.08-1.37-0.18-2.02-0.28
	c-4.27-0.63-7.7-1.46-9.11-1.83c-1.56-5.75-2.05-14.33-1.86-24.25c0.02-1.23,0.06-2.47,0.1-3.74c0.3-8.49,1.03-17.77,1.98-26.99
	c0,0,0,0,0-0.01c0.05-0.51,0.1-1.02,0.16-1.53c0.7-6.71,1.51-13.37,2.35-19.64c0.08-0.67,0.17-1.34,0.27-2
	c1.38-10.24,2.79-19.3,3.83-25.69c0.4-2.42,0.74-4.45,1-6.02c0.28-1.57,0.47-2.67,0.57-3.23l0.51-0.48
	c9.33-7.83,43.78-14.84,44.14-14.91c0.34-0.07,0.65-0.28,0.84-0.58s0.25-0.66,0.16-1.01l-3.12-12.49c6.59,2.21,17.42,8.52,17.54,8.6
	c0.4,0.23,0.9,0.23,1.3,0c0.4-0.23,0.65-0.66,0.65-1.13c0-8.46,4.24-22.72,5.35-26.29c7.77-0.62,16.01-1.48,24.22-2.67
	c2.18,0.09,30.22,1.45,51.81,6.18c-0.01,0.04-0.02,0.09-0.03,0.13c-3.52,1.84-19.43,11.75-15.63,39.42
	c1.07,7.81,4.28,14.77,9.29,20.12c1.37,1.47,2.79,2.71,4.22,3.72C610.32,640.82,603.74,640.54,597.97,639.89z M624.34,640.81
	c-1.12,0.53-2.37,0.63-3.51,0.27c-2.81-0.86-5.6-2.76-8.29-5.64c-3.68-3.93-6.3-8.82-7.73-14.31c12.6,4.93,22.46,6.62,30.06,6.62
	c1.39,0,2.71-0.07,3.96-0.17C633.72,635.5,627.67,639.25,624.34,640.81z M656.75,541.97c-0.04,0.15-0.06,0.32-0.04,0.48
	c0.01,0.18,1.55,18.1-3.76,25.28c-0.26,0.35-0.32,0.81-0.17,1.22c0.13,0.36,13.12,36.12,2.36,49.26
	c-0.12,0.15-12.63,15.41-50.99-0.14c-0.07-0.45-0.17-0.88-0.23-1.33c-3.17-23.08,7.7-32.7,12.54-35.79
	c-0.83,5.56-1.48,11.81-1.09,16.17c0.06,0.67,0.63,1.18,1.3,1.18c0.03,0,0.07,0,0.11-0.01c0.72-0.06,1.25-0.69,1.18-1.41
	c-0.8-9.02,3.27-27.58,3.31-27.77c0.12-0.56-0.14-1.14-0.65-1.42c-10.46-5.69-9.83-19.98-9.82-20.12c0.02-0.41-0.15-0.81-0.47-1.07
	c-3.02-2.49-6.42-5.66-9.84-9.17c-0.85-0.87-0.76-1.96-0.38-2.68c0.17-0.33,0.85-1.42,2.3-1.18c7.18,1.12,13.44,7.38,13.5,7.44
	c0.05,0.05,0.12,0.08,0.17,0.13c0.06,0.04,0.1,0.08,0.16,0.11c0.11,0.05,0.22,0.08,0.34,0.11c0.04,0.01,0.07,0.03,0.11,0.03
	c0.01,0,0.02,0,0.03,0c5.38,0.45,8.81,3.55,10.91,6.59c2.11,3.04,2.88,6.02,2.94,6.27c0.18,0.69,0.88,1.12,1.58,0.94
	c0.69-0.17,1.12-0.87,0.94-1.57c-0.03-0.13-3.29-12.78-14.82-14.65c0.47-4,2.07-16.91,4.5-29.39c0.22-1.1,1.08-1.49,1.82-1.49h0.01
	c0.74,0.01,1.59,0.41,1.78,1.51c1.16,6.53,1.61,13.32,1.36,20.2c-1.54,0.05-2.55,0.16-2.71,0.17c-0.72,0.08-1.23,0.72-1.15,1.44
	c0.07,0.71,0.71,1.22,1.43,1.15c0.16-0.02,16.31-1.68,23.45,5.3c0.32,0.32,0.78,0.44,1.22,0.34c0.44-0.11,0.79-0.44,0.92-0.87
	c0.05-0.14,4.54-13.94,9.79-19.93c0.28-0.31,0.6-0.22,0.73-0.16c0.15,0.07,0.41,0.24,0.36,0.64
	C661.22,522.33,659.83,531.52,656.75,541.97z M674.1,509.55c-0.01,0.16-0.34,4.29-4.19,5.23c-1.46,0.36-3.08,0.14-4.55-0.62
	c-1.97-1.01-4.53-3.08-5.79-7.12c0.33-0.96,0.67-1.93,1-2.9c0.52,0.33,1.16,0.69,1.9,1.02c0.52,5.69,3.73,6.68,5.67,6.75
	c0.94,0.04,1.8-0.3,2.46-0.94c0.67-0.63,1.05-1.49,1.06-2.42c0.02-1.37,0.08-3.48,0.24-5.74c0.05-0.7,0.63-0.78,0.81-0.79
	c0.18-0.01,0.77,0.01,0.89,0.71C674.12,505.73,674.29,508,674.1,509.55z M716.31,440.55c2.91,1.8,4.5,5.06,4.72,9.68
	c1.46,29.56-37.69,48.7-45.17,52.08c-0.3-1.61-1.66-2.68-3.27-2.59c-1.64,0.09-2.87,1.29-2.99,2.93c-0.02,0.29-0.04,0.59-0.05,0.88
	c-3.83,0.72-6.85-1.02-8.11-1.94c2.94-8.69,5.39-16.66,5.96-18.51c2.02-1.7,12.95-11.34,20.75-26.13c2.53-1.98,14.33-10.6,20.73-5.2
	c0.49,0.41,1.22,0.35,1.62-0.13c0.41-0.49,0.35-1.21-0.13-1.62c-5.97-5.04-14.92-0.71-20.11,2.62c1.51-3.34,2.83-6.91,3.83-10.66
	C696.91,440.83,709.38,436.26,716.31,440.55z M754.29,327.75c-1.79-3.76-4.82-8.92-8.42-10c-0.42-0.12-0.89-0.02-1.23,0.27
	c-0.33,0.3-0.49,0.74-0.42,1.18c0.04,0.28,3.97,26.08-7.78,36.6c-1.93-13.63-7.01-23.36-15.2-29.01
	c-16.04-11.06-37.81-2.37-38.73-1.99c-0.67,0.27-0.98,1.03-0.71,1.69c0.27,0.67,1.02,0.99,1.69,0.71
	c0.21-0.08,21.41-8.53,36.29,1.74c10.42,7.2,15.44,21.78,14.92,43.33c-0.02,0.5-2.56,50.01-25.42,63.9
	c-7.97-0.17-16.32,3.43-16.8,3.64c-0.37,0.16-0.64,0.48-0.74,0.87c-5.02,19.56-19.25,34.18-24.41,38.97
	c-0.81-10.01-0.92-21.12-0.87-28.95c0.04-4.56,0.23-9.26,0.6-14.37c2.29-31.49-3.41-54.5-12.66-71.32
	c7.21,0.44,30.19,4.2,39.11,33.37c0.17,0.56,0.68,0.92,1.24,0.92c0.13,0,0.25-0.02,0.38-0.06c0.69-0.21,1.07-0.93,0.86-1.62
	c-10.19-33.34-38.05-35.2-43.11-35.26c-9.16-15.38-21.31-25.26-32.65-31.56c-0.03-0.02-0.06-0.04-0.09-0.05
	c25.56-16.87,28.38-42.83,28.4-43.1c0.07-0.71-0.45-1.35-1.16-1.42s-1.35,0.45-1.42,1.17c-0.03,0.26-2.86,25.84-28.47,41.96
	c-6.19-3.14-12.74-5.51-19.47-7.06c12.36-5.29,18.93-18.93,19.23-19.58c0.31-0.65,0.03-1.42-0.62-1.73s-1.43-0.03-1.73,0.62
	c-0.08,0.17-7.94,16.54-22.07,19.64c-3.22-0.54-6.48-0.88-9.75-1.06c37.1-22.63,34.25-66.09,34.22-66.54
	c-0.06-0.71-0.67-1.25-1.4-1.2c-0.71,0.06-1.25,0.68-1.2,1.4c0.04,0.45,2.93,45.14-36.64,66.21c-2.37,0.01-4.74,0.11-7.11,0.32
	c7.13-30.76,2.24-51.82-3.2-64.14c-6.05-13.7-13.88-19.77-14.21-20.02c-0.57-0.44-1.39-0.33-1.82,0.24
	c-0.44,0.57-0.33,1.39,0.24,1.82c0.31,0.24,30.14,23.93,16.26,82.35c-4.09,0.49-8.15,1.26-12.15,2.34
	c-14.65,3.96-25.2,11.47-31.35,22.34c-8.74,15.44-6,32.86-4.76,38.52c-15.72-2.17-21.96-13.81-24.42-23.37c0-0.05,0-0.08,0-0.08
	c0.01-0.24-0.07-0.45-0.18-0.64c-1.55-6.47-1.41-11.83-1.39-12.38c0.48-25.58,16.39-39.91,16.56-40.05c0.53-0.48,0.59-1.3,0.11-1.84
	c-0.47-0.53-1.29-0.59-1.83-0.11c-0.69,0.6-16.94,15.18-17.44,41.92c-0.01,0.15-0.16,5.92,1.58,13c0,0.02-0.01,0.03-0.01,0.05
	c-0.01,0.51-0.14,10.93,2.94,18.23c-6.69-2.83-22.34-11.02-30.68-28.47c-8.47-17.71-7.34-40.01,3.34-66.27
	c0.27-0.66-0.05-1.42-0.72-1.69c-0.66-0.27-1.42,0.05-1.69,0.71c-7.98,19.61-10.73,37.12-8.26,52.29
	c-2.28,6.02-1.95,14.54-1.45,19.76c-15.54-20.14-22.17-40.2-19.72-59.68c3.82-30.37,28.82-48.98,29.07-49.16
	c0.58-0.42,0.7-1.24,0.28-1.82s-1.24-0.7-1.82-0.28c-0.26,0.19-26.14,19.42-30.11,50.91c-0.58,4.62-0.67,9.27-0.28,13.94
	c-5.59,2.18-33.58,14.56-47.62,49.32c1.23-15.84,5.97-40.24,22.66-55.49c0.53-0.49,0.56-1.31,0.08-1.84
	c-0.48-0.53-1.31-0.57-1.84-0.08c-20.9,19.09-23.72,51.77-23.89,66.04c0,0.09-0.02,0.18,0,0.27c-0.01,1.09-0.01,2.08,0,2.94
	c-26.64-33.4-8.88-78.01-8.69-78.47c0.27-0.66-0.05-1.42-0.71-1.69c-0.67-0.27-1.43,0.04-1.7,0.71
	c-0.2,0.48-19.42,48.68,11.13,83.52c-0.94,4.34-6.3,30.27-5.86,54.11c-3.2-8.34-8.14-24.98-8.92-49.51c0-0.08-0.02-0.15-0.03-0.22
	c-0.01-0.02,0-0.05-0.01-0.07c0-0.01-0.01-0.01-0.01-0.02c-0.04-0.13-0.09-0.25-0.16-0.36c-0.28-0.44-27.81-43.7-3.76-94.4
	c0.01-0.02,0-0.04,0.01-0.06c0.04-0.09,0.05-0.18,0.07-0.27c0.01-0.08,0.03-0.15,0.03-0.23c0-0.08-0.02-0.16-0.03-0.24
	c-0.02-0.08-0.03-0.16-0.06-0.24c-0.03-0.07-0.08-0.14-0.12-0.2c-0.05-0.08-0.09-0.16-0.16-0.22c-0.01-0.02-0.02-0.04-0.03-0.05
	c-0.05-0.05-0.12-0.07-0.17-0.11c-0.06-0.04-0.1-0.09-0.16-0.11c-0.02-0.01-0.04-0.01-0.06-0.02c-0.09-0.04-0.18-0.05-0.27-0.07
	c-0.07-0.01-0.15-0.03-0.22-0.03c-0.09,0-0.17,0.02-0.25,0.04c-0.08,0.01-0.16,0.02-0.24,0.05c-0.07,0.03-0.13,0.08-0.2,0.12
	c-0.08,0.05-0.15,0.09-0.22,0.16c-0.02,0.02-0.04,0.02-0.05,0.04c-9.01,9.71-13.52,20.94-15.45,26.96
	c-9.6-34.54,10.23-63.41,13.75-68.17c4.65,1.44,9.75,2.17,15.29,2.17c14.63,0,32.32-4.98,52.93-14.91c0.64-0.31,0.92-1.09,0.6-1.73
	c-0.31-0.65-1.08-0.92-1.73-0.61c-28.29,13.63-50.81,17.76-67.14,12.35c-0.04-0.02-0.08-0.03-0.12-0.04
	c-2.6-0.87-5.05-1.98-7.33-3.34c-15.21-9.05-18.64-26.68-19.37-32.37c6.14,1.61,12.24,2.31,18.22,2.31
	c33.89,0,63.93-22.58,73.52-30.6c3.58-3,7.07-5.39,10.67-7.32c42.74-22.91,82.32-12.29,107.99,0.64
	c27.95,14.08,45.98,33.88,46.16,34.08c0.48,0.53,1.3,0.57,1.83,0.09c0.54-0.48,0.58-1.3,0.1-1.83
	c-0.18-0.21-18.49-20.32-46.84-34.62c-24.15-12.19-60.35-22.33-100.07-5.6c28.43-20.82,58.82-27.49,80.2-29.31
	c25.67-2.18,44.27,1.96,44.45,2c51.9,12.08,73.05,41.99,81.66,64.96c9.35,24.95,6.38,47.37,6.35,47.59c-0.1,0.71,0.39,1.37,1.1,1.47
	c0.06,0.01,0.12,0.01,0.18,0.01c0.64,0,1.2-0.47,1.29-1.12c0.01-0.08,0.38-2.85,0.47-7.49c15.05-11.43,37.19,3.72,37.42,3.88
	c0.22,0.15,0.48,0.23,0.74,0.23c0.41,0,0.81-0.19,1.07-0.56c0.41-0.59,0.26-1.4-0.33-1.81c-0.94-0.66-22.5-15.42-38.88-4.92
	c-0.01-1.13-0.04-2.34-0.1-3.61c4.93-7.06,17.63-7.35,17.76-7.35c0.72-0.01,1.29-0.6,1.28-1.32c-0.01-0.71-0.59-1.28-1.3-1.28
	c-0.01,0-0.01,0-0.02,0c-0.52,0.01-11.58,0.25-17.93,6.25c-0.4-5.41-1.25-11.73-2.88-18.51c6.69-0.61,35.8-2.01,59.34,16.07
	c16.46,12.65,26.84,32.07,30.88,57.78c-12.85-15.55-33.19-16.79-34.07-16.84c-0.71-0.03-1.33,0.52-1.37,1.23
	c-0.04,0.72,0.51,1.33,1.23,1.37c0.21,0.01,21.12,1.3,33.15,17.06C754.99,295.73,757.41,309.97,754.29,327.75z"/>
<path id="CODE_x5F_AAAA86" class="st2" d="M754.29,327.75c-1.79-3.76-4.82-8.92-8.42-10c-0.42-0.12-0.89-0.02-1.23,0.27
	c-0.33,0.3-0.49,0.74-0.42,1.18c0.04,0.28,3.97,26.08-7.78,36.6c-1.93-13.63-7.01-23.36-15.2-29.01
	c-16.04-11.06-37.81-2.37-38.73-1.99c-0.67,0.27-0.98,1.03-0.71,1.69c0.27,0.67,1.02,0.99,1.69,0.71
	c0.21-0.08,21.41-8.53,36.29,1.74c10.42,7.2,15.44,21.78,14.92,43.33c-0.02,0.5-2.56,50.01-25.42,63.9
	c-7.97-0.17-16.32,3.43-16.8,3.64c-0.37,0.16-0.64,0.48-0.74,0.87c-5.02,19.56-19.25,34.18-24.41,38.97
	c-0.81-10.01-0.92-21.12-0.87-28.95c0.04-4.56,0.23-9.26,0.6-14.37c2.29-31.49-3.41-54.5-12.66-71.32
	c7.21,0.44,30.19,4.2,39.11,33.37c0.17,0.56,0.68,0.92,1.24,0.92c0.13,0,0.25-0.02,0.38-0.06c0.69-0.21,1.07-0.93,0.86-1.62
	c-10.19-33.34-38.05-35.2-43.11-35.26c-9.16-15.38-21.31-25.26-32.65-31.56c-0.03-0.02-0.06-0.04-0.09-0.05
	c25.56-16.87,28.38-42.83,28.4-43.1c0.07-0.71-0.45-1.35-1.16-1.42s-1.35,0.45-1.42,1.17c-0.03,0.26-2.86,25.84-28.47,41.96
	c-6.19-3.14-12.74-5.51-19.47-7.06c12.36-5.29,18.93-18.93,19.23-19.58c0.31-0.65,0.03-1.42-0.62-1.73s-1.43-0.03-1.73,0.62
	c-0.08,0.17-7.94,16.54-22.07,19.64c-3.22-0.54-6.48-0.88-9.75-1.06c37.1-22.63,34.25-66.09,34.22-66.54
	c-0.06-0.71-0.67-1.25-1.4-1.2c-0.71,0.06-1.25,0.68-1.2,1.4c0.04,0.45,2.93,45.14-36.64,66.21c-2.37,0.01-4.74,0.11-7.11,0.32
	c7.13-30.76,2.24-51.82-3.2-64.14c-6.05-13.7-13.88-19.77-14.21-20.02c-0.57-0.44-1.39-0.33-1.82,0.24
	c-0.44,0.57-0.33,1.39,0.24,1.82c0.31,0.24,30.14,23.93,16.26,82.35c-4.09,0.49-8.15,1.26-12.15,2.34
	c-14.65,3.96-25.2,11.47-31.35,22.34c-8.74,15.44-6,32.86-4.76,38.52c-15.72-2.17-21.96-13.81-24.42-23.37c0-0.05,0-0.08,0-0.08
	c0.01-0.24-0.07-0.45-0.18-0.64c-1.55-6.47-1.41-11.83-1.39-12.38c0.48-25.58,16.39-39.91,16.56-40.05c0.53-0.48,0.59-1.3,0.11-1.84
	c-0.47-0.53-1.29-0.59-1.83-0.11c-0.69,0.6-16.94,15.18-17.44,41.92c-0.01,0.15-0.16,5.92,1.58,13c0,0.02-0.01,0.03-0.01,0.05
	c-0.01,0.51-0.14,10.93,2.94,18.23c-6.69-2.83-22.34-11.02-30.68-28.47c-8.47-17.71-7.34-40.01,3.34-66.27
	c0.27-0.66-0.05-1.42-0.72-1.69c-0.66-0.27-1.42,0.05-1.69,0.71c-7.98,19.61-10.73,37.12-8.26,52.29
	c-2.28,6.02-1.95,14.54-1.45,19.76c-15.54-20.14-22.17-40.2-19.72-59.68c3.82-30.37,28.82-48.98,29.07-49.16
	c0.58-0.42,0.7-1.24,0.28-1.82s-1.24-0.7-1.82-0.28c-0.26,0.19-26.14,19.42-30.11,50.91c-0.58,4.62-0.67,9.27-0.28,13.94
	c-5.59,2.18-33.58,14.56-47.62,49.32c1.23-15.84,5.97-40.24,22.66-55.49c0.53-0.49,0.56-1.31,0.08-1.84
	c-0.48-0.53-1.31-0.57-1.84-0.08c-20.9,19.09-23.72,51.77-23.89,66.04c0,0.09-0.02,0.18,0,0.27c-0.01,1.09-0.01,2.08,0,2.94
	c-26.64-33.4-8.88-78.01-8.69-78.47c0.27-0.66-0.05-1.42-0.71-1.69c-0.67-0.27-1.43,0.04-1.7,0.71
	c-0.2,0.48-19.42,48.68,11.13,83.52c-0.94,4.34-6.3,30.27-5.86,54.11c-3.2-8.34-8.14-24.98-8.92-49.51c0-0.08-0.02-0.15-0.03-0.22
	c-0.01-0.02,0-0.05-0.01-0.07c0-0.01-0.01-0.01-0.01-0.02c-0.04-0.13-0.09-0.25-0.16-0.36c-0.28-0.44-27.81-43.7-3.76-94.4
	c0.01-0.02,0-0.04,0.01-0.06c0.04-0.09,0.05-0.18,0.07-0.27c0.01-0.08,0.03-0.15,0.03-0.23c0-0.08-0.02-0.16-0.03-0.24
	c-0.02-0.08-0.03-0.16-0.06-0.24c-0.03-0.07-0.08-0.14-0.12-0.2c-0.05-0.08-0.09-0.16-0.16-0.22c-0.01-0.02-0.02-0.04-0.03-0.05
	c-0.05-0.05-0.12-0.07-0.17-0.11c-0.06-0.04-0.1-0.09-0.16-0.11c-0.02-0.01-0.04-0.01-0.06-0.02c-0.09-0.04-0.18-0.05-0.27-0.07
	c-0.07-0.01-0.15-0.03-0.22-0.03c-0.09,0-0.17,0.02-0.25,0.04c-0.08,0.01-0.16,0.02-0.24,0.05c-0.07,0.03-0.13,0.08-0.2,0.12
	c-0.08,0.05-0.15,0.09-0.22,0.16c-0.02,0.02-0.04,0.02-0.05,0.04c-9.01,9.71-13.52,20.94-15.45,26.96
	c-9.6-34.54,10.23-63.41,13.75-68.17c4.65,1.44,9.75,2.17,15.29,2.17c14.63,0,32.32-4.98,52.93-14.91c0.64-0.31,0.92-1.09,0.6-1.73
	c-0.31-0.65-1.08-0.92-1.73-0.61c-28.29,13.63-50.81,17.76-67.14,12.35c-0.04-0.02-0.08-0.03-0.12-0.04
	c-2.6-0.87-5.05-1.98-7.33-3.34c-15.21-9.05-18.64-26.68-19.37-32.37c6.14,1.61,12.24,2.31,18.22,2.31
	c33.89,0,63.93-22.58,73.52-30.6c3.58-3,7.07-5.39,10.67-7.32c42.74-22.91,82.32-12.29,107.99,0.64
	c27.95,14.08,45.98,33.88,46.16,34.08c0.48,0.53,1.3,0.57,1.83,0.09c0.54-0.48,0.58-1.3,0.1-1.83
	c-0.18-0.21-18.49-20.32-46.84-34.62c-24.15-12.19-60.35-22.33-100.07-5.6c28.43-20.82,58.82-27.49,80.2-29.31
	c25.67-2.18,44.27,1.96,44.45,2c51.9,12.08,73.05,41.99,81.66,64.96c9.35,24.95,6.38,47.37,6.35,47.59c-0.1,0.71,0.39,1.37,1.1,1.47
	c0.06,0.01,0.12,0.01,0.18,0.01c0.64,0,1.2-0.47,1.29-1.12c0.01-0.08,0.38-2.85,0.47-7.49c15.05-11.43,37.19,3.72,37.42,3.88
	c0.22,0.15,0.48,0.23,0.74,0.23c0.41,0,0.81-0.19,1.07-0.56c0.41-0.59,0.26-1.4-0.33-1.81c-0.94-0.66-22.5-15.42-38.88-4.92
	c-0.01-1.13-0.04-2.34-0.1-3.61c4.93-7.06,17.63-7.35,17.76-7.35c0.72-0.01,1.29-0.6,1.28-1.32c-0.01-0.71-0.59-1.28-1.3-1.28
	c-0.01,0-0.01,0-0.02,0c-0.52,0.01-11.58,0.25-17.93,6.25c-0.4-5.41-1.25-11.73-2.88-18.51c6.69-0.61,35.8-2.01,59.34,16.07
	c16.46,12.65,26.84,32.07,30.88,57.78c-12.85-15.55-33.19-16.79-34.07-16.84c-0.71-0.03-1.33,0.52-1.37,1.23
	c-0.04,0.72,0.51,1.33,1.23,1.37c0.21,0.01,21.12,1.3,33.15,17.06C754.99,295.73,757.41,309.97,754.29,327.75z M454.5,432.26
	l-10.15,5l0.05,0.27c1.43,8.33-4.48,11.68-4.73,11.81c-9.5,5.11-15.53-2.81-15.78-3.15l-0.19-0.25l-12.35,5.96
	c0.1,0.23,0.22,0.45,0.34,0.67c1.24,2.37,2.9,4.54,4.97,6.4c6.98,6.26,16.43,7.92,24.97,4.52c4.79-1.91,8.84-5.4,11.48-9.83
	c3.94-6.61,4.43-14.14,1.69-20.7C454.71,432.73,454.61,432.49,454.5,432.26z"/>
<path id="CODE_x5F_FDE8B8" class="st3" d="M649.06,534.6c-2.16-1.61-4.73-2.72-7.38-3.46c0.36-7.85,2.73-15.22,4.7-20.12
	c0.32-0.77,1.02-0.75,1.22-0.72c0.21,0.03,0.9,0.18,1.01,1.01c1.12,8.19,0.58,21.36,0.51,23.12
	C649.1,534.49,649.07,534.55,649.06,534.6z M483.52,569.18c-53.02-14.11-87.28-35.07-101.81-62.29
	c-11.64-21.82-6.86-41.81-4.26-49.39c1.25-3.65,2-7.37,2.2-11.05l0.65-11.38c0-0.02-0.01-0.04-0.01-0.07c0-0.03,0.01-0.06,0.01-0.09
	c-1.97-27.15,5.56-60.62,5.63-60.95c0.01-0.02,0-0.04,0.01-0.05c0.02-0.11,0.03-0.23,0.02-0.34c-0.01-0.11-0.18-2.57-0.14-6.59
	c11.94-38.64,41.34-52.66,48.31-55.49c2,16.07,9.75,32.38,23.17,48.67c0.25,0.31,0.62,0.47,1,0.47c0.19,0,0.37-0.03,0.54-0.11
	c0.54-0.25,0.84-0.83,0.74-1.41c-0.02-0.12-1.68-10-0.48-18.18c0.94,3.58,2.19,7.02,3.77,10.31c11.26,23.52,34.44,30.71,35.42,31.01
	c0.13,0.03,0.25,0.05,0.38,0.05c0.41,0,0.8-0.19,1.05-0.54c0.32-0.45,0.33-1.05,0.01-1.51c-1.97-2.81-3.01-7.09-3.56-10.96
	c4.06,8.33,11.56,16.12,25.38,17.34c0.43,0.04,0.85-0.14,1.12-0.47c0.27-0.33,0.36-0.77,0.25-1.18c-0.06-0.21-5.79-20.98,4.06-38.39
	c5.8-10.24,15.81-17.34,29.77-21.11c20.79-5.61,43.46-2.84,62.22,7.59c23.23,12.92,49.99,41.29,45.5,103.07
	c-0.37,5.17-0.57,9.92-0.61,14.54c-0.06,8.5,0.08,20.83,1.09,31.52c-0.78,2.56-8.18,26.54-13.11,37.78
	c-0.09-3.14-0.28-6.32-0.65-9.02c-0.23-1.72-1.55-3.02-3.27-3.24c-0.27-0.03-0.55-0.03-0.82,0c-0.29-1.11-1.05-2.07-2.17-2.62
	c-1.82-0.89-3.93-0.36-5.12,1.28c-3.89,5.37-7.24,12.44-9.42,17.54c-0.11-5.05-0.59-10.03-1.44-14.88
	c-0.39-2.16-2.12-3.63-4.32-3.65c-0.02,0-0.03,0-0.05,0c-2.19,0-3.94,1.44-4.36,3.6c-2.24,11.49-3.78,23.34-4.39,28.37
	c-2.57-2.14-7.45-5.59-13.01-6.46c-2.09-0.33-4.05,0.68-5.02,2.56c-1,1.92-0.67,4.15,0.83,5.69c3.34,3.43,6.56,6.44,9.55,8.95
	c-0.01,1.42,0.11,4.9,1.25,8.8c-18.17,8.78-46.03,12.8-69.5,14.62c-0.03,0-0.05,0-0.08,0c-9.56,0.74-18.39,1.12-25.52,1.3
	C503.97,573.08,493.61,571.86,483.52,569.18z M638.27,475.56l-0.84-0.4c-53.22-25.56-87.34-10.01-87.68-9.85l-4.25,2.01l4.7-0.11
	c49.4-1.11,75.16,15.78,75.42,15.95l0.29,0.2l0.36-0.03c9.22-0.83,11.57-6.66,11.66-6.91L638.27,475.56z M538.85,418.83l1.21-0.21
	c81.57-14.29,108.44,6.71,108.7,6.92l1.28,1.05l-0.7-1.5c-3.77-8.01-10.59-14.63-15.65-18.77c-2.79-2.29-6.09-3.8-9.53-4.36
	c-22.58-3.68-49.67-1-60.27,0.32c-3.21,0.4-6.28,1.53-8.88,3.29c-7.56,5.09-15.19,12.34-15.27,12.41L538.85,418.83z M390.46,374.64
	l1.37-0.63c0.23-0.11,24.33-10.58,80.35,31.51l0.87,0.65l-0.28-1.05c-0.02-0.06-1.87-6.88-5.59-13.5c-1.1-1.96-2.57-3.69-4.35-5.14
	c-7.62-6.2-27.68-21.26-49.47-27.33c-3.42-0.95-7.08-0.19-9.82,2.04c-3.5,2.87-8.46,7.32-12.17,12.25L390.46,374.64z M456.4,431.58
	c3.14,3.35,4.75,5.97,4.8,6.05l3.02,5.04l-1.18-5.75c-1.55-7.51-6.05-14.06-13.38-19.46c-16.47-12.13-38.57-13.22-56.31-2.77
	c-4.26,2.5-8.6,5.86-11.25,8.16c-0.93,0.82-1.64,1.8-2.12,2.86c0,2.48,0.07,4.95,0.21,7.37c0.17,0.33,0.36,0.66,0.58,0.97
	l11.15,15.76c0,0,2.97,5.61,8.73,9.43c2.14,2.84,4.9,5.25,8.05,7.09c1.57,0.91,3.25,1.64,4.98,2.25c1.74,0.57,3.53,0.98,5.34,1.25
	c3.64,0.45,7.33,0.3,10.86-0.51c2.43-0.55,4.81-1.35,7.03-2.45c1.53-0.26,3.07-0.65,4.57-1.19c6.01-2.14,11.02-6.54,14.01-12.17
	c3.68-6.9,3.99-14.62,1.14-21.37C456.56,431.95,456.48,431.76,456.4,431.58z M484.85,529.45c5.35-0.59,11.04,0.31,16.91,2.69
	c2.08,0.84,4.68,1.5,7.7,1.5c4.37,0,9.64-1.38,15.54-5.58c0.59-0.42,0.73-1.23,0.31-1.81c-0.42-0.59-1.23-0.72-1.81-0.31
	c-7.25,5.16-14.23,6.44-20.76,3.79c-6.28-2.54-12.39-3.5-18.18-2.86c-10.98,1.21-18.32-5.88-18.4-5.95
	c-0.51-0.51-1.33-0.5-1.83,0.01c-0.51,0.51-0.51,1.33,0,1.84C464.67,523.09,472.6,530.81,484.85,529.45z M643.79,507.44
	c-0.55-0.27-1.33-0.29-1.87,0.46c-5.15,7.12-9.46,17.66-11.05,21.77c2.4,0.05,5.29,0.26,8.23,0.85c0.45-8.02,2.86-15.49,4.87-20.47
	c0.17-0.4,0.39-0.76,0.65-1.06C644.73,508.2,644.28,507.68,643.79,507.44z M403.43,765.57c1.5-0.95,2.52-1.65,3.4-3.11
	c-1.56-2.54-2.1-5.17-2.13-5.34c-0.14-0.71,0.32-1.39,1.03-1.53c0.7-0.13,1.38,0.32,1.52,1.03c0.01,0.04,0.72,3.47,2.78,5.83
	c0.05-2.13,0.05-3.53,0.05-3.57c-0.01-0.71,0.57-1.3,1.29-1.3c0,0,0,0,0.01,0c0.71,0,1.29,0.57,1.29,1.29
	c0.01,0.39,0.05,9.62-1.02,17.21c-0.16,1.17,0.56,1.88,1.29,2.14c0.72,0.27,1.71,0.2,2.33-0.78c3.77-5.91,5.68-15.78,5.68-29.32
	c0-0.71,0.58-1.29,1.3-1.29s1.3,0.58,1.3,1.29c0,1.17-0.02,2.29-0.05,3.4c1.98-4.08,3.92-7.28,4.38-8.03v-11.78
	c-1.59-0.08-3.12-0.73-4.31-1.88c-1.53-1.48-2.27-3.53-2.04-5.62c1.16-10.52,5.15-19.68,8.29-25.52c2.5-4.65,4.05-9.84,4.61-15.42
	c0.4-4.08,1.04-8.31,1.8-12.47c-2.84-2.96-7.72-4.28-10.85-4.85c-0.3,1.71-0.78,4.85-0.7,7.13c0.04,1.35-0.23,2.62-0.82,3.76
	c-3.5,6.85-15.28,32.04-19.88,68.72c-0.16,1.27-0.37,2.49-0.62,3.63c-0.5,2.3-1.63,7.13-3.6,13.59c-0.36,1.19,0.21,2.15,0.86,2.65
	C401.28,765.94,402.36,766.24,403.43,765.57z M511.56,575.45c-9.42,0-18.82-1.21-28-3.59c-0.96,5.63-4.26,27.21-1.21,38.86
	l38.5-35.51c-2.27,0.09-4.43,0.16-6.45,0.21C513.45,575.44,512.51,575.45,511.56,575.45z M721.03,450.23
	c-0.22-4.62-1.81-7.88-4.72-9.68c-6.93-4.29-19.4,0.28-22.22,1.41c-1,3.75-2.32,7.32-3.83,10.66c5.19-3.33,14.14-7.66,20.11-2.62
	c0.48,0.41,0.54,1.13,0.13,1.62c-0.4,0.48-1.13,0.54-1.62,0.13c-6.4-5.4-18.2,3.22-20.73,5.2c-7.8,14.79-18.73,24.43-20.75,26.13
	c-0.57,1.85-3.02,9.82-5.96,18.51c1.26,0.92,4.28,2.66,8.11,1.94c0.01-0.29,0.03-0.59,0.05-0.88c0.12-1.64,1.35-2.84,2.99-2.93
	c1.61-0.09,2.97,0.98,3.27,2.59C683.34,498.93,722.49,479.79,721.03,450.23z M377.06,446.3l0.62-11.01
	c-1.14-2.16-6.92-13.94-9.99-35.41c-2.76-3.19-6.75-4.52-6.79-4.54c-0.61-0.19-0.94-0.84-0.74-1.44c0.19-0.61,0.84-0.94,1.44-0.74
	c0.16,0.04,2.9,0.95,5.61,3.1c-0.58-4.81-1.03-10.05-1.25-15.74c-2.36,1.07-6.81,3.85-9.27,10.23c-3.64,9.44-3.18,28.05,19.11,63.25
	C376.49,451.44,376.91,448.86,377.06,446.3z M661.78,517.78c0.05-0.4-0.21-0.57-0.36-0.64c-0.13-0.06-0.45-0.15-0.73,0.16
	c-5.25,5.99-9.74,19.79-9.79,19.93c-0.13,0.43-0.48,0.76-0.92,0.87c-0.44,0.1-0.9-0.02-1.22-0.34c-7.14-6.98-23.29-5.32-23.45-5.3
	c-0.72,0.07-1.36-0.44-1.43-1.15c-0.08-0.72,0.43-1.36,1.15-1.44c0.16-0.01,1.17-0.12,2.71-0.17c0.25-6.88-0.2-13.67-1.36-20.2
	c-0.19-1.1-1.04-1.5-1.78-1.51h-0.01c-0.74,0-1.6,0.39-1.82,1.49c-2.43,12.48-4.03,25.39-4.5,29.39
	c11.53,1.87,14.79,14.52,14.82,14.65c0.18,0.7-0.25,1.4-0.94,1.57c-0.7,0.18-1.4-0.25-1.58-0.94c-0.06-0.25-0.83-3.23-2.94-6.27
	c-2.1-3.04-5.53-6.14-10.91-6.59c-0.01,0-0.02,0-0.03,0c-0.04,0-0.07-0.02-0.11-0.03c-0.12-0.03-0.23-0.06-0.34-0.11
	c-0.06-0.03-0.1-0.07-0.16-0.11c-0.05-0.05-0.12-0.08-0.17-0.13c-0.06-0.06-6.32-6.32-13.5-7.44c-1.45-0.24-2.13,0.85-2.3,1.18
	c-0.38,0.72-0.47,1.81,0.38,2.68c3.42,3.51,6.82,6.68,9.84,9.17c0.32,0.26,0.49,0.66,0.47,1.07c-0.01,0.14-0.64,14.43,9.82,20.12
	c0.51,0.28,0.77,0.86,0.65,1.42c-0.04,0.19-4.11,18.75-3.31,27.77c0.07,0.72-0.46,1.35-1.18,1.41c-0.04,0.01-0.08,0.01-0.11,0.01
	c-0.67,0-1.24-0.51-1.3-1.18c-0.39-4.36,0.26-10.61,1.09-16.17c-4.84,3.09-15.71,12.71-12.54,35.79c0.06,0.45,0.16,0.88,0.23,1.33
	c38.36,15.55,50.87,0.29,50.99,0.14c10.76-13.14-2.23-48.9-2.36-49.26c-0.15-0.41-0.09-0.87,0.17-1.22
	c5.31-7.18,3.77-25.1,3.76-25.28c-0.02-0.16,0-0.33,0.04-0.48C659.83,531.52,661.22,522.33,661.78,517.78z"/>
<path id="CODE_x5F_564238" class="st4" d="M482.03,740.63l0.05,9.67c-3.8,0.43-7.62,0.12-10.22-0.24c-2.39-0.32-4.55-1.04-6.43-2.13
	c-0.88-0.51-1.64-1.05-2.31-1.65c-1-0.88-1.55-2.11-1.56-3.46c-0.01-1.37,0.56-2.68,1.57-3.61c0.57-0.52,1.05-0.96,1.39-1.27
	C466.75,738.53,474.05,740.29,482.03,740.63z M513.07,591.32c-0.11-0.44,0.02-0.9,0.33-1.22s0.76-0.46,1.2-0.37
	c5.1,1.07,14.5,6.15,18.51,8.41c0.53-8.23,3.75-19.49,5.08-23.89c-4.67,0.34-9.15,0.6-13.32,0.79l-42.27,38.99l-0.66,0.61
	c12.1-5.05,29.48-8.92,34.47-9.97L513.07,591.32z M467.92,586.1c0.57-0.19,1.2,0.03,1.52,0.54c0.31,0.51,0.24,1.17-0.18,1.6
	l-11.8,12.11c4.2,2.35,15.9,9.16,20.37,14.54l2.39-2.2c-2.22-6.94-1.97-17.59-1.16-26.52c-0.36,0.04-0.69,0.05-1.03,0.05
	c-2.31,0-4.06-0.66-5.21-1.99c-2.19-2.54-1.29-6.57-0.98-7.7c-0.83-3.31,0.58-5.89,1.82-7.41c-0.78-0.23-0.21-0.06-0.98-0.29
	c-3.19,2.54-20.33,16.68-24.29,29.75C452.46,594.91,460.13,588.7,467.92,586.1z M465.4,658.32c-2.27,16.98-4.41,36.93-4.67,53.35
	l-1.87,3.12c-0.3,0.51-0.87,0.81-1.56,0.82l-5.3,0.08c-2.29,0.03-4.13,1.23-4.94,3.19c-0.92,2.25-0.24,4.98,1.71,6.96l2.83,2.86
	c0.66,0.67,0.98,1.55,0.84,2.31l-0.55,2.96c-9.32-2.33-13.93-3.35-15.23-3.65h-0.01c-2.71-1.26-7.34-1.3-7.57-1.27
	c-0.05,0-0.1,0.02-0.15,0.03c-0.05,0-0.09,0-0.13,0.01c-1.25,0.18-2.5-0.24-3.42-1.13c-0.95-0.92-1.41-2.18-1.27-3.47
	c0.7-6.27,2.44-12.05,4.4-16.88c0.97,1.07,2.29,1.63,3.67,1.63c0.45,0,0.92-0.06,1.38-0.19c1.89-0.53,3.26-2.07,3.58-4.01l1.13-6.87
	c0.35-2.15,1.62-4.06,3.46-5.22l2.64-1.67c2.14-1.35,3.43-3.67,3.45-6.2c0.02-2.53-1.23-4.87-3.34-6.26l-1.35-0.88
	c-1.42-0.93-2.44-2.35-2.86-4l-1.15-4.44c2.65-14.71,5.95-24.62,6.92-27.8c0.05,0.02,0.09,0.06,0.13,0.1
	c1.49,1.47,3.61,1.86,5.53,1.04c1.92-0.83,3.08-2.64,3.04-4.73l-0.12-6.3c-0.02-0.74,0.17-1.47,0.55-2.11l4.62-7.8
	c0.79-1.33,0.55-2.92-0.58-3.96c-1.14-1.04-2.74-1.14-4-0.25l-4.22,3.01c-0.94-1.36-2.47-2.19-4.2-2.22c-2.15,0-4.05,1.18-4.9,3.18
	l-3.03,7.07c0,0,0,0,0,0.01c-0.3,0.71-0.73,1.35-1.27,1.9l-5.12,3.86c-1.45,1.09-2.3,2.77-2.33,4.59c-0.04,1.83,0.76,3.53,2.18,4.68
	c0.64,0.52,0.97,1.33,0.87,2.16l-0.62,5.05c-0.17,1.44,0.63,2.72,2.01,3.19c0.33,0.11,0.67,0.16,1,0.16c1.02,0,1.97-0.53,2.53-1.47
	l3.88-6.57c-0.87,2.84-2.69,8.84-5.19,21.53c-4.2-3.34-10.35-4.42-12.97-4.74c1-39.35,14.15-62.88,25.07-75.73
	c4.22-4.97,8.45-8.77,12.15-11.6c-7.08,7.1-15.24,17.16-16.01,26.47c-0.05,0.55,0.26,1.07,0.76,1.3c0.5,0.22,1.08,0.11,1.47-0.28
	c0.08-0.09,7.08-7.25,15.32-11.88l-8.19,8.4c-0.28,0.29-0.41,0.7-0.35,1.1c0.06,0.41,0.31,0.76,0.67,0.95
	c0.17,0.09,16.39,8.85,21.2,14.85l-3.59,3.31c-0.31,0.26-0.59,0.52-0.85,0.79c-0.04,0.03-0.05,0.07-0.08,0.11
	c-0.05,0.06-0.09,0.13-0.13,0.2c-0.04,0.08-0.07,0.16-0.1,0.25c-0.01,0.04-0.04,0.07-0.04,0.12c-0.13,0.71-0.83,4.58-1.8,10.53
	c-0.25,0.17-0.56,0.26-0.9,0.28l-5.02,0.19c-2.13,0.08-3.86,1.27-4.62,3.18c-0.92,2.28-0.26,5.03,1.66,7.01l2.72,2.81
	c0.63,0.65,0.95,1.53,0.82,2.3l-0.89,5.49C462.78,655.14,463.68,657.11,465.4,658.32z M441.9,646.6
	C441.86,646.7,441.85,646.75,441.9,646.6L441.9,646.6z M437.75,720.67l0.68-1.53c0.29-0.67,0.16-1.43-0.34-2.03
	c-0.55-0.66-1.44-0.96-2.25-0.77l-0.85,0.2l-1-0.97c-0.5-0.48-1.23-0.65-1.87-0.43c-0.56,0.2-0.96,0.68-1.04,1.26l-0.23,1.72
	l-1,0.43c-0.77,0.33-1.25,1.04-1.26,1.85c-0.01,0.92,0.56,1.78,1.47,2.19l0.88,0.36l0.29,1.38c0.16,0.79,0.81,1.41,1.65,1.59
	c0.14,0.02,0.29,0.04,0.43,0.04c0.62,0,1.18-0.28,1.52-0.78l0.45-0.64l0.27,0.1c0.89,0.31,1.85,0.1,2.44-0.54
	c0.54-0.59,0.66-1.44,0.32-2.2L437.75,720.67z M454.77,655l-0.69-0.53l0.11-1.38c0.06-0.7-0.28-1.37-0.85-1.72
	c-0.51-0.31-1.14-0.31-1.64,0l-1.47,0.92l-0.97-0.51c-0.74-0.38-1.6-0.3-2.23,0.21c-0.71,0.57-1.01,1.56-0.76,2.53l0.29,0.91
	l-0.88,1.09c-0.51,0.64-0.58,1.53-0.18,2.29c0.38,0.7,1.07,1.11,1.81,1.04l0.77-0.07l0.1,0.27c0.33,0.9,1.1,1.5,1.97,1.55
	c0.03,0,0.07,0,0.1,0c0.77,0,1.45-0.44,1.81-1.16l0.59-1.2l1.61-0.46c0.7-0.2,1.21-0.78,1.35-1.54
	C455.77,656.39,455.44,655.51,454.77,655z M501.68,744.54c-3.32-1.85-8.25-2.6-10.56-2.87v10.42c4.4,0.53,8.12-0.06,10.78-1.74
	c1.03-0.65,1.6-1.71,1.56-2.91C503.43,746.22,502.77,745.14,501.68,744.54z M506.06,747.37c0.06,2.1-0.97,4.04-2.77,5.17
	c-0.14,0.09-0.29,0.17-0.43,0.25c5.45,0.53,9.93,0.78,11.84,0.87l0.19-9.25c-1.5-0.12-5.44-0.43-10.27-0.77
	C505.5,744.66,506.02,745.96,506.06,747.37z M523.75,753.83c3.79,0.46,19.04,2.22,36.58,2.59l0.56-8.36
	c-14.98-2.48-32.42-2.74-37.03-2.76L523.75,753.83z M437.35,741.79c1.57,0.59,7,2.45,13.78,3.15c-0.32-1.53-0.21-3.14,0.38-4.64
	c0.5-1.25,1.29-2.33,2.29-3.17c-7.44-1.85-13.71-3.34-16.45-3.98V741.79z M614.86,640.94c-4.54-0.12-11.12-0.4-16.89-1.05
	c-3.01-0.35-5.92,1.02-7.55,3.57c-5.78,9.05-17.86,32.93-15.88,76.34l-5.98,14.05c-1.09,2.57-3.23,4.56-5.88,5.46l-13.63,4.63
	c-13.76-1.31-26.22-1.24-26.38-1.24c-0.03,0-0.05,0.01-0.07,0.01c-3.37-1.05-6.45-0.8-6.59-0.78c-0.01,0-0.01,0-0.02,0
	c-0.08-0.02-0.14-0.05-0.22-0.06c-0.08,0-8-0.64-16.73-1.23c-4.31-1.36-8.79-1.67-9.04-1.69c-0.02,0-0.04,0.01-0.06,0.01
	c-2.58-0.99-6.16-0.89-6.71-0.87c-0.02,0-0.05-0.02-0.08-0.02c-2.34-0.06-4.65-0.26-6.81-0.53l-0.28-5.19
	c-0.03-0.74,0.22-1.4,0.72-1.86l5.2-4.8c1.27-1.17,1.7-2.95,1.14-4.75c-0.68-2.24-2.71-3.98-5.03-4.34l-4.6-0.7
	c-0.45-0.07-0.89-0.4-1.09-0.82l-2.73-5.84c-0.7-1.5-2.19-2.51-3.8-2.59c-0.93-0.06-1.77,0.23-2.41,0.79
	c0.3-8.48,1.03-17.76,1.97-26.98c0.15,0.53,0.51,0.95,1,1.18l0.7,0.32l-0.04,0.28c-0.15,0.94,0.23,1.84,0.96,2.31
	c0.32,0.2,0.68,0.3,1.04,0.3c0.41,0,0.82-0.13,1.19-0.38l1.11-0.76l1.63,0.38c0.71,0.17,1.43-0.08,1.93-0.68
	c0.55-0.66,0.69-1.59,0.36-2.36l-0.35-0.8l0.77-1.16c0.39-0.57,0.43-1.32,0.1-1.91c-0.3-0.52-0.83-0.82-1.43-0.8l-1.73,0.08
	l-0.61-0.91c-0.46-0.69-1.24-1.04-2.04-0.91c-0.9,0.15-1.65,0.87-1.9,1.84l-0.19,0.93l-1.31,0.53c-0.46,0.18-0.82,0.53-1.03,0.97
	c0.71-6.71,1.52-13.37,2.35-19.63c0.95,0.07,1.88-0.16,2.66-0.69l4.4-2.99l2.57,2.19c1.25,1.07,2.76,1.63,4.21,1.63
	c0.81,0,1.6-0.18,2.32-0.53c1.81-0.9,2.81-2.72,2.69-4.87l-0.31-5.43c-0.05-0.76,0.19-1.43,0.65-1.9l4.86-4.92
	c1.22-1.24,1.58-3.07,0.96-4.9c-0.74-2.18-2.63-3.78-4.82-4.08l-4.35-0.59c-0.41-0.06-0.81-0.37-1-0.78l-2.66-5.78
	c-0.69-1.49-2.13-2.48-3.68-2.53c-1.26-0.03-2.36,0.57-2.94,1.63l-0.45,0.81c0.27-1.55,0.46-2.66,0.56-3.21l0.51-0.48
	c9.33-7.83,43.78-14.84,44.14-14.91c0.34-0.07,0.65-0.28,0.84-0.58s0.25-0.66,0.16-1.01l-3.12-12.49c6.59,2.21,17.42,8.52,17.54,8.6
	c0.4,0.23,0.9,0.23,1.3,0c0.4-0.23,0.65-0.66,0.65-1.13c0-8.46,4.24-22.72,5.35-26.29c7.77-0.62,16.01-1.48,24.22-2.67
	c2.18,0.09,30.22,1.45,51.81,6.18c-0.01,0.04-0.02,0.09-0.03,0.13c-3.52,1.84-19.43,11.75-15.63,39.42
	c1.07,7.81,4.28,14.77,9.29,20.12C612.01,638.69,613.43,639.93,614.86,640.94z M504.75,625.29c0.16,0.79,0.71,1.37,1.43,1.52
	l0.76,0.17l0.02,0.28c0.05,0.95,0.62,1.75,1.44,2.05c0.21,0.08,0.44,0.11,0.66,0.11c0.55,0,1.09-0.23,1.49-0.67l0.92-0.98l1.68,0.03
	c0.72,0,1.38-0.4,1.74-1.09c0.39-0.76,0.33-1.7-0.16-2.38l-0.52-0.71l0.51-1.29c0.26-0.65,0.13-1.39-0.32-1.89
	c-0.4-0.45-0.99-0.63-1.56-0.47l-1.67,0.45l-0.79-0.76c-0.6-0.58-1.44-0.76-2.19-0.45c-0.85,0.34-1.42,1.2-1.46,2.2l0.01,0.95
	l-1.16,0.8C504.91,623.62,504.59,624.46,504.75,625.29z M511.31,654.97c-0.49-0.71-1.35-1.08-2.17-0.97l-0.87,0.13l-0.91-1.06
	c-0.45-0.53-1.17-0.76-1.82-0.6c-0.58,0.15-1.02,0.59-1.15,1.17l-0.38,1.69l-1.04,0.34c-0.79,0.26-1.33,0.92-1.42,1.73
	c-0.09,0.91,0.41,1.82,1.27,2.31l0.85,0.44l0.16,1.4c0.09,0.8,0.68,1.48,1.5,1.72c0.21,0.06,0.41,0.09,0.61,0.09
	c0.55,0,1.06-0.22,1.4-0.64l0.5-0.6l0.26,0.12c0.86,0.39,1.84,0.27,2.48-0.32c0.6-0.54,0.8-1.37,0.52-2.17l-0.44-1.26l0.8-1.47
	C511.81,656.38,511.76,655.61,511.31,654.97z M539.46,728.17c0.05-0.86-0.39-1.69-1.12-2.1l-0.76-0.44l-0.07-1.39
	c-0.03-0.69-0.45-1.32-1.07-1.59c-0.54-0.24-1.17-0.16-1.62,0.21l-1.34,1.1l-1.03-0.37c-0.78-0.28-1.62-0.09-2.18,0.5
	c-0.63,0.66-0.8,1.68-0.42,2.6l0.4,0.87l-0.73,1.2c-0.42,0.69-0.37,1.59,0.12,2.29c0.47,0.65,1.2,0.95,1.93,0.79l0.76-0.16
	l0.13,0.25c0.42,0.79,1.19,1.28,2,1.28c0.05,0,0.1,0,0.15,0c0.81-0.07,1.47-0.6,1.74-1.4l0.43-1.27l1.54-0.67
	C538.99,729.58,539.42,728.95,539.46,728.17z M547.96,687.53c-0.84-2.28-2.86-3.84-5.27-4.09l-5.3-0.56
	c-0.74-0.07-1.39-0.48-1.79-1.1l-4.56-7.17c-0.78-1.23-2.16-1.9-3.6-1.74c-1.45,0.15-2.66,1.09-3.17,2.45l-2.17,5.79
	c-0.14,0.35-0.47,0.6-0.84,0.63l-4.52,0.31c-2.11,0.14-3.86,1.46-4.58,3.45c-0.72,1.98-0.22,4.12,1.3,5.58l5.64,5.43
	c0.59,0.56,0.94,1.33,0.98,2.15l0.27,5.59c0.11,2.31,1.5,4.32,3.62,5.25c2.12,0.92,4.54,0.56,6.3-0.94l2.44-2.07l5.04,3.46
	c0.82,0.57,1.76,0.85,2.7,0.85c0.96,0,1.93-0.29,2.76-0.88c1.65-1.17,2.38-3.19,1.86-5.14l-1.55-5.75c-0.21-0.8,0-1.64,0.57-2.25
	l2.55-2.71C548.3,692.31,548.81,689.8,547.96,687.53z M568.55,624.66c1.2-1.98,1.18-4.42-0.06-6.37l-3.01-4.73
	c-0.44-0.69-0.6-1.51-0.44-2.32l1.48-7.69c0.4-2.07-0.43-4.1-2.16-5.31c-1.73-1.2-3.92-1.27-5.72-0.18l-3.88,2.35
	c-0.32,0.2-0.73,0.19-1.04-0.02l-5.12-3.49c-1.2-0.82-2.73-0.88-4-0.17c-1.27,0.71-2.01,2.05-1.94,3.5l0.4,8.49
	c0.04,0.74-0.26,1.44-0.82,1.93l-4.01,3.51c-1.82,1.59-2.57,4.04-1.95,6.38c0.62,2.35,2.48,4.1,4.85,4.59l3.65,0.74
	c0.82,0.17,1.47,0.73,1.76,1.51l2.05,5.58c0.7,1.91,2.45,3.13,4.48,3.14c0,0,0,0,0.01,0c2.02,0,3.78-1.23,4.48-3.12l2.11-5.73
	l3.19,0.28C565.16,627.74,567.35,626.64,568.55,624.66z M576.21,668.46l-0.69-1.09l0.53-1.67c0.23-0.69,0.03-1.43-0.52-1.98
	c-0.62-0.6-1.53-0.82-2.32-0.55l-0.83,0.29l-1.09-0.87c-0.55-0.43-1.29-0.52-1.9-0.24c-0.55,0.25-0.89,0.77-0.91,1.36l-0.06,1.73
	l-0.96,0.53c-0.73,0.4-1.13,1.15-1.07,1.96c0.08,0.91,0.74,1.71,1.68,2.04l0.92,0.27l0.42,1.34c0.24,0.77,0.95,1.33,1.8,1.41
	c0.07,0.01,0.15,0.02,0.22,0.02c0.7,0,1.32-0.35,1.65-0.94l0.38-0.68l0.28,0.07c0.91,0.23,1.85-0.08,2.37-0.77
	C576.59,670.04,576.63,669.19,576.21,668.46z M594.58,594.52c-0.06-0.86-0.59-1.63-1.36-1.96l-0.81-0.34l-0.23-1.37
	c-0.12-0.69-0.61-1.26-1.25-1.45c-0.57-0.18-1.18-0.03-1.59,0.4l-1.2,1.25l-1.07-0.25c-0.8-0.18-1.61,0.11-2.1,0.75
	c-0.55,0.73-0.59,1.77-0.11,2.64l0.5,0.81l-0.58,1.28c-0.34,0.74-0.18,1.62,0.39,2.26c0.54,0.59,1.31,0.8,2.01,0.56l0.73-0.25
	l0.17,0.23c0.45,0.67,1.16,1.05,1.89,1.05c0.13,0,0.26-0.01,0.39-0.04c0.79-0.16,1.39-0.76,1.56-1.59l0.22-1.28l1.51-0.88
	C594.28,595.98,594.63,595.29,594.58,594.52z M634.87,627.75c-7.6,0-17.46-1.69-30.06-6.62c1.43,5.49,4.05,10.38,7.73,14.31
	c2.69,2.88,5.48,4.78,8.29,5.64c1.14,0.36,2.39,0.26,3.51-0.27c3.33-1.56,9.38-5.31,14.49-13.23
	C637.58,627.68,636.26,627.75,634.87,627.75z"/>
<path id="CODE_x5F_C49C5F" class="st5" d="M673.6,502.73c0.52,3,0.69,5.27,0.5,6.82c-0.01,0.16-0.34,4.29-4.19,5.23
	c-1.46,0.36-3.08,0.14-4.55-0.62c-1.97-1.01-4.53-3.08-5.79-7.12c0.33-0.96,0.67-1.93,1-2.9c0.52,0.33,1.16,0.69,1.9,1.02
	c0.52,5.69,3.73,6.68,5.67,6.75c0.94,0.04,1.8-0.3,2.46-0.94c0.67-0.63,1.05-1.49,1.06-2.42c0.02-1.37,0.08-3.48,0.24-5.74
	c0.05-0.7,0.63-0.78,0.81-0.79C672.89,502.01,673.48,502.03,673.6,502.73z M567.18,748.26c-1.23-0.44-2.79-0.5-3.87-0.45
	l-0.75,11.16c1.49,0.31,2.91,0.36,3.82,0.36L567.18,748.26z M430.28,743.03v-11.54c1.34,0.07,3.26,0.27,4.67,0.74v11.03
	C433.78,743.29,431.9,743.28,430.28,743.03z M517.06,755.84l0.23-11.55c0.99,0.02,2.53,0.13,4.18,0.59l-0.14,11.02
	C520.28,755.98,518.59,756.05,517.06,755.84z M568.28,945.22c2.12-0.47,4.36-0.88,6.74-1.2c-1.18,2.37-3,6.53-3.73,10.91
	c-1.29-0.85-2.22-2.2-2.51-3.79C568.35,948.79,568.28,946.49,568.28,945.22z M478.25,837.62c-2.41,7.6-3.47,15.5-3.15,23.48
	c0.6,14.9,3.09,30.7,3.13,30.92c2.66,12.54,3.83,23.98,3.47,34.01c-0.18,5.09-3.02,9.52-7.6,11.83c-4.54,2.31-9.75,1.98-13.93-0.86
	c-25.8-17.57-46.69-13.97-52.52-12.45c-0.75-9.61,0.44-20.26,3.56-31.69c4.14-15.18,5.72-31.44,4.7-48.33
	c-2.04-33.81,1.36-63.02,1.72-65.96c2.78-4.5,4.58-10.95,5.4-19.24c2.09-5.98,5.59-12.02,6.75-13.96c1.44,0.23,3.01,0.3,4.24,0.3
	c1.23,0,2.13-0.06,2.21-0.06c0.58-0.04,1.02-0.5,1.09-1.06c2.52,0.88,8.13,2.57,14.92,3.09c0.06,0.09,0.1,0.17,0.16,0.26
	c1.86,2.7,6.38,7.64,14.5,7.64c1.41,0,2.94-0.16,4.58-0.5c-0.31,5.91-1.16,25.09,0.27,38.07c-2.65-4.18-3.48-6.67-3.51-6.75
	c-0.21-0.68-0.94-1.06-1.63-0.85c-0.68,0.21-1.06,0.94-0.85,1.63c0.16,0.53,3.83,11.74,21.39,27.35
	C483.84,820.86,480.51,830.49,478.25,837.62z M423.82,938.73c-8.53-0.22-15.55-1.43-14.98-1.35c0.99-5.22,5.24-9.88,6.72-11.37
	c2.2-0.15,4.77-0.18,7.66,0.02C422.8,928.67,422.22,934.32,423.82,938.73z M434.97,928.02c4.99,1.33,10.46,3.41,16.26,6.56
	c-5.12,2.07-10.7,3.21-16.21,3.76C434.02,933.83,434.56,929.93,434.97,928.02z M626.78,943.73c0.1,2.83-1.39,5.42-3.9,6.77
	c-2.5,1.34-5.36,1.17-7.66-0.48c-23.7-16.95-54.15-6.03-61.59-2.93c-4.26-45.47-12.31-70.49-12.4-70.77
	c-3.21-9.07-9.08-19.22-17.45-30.16c-7.59-9.9-16.82-19.12-27.44-27.41c-3.09-2.4-5.84-4.73-8.3-6.96
	c-2.87-16.83-1.35-50.83-1.03-57.27c0.33,0.01,0.65,0.02,0.93,0.02c0.71,0,1.27-0.03,1.63-0.06c0.05,0.02,0.09,0.05,0.15,0.06
	c1.56,0.24,3.05,0.36,4.45,0.36c0.92,0,1.79-0.05,2.64-0.16c8.04,1,15.29,1.4,17.84,1.52l-0.01,0.55c-0.01,0.57,0.37,1.07,0.92,1.19
	c1.23,0.29,2.61,0.38,3.83,0.38c1.77,0,3.18-0.18,3.28-0.2c0.59-0.07,1.04-0.57,1.05-1.17v-0.57c0.73,0.09,1.78,0.21,3.11,0.36
	c1.2,4.91,8.47,26.55,42.38,27.23c8.15,33.89,29.77,73.92,30.93,76.06C620.92,894.23,626.1,924.42,626.78,943.73z M529.56,757.09
	c6.9,0.71,18.17,1.66,30.59,1.93l-0.05,0.8c-0.04,0.56,0.32,1.08,0.87,1.23c1.96,0.55,3.89,0.67,5.16,0.68
	c-0.01,5.97,0.92,12.67,2.47,19.69C538.36,780.57,531.1,762.74,529.56,757.09z M596.44,944.61c1.6,1.95,6.04,7.58,7.57,11.73
	c-9.56,1.91-18.12,1.53-24.39,0.62c0.59-4.46,3.93-11.19,5.17-13.59C588.58,943.4,592.5,943.76,596.44,944.61z M475.1,797.91
	c-2.51-12.4-1.26-38.38-0.97-43.56c1.08-0.33,2.2-0.74,3.38-1.24c1.47,0.02,3.03-0.03,4.59-0.2c0.01,0.56,0.4,1.04,0.95,1.15
	c0.47,0.1,0.92,0.17,1.37,0.24c-0.31,5.95-1.73,36.53,0.57,54.63C480.74,804.82,477.52,801.09,475.1,797.91z M484.49,751.88
	l-0.06-11.4c1.13,0.02,2.89,0.14,4.29,0.59v11.05C487.74,752.16,486.19,752.14,484.49,751.88z"/>
<path id="CODE_x5F_3684B" class="st6" d="M391.83,374.01l-1.37,0.63l0.91-1.2c3.71-4.93,8.67-9.38,12.17-12.25
	c2.74-2.23,6.4-2.99,9.82-2.04c21.79,6.07,41.85,21.13,49.47,27.33c1.78,1.45,3.25,3.18,4.35,5.14c3.72,6.62,5.57,13.44,5.59,13.5
	l0.28,1.05l-0.87-0.65C416.16,363.43,392.06,373.9,391.83,374.01z M423.7,445.94l-12.35,5.96c-3.4-7.02-3.16-15.57,1-22.59
	c4.87-8.2,13.23-12.33,22.46-11.11c6.33,1.73,11.53,4.75,15.6,7.91c1.72,1.88,3.09,3.96,4.09,6.15l-10.15,5l0.05,0.27
	c1.43,8.33-4.48,11.68-4.73,11.81c-9.5,5.11-15.53-2.81-15.78-3.15L423.7,445.94z M420.59,441.52c1.51,0,3.1-0.52,4.56-1.47
	c1.46-0.95,2.79-2.33,3.79-4.07c2.7-4.68,2-10.15-1.55-12.19c-1.73-1.01-3.88-1.05-6.03-0.13c-2.12,0.9-4,2.64-5.3,4.88
	c-2.7,4.68-2,10.15,1.55,12.2C418.52,441.27,419.54,441.52,420.59,441.52z M648.76,425.54l1.28,1.05l-0.7-1.5
	c-3.77-8.01-10.59-14.63-15.65-18.77c-2.79-2.29-6.09-3.8-9.53-4.36c-22.58-3.68-49.67-1-60.27,0.32c-3.21,0.4-6.28,1.53-8.88,3.29
	c-7.56,5.09-15.19,12.34-15.27,12.41l-0.89,0.85l1.21-0.21C621.63,404.33,648.5,425.33,648.76,425.54z"/>
<path id="CODE_x5F_6D4C2D" class="st7" d="M637.43,475.16l0.84,0.4l-0.34,0.86c-0.09,0.25-2.44,6.08-11.66,6.91l-0.36,0.03
	l-0.29-0.2c-0.26-0.17-26.02-17.06-75.42-15.95l-4.7,0.11l4.25-2.01C550.09,465.15,584.21,449.6,637.43,475.16z M501.76,532.14
	c2.08,0.84,4.68,1.5,7.7,1.5c4.37,0,9.64-1.38,15.54-5.58c0.59-0.42,0.73-1.23,0.31-1.81c-0.42-0.59-1.23-0.72-1.81-0.31
	c-7.25,5.16-14.23,6.44-20.76,3.79c-6.28-2.54-12.39-3.5-18.18-2.86c-10.98,1.21-18.32-5.88-18.4-5.95
	c-0.51-0.51-1.33-0.5-1.83,0.01c-0.51,0.51-0.51,1.33,0,1.84c0.34,0.32,8.27,8.04,20.52,6.68
	C490.2,528.86,495.89,529.76,501.76,532.14z M461.2,437.63c-0.05-0.08-1.66-2.7-4.8-6.05c0.08,0.18,0.16,0.37,0.23,0.56
	c2.85,6.75,2.54,14.47-1.14,21.37c-2.99,5.63-8,10.03-14.01,12.17c-1.5,0.54-3.04,0.93-4.57,1.19c-2.22,1.1-4.6,1.9-7.03,2.45
	c-3.53,0.81-7.22,0.96-10.86,0.51c-1.81-0.27-3.6-0.68-5.34-1.25c-1.73-0.61-3.41-1.34-4.98-2.25c-3.15-1.84-5.91-4.25-8.05-7.09
	c2.9,2.06,5.85,3.88,8.97,5.28c3.13,1.35,6.39,2.3,9.75,2.74c3.35,0.46,6.76,0.43,10.18,0.07c0.46-0.05,0.93-0.13,1.39-0.19
	c-5.77-0.4-11.35-2.74-15.92-6.96c-2.14-1.98-3.87-4.24-5.16-6.69c-4.11-7.73-3.94-17.27,0.77-25.2c3.54-5.96,8.77-9.94,14.86-11.53
	c-2.33-0.09-4.76-0.02-7.31,0.29c-0.23,0.02-20.06,1.97-26.3,18.13l0.04,14.63l-11.15-15.76c-0.22-0.31-0.41-0.64-0.58-0.97
	c-0.14-2.42-0.21-4.89-0.21-7.37c0.48-1.06,1.19-2.04,2.12-2.86c2.65-2.3,6.99-5.66,11.25-8.16c17.74-10.45,39.84-9.36,56.31,2.77
	c7.33,5.4,11.83,11.95,13.38,19.46l1.18,5.75L461.2,437.63z M454.8,432.96c-0.09-0.23-0.19-0.47-0.3-0.7
	c-1-2.19-2.37-4.27-4.09-6.15c-4.07-3.16-9.27-6.18-15.6-7.91c-9.23-1.22-17.59,2.91-22.46,11.11c-4.16,7.02-4.4,15.57-1,22.59
	c0.1,0.23,0.22,0.45,0.34,0.67c1.24,2.37,2.9,4.54,4.97,6.4c6.98,6.26,16.43,7.92,24.97,4.52c4.79-1.91,8.84-5.4,11.48-9.83
	C457.05,447.05,457.54,439.52,454.8,432.96z"/>
<path id="CODE_x5F_FFFFFF" class="st8" d="M463.92,728.12c-0.03-0.23-0.05-0.47-0.07-0.71
	C463.87,727.65,463.89,727.89,463.92,728.12z M467.76,736.04c-0.19-0.04-0.38-0.09-0.56-0.13
	C467.39,735.96,467.57,736,467.76,736.04z M466.92,735.85c-0.19-0.05-0.38-0.09-0.56-0.13
	C466.54,735.76,466.72,735.81,466.92,735.85z M472.04,631.58c-0.08,0.49-0.16,0.99-0.24,1.51c0.12-0.76,0.24-1.48,0.35-2.17
	C472.11,631.14,472.08,631.35,472.04,631.58z M463.7,725.84c0.02,0.26,0.04,0.51,0.06,0.76
	C463.74,726.35,463.72,726.09,463.7,725.84z M468.39,736.18c0.11,0.02,0.22,0.05,0.34,0.07
	C468.62,736.23,468.51,736.21,468.39,736.18z M463.58,724.15c0.02,0.29,0.04,0.58,0.06,0.87
	C463.62,724.74,463.6,724.44,463.58,724.15z M428.5,707.6C428.5,707.6,428.5,707.6,428.5,707.6c0.12-0.28,0.24-0.55,0.35-0.83
	C428.74,707.05,428.62,707.31,428.5,707.6z M466.2,735.68c-0.17-0.04-0.34-0.08-0.49-0.12C465.86,735.6,466.03,735.64,466.2,735.68z
	 M464.92,734.26c0.09,0.4,0.19,0.79,0.29,1.17C465.11,735.05,465.01,734.66,464.92,734.26z M429.37,705.55
	c-0.04,0.08-0.07,0.17-0.11,0.25c0.09-0.2,0.17-0.4,0.26-0.6C429.47,705.32,429.42,705.43,429.37,705.55z M464.65,733.03
	c0.05,0.24,0.1,0.48,0.15,0.71C464.75,733.5,464.7,733.27,464.65,733.03z M464.3,731.01c-0.03-0.22-0.07-0.44-0.1-0.66
	C464.23,730.58,464.27,730.8,464.3,731.01z M463.46,722.06c0.02,0.45,0.04,0.9,0.07,1.34C463.5,722.96,463.48,722.51,463.46,722.06z
	 M464.01,728.92c0.03,0.23,0.06,0.46,0.09,0.68C464.07,729.37,464.04,729.15,464.01,728.92z M574.75,723.85
	c-0.07-1.19-0.13-2.37-0.19-3.53C574.62,721.48,574.68,722.65,574.75,723.85z M575.39,731.92c0.02,0.24,0.05,0.48,0.07,0.73
	C575.44,732.41,575.42,732.16,575.39,731.92z M463.45,707.44c-0.01,0.47-0.02,0.92-0.04,1.39
	C463.43,708.37,463.44,707.9,463.45,707.44C463.45,707.44,463.45,707.44,463.45,707.44z M473.04,625.56
	c-0.1,0.62-0.22,1.33-0.35,2.09c0.13-0.77,0.25-1.48,0.36-2.1L473.04,625.56z M574.97,727.04c0.01,0.15,0.02,0.29,0.03,0.44
	C574.99,727.33,574.98,727.19,574.97,727.04z M558.03,744.99c1.28,0.18,2.54,0.38,3.79,0.59
	C560.57,745.37,559.3,745.17,558.03,744.99z M476.34,737.54L476.34,737.54c-0.01,0-0.02,0-0.03,0
	C476.32,737.54,476.33,737.54,476.34,737.54z M463.45,721.73c-0.03-0.59-0.05-1.18-0.06-1.79
	C463.4,720.54,463.42,721.14,463.45,721.73z M463.35,711.18c-0.03,1.65-0.04,3.26-0.03,4.83c-0.01-1.82,0.01-3.69,0.06-5.61
	C463.37,710.65,463.35,710.92,463.35,711.18z M463.38,719.76c-0.02-0.56-0.03-1.12-0.04-1.69
	C463.35,718.65,463.36,719.21,463.38,719.76z M549.05,743.94c1.55,0.15,3.12,0.31,4.69,0.5
	C552.17,744.25,550.61,744.08,549.05,743.94L549.05,743.94z M557.57,744.93c-1.23-0.17-2.47-0.33-3.71-0.48
	C555.1,744.6,556.34,744.76,557.57,744.93z M463.33,717.87c-0.01-0.57-0.02-1.14-0.02-1.73
	C463.32,716.72,463.33,717.3,463.33,717.87z M464.41,731.72c0.04,0.22,0.08,0.44,0.12,0.66
	C464.49,732.17,464.45,731.95,464.41,731.72z M407.74,927.23c-0.06,0.02-0.12,0.03-0.18,0.05
	C407.61,927.27,407.68,927.25,407.74,927.23z M407.95,927.18c0.09-0.02,0.2-0.05,0.31-0.08
	C408.15,927.13,408.04,927.15,407.95,927.18z M429.52,938.71c-0.03,0-0.06,0-0.09,0C429.46,938.71,429.49,938.71,429.52,938.71z
	 M434.97,928.02c-0.01,0-0.01,0-0.02-0.01C434.95,928.02,434.96,928.02,434.97,928.02C434.97,928.02,434.97,928.02,434.97,928.02z
	 M410.2,926.68c-0.2,0.04-0.4,0.08-0.58,0.11C409.81,926.75,410,926.71,410.2,926.68z M433.02,927.53
	c-0.12-0.03-0.23-0.05-0.35-0.08c0.23,0.05,0.46,0.11,0.69,0.16C433.24,927.59,433.13,927.56,433.02,927.53z M410.35,926.65
	c0.21-0.04,0.43-0.08,0.66-0.12C410.78,926.57,410.56,926.61,410.35,926.65z M408.98,926.93c0.16-0.04,0.32-0.07,0.5-0.11
	C409.3,926.86,409.14,926.89,408.98,926.93z M408.82,926.96c-0.14,0.03-0.28,0.06-0.41,0.1C408.54,927.03,408.68,927,408.82,926.96z
	 M411.16,926.51c0.23-0.04,0.47-0.07,0.72-0.11C411.63,926.43,411.39,926.47,411.16,926.51z M431.1,927.11
	c-0.24-0.05-0.47-0.09-0.71-0.14C430.63,927.02,430.86,927.06,431.1,927.11z M470.75,752.52c-2.42-0.41-4.65-1.2-6.62-2.33
	c-1.04-0.6-1.94-1.25-2.75-1.97c-1.52-1.36-2.4-3.32-2.42-5.38c-0.01-1.94,0.73-3.81,2.06-5.2c-0.99,0.02-2.12,0.11-3.24,0.35
	c-1.78,0.39-3.18,1.58-3.85,3.27c-0.67,1.7-0.45,3.63,0.61,5.16C456.39,749.11,461.32,754.34,470.75,752.52z M479.07,586.17
	c0.06-0.69,0.12-1.36,0.19-2.02c0.27-2.6,0.57-5.01,0.86-7.08C479.75,579.66,479.37,582.79,479.07,586.17
	C479.06,586.17,479.07,586.17,479.07,586.17z M481.03,571.19c-2.03-0.55-4.02-1.11-6-1.68c0.26,0.07,0.52,0.15,0.78,0.22
	C477.53,570.23,479.27,570.71,481.03,571.19z M423.22,926.03C423.22,926.03,423.22,926.03,423.22,926.03
	c0.09,0.01,0.18,0.02,0.26,0.02C423.4,926.05,423.31,926.04,423.22,926.03z M446.26,640.41c0.01,0.05,0.03,0.1,0.04,0.15
	C446.29,640.51,446.27,640.47,446.26,640.41z M429.22,926.76c-0.27-0.05-0.53-0.09-0.79-0.13
	C428.69,926.67,428.95,926.71,429.22,926.76z M427.44,926.48c-0.33-0.05-0.65-0.09-0.97-0.13
	C426.79,926.39,427.11,926.44,427.44,926.48z M425.22,926.2c-0.16-0.02-0.3-0.02-0.46-0.04c0.36,0.03,0.72,0.07,1.08,0.11
	C425.63,926.25,425.42,926.22,425.22,926.2z M584.79,943.37c-0.62-0.01-1.22,0-1.83,0.02C583.57,943.37,584.18,943.37,584.79,943.37
	C584.79,943.37,584.79,943.37,584.79,943.37z M582.53,943.39c-1.16,0.03-2.29,0.1-3.42,0.2c1.15-0.09,2.32-0.16,3.51-0.2
	C582.59,943.39,582.56,943.39,582.53,943.39z M571.29,954.93C571.29,954.93,571.3,954.93,571.29,954.93
	C571.3,954.93,571.29,954.93,571.29,954.93C571.29,954.93,571.29,954.93,571.29,954.93z M596.43,944.6c0,0,0.01,0.01,0.01,0.01
	c0.7,0.15,1.39,0.32,2.09,0.5C597.83,944.92,597.13,944.75,596.43,944.6z M599.63,945.41h-0.01c-0.1-0.03-0.21-0.06-0.31-0.09
	c0.33,0.09,0.67,0.2,1,0.3C600.08,945.56,599.86,945.47,599.63,945.41z M572.16,955.4c-0.06-0.03-0.12-0.06-0.18-0.09
	C572.03,955.34,572.09,955.37,572.16,955.4z M412.56,926.3c-0.17,0.02-0.33,0.05-0.49,0.07c0.23-0.03,0.47-0.06,0.71-0.09
	C412.71,926.28,412.63,926.29,412.56,926.3z M609.65,949.57c-0.85-0.48-1.7-0.92-2.55-1.33
	C607.95,948.65,608.8,949.09,609.65,949.57z M601.93,946.13c0.41,0.14,0.81,0.3,1.22,0.45
	C602.74,946.43,602.34,946.27,601.93,946.13z M604.51,947.1c0.49,0.2,0.97,0.42,1.46,0.64C605.49,947.52,605,947.3,604.51,947.1z
	 M454.06,936.2c-19.07,8.67-44.86,4.14-52.38,2.52c-0.12-0.02-0.21,0.02-0.26,0.06c-0.04,0.04-0.12,0.12-0.12,0.26v3.55
	c0,0.14,0.09,0.27,0.22,0.31c25.33,8.56,49.98-0.36,57.49-3.57c-0.1-0.06-0.2-0.12-0.3-0.18
	C457.14,938.08,455.59,937.11,454.06,936.2z M415.11,926.04c0.15-0.01,0.3-0.02,0.45-0.03c0,0,0.01-0.01,0.01-0.01
	C415.41,926.01,415.27,926.03,415.11,926.04z M414.61,926.08c-0.35,0.03-0.7,0.06-1.03,0.1
	C413.91,926.15,414.26,926.11,414.61,926.08z M606.76,958.42c-5.98,1.4-11.63,1.9-16.67,1.9c-7.63,0-13.86-1.15-17.71-2.1
	c-0.69-0.17-1.33-0.44-1.93-0.77c-0.03,1.36-0.04,3,0.01,4.18c3.66,1.19,19.65,5.74,37.72,1.23c0-1.29-0.07-3.21-0.36-4.78
	C607.48,958.22,607.12,958.34,606.76,958.42z M604.02,956.36h0.01c0.65-0.14,1.3-0.28,1.96-0.43c0.06-0.01,0.12-0.03,0.18-0.04
	c-0.72,0.17-1.44,0.31-2.16,0.46C604.02,956.35,604.02,956.36,604.02,956.36z M429.99,704.17c0.04-0.1,0.09-0.19,0.13-0.29
	C430.08,703.98,430.04,704.08,429.99,704.17z M577.65,956.66c0.1,0.02,0.21,0.03,0.32,0.05c-0.18-0.03-0.37-0.06-0.55-0.09
	C577.5,956.63,577.57,956.65,577.65,956.66z M579.62,956.97C579.62,956.97,579.62,956.97,579.62,956.97
	c-0.07-0.01-0.14-0.02-0.22-0.03C579.48,956.95,579.55,956.96,579.62,956.97z M576.22,956.39c0.12,0.02,0.24,0.05,0.37,0.07
	C576.47,956.44,576.34,956.42,576.22,956.39z M443.76,640.27c-0.01,0.02-0.08,0.26-0.21,0.68
	C443.68,640.54,443.75,640.29,443.76,640.27z M465.4,658.32c0.11-0.82,0.22-1.63,0.33-2.44c1.14-8.32,2.29-15.81,3.24-21.68
	c0.12-0.77,0.24-1.52,0.36-2.23c0,0,0,0,0,0C468.23,638.64,466.79,647.92,465.4,658.32C465.4,658.32,465.4,658.32,465.4,658.32z
	 M435.29,692.25c0.26-0.85,0.49-1.7,0.69-2.57C435.77,690.54,435.54,691.4,435.29,692.25z M461.14,726.38
	c0.07,0.76,0.14,1.5,0.22,2.22C461.28,727.88,461.21,727.14,461.14,726.38z M444.5,639.48c-0.06,0.02-0.11,0.05-0.16,0.08
	C444.39,639.53,444.45,639.51,444.5,639.48z M461.67,730.94c-0.1-0.7-0.2-1.42-0.28-2.16C461.47,729.53,461.56,730.25,461.67,730.94
	z M446.04,641.7C446.04,641.7,446.04,641.7,446.04,641.7c0.12-0.4,0.19-0.62,0.2-0.64C446.23,641.08,446.16,641.3,446.04,641.7z
	 M438.27,674.22c0,0.03-0.01,0.05-0.01,0.08c0.01-0.08,0.03-0.16,0.04-0.24C438.29,674.11,438.28,674.17,438.27,674.22z
	 M445.72,639.61c0.05,0.04,0.11,0.07,0.16,0.11C445.83,639.68,445.78,639.65,445.72,639.61z M437.6,678.61
	c-0.03,0.19-0.05,0.38-0.08,0.57C437.55,678.99,437.58,678.8,437.6,678.61z M461.98,732.85c-0.11-0.57-0.2-1.16-0.3-1.77
	C461.78,731.69,461.88,732.28,461.98,732.85z M446.17,640.1c-0.03-0.05-0.06-0.09-0.1-0.14C446.1,640.01,446.14,640.05,446.17,640.1
	z M436.65,686.25c0.14-0.9,0.27-1.8,0.36-2.72C436.92,684.45,436.8,685.35,436.65,686.25z M436.11,689.07
	c0.16-0.69,0.29-1.39,0.42-2.1C436.41,687.67,436.27,688.37,436.11,689.07z M432.11,699.93c0.39-0.73,0.76-1.48,1.1-2.23
	C432.87,698.45,432.5,699.2,432.11,699.93z M444.93,639.38c-0.05,0-0.1,0.01-0.15,0.02C444.83,639.39,444.88,639.38,444.93,639.38z
	 M430.73,702.63c0.02-0.04,0.03-0.07,0.05-0.11C430.76,702.56,430.75,702.59,430.73,702.63z M431.45,701.18
	c-0.01,0.01-0.01,0.03-0.02,0.04C431.44,701.21,431.44,701.2,431.45,701.18z M462.44,735.05c-0.13-0.57-0.26-1.16-0.38-1.77
	C462.18,733.89,462.31,734.48,462.44,735.05z M444.14,639.72c-0.05,0.04-0.1,0.08-0.14,0.13c-0.11,0.12-0.19,0.26-0.24,0.42
	C443.83,640.04,443.98,639.87,444.14,639.72z M433.42,697.22c0.26-0.58,0.5-1.16,0.74-1.75
	C433.93,696.06,433.68,696.64,433.42,697.22z M461.14,726.3c-0.28-3.27-0.41-6.87-0.43-10.71c-0.01-1.28,0-2.59,0.03-3.93
	l-0.01,0.01C460.65,717,460.77,721.95,461.14,726.3z M454.87,734.72c0.88,0.22,1.77,0.44,2.67,0.67
	C456.63,735.16,455.75,734.94,454.87,734.72z M435.15,692.65c-0.22,0.71-0.47,1.41-0.73,2.11
	C434.69,694.07,434.93,693.37,435.15,692.65z M419.37,467.26c3.35,0.46,6.76,0.43,10.18,0.07c0.46-0.05,0.93-0.13,1.39-0.19
	c-5.77-0.4-11.35-2.74-15.92-6.96c-2.14-1.98-3.87-4.24-5.16-6.69c-4.11-7.73-3.94-17.27,0.77-25.2c3.54-5.96,8.77-9.94,14.86-11.53
	c-2.33-0.09-4.76-0.02-7.31,0.29c-0.23,0.02-20.06,1.97-26.3,18.13l0.04,14.63c0,0,2.97,5.61,8.73,9.43
	c2.9,2.06,5.85,3.88,8.97,5.28C412.75,465.87,416.01,466.82,419.37,467.26z M428.94,435.98c2.7-4.68,2-10.15-1.55-12.19
	c-1.73-1.01-3.88-1.05-6.03-0.13c-2.12,0.9-4,2.64-5.3,4.88c-2.7,4.68-2,10.15,1.55,12.2c0.91,0.53,1.93,0.78,2.98,0.78
	c1.51,0,3.1-0.52,4.56-1.47C426.61,439.1,427.94,437.72,428.94,435.98z M568.55,624.66c1.2-1.98,1.18-4.42-0.06-6.37l-3.01-4.73
	c-0.44-0.69-0.6-1.51-0.44-2.32l1.48-7.69c0.4-2.07-0.43-4.1-2.16-5.31c-1.73-1.2-3.92-1.27-5.72-0.18l-3.88,2.35
	c-0.32,0.2-0.73,0.19-1.04-0.02l-5.12-3.49c-1.2-0.82-2.73-0.88-4-0.17c-1.27,0.71-2.01,2.05-1.94,3.5l0.4,8.49
	c0.04,0.74-0.26,1.44-0.82,1.93l-4.01,3.51c-1.82,1.59-2.57,4.04-1.95,6.38c0.62,2.35,2.48,4.1,4.85,4.59l3.65,0.74
	c0.82,0.17,1.47,0.73,1.76,1.51l2.05,5.58c0.7,1.91,2.45,3.13,4.48,3.14c0,0,0,0,0.01,0c2.02,0,3.78-1.23,4.48-3.12l2.11-5.73
	l3.19,0.28C565.16,627.74,567.35,626.64,568.55,624.66z M575.52,667.37l0.53-1.67c0.23-0.69,0.03-1.43-0.52-1.98
	c-0.62-0.6-1.53-0.82-2.32-0.55l-0.83,0.29l-1.09-0.87c-0.55-0.43-1.29-0.52-1.9-0.24c-0.55,0.25-0.89,0.77-0.91,1.36l-0.06,1.73
	l-0.96,0.53c-0.73,0.4-1.13,1.15-1.07,1.96c0.08,0.91,0.74,1.71,1.68,2.04l0.92,0.27l0.42,1.34c0.24,0.77,0.95,1.33,1.8,1.41
	c0.07,0.01,0.15,0.02,0.22,0.02c0.7,0,1.32-0.35,1.65-0.94l0.38-0.68l0.28,0.07c0.91,0.23,1.85-0.08,2.37-0.77
	c0.48-0.65,0.52-1.5,0.1-2.23L575.52,667.37z M593.22,592.56l-0.81-0.34l-0.23-1.37c-0.12-0.69-0.61-1.26-1.25-1.45
	c-0.57-0.18-1.18-0.03-1.59,0.4l-1.2,1.25l-1.07-0.25c-0.8-0.18-1.61,0.11-2.1,0.75c-0.55,0.73-0.59,1.77-0.11,2.64l0.5,0.81
	l-0.58,1.28c-0.34,0.74-0.18,1.62,0.39,2.26c0.54,0.59,1.31,0.8,2.01,0.56l0.73-0.25l0.17,0.23c0.45,0.67,1.16,1.05,1.89,1.05
	c0.13,0,0.26-0.01,0.39-0.04c0.79-0.16,1.39-0.76,1.56-1.59l0.22-1.28l1.51-0.88c0.63-0.36,0.98-1.05,0.93-1.82
	C594.52,593.66,593.99,592.89,593.22,592.56z M542.69,683.44l-5.3-0.56c-0.74-0.07-1.39-0.48-1.79-1.1l-4.56-7.17
	c-0.78-1.23-2.16-1.9-3.6-1.74c-1.45,0.15-2.66,1.09-3.17,2.45l-2.17,5.79c-0.14,0.35-0.47,0.6-0.84,0.63l-4.52,0.31
	c-2.11,0.14-3.86,1.46-4.58,3.45c-0.72,1.98-0.22,4.12,1.3,5.58l5.64,5.43c0.59,0.56,0.94,1.33,0.98,2.15l0.27,5.59
	c0.11,2.31,1.5,4.32,3.62,5.25c2.12,0.92,4.54,0.56,6.3-0.94l2.44-2.07l5.04,3.46c0.82,0.57,1.76,0.85,2.7,0.85
	c0.96,0,1.93-0.29,2.76-0.88c1.65-1.17,2.38-3.19,1.86-5.14l-1.55-5.75c-0.21-0.8,0-1.64,0.57-2.25l2.55-2.71
	c1.66-1.76,2.17-4.27,1.32-6.54C547.12,685.25,545.1,683.69,542.69,683.44z M509.14,654l-0.87,0.13l-0.91-1.06
	c-0.45-0.53-1.17-0.76-1.82-0.6c-0.58,0.15-1.02,0.59-1.15,1.17l-0.38,1.69l-1.04,0.34c-0.79,0.26-1.33,0.92-1.42,1.73
	c-0.09,0.91,0.41,1.82,1.27,2.31l0.85,0.44l0.16,1.4c0.09,0.8,0.68,1.48,1.5,1.72c0.21,0.06,0.41,0.09,0.61,0.09
	c0.55,0,1.06-0.22,1.4-0.64l0.5-0.6l0.26,0.12c0.86,0.39,1.84,0.27,2.48-0.32c0.6-0.54,0.8-1.37,0.52-2.17l-0.44-1.26l0.8-1.47
	c0.35-0.64,0.3-1.41-0.15-2.05C510.82,654.26,509.96,653.89,509.14,654z M438.31,721.9l-0.56-1.23l0.68-1.53
	c0.29-0.67,0.16-1.43-0.34-2.03c-0.55-0.66-1.44-0.96-2.25-0.77l-0.85,0.2l-1-0.97c-0.5-0.48-1.23-0.65-1.87-0.43
	c-0.56,0.2-0.96,0.68-1.04,1.26l-0.23,1.72l-1,0.43c-0.77,0.33-1.25,1.04-1.26,1.85c-0.01,0.92,0.56,1.78,1.47,2.19l0.88,0.36
	l0.29,1.38c0.16,0.79,0.81,1.41,1.65,1.59c0.14,0.02,0.29,0.04,0.43,0.04c0.62,0,1.18-0.28,1.52-0.78l0.45-0.64l0.27,0.1
	c0.89,0.31,1.85,0.1,2.44-0.54C438.53,723.51,438.65,722.66,438.31,721.9z M538.34,726.07l-0.76-0.44l-0.07-1.39
	c-0.03-0.69-0.45-1.32-1.07-1.59c-0.54-0.24-1.17-0.16-1.62,0.21l-1.34,1.1l-1.03-0.37c-0.78-0.28-1.62-0.09-2.18,0.5
	c-0.63,0.66-0.8,1.68-0.42,2.6l0.4,0.87l-0.73,1.2c-0.42,0.69-0.37,1.59,0.12,2.29c0.47,0.65,1.2,0.95,1.93,0.79l0.76-0.16
	l0.13,0.25c0.42,0.79,1.19,1.28,2,1.28c0.05,0,0.1,0,0.15,0c0.81-0.07,1.47-0.6,1.74-1.4l0.43-1.27l1.54-0.67
	c0.67-0.29,1.1-0.92,1.14-1.7C539.51,727.31,539.07,726.48,538.34,726.07z M457.3,715.61l-5.3,0.08c-2.29,0.03-4.13,1.23-4.94,3.19
	c-0.92,2.25-0.24,4.98,1.71,6.96l2.83,2.86c0.66,0.67,0.98,1.55,0.84,2.31l-0.55,2.96c0.64,0.17,1.28,0.33,1.94,0.49
	c0.34,0.08,0.7,0.18,1.04,0.26c0.88,0.22,1.77,0.44,2.67,0.67c1.82-0.36,3.61-0.39,4.9-0.34c-0.13-0.57-0.26-1.16-0.38-1.77
	c-0.03-0.14-0.05-0.28-0.08-0.43c-0.11-0.57-0.2-1.16-0.3-1.77c-0.01-0.05-0.01-0.09-0.02-0.14c-0.1-0.7-0.2-1.42-0.28-2.16
	c-0.01-0.06-0.01-0.13-0.02-0.19c-0.08-0.72-0.15-1.46-0.22-2.22c0-0.03,0-0.05-0.01-0.08c-0.37-4.36-0.49-9.31-0.4-14.63
	l-1.87,3.12C458.56,715.3,457.99,715.6,457.3,715.61z M463.41,632.44c-2.13,0.08-3.86,1.27-4.62,3.18
	c-0.92,2.28-0.26,5.03,1.66,7.01l2.72,2.81c0.63,0.65,0.95,1.53,0.82,2.3l-0.89,5.49c-0.32,1.91,0.58,3.88,2.3,5.09
	c1.39-10.4,2.84-19.68,3.93-26.35c-0.25,0.17-0.56,0.26-0.9,0.28L463.41,632.44z M448.18,660.05c0.33,0.9,1.1,1.5,1.97,1.55
	c0.03,0,0.07,0,0.1,0c0.77,0,1.45-0.44,1.81-1.16l0.59-1.2l1.61-0.46c0.7-0.2,1.21-0.78,1.35-1.54c0.16-0.85-0.17-1.73-0.84-2.24
	l-0.69-0.53l0.11-1.38c0.06-0.7-0.28-1.37-0.85-1.72c-0.51-0.31-1.14-0.31-1.64,0l-1.47,0.92l-0.97-0.51
	c-0.74-0.38-1.6-0.3-2.23,0.21c-0.71,0.57-1.01,1.56-0.76,2.53l0.29,0.91l-0.88,1.09c-0.51,0.64-0.58,1.53-0.18,2.29
	c0.38,0.7,1.07,1.11,1.81,1.04l0.77-0.07L448.18,660.05z M451.7,642.84c1.92-0.83,3.08-2.64,3.04-4.73l-0.12-6.3
	c-0.02-0.74,0.17-1.47,0.55-2.11l4.62-7.8c0.79-1.33,0.55-2.92-0.58-3.96c-1.14-1.04-2.74-1.14-4-0.25l-4.22,3.01
	c-0.94-1.36-2.47-2.19-4.2-2.22c-2.15,0-4.05,1.18-4.9,3.18l-3.03,7.07c0,0,0,0,0,0.01c-0.3,0.71-0.73,1.35-1.27,1.9l-5.12,3.86
	c-1.45,1.09-2.3,2.77-2.33,4.59c-0.04,1.83,0.76,3.53,2.18,4.68c0.64,0.52,0.97,1.33,0.87,2.16l-0.62,5.05
	c-0.17,1.44,0.63,2.72,2.01,3.19c0.33,0.11,0.67,0.16,1,0.16c1.02,0,1.97-0.53,2.53-1.47l3.88-6.57c0.72-2.56,1.28-4.41,1.56-5.34
	c0.13-0.42,0.2-0.66,0.21-0.68c0.07-0.23,0.22-0.4,0.38-0.55c0.06-0.06,0.12-0.11,0.19-0.15c0.05-0.03,0.11-0.06,0.16-0.08
	c0.09-0.04,0.18-0.06,0.28-0.08c0.05-0.01,0.1-0.02,0.15-0.02c0.15-0.01,0.31,0,0.46,0.05c0.06,0.02,0.11,0.04,0.16,0.06
	c0.07,0.03,0.11,0.08,0.17,0.12c0.05,0.04,0.11,0.07,0.16,0.11c0.08,0.07,0.13,0.15,0.19,0.24c0.03,0.05,0.07,0.09,0.1,0.14
	c0.05,0.1,0.07,0.2,0.09,0.31c0.01,0.05,0.03,0.1,0.04,0.15c0.01,0.16,0,0.33-0.05,0.49c-0.01,0.02-0.08,0.24-0.2,0.64
	c0.05,0.02,0.09,0.06,0.13,0.1C447.66,643.27,449.78,643.66,451.7,642.84z M433.56,709.05c1.89-0.53,3.26-2.07,3.58-4.01l1.13-6.87
	c0.35-2.15,1.62-4.06,3.46-5.22l2.64-1.67c2.14-1.35,3.43-3.67,3.45-6.2c0.02-2.53-1.23-4.87-3.34-6.26l-1.35-0.88
	c-1.42-0.93-2.44-2.35-2.86-4l-1.15-4.44c-0.29,1.51-0.57,3.03-0.82,4.56c-0.01,0.08-0.03,0.16-0.04,0.24
	c-0.24,1.44-0.46,2.88-0.66,4.31c-0.03,0.19-0.05,0.38-0.08,0.57c-0.2,1.46-0.37,2.92-0.52,4.35c-0.09,0.92-0.21,1.82-0.36,2.72
	c-0.04,0.24-0.08,0.48-0.12,0.72c-0.12,0.71-0.26,1.41-0.42,2.1c-0.05,0.2-0.09,0.41-0.13,0.61c-0.21,0.87-0.44,1.73-0.69,2.57
	c-0.04,0.14-0.09,0.27-0.13,0.41c-0.22,0.71-0.47,1.41-0.73,2.11c-0.04,0.11-0.08,0.23-0.12,0.35c-0.05,0.12-0.1,0.24-0.15,0.36
	c-0.23,0.59-0.48,1.17-0.74,1.75c-0.07,0.16-0.14,0.32-0.21,0.47c-0.35,0.76-0.71,1.5-1.1,2.23c-0.22,0.4-0.44,0.82-0.66,1.25
	c-0.01,0.01-0.01,0.03-0.02,0.04c-0.21,0.42-0.43,0.85-0.65,1.29c-0.02,0.03-0.03,0.07-0.05,0.11c-0.2,0.41-0.4,0.83-0.6,1.26
	c-0.04,0.09-0.09,0.19-0.13,0.29c-0.16,0.34-0.31,0.68-0.47,1.03c-0.09,0.2-0.18,0.39-0.26,0.6c-0.14,0.31-0.27,0.64-0.41,0.97
	c-0.12,0.28-0.23,0.55-0.35,0.84c0.97,1.07,2.29,1.63,3.67,1.63C432.63,709.24,433.1,709.18,433.56,709.05z M471.84,576.53
	c-0.31,1.13-1.21,5.16,0.98,7.7c1.15,1.33,2.9,1.99,5.21,1.99c0.34,0,0.67-0.01,1.03-0.05c0.31-3.38,0.69-6.51,1.05-9.1
	c0.36-2.61,0.7-4.67,0.91-5.88c-2.03-0.55-4.02-1.11-6-1.68c-0.46-0.13-0.92-0.25-1.37-0.39
	C472.42,570.64,471.01,573.22,471.84,576.53z M568.56,733.85c-1.09,2.57-3.23,4.56-5.88,5.46l-13.63,4.63
	c1.55,0.15,3.12,0.31,4.69,0.5c0.02,0,0.03,0,0.04,0c0.03,0,0.05,0.01,0.08,0.01c1.24,0.15,2.48,0.31,3.71,0.48
	c0.15,0.02,0.3,0.04,0.46,0.06c1.28,0.18,2.54,0.38,3.79,0.59c0.07-0.02,0.13-0.05,0.2-0.06c0.16-0.03,3.78-0.51,6.48,0.69
	c2.25-0.13,4.26-1.11,5.67-2.78c1.43-1.68,2.07-3.86,1.8-6.14c-0.19-1.57-0.35-3.11-0.51-4.64c-0.02-0.24-0.05-0.49-0.07-0.73
	c-0.15-1.5-0.28-2.98-0.39-4.44c-0.01-0.15-0.02-0.29-0.03-0.44c-0.07-0.91-0.13-1.81-0.19-2.7c-0.01-0.17-0.02-0.33-0.03-0.49
	c-0.07-1.19-0.13-2.37-0.19-3.53c-0.01-0.17-0.02-0.35-0.03-0.51L568.56,733.85z M474.4,676.37l-1.73,0.08l-0.61-0.91
	c-0.46-0.69-1.24-1.04-2.04-0.91c-0.9,0.15-1.65,0.87-1.9,1.84l-0.19,0.93l-1.31,0.53c-0.46,0.18-0.82,0.53-1.03,0.98
	c-0.06,0.51-0.11,1.02-0.16,1.53c0,0.01,0,0.01,0,0.01c0.15,0.53,0.51,0.95,1,1.18l0.7,0.32l-0.04,0.28
	c-0.15,0.94,0.23,1.84,0.96,2.31c0.32,0.2,0.68,0.3,1.04,0.3c0.41,0,0.82-0.13,1.19-0.38l1.11-0.76l1.63,0.38
	c0.71,0.17,1.43-0.08,1.93-0.68c0.55-0.66,0.69-1.59,0.36-2.36l-0.35-0.8l0.77-1.16c0.39-0.57,0.43-1.32,0.1-1.91
	C475.53,676.65,475,676.35,474.4,676.37z M506.18,626.81l0.76,0.17l0.02,0.28c0.05,0.95,0.62,1.75,1.44,2.05
	c0.21,0.08,0.44,0.11,0.66,0.11c0.55,0,1.09-0.23,1.49-0.67l0.92-0.98l1.68,0.03c0.72,0,1.38-0.4,1.74-1.09
	c0.39-0.76,0.33-1.7-0.16-2.38l-0.52-0.71l0.51-1.29c0.26-0.65,0.13-1.39-0.32-1.89c-0.4-0.45-0.99-0.63-1.56-0.47l-1.67,0.45
	l-0.79-0.76c-0.6-0.58-1.44-0.76-2.19-0.45c-0.85,0.34-1.42,1.2-1.46,2.2l0.01,0.95l-1.16,0.8c-0.67,0.46-0.99,1.3-0.83,2.13
	C504.91,626.08,505.46,626.66,506.18,626.81z M467.94,659.27c0.95,0.07,1.88-0.16,2.66-0.69l4.4-2.99l2.57,2.19
	c1.25,1.07,2.76,1.63,4.21,1.63c0.81,0,1.6-0.18,2.32-0.53c1.81-0.9,2.81-2.72,2.69-4.87l-0.31-5.43c-0.05-0.76,0.19-1.43,0.65-1.9
	l4.86-4.92c1.22-1.24,1.58-3.07,0.96-4.9c-0.74-2.18-2.63-3.78-4.82-4.08l-4.35-0.59c-0.41-0.06-0.81-0.37-1-0.78l-2.66-5.78
	c-0.69-1.49-2.13-2.48-3.68-2.53c-1.26-0.03-2.36,0.57-2.94,1.63l-0.45,0.81c-0.11,0.63-0.23,1.33-0.36,2.1
	c-0.16,0.98-0.35,2.08-0.54,3.28c-0.11,0.69-0.23,1.41-0.35,2.17c-1.01,6.27-2.31,14.72-3.59,24.18
	C468.11,657.93,468.02,658.6,467.94,659.27z M476.78,730.49l5.2-4.8c1.27-1.17,1.7-2.95,1.14-4.75c-0.68-2.24-2.71-3.98-5.03-4.34
	l-4.6-0.7c-0.45-0.07-0.89-0.4-1.09-0.82l-2.73-5.84c-0.7-1.5-2.19-2.51-3.8-2.59c-0.93-0.06-1.77,0.23-2.41,0.79
	c-0.02,0.47-0.03,0.93-0.04,1.39c-0.02,0.52-0.03,1.05-0.04,1.56c-0.04,1.92-0.06,3.8-0.06,5.61c0,0.04,0,0.09,0,0.13
	c0,0.58,0.01,1.16,0.02,1.73c0,0.07,0,0.14,0,0.21c0.01,0.57,0.02,1.13,0.04,1.69c0,0.06,0,0.12,0,0.17c0.02,0.6,0.04,1.2,0.06,1.79
	c0,0.11,0.01,0.22,0.02,0.34c0.02,0.45,0.04,0.9,0.07,1.34c0.01,0.26,0.03,0.5,0.05,0.76c0.02,0.29,0.04,0.58,0.06,0.87
	c0.02,0.28,0.04,0.54,0.06,0.81c0.02,0.26,0.04,0.51,0.06,0.76c0.02,0.27,0.05,0.54,0.08,0.81c0.02,0.24,0.05,0.48,0.07,0.71
	c0.03,0.27,0.06,0.53,0.09,0.79c0.03,0.23,0.06,0.46,0.09,0.68c0.03,0.25,0.07,0.51,0.1,0.75c0.03,0.22,0.07,0.44,0.1,0.66
	c0.04,0.24,0.07,0.48,0.11,0.71c0.04,0.22,0.08,0.44,0.12,0.66c0.04,0.22,0.08,0.43,0.12,0.64c0.05,0.24,0.1,0.48,0.15,0.71
	c0.04,0.18,0.07,0.35,0.11,0.53c0.09,0.4,0.19,0.79,0.29,1.17c0.14,0.04,0.32,0.08,0.5,0.13c0.15,0.04,0.31,0.08,0.49,0.12
	c0.05,0.01,0.11,0.03,0.17,0.04c0.17,0.04,0.36,0.09,0.56,0.13c0.09,0.02,0.19,0.04,0.28,0.07c0.18,0.04,0.36,0.08,0.56,0.13
	c0.2,0.05,0.42,0.09,0.63,0.14c0.11,0.02,0.22,0.05,0.34,0.07c1.56,0.33,3.47,0.69,5.58,1c0.64,0.1,1.31,0.2,1.99,0.28
	c0.01,0,0.02,0,0.03,0l-0.28-5.19C476.03,731.61,476.28,730.95,476.78,730.49z M609.65,949.57c-0.85-0.48-1.7-0.92-2.55-1.33
	c-0.37-0.18-0.75-0.33-1.12-0.5c-0.49-0.22-0.97-0.44-1.46-0.64c-0.45-0.18-0.91-0.35-1.36-0.52c-0.41-0.15-0.81-0.31-1.22-0.45
	c-0.54-0.18-1.08-0.35-1.62-0.51c-0.33-0.1-0.67-0.21-1-0.3c-0.26-0.08-0.52-0.15-0.78-0.22c-0.7-0.18-1.39-0.35-2.09-0.5
	c1.6,1.95,6.04,7.58,7.57,11.73c0.71-0.14,1.43-0.29,2.16-0.46c1.35-0.31,2.51-1.19,3.18-2.4c0.65-1.17,0.78-2.49,0.37-3.73
	C609.7,949.7,609.67,949.64,609.65,949.57z M582.96,943.39c-0.11,0-0.23,0-0.34,0c-1.19,0.03-2.35,0.11-3.51,0.2
	c-0.56,0.04-1.12,0.09-1.66,0.14c-0.82,0.08-1.63,0.17-2.42,0.29h-0.01c-1.18,2.37-3,6.53-3.73,10.91c0,0,0.01,0,0.01,0.01
	c0.21,0.14,0.44,0.26,0.67,0.37c0.06,0.03,0.12,0.06,0.18,0.09c0.27,0.12,0.55,0.22,0.85,0.29c0.06,0.01,0.12,0.03,0.18,0.04
	c0.89,0.22,1.91,0.45,3.03,0.66c0.12,0.02,0.24,0.05,0.37,0.07c0.27,0.05,0.55,0.1,0.83,0.15c0.18,0.03,0.37,0.06,0.55,0.09
	c0.47,0.08,0.95,0.15,1.44,0.23c0.07,0.01,0.14,0.02,0.22,0.03c0.59-4.46,3.93-11.19,5.17-13.59
	C584.18,943.37,583.57,943.37,582.96,943.39z M414.61,926.08c-0.35,0.03-0.7,0.06-1.03,0.1c-0.27,0.03-0.55,0.06-0.8,0.09
	c-0.24,0.03-0.48,0.06-0.71,0.09c-0.06,0.01-0.13,0.02-0.19,0.03c-0.25,0.04-0.49,0.07-0.72,0.11c-0.05,0.01-0.1,0.02-0.15,0.03
	c-0.23,0.04-0.45,0.08-0.66,0.12c-0.05,0.01-0.1,0.02-0.15,0.03c-0.2,0.04-0.4,0.08-0.58,0.11c-0.05,0.01-0.09,0.02-0.14,0.03
	c-0.17,0.04-0.34,0.07-0.5,0.11c-0.05,0.01-0.1,0.02-0.16,0.04c-0.14,0.03-0.28,0.06-0.41,0.1c-0.06,0.01-0.11,0.03-0.16,0.04
	c-0.11,0.03-0.21,0.05-0.31,0.08c-0.08,0.02-0.14,0.04-0.21,0.06c-0.06,0.02-0.12,0.03-0.18,0.05c-0.11,0.03-0.22,0.06-0.3,0.09
	c-0.81,1.03-3.64,4.91-3.57,9.11c0.91,0.18,1.98,0.38,3.18,0.58c0.62,0.11,1.28,0.22,1.97,0.32c0.99-5.22,5.24-9.88,6.72-11.37
	c-0.15,0.01-0.3,0.02-0.45,0.03C414.94,926.05,414.78,926.07,414.61,926.08z M423.82,938.73c0.71,0.02,1.44,0.03,2.17,0.03
	c1.13,0,2.28-0.01,3.44-0.05c0.03,0,0.06,0,0.09,0c1.15-0.04,2.32-0.1,3.49-0.2c0.67-0.04,1.34-0.1,2.01-0.17
	c-1-4.51-0.46-8.41-0.05-10.32c-0.01,0-0.01,0-0.02-0.01c-0.54-0.15-1.07-0.28-1.6-0.4c-0.23-0.06-0.46-0.11-0.69-0.16
	c-0.53-0.12-1.05-0.24-1.56-0.34c-0.24-0.05-0.47-0.09-0.71-0.14c-0.39-0.08-0.79-0.15-1.18-0.22c-0.27-0.05-0.53-0.09-0.79-0.13
	c-0.33-0.05-0.66-0.1-0.99-0.15c-0.33-0.05-0.65-0.09-0.97-0.13c-0.21-0.03-0.42-0.05-0.63-0.08c-0.36-0.04-0.72-0.08-1.08-0.11
	c-0.43-0.04-0.86-0.08-1.28-0.11c-0.09-0.01-0.18-0.01-0.26-0.02C422.8,928.67,422.22,934.32,423.82,938.73z"/>
<path id="CODE_x5F_E32741" class="st9" d="M501.03,891.55c2.7,12.67,3.88,24.33,3.52,34.57c-0.22,6.05-3.59,11.31-9.02,14.06
	c-2.39,1.21-4.93,1.81-7.45,1.81c-2.01,0-3.99-0.38-5.88-1.13c-3.08,1.45-18.55,8.24-37.79,8.24c-3.2,0-6.51-0.2-9.89-0.64
	c14.24-1.72,24.93-6.43,27.43-7.6c1.89,0.75,3.87,1.13,5.88,1.13c2.52,0,5.06-0.6,7.45-1.81c5.43-2.75,8.8-8.01,9.02-14.06
	c0.36-10.24-0.82-21.9-3.52-34.57c-0.02-0.16-2.49-15.81-3.08-30.55c-0.31-7.68,0.71-15.28,3.03-22.59
	c2.16-6.83,5.31-15.96,8.44-22.16c1.73,1.48,3.58,3,5.57,4.55c3.3,2.58,6.45,5.25,9.47,8c-1.21,3.35-2.31,6.69-3.23,9.61
	c-2.32,7.31-3.34,14.91-3.03,22.59C498.54,875.74,501.01,891.39,501.03,891.55z M771.66,287.11c-3.55-28.87-14.51-50.55-32.59-64.43
	c-24.72-18.97-55.32-17.15-61.55-16.54c-0.84-3.17-1.86-6.42-3.09-9.72c-8.82-23.6-30.47-54.33-83.56-66.69
	c-0.18-0.04-16.73-3.73-40.17-2.41c12.18,0.69,19.8,2.38,19.92,2.41c53.09,12.36,74.74,43.09,83.56,66.69
	c1.23,3.3,2.25,6.55,3.09,9.72c6.23-0.61,36.83-2.43,61.55,16.54c18.08,13.88,29.04,35.56,32.59,64.43
	c7.08,11.48,8.65,26.69,4.61,45.33c-0.12,0.57-0.6,0.98-1.18,1.02c-0.57,0.04-1.11-0.3-1.31-0.85c-0.91-2.5-3.53-8.41-6.41-11.1
	c0.77,7.52,1.7,28.44-10.31,37.34c0.43,4.18,0.61,8.67,0.49,13.52c-0.09,2.04-2.44,47.79-24.06,64.24c1.58,0.34,3.09,0.9,4.44,1.73
	c3.68,2.28,5.68,6.24,5.95,11.76c1.61,32.64-41.34,52.29-47.38,54.88c0.24,1.97,0.29,3.58,0.14,4.78c-0.12,1.87-1.52,6.18-5.93,7.26
	c-0.64,0.15-1.3,0.23-1.96,0.23c-1.42,0-2.86-0.35-4.2-1.04c-0.13-0.07-0.27-0.15-0.41-0.22c0.39,0.6,0.56,1.33,0.47,2.1
	c-0.56,4.6-1.96,13.84-5.04,24.38c0.18,2.29,1.26,18.41-3.87,26.22c1.82,5.15,12.69,37.75,1.72,51.13
	c-0.28,0.38-4.46,5.6-15.05,7.35c-5.61,9.64-12.73,14.12-16.58,15.95c7.3,0.46,14.02,0.5,15.01,0.51c0.63,0.17,1.27,0.26,1.92,0.26
	c1.1,0,2.2-0.24,3.22-0.72c3.83-1.81,11.02-6.29,16.67-16c10.59-1.75,14.77-6.97,15.05-7.35c10.97-13.38,0.1-45.98-1.72-51.13
	c5.13-7.81,4.05-23.93,3.87-26.22c3.08-10.54,4.48-19.78,5.04-24.38c0.09-0.77-0.08-1.5-0.47-2.1c0.14,0.07,0.28,0.15,0.41,0.22
	c1.34,0.69,2.78,1.04,4.2,1.04c0.66,0,1.32-0.08,1.96-0.23c4.41-1.08,5.81-5.39,5.93-7.26c0.15-1.2,0.1-2.81-0.14-4.78
	c6.04-2.59,48.99-22.24,47.38-54.88c-0.27-5.52-2.27-9.48-5.95-11.76c-1.35-0.83-2.86-1.39-4.44-1.73
	c21.62-16.45,23.97-62.2,24.06-64.24c0.12-4.85-0.06-9.34-0.49-13.52c12.01-8.9,11.08-29.82,10.31-37.34
	c2.88,2.69,5.5,8.6,6.41,11.1c0.2,0.55,0.74,0.89,1.31,0.85c0.58-0.04,1.06-0.45,1.18-1.02
	C780.31,313.8,778.74,298.59,771.66,287.11z M588.99,760.56c0-0.07-0.03-0.12-0.03-0.18l0.84-11.66c2.6-0.36,4.92-1.62,6.6-3.6
	c1.91-2.25,2.76-5.14,2.4-8.14c-6.37-53.31,7.71-82.18,14.06-92.12c0.34-0.53,0.76-0.97,1.24-1.34c-4.56-0.13-10.86-0.41-16.42-1.05
	c-2.04-0.24-3.98,0.68-5.07,2.39c-6.35,9.94-20.43,38.81-14.06,92.12c0.36,3-0.49,5.89-2.4,8.14c-1.68,1.98-4,3.24-6.6,3.6
	l-0.84,11.66c0,0.06,0.03,0.11,0.03,0.18c-0.82,34.4,33.31,97.6,33.65,98.23c21.04,34.57,26.3,65.22,26.99,84.85
	c0.14,3.82-1.88,7.33-5.27,9.15c-1.48,0.8-3.09,1.19-4.69,1.19c-2.01,0-4-0.62-5.71-1.84c-0.38-0.27-0.77-0.52-1.16-0.78
	c-0.02,1.17-0.33,2.32-0.93,3.39c-0.39,0.7-0.88,1.33-1.46,1.87c0.76,2.92,0.61,7.1,0.61,7.3c-0.03,0.57-0.42,1.06-0.97,1.2
	c-2.75,0.74-5.45,1.26-8.07,1.63c3.03,0.41,6.47,0.7,10.24,0.7c5.49,0,11.65-0.61,18.08-2.33c0.55-0.14,0.94-0.63,0.97-1.2
	c0-0.2,0.15-4.38-0.61-7.3c0.58-0.54,1.07-1.17,1.46-1.87c0.6-1.07,0.91-2.22,0.93-3.39c0.39,0.26,0.78,0.51,1.16,0.78
	c1.71,1.22,3.7,1.84,5.71,1.84c1.6,0,3.21-0.39,4.69-1.19c3.39-1.82,5.41-5.33,5.27-9.15c-0.69-19.63-5.95-50.28-26.99-84.85
	C622.3,858.16,588.17,794.96,588.99,760.56z"/>
</svg>
