<?xml version="1.0" encoding="utf-8"?>
<!-- Generator: Adobe Illustrator 24.3.0, SVG Export Plug-In . SVG Version: 6.00 Build 0)  -->
<svg version="1.1" id="JK_x5F_COLORS" xmlns="http://www.w3.org/2000/svg" xmlns:xlink="http://www.w3.org/1999/xlink" x="0px"
	 y="0px" viewBox="0 0 1080 1080" style="enable-background:new 0 0 1080 1080;" xml:space="preserve">
<style type="text/css">
	.st0{display:none;fill:#010202;}
	.st1{fill:#010202;}
	.st2{fill:#52372C;}
	.st3{fill:#FDE8B8;}
	.st4{fill:#B39667;}
	.st5{fill:#63675A;}
	.st6{fill:#947148;}
	.st7{fill:#664925;}
	.st8{fill:#FFFFFF;}
	.st9{fill:#7A4694;}
</style>
<path id="FILL_x5F_000000" class="st0" d="M755.19,256.06c-11.96-36.34-35.91-84.32-82.08-106.58
	c-34.81-16.78-77.05-16.29-125.54,1.45c-3.61-5.63-8.22-10.17-13.89-13.54c-19.66-11.7-50.94-9.72-92.96,5.88
	c-31.11,11.56-56.87,26.72-57.12,26.87c-31.82,18.87-56.35,39.58-72.92,61.55c-13.31,17.64-21.55,36.13-24.49,54.96
	c-4.81,30.74,5.95,51.85,7.35,54.42c0.1,15.32,4.87,27.35,9.84,35.75c7.48,12.65,16.64,19.62,18.52,20.97
	c1.85,6.27,5.13,13.05,10.75,19.57c0.63,1.96,6.45,19.44,20.79,40.66c13.92,20.6,38.95,49.06,79.24,67.92
	c0.58,1.73,2.4,7.69,2.13,13.39c-1.13,0.93-1.86,2.14-2.2,3.6c-2.65,0.32-9.85,1.7-19.33,7.85c-5.22,3.39-11.13,8.22-17.34,15.12
	c-2.14,2.37-4.32,5-6.52,7.89c-3.87,5.09-7.81,11.01-11.72,17.91c-0.05,0.11-2.78,5.11-7.57,12.44c-1.57,2.4-3.36,5.05-5.37,7.87
	c-5.33,7.54-12.12,16.22-19.95,24.32c-0.94,0.4-2.07,1.24-2.73,3c-0.19,0.53-0.31,1.1-0.36,1.67c-0.59,0.09-1.28,0.31-2.02,0.81
	c-1.2,0.8-2.2,2.11-3.02,3.9c-1.48-0.52-3.98-1.04-6.47,0.13c-2.28,1.05-3.98,3.22-5.11,6.46c-1.19,0.58-4.57,2.09-8.41,2.77
	c-2.05,0.36-3.6,1.92-3.95,3.98c-0.36,2.11,0.62,4.15,2.49,5.2c2.11,1.18,4.5,1.78,7.15,1.78c0.62,0,1.26-0.04,1.91-0.11
	c0.4,1.78,1.07,3.51,2.19,4.9c1.13,1.4,2.72,2.26,4.49,2.41c0.19,0.02,0.38,0.03,0.56,0.03c1.58,0,3.09-0.58,4.31-1.65
	c0.06-0.05,0.11-0.12,0.17-0.17c0.45,0.99,1,1.9,1.68,2.66c1.4,1.58,3.17,2.4,5.27,2.46c0.01,0,0.02,0,0.03,0
	c0.14,0,0.28-0.03,0.41-0.07c0.15-0.05,2-0.7,3.55-2.95c1.58,0.5,4.8,1.33,8.88,1.33c3.62,0,7.9-0.67,12.31-2.78
	c0.53,0.63,1.22,1.12,2.01,1.42c0.56,0.21,1.14,0.31,1.72,0.31c1.01,0,2.01-0.31,2.85-0.92c2.24-1.6,3.97-3.84,5.23-5.9
	c3.43-0.11,6.99-1.55,7.15-1.61c0.02-0.01,0.02-0.02,0.04-0.02c0.01-0.01,0.03-0.01,0.05-0.02c0.09-0.05,3.97-1.99,9.83-5.84
	c0.11-0.07,0.22-0.15,0.34-0.22c2.08-1.38,4.41-2.99,6.9-4.83c0.52,7.7,1.44,33.92-6.74,64.1c-0.72,2.69-1.52,5.41-2.4,8.16
	c-0.99,3.09-2.09,6.22-3.29,9.36c-0.46,1.19-0.93,2.38-1.42,3.57c-2.82,6.89-6.19,13.8-10.21,20.59c-0.03,0.06-0.04,0.12-0.06,0.17
	c-0.03,0.07-0.06,0.13-0.08,0.19c-0.02,0.11-0.02,0.22-0.02,0.33c0,0.04-0.02,0.08-0.01,0.12c0.06,0.52,1.55,12.63,9.82,16.35
	c0.23,0.1,0.47,0.2,0.71,0.29c1.36,0.51,2.8,0.76,4.33,0.76c1.19,0,2.43-0.15,3.73-0.46c3.23-0.77,6.78-2.51,10.62-5.2
	c0.31-0.21,0.51-0.56,0.55-0.93c0.04-0.38-0.09-0.76-0.36-1.03c-0.02-0.03-1.71-1.81-2.89-4.18c1.18,1.27,2.65,2.39,4.34,2.86
	c0.3,0.08,0.63,0.06,0.91-0.08c0.25-0.12,1.8-0.87,3.25-1.95c1.25,9.16,5.05,17.34,9.63,24.22c0.35,0.53,0.71,1.05,1.07,1.56
	c3.33,4.74,6.97,8.81,10.31,12.11c1.04,1.52,10.62,15.68,16.26,26.84c2.25,4.44,2.85,9.59,1.71,14.49
	c-2.49,10.72-8.44,31.49-20.24,50.15c-3.93,6.23-6.81,12.48-8.55,18.6c-0.22,0.78-0.43,1.55-0.6,2.29
	c-0.26,1.04-0.48,2.05-0.65,3.02c-1.1,6.12-0.63,10.9,1.41,14.23c0.14,0.24,0.36,0.43,0.62,0.53c0.34,0.14,4.76,1.89,10.8,3.18
	c0.14,0.79,0.5,1.85,1.39,2.99c2.47,3.15,7.58,5.17,15.19,6.03c-0.23,3.72-0.31,5.86-0.31,5.96c-0.02,0.49,0.24,0.95,0.67,1.19
	c3.22,1.75,6.97,2.73,11.05,3.11c0.1,1.08,0.52,2.1,1.28,3.04c4.72,5.88,21.85,6.88,22.58,6.92c0.64,0.04,1.2-0.4,1.34-1.02
	l0.5-2.26c4.92,7.73,19,9.74,32.3,9.74c13.73,0,26.62-2.14,27.74-2.33c0.44-0.08,0.81-0.38,0.98-0.79c1.35-3.28,0.37-7.98,0.11-9.06
	c0.19-1.43,0.1-2.91-0.27-4.42c-0.9-3.62-3.71-6.5-7.54-7.69c-7.6-2.37-13.12-11.47-13.86-12.74c-0.66-2.72-1.19-5.54-1.58-8.45
	c-0.13-0.98-0.25-1.97-0.34-2.97c-0.35-3.38-0.51-6.88-0.48-10.46c0.04-5.63,0.84-11.24,2.39-16.69
	c8.74-30.83,6.81-75.37,4.88-99.17c-0.62-7.59,0.17-15.44,2.34-23.33c1.38-5.04,2.01-9.93,2.23-14.2
	c14.45-1.47,28.36-12.63,28.9-13.07c1.74-1.24,2.54-3.63,2.6-6.87c0.1-0.27,0.08-0.57-0.01-0.85c-0.17-9.68-6.23-26.06-13.19-41.77
	c-1.19-2.68-2.4-5.34-3.62-7.95c-0.32-0.71-0.65-1.41-0.98-2.1c-2.45-5.17-3.71-10.99-3.66-16.82c0.01-1.31,0.01-2.61,0-3.89
	c17.68,6.37,36.3,7.76,36.49,7.77c0.03,0.01,0.06,0.01,0.09,0.01c0.29,0,0.56-0.1,0.79-0.27c0.15-0.11,0.28-0.23,0.43-0.34
	l18.62,7.05c0.15,0.06,0.3,0.09,0.46,0.09c0.24,0,0.47-0.07,0.68-0.2c2.82-1.75,5.18-3.73,7.18-5.86c1.19,0.87,2.45,1.31,3.76,1.31
	c0.24,0,0.47-0.01,0.71-0.04c2.4-0.28,4.38-1.97,5.58-3.29c0.3,0.36,0.63,0.7,1.03,0.99c1.01,0.75,2.17,1.12,3.32,1.12
	c1.16,0,2.32-0.37,3.32-1.13c2.61-1.95,4.27-4.27,5.06-5.55c0.18,0.12,0.36,0.23,0.55,0.34c0.92,0.52,1.82,0.75,2.67,0.75
	c1.78,0,3.33-1,4.24-2.27c1.6-2.23,1.29-5.05-0.76-6.86c-0.13-0.11-0.24-0.2-0.35-0.3c0.85-1.24,1.07-2.82,0.52-4.28
	c-0.25-0.68-0.65-1.27-1.14-1.75c1.91-0.63,3.63-1.51,5.13-2.68c2.11-1.65,2.76-4.41,1.61-6.85c-1.14-2.41-3.63-3.64-6.22-3.06
	c-8.83,1.97-17.55-1.75-19.76-2.8c-0.69-5.06-1.74-8.42-1.78-8.53c-0.17-0.53-0.67-0.9-1.23-0.9H603.3
	c-0.56-3.13-1.2-5.05-1.22-5.12c-0.13-0.38-0.43-0.68-0.81-0.81c-15.95-5.49-32.18-5.67-40.43-5.28c-0.16,0.01-0.32,0.01-0.47,0
	c-1.46-0.13-2.68-1.2-3.05-2.65c-4.23-16.95-11.9-31.97-17.46-41.39c-0.47-0.8-0.93-1.56-1.37-2.28c-1.41-2.31-2.62-4.17-3.53-5.53
	c4.69,0.67,9.42,1.02,14.14,1.02c1.34,0,2.67-0.03,4-0.08c16.99-0.68,49.02-3.67,72.74-16c17.82-9.25,29.81-27.6,31.3-47.87
	c0.41-5.55,0.67-12.99-1.03-21.53c2.68-1.17,4.94-2.59,6.34-3.54c2.63,9.39,9.86,13.71,10.19,13.89c0.2,0.12,0.42,0.18,0.65,0.18
	c0.14,0,0.28-0.02,0.41-0.07c0.36-0.11,0.65-0.38,0.79-0.73c0.13-0.31,12.89-30.52,28.88-37.63c5.62,2.99,11.91,5.5,18.88,7.5
	c0.12,0.03,0.24,0.05,0.36,0.05c0.37,0,0.74-0.16,0.99-0.45c0.33-0.39,0.41-0.93,0.19-1.39c-0.07-0.17-2.83-6.32-5.63-15.99
	c3.66-3.86,24.08-26.52,37.01-64.4C768.69,341.51,768.7,297.09,755.19,256.06z"/>
<path id="OUTLINE_x5F_000000" class="st1" d="M755.19,256.06c-11.96-36.34-35.91-84.32-82.08-106.58
	c-34.81-16.78-77.05-16.29-125.54,1.45c-3.61-5.63-8.22-10.17-13.89-13.54c-19.66-11.7-50.94-9.72-92.96,5.88
	c-31.11,11.56-56.87,26.72-57.12,26.87c-31.82,18.87-56.35,39.58-72.92,61.55c-13.31,17.64-21.55,36.13-24.49,54.96
	c-4.81,30.74,5.95,51.85,7.35,54.42c0.1,15.32,4.87,27.35,9.84,35.75c7.48,12.65,16.64,19.62,18.52,20.97
	c1.85,6.27,5.13,13.05,10.75,19.57c0.63,1.96,6.45,19.44,20.79,40.66c13.92,20.6,38.95,49.06,79.24,67.92
	c0.58,1.73,2.4,7.69,2.13,13.39c-1.13,0.93-1.86,2.14-2.2,3.6c-2.65,0.32-9.85,1.7-19.33,7.85c-5.22,3.39-11.13,8.22-17.34,15.12
	c-2.14,2.37-4.32,5-6.52,7.89c-3.87,5.09-7.81,11.01-11.72,17.91c-0.05,0.11-2.78,5.11-7.57,12.44c-1.57,2.4-3.36,5.05-5.37,7.87
	c-5.33,7.54-12.12,16.22-19.95,24.32c-0.94,0.4-2.07,1.24-2.73,3c-0.19,0.53-0.31,1.1-0.36,1.67c-0.59,0.09-1.28,0.31-2.02,0.81
	c-1.2,0.8-2.2,2.11-3.02,3.9c-1.48-0.52-3.98-1.04-6.47,0.13c-2.28,1.05-3.98,3.22-5.11,6.46c-1.19,0.58-4.57,2.09-8.41,2.77
	c-2.05,0.36-3.6,1.92-3.95,3.98c-0.36,2.11,0.62,4.15,2.49,5.2c2.11,1.18,4.5,1.78,7.15,1.78c0.62,0,1.26-0.04,1.91-0.11
	c0.4,1.78,1.07,3.51,2.19,4.9c1.13,1.4,2.72,2.26,4.49,2.41c0.19,0.02,0.38,0.03,0.56,0.03c1.58,0,3.09-0.58,4.31-1.65
	c0.06-0.05,0.11-0.12,0.17-0.17c0.45,0.99,1,1.9,1.68,2.66c1.4,1.58,3.17,2.4,5.27,2.46c0.01,0,0.02,0,0.03,0
	c0.14,0,0.28-0.03,0.41-0.07c0.15-0.05,2-0.7,3.55-2.95c1.58,0.5,4.8,1.33,8.88,1.33c3.62,0,7.9-0.67,12.31-2.78
	c0.53,0.63,1.22,1.12,2.01,1.42c0.56,0.21,1.14,0.31,1.72,0.31c1.01,0,2.01-0.31,2.85-0.92c2.24-1.6,3.97-3.84,5.23-5.9
	c3.43-0.11,6.99-1.55,7.15-1.61c0.02-0.01,0.02-0.02,0.04-0.02c0.01-0.01,0.03-0.01,0.05-0.02c0.09-0.05,3.97-1.99,9.83-5.84
	c0.11-0.07,0.22-0.15,0.34-0.22c2.08-1.38,4.41-2.99,6.9-4.83c0.52,7.7,1.44,33.92-6.74,64.1c-0.72,2.69-1.52,5.41-2.4,8.16
	c-0.99,3.09-2.09,6.22-3.29,9.36c-0.46,1.19-0.93,2.38-1.42,3.57c-2.82,6.89-6.19,13.8-10.21,20.59c-0.03,0.06-0.04,0.12-0.06,0.17
	c-0.03,0.07-0.06,0.13-0.08,0.19c-0.02,0.11-0.02,0.22-0.02,0.33c0,0.04-0.02,0.08-0.01,0.12c0.06,0.52,1.55,12.63,9.82,16.35
	c0.23,0.1,0.47,0.2,0.71,0.29c1.36,0.51,2.8,0.76,4.33,0.76c1.19,0,2.43-0.15,3.73-0.46c3.23-0.77,6.78-2.51,10.62-5.2
	c0.31-0.21,0.51-0.56,0.55-0.93c0.04-0.38-0.09-0.76-0.36-1.03c-0.02-0.03-1.71-1.81-2.89-4.18c1.18,1.27,2.65,2.39,4.34,2.86
	c0.3,0.08,0.63,0.06,0.91-0.08c0.25-0.12,1.8-0.87,3.25-1.95c1.25,9.16,5.05,17.34,9.63,24.22c0.35,0.53,0.71,1.05,1.07,1.56
	c3.33,4.74,6.97,8.81,10.31,12.11c1.04,1.52,10.62,15.68,16.26,26.84c2.25,4.44,2.85,9.59,1.71,14.49
	c-2.49,10.72-8.44,31.49-20.24,50.15c-3.93,6.23-6.81,12.48-8.55,18.6c-0.22,0.78-0.43,1.55-0.6,2.29
	c-0.26,1.04-0.48,2.05-0.65,3.02c-1.1,6.12-0.63,10.9,1.41,14.23c0.14,0.24,0.36,0.43,0.62,0.53c0.34,0.14,4.76,1.89,10.8,3.18
	c0.14,0.79,0.5,1.85,1.39,2.99c2.47,3.15,7.58,5.17,15.19,6.03c-0.23,3.72-0.31,5.86-0.31,5.96c-0.02,0.49,0.24,0.95,0.67,1.19
	c3.22,1.75,6.97,2.73,11.05,3.11c0.1,1.08,0.52,2.1,1.28,3.04c4.72,5.88,21.85,6.88,22.58,6.92c0.64,0.04,1.2-0.4,1.34-1.02
	l0.5-2.26c4.92,7.73,19,9.74,32.3,9.74c13.73,0,26.62-2.14,27.74-2.33c0.44-0.08,0.81-0.38,0.98-0.79c1.35-3.28,0.37-7.98,0.11-9.06
	c0.19-1.43,0.1-2.91-0.27-4.42c-0.9-3.62-3.71-6.5-7.54-7.69c-7.6-2.37-13.12-11.47-13.86-12.74c-0.66-2.72-1.19-5.54-1.58-8.45
	c-0.13-0.98-0.25-1.97-0.34-2.97c-0.35-3.38-0.51-6.88-0.48-10.46c0.04-5.63,0.84-11.24,2.39-16.69
	c8.74-30.83,6.81-75.37,4.88-99.17c-0.62-7.59,0.17-15.44,2.34-23.33c1.38-5.04,2.01-9.93,2.23-14.2
	c14.45-1.47,28.36-12.63,28.9-13.07c1.74-1.24,2.54-3.63,2.6-6.87c0.1-0.27,0.08-0.57-0.01-0.85c-0.17-9.68-6.23-26.06-13.19-41.77
	c-1.19-2.68-2.4-5.34-3.62-7.95c-0.32-0.71-0.65-1.41-0.98-2.1c-2.45-5.17-3.71-10.99-3.66-16.82c0.01-1.31,0.01-2.61,0-3.89
	c17.68,6.37,36.3,7.76,36.49,7.77c0.03,0.01,0.06,0.01,0.09,0.01c0.29,0,0.56-0.1,0.79-0.27c0.15-0.11,0.28-0.23,0.43-0.34
	l18.62,7.05c0.15,0.06,0.3,0.09,0.46,0.09c0.24,0,0.47-0.07,0.68-0.2c2.82-1.75,5.18-3.73,7.18-5.86c1.19,0.87,2.45,1.31,3.76,1.31
	c0.24,0,0.47-0.01,0.71-0.04c2.4-0.28,4.38-1.97,5.58-3.29c0.3,0.36,0.63,0.7,1.03,0.99c1.01,0.75,2.17,1.12,3.32,1.12
	c1.16,0,2.32-0.37,3.32-1.13c2.61-1.95,4.27-4.27,5.06-5.55c0.18,0.12,0.36,0.23,0.55,0.34c0.92,0.52,1.82,0.75,2.67,0.75
	c1.78,0,3.33-1,4.24-2.27c1.6-2.23,1.29-5.05-0.76-6.86c-0.13-0.11-0.24-0.2-0.35-0.3c0.85-1.24,1.07-2.82,0.52-4.28
	c-0.25-0.68-0.65-1.27-1.14-1.75c1.91-0.63,3.63-1.51,5.13-2.68c2.11-1.65,2.76-4.41,1.61-6.85c-1.14-2.41-3.63-3.64-6.22-3.06
	c-8.83,1.97-17.55-1.75-19.76-2.8c-0.69-5.06-1.74-8.42-1.78-8.53c-0.17-0.53-0.67-0.9-1.23-0.9H603.3
	c-0.56-3.13-1.2-5.05-1.22-5.12c-0.13-0.38-0.43-0.68-0.81-0.81c-15.95-5.49-32.18-5.67-40.43-5.28c-0.16,0.01-0.32,0.01-0.47,0
	c-1.46-0.13-2.68-1.2-3.05-2.65c-4.23-16.95-11.9-31.97-17.46-41.39c-0.47-0.8-0.93-1.56-1.37-2.28c-1.41-2.31-2.62-4.17-3.53-5.53
	c4.69,0.67,9.42,1.02,14.14,1.02c1.34,0,2.67-0.03,4-0.08c16.99-0.68,49.02-3.67,72.74-16c17.82-9.25,29.81-27.6,31.3-47.87
	c0.41-5.55,0.67-12.99-1.03-21.53c-0.79,0.35-1.62,0.68-2.47,0.96c1.55,8.04,1.3,15.09,0.91,20.37
	c-1.43,19.39-12.89,36.92-29.91,45.77c-23.27,12.09-54.88,15.03-71.64,15.7c-9.48,0.38-19-0.63-28.28-3.01
	c-51.02-13.07-86.67-35.57-107.59-52.15c-22.55-17.87-38.6-42.89-45.2-70.43c-1.04-4.35-1.44-7.02-1.44-7.05
	c-0.06-0.36-0.26-0.69-0.57-0.89c-0.3-0.2-0.68-0.27-1.03-0.18c-3.16,0.79-7.22-0.07-9.16-0.58c0.28-0.87,0.64-1.21,0.64-1.21
	c0.19-0.16,0.34-0.36,0.42-0.6c0.09-0.27,0.86-2.72-0.53-4.65c-0.92-1.29-2.51-1.94-4.71-1.94c-0.37,0-0.73,0.16-0.98,0.45
	c-0.04,0.04-1.71,2.01-2.99,5.05c-26.19-15.06-29.59-36.65-29.25-48.29c0.24-8.16,3.73-15.69,9.57-20.67
	c12.38-10.55,24.96-2.56,28.07-0.28c-1.58,3.57-4.04,7.5-7.86,11.35c-2.79-1.05-12.09-3.81-18.33,2.92
	c-0.49,0.53-0.46,1.35,0.07,1.84c0.25,0.23,0.56,0.35,0.88,0.35c0.35,0,0.7-0.14,0.95-0.42c4.41-4.76,11.05-3.61,14.27-2.66
	c-4.52,3.98-10.61,7.79-18.86,10.9c-0.5,0.19-0.83,0.66-0.84,1.2c0,0.53,0.32,1.02,0.81,1.22c0.53,0.21,7.83,3.1,18.61,3.1
	c5.13,0,11.05-0.66,17.41-2.57c0.6,5.61,2.96,24.15,8.32,32.4c0.25,0.37,0.66,0.59,1.09,0.59c0.08,0,0.15,0,0.22-0.02
	c0.51-0.08,0.92-0.46,1.05-0.96c0.06-0.27,6.76-26.74,15.11-46.5c7.37,0.83,53.59,4.47,96.95-28.36c4.2-3.18,8.22-6.61,12.05-10.27
	c0.53-0.5,1.05-1.01,1.57-1.52c3.48-3.42,6.78-7.04,9.91-10.84c0.45-0.53,0.88-1.07,1.31-1.61c8.6-10.73,15.79-22.81,21.3-35.88
	c2.32-5.52,4.31-10.88,5.93-15.96c10.33,0.92,95.94,10.17,117.3,64.56c-0.94,2.09-1.93,4.22-3.01,6.39
	c-3.4,6.9-6.04,13.74-7.81,20.34c-1.34,4.96-2.63,10.88-3.38,17.29c-0.09,0.66-0.16,1.33-0.23,2c-0.42,4.3-0.6,8.79-0.39,13.34
	c0.03,0.67,0.07,1.34,0.12,2.02c0.86,11.84,4.47,23.91,13.22,33.81c-0.21,0.99-0.29,1.94-0.31,2.77c0.97,0.82,1.89,1.7,2.74,2.63
	c-0.05-0.38-0.21-1.51-0.12-2.97c2.9,2.87,6.27,5.53,10.21,7.91c0.2,0.12,0.44,0.18,0.67,0.18c0.27,0,0.54-0.08,0.77-0.25
	c0.42-0.31,0.62-0.84,0.49-1.35c-0.02-0.09-1.77-7.55,0.95-15.78c1.04,3.13,2.34,6.21,3.94,9.21c5.19,9.71,13.08,17.67,23.55,23.79
	c-14.18,7.69-25.13,30.56-27.87,36.69c-2.18-1.69-6.66-5.93-8.14-12.93c-0.01-0.05-0.02-0.09-0.04-0.13
	c-0.09,0.26-0.2,0.51-0.3,0.77c-0.07,0.16-0.17,0.3-0.31,0.41c-0.07,0.06-0.61,0.48-1.49,1.09c2.63,9.39,9.86,13.71,10.19,13.89
	c0.2,0.12,0.42,0.18,0.65,0.18c0.14,0,0.28-0.02,0.41-0.07c0.36-0.11,0.65-0.38,0.79-0.73c0.13-0.31,12.89-30.52,28.88-37.63
	c5.62,2.99,11.91,5.5,18.88,7.5c0.12,0.03,0.24,0.05,0.36,0.05c0.37,0,0.74-0.16,0.99-0.45c0.33-0.39,0.41-0.93,0.19-1.39
	c-0.07-0.17-2.83-6.32-5.63-15.99c3.66-3.86,24.08-26.52,37.01-64.4C768.69,341.51,768.7,297.09,755.19,256.06z M324.16,655.96
	c-0.05,0.24-0.64,3.63-0.28,7.4c-2.8,0.26-5.28-0.2-7.38-1.38c-1.09-0.61-1.33-1.69-1.2-2.5c0.07-0.37,0.39-1.6,1.84-1.85
	c2.81-0.5,5.34-1.38,7.11-2.11C324.22,655.67,324.19,655.81,324.16,655.96z M335.04,668.61c-0.26,0.38-0.56,0.74-0.91,1.05
	c-0.83,0.72-1.87,1.08-2.94,0.98c-1.05-0.09-2-0.6-2.68-1.45c-1.06-1.31-1.62-3.07-1.9-4.87c0-0.02,0-0.03,0-0.05
	c0-0.01-0.01-0.02-0.01-0.03c-0.58-3.82,0.1-7.75,0.11-7.81c0.19-1.03,0.43-1.96,0.69-2.8c0.01-0.02,0.01-0.04,0.02-0.05
	c0.87-2.77,2.17-4.58,3.86-5.38c1.67-0.78,3.43-0.42,4.49-0.05c-0.75,2.49-1.26,5.61-1.51,9.34
	C334.23,657.83,333.74,663.53,335.04,668.61z M347.23,655.14c-1.14,1.56-1.58,3.65-1.2,5.75c0.97,5.41,0.2,8.65-0.85,10.56
	c0,0.01-0.01,0.01-0.01,0.02c-0.45,0.8-0.94,1.37-1.38,1.76c-0.43,0.39-0.81,0.61-1.03,0.71c-1.24-0.09-2.27-0.6-3.12-1.56
	c-0.89-1-1.51-2.35-1.94-3.84c-0.01-0.03-0.02-0.06-0.03-0.09c-1.34-4.7-0.83-10.65-0.82-10.75c0.66-9.74,2.92-12.74,4.2-13.67
	c0.36-0.26,0.69-0.38,0.95-0.44c0.18,0.58,0.42,1.14,0.74,1.68c1.17,1.97,3.38,5.28,6.41,8.16
	C348.45,653.79,347.8,654.36,347.23,655.14z M373.21,670.79c-0.63,0.45-1.42,0.56-2.15,0.28c-0.72-0.27-1.23-0.85-1.41-1.59
	c-0.78-3.29-1.15-7.87,1.54-11.03c0.47-0.54,0.4-1.36-0.15-1.83c-0.54-0.47-1.36-0.4-1.83,0.15c-3.3,3.87-3.03,9.13-2.16,12.98
	c-8.09,3.87-15.9,2.29-18.9,1.43c0.9-2.42,1.32-5.86,0.44-10.75c-0.26-1.4,0.01-2.77,0.74-3.75c1.06-1.46,1.97-1.26,2.78-0.83
	c0,0.01,0.01,0.01,0.01,0.01c2.29,1.6,4.9,2.78,7.79,3.04c0.04,0.01,0.08,0.01,0.12,0.01c0.66,0,1.23-0.51,1.29-1.18
	c0.06-0.72-0.46-1.35-1.18-1.42c-7.45-0.67-13.09-8.87-15.16-12.36c-0.72-1.21-0.89-2.56-0.46-3.72c0.31-0.82,0.78-1.33,1.46-1.57
	c0.77-0.26,1.69-0.06,2.39,0.54c0.51,0.42,1,0.81,1.48,1.18c0,0.01,0,0.01,0,0.01c5.76,4.44,9.81,5.07,9.99,5.1
	c0.71,0.09,1.36-0.39,1.47-1.1c0.1-0.71-0.39-1.37-1.09-1.48c-0.04,0-2.86-0.47-7.12-3.37c2.56-1.08,7.48-2.5,12.53-0.44
	c6.48,2.63,11.3,10.02,14.33,21.97C379.43,662.49,377.19,667.93,373.21,670.79z M381.43,664.25c0.72-1.51,1.08-2.59,1.12-2.7
	c0.08-0.24,0.09-0.49,0.03-0.72c-3.24-13.05-8.63-21.17-16-24.15c-7.03-2.85-13.6-0.07-15.85,1.09c-0.22-0.18-0.45-0.36-0.68-0.56
	c-0.19-0.16-0.4-0.31-0.61-0.44c4.43-2.16,12.78-5.14,20.31-1.78c7.9,3.52,13.08,13.05,15.42,28.34
	C384.29,663.62,382.9,664.03,381.43,664.25z M391.29,744.23c1.19-2.72,2.3-5.45,3.32-8.17c1.18-3.14,2.26-6.26,3.23-9.36
	c0.24-0.74,0.47-1.48,0.69-2.22c10.7-35.49,8.63-66.81,8.2-71.88c2.35-1.81,4.82-3.82,7.34-6.03c2.29-1.99,4.63-4.15,6.96-6.47
	c3.31-3.27,6.63-6.87,9.82-10.79c0.46-0.55,0.38-1.37-0.18-1.82c-0.56-0.46-1.38-0.37-1.83,0.18c-3.76,4.61-7.68,8.76-11.55,12.45
	c-1.09,1.05-2.17,2.05-3.24,3.01c-6.1,5.49-11.95,9.84-16.7,13.05c-1.92,1.3-3.67,2.41-5.18,3.34c-1.94,1.19-3.5,2.08-4.56,2.66
	c-2.55-15.78-8.19-25.74-16.82-29.57c-6.96-3.1-14.29-1.53-19.38,0.43c6.44-7.21,12.05-14.59,16.55-21.03
	c0.96-1.39,1.89-2.75,2.75-4.04c5.85-8.73,9.21-14.9,9.27-15.01c4.26-7.52,8.57-13.85,12.79-19.18c1.47-1.87,2.94-3.62,4.39-5.25
	c5.85-6.59,11.44-11.3,16.41-14.66c1.5-1.01,2.93-1.9,4.3-2.68c9.44-5.39,15.78-5.75,15.9-5.75c0.01,0,0.01,0,0.01,0
	c0.11-0.01,0.22-0.03,0.32-0.06c0.08-0.02,2.37-0.64,6.16-0.3c1.22,0.11,2.61,0.32,4.12,0.69c4.6,1.11,10.43,3.65,16.79,9.1
	c1.49,1.28,3.01,2.72,4.55,4.35c4.96,5.21,10.13,12.29,15.21,21.88c0.11,0.2,0.27,0.37,0.46,0.49c0.13,0.08,0.33,0.19,0.6,0.28
	c0.35,0.13,0.82,0.23,1.42,0.23c0.3,0,0.63-0.03,0.99-0.09c0.42,0.63,1.09,1.64,1.94,2.97c3.39,5.33,9.71,15.81,15.14,27.9
	c1.21,2.72,2.39,5.52,3.47,8.36c4.02,10.55,6.82,21.67,6.16,31.3c-0.18,2.66,0.25,5.35,1.25,7.77c1.86,4.49,5.06,6.91,9.3,7.08
	c0,0.74,0.01,1.48,0.04,2.22c0.07,2.76,0.25,5.53,0.54,8.31c0.29,2.78,0.68,5.56,1.19,8.35c0.09,0.48,0.18,0.97,0.27,1.47
	c0.44,2.53,0.89,5.31,1.32,8.3c2.56,17.84,4.26,42.85-1.28,64.3c-0.73,2.84-1.59,5.61-2.6,8.3c-0.15,0.44-0.32,0.88-0.49,1.32
	c-0.99-0.46-2-0.9-3.03-1.32c-0.1-0.04-0.2-0.08-0.31-0.13c-3.49-1.41-7.21-2.6-11.01-3.61c-2.65-0.7-5.35-1.31-8.05-1.84
	c-3.59-0.71-7.18-1.28-10.67-1.73c-2.78-0.37-5.48-0.66-8.07-0.89c-0.75-0.07-1.5-0.13-2.23-0.19c-0.01,0-0.01,0-0.02,0
	c-0.02,0-0.03,0-0.04,0c-4.33-0.35-8.26-0.54-11.51-0.63c-0.04,0-0.07,0-0.1,0c-2.66-0.08-5.31-0.27-7.96-0.58
	c-4.3-0.5-8.59-1.31-12.82-2.42c-0.55-0.15-1.1-0.3-1.65-0.45c-2.17-0.61-4.28-1.15-6.33-1.63c-0.03-0.05-0.05-0.09-0.08-0.12v0.1
	c-0.98-0.22-1.95-0.44-2.9-0.63c-4.03-0.84-7.82-1.43-11.36-1.81c-2.85-0.3-5.54-0.47-8.07-0.53c-8.61-0.21-15.47,0.86-20.71,2.3
	h-0.01c-1.16,0.32-2.23,0.65-3.23,1c-2.23,0.76-4.07,1.57-5.54,2.31C387.3,752.87,389.4,748.55,391.29,744.23z M486.95,581.14
	c1.35-0.68,2.95-1.78,4.81-3.53c5.37,6.69,33.21,43.39,30.2,81.29c-0.16,1.95-0.24,3.91-0.28,5.88c-3.16-0.17-5.48-1.99-6.92-5.46
	c-0.84-2.06-1.21-4.34-1.05-6.6c0.75-11.03-2.71-23.68-7.41-35.32c-0.62-1.53-1.26-3.04-1.91-4.52c-6.4-14.57-14.23-26.9-17.2-31.37
	C487.11,581.38,487.03,581.26,486.95,581.14z M503.97,590.47c-4.68-7.48-8.75-12.71-10.37-14.72c1.72-1.85,3.63-4.22,5.74-7.23
	c3.45,3.86,7.17,8.33,10.86,13.32C508.59,583.1,505.75,585.84,503.97,590.47z M511.74,583.94c3.73,5.21,7.39,10.93,10.68,17.06
	c-6.75-5.82-13.5-7.87-16.41-8.52C507.5,587.83,510.28,585.12,511.74,583.94z M414.71,764.31c-0.88,1-2.58,2.02-3.58,2.54
	c-2.77-1.1-5.02-4.99-5.68-6.47c-0.23-0.51-0.76-0.82-1.32-0.77c-0.55,0.06-1.01,0.46-1.14,1.01c-0.99,4.35,1.95,8.8,3.57,10.85
	c-2.88,1.89-5.53,3.17-7.95,3.83c-2.91,0.81-5.48,0.72-7.69-0.27c-0.13-0.06-0.25-0.12-0.37-0.18c-5.59-2.82-7.4-10.88-7.83-13.36
	c1.06-0.73,3.62-2.31,7.78-3.82c2.22-0.8,4.9-1.58,8.05-2.2c4.38-0.87,9.66-1.42,15.91-1.28c0.22,0.01,0.44,0.01,0.66,0.02
	c-0.03,0.17-0.05,0.34-0.07,0.51C414.59,758.01,414.5,761.21,414.71,764.31z M433.69,799.11c-1.36-1.53-2.73-3.17-4.05-4.92
	c-1.14-1.48-2.25-3.04-3.3-4.68c-6.14-9.48-10.63-21.39-8.66-34.81c0.01-0.12,0.03-0.25,0.05-0.37c1.37,0.08,2.78,0.19,4.23,0.34
	c3.52,0.36,7.29,0.93,11.32,1.76c1.15,0.24,2.31,0.5,3.5,0.77c0.31,0.08,0.62,0.16,0.93,0.23c1.33,0.33,2.68,0.68,4.06,1.06
	c0.02,0.07,0.04,0.15,0.06,0.24c0.97,3.73,4.47,18.04,5.57,34.13C445.99,794.41,440.23,800.18,433.69,799.11z M427.39,933.27
	c-1.38-2.55-1.73-6.26-1.03-10.92c0.19-1.31,0.47-2.7,0.83-4.15c0.16-0.67,0.34-1.35,0.54-2.04c1.67-5.87,4.45-11.9,8.25-17.92
	c12-18.98,18.04-40.07,20.57-50.95c1.28-5.49,0.6-11.27-1.92-16.25c-3.18-6.3-7.59-13.53-11.06-18.96
	c4.95,4.12,9.22,8.49,12.69,13.01c3.02,3.94,5.77,8.17,8.17,12.56c3.56,6.51,4.47,14.03,2.57,21.16
	c-6.3,23.63-9.82,48.37-11.73,66.66c-0.15,1.37-0.28,2.7-0.41,3.99c-0.26,2.73-0.49,5.27-0.69,7.62
	C442.93,938.79,429.85,934.19,427.39,933.27z M453.56,945.13c-8.3-0.96-11.78-3.18-13.22-4.93c-0.28-0.34-0.48-0.65-0.62-0.94
	c2.85,0.48,5.94,0.81,9.06,0.81c1.73,0,3.46-0.1,5.17-0.34c-0.02,0.25-0.04,0.49-0.06,0.73c-0.08,1.08-0.15,2.1-0.21,3.06
	C453.63,944.08,453.6,944.61,453.56,945.13z M455.71,952.96c0.06-1.31,0.2-4.12,0.48-8.12c0.08-1.3,0.19-2.72,0.31-4.26
	c0.25-3.32,0.58-7.17,1.01-11.45c0.09-0.97,0.19-1.96,0.3-2.98c1.9-18.23,5.39-43.01,11.7-66.67c2.08-7.78,1.08-15.98-2.8-23.08
	c-2.46-4.51-5.28-8.85-8.39-12.9c-3.77-4.9-8.43-9.63-13.86-14.06c-2.25-1.84-5.17-4.42-8.26-7.62c7.55-0.5,13.26-7.35,13.54-7.68
	c0.2-0.26,0.31-0.58,0.29-0.91c-0.97-15.14-4.1-28.82-5.39-33.98c4.3,1.1,8.64,1.91,13.01,2.41c2.62,0.3,5.25,0.48,7.88,0.56
	c0.06,0,0.12,0,0.18,0c2.91,0.09,6.36,0.25,10.15,0.53c-0.23,6.64-1.07,38.95,2.14,73.09c1,10.62,0.97,21.53-0.09,32.41
	c-1.48,15.2-3.01,39.93-2.47,74.54c0.02,1.33,0.04,2.67,0.07,4.03c0.05,2.71,0.12,5.47,0.2,8.29
	C468.14,956.02,461.1,955.62,455.71,952.96z M549.34,969.63c-6.69,1.03-54.86,7.87-57.92-9.66c-0.1-0.61-0.63-1.06-1.25-1.07
	c-0.01,0-0.02,0-0.03,0c-0.61,0-1.14,0.42-1.27,1.02l-1.17,5.35c-5.29-0.41-16.51-2.03-19.59-5.87c-0.34-0.42-0.54-0.84-0.65-1.27
	c0.5,0.02,1,0.03,1.5,0.03c7.29,0,15.34-1.57,23.13-3.8c4.85,9.57,18.68,12.05,31.68,12.05c11.25,0,21.88-1.85,25.54-2.56
	C549.59,965.42,549.82,967.81,549.34,969.63z M543.05,952.6c2.95,0.91,5.11,3.09,5.79,5.83c0.24,0.95,0.33,1.89,0.28,2.8
	c-6.53,1.26-45.77,8.05-54.48-7.63c15.57-4.79,29.59-11.9,33.61-14.02C530.07,942.48,535.5,950.25,543.05,952.6z M534.66,775.61
	c-2.25,8.18-3.06,16.33-2.42,24.23c1.91,23.63,3.84,67.82-4.79,98.25c-1.61,5.67-2.45,11.52-2.49,17.38
	c-0.03,3.43,0.11,6.79,0.42,10.05c0.12,1.36,0.28,2.7,0.46,4.02h0.01c0.35,2.61,0.82,5.16,1.39,7.63
	c-4.8,2.51-28.33,14.4-48.94,17.59c-0.1-3.41-0.17-6.74-0.23-9.98c-0.63-35.56,0.93-60.85,2.43-76.28
	c1.08-11.04,1.11-22.12,0.09-32.91c-3.18-33.8-2.37-65.8-2.14-72.63c0.36,0.03,0.72,0.06,1.09,0.1c2.59,0.23,5.29,0.53,8.07,0.9
	c3.48,0.45,7.06,1.03,10.64,1.75c1.8,0.36,3.61,0.75,5.4,1.19c6.07,1.49,11.96,3.44,17.12,5.99c0.02,0.01,0.04,0.01,0.06,0.02
	c0.01,0.01,0.01,0.01,0.02,0.02c0.02,0,0.03,0,0.05,0.01c0.15,0.05,0.3,0.09,0.45,0.09c0,0,0,0,0.01,0c0.12,0,0.24-0.02,0.35-0.05
	c0.05-0.02,0.09-0.04,0.13-0.06c0.07-0.03,0.14-0.06,0.2-0.1c0.05-0.02,0.08-0.06,0.12-0.1c0.06-0.04,0.11-0.08,0.16-0.14
	c0.04-0.04,0.07-0.09,0.1-0.13c0.03-0.05,0.07-0.09,0.09-0.15c0.01-0.01,0.01-0.02,0.01-0.03c0.01-0.02,0.02-0.03,0.03-0.04
	c0.49-1.18,0.95-2.37,1.38-3.59c0.52-1.46,1.01-2.94,1.45-4.45c1.5-5.07,2.57-10.36,3.31-15.74c1.35,0.41,3.37,0.9,5.39,0.9
	c0.75,0,1.5-0.08,2.22-0.25C536.75,752.32,537.95,763.65,534.66,775.61z M529.02,745.82c0.54-4.62,0.84-9.29,0.95-13.92
	c1.16-0.16,3.14-0.34,4.84-0.05l1.2,14.64C533.97,747.13,530.85,746.42,529.02,745.82z M535.59,729.35
	c-1.95-0.39-4.14-0.25-5.58-0.08c0.14-16.73-2.05-32.65-4.02-43.46c-0.48-2.64-0.86-5.27-1.14-7.89c-0.31-2.79-0.5-5.56-0.57-8.31
	c-0.09-3.54,0-7.05,0.27-10.51c1.91-24.08-8.26-47.62-17.58-63.67c4.2,1.22,12.44,4.6,19.22,13.29c0.4,3.44,3.59,31.07,4.39,58.38
	c0.12,4.19,0.85,8.3,2.17,12.22c4.26,12.7,8.88,31.18,6.92,47.49C537.8,727.37,536.34,728.59,535.59,729.35z M532.14,609.28v0.01
	c0.55,1.86,1.25,4.34,2.01,7.3c3.37,13.15,7.89,35.76,5.71,55.99c-0.75,6.96-0.33,13.9,1.25,20.69c0.36,1.54,0.77,3.07,1.25,4.59
	c1.35,4.28,3.08,9.1,5.28,14.09c-0.07,1.54-0.67,10.42-5.18,14.62c-0.05,0-0.1-0.02-0.15-0.02c1.21-10.92-0.38-22.7-2.82-33.12
	c-1.28-5.45-2.8-10.53-4.28-14.93c-1.23-3.69-1.91-7.54-2.03-11.47c-0.78-26.37-3.76-53.03-4.35-58.12c1.03-0.6,1.89-1.23,2.63-1.87
	C531.65,607.64,531.88,608.39,532.14,609.28z M537.37,731.25c0.68-0.7,2.34-2.14,4.26-2.14l1.06,14.21
	c-0.8,0.98-2.46,2.67-4.07,3.19L537.37,731.25z M566.72,746.96c-0.05,0.05-2.16,1.74-5.52,3.87c-0.48,0.31-0.99,0.62-1.53,0.95
	c-5.22,3.15-12.69,6.84-20.18,7.7c0.08-4.75-0.3-8.46-0.56-10.36c3.2-0.76,5.81-4.18,6.14-4.62c0.18-0.25,0.27-0.56,0.25-0.87
	l-1.13-15.12c3.42-3.16,4.91-8.29,5.56-12.04c1.63,3.32,3.48,6.68,5.56,9.95c1.72,2.71,3.6,5.37,5.66,7.93
	c2.26,2.8,4.72,5.48,7.42,7.94C568.32,744.62,567.78,746.21,566.72,746.96z M623.28,669.54c-0.34,0.96-0.41,1.93-0.26,2.86
	c-0.7,0.92-2.54,3.07-4.67,3.32c-0.84,0.09-1.65-0.13-2.46-0.66c1.88-2.35,3.37-4.84,4.52-7.4c0.78,0.21,1.94,0.47,3.36,0.65
	C623.59,668.73,623.43,669.14,623.28,669.54z M630.34,673.91c-1.29,0.97-2.67,0.63-3.54,0c-0.88-0.66-1.63-1.92-1.07-3.49
	c0.22-0.6,0.48-1.23,0.78-1.88c0.31,0.01,0.64,0.02,0.97,0.02c2.11,0,4.48-0.25,6.89-0.96c0.21,0.37,0.43,0.71,0.65,1.01
	C634.56,669.42,633.01,671.92,630.34,673.91z M642.31,667.75c-0.65,0.91-1.96,1.66-3.5,0.77c-0.71-0.4-1.3-0.8-1.95-1.82
	c1.55-0.68,3.09-1.59,4.58-2.77c0.14,0.12,0.31,0.25,0.5,0.42C643.21,665.47,642.93,666.88,642.31,667.75z M623.79,643.69
	c3.68,1.54,11.66,4.18,19.99,2.33c1.69-0.37,2.81,0.6,3.3,1.63c0.48,1.02,0.54,2.59-0.86,3.69c-3.74,2.91-9.16,3.88-16.13,2.87
	c-0.7-0.11-1.37,0.38-1.47,1.1c-0.1,0.71,0.39,1.37,1.1,1.47c1.91,0.28,3.72,0.41,5.43,0.41c0.08,0,0.16,0,0.24,0
	c1.41,0.11,2.81,0.19,4.17,0.23c0.86,0.02,1.54,0.51,1.84,1.31c0.24,0.65,0.22,1.59-0.56,2.31c-6.95,6.37-16.14,4.96-19.44,4.18
	C624.14,657.7,624.35,649.85,623.79,643.69z M603.7,633.85h15.76c1.45,5.33,7.71,32.95-13.29,46.49l-16.63-6.3
	C604.48,660.87,604.97,643.66,603.7,633.85z M531.42,567.63c0.59,0.84,2.07,2.96,4.04,6.12c1.31,2.1,2.83,4.65,4.46,7.58
	c5.13,9.24,11.28,22.25,14.88,36.69c0.42,1.7,1.54,3.08,2.99,3.88h0.01c0.79,0.43,1.7,0.69,2.64,0.73c0.18,0.01,0.35,0.01,0.52,0
	c7.96-0.37,23.5-0.21,38.85,4.94c1.3,4.29,7.72,29.35-14.18,46.35c-3.08-0.27-20.2-1.98-36.22-7.92c-0.4-25.5-4.07-45.18-4.11-45.39
	c-0.13-0.71-0.82-1.17-1.52-1.04c-0.7,0.14-1.17,0.82-1.03,1.52c0.04,0.23,4.32,23.15,4.09,51.56c-0.05,6.22,1.3,12.43,3.9,17.95
	c0.63,1.33,1.24,2.64,1.84,3.94c0.78,1.71,1.55,3.39,2.28,5.03c1.45,3.27,2.79,6.4,4.02,9.39c0.69,1.66,1.34,3.28,1.95,4.85
	c4.08,10.46,6.57,18.87,7.32,24.68c-2.62-2.61-5-5.42-7.16-8.34c-0.91-1.24-1.79-2.49-2.62-3.76c-2.03-3.08-3.84-6.23-5.45-9.38
	c-0.04-0.08-0.08-0.16-0.12-0.23c-3.53-6.94-6.12-13.84-7.96-19.7c-2.47-7.89-3.28-16.04-2.4-24.22c2.2-20.29-2.22-42.86-5.62-56.3
	c-0.82-3.23-1.58-5.94-2.18-7.95c-0.55-1.89-0.96-3.17-1.14-3.72c1.68-2.24,2.08-4.38,2.22-5.74c0.03-0.27,0.05-0.51,0.06-0.71
	l0.01-0.2c0.09-1.23,0.03-4.17-0.77-7.06c-0.49-1.77-1.25-3.51-2.42-4.84c-3.89-4.43-7.59-5.39-9.72-5.53
	c1.19-6.17,4.6-11.8,5.85-13.7C529.62,567.29,530.52,567.47,531.42,567.63z M524.07,566.04c0.65,0.17,1.3,0.32,1.95,0.47
	c-1.75,2.8-5.12,8.91-5.96,15.51c-0.03,0.24,0.01,0.47,0.1,0.68c0.08,0.16,0.18,0.32,0.32,0.44c0.31,0.28,0.74,0.4,1.16,0.31
	c0.17-0.04,4.24-0.83,9.01,4.61c0.73,0.83,1.27,1.95,1.66,3.15c0.83,2.54,0.99,5.45,0.89,6.83l-0.02,0.23
	c-0.02,0.25-0.04,0.56-0.08,0.91c-0.22,1.73-1.02,4.49-4.79,6.98c-1.94-8.44-5.04-16.42-8.35-23.37
	c-4.64-9.72-9.69-17.41-12.59-21.52C512.75,562.96,518.31,564.57,524.07,566.04z M503.15,559.91c1.72,2.23,12.82,17.1,19.52,36.18
	c-10.91-19-24.99-33.65-32.55-40.82C494.32,556.88,498.67,558.42,503.15,559.91z M453.26,538.29c-5.52-1.16-11.67-1.82-15.82-0.38
	c-0.03-3.73-0.76-7.33-1.42-9.86C441.28,531.44,447.02,534.88,453.26,538.29z M436.95,540.98c5.7-3.62,21.99,1.14,27.86,3.3
	c5.78,2.84,11.92,5.61,18.41,8.27c0.95,0.79,6.83,5.81,14.33,13.99c-2.51,3.63-4.67,6.25-6.52,8.14c0,0.01-0.01,0.01-0.02,0.01
	c-0.02,0.02-0.03,0.04-0.04,0.06c-2.83,2.88-4.89,4.04-6.24,4.47c-0.06,0.01-0.12,0.04-0.19,0.06c-0.76,0.22-1.27,0.2-1.54,0.16
	c-5.79-10.83-11.68-18.56-17.28-24.05c-0.18-0.18-0.36-0.35-0.54-0.52c-13.33-12.78-24.96-12.99-29.65-12.4
	C435.85,541.87,436.32,541.38,436.95,540.98z M356.16,426.46c0.77,0.07,1.58,0.28,1.99,0.83c0.44,0.61,0.35,1.55,0.24,2.07
	c-0.45,0.52-1.2,1.64-1.48,3.61c-0.01,0.05,0.01,0.1,0.01,0.14c0,0.09,0,0.18,0.01,0.26c0.02,0.08,0.04,0.16,0.07,0.24
	s0.06,0.15,0.11,0.22c0.04,0.07,0.09,0.13,0.15,0.19c0.05,0.06,0.11,0.12,0.18,0.17s0.14,0.09,0.22,0.13
	c0.05,0.02,0.08,0.05,0.13,0.07c0.2,0.06,3.77,1.24,7.65,1.34c-0.27,2.82-0.85,5.19-1.73,7.04c-0.71,1.5-2.15,2.51-3.85,2.7
	s-3.33-0.5-4.36-1.82C349.63,436.1,354.66,428.43,356.16,426.46z M350.72,431.84c-1.02,3.82-0.98,8.65,2.73,13.41
	c1.41,1.82,3.55,2.85,5.85,2.85c0.28,0,0.56-0.02,0.84-0.05c2.6-0.28,4.82-1.84,5.92-4.16c1.05-2.21,1.72-4.99,2-8.28
	c0.03,0,0.05-0.01,0.08-0.01c0.22,1.23,0.63,3.27,1.27,5.94c6.72,28.11,23.1,53.63,46.11,71.87c0.68,0.54,1.38,1.08,2.09,1.64
	c-30.39-17.95-50.19-41.02-61.96-58.4c-9.99-14.78-15.79-27.69-18.55-34.69C340.82,425.44,345.31,428.77,350.72,431.84z
	 M376.07,415.51c-4.11-8.97-6.02-24.84-6.46-29.01c3.18-1.11,6.45-2.54,9.78-4.37c3.26-1.8,6.4-3.9,9.44-6.27
	C382.85,390.95,377.96,408.45,376.07,415.51z M565.72,269.34c-10.88-2.19-19.35-3.13-22.88-3.46c1.05-2.35,3.34-6.8,6.78-9.78
	c2.23-1.93,5.15-2.71,8.03-2.15c2.92,0.57,5.39,2.43,6.76,5.12C565.78,261.75,566.24,265.44,565.72,269.34z M568.89,270
	c5.31-7.88,32.07-44.65,66.19-39.77c12.47,1.78,23.26,9.76,28.86,21.33c1.36,2.81,2.63,5.98,3.72,9.5
	c-6.28-7.26-13.88-11.4-22.69-12.31c-25.47-2.65-52.52,22.1-56.86,26.25C581.34,272.91,574.82,271.27,568.89,270z M592.64,276.45
	c-0.56-0.19-1.12-0.37-1.68-0.55c6.41-5.85,31.22-26.91,53.74-24.57c9.88,1.03,18.17,6.5,24.63,16.25
	c1.7,8.15,2.28,17.84,0.72,29.15c-4.25-16.17-11.24-25.78-20.81-28.57c-16.41-4.78-34.53,11.96-38.21,15.58
	C605.3,281.07,599.17,278.64,592.64,276.45z M613.55,284.94c4.63-4.35,20.94-18.38,34.96-14.28c9.73,2.83,16.6,13.84,20.42,32.71
	c-1.61,8.01-4.29,16.77-8.3,26.27C652.66,311.4,636.6,296.2,613.55,284.94z M717.34,442.61c-4.92-18.32-9.18-46.98,1.88-72.48
	c0.28-0.66-0.02-1.43-0.68-1.71c-0.66-0.29-1.42,0.02-1.71,0.67c-11.74,27.09-6.69,57.52-1.46,76.11c0,0.23,0.07,0.44,0.18,0.64
	c1.84,6.44,3.68,11.4,4.8,14.2c-19.58-6.14-33.37-16.49-41.01-30.77c-2.12-3.96-3.69-8.09-4.82-12.29c0-0.02,0-0.03-0.01-0.04
	c-4.99-18.68-1.1-38.93,3.66-53.84c2.66-8.33,6.41-16.59,11.46-25.26c13.82-23.75,12.8-43.03,12.75-43.84
	c-0.04-0.72-0.64-1.27-1.38-1.22c-0.71,0.05-1.26,0.66-1.21,1.38c0.01,0.19,1.02,19.3-12.41,42.37
	c-5.14,8.84-8.96,17.27-11.68,25.78c-4.85,15.17-8.8,35.78-3.79,54.96c-3.21,6.92-3.15,13.7-2.75,17.45
	c-15.59-10.54-21.15-26.14-22.1-41.33c-0.34-5.21-0.12-10.37,0.42-15.27c0.72-6.58,2.04-12.68,3.4-17.75
	c1.73-6.44,4.3-13.12,7.63-19.87c1.17-2.35,2.24-4.67,3.26-6.94c0.01-0.03,0.02-0.05,0.03-0.08c17.55-39.55,12.32-66.84,4.48-83.05
	c-5.98-12.36-17.5-20.87-30.83-22.78c-32.63-4.65-58.59,26.78-66.92,38.32c-0.04-3.03-0.66-5.84-1.81-8.09
	c-1.74-3.4-4.86-5.76-8.57-6.48c-3.66-0.72-7.39,0.28-10.23,2.74c-5.36,4.63-8.07,12.13-8.18,12.45c0,0,0,0.01,0,0.02
	c-0.01,0.01-0.01,0.02-0.02,0.03c-1.64,5.29-3.72,10.91-6.16,16.71c-5.59,13.27-12.94,25.49-21.75,36.29
	c-3.55,4.35-7.35,8.47-11.36,12.33c-3.87,3.73-7.94,7.22-12.2,10.44c-39.85,30.17-82.09,28.97-93.19,28.03
	c20.28-19.56,34.77-53.27,43.19-100.6c0.12-0.71-0.35-1.38-1.06-1.51c-0.71-0.12-1.38,0.35-1.5,1.05
	c-8.59,48.28-23.47,82.13-44.34,100.97c-0.11,0.07-0.22,0.17-0.3,0.28c-4.07,3.63-8.35,6.7-12.86,9.19
	c-18.49,10.21-35.71,7.47-42.77,5.62c27.2-11.68,29.79-31.16,29.92-37.04l0.02-0.94c0.07-3.42,0.15-6.94,0.35-10.39
	c4.6-77.54,45.92-124.01,46.34-124.47c0.48-0.53,0.44-1.35-0.09-1.84c-0.54-0.48-1.36-0.44-1.84,0.09
	c-0.42,0.47-42.35,47.57-47.01,126.06c-0.2,3.5-0.28,7.05-0.35,10.49l-0.02,0.94c-0.04,1.88-0.36,5.24-1.79,9.3
	c-4.29-2.91-17.74-10.31-30.74,0.76c-6.39,5.46-10.21,13.68-10.48,22.58c-0.1,3.49,0.12,7.84,1.12,12.64
	c-8.9-7.6-34.73-34.29-20.53-78.44c0.22-0.68-0.16-1.41-0.84-1.63c-0.68-0.22-1.41,0.15-1.63,0.84c-2.4,7.44-3.67,14.39-4.12,20.82
	c-3.23-8.03-8.51-25.54-4.97-48.16c4.53-28.98,24.89-72.39,96.16-114.67c1.02-0.6,102.07-59.75,147.43-32.76
	c15.54,9.25,22.91,27.79,21.9,55.12c-0.02,0.72,0.54,1.32,1.26,1.35c0.71,0,1.32-0.54,1.34-1.26c0.23-6.09,0.02-11.74-0.57-17
	c2.76-1.75,14.38-8.71,29.67-12.39c23.29-5.6,43.57-1.33,60.3,12.71c0.24,0.21,0.54,0.31,0.83,0.31c0.37,0,0.74-0.16,1-0.47
	c0.46-0.55,0.39-1.37-0.16-1.83c-21.69-18.2-46.05-17.24-62.66-13.23c-14.32,3.46-25.24,9.55-29.33,12.05
	c-0.43-2.98-1-5.82-1.71-8.51c2.54-2.14,13.26-10.54,25.89-11.33c0.71-0.04,1.26-0.66,1.21-1.38c-0.04-0.71-0.67-1.26-1.38-1.21
	c-12.39,0.77-22.72,8.14-26.51,11.19c-1.2-3.84-2.69-7.35-4.49-10.55c47.61-17.31,89-17.78,123.04-1.37
	c45.35,21.87,68.94,69.2,80.74,105.05c13.33,40.5,13.33,84.33-0.02,123.44C740.88,414.94,722.76,436.63,717.34,442.61z
	 M510.61,707.29c0,3.87,2.25,6.9,5.14,6.9c0.55,0,1.08-0.11,1.57-0.32c2.09-0.87,3.56-3.45,3.56-6.58c0-0.45-0.03-0.9-0.09-1.33
	c-0.45-3.21-2.5-5.56-5.04-5.56C512.86,700.4,510.61,703.42,510.61,707.29z M518.15,705.96c0.08,0.41,0.13,0.86,0.13,1.33
	c0,1.38-0.4,2.54-0.96,3.3c-0.46,0.64-1.03,1-1.57,1c-1.21,0-2.54-1.77-2.54-4.3c0-2.53,1.33-4.29,2.54-4.29
	C516.73,703,517.79,704.17,518.15,705.96z M511.91,689.16c2.88,0,5.13-3.03,5.13-6.9s-2.25-6.89-5.13-6.89
	c-2.89,0-5.14,3.02-5.14,6.89S509.02,689.16,511.91,689.16z M511.91,677.96c1.2,0,2.54,1.77,2.54,4.3c0,2.53-1.34,4.3-2.54,4.3
	c-1.2,0-2.54-1.77-2.54-4.3C509.37,679.73,510.71,677.96,511.91,677.96z M465.71,720.38c1.35,1.4,3.44,2.3,5.78,2.3
	c4.09,0,7.42-2.74,7.42-6.12c0-1.9-1.05-3.6-2.71-4.73c-1.28-0.87-2.92-1.39-4.71-1.39c-4.09,0-7.41,2.74-7.41,6.12
	c0,0.47,0.06,0.93,0.19,1.37C464.52,718.84,465.02,719.67,465.71,720.38z M471.49,713.04c2.66,0,4.82,1.58,4.82,3.52
	s-2.16,3.52-4.82,3.52c-2.65,0-4.81-1.58-4.81-3.52S468.84,713.04,471.49,713.04z M434.79,718.69c0.05,0.01,0.7,0.16,1.88,0.44
	c1.69,0.41,4.45,1.08,8.06,1.98c3.56,0.89,7.94,2,12.92,3.3c2.18,0.57,4.49,1.18,6.89,1.82c11.15,2.97,24.36,6.65,37.69,10.74
	c0.13,0.04,0.26,0.06,0.38,0.06c0.48,0,0.94-0.27,1.16-0.72c0.1-0.19,1.25-2.48,2.71-5.82c1.59-3.67,3.56-8.61,4.91-13.47
	c0.18-0.64-0.15-1.31-0.76-1.56c-0.1-0.04-3.31-1.34-8.69-3.29c-1.13-0.42-2.37-0.86-3.69-1.33c-3.25-1.14-7.03-2.42-11.21-3.77
	c-2.55-0.82-5.25-1.66-8.08-2.5c-4.19-1.25-8.64-2.5-13.25-3.69c-1.42-0.37-2.85-0.73-4.3-1.08c-5.29-1.29-10.74-2.48-16.21-3.47
	c-0.53-0.09-1.07,0.14-1.35,0.6c-0.02,0.03-0.56,0.92-1.43,2.49c-1.02,1.81-2.5,4.54-4.14,7.87c-1.41,2.83-2.93,6.1-4.4,9.63
	c-0.14,0.35-0.13,0.75,0.05,1.09C434.1,718.35,434.41,718.6,434.79,718.69z M441.19,707.28c1.38-2.74,2.61-5,3.48-6.56
	c0.39-0.7,0.71-1.26,0.95-1.67c4.05,0.75,8.08,1.61,12.04,2.53c2.72,0.64,5.41,1.3,8.05,1.99c4.63,1.2,9.08,2.47,13.27,3.72
	c2.83,0.86,5.54,1.7,8.09,2.53c10.74,3.47,18.7,6.52,21.5,7.62c-0.67,2.24-1.46,4.49-2.27,6.6c-0.91,2.38-1.84,4.57-2.64,6.37
	c-0.72,1.62-1.34,2.92-1.73,3.75c-5.72-1.74-11.41-3.41-16.91-4.98c-1.97-0.56-3.92-1.11-5.84-1.65c-4.71-1.32-9.23-2.55-13.47-3.68
	c-2.82-0.75-5.52-1.46-8.06-2.12c-5.01-1.31-9.4-2.42-12.93-3.3c-3.38-0.85-5.97-1.47-7.56-1.85c-0.1-0.03-0.19-0.05-0.28-0.07
	C438.34,713.09,439.84,709.95,441.19,707.28z M343.44,415.45c0,3.18,2.59,5.77,5.77,5.77c3.19,0,5.77-2.59,5.77-5.77
	c0-3.18-2.58-5.77-5.77-5.77C346.03,409.68,343.44,412.27,343.44,415.45z M352.38,415.45c0,1.75-1.42,3.17-3.17,3.17
	c-1.74,0-3.17-1.42-3.17-3.17s1.43-3.17,3.17-3.17C350.96,412.28,352.38,413.7,352.38,415.45z"/>
<path id="CODE_x5F_52372C" class="st2" d="M719.22,370.13c0.28-0.66-0.02-1.43-0.68-1.71c-0.66-0.29-1.42,0.02-1.71,0.67
	c-11.74,27.09-6.69,57.52-1.46,76.11c0,0.23,0.07,0.44,0.18,0.64c1.84,6.44,3.68,11.4,4.8,14.2c-19.58-6.14-33.37-16.49-41.01-30.77
	c-2.12-3.96-3.69-8.09-4.82-12.29c0-0.02,0-0.03-0.01-0.04c-4.99-18.68-1.1-38.93,3.66-53.84c2.66-8.33,6.41-16.59,11.46-25.26
	c13.82-23.75,12.8-43.03,12.75-43.84c-0.04-0.72-0.64-1.27-1.38-1.22c-0.71,0.05-1.26,0.66-1.21,1.38
	c0.01,0.19,1.02,19.3-12.41,42.37c-5.14,8.84-8.96,17.27-11.68,25.78c-4.85,15.17-8.8,35.78-3.79,54.96
	c-3.21,6.92-3.15,13.7-2.75,17.45c-15.59-10.54-21.15-26.14-22.1-41.33c-0.34-5.21-0.12-10.37,0.42-15.27
	c0.72-6.58,2.04-12.68,3.4-17.75c1.73-6.44,4.3-13.12,7.63-19.87c1.17-2.35,2.24-4.67,3.26-6.94c0.01-0.03,0.02-0.05,0.03-0.08
	c17.55-39.55,12.32-66.84,4.48-83.05c-5.98-12.36-17.5-20.87-30.83-22.78c-32.63-4.65-58.59,26.78-66.92,38.32
	c-0.04-3.03-0.66-5.84-1.81-8.09c-1.74-3.4-4.86-5.76-8.57-6.48c-3.66-0.72-7.39,0.28-10.23,2.74c-5.36,4.63-8.07,12.13-8.18,12.45
	c0,0,0,0.01,0,0.02c-0.01,0.01-0.01,0.02-0.02,0.03c-1.64,5.29-3.72,10.91-6.16,16.71c-5.59,13.27-12.94,25.49-21.75,36.29
	c-3.55,4.35-7.35,8.47-11.36,12.33c-3.87,3.73-7.94,7.22-12.2,10.44c-39.85,30.17-82.09,28.97-93.19,28.03
	c20.28-19.56,34.77-53.27,43.19-100.6c0.12-0.71-0.35-1.38-1.06-1.51c-0.71-0.12-1.38,0.35-1.5,1.05
	c-8.59,48.28-23.47,82.13-44.34,100.97c-0.11,0.07-0.22,0.17-0.3,0.28c-4.07,3.63-8.35,6.7-12.86,9.19
	c-18.49,10.21-35.71,7.47-42.77,5.62c27.2-11.68,29.79-31.16,29.92-37.04l0.02-0.94c0.07-3.42,0.15-6.94,0.35-10.39
	c4.6-77.54,45.92-124.01,46.34-124.47c0.48-0.53,0.44-1.35-0.09-1.84c-0.54-0.48-1.36-0.44-1.84,0.09
	c-0.42,0.47-42.35,47.57-47.01,126.06c-0.2,3.5-0.28,7.05-0.35,10.49l-0.02,0.94c-0.04,1.88-0.36,5.24-1.79,9.3
	c-4.29-2.91-17.74-10.31-30.74,0.76c-6.39,5.46-10.21,13.68-10.48,22.58c-0.1,3.49,0.12,7.84,1.12,12.64
	c-8.9-7.6-34.73-34.29-20.53-78.44c0.22-0.68-0.16-1.41-0.84-1.63c-0.68-0.22-1.41,0.15-1.63,0.84c-2.4,7.44-3.67,14.39-4.12,20.82
	c-3.23-8.03-8.51-25.54-4.97-48.16c4.53-28.98,24.89-72.39,96.16-114.67c1.02-0.6,102.07-59.75,147.43-32.76
	c15.54,9.25,22.91,27.79,21.9,55.12c-0.02,0.72,0.54,1.32,1.26,1.35c0.71,0,1.32-0.54,1.34-1.26c0.23-6.09,0.02-11.74-0.57-17
	c2.76-1.75,14.38-8.71,29.67-12.39c23.29-5.6,43.57-1.33,60.3,12.71c0.24,0.21,0.54,0.31,0.83,0.31c0.37,0,0.74-0.16,1-0.47
	c0.46-0.55,0.39-1.37-0.16-1.83c-21.69-18.2-46.05-17.24-62.66-13.23c-14.32,3.46-25.24,9.55-29.33,12.05
	c-0.43-2.98-1-5.82-1.71-8.51c2.54-2.14,13.26-10.54,25.89-11.33c0.71-0.04,1.26-0.66,1.21-1.38c-0.04-0.71-0.67-1.26-1.38-1.21
	c-12.39,0.77-22.72,8.14-26.51,11.19c-1.2-3.84-2.69-7.35-4.49-10.55c47.61-17.31,89-17.78,123.04-1.37
	c45.35,21.87,68.94,69.2,80.74,105.05c13.33,40.5,13.33,84.33-0.02,123.44c-11.82,34.63-29.94,56.32-35.36,62.3
	C712.42,424.29,708.16,395.63,719.22,370.13z M677.05,430.5c-1.6-3-2.9-6.08-3.94-9.21c-2.72,8.23-0.97,15.69-0.95,15.78
	c0.13,0.51-0.07,1.04-0.49,1.35c-0.23,0.17-0.5,0.25-0.77,0.25c-0.23,0-0.47-0.06-0.67-0.18c-3.94-2.38-7.31-5.04-10.21-7.91
	c-0.09,1.46,0.07,2.59,0.12,2.97c3.37,3.66,5.84,8.16,7.08,13.14c2.45,9.85,1.55,20.35-2.67,31.23c0.02,0.04,0.03,0.08,0.04,0.13
	c1.48,7,5.96,11.24,8.14,12.93c2.74-6.13,13.69-29,27.87-36.69C690.13,448.17,682.24,440.21,677.05,430.5z M649.24,268.16
	c9.57,2.79,16.56,12.4,20.81,28.57c1.56-11.31,0.98-21-0.72-29.15c-6.46-9.75-14.75-15.22-24.63-16.25
	c-22.52-2.34-47.33,18.72-53.74,24.57c0.56,0.18,1.12,0.36,1.68,0.55c6.53,2.19,12.66,4.62,18.39,7.29
	C614.71,280.12,632.83,263.38,649.24,268.16z M668.93,303.37c-3.82-18.87-10.69-29.88-20.42-32.71
	c-14.02-4.1-30.33,9.93-34.96,14.28c23.05,11.26,39.11,26.46,47.08,44.7C664.64,320.14,667.32,311.38,668.93,303.37z M644.97,248.75
	c8.81,0.91,16.41,5.05,22.69,12.31c-1.09-3.52-2.36-6.69-3.72-9.5c-5.6-11.57-16.39-19.55-28.86-21.33
	c-34.12-4.88-60.88,31.89-66.19,39.77c5.93,1.27,12.45,2.91,19.22,5C592.45,270.85,619.5,246.1,644.97,248.75z M633.39,445.93
	l9.62-5.73c-3.05-5.47-7.91-9.1-13.52-9.37c-0.22-0.01-0.44-0.02-0.66-0.02c-0.6,0-1.2,0.04-1.78,0.12
	c-0.09,0.01-0.17,0.02-0.25,0.04c-0.34,0.06-0.68,0.12-1.03,0.19c-1.29,0.28-2.53,0.75-3.72,1.38c1.88-0.57,3.72-0.4,5.26,0.48
	c3.61,2.09,4.35,7.59,1.65,12.27c-2,3.45-5.32,5.5-8.37,5.5c-1.08,0-2.13-0.26-3.08-0.8c-1.79-1.04-2.94-2.92-3.22-5.3
	c-0.24-2.07,0.2-4.3,1.26-6.36c-2.94,4-4.85,9.31-5.13,15.2c-0.04,0.94-0.05,1.87-0.01,2.8c1.02,1.27,6.78,7.9,15.08,6.57
	c2.32-0.37,4.44-1.61,5.83-3.42c1.88-2.43,3.69-6.55,1.64-12.36C632.8,446.67,632.99,446.17,633.39,445.93z M557.65,253.95
	c-2.88-0.56-5.8,0.22-8.03,2.15c-3.44,2.98-5.73,7.43-6.78,9.78c3.53,0.33,12,1.27,22.88,3.46c0.52-3.9,0.06-7.59-1.31-10.27
	C563.04,256.38,560.57,254.52,557.65,253.95z M543.05,952.6c-7.55-2.35-12.98-10.12-14.8-13.02c-4.02,2.12-18.04,9.23-33.61,14.02
	c8.71,15.68,47.95,8.89,54.48,7.63c0.05-0.91-0.04-1.85-0.28-2.8C548.16,955.69,546,953.51,543.05,952.6z M536.01,746.49l-1.2-14.64
	c-1.7-0.29-3.68-0.11-4.84,0.05c-0.11,4.63-0.41,9.3-0.95,13.92C530.85,746.42,533.97,747.13,536.01,746.49z M496.97,410.18
	c-10.07,3.17-15.71-4.47-15.94-4.8c-0.3-0.41-0.86-0.54-1.3-0.29l-11.67,6.56c-1.5-3.5-2.33-7.4-2.33-11.51
	c0-15.18,11.38-27.55,25.44-27.7c0.09-0.01,0.18-0.01,0.27-0.01c0.21,0,0.42,0,0.63,0.02c0.45,0.02,0.9,0.04,1.36,0.07
	c0.21,0.01,0.42,0.03,0.63,0.05c8.56,0.94,15.89,6.43,19.87,14.18l-10.03,5.39c-0.42,0.23-0.62,0.71-0.48,1.17
	c1.09,3.64,1.26,6.94,0.51,9.79C503.06,406.44,500.45,409.08,496.97,410.18z M488.42,386.06c-0.29-2.4-1.44-4.3-3.26-5.35
	c-3.65-2.11-8.84,0.02-11.57,4.74c-1.29,2.24-1.85,4.73-1.58,7.03c0.29,2.4,1.45,4.3,3.27,5.35c0.95,0.55,2.02,0.83,3.14,0.83
	c1.01,0,2.07-0.23,3.12-0.68c2.12-0.91,4.01-2.65,5.3-4.89C488.13,390.85,488.69,388.36,488.42,386.06z M369.41,441.54
	c-0.64-2.67-1.05-4.71-1.27-5.94c-0.03,0-0.05,0.01-0.08,0.01c-0.28,3.29-0.95,6.07-2,8.28c-1.1,2.32-3.32,3.88-5.92,4.16
	c-0.28,0.03-0.56,0.05-0.84,0.05c-2.3,0-4.44-1.03-5.85-2.85c-3.71-4.76-3.75-9.59-2.73-13.41c-5.41-3.07-9.9-6.4-13.62-9.88
	c2.76,7,8.56,19.91,18.55,34.69c11.77,17.38,31.57,40.45,61.96,58.4c-0.71-0.56-1.41-1.1-2.09-1.64
	C392.51,495.17,376.13,469.65,369.41,441.54z M379.39,382.13c-3.33,1.83-6.6,3.26-9.78,4.37c0.44,4.17,2.35,20.04,6.46,29.01
	c1.89-7.06,6.78-24.56,12.76-39.65C385.79,378.23,382.65,380.33,379.39,382.13z"/>
<path id="CODE_x5F_FDE8B8" class="st3" d="M622.55,395.54c-0.05,0.01-0.09,0.01-0.14,0.01c-0.31,0-0.6-0.14-0.79-0.39
	c-0.22-0.28-0.27-0.66-0.13-0.99c2.33-5.71,8.57-10.94,13.39-14.32c2.93-2.06,6.51-3.07,10.11-2.87c0.75-6.41,2.04-12.33,3.38-17.29
	c1.77-6.6,4.41-13.44,7.81-20.34c1.08-2.17,2.07-4.3,3.01-6.39c-21.36-54.39-106.97-63.64-117.3-64.56
	c-1.62,5.08-3.61,10.44-5.93,15.96c-5.51,13.07-12.7,25.15-21.3,35.88c5.1,2.41,22.86,11.12,39.13,23.33
	c4.64,3.49,7.95,8.57,9.34,14.32c1.5,6.22,2.45,12.04,2.83,17.29c0.03,0.42-0.19,0.8-0.57,0.98c-0.14,0.07-0.28,0.1-0.43,0.1
	c-0.25,0-0.5-0.1-0.69-0.28c-0.31-0.3-30.9-29.29-62.4-41.77c-3.83,3.66-7.85,7.09-12.05,10.27
	c-43.36,32.83-89.58,29.19-96.95,28.36c-8.35,19.76-15.05,46.23-15.11,46.5c-0.13,0.5-0.54,0.88-1.05,0.96
	c-0.07,0.02-0.14,0.02-0.22,0.02c-0.43,0-0.84-0.22-1.09-0.59c-5.36-8.25-7.72-26.79-8.32-32.4c-6.36,1.91-12.28,2.57-17.41,2.57
	c-10.78,0-18.08-2.89-18.61-3.1c-0.49-0.2-0.81-0.69-0.81-1.22c0.01-0.54,0.34-1.01,0.84-1.2c8.25-3.11,14.34-6.92,18.86-10.9
	c-3.22-0.95-9.86-2.1-14.27,2.66c-0.25,0.28-0.6,0.42-0.95,0.42c-0.32,0-0.63-0.12-0.88-0.35c-0.53-0.49-0.56-1.31-0.07-1.84
	c6.24-6.73,15.54-3.97,18.33-2.92c3.82-3.85,6.28-7.78,7.86-11.35c-3.11-2.28-15.69-10.27-28.07,0.28
	c-5.84,4.98-9.33,12.51-9.57,20.67c-0.34,11.64,3.06,33.23,29.25,48.29c1.28-3.04,2.95-5.01,2.99-5.05
	c0.25-0.29,0.61-0.45,0.98-0.45c2.2,0,3.79,0.65,4.71,1.94c1.39,1.93,0.62,4.38,0.53,4.65c-0.08,0.24-0.23,0.44-0.42,0.6
	c0,0-0.36,0.34-0.64,1.21c1.94,0.51,6,1.37,9.16,0.58c0.35-0.09,0.73-0.02,1.03,0.18c0.31,0.2,0.51,0.53,0.57,0.89
	c0,0.03,0.4,2.7,1.44,7.05c6.6,27.54,22.65,52.56,45.2,70.43c20.92,16.58,56.57,39.08,107.59,52.15c9.28,2.38,18.8,3.39,28.28,3.01
	c16.76-0.67,48.37-3.61,71.64-15.7c17.02-8.85,28.48-26.38,29.91-45.77c0.39-5.28,0.64-12.33-0.91-20.37
	c-0.01,0.01-0.02,0.01-0.03,0.01c0,0,0,0,0,0.01c-1.17,1.51-6.4,7.74-13.54,7.3c-3.32-0.78-6.59-2.02-9.56-3.79
	c-2.98-1.74-5.78-3.81-8.29-6.17c-2.51-2.37-4.83-4.92-6.83-7.71c-0.12-0.17-0.25-0.34-0.36-0.52c-0.61-0.66-1.17-1.38-1.7-2.14
	c-2.89-4.14-4.58-9.3-4.89-14.8c0-0.01,0-0.01,0-0.02c0-0.06-0.01-0.12-0.01-0.18c-0.05-1.07-0.05-2.16,0-3.25
	c0.4-8.28,3.83-15.5,8.83-19.93c-1.77,0.62-3.62,1.35-5.54,2.2c-0.44,0.2-0.96,0.05-1.23-0.36c-0.27-0.4-0.22-0.93,0.13-1.27
	c0.17-0.17,17.02-16.17,37.96-8.31c3.26,1.22,6.23,2.98,8.82,5.16c0.02-0.83,0.1-1.78,0.31-2.77c-8.75-9.9-12.36-21.97-13.22-33.81
	C633.62,394.02,622.67,395.52,622.55,395.54z M349.21,421.22c-3.18,0-5.77-2.59-5.77-5.77c0-3.18,2.59-5.77,5.77-5.77
	c3.19,0,5.77,2.59,5.77,5.77C354.98,418.63,352.4,421.22,349.21,421.22z M507.43,430.95l-1.73,0.32l-1.74,0.18l-3.5,0.27l-3.52-0.01
	c-0.59-0.02-1.18,0.01-1.76-0.04l-1.75-0.16c-1.17-0.12-2.35-0.17-3.5-0.36l-3.48-0.58c-1.15-0.21-2.29-0.5-3.44-0.75
	c-4.54-1.14-9.01-2.62-13.26-4.55c-4.26-1.93-8.38-4.19-12.08-7.02c-7.82-4.87-12.05-12.92-13.3-15.61
	c-0.33,0.16-0.73,0.1-1.02-0.12c-2.82-2.21-5.37-4.71-7.57-7.45c-2.25-2.81-2.04-6.88,0.5-9.46c23.85-24.29,56.35-21.26,56.67-21.23
	c39.09,2.49,47.65,40.99,47.73,41.38c0.11,0.48-0.16,0.97-0.63,1.14c-0.12,0.04-0.23,0.06-0.34,0.06c-0.12,0-0.23-0.02-0.34-0.07
	c-1.42,3.61-7.91,16.84-28.52,23.36C509.72,430.5,508.58,430.74,507.43,430.95z M591.33,505.64c-2.29,0.92-4.57,1.3-6.79,1.3
	c-6.2,0-11.95-3.02-16.11-6.02c-4.34-3.12-9.5-4.98-14.94-5.39c-21.04-1.57-31.07-15.99-31.48-16.6c-0.41-0.6-0.25-1.4,0.34-1.81
	c0.59-0.4,1.4-0.25,1.81,0.35c0.09,0.14,9.78,14,29.52,15.47c5.92,0.44,11.54,2.47,16.27,5.87c5.13,3.69,12.83,7.45,20.42,4.42
	c0.66-0.27,1.42,0.05,1.68,0.72C592.32,504.62,592,505.37,591.33,505.64z M647.08,647.65c0.48,1.02,0.54,2.59-0.86,3.69
	c-3.74,2.91-9.16,3.88-16.13,2.87c-0.7-0.11-1.37,0.38-1.47,1.1c-0.1,0.71,0.39,1.37,1.1,1.47c1.91,0.28,3.72,0.41,5.43,0.41
	c0.08,0,0.16,0,0.24,0c1.41,0.11,2.81,0.19,4.17,0.23c0.86,0.02,1.54,0.51,1.84,1.31c0.24,0.65,0.22,1.59-0.56,2.31
	c-6.95,6.37-16.14,4.96-19.44,4.18c2.74-7.52,2.95-15.37,2.39-21.53c3.68,1.54,11.66,4.18,19.99,2.33
	C645.47,645.65,646.59,646.62,647.08,647.65z M641.94,664.35c1.27,1.12,0.99,2.53,0.37,3.4c-0.65,0.91-1.96,1.66-3.5,0.77
	c-0.71-0.4-1.3-0.8-1.95-1.82c1.55-0.68,3.09-1.59,4.58-2.77C641.58,664.05,641.75,664.18,641.94,664.35z M634.37,667.6
	c0.21,0.37,0.43,0.71,0.65,1.01c-0.46,0.81-2.01,3.31-4.68,5.3c-1.29,0.97-2.67,0.63-3.54,0c-0.88-0.66-1.63-1.92-1.07-3.49
	c0.22-0.6,0.48-1.23,0.78-1.88c0.31,0.01,0.64,0.02,0.97,0.02C629.59,668.56,631.96,668.31,634.37,667.6z M620.41,667.66
	c0.78,0.21,1.94,0.47,3.36,0.65c-0.18,0.42-0.34,0.83-0.49,1.23c-0.34,0.96-0.41,1.93-0.26,2.86c-0.7,0.92-2.54,3.07-4.67,3.32
	c-0.84,0.09-1.65-0.13-2.46-0.66C617.77,672.71,619.26,670.22,620.41,667.66z M503.15,559.91c1.72,2.23,12.82,17.1,19.52,36.18
	c-10.91-19-24.99-33.65-32.55-40.82C494.32,556.88,498.67,558.42,503.15,559.91z M436.02,528.05c5.26,3.39,11,6.83,17.24,10.24
	c-5.52-1.16-11.67-1.82-15.82-0.38C437.41,534.18,436.68,530.58,436.02,528.05z M379.96,661.07c-0.53,1.42-2.77,6.86-6.75,9.72
	c-0.63,0.45-1.42,0.56-2.15,0.28c-0.72-0.27-1.23-0.85-1.41-1.59c-0.78-3.29-1.15-7.87,1.54-11.03c0.47-0.54,0.4-1.36-0.15-1.83
	c-0.54-0.47-1.36-0.4-1.83,0.15c-3.3,3.87-3.03,9.13-2.16,12.98c-8.09,3.87-15.9,2.29-18.9,1.43c0.9-2.42,1.32-5.86,0.44-10.75
	c-0.26-1.4,0.01-2.77,0.74-3.75c1.06-1.46,1.97-1.26,2.78-0.83c0,0.01,0.01,0.01,0.01,0.01c2.29,1.6,4.9,2.78,7.79,3.04
	c0.04,0.01,0.08,0.01,0.12,0.01c0.66,0,1.23-0.51,1.29-1.18c0.06-0.72-0.46-1.35-1.18-1.42c-7.45-0.67-13.09-8.87-15.16-12.36
	c-0.72-1.21-0.89-2.56-0.46-3.72c0.31-0.82,0.78-1.33,1.46-1.57c0.77-0.26,1.69-0.06,2.39,0.54c0.51,0.42,1,0.81,1.48,1.18
	c0,0.01,0,0.01,0,0.01c5.76,4.44,9.81,5.07,9.99,5.1c0.71,0.09,1.36-0.39,1.47-1.1c0.1-0.71-0.39-1.37-1.09-1.48
	c-0.04,0-2.86-0.47-7.12-3.37c2.56-1.08,7.48-2.5,12.53-0.44C372.11,641.73,376.93,649.12,379.96,661.07z M349.15,653.43
	c-0.7,0.36-1.35,0.93-1.92,1.71c-1.14,1.56-1.58,3.65-1.2,5.75c0.97,5.41,0.2,8.65-0.85,10.56c0,0.01-0.01,0.01-0.01,0.02
	c-0.45,0.8-0.94,1.37-1.38,1.76c-0.43,0.39-0.81,0.61-1.03,0.71c-1.24-0.09-2.27-0.6-3.12-1.56c-0.89-1-1.51-2.35-1.94-3.84
	c-0.01-0.03-0.02-0.06-0.03-0.09c-1.34-4.7-0.83-10.65-0.82-10.75c0.66-9.74,2.92-12.74,4.2-13.67c0.36-0.26,0.69-0.38,0.95-0.44
	c0.18,0.58,0.42,1.14,0.74,1.68C343.91,647.24,346.12,650.55,349.15,653.43z M334.26,657.49c-0.03,0.34-0.52,6.04,0.78,11.12
	c-0.26,0.38-0.56,0.74-0.91,1.05c-0.83,0.72-1.87,1.08-2.94,0.98c-1.05-0.09-2-0.6-2.68-1.45c-1.06-1.31-1.62-3.07-1.9-4.87
	c0-0.02,0-0.03,0-0.05c0-0.01-0.01-0.02-0.01-0.03c-0.58-3.82,0.1-7.75,0.11-7.81c0.19-1.03,0.43-1.96,0.69-2.8
	c0.01-0.02,0.01-0.04,0.02-0.05c0.87-2.77,2.17-4.58,3.86-5.38c1.67-0.78,3.43-0.42,4.49-0.05
	C335.02,650.64,334.51,653.76,334.26,657.49z M317.14,657.63c2.81-0.5,5.34-1.38,7.11-2.11c-0.03,0.15-0.06,0.29-0.09,0.44
	c-0.05,0.24-0.64,3.63-0.28,7.4c-2.8,0.26-5.28-0.2-7.38-1.38c-1.09-0.61-1.33-1.69-1.2-2.5
	C315.37,659.11,315.69,657.88,317.14,657.63z"/>
<path id="CODE_x5F_B39667" class="st4" d="M599.81,627.57c-15.35-5.15-30.89-5.31-38.85-4.94c-0.17,0.01-0.34,0.01-0.52,0l0.07,7.22
	l-8.06,0.09l-0.08-7.99l5.42-0.05c-1.45-0.8-2.57-2.18-2.99-3.88c-3.6-14.44-9.75-27.45-14.88-36.69v0.36l-8.06,0.08l-0.08-7.98
	l3.68-0.04c-1.97-3.16-3.45-5.28-4.04-6.12c-0.9-0.16-1.8-0.34-2.69-0.52c-1.25,1.9-4.66,7.53-5.85,13.7
	c2.13,0.14,5.83,1.1,9.72,5.53c1.17,1.33,1.93,3.07,2.42,4.84l4.99-0.05l0.08,7.98l-4.37,0.04c-0.14,1.36-0.54,3.5-2.22,5.74
	c0.18,0.55,0.59,1.83,1.14,3.72l5.55-0.06l0.08,7.98l-3.45,0.03c3.4,13.44,7.82,36.01,5.62,56.3c-0.88,8.18-0.07,16.33,2.4,24.22
	c1.84,5.86,4.43,12.76,7.96,19.7l-0.08-7.75l6.16-0.07c-1.23-2.99-2.57-6.12-4.02-9.39l-2.23,0.02l-0.05-5.05
	c-0.6-1.3-1.21-2.61-1.84-3.94c-2.6-5.52-3.95-11.73-3.9-17.95c0.23-28.41-4.05-51.33-4.09-51.56c-0.14-0.7,0.33-1.38,1.03-1.52
	c0.7-0.13,1.39,0.33,1.52,1.04c0.04,0.21,3.71,19.89,4.11,45.39c16.02,5.94,33.14,7.65,36.22,7.92
	C607.53,656.92,601.11,631.86,599.81,627.57z M552.37,639.37l8.06-0.08l0.08,7.98l-8.06,0.08L552.37,639.37z M552.63,664.77
	l-0.08-7.98l8.05-0.08l0.08,7.98L552.63,664.77z M574.11,625.98l8.06-0.08l0.08,7.99l-8.06,0.08L574.11,625.98z M574.28,643.4
	l8.06-0.08l0.08,7.99l-8.06,0.08L574.28,643.4z M574.54,668.81l-0.08-7.99l8.06-0.08l0.08,7.98L574.54,668.81z M568.39,742.29
	c-0.07,2.33-0.61,3.92-1.67,4.67c-0.05,0.05-2.16,1.74-5.52,3.87l-0.07-7.05l-8.06,0.08l0.08,7.99l6.52-0.07
	c-5.22,3.15-12.69,6.84-20.18,7.7c0.08-4.75-0.3-8.46-0.56-10.36c3.2-0.76,5.81-4.18,6.14-4.62c0.18-0.25,0.27-0.56,0.25-0.87
	l-1.13-15.12c3.42-3.16,4.91-8.29,5.56-12.04c1.63,3.32,3.48,6.68,5.56,9.95l-2.41,0.02l0.08,7.99l7.99-0.08
	C563.23,737.15,565.69,739.83,568.39,742.29z M552.92,717.01l7.94-0.08l-0.03-3.12c4.08,10.46,6.57,18.87,7.32,24.68
	c-2.62-2.61-5-5.42-7.16-8.34l-0.04-3.79l-2.58,0.03C556.34,723.31,554.53,720.16,552.92,717.01z M525.38,925.52
	c0.12,1.36,0.28,2.7,0.46,4.02c-1.55-0.06-3.13-0.03-4.74,0.09c-0.05,0.01-0.1,0.01-0.15,0.01c-1.04,0-1.92-0.8-1.99-1.85
	c-0.09-1.1,0.74-2.06,1.84-2.15C522.35,925.52,523.88,925.48,525.38,925.52z M517.31,696.04v-8.31l6.39,0.01
	c-0.09-0.5-0.18-0.99-0.27-1.47c-0.51-2.79-0.9-5.57-1.19-8.35h-4.93l0.01-8.31h4.38c-0.03-0.74-0.04-1.48-0.04-2.22
	c-4.24-0.17-7.44-2.59-9.3-7.08c-1-2.42-1.43-5.11-1.25-7.77c0.66-9.63-2.14-20.75-6.16-31.3h-6.7v-8.36h3.23
	c-5.43-12.09-11.75-22.57-15.14-27.9l0.05,4.83l-8.06,0.08l-0.08-7.98l3.74-0.04c-0.27-0.09-0.47-0.2-0.6-0.28
	c-0.19-0.12-0.35-0.29-0.46-0.49c-5.08-9.59-10.25-16.67-15.21-21.88v3.96h-8.06v-8.31h3.51c-6.36-5.45-12.19-7.99-16.79-9.1
	l0.02,7.16l-8.06,0.02l-0.02-7.86l3.94-0.01c-3.79-0.34-6.08,0.28-6.16,0.3c-0.1,0.03-0.21,0.05-0.32,0.06c0,0,0,0-0.01,0
	c-0.12,0-6.46,0.36-15.9,5.75l3.74-0.02l0.05,8.15l-8.06,0.04l-0.03-5.49c-4.97,3.36-10.56,8.07-16.41,14.66l0.01,5.23l-4.4,0.02
	c-4.22,5.33-8.53,11.66-12.79,19.18c-0.06,0.11-3.42,6.28-9.27,15.01l0.01,4.03l-2.76,0.01c-4.5,6.44-10.11,13.82-16.55,21.03
	c5.09-1.96,12.42-3.53,19.38-0.43c8.63,3.83,14.27,13.79,16.82,29.57c1.06-0.58,2.62-1.47,4.56-2.66l-2.87,0.01l-0.02-7.86
	l8.06-0.02l0.01,4.53c4.75-3.21,10.6-7.56,16.7-13.05l-0.02-2.99l3.26-0.02c3.87-3.69,7.79-7.84,11.55-12.45
	c0.45-0.55,1.27-0.64,1.83-0.18c0.56,0.45,0.64,1.27,0.18,1.82c-3.19,3.92-6.51,7.52-9.82,10.79l1.06-0.01l0.05,8.15l-8.06,0.05
	l-0.01-1.72c-2.52,2.21-4.99,4.22-7.34,6.03c0.43,5.07,2.5,36.39-8.2,71.88l0.01,2.22h-0.7c-0.97,3.1-2.05,6.22-3.23,9.36l3.84-0.02
	l0.04,8.15l-7.2,0.04c-1.89,4.32-3.99,8.64-6.34,12.93c1.47-0.74,3.31-1.55,5.54-2.31l-0.01-0.98l3.24-0.02h0.01
	c5.24-1.44,12.1-2.51,20.71-2.3l-0.02-4.99l8.06-0.04l0.03,5.56c3.54,0.38,7.33,0.97,11.36,1.81c0.95,0.19,1.92,0.41,2.9,0.63v-0.1
	l-0.01-3.54l8.06-0.02l0.01,5.76c4.23,1.11,8.52,1.92,12.82,2.42v-4.86h8.06v5.44c3.25,0.09,7.18,0.28,11.51,0.63
	c0.01,0,0.02,0,0.04,0c0.01,0,0.01,0,0.02,0c0.73,0.06,1.48,0.12,2.23,0.19l-0.04-4.34l8.06-0.08l0.05,5.31
	c3.49,0.45,7.08,1.02,10.67,1.73v-4.52h8.05v6.36c3.8,1.01,7.52,2.2,11.01,3.61l0.01-8.17h6.42c5.54-21.45,3.84-46.46,1.28-64.3
	H517.31z M362.71,629.17l-0.03-7.86l8.06-0.02l0.03,7.86L362.71,629.17z M389.09,583.08h0.05l8.01-0.03h0.05l0.02,7.86h-0.05
	l-8.01,0.02h-0.05L389.09,583.08z M389.14,600.22l8.06-0.02l0.02,7.86l-8.06,0.02L389.14,600.22z M389.18,617.37l8.06-0.02
	l0.03,7.86l-8.06,0.02L389.18,617.37z M389.26,642.38l-0.03-7.86l8.06-0.02l0.02,7.86L389.26,642.38z M413.65,569l8.06-0.04
	l0.04,8.15l-8.06,0.04L413.65,569z M413.75,586.78l8.06-0.04l0.04,8.15l-8.06,0.04L413.75,586.78z M413.84,604.57l8.06-0.05
	l0.05,8.15l-8.06,0.05L413.84,604.57z M413.98,630.5l-0.04-8.15l8.06-0.04l0.04,8.15L413.98,630.5z M422.33,683.81l-8.06,0.04
	l-0.04-8.15l8.05-0.04L422.33,683.81z M414.13,657.92l8.06-0.04l0.04,8.15l-8.06,0.04L414.13,657.92z M414.18,693.19l8.06-0.04
	l0.04,8.15l-8.06,0.04L414.18,693.19z M422.33,710.93l0.05,8.15l-8.06,0.05l-0.05-8.15L422.33,710.93z M414.37,736.93l-0.05-8.15
	l8.06-0.04l0.04,8.15L414.37,736.93z M511.91,675.37c2.88,0,5.13,3.02,5.13,6.89s-2.25,6.9-5.13,6.9c-2.89,0-5.14-3.03-5.14-6.9
	S509.02,675.37,511.91,675.37z M498.25,631.12h8.05v8.36h-8.05V631.12z M498.25,649.36h8.05v8.36h-8.05V649.36z M498.25,667.6h8.05
	v8.36h-8.05V667.6z M498.25,685.85h8.05v8.36h-8.05V685.85z M487.26,694.32h-0.35l-7.71,0.09h-0.35l-0.08-7.99h0.35l7.71-0.08h0.35
	L487.26,694.32z M487.09,676.91l-8.06,0.08l-0.08-7.99l8.06-0.08L487.09,676.91z M486.91,659.49l-8.06,0.08l-0.08-7.99l8.06-0.08
	L486.91,659.49z M478.68,642.15l-0.08-7.98l8.06-0.09l0.08,7.99L478.68,642.15z M486.48,599.25l0.08,7.98l-8.06,0.08l-0.08-7.98
	L486.48,599.25z M478.6,616.75l7.88-0.08h0.18l0.08,7.98h-0.18l-7.88,0.08h-0.18l-0.08-7.98H478.6z M457.66,573h8.05v8.3h-8.06
	L457.66,573z M457.65,591.12h8.06v0.1h0.01v8.31h-8.06v-0.1h-0.01V591.12z M457.66,635.78v-8.31h8.06v8.31H457.66z M465.72,645.6
	v8.31l-8.06-0.01v-8.3H465.72z M457.66,617.65v-8.3h8.06v8.31L457.66,617.65z M457.66,663.72h8.05v8.31h-8.06L457.66,663.72z
	 M457.65,681.85L457.65,681.85l0.01-0.17h8.06v8.3h-0.01v0.18l-8.06-0.01V681.85z M444.74,690.12l-8.06,0.02l-0.02-7.86l8.06-0.02
	L444.74,690.12z M444.69,672.97l-8.06,0.02l-0.02-7.86l8.06-0.02L444.69,672.97z M444.65,655.82l-8.06,0.02l-0.03-7.85l8.06-0.03
	L444.65,655.82z M444.6,638.67l-8.06,0.03l-0.02-7.86l8.05-0.03L444.6,638.67z M444.55,621.52l-8.06,0.03l-0.02-7.86l8.06-0.03
	L444.55,621.52z M436.44,604.4l-0.02-7.86l8.06-0.02l0.02,7.85L436.44,604.4z M444.43,562.22l0.02,7.86l-8.06,0.02l-0.02-7.86
	L444.43,562.22z M436.42,579.39l8.01-0.02h0.05l0.02,7.86h-0.05l-8.01,0.02h-0.05l-0.02-7.86H436.42z M436.73,741.59l-0.02-7.86
	l8.06-0.02l0.02,7.86L436.73,741.59z M465.71,744.36h-8.06v-8.31h8.06V744.36z M479.38,746.66l-0.08-7.98l8.06-0.08l0.08,7.98
	L479.38,746.66z M506.3,748.66h-8.05v-8.36h8.05V748.66z M511.39,717.02c-1.35,4.86-3.32,9.8-4.91,13.47
	c-1.46,3.34-2.61,5.63-2.71,5.82c-0.22,0.45-0.68,0.72-1.16,0.72c-0.12,0-0.25-0.02-0.38-0.06c-13.33-4.09-26.54-7.77-37.69-10.74
	h-6.89v-1.82c-4.98-1.3-9.36-2.41-12.92-3.3l0.01,3.31l-8.06,0.02l-0.01-5.31c-1.18-0.28-1.83-0.43-1.88-0.44
	c-0.38-0.09-0.69-0.34-0.86-0.68c-0.18-0.34-0.19-0.74-0.05-1.09c1.47-3.53,2.99-6.8,4.4-9.63h-1.65l-0.02-7.86l5.81-0.01
	c0.87-1.57,1.41-2.46,1.43-2.49c0.28-0.46,0.82-0.69,1.35-0.6c5.47,0.99,10.92,2.18,16.21,3.47h4.3v1.08
	c4.61,1.19,9.06,2.44,13.25,3.69l-0.01-0.73l8.06-0.08l0.03,3.31c4.18,1.35,7.96,2.63,11.21,3.77v-7.03h8.05v8.36h-4.36
	c5.38,1.95,8.59,3.25,8.69,3.29C511.24,715.71,511.57,716.38,511.39,717.02z M525.38,750.52h-8.06v-8.31h8.06V750.52z M525.38,732.4
	l-8.06-0.01v-8.3h8.06V732.4z M525.38,714.27h-8.06v-0.4c-0.49,0.21-1.02,0.32-1.57,0.32c-2.89,0-5.14-3.03-5.14-6.9
	s2.25-6.89,5.14-6.89c2.54,0,4.59,2.35,5.04,5.56h4.59V714.27z M487.19,581.51c-0.08-0.13-0.16-0.25-0.24-0.37
	c1.35-0.68,2.95-1.78,4.81-3.53c5.37,6.69,33.21,43.39,30.2,81.29c-0.16,1.95-0.24,3.91-0.28,5.88c-3.16-0.17-5.48-1.99-6.92-5.46
	c-0.84-2.06-1.21-4.34-1.05-6.6c0.75-11.03-2.71-23.68-7.41-35.32c-0.62-1.53-1.26-3.04-1.91-4.52
	C497.99,598.31,490.16,585.98,487.19,581.51z M520.65,769.96c-0.99-0.46-2-0.9-3.03-1.32h3.52
	C520.99,769.08,520.82,769.52,520.65,769.96z M515.98,928.23c0.23,1.08-0.47,2.14-1.55,2.37c-2.12,0.44-4.33,1.02-6.57,1.73
	c-0.2,0.07-0.4,0.1-0.6,0.1c-0.85,0-1.64-0.54-1.91-1.39c-0.33-1.06,0.25-2.18,1.3-2.52c2.36-0.75,4.7-1.37,6.96-1.84
	C514.7,926.46,515.76,927.15,515.98,928.23z M487.07,709.82c10.74,3.47,18.7,6.52,21.5,7.62c-0.67,2.24-1.46,4.49-2.27,6.6v-1.99
	h-8.05v8.36h5.41c-0.72,1.62-1.34,2.92-1.73,3.75c-5.72-1.74-11.41-3.41-16.91-4.98l2.24-0.02l-0.08-7.98l-8.06,0.08l0.06,6.27
	c-4.71-1.32-9.23-2.55-13.47-3.68v-3.47c1.35,1.4,3.44,2.3,5.78,2.3c4.09,0,7.42-2.74,7.42-6.12c0-1.9-1.05-3.6-2.71-4.73
	c-1.28-0.87-2.92-1.39-4.71-1.39c-4.09,0-7.41,2.74-7.41,6.12c0,0.47,0.06,0.93,0.19,1.37h-6.62v3.8c-5.01-1.31-9.4-2.42-12.93-3.3
	v-1.87l-7.56,0.02c-0.1-0.03-0.19-0.05-0.28-0.07c1.46-3.42,2.96-6.56,4.31-9.23l3.5-0.01l-0.02-6.55c0.39-0.7,0.71-1.26,0.95-1.67
	c4.05,0.75,8.08,1.61,12.04,2.53l-0.01,6.53h8.06v-4.54c4.63,1.2,9.08,2.47,13.27,3.72l0.05,4.53l8.06-0.08L487.07,709.82z
	 M502.53,932.07c0.42,1.02-0.07,2.19-1.09,2.61c-2.05,0.85-4.15,1.8-6.25,2.84c-0.28,0.14-0.58,0.21-0.88,0.21
	c-0.74,0-1.45-0.41-1.8-1.11c-0.49-0.99-0.08-2.19,0.91-2.68c2.18-1.08,4.36-2.08,6.5-2.96
	C500.94,930.56,502.11,931.05,502.53,932.07z M489.87,938.04c0.55,0.95,0.22,2.18-0.74,2.73c-1.12,0.64-2.14,1.25-3.05,1.81
	c-1.02,0.64-2.08,1.22-3.16,1.73c-0.28,0.14-0.57,0.2-0.86,0.2c-0.75,0-1.47-0.42-1.81-1.14c-0.47-0.99-0.05-2.19,0.94-2.66
	c0.96-0.46,1.89-0.97,2.79-1.53c0.94-0.58,2-1.21,3.15-1.88C488.09,936.75,489.31,937.08,489.87,938.04z M475.44,942.79
	c0.02,1.33,0.04,2.67,0.07,4.03c-2.19,0.46-4.41,0.69-6.63,0.69h-0.4c-1.11-0.02-1.99-0.93-1.97-2.03c0.01-1.1,0.91-1.97,2-1.97
	c0.01,0,0.02,0,0.03,0h0.34c2.06,0,4.12-0.22,6.14-0.67C475.17,942.81,475.3,942.79,475.44,942.79z M471.49,720.08
	c-2.65,0-4.81-1.58-4.81-3.52s2.16-3.52,4.81-3.52c2.66,0,4.82,1.58,4.82,3.52S474.15,720.08,471.49,720.08z M463.52,945.1
	c-0.23,0.9-1.04,1.5-1.94,1.5c-0.16,0-0.33-0.02-0.49-0.06c-1.34-0.34-2.66-0.77-3.93-1.29c-0.35-0.14-0.67-0.28-0.97-0.41
	c0.08-1.3,0.19-2.72,0.31-4.26c0.43,0.21,1.17,0.57,2.15,0.96c1.11,0.45,2.26,0.83,3.43,1.12
	C463.15,942.94,463.79,944.03,463.52,945.1z M452.32,925.31c0.97,0.07,1.96,0.13,2.95,0.16c-0.15,1.37-0.28,2.7-0.41,3.99
	c-0.95-0.03-1.9-0.09-2.84-0.16c-1.1-0.08-1.93-1.04-1.84-2.14C450.26,926.06,451.22,925.23,452.32,925.31z M447.2,926.81
	c-0.17,0.98-1.02,1.67-1.97,1.67c-0.11,0-0.23-0.01-0.34-0.03c-2.41-0.4-4.77-0.92-7.03-1.54c-1.07-0.3-1.69-1.4-1.4-2.46
	c0.29-1.07,1.39-1.7,2.46-1.4c2.13,0.59,4.36,1.08,6.63,1.46C446.64,924.69,447.38,925.72,447.2,926.81z M438.71,787.94
	c0.06-0.04,0.1-0.08,0.15-0.11c-0.07-1.5-0.18-3.07-0.34-4.69c-0.11-1.1,0.7-2.07,1.8-2.18c1.09-0.11,2.07,0.7,2.18,1.8
	c0.2,2.03,0.33,4,0.4,5.84c0.01,0.52-0.17,1.03-0.52,1.41c-0.07,0.08-0.48,0.51-1.2,1.08c-0.36,0.29-0.8,0.43-1.23,0.43
	c-0.59,0-1.18-0.27-1.58-0.77C437.69,789.88,437.84,788.63,438.71,787.94z M436.43,769.5c-0.22-1.08,0.48-2.14,1.56-2.36
	c1.09-0.21,2.14,0.49,2.36,1.57c0.48,2.38,0.9,4.73,1.25,6.98c0.17,1.1-0.58,2.12-1.67,2.29c-0.11,0.01-0.21,0.02-0.31,0.02
	c-0.97,0-1.82-0.7-1.97-1.69C437.3,774.11,436.89,771.82,436.43,769.5z M434.93,762.73c-0.76-3.15-1.4-5.43-1.65-6.3
	c1.15,0.24,2.31,0.5,3.5,0.77c0.31,0.08,0.62,0.16,0.93,0.23c0.1,0.39,0.22,0.83,0.35,1.31c0.23,0.89,0.48,1.91,0.76,3.05
	c0.26,1.08-0.4,2.16-1.48,2.42c-0.16,0.04-0.31,0.05-0.47,0.05C435.97,764.26,435.15,763.65,434.93,762.73z M435.55,791.92
	c0.15,1.1-0.62,2.11-1.71,2.25c-0.71,0.1-1.43,0.15-2.15,0.15c-0.68,0-1.36-0.04-2.05-0.13c-1.14-1.48-2.25-3.04-3.3-4.68
	c0.3-0.05,0.62-0.03,0.94,0.07c2.08,0.68,4.1,0.89,6.01,0.63C434.38,790.06,435.4,790.83,435.55,791.92z M433.61,923.48
	c-0.31,0.78-1.06,1.24-1.85,1.24c-0.25,0-0.51-0.05-0.76-0.15c-1.99-0.83-3.55-1.61-4.64-2.22c0.19-1.31,0.47-2.7,0.83-4.15
	c0.8,0.5,2.59,1.54,5.34,2.67C433.55,921.29,434.04,922.46,433.61,923.48z M414.46,754.19c0.22,0.01,0.44,0.01,0.66,0.02
	c-0.03,0.17-0.05,0.34-0.07,0.51c-0.46,3.29-0.55,6.49-0.34,9.59c-0.88,1-2.58,2.02-3.58,2.54c-2.77-1.1-5.02-4.99-5.68-6.47
	c-0.23-0.51-0.76-0.82-1.32-0.77c-0.55,0.06-1.01,0.46-1.14,1.01c-0.99,4.35,1.95,8.8,3.57,10.85c-2.88,1.89-5.53,3.17-7.95,3.83
	l-0.02-3.67l-8.06,0.04l0.02,3.18c-5.59-2.82-7.4-10.88-7.83-13.36c1.06-0.73,3.62-2.31,7.78-3.82l0.03,4.35l8.06-0.04l-0.04-6.51
	C402.93,754.6,408.21,754.05,414.46,754.19z M355.5,443.65c-5.87-7.55-0.84-15.22,0.66-17.19c0.77,0.07,1.58,0.28,1.99,0.83
	c0.44,0.61,0.35,1.55,0.24,2.07c-0.45,0.52-1.2,1.64-1.48,3.61c-0.01,0.05,0.01,0.1,0.01,0.14c0,0.09,0,0.18,0.01,0.26
	c0.02,0.08,0.04,0.16,0.07,0.24s0.06,0.15,0.11,0.22c0.04,0.07,0.09,0.13,0.15,0.19c0.05,0.06,0.11,0.12,0.18,0.17
	s0.14,0.09,0.22,0.13c0.05,0.02,0.08,0.05,0.13,0.07c0.2,0.06,3.77,1.24,7.65,1.34c-0.27,2.82-0.85,5.19-1.73,7.04
	c-0.71,1.5-2.15,2.51-3.85,2.7S356.53,444.97,355.5,443.65z M349.21,418.62c-1.74,0-3.17-1.42-3.17-3.17s1.43-3.17,3.17-3.17
	c1.75,0,3.17,1.42,3.17,3.17S350.96,418.62,349.21,418.62z"/>
<path id="CODE_x5F_63675A" class="st5" d="M536.3,749.1c0.45,3.22,1.65,14.55-1.64,26.51c-2.25,8.18-3.06,16.33-2.42,24.23
	c1.91,23.63,3.84,67.82-4.79,98.25c-1.61,5.67-2.45,11.52-2.49,17.38c-0.03,3.43,0.11,6.79,0.42,10.05c-1.5-0.04-3.03,0-4.58,0.12
	c-1.1,0.09-1.93,1.05-1.84,2.15c0.07,1.05,0.95,1.85,1.99,1.85c0.05,0,0.1,0,0.15-0.01c1.61-0.12,3.19-0.15,4.74-0.09h0.01
	c0.35,2.61,0.82,5.16,1.39,7.63c-4.8,2.51-28.33,14.4-48.94,17.59c-0.1-3.41-0.17-6.74-0.23-9.98c-0.63-35.56,0.93-60.85,2.43-76.28
	c1.08-11.04,1.11-22.12,0.09-32.91c-3.18-33.8-2.37-65.8-2.14-72.63c0.36,0.03,0.72,0.06,1.09,0.1l0.01,1.02l8.06-0.08v-0.04
	c3.48,0.45,7.06,1.03,10.64,1.75v1.19h5.4c6.07,1.49,11.96,3.44,17.12,5.99c0.02,0.01,0.04,0.01,0.06,0.02
	c0.01,0.01,0.01,0.01,0.02,0.02c0.02,0,0.03,0,0.05,0.01c0.15,0.05,0.3,0.09,0.45,0.09c0,0,0,0,0.01,0c0.12,0,0.24-0.02,0.35-0.05
	c0.05-0.02,0.09-0.04,0.13-0.06c0.07-0.03,0.14-0.06,0.2-0.1c0.05-0.02,0.08-0.06,0.12-0.1c0.06-0.04,0.11-0.08,0.16-0.14
	c0.04-0.04,0.07-0.09,0.1-0.13c0.03-0.05,0.07-0.09,0.09-0.15c0.01-0.01,0.01-0.02,0.01-0.03c0.01-0.02,0.02-0.03,0.03-0.04
	c0.49-1.18,0.95-2.37,1.38-3.59h1.44l0.01-4.45c1.5-5.07,2.57-10.36,3.31-15.74c1.35,0.41,3.37,0.9,5.39,0.9
	C534.83,749.35,535.58,749.27,536.3,749.1z M514.43,930.6c1.08-0.23,1.78-1.29,1.55-2.37c-0.22-1.08-1.28-1.77-2.37-1.55
	c-2.26,0.47-4.6,1.09-6.96,1.84c-1.05,0.34-1.63,1.46-1.3,2.52c0.27,0.85,1.06,1.39,1.91,1.39c0.2,0,0.4-0.03,0.6-0.1
	C510.1,931.62,512.31,931.04,514.43,930.6z M501.44,934.68c1.02-0.42,1.51-1.59,1.09-2.61s-1.59-1.51-2.61-1.09
	c-2.14,0.88-4.32,1.88-6.5,2.96c-0.99,0.49-1.4,1.69-0.91,2.68c0.35,0.7,1.06,1.11,1.8,1.11c0.3,0,0.6-0.07,0.88-0.21
	C497.29,936.48,499.39,935.53,501.44,934.68z M489.13,940.77c0.96-0.55,1.29-1.78,0.74-2.73c-0.56-0.96-1.78-1.29-2.74-0.74
	c-1.15,0.67-2.21,1.3-3.15,1.88c-0.9,0.56-1.83,1.07-2.79,1.53c-0.99,0.47-1.41,1.67-0.94,2.66c0.34,0.72,1.06,1.14,1.81,1.14
	c0.29,0,0.58-0.06,0.86-0.2c1.08-0.51,2.14-1.09,3.16-1.73C486.99,942.02,488.01,941.41,489.13,940.77z M523.93,768.64h1.44
	l0.01-4.45C524.94,765.7,524.45,767.18,523.93,768.64z M498.25,765.71v1.19h5.4C501.86,766.46,500.05,766.07,498.25,765.71z
	 M479.54,763.06l0.01,1.02l8.06-0.08v-0.04C484.83,763.59,482.13,763.29,479.54,763.06z M475.86,762.75
	c-3.79-0.28-7.24-0.44-10.15-0.53v0.26h-8.06v-0.82c-4.37-0.5-8.71-1.31-13.01-2.41c1.29,5.16,4.42,18.84,5.39,33.98
	c0.02,0.33-0.09,0.65-0.29,0.91c-0.28,0.33-5.99,7.18-13.54,7.68c3.09,3.2,6.01,5.78,8.26,7.62c5.43,4.43,10.09,9.16,13.86,14.06
	c3.11,4.05,5.93,8.39,8.39,12.9c3.88,7.1,4.88,15.3,2.8,23.08c-6.31,23.66-9.8,48.44-11.7,66.67c0.34,0.36,0.54,0.86,0.53,1.4
	c-0.01,0.65-0.34,1.23-0.83,1.58c-0.43,4.28-0.76,8.13-1.01,11.45c0.43,0.21,1.17,0.57,2.15,0.96c1.11,0.45,2.26,0.83,3.43,1.12
	c1.07,0.28,1.71,1.37,1.44,2.44c-0.23,0.9-1.04,1.5-1.94,1.5c-0.16,0-0.33-0.02-0.49-0.06c-1.34-0.34-2.66-0.77-3.93-1.29
	c-0.35-0.14-0.67-0.28-0.97-0.41c-0.28,4-0.42,6.81-0.48,8.12c5.39,2.66,12.43,3.06,20,2.15c-0.08-2.82-0.15-5.58-0.2-8.29
	c-2.19,0.46-4.41,0.69-6.63,0.69h-0.4c-1.11-0.02-1.99-0.93-1.97-2.03c0.01-1.1,0.91-1.97,2-1.97c0.01,0,0.02,0,0.03,0h0.34
	c2.06,0,4.12-0.22,6.14-0.67c0.15-0.03,0.28-0.05,0.42-0.05c-0.54-34.61,0.99-59.34,2.47-74.54c1.06-10.88,1.09-21.79,0.09-32.41
	C474.79,801.7,475.63,769.39,475.86,762.75z M464.43,837.65c3.56,6.51,4.47,14.03,2.57,21.16c-6.3,23.63-9.82,48.37-11.73,66.66
	c-0.99-0.03-1.98-0.09-2.95-0.16c-1.1-0.08-2.06,0.75-2.14,1.85c-0.09,1.1,0.74,2.06,1.84,2.14c0.94,0.07,1.89,0.13,2.84,0.16
	c-0.26,2.73-0.49,5.27-0.69,7.62c-11.24,1.71-24.32-2.89-26.78-3.81c-1.38-2.55-1.73-6.26-1.03-10.92c1.09,0.61,2.65,1.39,4.64,2.22
	c0.25,0.1,0.51,0.15,0.76,0.15c0.79,0,1.54-0.46,1.85-1.24c0.43-1.02-0.06-2.19-1.08-2.61c-2.75-1.13-4.54-2.17-5.34-2.67
	c0.16-0.67,0.34-1.35,0.54-2.04c1.67-5.87,4.45-11.9,8.25-17.92c12-18.98,18.04-40.07,20.57-50.95c1.28-5.49,0.6-11.27-1.92-16.25
	c-3.18-6.3-7.59-13.53-11.06-18.96c4.95,4.12,9.22,8.49,12.69,13.01C459.28,829.03,462.03,833.26,464.43,837.65z M447.2,926.81
	c0.18-1.09-0.56-2.12-1.65-2.3c-2.27-0.38-4.5-0.87-6.63-1.46c-1.07-0.3-2.17,0.33-2.46,1.4c-0.29,1.06,0.33,2.16,1.4,2.46
	c2.26,0.62,4.62,1.14,7.03,1.54c0.11,0.02,0.23,0.03,0.34,0.03C446.18,928.48,447.03,927.79,447.2,926.81z M465.53,762.22
	c-2.63-0.08-5.26-0.26-7.88-0.56v0.82h8.06v-0.26C465.65,762.22,465.59,762.22,465.53,762.22z M457.51,929.13
	c0.49-0.35,0.82-0.93,0.83-1.58c0.01-0.54-0.19-1.04-0.53-1.4C457.7,927.17,457.6,928.16,457.51,929.13z M441.83,758.73
	c0.97,3.73,4.47,18.04,5.57,34.13c-1.41,1.55-7.17,7.32-13.71,6.25c-1.36-1.53-2.73-3.17-4.05-4.92c0.69,0.09,1.37,0.13,2.05,0.13
	c0.72,0,1.44-0.05,2.15-0.15c1.09-0.14,1.86-1.15,1.71-2.25c-0.15-1.09-1.17-1.86-2.26-1.71c-1.91,0.26-3.93,0.05-6.01-0.63
	c-0.32-0.1-0.64-0.12-0.94-0.07c-6.14-9.48-10.63-21.39-8.66-34.81l4.28-0.03c3.52,0.36,7.29,0.93,11.32,1.76
	c0.25,0.87,0.89,3.15,1.65,6.3c0.22,0.92,1.04,1.53,1.94,1.53c0.16,0,0.31-0.01,0.47-0.05c1.08-0.26,1.74-1.34,1.48-2.42
	c-0.28-1.14-0.53-2.16-0.76-3.05L441.83,758.73z M442.38,790.01c0.35-0.38,0.53-0.89,0.52-1.41c-0.07-1.84-0.2-3.81-0.4-5.84
	c-0.11-1.1-1.09-1.91-2.18-1.8c-1.1,0.11-1.91,1.08-1.8,2.18c0.16,1.62,0.27,3.19,0.34,4.69c-0.05,0.03-0.09,0.07-0.15,0.11
	c-0.87,0.69-1.02,1.94-0.34,2.81c0.4,0.5,0.99,0.77,1.58,0.77c0.43,0,0.87-0.14,1.23-0.43C441.9,790.52,442.31,790.09,442.38,790.01
	z M439.93,777.98c1.09-0.17,1.84-1.19,1.67-2.29c-0.35-2.25-0.77-4.6-1.25-6.98c-0.22-1.08-1.27-1.78-2.36-1.57
	c-1.08,0.22-1.78,1.28-1.56,2.36c0.46,2.32,0.87,4.61,1.22,6.81c0.15,0.99,1,1.69,1.97,1.69C439.72,778,439.82,777.99,439.93,777.98
	z M437.71,757.43c0.1,0.39,0.22,0.83,0.35,1.31l3.77-0.01c-0.02-0.09-0.04-0.17-0.06-0.24
	C440.39,758.11,439.04,757.76,437.71,757.43z M417.73,754.33c-0.02,0.12-0.04,0.25-0.05,0.37l4.28-0.03
	C420.51,754.52,419.1,754.41,417.73,754.33z"/>
<path id="CODE_x5F_947148" class="st6" d="M646.32,455.24c-0.61,12.7-8.8,22.72-18.41,22.72c-0.22,0-0.44-0.01-0.66-0.02
	c-3.81-0.18-7.36-1.9-10.26-4.92c-0.71-0.75-1.39-1.58-2.02-2.48c-2.18-3.11-3.62-6.86-4.24-10.91c-0.17-1.08-0.28-2.18-0.32-3.3
	c1.02,1.27,6.78,7.9,15.08,6.57c2.32-0.37,4.44-1.61,5.83-3.42c1.88-2.43,3.69-6.55,1.64-12.36c-0.16-0.45,0.03-0.95,0.43-1.19
	l9.62-5.73c0.32,0.58,0.62,1.17,0.89,1.79C645.65,445.83,646.55,450.39,646.32,455.24z M574.46,660.82l0.08,7.99l8.06-0.09
	l-0.08-7.98L574.46,660.82z M582.34,643.32l-8.06,0.08l0.08,7.99l8.06-0.08L582.34,643.32z M582.17,625.9l-8.06,0.08l0.08,7.99
	l8.06-0.08L582.17,625.9z M553.07,743.86l0.08,7.99l6.52-0.07c0.54-0.33,1.05-0.64,1.53-0.95l-0.07-7.05L553.07,743.86z
	 M560.99,730.15l-0.04-3.79l-2.58,0.03C559.2,727.66,560.08,728.91,560.99,730.15z M555.31,726.42l-2.41,0.02l0.08,7.99l7.99-0.08
	C558.91,731.79,557.03,729.13,555.31,726.42z M560.86,716.93l-0.03-3.12c-0.61-1.57-1.26-3.19-1.95-4.85l-6.16,0.07l0.08,7.75
	c0.04,0.07,0.08,0.15,0.12,0.23L560.86,716.93z M560.68,664.69l-0.08-7.98l-8.05,0.08l0.08,7.98L560.68,664.69z M560.51,629.85
	l-0.07-7.22c-0.94-0.04-1.85-0.3-2.64-0.73h-0.01l-5.42,0.05l0.08,7.99L560.51,629.85z M560.43,639.29l-8.06,0.08l0.08,7.98
	l8.06-0.08L560.43,639.29z M552.58,694.54l0.05,5.05l2.23-0.02C554.13,697.93,553.36,696.25,552.58,694.54z M523.77,966.41
	c-13,0-26.83-2.48-31.68-12.05c-7.79,2.23-15.84,3.8-23.13,3.8c-0.5,0-1-0.01-1.5-0.03c0.11,0.43,0.31,0.85,0.65,1.27
	c3.08,3.84,14.3,5.46,19.59,5.87l1.17-5.35c0.13-0.6,0.66-1.02,1.27-1.02c0.01,0,0.02,0,0.03,0c0.62,0.01,1.15,0.46,1.25,1.07
	c3.06,17.53,51.23,10.69,57.92,9.66c0.48-1.82,0.25-4.21-0.03-5.78C545.65,964.56,535.02,966.41,523.77,966.41z M538.62,746.51
	c1.61-0.52,3.27-2.21,4.07-3.19l-1.06-14.21c-1.92,0-3.58,1.44-4.26,2.14L538.62,746.51z M536.82,616.56l3.45-0.03l-0.08-7.98
	l-5.55,0.06C535.24,610.62,536,613.33,536.82,616.56z M535.79,598.24l-0.01,0.2c-0.01,0.2-0.03,0.44-0.06,0.71l4.37-0.04l-0.08-7.98
	l-4.99,0.05C535.82,594.07,535.88,597.01,535.79,598.24z M539.92,581.69v-0.36c-1.63-2.93-3.15-5.48-4.46-7.58l-3.68,0.04l0.08,7.98
	L539.92,581.69z M525.38,742.21h-8.06v8.31h8.06V742.21z M525.38,724.09h-8.06v8.3l8.06,0.01V724.09z M525.38,705.96h-4.59
	c0.06,0.43,0.09,0.88,0.09,1.33c0,3.13-1.47,5.71-3.56,6.58v0.4h8.06V705.96z M523.7,687.74l-6.39-0.01v8.31h7.71
	C524.59,693.05,524.14,690.27,523.7,687.74z M521.14,768.64c1.01-2.69,1.87-5.46,2.6-8.3h-6.42l-0.01,8.17
	c0.11,0.05,0.21,0.09,0.31,0.13H521.14z M521.7,669.61h-4.38l-0.01,8.31h4.93C521.95,675.14,521.77,672.37,521.7,669.61z
	 M515.75,711.59c0.54,0,1.11-0.36,1.57-1c0.56-0.76,0.96-1.92,0.96-3.3c0-0.47-0.05-0.92-0.13-1.33c-0.36-1.79-1.42-2.96-2.4-2.96
	c-1.21,0-2.54,1.76-2.54,4.29C513.21,709.82,514.54,711.59,515.75,711.59z M486.26,427.29c1.68,0.37,3.41,0.56,5.18,0.56
	c14.17,0,25.7-12.44,25.7-27.71c0-4.13-0.84-8.05-2.36-11.57c-0.25-0.62-0.54-1.23-0.85-1.82l-10.03,5.39
	c-0.42,0.23-0.62,0.71-0.48,1.17c1.09,3.64,1.26,6.94,0.51,9.79c-0.87,3.34-3.48,5.98-6.96,7.08c-10.07,3.17-15.71-4.47-15.94-4.8
	c-0.3-0.41-0.86-0.54-1.3-0.29l-11.67,6.56c0.26,0.62,0.54,1.22,0.85,1.81C472.48,420.46,478.79,425.63,486.26,427.29z
	 M511.91,677.96c-1.2,0-2.54,1.77-2.54,4.3c0,2.53,1.34,4.3,2.54,4.3c1.2,0,2.54-1.77,2.54-4.3
	C514.45,679.73,513.11,677.96,511.91,677.96z M498.25,763.06c2.7,0.53,5.4,1.14,8.05,1.84v-6.36h-8.05V763.06z M506.3,740.3h-8.05
	v8.36h8.05V740.3z M506.3,722.05h-8.05v8.36h5.41c0.8-1.8,1.73-3.99,2.64-6.37V722.05z M506.3,703.81h-8.05v7.03
	c1.32,0.47,2.56,0.91,3.69,1.33h4.36V703.81z M506.3,685.85h-8.05v8.36h8.05V685.85z M506.3,667.6h-8.05v8.36h8.05V667.6z
	 M506.3,649.36h-8.05v8.36h8.05V649.36z M506.3,631.12h-8.05v8.36h8.05V631.12z M498.25,612.88v8.36h6.7
	c-1.08-2.84-2.26-5.64-3.47-8.36H498.25z M487.58,761.33l-0.05-5.31l-8.06,0.08l0.04,4.34C482.1,760.67,484.8,760.96,487.58,761.33z
	 M487.44,746.58l-0.08-7.98l-8.06,0.08l0.08,7.98L487.44,746.58z M485.02,729.18l2.24-0.02l-0.08-7.98l-8.06,0.08l0.06,6.27
	C481.1,728.07,483.05,728.62,485.02,729.18z M487.09,676.91l-0.08-7.99l-8.06,0.08l0.08,7.99L487.09,676.91z M487.09,711.74
	l-0.02-1.92c-2.55-0.83-5.26-1.67-8.09-2.53l0.05,4.53L487.09,711.74z M487.04,707.07l-0.03-3.31l-8.06,0.08l0.01,0.73
	C481.79,705.41,484.49,706.25,487.04,707.07z M478.77,651.58l0.08,7.99l8.06-0.08l-0.08-7.99L478.77,651.58z M486.74,642.07
	l-0.08-7.99l-8.06,0.09l0.08,7.98L486.74,642.07z M486.56,607.23l-0.08-7.98l-8.06,0.08l0.08,7.98L486.56,607.23z M484.4,582.01
	c-0.36,0.06-0.69,0.09-0.99,0.09c-0.6,0-1.07-0.1-1.42-0.23l-3.74,0.04l0.08,7.98l8.06-0.08l-0.05-4.83
	C485.49,583.65,484.82,582.64,484.4,582.01z M479.2,694.41l7.71-0.09h0.35l-0.08-7.98h-0.35l-7.71,0.08h-0.35l0.08,7.99H479.2z
	 M478.68,624.73l7.88-0.08h0.18l-0.08-7.98h-0.18l-7.88,0.08h-0.18l0.08,7.98H478.68z M457.66,681.85L457.66,681.85l-0.01,8.3
	l8.06,0.01v-0.18h0.01v-8.3h-8.06V681.85z M457.66,653.9l8.06,0.01v-8.31h-8.06V653.9z M457.66,635.78h8.06v-8.31h-8.06V635.78z
	 M457.66,617.65l8.06,0.01v-8.31h-8.06V617.65z M461.17,554.87h-3.51v8.31h8.06v-3.96C464.18,557.59,462.66,556.15,461.17,554.87z
	 M457.65,759.04c2.65,0.31,5.3,0.5,7.96,0.58c0.03,0,0.06,0,0.1,0v-5.44h-8.06V759.04z M457.65,744.36h8.06v-8.31h-8.06V744.36z
	 M457.65,717.93v3.8c2.54,0.66,5.24,1.37,8.06,2.12v-3.47c-0.69-0.71-1.19-1.54-1.44-2.45H457.65z M457.65,708.11h8.06v-4.54
	c-2.64-0.69-5.33-1.35-8.05-1.99L457.65,708.11z M465.71,700.88v-1.08h-4.3C462.86,700.15,464.29,700.51,465.71,700.88z
	 M465.71,663.72h-8.05l-0.01,8.31h8.06V663.72z M465.71,591.12h-8.06v8.31h0.01v0.1h8.06v-8.31h-0.01V591.12z M465.71,573h-8.05
	l-0.01,8.3h8.06V573z M457.65,724.41v1.82h6.89C462.14,725.59,459.83,724.98,457.65,724.41z M439.72,939.26
	c0.14,0.29,0.34,0.6,0.62,0.94c1.44,1.75,4.92,3.97,13.22,4.93c0.04-0.52,0.07-1.05,0.12-1.61c0.06-0.96,0.13-1.98,0.21-3.06
	c0.02-0.24,0.04-0.48,0.06-0.73c-1.71,0.24-3.44,0.34-5.17,0.34C445.66,940.07,442.57,939.74,439.72,939.26z M444.83,756.62
	l-0.01-5.76l-8.06,0.02l0.01,3.54c0.03,0.03,0.05,0.07,0.08,0.12c2.05,0.48,4.16,1.02,6.33,1.63
	C443.73,756.32,444.28,756.47,444.83,756.62z M444.77,733.71l-8.06,0.02l0.02,7.86l8.06-0.02L444.77,733.71z M436.68,690.14
	l8.06-0.02l-0.02-7.86l-8.06,0.02L436.68,690.14z M444.73,721.11c-3.61-0.9-6.37-1.57-8.06-1.98l0.01,5.31l8.06-0.02L444.73,721.11z
	 M444.72,718.43v-1.87l-7.56,0.02C438.75,716.96,441.34,717.58,444.72,718.43z M436.63,672.99l8.06-0.02l-0.02-7.86l-8.06,0.02
	L436.63,672.99z M441.19,707.28l3.5-0.01l-0.02-6.55C443.8,702.28,442.57,704.54,441.19,707.28z M444.62,647.96l-8.06,0.03
	l0.03,7.85l8.06-0.02L444.62,647.96z M444.57,630.81l-8.05,0.03l0.02,7.86l8.06-0.03L444.57,630.81z M444.53,613.66l-8.06,0.03
	l0.02,7.86l8.06-0.03L444.53,613.66z M444.48,596.52l-8.06,0.02l0.02,7.86l8.06-0.03L444.48,596.52z M436.39,570.1l8.06-0.02
	l-0.02-7.86l-8.06,0.02L436.39,570.1z M444.45,587.23h0.05l-0.02-7.86h-0.05l-8.01,0.02h-0.05l0.02,7.86h0.05L444.45,587.23z
	 M444.38,545.77c-1.51-0.37-2.9-0.58-4.12-0.69l-3.94,0.01l0.02,7.86l8.06-0.02L444.38,545.77z M442.42,699.42l-5.81,0.01l0.02,7.86
	h1.65C439.92,703.96,441.4,701.23,442.42,699.42z M414.42,746.56l0.02,4.99c2.53,0.06,5.22,0.23,8.07,0.53l-0.03-5.56L414.42,746.56
	z M422.38,728.74l-8.06,0.04l0.05,8.15l8.05-0.04L422.38,728.74z M422.38,719.08l-0.05-8.15l-8.06,0.05l0.05,8.15L422.38,719.08z
	 M414.27,683.85l8.06-0.04l-0.05-8.15l-8.05,0.04L414.27,683.85z M422.24,693.15l-8.06,0.04l0.04,8.15l8.06-0.04L422.24,693.15z
	 M422.19,657.88l-8.06,0.04l0.04,8.15l8.06-0.04L422.19,657.88z M422.09,640.09l-1.06,0.01c-2.33,2.32-4.67,4.48-6.96,6.47
	l0.01,1.72l8.06-0.05L422.09,640.09z M422,622.31l-8.06,0.04l0.04,8.15l8.06-0.04L422,622.31z M421.9,604.52l-8.06,0.05l0.05,8.15
	l8.06-0.05L421.9,604.52z M421.81,586.74l-8.06,0.04l0.04,8.15l8.06-0.04L421.81,586.74z M421.71,568.96l-8.06,0.04l0.04,8.15
	l8.06-0.04L421.71,568.96z M421.61,551.17l-3.74,0.02c-1.37,0.78-2.8,1.67-4.3,2.68l0.03,5.49l8.06-0.04L421.61,551.17z
	 M414.03,640.14l0.02,2.99c1.07-0.96,2.15-1.96,3.24-3.01L414.03,640.14z M390.53,771.67l0.02,3.18c0.12,0.06,0.24,0.12,0.37,0.18
	c2.21,0.99,4.78,1.08,7.69,0.27l-0.02-3.67L390.53,771.67z M398.59,761.98l-0.04-6.51c-3.15,0.62-5.83,1.4-8.05,2.2l0.03,4.35
	L398.59,761.98z M398.53,724.48c-0.22,0.74-0.45,1.48-0.69,2.22h0.7L398.53,724.48z M391.29,744.23l7.2-0.04l-0.04-8.15l-3.84,0.02
	C393.59,738.78,392.48,741.51,391.29,744.23z M397.35,656.18l-0.01-4.53l-8.06,0.02l0.02,7.86l2.87-0.01
	C393.68,658.59,395.43,657.48,397.35,656.18z M397.29,634.5l-8.06,0.02l0.03,7.86l8.05-0.02L397.29,634.5z M397.24,617.35
	l-8.06,0.02l0.03,7.86l8.06-0.02L397.24,617.35z M397.2,600.2l-8.06,0.02l0.02,7.86l8.06-0.02L397.2,600.2z M397.16,568.53
	c-1.45,1.63-2.92,3.38-4.39,5.25l4.4-0.02L397.16,568.53z M397.17,590.91h0.05l-0.02-7.86h-0.05l-8.01,0.03h-0.05l0.02,7.85h0.05
	L397.17,590.91z M390.48,753.87l0.01,0.98c1-0.35,2.07-0.68,3.23-1L390.48,753.87z M362.68,621.31l0.03,7.86l8.06-0.02l-0.03-7.86
	L362.68,621.31z M370.71,607.97c-0.86,1.29-1.79,2.65-2.75,4.04l2.76-0.01L370.71,607.97z"/>
<path id="CODE_x5F_664925" class="st7" d="M667.22,446.69c-1.24-4.98-3.71-9.48-7.08-13.14c-0.85-0.93-1.77-1.81-2.74-2.63
	c-2.59-2.18-5.56-3.94-8.82-5.16c-20.94-7.86-37.79,8.14-37.96,8.31c-0.35,0.34-0.4,0.87-0.13,1.27c0.27,0.41,0.79,0.56,1.23,0.36
	c1.92-0.85,3.77-1.58,5.54-2.2c-5,4.43-8.43,11.65-8.83,19.93c-0.05,1.09-0.05,2.18,0,3.25c0,0.06,0.01,0.12,0.01,0.18
	c0,0.01,0,0.01,0,0.02c0.31,5.5,2,10.66,4.89,14.8c0.53,0.76,1.09,1.48,1.7,2.14c0.11,0.18,0.24,0.35,0.36,0.52
	c2,2.79,4.32,5.34,6.83,7.71c2.51,2.36,5.31,4.43,8.29,6.17c2.97,1.77,6.24,3.01,9.56,3.79c-2.93-1.79-5.79-3.47-8.45-5.49
	c-0.68-0.47-1.31-1.02-1.97-1.52c-0.65-0.52-1.33-0.99-1.94-1.56l-1.9-1.6l-1.83-1.69c-0.36-0.33-0.71-0.66-1.06-1
	c1.36,0.45,2.78,0.72,4.23,0.79c0.25,0.01,0.5,0.02,0.75,0.02c10.68,0,19.76-10.86,20.42-24.62c0.27-5.59-0.9-10.84-3.09-15.17
	c0.01-0.02,0-0.04-0.02-0.05c-0.02-0.04-0.03-0.07-0.06-0.11c-2.26-4.4-5.59-7.84-9.55-9.67c9.87,0.38,14.5,4.64,14.6,4.74
	c17.05,14.36-1.45,48.76-1.64,49.11c-0.18,0.33-0.16,0.73,0.05,1.04c0.19,0.28,0.5,0.44,0.83,0.44c0.04,0,0.08,0,0.13-0.01
	c1.38-0.18,2.74-0.52,4.04-0.95c0-0.01,0-0.01,0-0.01c0.01-0.01,0.02-0.02,0.03-0.03c0.01,0.01,0,0.02,0,0.02
	c0.85-0.28,1.68-0.61,2.47-0.96c2.68-1.17,4.94-2.59,6.34-3.54c0.88-0.61,1.42-1.03,1.49-1.09c0.14-0.11,0.24-0.25,0.31-0.41
	c0.1-0.26,0.21-0.51,0.3-0.77C668.77,467.04,669.67,456.54,667.22,446.69z M643.01,440.2c0.32,0.58,0.62,1.17,0.89,1.79
	c1.75,3.84,2.65,8.4,2.42,13.25c-0.61,12.7-8.8,22.72-18.41,22.72c-0.22,0-0.44-0.01-0.66-0.02c-3.81-0.18-7.36-1.9-10.26-4.92
	c-0.71-0.75-1.39-1.58-2.02-2.48c-2.18-3.11-3.62-6.86-4.24-10.91c-0.17-1.08-0.28-2.18-0.32-3.3c-0.04-0.93-0.03-1.86,0.01-2.8
	c0.28-5.89,2.19-11.2,5.13-15.2c1.82-2.5,4.04-4.49,6.5-5.79c1.19-0.63,2.43-1.1,3.72-1.38c0.34-0.08,0.68-0.15,1.03-0.19
	c0.08-0.02,0.16-0.03,0.25-0.04c0.58-0.08,1.18-0.12,1.78-0.12c0.22,0,0.44,0.01,0.66,0.02C635.1,431.1,639.96,434.73,643.01,440.2z
	 M621.62,395.16c-0.22-0.28-0.27-0.66-0.13-0.99c2.33-5.71,8.57-10.94,13.39-14.32c2.93-2.06,6.51-3.07,10.11-2.87
	c-0.09,0.66-0.16,1.33-0.23,2c-0.42,4.3-0.6,8.79-0.39,13.34c0.03,0.67,0.07,1.34,0.12,2.02c-10.87-0.32-21.82,1.18-21.94,1.2
	c-0.05,0.01-0.09,0.01-0.14,0.01C622.1,395.55,621.81,395.41,621.62,395.16z M592.05,503.95c0.27,0.67-0.05,1.42-0.72,1.69
	c-2.29,0.92-4.57,1.3-6.79,1.3c-6.2,0-11.95-3.02-16.11-6.02c-4.34-3.12-9.5-4.98-14.94-5.39c-21.04-1.57-31.07-15.99-31.48-16.6
	c-0.41-0.6-0.25-1.4,0.34-1.81c0.59-0.4,1.4-0.25,1.81,0.35c0.09,0.14,9.78,14,29.52,15.47c5.92,0.44,11.54,2.47,16.27,5.87
	c5.13,3.69,12.83,7.45,20.42,4.42C591.03,502.96,591.79,503.28,592.05,503.95z M564.27,375.98c-0.31-0.3-30.9-29.29-62.4-41.77
	c0.53-0.5,1.05-1.01,1.57-1.52c3.48-3.42,6.78-7.04,9.91-10.84c0.45-0.53,0.88-1.07,1.31-1.61c5.1,2.41,22.86,11.12,39.13,23.33
	c4.64,3.49,7.95,8.57,9.34,14.32c1.5,6.22,2.45,12.04,2.83,17.29c0.03,0.42-0.19,0.8-0.57,0.98c-0.14,0.07-0.28,0.1-0.43,0.1
	C564.71,376.26,564.46,376.16,564.27,375.98z M519.14,400.14c0-4.78-1.06-9.29-2.94-13.29c-0.02-0.08-0.06-0.15-0.11-0.23
	c-2.1-4.43-5.23-8.21-9.03-11c2.78,1.11,5.58,2.55,8.38,4.37c0.14,0.09,14.01,8.71,23.38,26.44c0.12,0.23,0.32,0.39,0.55,0.46
	c0.11,0.05,0.22,0.07,0.34,0.07c0.11,0,0.22-0.02,0.34-0.06c0.47-0.17,0.74-0.66,0.63-1.14c-0.08-0.39-8.64-38.89-47.73-41.38
	c-0.32-0.03-32.82-3.06-56.67,21.23c-2.54,2.58-2.75,6.65-0.5,9.46c2.2,2.74,4.75,5.24,7.57,7.45c0.29,0.22,0.69,0.28,1.02,0.12
	c0.01-0.01,0.03-0.01,0.04-0.02c0.35-0.17,0.56-0.53,0.56-0.91l-0.12-6.08c-0.04-1.63,0.65-3.18,1.87-4.26
	c4.86-4.3,16.72-13.63,31.52-17.35c-8.63,5.03-14.51,14.85-14.51,26.12c0,4.73,1.04,9.2,2.89,13.17c0.02,0.08,0.06,0.16,0.1,0.24
	c0.01,0.01,0.01,0.02,0.02,0.03c2.34,4.93,5.92,9.07,10.31,11.94c-2.2-0.66-4.38-1.37-6.55-2.13c-4.32-1.54-8.59-3.24-12.83-5.14
	c3.7,2.83,7.82,5.09,12.08,7.02c4.25,1.93,8.72,3.41,13.26,4.55c1.15,0.25,2.29,0.54,3.44,0.75l3.48,0.58
	c1.15,0.19,2.33,0.24,3.5,0.36l1.75,0.16c0.58,0.05,1.17,0.02,1.76,0.04l3.52,0.01l3.5-0.27l1.74-0.18l1.73-0.32
	c1.15-0.21,2.29-0.45,3.42-0.7c-1.17-0.02-2.33-0.03-3.48-0.01l-1.73,0.03l-1.72-0.1l-3.43-0.15l-3.42-0.34
	c-0.47-0.05-0.94-0.11-1.4-0.17C508.94,427.31,519.14,414.98,519.14,400.14z M491.44,427.85c-1.77,0-3.5-0.19-5.18-0.56
	c-7.47-1.66-13.78-6.83-17.35-13.83c-0.31-0.59-0.59-1.19-0.85-1.81c-1.5-3.5-2.33-7.4-2.33-11.51c0-15.18,11.38-27.55,25.44-27.7
	c0.09-0.01,0.18-0.01,0.27-0.01c0.21,0,0.42,0,0.63,0.02c0.46,0,0.91,0.03,1.36,0.07c0.21,0.01,0.42,0.03,0.63,0.05
	c8.56,0.94,15.89,6.43,19.87,14.18c0.31,0.59,0.6,1.2,0.85,1.82c1.52,3.52,2.36,7.44,2.36,11.57
	C517.14,415.41,505.61,427.85,491.44,427.85z"/>
<path id="CODE_x5F_FFFFFF" class="st8" d="M649.57,485.66c1.38-0.18,2.74-0.52,4.04-0.95c-1.17,1.51-6.4,7.74-13.54,7.3
	c-2.93-1.79-5.79-3.47-8.45-5.49c-0.68-0.47-1.31-1.02-1.97-1.52c-0.65-0.52-1.33-0.99-1.94-1.56l-1.9-1.6l-1.83-1.69
	c-0.36-0.33-0.71-0.66-1.06-1c1.36,0.45,2.78,0.72,4.23,0.79c0.25,0.01,0.5,0.02,0.75,0.02c10.68,0,19.76-10.86,20.42-24.62
	c0.27-5.59-0.9-10.84-3.09-15.17c0.01-0.02,0-0.04-0.02-0.05c0-0.02-0.01-0.04-0.02-0.06c-0.01-0.02-0.02-0.04-0.04-0.05
	c-2.26-4.4-5.59-7.84-9.55-9.67c9.87,0.38,14.5,4.64,14.6,4.74c17.05,14.36-1.45,48.76-1.64,49.11c-0.18,0.33-0.16,0.73,0.05,1.04
	c0.19,0.28,0.5,0.44,0.83,0.44C649.48,485.67,649.52,485.67,649.57,485.66z M617.51,449.99c0.95,0.54,2,0.8,3.08,0.8
	c3.05,0,6.37-2.05,8.37-5.5c2.7-4.68,1.96-10.18-1.65-12.27c-1.54-0.88-3.38-1.05-5.26-0.48c-2.46,1.3-4.68,3.29-6.5,5.79
	c-1.06,2.06-1.5,4.29-1.26,6.36C614.57,447.07,615.72,448.95,617.51,449.99z M603.7,633.85c1.27,9.81,0.78,27.02-14.16,40.19
	l16.63,6.3c21-13.54,14.74-41.16,13.29-46.49H603.7z M541.11,693.27c-1.58-6.79-2-13.73-1.25-20.69
	c2.18-20.23-2.34-42.84-5.71-55.99c-0.76-2.96-1.46-5.44-2.01-7.3v-0.01c-0.26-0.89-0.49-1.64-0.68-2.24
	c-0.74,0.64-1.6,1.27-2.63,1.87c0.59,5.09,3.57,31.75,4.35,58.12c0.12,3.93,0.8,7.78,2.03,11.47c1.48,4.4,3,9.48,4.28,14.93
	c2.44,10.42,4.03,22.2,2.82,33.12c0.05,0,0.1,0.02,0.15,0.02c4.51-4.2,5.11-13.08,5.18-14.62c-2.2-4.99-3.93-9.81-5.28-14.09
	C541.88,696.34,541.47,694.81,541.11,693.27z M530.58,667.1c-0.8-27.31-3.99-54.94-4.39-58.38c-6.78-8.69-15.02-12.07-19.22-13.29
	c9.32,16.05,19.49,39.59,17.58,63.67c-0.27,3.46-0.36,6.97-0.27,10.51c0.07,2.75,0.26,5.52,0.57,8.31c0.28,2.62,0.66,5.25,1.14,7.89
	c1.97,10.81,4.16,26.73,4.02,43.46c1.44-0.17,3.63-0.31,5.58,0.08c0.75-0.76,2.21-1.98,4.08-2.54c1.96-16.31-2.66-34.79-6.92-47.49
	C531.43,675.4,530.7,671.29,530.58,667.1z M495.67,429.51c0.46,0.06,0.93,0.12,1.4,0.17l3.42,0.34l3.43,0.15l1.72,0.1l1.73-0.03
	c1.15-0.02,2.31-0.01,3.48,0.01c20.61-6.52,27.1-19.75,28.52-23.36c-0.23-0.07-0.43-0.23-0.55-0.46
	c-9.37-17.73-23.24-26.35-23.38-26.44c-2.8-1.82-5.6-3.26-8.38-4.37c3.8,2.79,6.93,6.57,9.03,11c0.02,0.02,0.04,0.05,0.05,0.07
	c0.03,0.05,0.05,0.1,0.06,0.16c1.88,4,2.94,8.51,2.94,13.29C519.14,414.98,508.94,427.31,495.67,429.51z M524.07,566.04
	c-5.76-1.47-11.32-3.08-16.7-4.77c2.9,4.11,7.95,11.8,12.59,21.52c3.31,6.95,6.41,14.93,8.35,23.37c3.77-2.49,4.57-5.25,4.79-6.98
	c0.04-0.35,0.06-0.66,0.08-0.91l0.02-0.23c0.1-1.38-0.06-4.29-0.89-6.83c-0.39-1.2-0.93-2.32-1.66-3.15
	c-4.77-5.44-8.84-4.65-9.01-4.61c-0.42,0.09-0.85-0.03-1.16-0.31c-0.14-0.12-0.24-0.28-0.32-0.44c-0.09-0.21-0.13-0.44-0.1-0.68
	c0.84-6.6,4.21-12.71,5.96-15.51C525.37,566.36,524.72,566.21,524.07,566.04z M511.74,583.94c-1.46,1.18-4.24,3.89-5.73,8.54
	c2.91,0.65,9.66,2.7,16.41,8.52C519.13,594.87,515.47,589.15,511.74,583.94z M510.2,581.84c-3.69-4.99-7.41-9.46-10.86-13.32
	c-2.11,3.01-4.02,5.38-5.74,7.23c1.62,2.01,5.69,7.24,10.37,14.72C505.75,585.84,508.59,583.1,510.2,581.84z M483.22,552.55
	c-6.49-2.66-12.63-5.43-18.41-8.27c-5.87-2.16-22.16-6.92-27.86-3.3c-0.63,0.4-1.1,0.89-1.42,1.49c4.69-0.59,16.32-0.38,29.65,12.4
	c0.18,0.17,0.36,0.34,0.54,0.52c5.6,5.49,11.49,13.22,17.28,24.05c0.27,0.04,0.78,0.06,1.54-0.16c0.07-0.02,0.13-0.05,0.19-0.06
	c1.35-0.43,3.41-1.59,6.24-4.47c0.01-0.02,0.02-0.04,0.04-0.06c0.01,0,0.02,0,0.02-0.01c1.85-1.89,4.01-4.51,6.52-8.14
	C490.05,558.36,484.17,553.34,483.22,552.55z M473.59,385.45c-1.29,2.24-1.85,4.73-1.58,7.03c0.29,2.4,1.45,4.3,3.27,5.35
	c0.95,0.55,2.02,0.83,3.14,0.83c1.01,0,2.07-0.23,3.12-0.68c2.12-0.91,4.01-2.65,5.3-4.89c1.29-2.24,1.85-4.73,1.58-7.03
	c-0.29-2.4-1.44-4.3-3.26-5.35C481.51,378.6,476.32,380.73,473.59,385.45z M457.67,418.25c4.24,1.9,8.51,3.6,12.83,5.14
	c2.17,0.76,4.35,1.47,6.55,2.13c-4.39-2.87-7.97-7.01-10.31-11.94c-0.01-0.01-0.01-0.02-0.02-0.03c-0.04-0.08-0.08-0.16-0.1-0.24
	c-1.85-3.97-2.89-8.44-2.89-13.17c0-11.27,5.88-21.09,14.51-26.12c-14.8,3.72-26.66,13.05-31.52,17.35
	c-1.22,1.08-1.91,2.63-1.87,4.26l0.12,6.08c0,0.38-0.21,0.74-0.56,0.91c-0.01,0.01-0.03,0.01-0.04,0.02
	C445.62,405.33,449.85,413.38,457.67,418.25z M369.75,634.99c-7.53-3.36-15.88-0.38-20.31,1.78c0.21,0.13,0.42,0.28,0.61,0.44
	c0.23,0.2,0.46,0.38,0.68,0.56c2.25-1.16,8.82-3.94,15.85-1.09c7.37,2.98,12.76,11.1,16,24.15c0.06,0.23,0.05,0.48-0.03,0.72
	c-0.04,0.11-0.4,1.19-1.12,2.7c1.47-0.22,2.86-0.63,3.74-0.92C382.83,648.04,377.65,638.51,369.75,634.99z"/>
<path id="CODE_x5F_7A4694" class="st9" d="M776.79,381.33c-12.93,37.88-33.35,60.54-37.01,64.4c2.8,9.67,5.56,15.82,5.63,15.99
	c0.22,0.46,0.14,1-0.19,1.39c-0.25,0.29-0.62,0.45-0.99,0.45c-0.12,0-0.24-0.02-0.36-0.05c-6.97-2-13.26-4.51-18.88-7.5
	c-0.96,0.43-1.9,0.94-2.83,1.52c-1.07-2.78-2.52-6.88-4-11.97c3.66-3.86,24.08-26.52,37.01-64.4
	c13.52-39.64,13.53-84.06,0.02-125.09c-11.96-36.34-35.91-84.32-82.08-106.58c-13.58-6.55-28.3-10.45-44.07-11.74
	c24.11-1.5,46.08,2.47,65.69,11.92c46.17,22.26,70.12,70.24,82.08,106.58C790.32,297.27,790.31,341.69,776.79,381.33z
	 M679.63,483.01c1.84-0.94,3.39-1.92,4.44-2.64c2.63,9.39,9.86,13.71,10.19,13.89c0.2,0.12,0.42,0.18,0.65,0.18
	c0.14,0,0.28-0.02,0.41-0.07c0.36-0.11,0.65-0.38,0.79-0.73c0.11-0.26,8.79-20.79,20.78-31.99c-4.87-1.67-9.38-3.61-13.52-5.81
	C693.47,460.23,684.82,473.47,679.63,483.01z M674.49,493.46c-0.14,0.35-0.43,0.62-0.79,0.73c-0.13,0.05-0.27,0.07-0.41,0.07
	c-0.23,0-0.45-0.06-0.65-0.18c-0.33-0.18-7.56-4.5-10.19-13.89c-1.4,0.95-3.66,2.37-6.34,3.54c1.7,8.54,1.44,15.98,1.03,21.53
	c-1.49,20.27-13.48,38.62-31.3,47.87c-20.88,10.85-48.19,14.47-66.02,15.64c3.62,0.4,7.27,0.61,10.9,0.61c1.34,0,2.67-0.03,4-0.08
	c16.99-0.68,49.02-3.67,72.74-16c17.82-9.25,29.81-27.6,31.3-47.87c0.38-5.11,0.61-11.82-0.68-19.52
	C675.83,490.3,674.53,493.36,674.49,493.46z M579.32,699.72c-1.19-2.68-2.4-5.34-3.62-7.95c-0.32-0.71-0.65-1.41-0.98-2.1
	c-2.22-4.68-3.45-9.9-3.63-15.17c-6.38-1.18-14.1-2.99-21.65-5.71c0.01,1.28,0.01,2.58,0,3.89c-0.05,5.83,1.21,11.65,3.66,16.82
	c0.33,0.69,0.66,1.39,0.98,2.1c1.22,2.61,2.43,5.27,3.62,7.95c6.96,15.71,13.02,32.09,13.19,41.77c0.09,0.28,0.11,0.58,0.01,0.85
	c-0.06,3.24-0.86,5.63-2.6,6.87c-0.54,0.44-14.45,11.6-28.9,13.07c-0.22,4.27-0.85,9.16-2.23,14.2c-2.17,7.89-2.96,15.74-2.34,23.33
	c1.93,23.8,3.86,68.34-4.88,99.17c-1.55,5.45-2.35,11.06-2.39,16.69c-0.03,3.58,0.13,7.08,0.48,10.46c0.09,1,0.21,1.99,0.34,2.97
	c0.39,2.91,0.92,5.73,1.58,8.45c0.74,1.27,6.26,10.37,13.86,12.74c3.83,1.19,6.64,4.07,7.54,7.69c0.37,1.51,0.46,2.99,0.27,4.42
	c0.26,1.08,1.24,5.78-0.11,9.06c-0.17,0.41-0.54,0.71-0.98,0.79c-0.82,0.14-7.99,1.33-17.17,1.95c3.6,0.39,7.35,0.55,11.05,0.55
	c13.73,0,26.62-2.14,27.74-2.33c0.44-0.08,0.81-0.38,0.98-0.79c1.35-3.28,0.37-7.98,0.11-9.06c0.19-1.43,0.1-2.91-0.27-4.42
	c-0.9-3.62-3.71-6.5-7.54-7.69c-7.6-2.37-13.12-11.47-13.86-12.74c-0.66-2.72-1.19-5.54-1.58-8.45c-0.13-0.98-0.25-1.97-0.34-2.97
	c-0.35-3.38-0.51-6.88-0.48-10.46c0.04-5.63,0.84-11.24,2.39-16.69c8.74-30.83,6.81-75.37,4.88-99.17
	c-0.62-7.59,0.17-15.44,2.34-23.33c1.38-5.04,2.01-9.93,2.23-14.2c14.45-1.47,28.36-12.63,28.9-13.07c1.74-1.24,2.54-3.63,2.6-6.87
	c0.1-0.27,0.08-0.57-0.01-0.85C592.34,731.81,586.28,715.43,579.32,699.72z M664.83,643.66c-8.83,1.97-17.55-1.75-19.76-2.8
	c-0.69-5.06-1.74-8.42-1.78-8.53c-0.17-0.53-0.67-0.9-1.23-0.9h-17.14c-0.56-3.13-1.2-5.05-1.22-5.12
	c-0.13-0.38-0.43-0.68-0.81-0.81c-15.95-5.49-32.18-5.67-40.43-5.28c-0.16,0.01-0.32,0.01-0.47,0c-1.46-0.13-2.68-1.2-3.05-2.65
	c-4.23-16.95-11.9-31.97-17.46-41.39c-0.47-0.8-0.93-1.56-1.37-2.28c-1.23-2.01-2.29-3.66-3.15-4.95c-1.36,0.07-2.65,0.14-3.86,0.18
	c-1.33,0.05-2.66,0.08-4,0.08c-4.72,0-9.45-0.35-14.14-1.02c0.91,1.36,2.12,3.22,3.53,5.53c0.44,0.72,0.9,1.48,1.37,2.28
	c5.56,9.42,13.23,24.44,17.46,41.39c0.37,1.45,1.59,2.52,3.05,2.65c0.15,0.01,0.31,0.01,0.47,0c8.25-0.39,24.48-0.21,40.43,5.28
	c0.38,0.13,0.68,0.43,0.81,0.81c0.02,0.07,0.66,1.99,1.22,5.12h17.14c0.56,0,1.06,0.37,1.23,0.9c0.04,0.11,1.09,3.47,1.78,8.53
	c2.21,1.05,10.93,4.77,19.76,2.8c2.59-0.58,5.08,0.65,6.22,3.06c1.15,2.44,0.5,5.2-1.61,6.85c-1.5,1.17-3.22,2.05-5.13,2.68
	c0.49,0.48,0.89,1.07,1.14,1.75c0.55,1.46,0.33,3.04-0.52,4.28c0.11,0.1,0.22,0.19,0.35,0.3c2.05,1.81,2.36,4.63,0.76,6.86
	c-0.91,1.27-2.46,2.27-4.24,2.27c-0.85,0-1.75-0.23-2.67-0.75c-0.19-0.11-0.37-0.22-0.55-0.34c-0.79,1.28-2.45,3.6-5.06,5.55
	c-1,0.76-2.16,1.13-3.32,1.13c-1.15,0-2.31-0.37-3.32-1.12c-0.4-0.29-0.73-0.63-1.03-0.99c-1.2,1.32-3.18,3.01-5.58,3.29
	c-0.24,0.03-0.47,0.04-0.71,0.04c-1.31,0-2.57-0.44-3.76-1.31c-0.26,0.27-0.54,0.54-0.81,0.81l14.11,5.34
	c0.15,0.06,0.3,0.09,0.46,0.09c0.24,0,0.47-0.07,0.68-0.2c2.82-1.75,5.18-3.73,7.18-5.86c1.19,0.87,2.45,1.31,3.76,1.31
	c0.24,0,0.47-0.01,0.71-0.04c2.4-0.28,4.38-1.97,5.58-3.29c0.3,0.36,0.63,0.7,1.03,0.99c1.01,0.75,2.17,1.12,3.32,1.12
	c1.16,0,2.32-0.37,3.32-1.13c2.61-1.95,4.27-4.27,5.06-5.55c0.18,0.12,0.36,0.23,0.55,0.34c0.92,0.52,1.82,0.75,2.67,0.75
	c1.78,0,3.33-1,4.24-2.27c1.6-2.23,1.29-5.05-0.76-6.86c-0.13-0.11-0.24-0.2-0.35-0.3c0.85-1.24,1.07-2.82,0.52-4.28
	c-0.25-0.68-0.65-1.27-1.14-1.75c1.91-0.63,3.63-1.51,5.13-2.68c2.11-1.65,2.76-4.41,1.61-6.85
	C669.91,644.31,667.42,643.08,664.83,643.66z"/>
</svg>
