<?xml version="1.0" encoding="utf-8"?>
<!-- Generator: Adobe Illustrator 24.3.0, SVG Export Plug-In . SVG Version: 6.00 Build 0)  -->
<svg version="1.1" id="JK_x5F_PURPLE" xmlns="http://www.w3.org/2000/svg" xmlns:xlink="http://www.w3.org/1999/xlink" x="0px"
	 y="0px" viewBox="0 0 1080 1080" style="enable-background:new 0 0 1080 1080;" xml:space="preserve">
<style type="text/css">
	.st0{fill:#7B4694;}
</style>
<path id="FILL_x5F_7A4694" class="st0" d="M755.19,256.06c-11.96-36.34-35.91-84.32-82.08-106.58
	c-34.81-16.78-77.05-16.29-125.54,1.45c-3.61-5.63-8.22-10.17-13.89-13.54c-19.66-11.7-50.94-9.72-92.96,5.88
	c-31.11,11.56-56.87,26.72-57.12,26.87c-31.82,18.87-56.35,39.58-72.92,61.55c-13.31,17.64-21.55,36.13-24.49,54.96
	c-4.81,30.74,5.95,51.85,7.35,54.42c0.1,15.32,4.87,27.35,9.84,35.75c7.48,12.65,16.64,19.62,18.52,20.97
	c1.85,6.27,5.13,13.05,10.75,19.57c0.63,1.96,6.45,19.44,20.79,40.66c13.92,20.6,38.95,49.06,79.24,67.92
	c0.58,1.73,2.4,7.69,2.13,13.39c-1.13,0.93-1.86,2.14-2.2,3.6c-2.65,0.32-9.85,1.7-19.33,7.85c-5.22,3.39-11.13,8.22-17.34,15.12
	c-2.14,2.37-4.32,5-6.52,7.89c-3.87,5.09-7.81,11.01-11.72,17.91c-0.05,0.11-2.78,5.11-7.57,12.44c-1.57,2.4-3.36,5.05-5.37,7.87
	c-5.33,7.54-12.12,16.22-19.95,24.32c-0.94,0.4-2.07,1.24-2.73,3c-0.19,0.53-0.31,1.1-0.36,1.67c-0.59,0.09-1.28,0.31-2.02,0.81
	c-1.2,0.8-2.2,2.11-3.02,3.9c-1.48-0.52-3.98-1.04-6.47,0.13c-2.28,1.05-3.98,3.22-5.11,6.46c-1.19,0.58-4.57,2.09-8.41,2.77
	c-2.05,0.36-3.6,1.92-3.95,3.98c-0.36,2.11,0.62,4.15,2.49,5.2c2.11,1.18,4.5,1.78,7.15,1.78c0.62,0,1.26-0.04,1.91-0.11
	c0.4,1.78,1.07,3.51,2.19,4.9c1.13,1.4,2.72,2.26,4.49,2.41c0.19,0.02,0.38,0.03,0.56,0.03c1.58,0,3.09-0.58,4.31-1.65
	c0.06-0.05,0.11-0.12,0.17-0.17c0.45,0.99,1,1.9,1.68,2.66c1.4,1.58,3.17,2.4,5.27,2.46c0.01,0,0.02,0,0.03,0
	c0.14,0,0.28-0.03,0.41-0.07c0.15-0.05,2-0.7,3.55-2.95c1.58,0.5,4.8,1.33,8.88,1.33c3.62,0,7.9-0.67,12.31-2.78
	c0.53,0.63,1.22,1.12,2.01,1.42c0.56,0.21,1.14,0.31,1.72,0.31c1.01,0,2.01-0.31,2.85-0.92c2.24-1.6,3.97-3.84,5.23-5.9
	c3.43-0.11,6.99-1.55,7.15-1.61c0.02-0.01,0.02-0.02,0.04-0.02c0.01-0.01,0.03-0.01,0.05-0.02c0.09-0.05,3.97-1.99,9.83-5.84
	c0.11-0.07,0.22-0.15,0.34-0.22c2.08-1.38,4.41-2.99,6.9-4.83c0.52,7.7,1.44,33.92-6.74,64.1c-0.72,2.69-1.52,5.41-2.4,8.16
	c-0.99,3.09-2.09,6.22-3.29,9.36c-0.46,1.19-0.93,2.38-1.42,3.57c-2.82,6.89-6.19,13.8-10.21,20.59c-0.03,0.06-0.04,0.12-0.06,0.17
	c-0.03,0.07-0.06,0.13-0.08,0.19c-0.02,0.11-0.02,0.22-0.02,0.33c0,0.04-0.02,0.08-0.01,0.12c0.06,0.52,1.55,12.63,9.82,16.35
	c0.23,0.1,0.47,0.2,0.71,0.29c1.36,0.51,2.8,0.76,4.33,0.76c1.19,0,2.43-0.15,3.73-0.46c3.23-0.77,6.78-2.51,10.62-5.2
	c0.31-0.21,0.51-0.56,0.55-0.93c0.04-0.38-0.09-0.76-0.36-1.03c-0.02-0.03-1.71-1.81-2.89-4.18c1.18,1.27,2.65,2.39,4.34,2.86
	c0.3,0.08,0.63,0.06,0.91-0.08c0.25-0.12,1.8-0.87,3.25-1.95c1.25,9.16,5.05,17.34,9.63,24.22c0.35,0.53,0.71,1.05,1.07,1.56
	c3.33,4.74,6.97,8.81,10.31,12.11c1.04,1.52,10.62,15.68,16.26,26.84c2.25,4.44,2.85,9.59,1.71,14.49
	c-2.49,10.72-8.44,31.49-20.24,50.15c-3.93,6.23-6.81,12.48-8.55,18.6c-0.22,0.78-0.43,1.55-0.6,2.29
	c-0.26,1.04-0.48,2.05-0.65,3.02c-1.1,6.12-0.63,10.9,1.41,14.23c0.14,0.24,0.36,0.43,0.62,0.53c0.34,0.14,4.76,1.89,10.8,3.18
	c0.14,0.79,0.5,1.85,1.39,2.99c2.47,3.15,7.58,5.17,15.19,6.03c-0.23,3.72-0.31,5.86-0.31,5.96c-0.02,0.49,0.24,0.95,0.67,1.19
	c3.22,1.75,6.97,2.73,11.05,3.11c0.1,1.08,0.52,2.1,1.28,3.04c4.72,5.88,21.85,6.88,22.58,6.92c0.64,0.04,1.2-0.4,1.34-1.02
	l0.5-2.26c4.92,7.73,19,9.74,32.3,9.74c13.73,0,26.62-2.14,27.74-2.33c0.44-0.08,0.81-0.38,0.98-0.79c1.35-3.28,0.37-7.98,0.11-9.06
	c0.19-1.43,0.1-2.91-0.27-4.42c-0.9-3.62-3.71-6.5-7.54-7.69c-7.6-2.37-13.12-11.47-13.86-12.74c-0.66-2.72-1.19-5.54-1.58-8.45
	c-0.13-0.98-0.25-1.97-0.34-2.97c-0.35-3.38-0.51-6.88-0.48-10.46c0.04-5.63,0.84-11.24,2.39-16.69
	c8.74-30.83,6.81-75.37,4.88-99.17c-0.62-7.59,0.17-15.44,2.34-23.33c1.38-5.04,2.01-9.93,2.23-14.2
	c14.45-1.47,28.36-12.63,28.9-13.07c1.74-1.24,2.54-3.63,2.6-6.87c0.1-0.27,0.08-0.57-0.01-0.85c-0.17-9.68-6.23-26.06-13.19-41.77
	c-1.19-2.68-2.4-5.34-3.62-7.95c-0.32-0.71-0.65-1.41-0.98-2.1c-2.45-5.17-3.71-10.99-3.66-16.82c0.01-1.31,0.01-2.61,0-3.89
	c17.68,6.37,36.3,7.76,36.49,7.77c0.03,0.01,0.06,0.01,0.09,0.01c0.29,0,0.56-0.1,0.79-0.27c0.15-0.11,0.28-0.23,0.43-0.34
	l18.62,7.05c0.15,0.06,0.3,0.09,0.46,0.09c0.24,0,0.47-0.07,0.68-0.2c2.82-1.75,5.18-3.73,7.18-5.86c1.19,0.87,2.45,1.31,3.76,1.31
	c0.24,0,0.47-0.01,0.71-0.04c2.4-0.28,4.38-1.97,5.58-3.29c0.3,0.36,0.63,0.7,1.03,0.99c1.01,0.75,2.17,1.12,3.32,1.12
	c1.16,0,2.32-0.37,3.32-1.13c2.61-1.95,4.27-4.27,5.06-5.55c0.18,0.12,0.36,0.23,0.55,0.34c0.92,0.52,1.82,0.75,2.67,0.75
	c1.78,0,3.33-1,4.24-2.27c1.6-2.23,1.29-5.05-0.76-6.86c-0.13-0.11-0.24-0.2-0.35-0.3c0.85-1.24,1.07-2.82,0.52-4.28
	c-0.25-0.68-0.65-1.27-1.14-1.75c1.91-0.63,3.63-1.51,5.13-2.68c2.11-1.65,2.76-4.41,1.61-6.85c-1.14-2.41-3.63-3.64-6.22-3.06
	c-8.83,1.97-17.55-1.75-19.76-2.8c-0.69-5.06-1.74-8.42-1.78-8.53c-0.17-0.53-0.67-0.9-1.23-0.9H603.3
	c-0.56-3.13-1.2-5.05-1.22-5.12c-0.13-0.38-0.43-0.68-0.81-0.81c-15.95-5.49-32.18-5.67-40.43-5.28c-0.16,0.01-0.32,0.01-0.47,0
	c-1.46-0.13-2.68-1.2-3.05-2.65c-4.23-16.95-11.9-31.97-17.46-41.39c-0.47-0.8-0.93-1.56-1.37-2.28c-1.41-2.31-2.62-4.17-3.53-5.53
	c4.69,0.67,9.42,1.02,14.14,1.02c1.34,0,2.67-0.03,4-0.08c16.99-0.68,49.02-3.67,72.74-16c17.82-9.25,29.81-27.6,31.3-47.87
	c0.41-5.55,0.67-12.99-1.03-21.53c2.68-1.17,4.94-2.59,6.34-3.54c2.63,9.39,9.86,13.71,10.19,13.89c0.2,0.12,0.42,0.18,0.65,0.18
	c0.14,0,0.28-0.02,0.41-0.07c0.36-0.11,0.65-0.38,0.79-0.73c0.13-0.31,12.89-30.52,28.88-37.63c5.62,2.99,11.91,5.5,18.88,7.5
	c0.12,0.03,0.24,0.05,0.36,0.05c0.37,0,0.74-0.16,0.99-0.45c0.33-0.39,0.41-0.93,0.19-1.39c-0.07-0.17-2.83-6.32-5.63-15.99
	c3.66-3.86,24.08-26.52,37.01-64.4C768.69,341.51,768.7,297.09,755.19,256.06z"/>
</svg>
