<?xml version="1.0" encoding="utf-8"?>
<!-- Generator: Adobe Illustrator 24.3.0, SVG Export Plug-In . SVG Version: 6.00 Build 0)  -->
<svg version="1.1" id="JH_x5F_PINK" xmlns="http://www.w3.org/2000/svg" xmlns:xlink="http://www.w3.org/1999/xlink" x="0px"
	 y="0px" viewBox="0 0 1080 1080" style="enable-background:new 0 0 1080 1080;" xml:space="preserve">
<style type="text/css">
	.st0{fill:#DD618E;}
</style>
<path id="FILL_x5F_DE618E" class="st0" d="M705.16,836.21c-4.28-6.1-7.25-12.9-8.81-20.21c-7.55-35.43-7.9-68.99-7.92-71.61
	c2.33-7.97,2.03-14.66,1.84-16.89c1.66-1.37,5.11-5.68,2.62-16.65c-0.43-1.91-0.76-3.97-1.04-6.48
	c-1.74-15.6-8.38-71.23-20.94-133.3c10.42-20.42,15.71-42.51,17.94-53.9c0.85-4.34,2.25-8.94,4.28-14.07
	c3.65-9.21,3.61-20.19,3.53-23.23c2.94-1.77,4.82-5,4.82-8.5c0.01-3.54-0.19-6.67-0.58-9.3c-0.4-2.64-0.28-5.35,0.35-8.05
	c1.41-6.05,1.99-17.44-9.75-26.24c-1.02-6.26-2.52-14.09-4.68-22.93c32.9-3.35,35.6-38.98,35.21-54.34
	c-0.14-5.21-1.48-10.2-3.85-14.58c9.68-45.17,0.07-81.21-9.77-103.57c5.72,5.95,9.27,13.23,9.32,13.32
	c0.22,0.46,0.68,0.73,1.17,0.73c0.12,0,0.25-0.01,0.38-0.05c0.61-0.19,0.99-0.79,0.9-1.43c-2.74-19.3-9-37.68-18.59-54.63
	c-22.24-39.29-61.18-67.46-106.82-77.3c-40.17-8.65-71.95-2.07-91.53,4.98c-20.24,7.29-31.7,16.31-33.17,17.51
	c-3.38,0.86-6.34,2.09-8.9,3.51c-41.03-5.65-79.55,6.79-114.49,37c-30.29,26.19-51.92,61.21-62.54,101.29
	c-8.7,32.83-11.08,62.97-7.07,89.59c3.22,21.34,10.52,40.48,21.72,56.87c19.08,27.94,43.24,38.37,43.48,38.47
	c0.59,0.25,1.28,0.03,1.61-0.51c0.34-0.54,0.23-1.25-0.25-1.67c-3.28-2.83-5.34-7.1-6.58-10.69c10.98,13.48,24.89,15.92,33.52,15.92
	c3.46,0,6.07-0.4,7.29-0.62l10.15,10.8c0.37,5.99,1.45,12.61,3.22,19.84c0.65,2.64,2.8,4.64,5.48,5.09c1.65,0.28,3.56,0.54,5.56,0.7
	c0.21,3.55,2.59,31.77,26.36,50.93c15.09,12.15,35.37,18.25,60.56,18.25c11.03,0,23.01-1.18,35.9-3.53
	c-0.31,0.9-0.68,2.06-1.08,3.44c-3.13,2.73-28.32,25.63-31,56.83c-0.01,0.16-1.17,13.15-5.95,23c-0.97-0.25-1.96-0.34-2.95-0.23
	c-1,0.1-1.89,0.69-2.38,1.58c-0.43,0.78-0.49,1.69-0.2,2.51c0.07,1.38,0.59,13.89-4.54,19.11c-1.68,1.71-2.05,4.29-0.9,6.28
	c0.7,1.2,1.81,2.49,3.5,3.8c-1.65,4.19-8.6,21.8-15.16,37.85c-0.86,2.11-2.55,3.78-4.65,4.57c-2.49,0.94-5.84,2.47-9.48,4.76
	c-2.37-1.53-5.68-2.74-9.87-3.59c-1.56-0.31-3.07,0.43-3.78,1.85c-0.7,1.42-0.37,3.08,0.83,4.13c1.78,1.55,3.37,2.71,4.51,3.49
	c-1.81,1.02-3.81,1.78-5.91,2.22c-1.56,0.32-3.19,0.58-4.87,0.77c-2.09,0.24-3.7,1.8-3.99,3.9c-0.28,2.05,0.81,3.94,2.72,4.72
	c2.99,1.22,6.43,1.83,10.29,1.83c1.92,0,3.96-0.16,6.1-0.46c-1.53,2.49-3.39,4.96-5.59,7.39c-1.37,1.51-1.54,3.67-0.43,5.36
	c0.86,1.3,2.24,2.03,3.71,2.03c0.49,0,0.99-0.08,1.48-0.25c2.47-0.84,4.93-2.1,7.3-3.75c3.08-2.15,6.68-3.6,10.4-4.19
	c17.2-2.73,24.35-11.49,27.08-16.47c1.71-3.11,3.86-5.95,6.4-8.45c10.2-10.03,19.17-20.04,23.72-25.25
	c-0.06,0.28-0.11,0.57-0.17,0.85c-1.46,6.57-2.08,12.08-1.86,16.4c-1.54,2.1-1.89,3.67-1.93,3.88c-0.01,0.07-0.02,0.15-0.02,0.23
	c0,0.4-0.03,9.74,3.28,17.88c-1.51,5.97-20.31,79.04-56.64,161.04c-1.32,2.99-2.68,6-4.05,9.02c-0.19,0.41-0.14,0.89,0.11,1.26
	c0.26,0.38,0.7,0.6,1.15,0.58c0.01,0,0.1-0.01,0.28,0.01c-5.23,3.23-15.65,10.64-18.33,19.7c-0.77,2.62,0.17,5.51,2.34,7.18
	c4.26,3.27,14.81,8.91,36.99,8.91c10.94,0,24.72-1.37,41.97-5.08c3.7,0.84,7.47,1.38,11.25,1.63c0.08,0.01,0.16,0.05,0.24,0.05
	c0.06,0,0.11-0.02,0.17-0.03c1.39,0.08,2.78,0.14,4.17,0.14c4.49,0,8.99-0.44,13.42-1.31c0.81-0.16,1.64-0.34,2.47-0.53
	c0.49-0.11,0.87-0.48,0.98-0.97c0.03-0.13,1.01-4.31,2.46-11.62c2.93-14.64,7.8-41.83,10.86-74.01c0.67-7.06,3.91-13.56,9.13-18.27
	c7.47-6.76,18.05-16.81,26.79-26.87c19.57,24.45,34.4,63.41,41.3,83.76c3.22,9.51,5.23,19.28,5.98,29.17
	c0.29,3.72,0.41,7.45,0.34,11.2v0.18c-0.02,0.75,0.41,1.4,1.07,1.72c0,1.38,0.06,3.63,0.28,6.06c0.26,2.76,2.13,5.13,4.75,6.03
	c5.26,1.81,16.17,4.8,30.7,4.8c8.37,0,17.94-0.99,28.32-3.78c2.81-0.76,4.79-3.21,4.94-6.11c0.11-2.35,0.17-5.66-0.11-9.01
	c3.13,0.9,5.81,1.73,7.81,2.38c0.53,0.17,1.07,0.25,1.61,0.25c0.97,0,1.92-0.26,2.76-0.78c1.28-0.8,2.15-2.11,2.37-3.6
	c0.42-2.8,0.68-5.61,0.81-8.42C740.16,890.71,716.15,851.85,705.16,836.21z"/>
</svg>
