  0
SECTION
  2
HEADER
  9
$ACADVER
  1
AC1024
  9
$ACADMAINTVER
 70
     6
  9
$DWGCODEPAGE
  3
ANSI_1252
  9
$INSBASE
 10
0.0
 20
0.0
 30
0.0
  9
$EXTMIN
 10
1.000000000000000E+20
 20
1.000000000000000E+20
 30
1.000000000000000E+20
  9
$EXTMAX
 10
-1.000000000000000E+20
 20
-1.000000000000000E+20
 30
-1.000000000000000E+20
  9
$LIMMIN
 10
0.0
 20
0.0
  9
$LIMMAX
 10
12.0
 20
9.0
  9
$ORTHOMODE
 70
     0
  9
$REGENMODE
 70
     1
  9
$FILLMODE
 70
     1
  9
$QTEXTMODE
 70
     0
  9
$MIRRTEXT
 70
     1
  9
$LTSCALE
 40
1.0
  9
$ATTMODE
 70
     1
  9
$TEXTSIZE
 40
0.2
  9
$TRACEWID
 40
0.05
  9
$TEXTSTYLE
  7
Standard
  9
$CLAYER
  8
0
  9
$CELTYPE
  6
ByLayer
  9
$CECOLOR
 62
   256
  9
$CELTSCALE
 40
1.0
  9
$DISPSILH
 70
     0
  9
$DIMSCALE
 40
1.0
  9
$DIMASZ
 40
0.18
  9
$DIMEXO
 40
0.0625
  9
$DIMDLI
 40
0.38
  9
$DIMRND
 40
0.0
  9
$DIMDLE
 40
0.0
  9
$DIMEXE
 40
0.18
  9
$DIMTP
 40
0.0
  9
$DIMTM
 40
0.0
  9
$DIMTXT
 40
0.18
  9
$DIMCEN
 40
0.09
  9
$DIMTSZ
 40
0.0
  9
$DIMTOL
 70
     0
  9
$DIMLIM
 70
     0
  9
$DIMTIH
 70
     1
  9
$DIMTOH
 70
     1
  9
$DIMSE1
 70
     0
  9
$DIMSE2
 70
     0
  9
$DIMTAD
 70
     0
  9
$DIMZIN
 70
     0
  9
$DIMBLK
  1

  9
$DIMASO
 70
     1
  9
$DIMSHO
 70
     1
  9
$DIMPOST
  1

  9
$DIMAPOST
  1

  9
$DIMALT
 70
     0
  9
$DIMALTD
 70
     2
  9
$DIMALTF
 40
25.4
  9
$DIMLFAC
 40
1.0
  9
$DIMTOFL
 70
     0
  9
$DIMTVP
 40
0.0
  9
$DIMTIX
 70
     0
  9
$DIMSOXD
 70
     0
  9
$DIMSAH
 70
     0
  9
$DIMBLK1
  1

  9
$DIMBLK2
  1

  9
$DIMSTYLE
  2
Standard
  9
$DIMCLRD
 70
     0
  9
$DIMCLRE
 70
     0
  9
$DIMCLRT
 70
     0
  9
$DIMTFAC
 40
1.0
  9
$DIMGAP
 40
0.09
  9
$DIMJUST
 70
     0
  9
$DIMSD1
 70
     0
  9
$DIMSD2
 70
     0
  9
$DIMTOLJ
 70
     1
  9
$DIMTZIN
 70
     0
  9
$DIMALTZ
 70
     0
  9
$DIMALTTZ
 70
     0
  9
$DIMUPT
 70
     0
  9
$DIMDEC
 70
     4
  9
$DIMTDEC
 70
     4
  9
$DIMALTU
 70
     2
  9
$DIMALTTD
 70
     2
  9
$DIMTXSTY
  7
Standard
  9
$DIMAUNIT
 70
     0
  9
$DIMADEC
 70
     0
  9
$DIMALTRND
 40
0.0
  9
$DIMAZIN
 70
     0
  9
$DIMDSEP
 70
    46
  9
$DIMATFIT
 70
     3
  9
$DIMFRAC
 70
     0
  9
$DIMLDRBLK
  1

  9
$DIMLUNIT
 70
     2
  9
$DIMLWD
 70
    -2
  9
$DIMLWE
 70
    -2
  9
$DIMTMOVE
 70
     0
  9
$DIMFXL
 40
1.0
  9
$DIMFXLON
 70
     0
  9
$DIMJOGANG
 40
0.7853981633974483
  9
$DIMTFILL
 70
     0
  9
$DIMTFILLCLR
 70
     0
  9
$DIMARCSYM
 70
     0
  9
$DIMLTYPE
  6

  9
$DIMLTEX1
  6

  9
$DIMLTEX2
  6

  9
$DIMTXTDIRECTION
 70
     0
  9
$LUNITS
 70
     2
  9
$LUPREC
 70
     4
  9
$SKETCHINC
 40
0.1
  9
$FILLETRAD
 40
0.5
  9
$AUNITS
 70
     0
  9
$AUPREC
 70
     0
  9
$MENU
  1
.
  9
$ELEVATION
 40
0.0
  9
$PELEVATION
 40
0.0
  9
$THICKNESS
 40
0.0
  9
$LIMCHECK
 70
     0
  9
$CHAMFERA
 40
0.5
  9
$CHAMFERB
 40
0.5
  9
$CHAMFERC
 40
1.0
  9
$CHAMFERD
 40
0.0
  9
$SKPOLY
 70
     0
  9
$TDCREATE
 40
2459346.804596551
  9
$TDUCREATE
 40
2459347.012929884
  9
$TDUPDATE
 40
2459346.804596574
  9
$TDUUPDATE
 40
2459347.012929908
  9
$TDINDWG
 40
0.0000000116
  9
$TDUSRTIMER
 40
0.0000000116
  9
$USRTIMER
 70
     1
  9
$ANGBASE
 50
0.0
  9
$ANGDIR
 70
     0
  9
$PDMODE
 70
     0
  9
$PDSIZE
 40
0.0
  9
$PLINEWID
 40
0.0
  9
$SPLFRAME
 70
     0
  9
$SPLINETYPE
 70
     6
  9
$SPLINESEGS
 70
     8
  9
$HANDSEED
  5
45
  9
$SURFTAB1
 70
     6
  9
$SURFTAB2
 70
     6
  9
$SURFTYPE
 70
     6
  9
$SURFU
 70
     6
  9
$SURFV
 70
     6
  9
$UCSBASE
  2

  9
$UCSNAME
  2

  9
$UCSORG
 10
0.0
 20
0.0
 30
0.0
  9
$UCSXDIR
 10
1.0
 20
0.0
 30
0.0
  9
$UCSYDIR
 10
0.0
 20
1.0
 30
0.0
  9
$UCSORTHOREF
  2

  9
$UCSORTHOVIEW
 70
     0
  9
$UCSORGTOP
 10
0.0
 20
0.0
 30
0.0
  9
$UCSORGBOTTOM
 10
0.0
 20
0.0
 30
0.0
  9
$UCSORGLEFT
 10
0.0
 20
0.0
 30
0.0
  9
$UCSORGRIGHT
 10
0.0
 20
0.0
 30
0.0
  9
$UCSORGFRONT
 10
0.0
 20
0.0
 30
0.0
  9
$UCSORGBACK
 10
0.0
 20
0.0
 30
0.0
  9
$PUCSBASE
  2

  9
$PUCSNAME
  2

  9
$PUCSORG
 10
0.0
 20
0.0
 30
0.0
  9
$PUCSXDIR
 10
1.0
 20
0.0
 30
0.0
  9
$PUCSYDIR
 10
0.0
 20
1.0
 30
0.0
  9
$PUCSORTHOREF
  2

  9
$PUCSORTHOVIEW
 70
     0
  9
$PUCSORGTOP
 10
0.0
 20
0.0
 30
0.0
  9
$PUCSORGBOTTOM
 10
0.0
 20
0.0
 30
0.0
  9
$PUCSORGLEFT
 10
0.0
 20
0.0
 30
0.0
  9
$PUCSORGRIGHT
 10
0.0
 20
0.0
 30
0.0
  9
$PUCSORGFRONT
 10
0.0
 20
0.0
 30
0.0
  9
$PUCSORGBACK
 10
0.0
 20
0.0
 30
0.0
  9
$USERI1
 70
     0
  9
$USERI2
 70
     0
  9
$USERI3
 70
     0
  9
$USERI4
 70
     0
  9
$USERI5
 70
     0
  9
$USERR1
 40
0.0
  9
$USERR2
 40
0.0
  9
$USERR3
 40
0.0
  9
$USERR4
 40
0.0
  9
$USERR5
 40
0.0
  9
$WORLDVIEW
 70
     1
  9
$SHADEDGE
 70
     3
  9
$SHADEDIF
 70
    70
  9
$TILEMODE
 70
     1
  9
$MAXACTVP
 70
    64
  9
$PINSBASE
 10
0.0
 20
0.0
 30
0.0
  9
$PLIMCHECK
 70
     0
  9
$PEXTMIN
 10
1.000000000000000E+20
 20
1.000000000000000E+20
 30
1.000000000000000E+20
  9
$PEXTMAX
 10
-1.000000000000000E+20
 20
-1.000000000000000E+20
 30
-1.000000000000000E+20
  9
$PLIMMIN
 10
0.0
 20
0.0
  9
$PLIMMAX
 10
12.0
 20
9.0
  9
$UNITMODE
 70
     0
  9
$VISRETAIN
 70
     1
  9
$PLINEGEN
 70
     0
  9
$PSLTSCALE
 70
     1
  9
$TREEDEPTH
 70
  3020
  9
$CMLSTYLE
  2
Standard
  9
$CMLJUST
 70
     0
  9
$CMLSCALE
 40
1.0
  9
$PROXYGRAPHICS
 70
     1
  9
$MEASUREMENT
 70
     0
  9
$CELWEIGHT
370
    -1
  9
$ENDCAPS
280
     0
  9
$JOINSTYLE
280
     0
  9
$LWDISPLAY
290
     1
  9
$INSUNITS
 70
     0
  9
$HYPERLINKBASE
  1

  9
$STYLESHEET
  1

  9
$XEDIT
290
     1
  9
$CEPSNTYPE
380
     0
  9
$PSTYLEMODE
290
     1
  9
$FINGERPRINTGUID
  2
{75C75A8C-2E94-4AFA-89EA-E58B2BB1AF48}
  9
$VERSIONGUID
  2
{FAEB1C32-E019-11D5-929B-00C0DF256EC4}
  9
$EXTNAMES
290
     1
  9
$PSVPSCALE
 40
0.0
  9
$OLESTARTUP
290
     0
  9
$SORTENTS
280
   127
  9
$INDEXCTL
280
     0
  9
$HIDETEXT
280
     1
  9
$XCLIPFRAME
280
     2
  9
$HALOGAP
280
     0
  9
$OBSCOLOR
 70
   257
  9
$OBSLTYPE
280
     0
  9
$INTERSECTIONDISPLAY
280
     0
  9
$INTERSECTIONCOLOR
 70
   257
  9
$DIMASSOC
280
     2
  9
$PROJECTNAME
  1

  9
$CAMERADISPLAY
290
     0
  9
$LENSLENGTH
 40
50.0
  9
$CAMERAHEIGHT
 40
0.0
  9
$STEPSPERSEC
 40
2.0
  9
$STEPSIZE
 40
6.0
  9
$3DDWFPREC
 40
2.0
  9
$PSOLWIDTH
 40
0.25
  9
$PSOLHEIGHT
 40
4.0
  9
$LOFTANG1
 40
1.570796326794897
  9
$LOFTANG2
 40
1.570796326794897
  9
$LOFTMAG1
 40
0.0
  9
$LOFTMAG2
 40
0.0
  9
$LOFTPARAM
 70
     7
  9
$LOFTNORMALS
280
     1
  9
$LATITUDE
 40
37.795
  9
$LONGITUDE
 40
-122.394
  9
$NORTHDIRECTION
 40
0.0
  9
$TIMEZONE
 70
 -8000
  9
$LIGHTGLYPHDISPLAY
280
     1
  9
$TILEMODELIGHTSYNCH
280
     1
  9
$CMATERIAL
347
3C
  9
$SOLIDHIST
280
     1
  9
$SHOWHIST
280
     1
  9
$DWFFRAME
280
     2
  9
$DGNFRAME
280
     2
  9
$REALWORLDSCALE
290
     1
  9
$INTERFERECOLOR
 62
   256
  9
$CSHADOW
280
     0
  9
$SHADOWPLANELOCATION
 40
0.0
  0
ENDSEC
  0
SECTION
  2
CLASSES
  0
CLASS
  1
ACDBDICTIONARYWDFLT
  2
AcDbDictionaryWithDefault
  3
ObjectDBX Classes
 90
        0
 91
        4
280
     0
281
     0
  0
CLASS
  1
VISUALSTYLE
  2
AcDbVisualStyle
  3
ObjectDBX Classes
 90
     4095
 91
        4
280
     0
281
     0
  0
CLASS
  1
MATERIAL
  2
AcDbMaterial
  3
ObjectDBX Classes
 90
     1153
 91
        4
280
     0
281
     0
  0
CLASS
  1
SUN
  2
AcDbSun
  3
SCENEOE
 90
     1024
 91
        4
280
     0
281
     0
  0
ENDSEC
  0
SECTION
  2
TABLES
  0
TABLE
  2
VPORT
  5
8
330
0
100
AcDbSymbolTable
 70
     1
  0
VPORT
  5
29
330
8
100
AcDbSymbolTableRecord
100
AcDbViewportTableRecord
  2
*Active
 70
     0
 10
0.0
 20
0.0
 11
1.0
 21
1.0
 12
0.0
 22
0.0
 13
0.0
 23
0.0
 14
0.5
 24
0.5
 15
0.5
 25
0.5
 16
0.0
 26
0.0
 36
1.0
 17
540.0
 27
-540.0
 37
0.0
 40
1080.0
 41
1.0
 42
50.0
 43
0.0
 44
0.0
 50
0.0
 51
0.0
 71
     0
 72
   100
 73
     1
 74
     3
 75
     0
 76
     0
 77
     0
 78
     0
281
     0
 65
     1
110
0.0
120
0.0
130
0.0
111
1.0
121
0.0
131
0.0
112
0.0
122
1.0
132
0.0
 79
     0
146
0.0
 60
     3
 61
     5
292
     1
282
     1
141
0.0
142
0.0
 63
   250
361
3F
  0
ENDTAB
  0
TABLE
  2
LTYPE
  5
5
330
0
100
AcDbSymbolTable
 70
     1
  0
LTYPE
  5
14
330
5
100
AcDbSymbolTableRecord
100
AcDbLinetypeTableRecord
  2
ByBlock
 70
     0
  3

 72
    65
 73
     0
 40
0.0
  0
LTYPE
  5
15
330
5
100
AcDbSymbolTableRecord
100
AcDbLinetypeTableRecord
  2
ByLayer
 70
     0
  3

 72
    65
 73
     0
 40
0.0
  0
LTYPE
  5
16
330
5
100
AcDbSymbolTableRecord
100
AcDbLinetypeTableRecord
  2
Continuous
 70
     0
  3
Solid line
 72
    65
 73
     0
 40
0.0
  0
ENDTAB
  0
TABLE
  2
LAYER
  5
2
330
0
100
AcDbSymbolTable
 70
     2
  0
LAYER
  5
10
330
2
100
AcDbSymbolTableRecord
100
AcDbLayerTableRecord
  2
0
 70
     0
 62
     7
  6
Continuous
370
    -3
390
F
347
3E
  0
LAYER
  5
40
330
2
100
AcDbSymbolTableRecord
100
AcDbLayerTableRecord
  2
JH_PINK
 70
     0
 62
     7
  6
Continuous
370
    -3
390
F
347
3E
  0
ENDTAB
  0
TABLE
  2
STYLE
  5
3
330
0
100
AcDbSymbolTable
 70
     1
  0
STYLE
  5
11
330
3
100
AcDbSymbolTableRecord
100
AcDbTextStyleTableRecord
  2
Standard
 70
     0
 40
0.0
 41
1.0
 50
0.0
 71
     0
 42
0.2
  3
txt
  4

  0
ENDTAB
  0
TABLE
  2
VIEW
  5
6
330
0
100
AcDbSymbolTable
 70
     0
  0
ENDTAB
  0
TABLE
  2
UCS
  5
7
330
0
100
AcDbSymbolTable
 70
     0
  0
ENDTAB
  0
TABLE
  2
APPID
  5
9
330
0
100
AcDbSymbolTable
 70
     1
  0
APPID
  5
12
330
9
100
AcDbSymbolTableRecord
100
AcDbRegAppTableRecord
  2
ACAD
 70
     0
  0
ENDTAB
  0
TABLE
  2
DIMSTYLE
  5
A
330
0
100
AcDbSymbolTable
 70
     1
100
AcDbDimStyleTable
  0
DIMSTYLE
105
27
330
A
100
AcDbSymbolTableRecord
100
AcDbDimStyleTableRecord
  2
Standard
 70
     0
178
     0
340
11
  0
ENDTAB
  0
TABLE
  2
BLOCK_RECORD
  5
1
330
0
100
AcDbSymbolTable
 70
     1
  0
BLOCK_RECORD
  5
1F
330
1
100
AcDbSymbolTableRecord
100
AcDbBlockTableRecord
  2
*Model_Space
340
22
 70
     0
280
     1
281
     0
  0
BLOCK_RECORD
  5
1B
330
1
100
AcDbSymbolTableRecord
100
AcDbBlockTableRecord
  2
*Paper_Space
340
1E
 70
     0
280
     1
281
     0
  0
BLOCK_RECORD
  5
23
330
1
100
AcDbSymbolTableRecord
100
AcDbBlockTableRecord
  2
*Paper_Space0
340
26
 70
     0
280
     1
281
     0
  0
ENDTAB
  0
ENDSEC
  0
SECTION
  2
BLOCKS
  0
BLOCK
  5
20
330
1F
100
AcDbEntity
  8
0
100
AcDbBlockBegin
  2
*Model_Space
 70
     0
 10
0.0
 20
0.0
 30
0.0
  3
*Model_Space
  1

  0
ENDBLK
  5
21
330
1F
100
AcDbEntity
  8
0
100
AcDbBlockEnd
  0
BLOCK
  5
1C
330
1B
100
AcDbEntity
 67
     1
  8
0
100
AcDbBlockBegin
  2
*Paper_Space
 70
     0
 10
0.0
 20
0.0
 30
0.0
  3
*Paper_Space
  1

  0
ENDBLK
  5
1D
330
1B
100
AcDbEntity
 67
     1
  8
0
100
AcDbBlockEnd
  0
BLOCK
  5
24
330
23
100
AcDbEntity
  8
0
100
AcDbBlockBegin
  2
*Paper_Space0
 70
     0
 10
0.0
 20
0.0
 30
0.0
  3
*Paper_Space0
  1

  0
ENDBLK
  5
25
330
23
100
AcDbEntity
  8
0
100
AcDbBlockEnd
  0
ENDSEC
  0
SECTION
  2
ENTITIES
  0
SPLINE
  5
41
330
1F
100
AcDbEntity
  8
JH_PINK
370
     0
100
AcDbSpline
210
0.0
220
0.0
230
1.0
 70
    11
 71
     3
 72
   353
 73
   349
 74
     0
 42
0.0000000001
 43
0.0000000001
 12
1.0
 22
0.0
 32
0.0
 13
1.0
 23
0.0
 33
0.0
 40
0.0
 40
0.0
 40
0.0
 40
0.0
 40
1.0
 40
1.0
 40
1.0
 40
2.0
 40
2.0
 40
2.0
 40
3.0
 40
3.0
 40
3.0
 40
4.0
 40
4.0
 40
4.0
 40
5.0
 40
5.0
 40
5.0
 40
6.0
 40
6.0
 40
6.0
 40
7.0
 40
7.0
 40
7.0
 40
8.0
 40
8.0
 40
8.0
 40
9.0
 40
9.0
 40
9.0
 40
10.0
 40
10.0
 40
10.0
 40
11.0
 40
11.0
 40
11.0
 40
12.0
 40
12.0
 40
12.0
 40
13.0
 40
13.0
 40
13.0
 40
14.0
 40
14.0
 40
14.0
 40
15.0
 40
15.0
 40
15.0
 40
16.0
 40
16.0
 40
16.0
 40
17.0
 40
17.0
 40
17.0
 40
18.0
 40
18.0
 40
18.0
 40
19.0
 40
19.0
 40
19.0
 40
20.0
 40
20.0
 40
20.0
 40
21.0
 40
21.0
 40
21.0
 40
22.0
 40
22.0
 40
22.0
 40
23.0
 40
23.0
 40
23.0
 40
24.0
 40
24.0
 40
24.0
 40
25.0
 40
25.0
 40
25.0
 40
26.0
 40
26.0
 40
26.0
 40
27.0
 40
27.0
 40
27.0
 40
28.0
 40
28.0
 40
28.0
 40
29.0
 40
29.0
 40
29.0
 40
30.0
 40
30.0
 40
30.0
 40
31.0
 40
31.0
 40
31.0
 40
32.0
 40
32.0
 40
32.0
 40
33.0
 40
33.0
 40
33.0
 40
34.0
 40
34.0
 40
34.0
 40
35.0
 40
35.0
 40
35.0
 40
36.0
 40
36.0
 40
36.0
 40
37.0
 40
37.0
 40
37.0
 40
38.0
 40
38.0
 40
38.0
 40
39.0
 40
39.0
 40
39.0
 40
40.0
 40
40.0
 40
40.0
 40
41.0
 40
41.0
 40
41.0
 40
42.0
 40
42.0
 40
42.0
 40
43.0
 40
43.0
 40
43.0
 40
44.0
 40
44.0
 40
44.0
 40
45.0
 40
45.0
 40
45.0
 40
46.0
 40
46.0
 40
46.0
 40
47.0
 40
47.0
 40
47.0
 40
48.0
 40
48.0
 40
48.0
 40
49.0
 40
49.0
 40
49.0
 40
50.0
 40
50.0
 40
50.0
 40
51.0
 40
51.0
 40
51.0
 40
52.0
 40
52.0
 40
52.0
 40
53.0
 40
53.0
 40
53.0
 40
54.0
 40
54.0
 40
54.0
 40
55.0
 40
55.0
 40
55.0
 40
56.0
 40
56.0
 40
56.0
 40
57.0
 40
57.0
 40
57.0
 40
58.0
 40
58.0
 40
58.0
 40
59.0
 40
59.0
 40
59.0
 40
60.0
 40
60.0
 40
60.0
 40
61.0
 40
61.0
 40
61.0
 40
62.0
 40
62.0
 40
62.0
 40
63.0
 40
63.0
 40
63.0
 40
64.0
 40
64.0
 40
64.0
 40
65.0
 40
65.0
 40
65.0
 40
66.0
 40
66.0
 40
66.0
 40
67.0
 40
67.0
 40
67.0
 40
68.0
 40
68.0
 40
68.0
 40
69.0
 40
69.0
 40
69.0
 40
70.0
 40
70.0
 40
70.0
 40
71.0
 40
71.0
 40
71.0
 40
72.0
 40
72.0
 40
72.0
 40
73.0
 40
73.0
 40
73.0
 40
74.0
 40
74.0
 40
74.0
 40
75.0
 40
75.0
 40
75.0
 40
76.0
 40
76.0
 40
76.0
 40
77.0
 40
77.0
 40
77.0
 40
78.0
 40
78.0
 40
78.0
 40
79.0
 40
79.0
 40
79.0
 40
80.0
 40
80.0
 40
80.0
 40
81.0
 40
81.0
 40
81.0
 40
82.0
 40
82.0
 40
82.0
 40
83.0
 40
83.0
 40
83.0
 40
84.0
 40
84.0
 40
84.0
 40
85.0
 40
85.0
 40
85.0
 40
86.0
 40
86.0
 40
86.0
 40
87.0
 40
87.0
 40
87.0
 40
88.0
 40
88.0
 40
88.0
 40
89.0
 40
89.0
 40
89.0
 40
90.0
 40
90.0
 40
90.0
 40
91.0
 40
91.0
 40
91.0
 40
92.0
 40
92.0
 40
92.0
 40
93.0
 40
93.0
 40
93.0
 40
94.0
 40
94.0
 40
94.0
 40
95.0
 40
95.0
 40
95.0
 40
96.0
 40
96.0
 40
96.0
 40
97.0
 40
97.0
 40
97.0
 40
98.0
 40
98.0
 40
98.0
 40
99.0
 40
99.0
 40
99.0
 40
100.0
 40
100.0
 40
100.0
 40
101.0
 40
101.0
 40
101.0
 40
102.0
 40
102.0
 40
102.0
 40
103.0
 40
103.0
 40
103.0
 40
104.0
 40
104.0
 40
104.0
 40
105.0
 40
105.0
 40
105.0
 40
106.0
 40
106.0
 40
106.0
 40
107.0
 40
107.0
 40
107.0
 40
108.0
 40
108.0
 40
108.0
 40
109.0
 40
109.0
 40
109.0
 40
110.0
 40
110.0
 40
110.0
 40
111.0
 40
111.0
 40
111.0
 40
112.0
 40
112.0
 40
112.0
 40
113.0
 40
113.0
 40
113.0
 40
114.0
 40
114.0
 40
114.0
 40
115.0
 40
115.0
 40
115.0
 40
116.0
 40
116.0
 40
116.0
 40
116.0
 10
705.1599731445312
 20
-836.206298828125
 30
0.0
 10
700.8800048828125
 20
-830.1063232421875
 30
0.0
 10
697.9099731445312
 20
-823.3063354492188
 30
0.0
 10
696.3499755859375
 20
-815.996337890625
 30
0.0
 10
688.7999877929688
 20
-780.5663452148438
 30
0.0
 10
688.4500122070312
 20
-747.00634765625
 30
0.0
 10
688.4299926757812
 20
-744.3863525390625
 30
0.0
 10
690.760009765625
 20
-736.4163208007812
 30
0.0
 10
690.4600219726562
 20
-729.726318359375
 30
0.0
 10
690.27001953125
 20
-727.496337890625
 30
0.0
 10
691.9299926757812
 20
-726.1263427734375
 30
0.0
 10
695.3800048828125
 20
-721.8163452148438
 30
0.0
 10
692.8900146484375
 20
-710.8463134765625
 30
0.0
 10
692.4600219726562
 20
-708.9363403320312
 30
0.0
 10
692.1300048828125
 20
-706.8763427734375
 30
0.0
 10
691.8499755859375
 20
-704.3663330078125
 30
0.0
 10
690.1099853515625
 20
-688.766357421875
 30
0.0
 10
683.469970703125
 20
-633.1363525390625
 30
0.0
 10
670.9099731445312
 20
-571.0663452148438
 30
0.0
 10
681.3300170898438
 20
-550.6463012695312
 30
0.0
 10
686.6199951171875
 20
-528.5563354492188
 30
0.0
 10
688.8499755859375
 20
-517.1663208007812
 30
0.0
 10
689.7000122070312
 20
-512.8263549804688
 30
0.0
 10
691.0999755859375
 20
-508.226318359375
 30
0.0
 10
693.1300048828125
 20
-503.0963134765634
 30
0.0
 10
696.780029296875
 20
-493.8863525390634
 30
0.0
 10
696.739990234375
 20
-482.9063110351562
 30
0.0
 10
696.6599731445312
 20
-479.8663330078134
 30
0.0
 10
699.5999755859375
 20
-478.0963134765634
 30
0.0
 10
701.47998046875
 20
-474.8663330078134
 30
0.0
 10
701.47998046875
 20
-471.3663330078134
 30
0.0
 10
701.489990234375
 20
-467.8263549804688
 30
0.0
 10
701.2899780273438
 20
-464.6963500976562
 30
0.0
 10
700.9000244140625
 20
-462.0663452148438
 30
0.0
 10
700.5
 20
-459.4263305664062
 30
0.0
 10
700.6199951171875
 20
-456.71630859375
 30
0.0
 10
701.25
 20
-454.016357421875
 30
0.0
 10
702.6599731445312
 20
-447.96630859375
 30
0.0
 10
703.239990234375
 20
-436.5763549804688
 30
0.0
 10
691.5
 20
-427.7763061523438
 30
0.0
 10
690.47998046875
 20
-421.516357421875
 30
0.0
 10
688.97998046875
 20
-413.6863403320312
 30
0.0
 10
686.8200073242188
 20
-404.8463134765634
 30
0.0
 10
719.719970703125
 20
-401.496337890625
 30
0.0
 10
722.4199829101562
 20
-365.8663330078134
 30
0.0
 10
722.030029296875
 20
-350.50634765625
 30
0.0
 10
721.8900146484375
 20
-345.2963256835938
 30
0.0
 10
720.5499877929688
 20
-340.3063354492188
 30
0.0
 10
718.1799926757812
 20
-335.9263305664062
 30
0.0
 10
727.8599853515625
 20
-290.75634765625
 30
0.0
 10
718.25
 20
-254.71630859375
 30
0.0
 10
708.4099731445312
 20
-232.3563232421884
 30
0.0
 10
714.1300048828125
 20
-238.3063354492188
 30
0.0
 10
717.6799926757812
 20
-245.5863037109384
 30
0.0
 10
717.72998046875
 20
-245.6763305664062
 30
0.0
 10
717.9500122070312
 20
-246.1363525390634
 30
0.0
 10
718.4099731445312
 20
-246.4063110351562
 30
0.0
 10
718.9000244140625
 20
-246.4063110351562
 30
0.0
 10
719.02001953125
 20
-246.4063110351562
 30
0.0
 10
719.1500244140625
 20
-246.3963012695312
 30
0.0
 10
719.280029296875
 20
-246.3563232421884
 30
0.0
 10
719.8900146484375
 20
-246.1663208007812
 30
0.0
 10
720.27001953125
 20
-245.5663452148438
 30
0.0
 10
720.1799926757812
 20
-244.9263305664062
 30
0.0
 10
717.4400024414062
 20
-225.6263427734384
 30
0.0
 10
711.1799926757812
 20
-207.246337890625
 30
0.0
 10
701.5900268554688
 20
-190.2963256835938
 30
0.0
 10
679.3499755859375
 20
-151.00634765625
 30
0.0
 10
640.4099731445312
 20
-122.8363037109384
 30
0.0
 10
594.77001953125
 20
-112.996337890625
 30
0.0
 10
554.5999755859375
 20
-104.3463134765634
 30
0.0
 10
522.8200073242188
 20
-110.9263305664062
 30
0.0
 10
503.239990234375
 20
-117.976318359375
 30
0.0
 10
483.0
 20
-125.266357421875
 30
0.0
 10
471.5399780273438
 20
-134.2863159179688
 30
0.0
 10
470.0700073242188
 20
-135.486328125
 30
0.0
 10
466.6900024414062
 20
-136.3463134765634
 30
0.0
 10
463.72998046875
 20
-137.5763549804688
 30
0.0
 10
461.1699829101562
 20
-138.996337890625
 30
0.0
 10
420.1400146484384
 20
-133.3463134765634
 30
0.0
 10
381.6199951171884
 20
-145.7863159179688
 30
0.0
 10
346.6799926757812
 20
-175.996337890625
 30
0.0
 10
316.3900146484384
 20
-202.1863403320312
 30
0.0
 10
294.760009765625
 20
-237.206298828125
 30
0.0
 10
284.1400146484384
 20
-277.2863159179688
 30
0.0
 10
275.4400024414062
 20
-310.1163330078134
 30
0.0
 10
273.0599975585938
 20
-340.25634765625
 30
0.0
 10
277.0700073242188
 20
-366.8763427734384
 30
0.0
 10
280.2899780273438
 20
-388.21630859375
 30
0.0
 10
287.5900268554688
 20
-407.3563232421884
 30
0.0
 10
298.7899780273438
 20
-423.746337890625
 30
0.0
 10
317.8699951171884
 20
-451.6863403320312
 30
0.0
 10
342.030029296875
 20
-462.1163330078134
 30
0.0
 10
342.27001953125
 20
-462.21630859375
 30
0.0
 10
342.8599853515634
 20
-462.46630859375
 30
0.0
 10
343.5499877929688
 20
-462.246337890625
 30
0.0
 10
343.8800048828134
 20
-461.706298828125
 30
0.0
 10
344.219970703125
 20
-461.1663208007812
 30
0.0
 10
344.1099853515634
 20
-460.456298828125
 30
0.0
 10
343.6300048828134
 20
-460.0363159179688
 30
0.0
 10
340.3499755859384
 20
-457.206298828125
 30
0.0
 10
338.2899780273438
 20
-452.9363403320312
 30
0.0
 10
337.0499877929688
 20
-449.3463134765634
 30
0.0
 10
348.030029296875
 20
-462.8263549804688
 30
0.0
 10
361.9400024414062
 20
-465.266357421875
 30
0.0
 10
370.5700073242188
 20
-465.266357421875
 30
0.0
 10
374.030029296875
 20
-465.266357421875
 30
0.0
 10
376.6400146484384
 20
-464.8663330078134
 30
0.0
 10
377.8599853515634
 20
-464.6463012695312
 30
0.0
 10
377.8599853515634
 20
-464.6463012695312
 30
0.0
 10
388.010009765625
 20
-475.4463500976562
 30
0.0
 10
388.010009765625
 20
-475.4463500976562
 30
0.0
 10
388.3800048828134
 20
-481.4363403320312
 30
0.0
 10
389.4600219726562
 20
-488.0563354492188
 30
0.0
 10
391.22998046875
 20
-495.2863159179688
 30
0.0
 10
391.8800048828134
 20
-497.9263305664062
 30
0.0
 10
394.030029296875
 20
-499.9263305664062
 30
0.0
 10
396.7100219726562
 20
-500.3763427734384
 30
0.0
 10
398.3599853515634
 20
-500.6563110351562
 30
0.0
 10
400.27001953125
 20
-500.9163208007812
 30
0.0
 10
402.27001953125
 20
-501.0763549804688
 30
0.0
 10
402.47998046875
 20
-504.6263427734384
 30
0.0
 10
404.8599853515634
 20
-532.8463134765625
 30
0.0
 10
428.6300048828134
 20
-552.00634765625
 30
0.0
 10
443.719970703125
 20
-564.1563110351562
 30
0.0
 10
464.0
 20
-570.25634765625
 30
0.0
 10
489.1900024414062
 20
-570.25634765625
 30
0.0
 10
500.219970703125
 20
-570.25634765625
 30
0.0
 10
512.2000122070312
 20
-569.0763549804688
 30
0.0
 10
525.0900268554688
 20
-566.726318359375
 30
0.0
 10
524.780029296875
 20
-567.6263427734375
 30
0.0
 10
524.4099731445312
 20
-568.7863159179688
 30
0.0
 10
524.010009765625
 20
-570.1663208007812
 30
0.0
 10
520.8800048828125
 20
-572.8963012695312
 30
0.0
 10
495.6900024414062
 20
-595.7963256835938
 30
0.0
 10
493.010009765625
 20
-626.996337890625
 30
0.0
 10
493.0
 20
-627.1563110351562
 30
0.0
 10
491.8400268554688
 20
-640.1463012695312
 30
0.0
 10
487.0599975585938
 20
-649.996337890625
 30
0.0
 10
486.0900268554688
 20
-649.746337890625
 30
0.0
 10
485.0999755859384
 20
-649.6563110351562
 30
0.0
 10
484.1099853515634
 20
-649.766357421875
 30
0.0
 10
483.1099853515634
 20
-649.8663330078125
 30
0.0
 10
482.219970703125
 20
-650.456298828125
 30
0.0
 10
481.72998046875
 20
-651.3463134765625
 30
0.0
 10
481.2999877929688
 20
-652.1263427734375
 30
0.0
 10
481.239990234375
 20
-653.0363159179688
 30
0.0
 10
481.530029296875
 20
-653.8563232421875
 30
0.0
 10
481.5999755859384
 20
-655.236328125
 30
0.0
 10
482.1199951171884
 20
-667.746337890625
 30
0.0
 10
476.989990234375
 20
-672.96630859375
 30
0.0
 10
475.3099975585938
 20
-674.6763305664062
 30
0.0
 10
474.9400024414062
 20
-677.25634765625
 30
0.0
 10
476.0900268554688
 20
-679.246337890625
 30
0.0
 10
476.7899780273438
 20
-680.4463500976562
 30
0.0
 10
477.9000244140634
 20
-681.736328125
 30
0.0
 10
479.5900268554688
 20
-683.0463256835938
 30
0.0
 10
477.9400024414062
 20
-687.236328125
 30
0.0
 10
470.989990234375
 20
-704.8463134765625
 30
0.0
 10
464.4299926757812
 20
-720.8963012695312
 30
0.0
 10
463.5700073242188
 20
-723.00634765625
 30
0.0
 10
461.8800048828134
 20
-724.6763305664062
 30
0.0
 10
459.780029296875
 20
-725.46630859375
 30
0.0
 10
457.2899780273438
 20
-726.4063110351562
 30
0.0
 10
453.9400024414062
 20
-727.9363403320312
 30
0.0
 10
450.2999877929688
 20
-730.226318359375
 30
0.0
 10
447.9299926757812
 20
-728.6963500976562
 30
0.0
 10
444.6199951171884
 20
-727.486328125
 30
0.0
 10
440.4299926757812
 20
-726.6363525390625
 30
0.0
 10
438.8699951171884
 20
-726.3263549804688
 30
0.0
 10
437.3599853515634
 20
-727.0663452148438
 30
0.0
 10
436.6500244140634
 20
-728.486328125
 30
0.0
 10
435.9500122070312
 20
-729.9063110351562
 30
0.0
 10
436.280029296875
 20
-731.5663452148438
 30
0.0
 10
437.47998046875
 20
-732.6163330078125
 30
0.0
 10
439.260009765625
 20
-734.1663208007812
 30
0.0
 10
440.8499755859384
 20
-735.3263549804688
 30
0.0
 10
441.989990234375
 20
-736.1063232421875
 30
0.0
 10
440.1799926757812
 20
-737.1263427734375
 30
0.0
 10
438.1799926757812
 20
-737.8863525390625
 30
0.0
 10
436.0800170898438
 20
-738.3263549804688
 30
0.0
 10
434.52001953125
 20
-738.6463012695312
 30
0.0
 10
432.8900146484384
 20
-738.9063110351562
 30
0.0
 10
431.2100219726562
 20
-739.0963134765625
 30
0.0
 10
429.1199951171884
 20
-739.3363037109375
 30
0.0
 10
427.510009765625
 20
-740.8963012695312
 30
0.0
 10
427.219970703125
 20
-742.996337890625
 30
0.0
 10
426.9400024414062
 20
-745.0463256835938
 30
0.0
 10
428.030029296875
 20
-746.9363403320312
 30
0.0
 10
429.9400024414062
 20
-747.71630859375
 30
0.0
 10
432.9299926757812
 20
-748.9363403320312
 30
0.0
 10
436.3699951171884
 20
-749.5463256835938
 30
0.0
 10
440.22998046875
 20
-749.5463256835938
 30
0.0
 10
442.1500244140634
 20
-749.5463256835938
 30
0.0
 10
444.1900024414062
 20
-749.3863525390625
 30
0.0
 10
446.3300170898438
 20
-749.0863037109375
 30
0.0
 10
444.7999877929688
 20
-751.5763549804688
 30
0.0
 10
442.9400024414062
 20
-754.0463256835938
 30
0.0
 10
440.739990234375
 20
-756.476318359375
 30
0.0
 10
439.3699951171884
 20
-757.986328125
 30
0.0
 10
439.2000122070312
 20
-760.1463012695312
 30
0.0
 10
440.3099975585938
 20
-761.8363037109375
 30
0.0
 10
441.1699829101562
 20
-763.1363525390625
 30
0.0
 10
442.5499877929688
 20
-763.8663330078125
 30
0.0
 10
444.02001953125
 20
-763.8663330078125
 30
0.0
 10
444.510009765625
 20
-763.8663330078125
 30
0.0
 10
445.010009765625
 20
-763.7863159179688
 30
0.0
 10
445.5
 20
-763.6163330078125
 30
0.0
 10
447.969970703125
 20
-762.7763061523438
 30
0.0
 10
450.4299926757812
 20
-761.516357421875
 30
0.0
 10
452.7999877929688
 20
-759.8663330078125
 30
0.0
 10
455.8800048828134
 20
-757.71630859375
 30
0.0
 10
459.47998046875
 20
-756.266357421875
 30
0.0
 10
463.2000122070312
 20
-755.6763305664062
 30
0.0
 10
480.4000244140634
 20
-752.9463500976562
 30
0.0
 10
487.5499877929688
 20
-744.1863403320312
 30
0.0
 10
490.280029296875
 20
-739.206298828125
 30
0.0
 10
491.989990234375
 20
-736.0963134765625
 30
0.0
 10
494.1400146484384
 20
-733.25634765625
 30
0.0
 10
496.6799926757812
 20
-730.75634765625
 30
0.0
 10
506.8800048828134
 20
-720.726318359375
 30
0.0
 10
515.8499755859375
 20
-710.71630859375
 30
0.0
 10
520.4000244140625
 20
-705.50634765625
 30
0.0
 10
520.3400268554688
 20
-705.7863159179688
 30
0.0
 10
520.2899780273438
 20
-706.0763549804688
 30
0.0
 10
520.22998046875
 20
-706.3563232421875
 30
0.0
 10
518.77001953125
 20
-712.9263305664062
 30
0.0
 10
518.1500244140625
 20
-718.4363403320312
 30
0.0
 10
518.3699951171875
 20
-722.75634765625
 30
0.0
 10
516.8300170898438
 20
-724.8563232421875
 30
0.0
 10
516.47998046875
 20
-726.4263305664062
 30
0.0
 10
516.4400024414062
 20
-726.6363525390625
 30
0.0
 10
516.4299926757812
 20
-726.706298828125
 30
0.0
 10
516.4199829101562
 20
-726.7863159179688
 30
0.0
 10
516.4199829101562
 20
-726.8663330078125
 30
0.0
 10
516.4199829101562
 20
-727.266357421875
 30
0.0
 10
516.3900146484375
 20
-736.6063232421875
 30
0.0
 10
519.7000122070312
 20
-744.746337890625
 30
0.0
 10
518.1900024414062
 20
-750.71630859375
 30
0.0
 10
499.3900146484384
 20
-823.7863159179688
 30
0.0
 10
463.0599975585938
 20
-905.7863159179688
 30
0.0
 10
461.739990234375
 20
-908.7763061523438
 30
0.0
 10
460.3800048828134
 20
-911.7863159179688
 30
0.0
 10
459.010009765625
 20
-914.8063354492188
 30
0.0
 10
458.8200073242188
 20
-915.21630859375
 30
0.0
 10
458.8699951171884
 20
-915.6963500976562
 30
0.0
 10
459.1199951171884
 20
-916.0663452148438
 30
0.0
 10
459.3800048828134
 20
-916.4463500976562
 30
0.0
 10
459.8200073242188
 20
-916.6663208007812
 30
0.0
 10
460.27001953125
 20
-916.6463012695312
 30
0.0
 10
460.280029296875
 20
-916.6463012695312
 30
0.0
 10
460.3699951171884
 20
-916.6363525390625
 30
0.0
 10
460.5499877929688
 20
-916.6563110351562
 30
0.0
 10
455.3200073242188
 20
-919.8863525390625
 30
0.0
 10
444.9000244140634
 20
-927.2963256835938
 30
0.0
 10
442.219970703125
 20
-936.3563232421875
 30
0.0
 10
441.4500122070312
 20
-938.976318359375
 30
0.0
 10
442.3900146484384
 20
-941.8663330078125
 30
0.0
 10
444.5599975585938
 20
-943.5363159179688
 30
0.0
 10
448.8200073242188
 20
-946.8063354492188
 30
0.0
 10
459.3699951171884
 20
-952.4463500976562
 30
0.0
 10
481.5499877929688
 20
-952.4463500976562
 30
0.0
 10
492.489990234375
 20
-952.4463500976562
 30
0.0
 10
506.27001953125
 20
-951.0763549804688
 30
0.0
 10
523.52001953125
 20
-947.3663330078125
 30
0.0
 10
527.219970703125
 20
-948.206298828125
 30
0.0
 10
530.989990234375
 20
-948.746337890625
 30
0.0
 10
534.77001953125
 20
-948.996337890625
 30
0.0
 10
534.8499755859375
 20
-949.00634765625
 30
0.0
 10
534.9299926757812
 20
-949.0463256835938
 30
0.0
 10
535.010009765625
 20
-949.0463256835938
 30
0.0
 10
535.0700073242188
 20
-949.0463256835938
 30
0.0
 10
535.1199951171875
 20
-949.0263061523438
 30
0.0
 10
535.1799926757812
 20
-949.016357421875
 30
0.0
 10
536.5700073242188
 20
-949.0963134765625
 30
0.0
 10
537.9600219726562
 20
-949.1563110351562
 30
0.0
 10
539.3499755859375
 20
-949.1563110351562
 30
0.0
 10
543.8400268554688
 20
-949.1563110351562
 30
0.0
 10
548.3400268554688
 20
-948.71630859375
 30
0.0
 10
552.77001953125
 20
-947.8463134765625
 30
0.0
 10
553.5800170898438
 20
-947.6863403320312
 30
0.0
 10
554.4099731445312
 20
-947.50634765625
 30
0.0
 10
555.239990234375
 20
-947.3163452148438
 30
0.0
 10
555.72998046875
 20
-947.206298828125
 30
0.0
 10
556.1099853515625
 20
-946.8363037109375
 30
0.0
 10
556.219970703125
 20
-946.3463134765625
 30
0.0
 10
556.25
 20
-946.21630859375
 30
0.0
 10
557.22998046875
 20
-942.0363159179688
 30
0.0
 10
558.6799926757812
 20
-934.726318359375
 30
0.0
 10
561.6099853515625
 20
-920.0863037109375
 30
0.0
 10
566.47998046875
 20
-892.8963012695312
 30
0.0
 10
569.5399780273438
 20
-860.71630859375
 30
0.0
 10
570.2100219726562
 20
-853.6563110351562
 30
0.0
 10
573.4500122070312
 20
-847.1563110351562
 30
0.0
 10
578.6699829101562
 20
-842.4463500976562
 30
0.0
 10
586.1400146484375
 20
-835.6863403320312
 30
0.0
 10
596.719970703125
 20
-825.6363525390625
 30
0.0
 10
605.4600219726562
 20
-815.5763549804688
 30
0.0
 10
625.030029296875
 20
-840.0263061523438
 30
0.0
 10
639.8599853515625
 20
-878.986328125
 30
0.0
 10
646.760009765625
 20
-899.3363037109375
 30
0.0
 10
649.97998046875
 20
-908.8463134765625
 30
0.0
 10
651.989990234375
 20
-918.6163330078125
 30
0.0
 10
652.739990234375
 20
-928.50634765625
 30
0.0
 10
653.030029296875
 20
-932.226318359375
 30
0.0
 10
653.1500244140625
 20
-935.956298828125
 30
0.0
 10
653.0800170898438
 20
-939.706298828125
 30
0.0
 10
653.0800170898438
 20
-939.706298828125
 30
0.0
 10
653.0800170898438
 20
-939.8863525390625
 30
0.0
 10
653.0800170898438
 20
-939.8863525390625
 30
0.0
 10
653.0599975585938
 20
-940.6363525390625
 30
0.0
 10
653.489990234375
 20
-941.2863159179688
 30
0.0
 10
654.1500244140625
 20
-941.6063232421875
 30
0.0
 10
654.1500244140625
 20
-942.986328125
 30
0.0
 10
654.2100219726562
 20
-945.236328125
 30
0.0
 10
654.4299926757812
 20
-947.6663208007812
 30
0.0
 10
654.6900024414062
 20
-950.4263305664062
 30
0.0
 10
656.5599975585938
 20
-952.7963256835938
 30
0.0
 10
659.1799926757812
 20
-953.6963500976562
 30
0.0
 10
664.4400024414062
 20
-955.50634765625
 30
0.0
 10
675.3499755859375
 20
-958.496337890625
 30
0.0
 10
689.8800048828125
 20
-958.496337890625
 30
0.0
 10
698.25
 20
-958.496337890625
 30
0.0
 10
707.8200073242188
 20
-957.50634765625
 30
0.0
 10
718.2000122070312
 20
-954.71630859375
 30
0.0
 10
721.010009765625
 20
-953.956298828125
 30
0.0
 10
722.989990234375
 20
-951.50634765625
 30
0.0
 10
723.1400146484375
 20
-948.6063232421875
 30
0.0
 10
723.25
 20
-946.25634765625
 30
0.0
 10
723.3099975585938
 20
-942.9463500976562
 30
0.0
 10
723.030029296875
 20
-939.5963134765625
 30
0.0
 10
726.1599731445312
 20
-940.496337890625
 30
0.0
 10
728.8400268554688
 20
-941.3263549804688
 30
0.0
 10
730.8400268554688
 20
-941.976318359375
 30
0.0
 10
731.3699951171875
 20
-942.1463012695312
 30
0.0
 10
731.9099731445312
 20
-942.226318359375
 30
0.0
 10
732.4500122070312
 20
-942.226318359375
 30
0.0
 10
733.4199829101562
 20
-942.226318359375
 30
0.0
 10
734.3699951171875
 20
-941.96630859375
 30
0.0
 10
735.2100219726562
 20
-941.4463500976562
 30
0.0
 10
736.489990234375
 20
-940.6463012695312
 30
0.0
 10
737.3599853515625
 20
-939.3363037109375
 30
0.0
 10
737.5800170898438
 20
-937.8463134765625
 30
0.0
 10
738.0
 20
-935.0463256835938
 30
0.0
 10
738.260009765625
 20
-932.236328125
 30
0.0
 10
738.3900146484375
 20
-929.4263305664062
 30
0.0
 10
740.1599731445312
 20
-890.706298828125
 30
0.0
 10
716.1500244140625
 20
-851.8463134765625
 30
0.0
 10
705.1599731445312
 20
-836.206298828125
 30
0.0
  0
HATCH
  5
42
330
1F
100
AcDbEntity
  8
JH_PINK
 62
   233
420
 14508429
100
AcDbHatch
 10
0.0
 20
0.0
 30
0.0
210
0.0
220
0.0
230
1.0
  2
SOLID
 70
     1
 71
     0
 91
        1
 92
        1
 93
        1
 72
     4
 94
        3
 73
     0
 74
     1
 95
      353
 96
      349
 40
0.0
 40
0.0
 40
0.0
 40
0.0
 40
1.0
 40
1.0
 40
1.0
 40
2.0
 40
2.0
 40
2.0
 40
3.0
 40
3.0
 40
3.0
 40
4.0
 40
4.0
 40
4.0
 40
5.0
 40
5.0
 40
5.0
 40
6.0
 40
6.0
 40
6.0
 40
7.0
 40
7.0
 40
7.0
 40
8.0
 40
8.0
 40
8.0
 40
9.0
 40
9.0
 40
9.0
 40
10.0
 40
10.0
 40
10.0
 40
11.0
 40
11.0
 40
11.0
 40
12.0
 40
12.0
 40
12.0
 40
13.0
 40
13.0
 40
13.0
 40
14.0
 40
14.0
 40
14.0
 40
15.0
 40
15.0
 40
15.0
 40
16.0
 40
16.0
 40
16.0
 40
17.0
 40
17.0
 40
17.0
 40
18.0
 40
18.0
 40
18.0
 40
19.0
 40
19.0
 40
19.0
 40
20.0
 40
20.0
 40
20.0
 40
21.0
 40
21.0
 40
21.0
 40
22.0
 40
22.0
 40
22.0
 40
23.0
 40
23.0
 40
23.0
 40
24.0
 40
24.0
 40
24.0
 40
25.0
 40
25.0
 40
25.0
 40
26.0
 40
26.0
 40
26.0
 40
27.0
 40
27.0
 40
27.0
 40
28.0
 40
28.0
 40
28.0
 40
29.0
 40
29.0
 40
29.0
 40
30.0
 40
30.0
 40
30.0
 40
31.0
 40
31.0
 40
31.0
 40
32.0
 40
32.0
 40
32.0
 40
33.0
 40
33.0
 40
33.0
 40
34.0
 40
34.0
 40
34.0
 40
35.0
 40
35.0
 40
35.0
 40
36.0
 40
36.0
 40
36.0
 40
37.0
 40
37.0
 40
37.0
 40
38.0
 40
38.0
 40
38.0
 40
39.0
 40
39.0
 40
39.0
 40
40.0
 40
40.0
 40
40.0
 40
41.0
 40
41.0
 40
41.0
 40
42.0
 40
42.0
 40
42.0
 40
43.0
 40
43.0
 40
43.0
 40
44.0
 40
44.0
 40
44.0
 40
45.0
 40
45.0
 40
45.0
 40
46.0
 40
46.0
 40
46.0
 40
47.0
 40
47.0
 40
47.0
 40
48.0
 40
48.0
 40
48.0
 40
49.0
 40
49.0
 40
49.0
 40
50.0
 40
50.0
 40
50.0
 40
51.0
 40
51.0
 40
51.0
 40
52.0
 40
52.0
 40
52.0
 40
53.0
 40
53.0
 40
53.0
 40
54.0
 40
54.0
 40
54.0
 40
55.0
 40
55.0
 40
55.0
 40
56.0
 40
56.0
 40
56.0
 40
57.0
 40
57.0
 40
57.0
 40
58.0
 40
58.0
 40
58.0
 40
59.0
 40
59.0
 40
59.0
 40
60.0
 40
60.0
 40
60.0
 40
61.0
 40
61.0
 40
61.0
 40
62.0
 40
62.0
 40
62.0
 40
63.0
 40
63.0
 40
63.0
 40
64.0
 40
64.0
 40
64.0
 40
65.0
 40
65.0
 40
65.0
 40
66.0
 40
66.0
 40
66.0
 40
67.0
 40
67.0
 40
67.0
 40
68.0
 40
68.0
 40
68.0
 40
69.0
 40
69.0
 40
69.0
 40
70.0
 40
70.0
 40
70.0
 40
71.0
 40
71.0
 40
71.0
 40
72.0
 40
72.0
 40
72.0
 40
73.0
 40
73.0
 40
73.0
 40
74.0
 40
74.0
 40
74.0
 40
75.0
 40
75.0
 40
75.0
 40
76.0
 40
76.0
 40
76.0
 40
77.0
 40
77.0
 40
77.0
 40
78.0
 40
78.0
 40
78.0
 40
79.0
 40
79.0
 40
79.0
 40
80.0
 40
80.0
 40
80.0
 40
81.0
 40
81.0
 40
81.0
 40
82.0
 40
82.0
 40
82.0
 40
83.0
 40
83.0
 40
83.0
 40
84.0
 40
84.0
 40
84.0
 40
85.0
 40
85.0
 40
85.0
 40
86.0
 40
86.0
 40
86.0
 40
87.0
 40
87.0
 40
87.0
 40
88.0
 40
88.0
 40
88.0
 40
89.0
 40
89.0
 40
89.0
 40
90.0
 40
90.0
 40
90.0
 40
91.0
 40
91.0
 40
91.0
 40
92.0
 40
92.0
 40
92.0
 40
93.0
 40
93.0
 40
93.0
 40
94.0
 40
94.0
 40
94.0
 40
95.0
 40
95.0
 40
95.0
 40
96.0
 40
96.0
 40
96.0
 40
97.0
 40
97.0
 40
97.0
 40
98.0
 40
98.0
 40
98.0
 40
99.0
 40
99.0
 40
99.0
 40
100.0
 40
100.0
 40
100.0
 40
101.0
 40
101.0
 40
101.0
 40
102.0
 40
102.0
 40
102.0
 40
103.0
 40
103.0
 40
103.0
 40
104.0
 40
104.0
 40
104.0
 40
105.0
 40
105.0
 40
105.0
 40
106.0
 40
106.0
 40
106.0
 40
107.0
 40
107.0
 40
107.0
 40
108.0
 40
108.0
 40
108.0
 40
109.0
 40
109.0
 40
109.0
 40
110.0
 40
110.0
 40
110.0
 40
111.0
 40
111.0
 40
111.0
 40
112.0
 40
112.0
 40
112.0
 40
113.0
 40
113.0
 40
113.0
 40
114.0
 40
114.0
 40
114.0
 40
115.0
 40
115.0
 40
115.0
 40
116.0
 40
116.0
 40
116.0
 40
116.0
 10
705.1599731445312
 20
-836.206298828125
 10
700.8800048828125
 20
-830.1063232421875
 10
697.9099731445312
 20
-823.3063354492188
 10
696.3499755859375
 20
-815.996337890625
 10
688.7999877929688
 20
-780.5663452148438
 10
688.4500122070312
 20
-747.00634765625
 10
688.4299926757812
 20
-744.3863525390625
 10
690.760009765625
 20
-736.4163208007812
 10
690.4600219726562
 20
-729.726318359375
 10
690.27001953125
 20
-727.496337890625
 10
691.9299926757812
 20
-726.1263427734375
 10
695.3800048828125
 20
-721.8163452148438
 10
692.8900146484375
 20
-710.8463134765625
 10
692.4600219726562
 20
-708.9363403320312
 10
692.1300048828125
 20
-706.8763427734375
 10
691.8499755859375
 20
-704.3663330078125
 10
690.1099853515625
 20
-688.766357421875
 10
683.469970703125
 20
-633.1363525390625
 10
670.9099731445312
 20
-571.0663452148438
 10
681.3300170898438
 20
-550.6463012695312
 10
686.6199951171875
 20
-528.5563354492188
 10
688.8499755859375
 20
-517.1663208007812
 10
689.7000122070312
 20
-512.8263549804688
 10
691.0999755859375
 20
-508.226318359375
 10
693.1300048828125
 20
-503.0963134765634
 10
696.780029296875
 20
-493.8863525390634
 10
696.739990234375
 20
-482.9063110351562
 10
696.6599731445312
 20
-479.8663330078134
 10
699.5999755859375
 20
-478.0963134765634
 10
701.47998046875
 20
-474.8663330078134
 10
701.47998046875
 20
-471.3663330078134
 10
701.489990234375
 20
-467.8263549804688
 10
701.2899780273438
 20
-464.6963500976562
 10
700.9000244140625
 20
-462.0663452148438
 10
700.5
 20
-459.4263305664062
 10
700.6199951171875
 20
-456.71630859375
 10
701.25
 20
-454.016357421875
 10
702.6599731445312
 20
-447.96630859375
 10
703.239990234375
 20
-436.5763549804688
 10
691.5
 20
-427.7763061523438
 10
690.47998046875
 20
-421.516357421875
 10
688.97998046875
 20
-413.6863403320312
 10
686.8200073242188
 20
-404.8463134765634
 10
719.719970703125
 20
-401.496337890625
 10
722.4199829101562
 20
-365.8663330078134
 10
722.030029296875
 20
-350.50634765625
 10
721.8900146484375
 20
-345.2963256835938
 10
720.5499877929688
 20
-340.3063354492188
 10
718.1799926757812
 20
-335.9263305664062
 10
727.8599853515625
 20
-290.75634765625
 10
718.25
 20
-254.71630859375
 10
708.4099731445312
 20
-232.3563232421884
 10
714.1300048828125
 20
-238.3063354492188
 10
717.6799926757812
 20
-245.5863037109384
 10
717.72998046875
 20
-245.6763305664062
 10
717.9500122070312
 20
-246.1363525390634
 10
718.4099731445312
 20
-246.4063110351562
 10
718.9000244140625
 20
-246.4063110351562
 10
719.02001953125
 20
-246.4063110351562
 10
719.1500244140625
 20
-246.3963012695312
 10
719.280029296875
 20
-246.3563232421884
 10
719.8900146484375
 20
-246.1663208007812
 10
720.27001953125
 20
-245.5663452148438
 10
720.1799926757812
 20
-244.9263305664062
 10
717.4400024414062
 20
-225.6263427734384
 10
711.1799926757812
 20
-207.246337890625
 10
701.5900268554688
 20
-190.2963256835938
 10
679.3499755859375
 20
-151.00634765625
 10
640.4099731445312
 20
-122.8363037109384
 10
594.77001953125
 20
-112.996337890625
 10
554.5999755859375
 20
-104.3463134765634
 10
522.8200073242188
 20
-110.9263305664062
 10
503.239990234375
 20
-117.976318359375
 10
483.0
 20
-125.266357421875
 10
471.5399780273438
 20
-134.2863159179688
 10
470.0700073242188
 20
-135.486328125
 10
466.6900024414062
 20
-136.3463134765634
 10
463.72998046875
 20
-137.5763549804688
 10
461.1699829101562
 20
-138.996337890625
 10
420.1400146484384
 20
-133.3463134765634
 10
381.6199951171884
 20
-145.7863159179688
 10
346.6799926757812
 20
-175.996337890625
 10
316.3900146484384
 20
-202.1863403320312
 10
294.760009765625
 20
-237.206298828125
 10
284.1400146484384
 20
-277.2863159179688
 10
275.4400024414062
 20
-310.1163330078134
 10
273.0599975585938
 20
-340.25634765625
 10
277.0700073242188
 20
-366.8763427734384
 10
280.2899780273438
 20
-388.21630859375
 10
287.5900268554688
 20
-407.3563232421884
 10
298.7899780273438
 20
-423.746337890625
 10
317.8699951171884
 20
-451.6863403320312
 10
342.030029296875
 20
-462.1163330078134
 10
342.27001953125
 20
-462.21630859375
 10
342.8599853515634
 20
-462.46630859375
 10
343.5499877929688
 20
-462.246337890625
 10
343.8800048828134
 20
-461.706298828125
 10
344.219970703125
 20
-461.1663208007812
 10
344.1099853515634
 20
-460.456298828125
 10
343.6300048828134
 20
-460.0363159179688
 10
340.3499755859384
 20
-457.206298828125
 10
338.2899780273438
 20
-452.9363403320312
 10
337.0499877929688
 20
-449.3463134765634
 10
348.030029296875
 20
-462.8263549804688
 10
361.9400024414062
 20
-465.266357421875
 10
370.5700073242188
 20
-465.266357421875
 10
374.030029296875
 20
-465.266357421875
 10
376.6400146484384
 20
-464.8663330078134
 10
377.8599853515634
 20
-464.6463012695312
 10
377.8599853515634
 20
-464.6463012695312
 10
388.010009765625
 20
-475.4463500976562
 10
388.010009765625
 20
-475.4463500976562
 10
388.3800048828134
 20
-481.4363403320312
 10
389.4600219726562
 20
-488.0563354492188
 10
391.22998046875
 20
-495.2863159179688
 10
391.8800048828134
 20
-497.9263305664062
 10
394.030029296875
 20
-499.9263305664062
 10
396.7100219726562
 20
-500.3763427734384
 10
398.3599853515634
 20
-500.6563110351562
 10
400.27001953125
 20
-500.9163208007812
 10
402.27001953125
 20
-501.0763549804688
 10
402.47998046875
 20
-504.6263427734384
 10
404.8599853515634
 20
-532.8463134765625
 10
428.6300048828134
 20
-552.00634765625
 10
443.719970703125
 20
-564.1563110351562
 10
464.0
 20
-570.25634765625
 10
489.1900024414062
 20
-570.25634765625
 10
500.219970703125
 20
-570.25634765625
 10
512.2000122070312
 20
-569.0763549804688
 10
525.0900268554688
 20
-566.726318359375
 10
524.780029296875
 20
-567.6263427734375
 10
524.4099731445312
 20
-568.7863159179688
 10
524.010009765625
 20
-570.1663208007812
 10
520.8800048828125
 20
-572.8963012695312
 10
495.6900024414062
 20
-595.7963256835938
 10
493.010009765625
 20
-626.996337890625
 10
493.0
 20
-627.1563110351562
 10
491.8400268554688
 20
-640.1463012695312
 10
487.0599975585938
 20
-649.996337890625
 10
486.0900268554688
 20
-649.746337890625
 10
485.0999755859384
 20
-649.6563110351562
 10
484.1099853515634
 20
-649.766357421875
 10
483.1099853515634
 20
-649.8663330078125
 10
482.219970703125
 20
-650.456298828125
 10
481.72998046875
 20
-651.3463134765625
 10
481.2999877929688
 20
-652.1263427734375
 10
481.239990234375
 20
-653.0363159179688
 10
481.530029296875
 20
-653.8563232421875
 10
481.5999755859384
 20
-655.236328125
 10
482.1199951171884
 20
-667.746337890625
 10
476.989990234375
 20
-672.96630859375
 10
475.3099975585938
 20
-674.6763305664062
 10
474.9400024414062
 20
-677.25634765625
 10
476.0900268554688
 20
-679.246337890625
 10
476.7899780273438
 20
-680.4463500976562
 10
477.9000244140634
 20
-681.736328125
 10
479.5900268554688
 20
-683.0463256835938
 10
477.9400024414062
 20
-687.236328125
 10
470.989990234375
 20
-704.8463134765625
 10
464.4299926757812
 20
-720.8963012695312
 10
463.5700073242188
 20
-723.00634765625
 10
461.8800048828134
 20
-724.6763305664062
 10
459.780029296875
 20
-725.46630859375
 10
457.2899780273438
 20
-726.4063110351562
 10
453.9400024414062
 20
-727.9363403320312
 10
450.2999877929688
 20
-730.226318359375
 10
447.9299926757812
 20
-728.6963500976562
 10
444.6199951171884
 20
-727.486328125
 10
440.4299926757812
 20
-726.6363525390625
 10
438.8699951171884
 20
-726.3263549804688
 10
437.3599853515634
 20
-727.0663452148438
 10
436.6500244140634
 20
-728.486328125
 10
435.9500122070312
 20
-729.9063110351562
 10
436.280029296875
 20
-731.5663452148438
 10
437.47998046875
 20
-732.6163330078125
 10
439.260009765625
 20
-734.1663208007812
 10
440.8499755859384
 20
-735.3263549804688
 10
441.989990234375
 20
-736.1063232421875
 10
440.1799926757812
 20
-737.1263427734375
 10
438.1799926757812
 20
-737.8863525390625
 10
436.0800170898438
 20
-738.3263549804688
 10
434.52001953125
 20
-738.6463012695312
 10
432.8900146484384
 20
-738.9063110351562
 10
431.2100219726562
 20
-739.0963134765625
 10
429.1199951171884
 20
-739.3363037109375
 10
427.510009765625
 20
-740.8963012695312
 10
427.219970703125
 20
-742.996337890625
 10
426.9400024414062
 20
-745.0463256835938
 10
428.030029296875
 20
-746.9363403320312
 10
429.9400024414062
 20
-747.71630859375
 10
432.9299926757812
 20
-748.9363403320312
 10
436.3699951171884
 20
-749.5463256835938
 10
440.22998046875
 20
-749.5463256835938
 10
442.1500244140634
 20
-749.5463256835938
 10
444.1900024414062
 20
-749.3863525390625
 10
446.3300170898438
 20
-749.0863037109375
 10
444.7999877929688
 20
-751.5763549804688
 10
442.9400024414062
 20
-754.0463256835938
 10
440.739990234375
 20
-756.476318359375
 10
439.3699951171884
 20
-757.986328125
 10
439.2000122070312
 20
-760.1463012695312
 10
440.3099975585938
 20
-761.8363037109375
 10
441.1699829101562
 20
-763.1363525390625
 10
442.5499877929688
 20
-763.8663330078125
 10
444.02001953125
 20
-763.8663330078125
 10
444.510009765625
 20
-763.8663330078125
 10
445.010009765625
 20
-763.7863159179688
 10
445.5
 20
-763.6163330078125
 10
447.969970703125
 20
-762.7763061523438
 10
450.4299926757812
 20
-761.516357421875
 10
452.7999877929688
 20
-759.8663330078125
 10
455.8800048828134
 20
-757.71630859375
 10
459.47998046875
 20
-756.266357421875
 10
463.2000122070312
 20
-755.6763305664062
 10
480.4000244140634
 20
-752.9463500976562
 10
487.5499877929688
 20
-744.1863403320312
 10
490.280029296875
 20
-739.206298828125
 10
491.989990234375
 20
-736.0963134765625
 10
494.1400146484384
 20
-733.25634765625
 10
496.6799926757812
 20
-730.75634765625
 10
506.8800048828134
 20
-720.726318359375
 10
515.8499755859375
 20
-710.71630859375
 10
520.4000244140625
 20
-705.50634765625
 10
520.3400268554688
 20
-705.7863159179688
 10
520.2899780273438
 20
-706.0763549804688
 10
520.22998046875
 20
-706.3563232421875
 10
518.77001953125
 20
-712.9263305664062
 10
518.1500244140625
 20
-718.4363403320312
 10
518.3699951171875
 20
-722.75634765625
 10
516.8300170898438
 20
-724.8563232421875
 10
516.47998046875
 20
-726.4263305664062
 10
516.4400024414062
 20
-726.6363525390625
 10
516.4299926757812
 20
-726.706298828125
 10
516.4199829101562
 20
-726.7863159179688
 10
516.4199829101562
 20
-726.8663330078125
 10
516.4199829101562
 20
-727.266357421875
 10
516.3900146484375
 20
-736.6063232421875
 10
519.7000122070312
 20
-744.746337890625
 10
518.1900024414062
 20
-750.71630859375
 10
499.3900146484384
 20
-823.7863159179688
 10
463.0599975585938
 20
-905.7863159179688
 10
461.739990234375
 20
-908.7763061523438
 10
460.3800048828134
 20
-911.7863159179688
 10
459.010009765625
 20
-914.8063354492188
 10
458.8200073242188
 20
-915.21630859375
 10
458.8699951171884
 20
-915.6963500976562
 10
459.1199951171884
 20
-916.0663452148438
 10
459.3800048828134
 20
-916.4463500976562
 10
459.8200073242188
 20
-916.6663208007812
 10
460.27001953125
 20
-916.6463012695312
 10
460.280029296875
 20
-916.6463012695312
 10
460.3699951171884
 20
-916.6363525390625
 10
460.5499877929688
 20
-916.6563110351562
 10
455.3200073242188
 20
-919.8863525390625
 10
444.9000244140634
 20
-927.2963256835938
 10
442.219970703125
 20
-936.3563232421875
 10
441.4500122070312
 20
-938.976318359375
 10
442.3900146484384
 20
-941.8663330078125
 10
444.5599975585938
 20
-943.5363159179688
 10
448.8200073242188
 20
-946.8063354492188
 10
459.3699951171884
 20
-952.4463500976562
 10
481.5499877929688
 20
-952.4463500976562
 10
492.489990234375
 20
-952.4463500976562
 10
506.27001953125
 20
-951.0763549804688
 10
523.52001953125
 20
-947.3663330078125
 10
527.219970703125
 20
-948.206298828125
 10
530.989990234375
 20
-948.746337890625
 10
534.77001953125
 20
-948.996337890625
 10
534.8499755859375
 20
-949.00634765625
 10
534.9299926757812
 20
-949.0463256835938
 10
535.010009765625
 20
-949.0463256835938
 10
535.0700073242188
 20
-949.0463256835938
 10
535.1199951171875
 20
-949.0263061523438
 10
535.1799926757812
 20
-949.016357421875
 10
536.5700073242188
 20
-949.0963134765625
 10
537.9600219726562
 20
-949.1563110351562
 10
539.3499755859375
 20
-949.1563110351562
 10
543.8400268554688
 20
-949.1563110351562
 10
548.3400268554688
 20
-948.71630859375
 10
552.77001953125
 20
-947.8463134765625
 10
553.5800170898438
 20
-947.6863403320312
 10
554.4099731445312
 20
-947.50634765625
 10
555.239990234375
 20
-947.3163452148438
 10
555.72998046875
 20
-947.206298828125
 10
556.1099853515625
 20
-946.8363037109375
 10
556.219970703125
 20
-946.3463134765625
 10
556.25
 20
-946.21630859375
 10
557.22998046875
 20
-942.0363159179688
 10
558.6799926757812
 20
-934.726318359375
 10
561.6099853515625
 20
-920.0863037109375
 10
566.47998046875
 20
-892.8963012695312
 10
569.5399780273438
 20
-860.71630859375
 10
570.2100219726562
 20
-853.6563110351562
 10
573.4500122070312
 20
-847.1563110351562
 10
578.6699829101562
 20
-842.4463500976562
 10
586.1400146484375
 20
-835.6863403320312
 10
596.719970703125
 20
-825.6363525390625
 10
605.4600219726562
 20
-815.5763549804688
 10
625.030029296875
 20
-840.0263061523438
 10
639.8599853515625
 20
-878.986328125
 10
646.760009765625
 20
-899.3363037109375
 10
649.97998046875
 20
-908.8463134765625
 10
651.989990234375
 20
-918.6163330078125
 10
652.739990234375
 20
-928.50634765625
 10
653.030029296875
 20
-932.226318359375
 10
653.1500244140625
 20
-935.956298828125
 10
653.0800170898438
 20
-939.706298828125
 10
653.0800170898438
 20
-939.706298828125
 10
653.0800170898438
 20
-939.8863525390625
 10
653.0800170898438
 20
-939.8863525390625
 10
653.0599975585938
 20
-940.6363525390625
 10
653.489990234375
 20
-941.2863159179688
 10
654.1500244140625
 20
-941.6063232421875
 10
654.1500244140625
 20
-942.986328125
 10
654.2100219726562
 20
-945.236328125
 10
654.4299926757812
 20
-947.6663208007812
 10
654.6900024414062
 20
-950.4263305664062
 10
656.5599975585938
 20
-952.7963256835938
 10
659.1799926757812
 20
-953.6963500976562
 10
664.4400024414062
 20
-955.50634765625
 10
675.3499755859375
 20
-958.496337890625
 10
689.8800048828125
 20
-958.496337890625
 10
698.25
 20
-958.496337890625
 10
707.8200073242188
 20
-957.50634765625
 10
718.2000122070312
 20
-954.71630859375
 10
721.010009765625
 20
-953.956298828125
 10
722.989990234375
 20
-951.50634765625
 10
723.1400146484375
 20
-948.6063232421875
 10
723.25
 20
-946.25634765625
 10
723.3099975585938
 20
-942.9463500976562
 10
723.030029296875
 20
-939.5963134765625
 10
726.1599731445312
 20
-940.496337890625
 10
728.8400268554688
 20
-941.3263549804688
 10
730.8400268554688
 20
-941.976318359375
 10
731.3699951171875
 20
-942.1463012695312
 10
731.9099731445312
 20
-942.226318359375
 10
732.4500122070312
 20
-942.226318359375
 10
733.4199829101562
 20
-942.226318359375
 10
734.3699951171875
 20
-941.96630859375
 10
735.2100219726562
 20
-941.4463500976562
 10
736.489990234375
 20
-940.6463012695312
 10
737.3599853515625
 20
-939.3363037109375
 10
737.5800170898438
 20
-937.8463134765625
 10
738.0
 20
-935.0463256835938
 10
738.260009765625
 20
-932.236328125
 10
738.3900146484375
 20
-929.4263305664062
 10
740.1599731445312
 20
-890.706298828125
 10
716.1500244140625
 20
-851.8463134765625
 10
705.1599731445312
 20
-836.206298828125
 97
        0
 97
        0
 75
     2
 76
     1
 98
        0
  0
ENDSEC
  0
SECTION
  2
OBJECTS
  0
DICTIONARY
  5
C
330
0
100
AcDbDictionary
281
     1
  3
ACAD_GROUP
350
D
  3
ACAD_LAYOUT
350
1A
  3
ACAD_MATERIAL
350
3B
  3
ACAD_MLEADERSTYLE
350
44
  3
ACAD_MLINESTYLE
350
17
  3
ACAD_PLOTSETTINGS
350
19
  3
ACAD_PLOTSTYLENAME
350
E
  3
ACAD_TABLESTYLE
350
43
  3
ACAD_VISUALSTYLE
350
2A
  0
SUN
  5
3F
330
29
100
AcDbSun
 90
        1
290
     0
 63
     7
421
 16777215
 40
1.0
291
     1
 91
  2455826
 92
 54000000
292
     0
 70
     2
 71
   256
280
     1
  0
DICTIONARY
  5
D
102
{ACAD_REACTORS
330
C
102
}
330
C
100
AcDbDictionary
281
     1
  0
DICTIONARY
  5
1A
102
{ACAD_REACTORS
330
C
102
}
330
C
100
AcDbDictionary
281
     1
  3
Layout1
350
1E
  3
Layout2
350
26
  3
Model
350
22
  0
DICTIONARY
  5
3B
102
{ACAD_REACTORS
330
C
102
}
330
C
100
AcDbDictionary
281
     1
  3
ByBlock
350
3D
  3
ByLayer
350
3C
  3
Global
350
3E
  0
DICTIONARY
  5
44
102
{ACAD_REACTORS
330
C
102
}
330
C
100
AcDbDictionary
281
     1
  0
DICTIONARY
  5
17
102
{ACAD_REACTORS
330
C
102
}
330
C
100
AcDbDictionary
281
     1
  3
Standard
350
18
  0
DICTIONARY
  5
19
102
{ACAD_REACTORS
330
C
102
}
330
C
100
AcDbDictionary
281
     1
  0
ACDBDICTIONARYWDFLT
  5
E
102
{ACAD_REACTORS
330
C
102
}
330
C
100
AcDbDictionary
281
     1
  3
Normal
350
F
100
AcDbDictionaryWithDefault
340
F
  0
DICTIONARY
  5
43
102
{ACAD_REACTORS
330
C
102
}
330
C
100
AcDbDictionary
281
     1
  0
DICTIONARY
  5
2A
102
{ACAD_REACTORS
330
C
102
}
330
C
100
AcDbDictionary
281
     1
  3
2dWireframe
350
2F
  3
3D Hidden
350
31
  3
3dWireframe
350
30
  3
Basic
350
32
  3
Brighten
350
36
  3
ColorChange
350
3A
  3
Conceptual
350
34
  3
Dim
350
35
  3
Facepattern
350
39
  3
Flat
350
2B
  3
FlatWithEdges
350
2C
  3
Gouraud
350
2D
  3
GouraudWithEdges
350
2E
  3
Linepattern
350
38
  3
Realistic
350
33
  3
Thicken
350
37
  0
LAYOUT
  5
1E
102
{ACAD_REACTORS
330
1A
102
}
330
1A
100
AcDbPlotSettings
  1

  2
none_device
  4

  6

 40
0.0
 41
0.0
 42
0.0
 43
0.0
 44
0.0
 45
0.0
 46
0.0
 47
0.0
 48
0.0
 49
0.0
140
0.0
141
0.0
142
1.0
143
1.0
 70
   688
 72
     0
 73
     0
 74
     5
  7

 75
    16
 76
     0
 77
     2
 78
   300
147
1.0
148
0.0
149
0.0
100
AcDbLayout
  1
Layout1
 70
     1
 71
     1
 10
0.0
 20
0.0
 11
12.0
 21
9.0
 12
0.0
 22
0.0
 32
0.0
 14
1.000000000000000E+20
 24
1.000000000000000E+20
 34
1.000000000000000E+20
 15
-1.000000000000000E+20
 25
-1.000000000000000E+20
 35
-1.000000000000000E+20
146
0.0
 13
0.0
 23
0.0
 33
0.0
 16
1.0
 26
0.0
 36
0.0
 17
0.0
 27
1.0
 37
0.0
 76
     0
330
1B
  0
LAYOUT
  5
26
102
{ACAD_REACTORS
330
1A
102
}
330
1A
100
AcDbPlotSettings
  1

  2
none_device
  4

  6

 40
0.0
 41
0.0
 42
0.0
 43
0.0
 44
0.0
 45
0.0
 46
0.0
 47
0.0
 48
0.0
 49
0.0
140
0.0
141
0.0
142
1.0
143
1.0
 70
   688
 72
     0
 73
     0
 74
     5
  7

 75
    16
 76
     0
 77
     2
 78
   300
147
1.0
148
0.0
149
0.0
100
AcDbLayout
  1
Layout2
 70
     1
 71
     2
 10
0.0
 20
0.0
 11
0.0
 21
0.0
 12
0.0
 22
0.0
 32
0.0
 14
0.0
 24
0.0
 34
0.0
 15
0.0
 25
0.0
 35
0.0
146
0.0
 13
0.0
 23
0.0
 33
0.0
 16
1.0
 26
0.0
 36
0.0
 17
0.0
 27
1.0
 37
0.0
 76
     0
330
23
  0
LAYOUT
  5
22
102
{ACAD_REACTORS
330
1A
102
}
330
1A
100
AcDbPlotSettings
  1

  2
none_device
  4

  6

 40
0.0
 41
0.0
 42
0.0
 43
0.0
 44
0.0
 45
0.0
 46
0.0
 47
0.0
 48
0.0
 49
0.0
140
0.0
141
0.0
142
1.0
143
1.0
 70
  1712
 72
     0
 73
     0
 74
     0
  7

 75
     0
 76
     0
 77
     2
 78
   300
147
1.0
148
0.0
149
0.0
100
AcDbLayout
  1
Model
 70
     1
 71
     0
 10
0.0
 20
0.0
 11
12.0
 21
9.0
 12
0.0
 22
0.0
 32
0.0
 14
1.000000000000000E+20
 24
1.000000000000000E+20
 34
1.000000000000000E+20
 15
-1.000000000000000E+20
 25
-1.000000000000000E+20
 35
-1.000000000000000E+20
146
0.0
 13
0.0
 23
0.0
 33
0.0
 16
1.0
 26
0.0
 36
0.0
 17
0.0
 27
1.0
 37
0.0
 76
     0
330
1F
331
29
  0
MATERIAL
  5
3D
102
{ACAD_REACTORS
330
3B
102
}
330
3B
100
AcDbMaterial
  1
ByBlock
 72
     1
 94
      127
  0
MATERIAL
  5
3C
102
{ACAD_REACTORS
330
3B
102
}
330
3B
100
AcDbMaterial
  1
ByLayer
 72
     1
 94
      127
  0
MATERIAL
  5
3E
102
{ACAD_REACTORS
330
3B
102
}
330
3B
100
AcDbMaterial
  1
Global
 72
     1
 94
      127
  0
MLINESTYLE
  5
18
102
{ACAD_REACTORS
330
17
102
}
330
17
100
AcDbMlineStyle
  2
Standard
 70
     0
  3

 62
   256
 51
90.0
 52
90.0
 71
     2
 49
0.5
 62
   256
  6
BYLAYER
 49
-0.5
 62
   256
  6
BYLAYER
  0
ACDBPLACEHOLDER
  5
F
102
{ACAD_REACTORS
330
E
102
}
330
E
  0
VISUALSTYLE
  5
2F
102
{ACAD_REACTORS
330
2A
102
}
330
2A
100
AcDbVisualStyle
  2
2dWireframe
 70
     4
177
     2
291
     0
 71
     0
176
     1
 72
     2
176
     1
 73
     0
176
     1
 90
        0
176
     1
 40
-0.6
176
     1
 41
-30.0
176
     1
 62
     5
 63
     7
421
 16777215
176
     1
 74
     1
176
     1
 91
        4
176
     1
 64
     7
176
     1
 65
   257
176
     1
 75
     1
176
     1
175
     1
176
     1
 42
1.0
176
     1
 92
        0
176
     1
 66
   257
176
     1
 43
1.0
176
     1
 76
     1
176
     1
 77
     6
176
     1
 78
     2
176
     1
 67
     7
176
     1
 79
     5
176
     1
170
     0
176
     1
171
     0
176
     1
290
     0
176
     1
 93
        1
176
     1
 44
0.0
176
     1
173
     0
176
     1
  0
VISUALSTYLE
  5
31
102
{ACAD_REACTORS
330
2A
102
}
330
2A
100
AcDbVisualStyle
  2
3D Hidden
 70
     6
177
     2
291
     0
 71
     1
176
     1
 72
     2
176
     1
 73
     2
176
     1
 90
        0
176
     1
 40
-0.6
176
     1
 41
-30.0
176
     1
 62
     5
 63
     7
421
 16777215
176
     1
 74
     2
176
     1
 91
        2
176
     1
 64
     7
176
     1
 65
   257
176
     1
 75
     2
176
     1
175
     1
176
     1
 42
40.0
176
     1
 92
        0
176
     1
 66
   257
176
     1
 43
1.0
176
     1
 76
     1
176
     1
 77
     6
176
     1
 78
     2
176
     1
 67
     7
176
     1
 79
     3
176
     1
170
     0
176
     1
171
     0
176
     1
290
     0
176
     1
 93
        1
176
     1
 44
0.0
176
     1
173
     0
176
     1
  0
VISUALSTYLE
  5
30
102
{ACAD_REACTORS
330
2A
102
}
330
2A
100
AcDbVisualStyle
  2
3dWireframe
 70
     5
177
     2
291
     0
 71
     0
176
     1
 72
     2
176
     1
 73
     0
176
     1
 90
        0
176
     1
 40
-0.6
176
     1
 41
-30.0
176
     1
 62
     5
 63
     7
421
 16777215
176
     1
 74
     1
176
     1
 91
        4
176
     1
 64
     7
176
     1
 65
   257
176
     1
 75
     1
176
     1
175
     1
176
     1
 42
1.0
176
     1
 92
        0
176
     1
 66
   257
176
     1
 43
1.0
176
     1
 76
     1
176
     1
 77
     6
176
     1
 78
     2
176
     1
 67
     7
176
     1
 79
     5
176
     1
170
     0
176
     1
171
     0
176
     1
290
     0
176
     1
 93
        1
176
     1
 44
0.0
176
     1
173
     0
176
     1
  0
VISUALSTYLE
  5
32
102
{ACAD_REACTORS
330
2A
102
}
330
2A
100
AcDbVisualStyle
  2
Basic
 70
     7
177
     2
291
     1
 71
     1
176
     1
 72
     0
176
     1
 73
     1
176
     1
 90
        0
176
     1
 40
-0.6
176
     1
 41
-30.0
176
     1
 62
     5
 63
     7
421
 16777215
176
     1
 74
     0
176
     1
 91
        4
176
     1
 64
     7
176
     1
 65
   257
176
     1
 75
     1
176
     1
175
     1
176
     1
 42
1.0
176
     1
 92
        8
176
     1
 66
     7
176
     1
 43
1.0
176
     1
 76
     1
176
     1
 77
     6
176
     1
 78
     2
176
     1
 67
     7
176
     1
 79
     5
176
     1
170
     0
176
     1
171
     0
176
     1
290
     0
176
     1
 93
        1
176
     1
 44
0.0
176
     1
173
     0
176
     1
  0
VISUALSTYLE
  5
36
102
{ACAD_REACTORS
330
2A
102
}
330
2A
100
AcDbVisualStyle
  2
Brighten
 70
    12
177
     2
291
     1
 71
     2
176
     1
 72
     2
176
     1
 73
     0
176
     1
 90
        0
176
     1
 40
-0.6
176
     1
 41
-30.0
176
     1
 62
     5
 63
     7
421
 16777215
176
     1
 74
     1
176
     1
 91
        4
176
     1
 64
     7
176
     1
 65
   257
176
     1
 75
     1
176
     1
175
     1
176
     1
 42
1.0
176
     1
 92
        8
176
     1
 66
     7
176
     1
 43
1.0
176
     1
 76
     1
176
     1
 77
     6
176
     1
 78
     2
176
     1
 67
     7
176
     1
 79
     5
176
     1
170
     0
176
     1
171
     0
176
     1
290
     0
176
     1
 93
        1
176
     1
 44
50.0
176
     1
173
     0
176
     1
  0
VISUALSTYLE
  5
3A
102
{ACAD_REACTORS
330
2A
102
}
330
2A
100
AcDbVisualStyle
  2
ColorChange
 70
    16
177
     2
291
     1
 71
     2
176
     1
 72
     2
176
     1
 73
     3
176
     1
 90
        0
176
     1
 40
-0.6
176
     1
 41
-30.0
176
     1
 62
     5
 63
     8
421
  8421504
176
     1
 74
     1
176
     1
 91
        4
176
     1
 64
     7
176
     1
 65
   257
176
     1
 75
     1
176
     1
175
     1
176
     1
 42
1.0
176
     1
 92
        8
176
     1
 66
     8
424
  8421504
176
     1
 43
1.0
176
     1
 76
     1
176
     1
 77
     6
176
     1
 78
     2
176
     1
 67
     7
176
     1
 79
     5
176
     1
170
     0
176
     1
171
     0
176
     1
290
     0
176
     1
 93
        1
176
     1
 44
0.0
176
     1
173
     0
176
     1
  0
VISUALSTYLE
  5
34
102
{ACAD_REACTORS
330
2A
102
}
330
2A
100
AcDbVisualStyle
  2
Conceptual
 70
     9
177
     2
291
     0
 71
     3
176
     1
 72
     2
176
     1
 73
     0
176
     1
 90
        0
176
     1
 40
-0.6
176
     1
 41
-30.0
176
     1
 62
     5
 63
     7
421
 16777215
176
     1
 74
     2
176
     1
 91
        2
176
     1
 64
     7
176
     1
 65
   257
176
     1
 75
     1
176
     1
175
     1
176
     1
 42
40.0
176
     1
 92
        8
176
     1
 66
     7
176
     1
 43
1.0
176
     1
 76
     1
176
     1
 77
     6
176
     1
 78
     2
176
     1
 67
     7
176
     1
 79
     3
176
     1
170
     0
176
     1
171
     0
176
     1
290
     0
176
     1
 93
        1
176
     1
 44
0.0
176
     1
173
     0
176
     1
  0
VISUALSTYLE
  5
35
102
{ACAD_REACTORS
330
2A
102
}
330
2A
100
AcDbVisualStyle
  2
Dim
 70
    11
177
     2
291
     1
 71
     2
176
     1
 72
     2
176
     1
 73
     0
176
     1
 90
        0
176
     1
 40
-0.6
176
     1
 41
-30.0
176
     1
 62
     5
 63
     7
421
 16777215
176
     1
 74
     1
176
     1
 91
        4
176
     1
 64
     7
176
     1
 65
   257
176
     1
 75
     1
176
     1
175
     1
176
     1
 42
1.0
176
     1
 92
        8
176
     1
 66
     7
176
     1
 43
1.0
176
     1
 76
     1
176
     1
 77
     6
176
     1
 78
     2
176
     1
 67
     7
176
     1
 79
     5
176
     1
170
     0
176
     1
171
     0
176
     1
290
     0
176
     1
 93
        1
176
     1
 44
-50.0
176
     1
173
     0
176
     1
  0
VISUALSTYLE
  5
39
102
{ACAD_REACTORS
330
2A
102
}
330
2A
100
AcDbVisualStyle
  2
Facepattern
 70
    15
177
     2
291
     1
 71
     2
176
     1
 72
     2
176
     1
 73
     0
176
     1
 90
        0
176
     1
 40
-0.6
176
     1
 41
-30.0
176
     1
 62
     5
 63
     7
421
 16777215
176
     1
 74
     1
176
     1
 91
        4
176
     1
 64
     7
176
     1
 65
   257
176
     1
 75
     1
176
     1
175
     1
176
     1
 42
1.0
176
     1
 92
        8
176
     1
 66
     7
176
     1
 43
1.0
176
     1
 76
     1
176
     1
 77
     6
176
     1
 78
     2
176
     1
 67
     7
176
     1
 79
     5
176
     1
170
     0
176
     1
171
     0
176
     1
290
     0
176
     1
 93
        1
176
     1
 44
0.0
176
     1
173
     0
176
     1
  0
VISUALSTYLE
  5
2B
102
{ACAD_REACTORS
330
2A
102
}
330
2A
100
AcDbVisualStyle
  2
Flat
 70
     0
177
     2
291
     1
 71
     2
176
     1
 72
     1
176
     1
 73
     1
176
     1
 90
        2
176
     1
 40
-0.6
176
     1
 41
30.0
176
     1
 62
     5
 63
     7
421
 16777215
176
     1
 74
     0
176
     1
 91
        4
176
     1
 64
     7
176
     1
 65
   257
176
     1
 75
     1
176
     1
175
     1
176
     1
 42
1.0
176
     1
 92
        8
176
     1
 66
     7
176
     1
 43
1.0
176
     1
 76
     1
176
     1
 77
     6
176
     1
 78
     2
176
     1
 67
     7
176
     1
 79
     5
176
     1
170
     0
176
     1
171
     0
176
     1
290
     0
176
     1
 93
       13
176
     1
 44
0.0
176
     1
173
     0
176
     1
  0
VISUALSTYLE
  5
2C
102
{ACAD_REACTORS
330
2A
102
}
330
2A
100
AcDbVisualStyle
  2
FlatWithEdges
 70
     1
177
     2
291
     1
 71
     2
176
     1
 72
     1
176
     1
 73
     1
176
     1
 90
        2
176
     1
 40
-0.6
176
     1
 41
30.0
176
     1
 62
     5
 63
     7
421
 16777215
176
     1
 74
     1
176
     1
 91
        4
176
     1
 64
     7
176
     1
 65
   257
176
     1
 75
     1
176
     1
175
     1
176
     1
 42
1.0
176
     1
 92
        0
176
     1
 66
   257
176
     1
 43
1.0
176
     1
 76
     1
176
     1
 77
     6
176
     1
 78
     2
176
     1
 67
     7
176
     1
 79
     5
176
     1
170
     0
176
     1
171
     0
176
     1
290
     0
176
     1
 93
       13
176
     1
 44
0.0
176
     1
173
     0
176
     1
  0
VISUALSTYLE
  5
2D
102
{ACAD_REACTORS
330
2A
102
}
330
2A
100
AcDbVisualStyle
  2
Gouraud
 70
     2
177
     2
291
     1
 71
     2
176
     1
 72
     2
176
     1
 73
     1
176
     1
 90
        2
176
     1
 40
-0.6
176
     1
 41
30.0
176
     1
 62
     5
 63
     7
421
 16777215
176
     1
 74
     0
176
     1
 91
        4
176
     1
 64
     7
176
     1
 65
   257
176
     1
 75
     1
176
     1
175
     1
176
     1
 42
1.0
176
     1
 92
        0
176
     1
 66
     7
176
     1
 43
1.0
176
     1
 76
     1
176
     1
 77
     6
176
     1
 78
     2
176
     1
 67
     7
176
     1
 79
     5
176
     1
170
     0
176
     1
171
     0
176
     1
290
     0
176
     1
 93
       13
176
     1
 44
0.0
176
     1
173
     0
176
     1
  0
VISUALSTYLE
  5
2E
102
{ACAD_REACTORS
330
2A
102
}
330
2A
100
AcDbVisualStyle
  2
GouraudWithEdges
 70
     3
177
     2
291
     1
 71
     2
176
     1
 72
     2
176
     1
 73
     1
176
     1
 90
        2
176
     1
 40
-0.6
176
     1
 41
30.0
176
     1
 62
     5
 63
     7
421
 16777215
176
     1
 74
     1
176
     1
 91
        4
176
     1
 64
     7
176
     1
 65
   257
176
     1
 75
     1
176
     1
175
     1
176
     1
 42
1.0
176
     1
 92
        0
176
     1
 66
   257
176
     1
 43
1.0
176
     1
 76
     1
176
     1
 77
     6
176
     1
 78
     2
176
     1
 67
     7
176
     1
 79
     5
176
     1
170
     0
176
     1
171
     0
176
     1
290
     0
176
     1
 93
       13
176
     1
 44
0.0
176
     1
173
     0
176
     1
  0
VISUALSTYLE
  5
38
102
{ACAD_REACTORS
330
2A
102
}
330
2A
100
AcDbVisualStyle
  2
Linepattern
 70
    14
177
     2
291
     1
 71
     2
176
     1
 72
     2
176
     1
 73
     0
176
     1
 90
        0
176
     1
 40
-0.6
176
     1
 41
-30.0
176
     1
 62
     5
 63
     7
421
 16777215
176
     1
 74
     1
176
     1
 91
        4
176
     1
 64
     7
176
     1
 65
   257
176
     1
 75
     7
176
     1
175
     7
176
     1
 42
1.0
176
     1
 92
        8
176
     1
 66
     7
176
     1
 43
1.0
176
     1
 76
     1
176
     1
 77
     6
176
     1
 78
     2
176
     1
 67
     7
176
     1
 79
     5
176
     1
170
     0
176
     1
171
     0
176
     1
290
     0
176
     1
 93
        1
176
     1
 44
0.0
176
     1
173
     0
176
     1
  0
VISUALSTYLE
  5
33
102
{ACAD_REACTORS
330
2A
102
}
330
2A
100
AcDbVisualStyle
  2
Realistic
 70
     8
177
     2
291
     0
 71
     2
176
     1
 72
     2
176
     1
 73
     0
176
     1
 90
        0
176
     1
 40
-0.6
176
     1
 41
-30.0
176
     1
 62
     5
 63
     7
421
 16777215
176
     1
 74
     1
176
     1
 91
        0
176
     1
 64
     7
176
     1
 65
   257
176
     1
 75
     1
176
     1
175
     1
176
     1
 42
1.0
176
     1
 92
        8
176
     1
 66
     8
424
  7895160
176
     1
 43
1.0
176
     1
 76
     1
176
     1
 77
     6
176
     1
 78
     2
176
     1
 67
     7
176
     1
 79
     5
176
     1
170
     0
176
     1
171
     0
176
     1
290
     0
176
     1
 93
       13
176
     1
 44
0.0
176
     1
173
     0
176
     1
  0
VISUALSTYLE
  5
37
102
{ACAD_REACTORS
330
2A
102
}
330
2A
100
AcDbVisualStyle
  2
Thicken
 70
    13
177
     2
291
     1
 71
     2
176
     1
 72
     2
176
     1
 73
     0
176
     1
 90
        0
176
     1
 40
-0.6
176
     1
 41
-30.0
176
     1
 62
     5
 63
     7
421
 16777215
176
     1
 74
     1
176
     1
 91
        4
176
     1
 64
     7
176
     1
 65
   257
176
     1
 75
     1
176
     1
175
     1
176
     1
 42
1.0
176
     1
 92
       12
176
     1
 66
     7
176
     1
 43
1.0
176
     1
 76
     1
176
     1
 77
     6
176
     1
 78
     2
176
     1
 67
     7
176
     1
 79
     5
176
     1
170
     0
176
     1
171
     0
176
     1
290
     0
176
     1
 93
        1
176
     1
 44
0.0
176
     1
173
     0
176
     1
  0
ENDSEC
  0
EOF
