  0
SECTION
  2
HEADER
  9
$ACADVER
  1
AC1024
  9
$ACADMAINTVER
 70
     6
  9
$DWGCODEPAGE
  3
ANSI_1252
  9
$INSBASE
 10
0.0
 20
0.0
 30
0.0
  9
$EXTMIN
 10
1.000000000000000E+20
 20
1.000000000000000E+20
 30
1.000000000000000E+20
  9
$EXTMAX
 10
-1.000000000000000E+20
 20
-1.000000000000000E+20
 30
-1.000000000000000E+20
  9
$LIMMIN
 10
0.0
 20
0.0
  9
$LIMMAX
 10
12.0
 20
9.0
  9
$ORTHOMODE
 70
     0
  9
$REGENMODE
 70
     1
  9
$FILLMODE
 70
     1
  9
$QTEXTMODE
 70
     0
  9
$MIRRTEXT
 70
     1
  9
$LTSCALE
 40
1.0
  9
$ATTMODE
 70
     1
  9
$TEXTSIZE
 40
0.2
  9
$TRACEWID
 40
0.05
  9
$TEXTSTYLE
  7
Standard
  9
$CLAYER
  8
0
  9
$CELTYPE
  6
ByLayer
  9
$CECOLOR
 62
   256
  9
$CELTSCALE
 40
1.0
  9
$DISPSILH
 70
     0
  9
$DIMSCALE
 40
1.0
  9
$DIMASZ
 40
0.18
  9
$DIMEXO
 40
0.0625
  9
$DIMDLI
 40
0.38
  9
$DIMRND
 40
0.0
  9
$DIMDLE
 40
0.0
  9
$DIMEXE
 40
0.18
  9
$DIMTP
 40
0.0
  9
$DIMTM
 40
0.0
  9
$DIMTXT
 40
0.18
  9
$DIMCEN
 40
0.09
  9
$DIMTSZ
 40
0.0
  9
$DIMTOL
 70
     0
  9
$DIMLIM
 70
     0
  9
$DIMTIH
 70
     1
  9
$DIMTOH
 70
     1
  9
$DIMSE1
 70
     0
  9
$DIMSE2
 70
     0
  9
$DIMTAD
 70
     0
  9
$DIMZIN
 70
     0
  9
$DIMBLK
  1

  9
$DIMASO
 70
     1
  9
$DIMSHO
 70
     1
  9
$DIMPOST
  1

  9
$DIMAPOST
  1

  9
$DIMALT
 70
     0
  9
$DIMALTD
 70
     2
  9
$DIMALTF
 40
25.4
  9
$DIMLFAC
 40
1.0
  9
$DIMTOFL
 70
     0
  9
$DIMTVP
 40
0.0
  9
$DIMTIX
 70
     0
  9
$DIMSOXD
 70
     0
  9
$DIMSAH
 70
     0
  9
$DIMBLK1
  1

  9
$DIMBLK2
  1

  9
$DIMSTYLE
  2
Standard
  9
$DIMCLRD
 70
     0
  9
$DIMCLRE
 70
     0
  9
$DIMCLRT
 70
     0
  9
$DIMTFAC
 40
1.0
  9
$DIMGAP
 40
0.09
  9
$DIMJUST
 70
     0
  9
$DIMSD1
 70
     0
  9
$DIMSD2
 70
     0
  9
$DIMTOLJ
 70
     1
  9
$DIMTZIN
 70
     0
  9
$DIMALTZ
 70
     0
  9
$DIMALTTZ
 70
     0
  9
$DIMUPT
 70
     0
  9
$DIMDEC
 70
     4
  9
$DIMTDEC
 70
     4
  9
$DIMALTU
 70
     2
  9
$DIMALTTD
 70
     2
  9
$DIMTXSTY
  7
Standard
  9
$DIMAUNIT
 70
     0
  9
$DIMADEC
 70
     0
  9
$DIMALTRND
 40
0.0
  9
$DIMAZIN
 70
     0
  9
$DIMDSEP
 70
    46
  9
$DIMATFIT
 70
     3
  9
$DIMFRAC
 70
     0
  9
$DIMLDRBLK
  1

  9
$DIMLUNIT
 70
     2
  9
$DIMLWD
 70
    -2
  9
$DIMLWE
 70
    -2
  9
$DIMTMOVE
 70
     0
  9
$DIMFXL
 40
1.0
  9
$DIMFXLON
 70
     0
  9
$DIMJOGANG
 40
0.7853981633974483
  9
$DIMTFILL
 70
     0
  9
$DIMTFILLCLR
 70
     0
  9
$DIMARCSYM
 70
     0
  9
$DIMLTYPE
  6

  9
$DIMLTEX1
  6

  9
$DIMLTEX2
  6

  9
$DIMTXTDIRECTION
 70
     0
  9
$LUNITS
 70
     2
  9
$LUPREC
 70
     4
  9
$SKETCHINC
 40
0.1
  9
$FILLETRAD
 40
0.5
  9
$AUNITS
 70
     0
  9
$AUPREC
 70
     0
  9
$MENU
  1
.
  9
$ELEVATION
 40
0.0
  9
$PELEVATION
 40
0.0
  9
$THICKNESS
 40
0.0
  9
$LIMCHECK
 70
     0
  9
$CHAMFERA
 40
0.5
  9
$CHAMFERB
 40
0.5
  9
$CHAMFERC
 40
1.0
  9
$CHAMFERD
 40
0.0
  9
$SKPOLY
 70
     0
  9
$TDCREATE
 40
2459346.85721735
  9
$TDUCREATE
 40
2459347.065550683
  9
$TDUPDATE
 40
2459346.857217361
  9
$TDUUPDATE
 40
2459347.065550694
  9
$TDINDWG
 40
0.0000000116
  9
$TDUSRTIMER
 40
0.0000000116
  9
$USRTIMER
 70
     1
  9
$ANGBASE
 50
0.0
  9
$ANGDIR
 70
     0
  9
$PDMODE
 70
     0
  9
$PDSIZE
 40
0.0
  9
$PLINEWID
 40
0.0
  9
$SPLFRAME
 70
     0
  9
$SPLINETYPE
 70
     6
  9
$SPLINESEGS
 70
     8
  9
$HANDSEED
  5
47
  9
$SURFTAB1
 70
     6
  9
$SURFTAB2
 70
     6
  9
$SURFTYPE
 70
     6
  9
$SURFU
 70
     6
  9
$SURFV
 70
     6
  9
$UCSBASE
  2

  9
$UCSNAME
  2

  9
$UCSORG
 10
0.0
 20
0.0
 30
0.0
  9
$UCSXDIR
 10
1.0
 20
0.0
 30
0.0
  9
$UCSYDIR
 10
0.0
 20
1.0
 30
0.0
  9
$UCSORTHOREF
  2

  9
$UCSORTHOVIEW
 70
     0
  9
$UCSORGTOP
 10
0.0
 20
0.0
 30
0.0
  9
$UCSORGBOTTOM
 10
0.0
 20
0.0
 30
0.0
  9
$UCSORGLEFT
 10
0.0
 20
0.0
 30
0.0
  9
$UCSORGRIGHT
 10
0.0
 20
0.0
 30
0.0
  9
$UCSORGFRONT
 10
0.0
 20
0.0
 30
0.0
  9
$UCSORGBACK
 10
0.0
 20
0.0
 30
0.0
  9
$PUCSBASE
  2

  9
$PUCSNAME
  2

  9
$PUCSORG
 10
0.0
 20
0.0
 30
0.0
  9
$PUCSXDIR
 10
1.0
 20
0.0
 30
0.0
  9
$PUCSYDIR
 10
0.0
 20
1.0
 30
0.0
  9
$PUCSORTHOREF
  2

  9
$PUCSORTHOVIEW
 70
     0
  9
$PUCSORGTOP
 10
0.0
 20
0.0
 30
0.0
  9
$PUCSORGBOTTOM
 10
0.0
 20
0.0
 30
0.0
  9
$PUCSORGLEFT
 10
0.0
 20
0.0
 30
0.0
  9
$PUCSORGRIGHT
 10
0.0
 20
0.0
 30
0.0
  9
$PUCSORGFRONT
 10
0.0
 20
0.0
 30
0.0
  9
$PUCSORGBACK
 10
0.0
 20
0.0
 30
0.0
  9
$USERI1
 70
     0
  9
$USERI2
 70
     0
  9
$USERI3
 70
     0
  9
$USERI4
 70
     0
  9
$USERI5
 70
     0
  9
$USERR1
 40
0.0
  9
$USERR2
 40
0.0
  9
$USERR3
 40
0.0
  9
$USERR4
 40
0.0
  9
$USERR5
 40
0.0
  9
$WORLDVIEW
 70
     1
  9
$SHADEDGE
 70
     3
  9
$SHADEDIF
 70
    70
  9
$TILEMODE
 70
     1
  9
$MAXACTVP
 70
    64
  9
$PINSBASE
 10
0.0
 20
0.0
 30
0.0
  9
$PLIMCHECK
 70
     0
  9
$PEXTMIN
 10
1.000000000000000E+20
 20
1.000000000000000E+20
 30
1.000000000000000E+20
  9
$PEXTMAX
 10
-1.000000000000000E+20
 20
-1.000000000000000E+20
 30
-1.000000000000000E+20
  9
$PLIMMIN
 10
0.0
 20
0.0
  9
$PLIMMAX
 10
12.0
 20
9.0
  9
$UNITMODE
 70
     0
  9
$VISRETAIN
 70
     1
  9
$PLINEGEN
 70
     0
  9
$PSLTSCALE
 70
     1
  9
$TREEDEPTH
 70
  3020
  9
$CMLSTYLE
  2
Standard
  9
$CMLJUST
 70
     0
  9
$CMLSCALE
 40
1.0
  9
$PROXYGRAPHICS
 70
     1
  9
$MEASUREMENT
 70
     0
  9
$CELWEIGHT
370
    -1
  9
$ENDCAPS
280
     0
  9
$JOINSTYLE
280
     0
  9
$LWDISPLAY
290
     1
  9
$INSUNITS
 70
     0
  9
$HYPERLINKBASE
  1

  9
$STYLESHEET
  1

  9
$XEDIT
290
     1
  9
$CEPSNTYPE
380
     0
  9
$PSTYLEMODE
290
     1
  9
$FINGERPRINTGUID
  2
{59CE0128-1703-4D2F-A347-B5DB4D0C5AC7}
  9
$VERSIONGUID
  2
{FAEB1C32-E019-11D5-929B-00C0DF256EC4}
  9
$EXTNAMES
290
     1
  9
$PSVPSCALE
 40
0.0
  9
$OLESTARTUP
290
     0
  9
$SORTENTS
280
   127
  9
$INDEXCTL
280
     0
  9
$HIDETEXT
280
     1
  9
$XCLIPFRAME
280
     2
  9
$HALOGAP
280
     0
  9
$OBSCOLOR
 70
   257
  9
$OBSLTYPE
280
     0
  9
$INTERSECTIONDISPLAY
280
     0
  9
$INTERSECTIONCOLOR
 70
   257
  9
$DIMASSOC
280
     2
  9
$PROJECTNAME
  1

  9
$CAMERADISPLAY
290
     0
  9
$LENSLENGTH
 40
50.0
  9
$CAMERAHEIGHT
 40
0.0
  9
$STEPSPERSEC
 40
2.0
  9
$STEPSIZE
 40
6.0
  9
$3DDWFPREC
 40
2.0
  9
$PSOLWIDTH
 40
0.25
  9
$PSOLHEIGHT
 40
4.0
  9
$LOFTANG1
 40
1.570796326794897
  9
$LOFTANG2
 40
1.570796326794897
  9
$LOFTMAG1
 40
0.0
  9
$LOFTMAG2
 40
0.0
  9
$LOFTPARAM
 70
     7
  9
$LOFTNORMALS
280
     1
  9
$LATITUDE
 40
37.795
  9
$LONGITUDE
 40
-122.394
  9
$NORTHDIRECTION
 40
0.0
  9
$TIMEZONE
 70
 -8000
  9
$LIGHTGLYPHDISPLAY
280
     1
  9
$TILEMODELIGHTSYNCH
280
     1
  9
$CMATERIAL
347
3C
  9
$SOLIDHIST
280
     1
  9
$SHOWHIST
280
     1
  9
$DWFFRAME
280
     2
  9
$DGNFRAME
280
     2
  9
$REALWORLDSCALE
290
     1
  9
$INTERFERECOLOR
 62
   256
  9
$CSHADOW
280
     0
  9
$SHADOWPLANELOCATION
 40
0.0
  0
ENDSEC
  0
SECTION
  2
CLASSES
  0
CLASS
  1
ACDBDICTIONARYWDFLT
  2
AcDbDictionaryWithDefault
  3
ObjectDBX Classes
 90
        0
 91
        4
280
     0
281
     0
  0
CLASS
  1
VISUALSTYLE
  2
AcDbVisualStyle
  3
ObjectDBX Classes
 90
     4095
 91
        4
280
     0
281
     0
  0
CLASS
  1
MATERIAL
  2
AcDbMaterial
  3
ObjectDBX Classes
 90
     1153
 91
        4
280
     0
281
     0
  0
CLASS
  1
SUN
  2
AcDbSun
  3
SCENEOE
 90
     1024
 91
        4
280
     0
281
     0
  0
ENDSEC
  0
SECTION
  2
TABLES
  0
TABLE
  2
VPORT
  5
8
330
0
100
AcDbSymbolTable
 70
     1
  0
VPORT
  5
29
330
8
100
AcDbSymbolTableRecord
100
AcDbViewportTableRecord
  2
*Active
 70
     0
 10
0.0
 20
0.0
 11
1.0
 21
1.0
 12
0.0
 22
0.0
 13
0.0
 23
0.0
 14
0.5
 24
0.5
 15
0.5
 25
0.5
 16
0.0
 26
0.0
 36
1.0
 17
540.0
 27
-540.0
 37
0.0
 40
1080.0
 41
1.0
 42
50.0
 43
0.0
 44
0.0
 50
0.0
 51
0.0
 71
     0
 72
   100
 73
     1
 74
     3
 75
     0
 76
     0
 77
     0
 78
     0
281
     0
 65
     1
110
0.0
120
0.0
130
0.0
111
1.0
121
0.0
131
0.0
112
0.0
122
1.0
132
0.0
 79
     0
146
0.0
 60
     3
 61
     5
292
     1
282
     1
141
0.0
142
0.0
 63
   250
361
3F
  0
ENDTAB
  0
TABLE
  2
LTYPE
  5
5
330
0
100
AcDbSymbolTable
 70
     1
  0
LTYPE
  5
14
330
5
100
AcDbSymbolTableRecord
100
AcDbLinetypeTableRecord
  2
ByBlock
 70
     0
  3

 72
    65
 73
     0
 40
0.0
  0
LTYPE
  5
15
330
5
100
AcDbSymbolTableRecord
100
AcDbLinetypeTableRecord
  2
ByLayer
 70
     0
  3

 72
    65
 73
     0
 40
0.0
  0
LTYPE
  5
16
330
5
100
AcDbSymbolTableRecord
100
AcDbLinetypeTableRecord
  2
Continuous
 70
     0
  3
Solid line
 72
    65
 73
     0
 40
0.0
  0
ENDTAB
  0
TABLE
  2
LAYER
  5
2
330
0
100
AcDbSymbolTable
 70
     2
  0
LAYER
  5
10
330
2
100
AcDbSymbolTableRecord
100
AcDbLayerTableRecord
  2
0
 70
     0
 62
     7
  6
Continuous
370
    -3
390
F
347
3E
  0
LAYER
  5
40
330
2
100
AcDbSymbolTableRecord
100
AcDbLayerTableRecord
  2
JM_YELLOW
 70
     0
 62
     7
  6
Continuous
370
    -3
390
F
347
3E
  0
ENDTAB
  0
TABLE
  2
STYLE
  5
3
330
0
100
AcDbSymbolTable
 70
     1
  0
STYLE
  5
11
330
3
100
AcDbSymbolTableRecord
100
AcDbTextStyleTableRecord
  2
Standard
 70
     0
 40
0.0
 41
1.0
 50
0.0
 71
     0
 42
0.2
  3
txt
  4

  0
ENDTAB
  0
TABLE
  2
VIEW
  5
6
330
0
100
AcDbSymbolTable
 70
     0
  0
ENDTAB
  0
TABLE
  2
UCS
  5
7
330
0
100
AcDbSymbolTable
 70
     0
  0
ENDTAB
  0
TABLE
  2
APPID
  5
9
330
0
100
AcDbSymbolTable
 70
     1
  0
APPID
  5
12
330
9
100
AcDbSymbolTableRecord
100
AcDbRegAppTableRecord
  2
ACAD
 70
     0
  0
ENDTAB
  0
TABLE
  2
DIMSTYLE
  5
A
330
0
100
AcDbSymbolTable
 70
     1
100
AcDbDimStyleTable
  0
DIMSTYLE
105
27
330
A
100
AcDbSymbolTableRecord
100
AcDbDimStyleTableRecord
  2
Standard
 70
     0
178
     0
340
11
  0
ENDTAB
  0
TABLE
  2
BLOCK_RECORD
  5
1
330
0
100
AcDbSymbolTable
 70
     1
  0
BLOCK_RECORD
  5
1F
330
1
100
AcDbSymbolTableRecord
100
AcDbBlockTableRecord
  2
*Model_Space
340
22
 70
     0
280
     1
281
     0
  0
BLOCK_RECORD
  5
1B
330
1
100
AcDbSymbolTableRecord
100
AcDbBlockTableRecord
  2
*Paper_Space
340
1E
 70
     0
280
     1
281
     0
  0
BLOCK_RECORD
  5
23
330
1
100
AcDbSymbolTableRecord
100
AcDbBlockTableRecord
  2
*Paper_Space0
340
26
 70
     0
280
     1
281
     0
  0
ENDTAB
  0
ENDSEC
  0
SECTION
  2
BLOCKS
  0
BLOCK
  5
20
330
1F
100
AcDbEntity
  8
0
100
AcDbBlockBegin
  2
*Model_Space
 70
     0
 10
0.0
 20
0.0
 30
0.0
  3
*Model_Space
  1

  0
ENDBLK
  5
21
330
1F
100
AcDbEntity
  8
0
100
AcDbBlockEnd
  0
BLOCK
  5
1C
330
1B
100
AcDbEntity
 67
     1
  8
0
100
AcDbBlockBegin
  2
*Paper_Space
 70
     0
 10
0.0
 20
0.0
 30
0.0
  3
*Paper_Space
  1

  0
ENDBLK
  5
1D
330
1B
100
AcDbEntity
 67
     1
  8
0
100
AcDbBlockEnd
  0
BLOCK
  5
24
330
23
100
AcDbEntity
  8
0
100
AcDbBlockBegin
  2
*Paper_Space0
 70
     0
 10
0.0
 20
0.0
 30
0.0
  3
*Paper_Space0
  1

  0
ENDBLK
  5
25
330
23
100
AcDbEntity
  8
0
100
AcDbBlockEnd
  0
ENDSEC
  0
SECTION
  2
ENTITIES
  0
SPLINE
  5
41
330
1F
100
AcDbEntity
  8
JM_YELLOW
370
     0
100
AcDbSpline
210
0.0
220
0.0
230
1.0
 70
    11
 71
     3
 72
   377
 73
   373
 74
     0
 42
0.0000000001
 43
0.0000000001
 12
1.0
 22
0.0
 32
0.0
 13
1.0
 23
0.0
 33
0.0
 40
0.0
 40
0.0
 40
0.0
 40
0.0
 40
1.0
 40
1.0
 40
1.0
 40
2.0
 40
2.0
 40
2.0
 40
3.0
 40
3.0
 40
3.0
 40
4.0
 40
4.0
 40
4.0
 40
5.0
 40
5.0
 40
5.0
 40
6.0
 40
6.0
 40
6.0
 40
7.0
 40
7.0
 40
7.0
 40
8.0
 40
8.0
 40
8.0
 40
9.0
 40
9.0
 40
9.0
 40
10.0
 40
10.0
 40
10.0
 40
11.0
 40
11.0
 40
11.0
 40
12.0
 40
12.0
 40
12.0
 40
13.0
 40
13.0
 40
13.0
 40
14.0
 40
14.0
 40
14.0
 40
15.0
 40
15.0
 40
15.0
 40
16.0
 40
16.0
 40
16.0
 40
17.0
 40
17.0
 40
17.0
 40
18.0
 40
18.0
 40
18.0
 40
19.0
 40
19.0
 40
19.0
 40
20.0
 40
20.0
 40
20.0
 40
21.0
 40
21.0
 40
21.0
 40
22.0
 40
22.0
 40
22.0
 40
23.0
 40
23.0
 40
23.0
 40
24.0
 40
24.0
 40
24.0
 40
25.0
 40
25.0
 40
25.0
 40
26.0
 40
26.0
 40
26.0
 40
27.0
 40
27.0
 40
27.0
 40
28.0
 40
28.0
 40
28.0
 40
29.0
 40
29.0
 40
29.0
 40
30.0
 40
30.0
 40
30.0
 40
31.0
 40
31.0
 40
31.0
 40
32.0
 40
32.0
 40
32.0
 40
33.0
 40
33.0
 40
33.0
 40
34.0
 40
34.0
 40
34.0
 40
35.0
 40
35.0
 40
35.0
 40
36.0
 40
36.0
 40
36.0
 40
37.0
 40
37.0
 40
37.0
 40
38.0
 40
38.0
 40
38.0
 40
39.0
 40
39.0
 40
39.0
 40
40.0
 40
40.0
 40
40.0
 40
41.0
 40
41.0
 40
41.0
 40
42.0
 40
42.0
 40
42.0
 40
43.0
 40
43.0
 40
43.0
 40
44.0
 40
44.0
 40
44.0
 40
45.0
 40
45.0
 40
45.0
 40
46.0
 40
46.0
 40
46.0
 40
47.0
 40
47.0
 40
47.0
 40
48.0
 40
48.0
 40
48.0
 40
49.0
 40
49.0
 40
49.0
 40
50.0
 40
50.0
 40
50.0
 40
51.0
 40
51.0
 40
51.0
 40
52.0
 40
52.0
 40
52.0
 40
53.0
 40
53.0
 40
53.0
 40
54.0
 40
54.0
 40
54.0
 40
55.0
 40
55.0
 40
55.0
 40
56.0
 40
56.0
 40
56.0
 40
57.0
 40
57.0
 40
57.0
 40
58.0
 40
58.0
 40
58.0
 40
59.0
 40
59.0
 40
59.0
 40
60.0
 40
60.0
 40
60.0
 40
61.0
 40
61.0
 40
61.0
 40
62.0
 40
62.0
 40
62.0
 40
63.0
 40
63.0
 40
63.0
 40
64.0
 40
64.0
 40
64.0
 40
65.0
 40
65.0
 40
65.0
 40
66.0
 40
66.0
 40
66.0
 40
67.0
 40
67.0
 40
67.0
 40
68.0
 40
68.0
 40
68.0
 40
69.0
 40
69.0
 40
69.0
 40
70.0
 40
70.0
 40
70.0
 40
71.0
 40
71.0
 40
71.0
 40
72.0
 40
72.0
 40
72.0
 40
73.0
 40
73.0
 40
73.0
 40
74.0
 40
74.0
 40
74.0
 40
75.0
 40
75.0
 40
75.0
 40
76.0
 40
76.0
 40
76.0
 40
77.0
 40
77.0
 40
77.0
 40
78.0
 40
78.0
 40
78.0
 40
79.0
 40
79.0
 40
79.0
 40
80.0
 40
80.0
 40
80.0
 40
81.0
 40
81.0
 40
81.0
 40
82.0
 40
82.0
 40
82.0
 40
83.0
 40
83.0
 40
83.0
 40
84.0
 40
84.0
 40
84.0
 40
85.0
 40
85.0
 40
85.0
 40
86.0
 40
86.0
 40
86.0
 40
87.0
 40
87.0
 40
87.0
 40
88.0
 40
88.0
 40
88.0
 40
89.0
 40
89.0
 40
89.0
 40
90.0
 40
90.0
 40
90.0
 40
91.0
 40
91.0
 40
91.0
 40
92.0
 40
92.0
 40
92.0
 40
93.0
 40
93.0
 40
93.0
 40
94.0
 40
94.0
 40
94.0
 40
95.0
 40
95.0
 40
95.0
 40
96.0
 40
96.0
 40
96.0
 40
97.0
 40
97.0
 40
97.0
 40
98.0
 40
98.0
 40
98.0
 40
99.0
 40
99.0
 40
99.0
 40
100.0
 40
100.0
 40
100.0
 40
101.0
 40
101.0
 40
101.0
 40
102.0
 40
102.0
 40
102.0
 40
103.0
 40
103.0
 40
103.0
 40
104.0
 40
104.0
 40
104.0
 40
105.0
 40
105.0
 40
105.0
 40
106.0
 40
106.0
 40
106.0
 40
107.0
 40
107.0
 40
107.0
 40
108.0
 40
108.0
 40
108.0
 40
109.0
 40
109.0
 40
109.0
 40
110.0
 40
110.0
 40
110.0
 40
111.0
 40
111.0
 40
111.0
 40
112.0
 40
112.0
 40
112.0
 40
113.0
 40
113.0
 40
113.0
 40
114.0
 40
114.0
 40
114.0
 40
115.0
 40
115.0
 40
115.0
 40
116.0
 40
116.0
 40
116.0
 40
117.0
 40
117.0
 40
117.0
 40
118.0
 40
118.0
 40
118.0
 40
119.0
 40
119.0
 40
119.0
 40
120.0
 40
120.0
 40
120.0
 40
121.0
 40
121.0
 40
121.0
 40
122.0
 40
122.0
 40
122.0
 40
123.0
 40
123.0
 40
123.0
 40
124.0
 40
124.0
 40
124.0
 40
124.0
 10
754.1699829101562
 20
-174.4400024414062
 30
0.0
 10
753.8099975585938
 20
-173.969970703125
 30
0.0
 10
753.1900024414062
 20
-173.8099975585938
 30
0.0
 10
752.6400146484375
 20
-174.0399780273438
 30
0.0
 10
719.72998046875
 20
-187.8099975585938
 30
0.0
 10
669.6799926757812
 20
-168.2099609375
 30
0.0
 10
642.780029296875
 20
-155.2999877929688
 30
0.0
 10
621.8200073242188
 20
-145.25
 30
0.0
 10
600.739990234375
 20
-137.2799682617188
 30
0.0
 10
580.1099853515625
 20
-131.6199951171884
 30
0.0
 10
499.75
 20
-109.5799560546884
 30
0.0
 10
446.1300048828134
 20
-120.9400024414062
 30
0.0
 10
415.2899780273438
 20
-134.3499755859384
 30
0.0
 10
393.72998046875
 20
-143.719970703125
 30
0.0
 10
376.280029296875
 20
-160.2999877929688
 30
0.0
 10
366.1900024414062
 20
-180.6599731445312
 30
0.0
 10
364.0
 20
-182.2099609375
 30
0.0
 10
348.1900024414062
 20
-193.6400146484384
 30
0.0
 10
332.4600219726562
 20
-211.1499633789062
 30
0.0
 10
316.8499755859384
 20
-228.5399780273438
 30
0.0
 10
298.1099853515634
 20
-255.6599731445312
 30
0.0
 10
297.530029296875
 20
-286.1499633789062
 30
0.0
 10
297.0399780273438
 20
-311.510009765625
 30
0.0
 10
308.9400024414062
 20
-335.3099975585938
 30
0.0
 10
332.9400024414062
 20
-357.0799560546884
 30
0.0
 10
332.97998046875
 20
-357.1099853515634
 30
0.0
 10
333.010009765625
 20
-357.1400146484384
 30
0.0
 10
333.0499877929688
 20
-357.1799926757812
 30
0.0
 10
337.0499877929688
 20
-360.7999877929688
 30
0.0
 10
341.3900146484384
 20
-364.3699951171884
 30
0.0
 10
346.0599975585938
 20
-367.8800048828134
 30
0.0
 10
347.5399780273438
 20
-371.6699829101562
 30
0.0
 10
349.2100219726562
 20
-375.6099853515634
 30
0.0
 10
351.0599975585938
 20
-379.7000122070312
 30
0.0
 10
342.3900146484384
 20
-381.7000122070312
 30
0.0
 10
334.97998046875
 20
-384.5799560546884
 30
0.0
 10
328.8699951171884
 20
-388.3699951171884
 30
0.0
 10
317.4600219726562
 20
-395.4299926757812
 30
0.0
 10
314.3200073242188
 20
-403.469970703125
 30
0.0
 10
313.52001953125
 20
-406.3999633789062
 30
0.0
 10
313.52001953125
 20
-406.3999633789062
 30
0.0
 10
305.3900146484384
 20
-406.3399658203134
 30
0.0
 10
305.3900146484384
 20
-406.3399658203134
 30
0.0
 10
305.0599975585938
 20
-406.3499755859384
 30
0.0
 10
304.7100219726562
 20
-406.469970703125
 30
0.0
 10
304.469970703125
 20
-406.7099609375
 30
0.0
 10
304.219970703125
 20
-406.9599609375
 30
0.0
 10
304.0800170898438
 20
-407.2899780273438
 30
0.0
 10
304.0800170898438
 20
-407.6400146484384
 30
0.0
 10
304.0800170898438
 20
-407.6400146484384
 30
0.0
 10
304.0800170898438
 20
-418.1199951171884
 30
0.0
 10
304.0800170898438
 20
-418.1199951171884
 30
0.0
 10
304.0800170898438
 20
-418.8399658203134
 30
0.0
 10
304.6599731445312
 20
-419.4199829101562
 30
0.0
 10
305.3800048828134
 20
-419.4199829101562
 30
0.0
 10
305.3800048828134
 20
-419.4199829101562
 30
0.0
 10
310.4000244140634
 20
-419.4199829101562
 30
0.0
 10
310.4000244140634
 20
-419.4199829101562
 30
0.0
 10
310.2899780273438
 20
-425.8599853515634
 30
0.0
 10
310.5900268554688
 20
-453.8999633789062
 30
0.0
 10
322.6799926757812
 20
-477.8900146484384
 30
0.0
 10
333.5399780273438
 20
-499.4400024414062
 30
0.0
 10
355.260009765625
 20
-512.7999877929688
 30
0.0
 10
378.3400268554688
 20
-512.7999877929688
 30
0.0
 10
380.6599731445312
 20
-512.7999877929688
 30
0.0
 10
383.0
 20
-512.6599731445312
 30
0.0
 10
385.3400268554688
 20
-512.3800048828125
 30
0.0
 10
388.489990234375
 20
-516.3200073242188
 30
0.0
 10
407.77001953125
 20
-538.5199584960938
 30
0.0
 10
448.0700073242188
 20
-548.2699584960938
 30
0.0
 10
456.4299926757812
 20
-550.2899780273438
 30
0.0
 10
464.9500122070312
 20
-551.5599975585938
 30
0.0
 10
473.5999755859384
 20
-552.0899658203125
 30
0.0
 10
473.5
 20
-553.8499755859375
 30
0.0
 10
473.719970703125
 20
-557.0700073242188
 30
0.0
 10
476.1599731445312
 20
-559.5599975585938
 30
0.0
 10
479.2100219726562
 20
-562.6799926757812
 30
0.0
 10
484.6400146484384
 20
-563.5299682617188
 30
0.0
 10
492.27001953125
 20
-562.0899658203125
 30
0.0
 10
493.75
 20
-561.8099975585938
 30
0.0
 10
495.1900024414062
 20
-562.2699584960938
 30
0.0
 10
496.0399780273438
 20
-563.2899780273438
 30
0.0
 10
496.6500244140634
 20
-564.0299682617188
 30
0.0
 10
496.7899780273438
 20
-564.8599853515625
 30
0.0
 10
496.510009765625
 20
-565.8499755859375
 30
0.0
 10
495.75
 20
-566.4599609375
 30
0.0
 10
494.9400024414062
 20
-567.1699829101562
 30
0.0
 10
494.0999755859384
 20
-568.0
 30
0.0
 10
492.6500244140634
 20
-568.9199829101562
 30
0.0
 10
484.0399780273438
 20
-574.9299926757812
 30
0.0
 10
474.02001953125
 20
-594.1699829101562
 30
0.0
 10
464.1900024414062
 20
-613.0299682617188
 30
0.0
 10
451.0499877929688
 20
-648.8800048828125
 30
0.0
 10
444.239990234375
 20
-712.5299682617188
 30
0.0
 10
443.9600219726562
 20
-715.1099853515625
 30
0.0
 10
443.1500244140634
 20
-717.5700073242188
 30
0.0
 10
441.8800048828134
 20
-719.6300048828125
 30
0.0
 10
439.22998046875
 20
-723.9599609375
 30
0.0
 10
439.7999877929688
 20
-726.5499877929688
 30
0.0
 10
440.75
 20
-727.9599609375
 30
0.0
 10
441.1799926757812
 20
-728.5999755859375
 30
0.0
 10
441.780029296875
 20
-729.1199951171875
 30
0.0
 10
442.530029296875
 20
-729.5499877929688
 30
0.0
 10
442.4199829101562
 20
-732.3099975585938
 30
0.0
 10
442.0999755859384
 20
-741.3399658203125
 30
0.0
 10
442.5700073242188
 20
-749.2000122070312
 30
0.0
 10
442.5999755859384
 20
-749.7099609375
 30
0.0
 10
442.9199829101562
 20
-750.1400146484375
 30
0.0
 10
443.3800048828134
 20
-750.3299560546875
 30
0.0
 10
443.469970703125
 20
-750.3699951171875
 30
0.0
 10
444.1900024414062
 20
-750.6499633789062
 30
0.0
 10
445.4299926757812
 20
-750.969970703125
 30
0.0
 10
445.3300170898438
 20
-752.260009765625
 30
0.0
 10
445.22998046875
 20
-753.5499877929688
 30
0.0
 10
445.1400146484384
 20
-754.8399658203125
 30
0.0
 10
445.1400146484384
 20
-754.8399658203125
 30
0.0
 10
445.1300048828134
 20
-754.8499755859375
 30
0.0
 10
445.1300048828134
 20
-754.8599853515625
 30
0.0
 10
444.989990234375
 20
-756.8099975585938
 30
0.0
 10
444.8699951171884
 20
-758.75
 30
0.0
 10
444.77001953125
 20
-760.6799926757812
 30
0.0
 10
444.4000244140634
 20
-767.0299682617188
 30
0.0
 10
444.1900024414062
 20
-773.260009765625
 30
0.0
 10
444.1099853515634
 20
-779.3200073242188
 30
0.0
 10
444.1099853515634
 20
-779.4299926757812
 30
0.0
 10
444.1099853515634
 20
-779.5399780273438
 30
0.0
 10
444.1099853515634
 20
-779.6499633789062
 30
0.0
 10
443.7000122070312
 20
-808.9599609375
 30
0.0
 10
446.1500244140634
 20
-834.2000122070312
 30
0.0
 10
447.9600219726562
 20
-848.5799560546875
 30
0.0
 10
448.8800048828134
 20
-855.8999633789062
 30
0.0
 10
448.3900146484384
 20
-863.4099731445312
 30
0.0
 10
446.47998046875
 20
-870.9199829101562
 30
0.0
 10
443.0399780273438
 20
-884.510009765625
 30
0.0
 10
441.3900146484384
 20
-899.5599975585938
 30
0.0
 10
440.6099853515634
 20
-909.6199951171875
 30
0.0
 10
440.0800170898438
 20
-916.5299682617188
 30
0.0
 10
439.9600219726562
 20
-921.0899658203125
 30
0.0
 10
439.9500122070312
 20
-921.2000122070312
 30
0.0
 10
439.9500122070312
 20
-921.4299926757812
 30
0.0
 10
440.0
 20
-921.6499633789062
 30
0.0
 10
440.1099853515634
 20
-921.8499755859375
 30
0.0
 10
440.5399780273438
 20
-922.6599731445312
 30
0.0
 10
440.989990234375
 20
-923.4400024414062
 30
0.0
 10
441.4400024414062
 20
-924.22998046875
 30
0.0
 10
435.9400024414062
 20
-924.8399658203125
 30
0.0
 10
421.5599975585938
 20
-927.47998046875
 30
0.0
 10
419.7100219726562
 20
-938.3099975585938
 30
0.0
 10
418.8200073242188
 20
-939.1799926757812
 30
0.0
 10
417.2899780273438
 20
-941.489990234375
 30
0.0
 10
417.489990234375
 20
-947.0499877929688
 30
0.0
 10
417.5
 20
-947.3599853515625
 30
0.0
 10
417.6300048828134
 20
-947.6599731445312
 30
0.0
 10
417.8400268554688
 20
-947.8900146484375
 30
0.0
 10
418.3499755859384
 20
-948.4299926757812
 30
0.0
 10
427.7000122070312
 20
-958.0399780273438
 30
0.0
 10
450.8499755859384
 20
-958.0399780273438
 30
0.0
 10
458.6500244140634
 20
-958.0399780273438
 30
0.0
 10
468.030029296875
 20
-956.9400024414062
 30
0.0
 10
479.1500244140634
 20
-954.0399780273438
 30
0.0
 10
479.52001953125
 20
-954.1300048828125
 30
0.0
 10
479.8800048828134
 20
-954.2099609375
 30
0.0
 10
480.25
 20
-954.2799682617188
 30
0.0
 10
484.8099975585938
 20
-955.2799682617188
 30
0.0
 10
489.3300170898438
 20
-955.6900024414062
 30
0.0
 10
493.7000122070312
 20
-955.6900024414062
 30
0.0
 10
514.4099731445312
 20
-955.6900024414062
 30
0.0
 10
531.6500244140625
 20
-946.5199584960938
 30
0.0
 10
532.5599975585938
 20
-946.0299682617188
 30
0.0
 10
532.9299926757812
 20
-945.8299560546875
 30
0.0
 10
533.1799926757812
 20
-945.469970703125
 30
0.0
 10
533.22998046875
 20
-945.0499877929688
 30
0.0
 10
533.8300170898438
 20
-940.469970703125
 30
0.0
 10
533.989990234375
 20
-935.6499633789062
 30
0.0
 10
533.7999877929688
 20
-930.72998046875
 30
0.0
 10
533.1799926757812
 20
-914.2699584960938
 30
0.0
 10
528.739990234375
 20
-896.760009765625
 30
0.0
 10
524.5700073242188
 20
-883.6699829101562
 30
0.0
 10
518.8200073242188
 20
-865.5499877929688
 30
0.0
 10
520.5700073242188
 20
-845.6099853515625
 30
0.0
 10
529.3800048828125
 20
-828.9500122070312
 30
0.0
 10
530.2999877929688
 20
-827.2099609375
 30
0.0
 10
531.25
 20
-825.5
 30
0.0
 10
532.219970703125
 20
-823.8399658203125
 30
0.0
 10
565.8800048828125
 20
-857.9500122070312
 30
0.0
 10
563.4000244140625
 20
-935.9199829101562
 30
0.0
 10
563.3800048828125
 20
-936.719970703125
 30
0.0
 10
563.3499755859375
 20
-937.2999877929688
 30
0.0
 10
563.72998046875
 20
-937.8299560546875
 30
0.0
 10
564.2899780273438
 20
-938.010009765625
 30
0.0
 10
579.2899780273438
 20
-942.6400146484375
 30
0.0
 10
592.0499877929688
 20
-944.3599853515625
 30
0.0
 10
602.72998046875
 20
-944.3599853515625
 30
0.0
 10
632.8200073242188
 20
-944.3599853515625
 30
0.0
 10
646.3900146484375
 20
-930.6799926757812
 30
0.0
 10
647.1400146484375
 20
-929.8999633789062
 30
0.0
 10
647.4000244140625
 20
-929.6400146484375
 30
0.0
 10
647.530029296875
 20
-929.2799682617188
 30
0.0
 10
647.5
 20
-928.9099731445312
 30
0.0
 10
645.219970703125
 20
-894.3599853515625
 30
0.0
 10
622.5900268554688
 20
-849.4400024414062
 30
0.0
 10
612.969970703125
 20
-831.739990234375
 30
0.0
 10
609.25
 20
-824.8800048828125
 30
0.0
 10
606.6599731445312
 20
-817.5799560546875
 30
0.0
 10
605.2899780273438
 20
-810.0299682617188
 30
0.0
 10
601.2000122070312
 20
-787.489990234375
 30
0.0
 10
600.8800048828125
 20
-755.2000122070312
 30
0.0
 10
600.8800048828125
 20
-754.8699951171875
 30
0.0
 10
600.8800048828125
 20
-750.7699584960938
 30
0.0
 10
600.47998046875
 20
-747.260009765625
 30
0.0
 10
599.8699951171875
 20
-744.3099975585938
 30
0.0
 10
611.989990234375
 20
-742.1099853515625
 30
0.0
 10
617.4299926757812
 20
-734.0899658203125
 30
0.0
 10
619.6099853515625
 20
-729.3800048828125
 30
0.0
 10
620.9199829101562
 20
-726.5499877929688
 30
0.0
 10
620.2899780273438
 20
-723.1499633789062
 30
0.0
 10
618.0499877929688
 20
-720.9299926757812
 30
0.0
 10
610.1599731445312
 20
-713.1400146484375
 30
0.0
 10
605.2999877929688
 20
-702.239990234375
 30
0.0
 10
603.9400024414062
 20
-698.9199829101562
 30
0.0
 10
624.7100219726562
 20
-686.4599609375
 30
0.0
 10
633.5
 20
-673.4299926757812
 30
0.0
 10
637.2100219726562
 20
-664.4400024414062
 30
0.0
 10
640.1699829101562
 20
-657.2699584960938
 30
0.0
 10
639.219970703125
 20
-649.1900024414062
 30
0.0
 10
634.6599731445312
 20
-642.8299560546875
 30
0.0
 10
596.510009765625
 20
-589.4599609375
 30
0.0
 10
593.7899780273438
 20
-531.8299560546875
 30
0.0
 10
593.5999755859375
 20
-524.4299926757812
 30
0.0
 10
614.6099853515625
 20
-514.0499877929688
 30
0.0
 10
631.1400146484375
 20
-501.5999755859384
 30
0.0
 10
643.030029296875
 20
-487.219970703125
 30
0.0
 10
645.6099853515625
 20
-486.4599609375
 30
0.0
 10
658.8200073242188
 20
-482.1900024414062
 30
0.0
 10
668.530029296875
 20
-472.6599731445312
 30
0.0
 10
668.530029296875
 20
-472.6599731445312
 30
0.0
 10
669.75
 20
-482.3499755859384
 30
0.0
 10
669.75
 20
-482.3499755859384
 30
0.0
 10
669.75
 20
-482.3499755859384
 30
0.0
 10
665.2100219726562
 20
-482.4500122070312
 30
0.0
 10
665.2100219726562
 20
-482.4500122070312
 30
0.0
 10
664.8699951171875
 20
-482.4599609375
 30
0.0
 10
664.5499877929688
 20
-482.6199951171884
 30
0.0
 10
664.3499755859375
 20
-482.8999633789062
 30
0.0
 10
664.3499755859375
 20
-482.8999633789062
 30
0.0
 10
662.280029296875
 20
-485.719970703125
 30
0.0
 10
662.280029296875
 20
-485.719970703125
 30
0.0
 10
662.010009765625
 20
-486.0799560546884
 30
0.0
 10
662.0
 20
-486.5799560546884
 30
0.0
 10
662.25
 20
-486.9599609375
 30
0.0
 10
662.25
 20
-486.9599609375
 30
0.0
 10
664.0599975585938
 20
-489.7799682617188
 30
0.0
 10
664.0599975585938
 20
-489.7799682617188
 30
0.0
 10
664.260009765625
 20
-490.0999755859384
 30
0.0
 10
664.6099853515625
 20
-490.2899780273438
 30
0.0
 10
664.989990234375
 20
-490.2899780273438
 30
0.0
 10
664.989990234375
 20
-490.2899780273438
 30
0.0
 10
669.9099731445312
 20
-490.2899780273438
 30
0.0
 10
669.9099731445312
 20
-490.2899780273438
 30
0.0
 10
669.9099731445312
 20
-490.2899780273438
 30
0.0
 10
667.6500244140625
 20
-513.3699951171875
 30
0.0
 10
667.6500244140625
 20
-513.3699951171875
 30
0.0
 10
667.6199951171875
 20
-513.6499633789062
 30
0.0
 10
667.7000122070312
 20
-513.9199829101562
 30
0.0
 10
667.8699951171875
 20
-514.1400146484375
 30
0.0
 10
667.8699951171875
 20
-514.1400146484375
 30
0.0
 10
672.75
 20
-520.5299682617188
 30
0.0
 10
672.75
 20
-520.5299682617188
 30
0.0
 10
672.9600219726562
 20
-520.7999877929688
 30
0.0
 10
673.280029296875
 20
-520.9599609375
 30
0.0
 10
673.6199951171875
 20
-520.9599609375
 30
0.0
 10
673.6300048828125
 20
-520.9599609375
 30
0.0
 10
673.6400146484375
 20
-520.9599609375
 30
0.0
 10
673.6500244140625
 20
-520.9599609375
 30
0.0
 10
674.0
 20
-520.9599609375
 30
0.0
 10
674.3200073242188
 20
-520.7799682617188
 30
0.0
 10
674.52001953125
 20
-520.5
 30
0.0
 10
674.52001953125
 20
-520.5
 30
0.0
 10
678.780029296875
 20
-514.489990234375
 30
0.0
 10
678.780029296875
 20
-514.489990234375
 30
0.0
 10
678.9400024414062
 20
-514.260009765625
 30
0.0
 10
679.010009765625
 20
-513.989990234375
 30
0.0
 10
678.969970703125
 20
-513.719970703125
 30
0.0
 10
678.969970703125
 20
-513.719970703125
 30
0.0
 10
676.1500244140625
 20
-490.2899780273438
 30
0.0
 10
676.1500244140625
 20
-490.2899780273438
 30
0.0
 10
676.1500244140625
 20
-490.2899780273438
 30
0.0
 10
679.8900146484375
 20
-490.2899780273438
 30
0.0
 10
679.8900146484375
 20
-490.2899780273438
 30
0.0
 10
680.280029296875
 20
-490.2899780273438
 30
0.0
 10
680.6400146484375
 20
-490.0799560546884
 30
0.0
 10
680.8300170898438
 20
-489.739990234375
 30
0.0
 10
680.8300170898438
 20
-489.739990234375
 30
0.0
 10
682.52001953125
 20
-486.8599853515634
 30
0.0
 10
682.52001953125
 20
-486.8599853515634
 30
0.0
 10
682.739990234375
 20
-486.5
 30
0.0
 10
682.72998046875
 20
-486.0499877929688
 30
0.0
 10
682.5
 20
-485.7000122070312
 30
0.0
 10
682.5
 20
-485.7000122070312
 30
0.0
 10
680.6199951171875
 20
-482.8200073242188
 30
0.0
 10
680.6199951171875
 20
-482.8200073242188
 30
0.0
 10
680.4199829101562
 20
-482.510009765625
 30
0.0
 10
680.0700073242188
 20
-482.3299560546884
 30
0.0
 10
679.7000122070312
 20
-482.3299560546884
 30
0.0
 10
679.7000122070312
 20
-482.3299560546884
 30
0.0
 10
676.1400146484375
 20
-482.3299560546884
 30
0.0
 10
676.1400146484375
 20
-482.3299560546884
 30
0.0
 10
676.1400146484375
 20
-482.3299560546884
 30
0.0
 10
677.5999755859375
 20
-469.6499633789062
 30
0.0
 10
677.5999755859375
 20
-469.6499633789062
 30
0.0
 10
677.6300048828125
 20
-469.3599853515634
 30
0.0
 10
677.5499877929688
 20
-469.0700073242188
 30
0.0
 10
677.3699951171875
 20
-468.8399658203134
 30
0.0
 10
677.3699951171875
 20
-468.8399658203134
 30
0.0
 10
674.7999877929688
 20
-465.6099853515634
 30
0.0
 10
674.7999877929688
 20
-465.6099853515634
 30
0.0
 10
679.1300048828125
 20
-464.4299926757812
 30
0.0
 10
681.25
 20
-460.9099731445312
 30
0.0
 10
682.1400146484375
 20
-457.1400146484384
 30
0.0
 10
685.9099731445312
 20
-455.7999877929688
 30
0.0
 10
726.1500244140625
 20
-440.489990234375
 30
0.0
 10
725.1199951171875
 20
-396.5499877929688
 30
0.0
 10
724.9199829101562
 20
-387.6799926757812
 30
0.0
 10
720.5800170898438
 20
-379.7699584960938
 30
0.0
 10
713.52001953125
 20
-375.3699951171884
 30
0.0
 10
713.219970703125
 20
-375.1900024414062
 30
0.0
 10
712.9099731445312
 20
-375.010009765625
 30
0.0
 10
712.5999755859375
 20
-374.8299560546884
 30
0.0
 10
728.77001953125
 20
-353.6099853515634
 30
0.0
 10
726.8800048828125
 20
-324.3999633789062
 30
0.0
 10
725.3499755859375
 20
-312.969970703125
 30
0.0
 10
730.5999755859375
 20
-319.7799682617188
 30
0.0
 10
734.0399780273438
 20
-326.2899780273438
 30
0.0
 10
734.1099853515625
 20
-326.4199829101562
 30
0.0
 10
734.3400268554688
 20
-326.8599853515634
 30
0.0
 10
734.780029296875
 20
-327.1199951171884
 30
0.0
 10
735.260009765625
 20
-327.1199951171884
 30
0.0
 10
735.2999877929688
 20
-327.1199951171884
 30
0.0
 10
735.3400268554688
 20
-327.1199951171884
 30
0.0
 10
735.3800048828125
 20
-327.1199951171884
 30
0.0
 10
735.9000244140625
 20
-327.0700073242188
 30
0.0
 10
736.3499755859375
 20
-326.7099609375
 30
0.0
 10
736.5
 20
-326.2099609375
 30
0.0
 10
745.22998046875
 20
-298.2999877929688
 30
0.0
 10
736.22998046875
 20
-275.760009765625
 30
0.0
 10
730.8099975585938
 20
-265.72998046875
 30
0.0
 10
741.1500244140625
 20
-274.7699584960938
 30
0.0
 10
745.739990234375
 20
-288.9099731445312
 30
0.0
 10
745.7899780273438
 20
-289.0700073242188
 30
0.0
 10
745.969970703125
 20
-289.6300048828134
 30
0.0
 10
746.52001953125
 20
-290.0199584960938
 30
0.0
 10
747.0900268554688
 20
-289.969970703125
 30
0.0
 10
747.6900024414062
 20
-289.9400024414062
 30
0.0
 10
748.1799926757812
 20
-289.5199584960938
 30
0.0
 10
748.2999877929688
 20
-288.9400024414062
 30
0.0
 10
754.969970703125
 20
-256.8599853515634
 30
0.0
 10
744.280029296875
 20
-235.0199584960938
 30
0.0
 10
734.1400146484375
 20
-222.3499755859384
 30
0.0
 10
727.219970703125
 20
-213.6900024414062
 30
0.0
 10
719.739990234375
 20
-208.0899658203134
 30
0.0
 10
715.02001953125
 20
-205.0700073242188
 30
0.0
 10
720.5999755859375
 20
-205.0599975585938
 30
0.0
 10
726.469970703125
 20
-204.1699829101562
 30
0.0
 10
731.969970703125
 20
-201.719970703125
 30
0.0
 10
741.010009765625
 20
-197.7000122070312
 30
0.0
 10
747.469970703125
 20
-190.0999755859384
 30
0.0
 10
751.1799926757812
 20
-179.1499633789062
 30
0.0
 10
753.1400146484375
 20
-177.3599853515634
 30
0.0
 10
754.1500244140625
 20
-176.0700073242188
 30
0.0
 10
754.1900024414062
 20
-176.0199584960938
 30
0.0
 10
754.5399780273438
 20
-175.5499877929688
 30
0.0
 10
754.530029296875
 20
-174.8999633789062
 30
0.0
 10
754.1699829101562
 20
-174.4400024414062
 30
0.0
  0
SPLINE
  5
42
330
1F
100
AcDbEntity
  8
JM_YELLOW
370
     0
100
AcDbSpline
210
0.0
220
0.0
230
1.0
 70
    11
 71
     3
 72
    35
 73
    31
 74
     0
 42
0.0000000001
 43
0.0000000001
 12
1.0
 22
0.0
 32
0.0
 13
1.0
 23
0.0
 33
0.0
 40
0.0
 40
0.0
 40
0.0
 40
0.0
 40
1.0
 40
1.0
 40
1.0
 40
2.0
 40
2.0
 40
2.0
 40
3.0
 40
3.0
 40
3.0
 40
4.0
 40
4.0
 40
4.0
 40
5.0
 40
5.0
 40
5.0
 40
6.0
 40
6.0
 40
6.0
 40
7.0
 40
7.0
 40
7.0
 40
8.0
 40
8.0
 40
8.0
 40
9.0
 40
9.0
 40
9.0
 40
10.0
 40
10.0
 40
10.0
 40
10.0
 10
350.1099853515634
 20
-491.72998046875
 30
0.0
 10
340.5599975585938
 20
-484.219970703125
 30
0.0
 10
328.0
 20
-469.010009765625
 30
0.0
 10
322.469970703125
 20
-439.0899658203134
 30
0.0
 10
322.2899780273438
 20
-438.3699951171884
 30
0.0
 10
320.280029296875
 20
-429.75
 30
0.0
 10
321.530029296875
 20
-420.010009765625
 30
0.0
 10
321.530029296875
 20
-420.010009765625
 30
0.0
 10
363.0399780273438
 20
-416.22998046875
 30
0.0
 10
363.0399780273438
 20
-416.22998046875
 30
0.0
 10
362.530029296875
 20
-417.2699584960938
 30
0.0
 10
362.3400268554688
 20
-418.4400024414062
 30
0.0
 10
362.510009765625
 20
-419.5999755859384
 30
0.0
 10
363.9199829101562
 20
-428.989990234375
 30
0.0
 10
370.8400268554688
 20
-439.0899658203134
 30
0.0
 10
373.1199951171884
 20
-442.1900024414062
 30
0.0
 10
373.1199951171884
 20
-442.219970703125
 30
0.0
 10
373.1300048828134
 20
-442.260009765625
 30
0.0
 10
373.1400146484384
 20
-442.2899780273438
 30
0.0
 10
373.1699829101562
 20
-442.3900146484384
 30
0.0
 10
375.8400268554688
 20
-451.9599609375
 30
0.0
 10
374.239990234375
 20
-458.1199951171884
 30
0.0
 10
373.9299926757812
 20
-459.2699584960938
 30
0.0
 10
367.0999755859384
 20
-485.219970703125
 30
0.0
 10
377.27001953125
 20
-501.3900146484384
 30
0.0
 10
374.8099975585938
 20
-501.3999633789062
 30
0.0
 10
372.2899780273438
 20
-501.2699584960938
 30
0.0
 10
369.6900024414062
 20
-500.97998046875
 30
0.0
 10
369.5999755859384
 20
-500.969970703125
 30
0.0
 10
360.4400024414062
 20
-499.8499755859384
 30
0.0
 10
350.1099853515634
 20
-491.72998046875
 30
0.0
  0
SPLINE
  5
43
330
1F
100
AcDbEntity
  8
JM_YELLOW
370
     0
100
AcDbSpline
210
0.0
220
0.0
230
1.0
 70
    11
 71
     3
 72
    17
 73
    13
 74
     0
 42
0.0000000001
 43
0.0000000001
 12
1.0
 22
0.0
 32
0.0
 13
1.0
 23
0.0
 33
0.0
 40
0.0
 40
0.0
 40
0.0
 40
0.0
 40
1.0
 40
1.0
 40
1.0
 40
2.0
 40
2.0
 40
2.0
 40
3.0
 40
3.0
 40
3.0
 40
4.0
 40
4.0
 40
4.0
 40
4.0
 10
356.1300048828134
 20
-390.22998046875
 30
0.0
 10
357.2100219726562
 20
-392.0899658203134
 30
0.0
 10
359.989990234375
 20
-397.0399780273438
 30
0.0
 10
362.1699829101562
 20
-402.469970703125
 30
0.0
 10
362.1699829101562
 20
-402.469970703125
 30
0.0
 10
326.3099975585938
 20
-405.7099609375
 30
0.0
 10
326.3099975585938
 20
-405.7099609375
 30
0.0
 10
329.5900268554688
 20
-400.3999633789062
 30
0.0
 10
334.77001953125
 20
-395.8099975585938
 30
0.0
 10
342.8400268554688
 20
-393.239990234375
 30
0.0
 10
342.969970703125
 20
-393.2000122070312
 30
0.0
 10
348.0599975585938
 20
-391.75
 30
0.0
 10
356.1300048828134
 20
-390.22998046875
 30
0.0
  0
HATCH
  5
44
330
1F
100
AcDbEntity
  8
JM_YELLOW
 62
    40
420
 15905327
100
AcDbHatch
 10
0.0
 20
0.0
 30
0.0
210
0.0
220
0.0
230
1.0
  2
SOLID
 70
     1
 71
     0
 91
        3
 92
        1
 93
        1
 72
     4
 94
        3
 73
     0
 74
     1
 95
      377
 96
      373
 40
0.0
 40
0.0
 40
0.0
 40
0.0
 40
1.0
 40
1.0
 40
1.0
 40
2.0
 40
2.0
 40
2.0
 40
3.0
 40
3.0
 40
3.0
 40
4.0
 40
4.0
 40
4.0
 40
5.0
 40
5.0
 40
5.0
 40
6.0
 40
6.0
 40
6.0
 40
7.0
 40
7.0
 40
7.0
 40
8.0
 40
8.0
 40
8.0
 40
9.0
 40
9.0
 40
9.0
 40
10.0
 40
10.0
 40
10.0
 40
11.0
 40
11.0
 40
11.0
 40
12.0
 40
12.0
 40
12.0
 40
13.0
 40
13.0
 40
13.0
 40
14.0
 40
14.0
 40
14.0
 40
15.0
 40
15.0
 40
15.0
 40
16.0
 40
16.0
 40
16.0
 40
17.0
 40
17.0
 40
17.0
 40
18.0
 40
18.0
 40
18.0
 40
19.0
 40
19.0
 40
19.0
 40
20.0
 40
20.0
 40
20.0
 40
21.0
 40
21.0
 40
21.0
 40
22.0
 40
22.0
 40
22.0
 40
23.0
 40
23.0
 40
23.0
 40
24.0
 40
24.0
 40
24.0
 40
25.0
 40
25.0
 40
25.0
 40
26.0
 40
26.0
 40
26.0
 40
27.0
 40
27.0
 40
27.0
 40
28.0
 40
28.0
 40
28.0
 40
29.0
 40
29.0
 40
29.0
 40
30.0
 40
30.0
 40
30.0
 40
31.0
 40
31.0
 40
31.0
 40
32.0
 40
32.0
 40
32.0
 40
33.0
 40
33.0
 40
33.0
 40
34.0
 40
34.0
 40
34.0
 40
35.0
 40
35.0
 40
35.0
 40
36.0
 40
36.0
 40
36.0
 40
37.0
 40
37.0
 40
37.0
 40
38.0
 40
38.0
 40
38.0
 40
39.0
 40
39.0
 40
39.0
 40
40.0
 40
40.0
 40
40.0
 40
41.0
 40
41.0
 40
41.0
 40
42.0
 40
42.0
 40
42.0
 40
43.0
 40
43.0
 40
43.0
 40
44.0
 40
44.0
 40
44.0
 40
45.0
 40
45.0
 40
45.0
 40
46.0
 40
46.0
 40
46.0
 40
47.0
 40
47.0
 40
47.0
 40
48.0
 40
48.0
 40
48.0
 40
49.0
 40
49.0
 40
49.0
 40
50.0
 40
50.0
 40
50.0
 40
51.0
 40
51.0
 40
51.0
 40
52.0
 40
52.0
 40
52.0
 40
53.0
 40
53.0
 40
53.0
 40
54.0
 40
54.0
 40
54.0
 40
55.0
 40
55.0
 40
55.0
 40
56.0
 40
56.0
 40
56.0
 40
57.0
 40
57.0
 40
57.0
 40
58.0
 40
58.0
 40
58.0
 40
59.0
 40
59.0
 40
59.0
 40
60.0
 40
60.0
 40
60.0
 40
61.0
 40
61.0
 40
61.0
 40
62.0
 40
62.0
 40
62.0
 40
63.0
 40
63.0
 40
63.0
 40
64.0
 40
64.0
 40
64.0
 40
65.0
 40
65.0
 40
65.0
 40
66.0
 40
66.0
 40
66.0
 40
67.0
 40
67.0
 40
67.0
 40
68.0
 40
68.0
 40
68.0
 40
69.0
 40
69.0
 40
69.0
 40
70.0
 40
70.0
 40
70.0
 40
71.0
 40
71.0
 40
71.0
 40
72.0
 40
72.0
 40
72.0
 40
73.0
 40
73.0
 40
73.0
 40
74.0
 40
74.0
 40
74.0
 40
75.0
 40
75.0
 40
75.0
 40
76.0
 40
76.0
 40
76.0
 40
77.0
 40
77.0
 40
77.0
 40
78.0
 40
78.0
 40
78.0
 40
79.0
 40
79.0
 40
79.0
 40
80.0
 40
80.0
 40
80.0
 40
81.0
 40
81.0
 40
81.0
 40
82.0
 40
82.0
 40
82.0
 40
83.0
 40
83.0
 40
83.0
 40
84.0
 40
84.0
 40
84.0
 40
85.0
 40
85.0
 40
85.0
 40
86.0
 40
86.0
 40
86.0
 40
87.0
 40
87.0
 40
87.0
 40
88.0
 40
88.0
 40
88.0
 40
89.0
 40
89.0
 40
89.0
 40
90.0
 40
90.0
 40
90.0
 40
91.0
 40
91.0
 40
91.0
 40
92.0
 40
92.0
 40
92.0
 40
93.0
 40
93.0
 40
93.0
 40
94.0
 40
94.0
 40
94.0
 40
95.0
 40
95.0
 40
95.0
 40
96.0
 40
96.0
 40
96.0
 40
97.0
 40
97.0
 40
97.0
 40
98.0
 40
98.0
 40
98.0
 40
99.0
 40
99.0
 40
99.0
 40
100.0
 40
100.0
 40
100.0
 40
101.0
 40
101.0
 40
101.0
 40
102.0
 40
102.0
 40
102.0
 40
103.0
 40
103.0
 40
103.0
 40
104.0
 40
104.0
 40
104.0
 40
105.0
 40
105.0
 40
105.0
 40
106.0
 40
106.0
 40
106.0
 40
107.0
 40
107.0
 40
107.0
 40
108.0
 40
108.0
 40
108.0
 40
109.0
 40
109.0
 40
109.0
 40
110.0
 40
110.0
 40
110.0
 40
111.0
 40
111.0
 40
111.0
 40
112.0
 40
112.0
 40
112.0
 40
113.0
 40
113.0
 40
113.0
 40
114.0
 40
114.0
 40
114.0
 40
115.0
 40
115.0
 40
115.0
 40
116.0
 40
116.0
 40
116.0
 40
117.0
 40
117.0
 40
117.0
 40
118.0
 40
118.0
 40
118.0
 40
119.0
 40
119.0
 40
119.0
 40
120.0
 40
120.0
 40
120.0
 40
121.0
 40
121.0
 40
121.0
 40
122.0
 40
122.0
 40
122.0
 40
123.0
 40
123.0
 40
123.0
 40
124.0
 40
124.0
 40
124.0
 40
124.0
 10
754.1699829101562
 20
-174.4400024414062
 10
753.8099975585938
 20
-173.969970703125
 10
753.1900024414062
 20
-173.8099975585938
 10
752.6400146484375
 20
-174.0399780273438
 10
719.72998046875
 20
-187.8099975585938
 10
669.6799926757812
 20
-168.2099609375
 10
642.780029296875
 20
-155.2999877929688
 10
621.8200073242188
 20
-145.25
 10
600.739990234375
 20
-137.2799682617188
 10
580.1099853515625
 20
-131.6199951171884
 10
499.75
 20
-109.5799560546884
 10
446.1300048828134
 20
-120.9400024414062
 10
415.2899780273438
 20
-134.3499755859384
 10
393.72998046875
 20
-143.719970703125
 10
376.280029296875
 20
-160.2999877929688
 10
366.1900024414062
 20
-180.6599731445312
 10
364.0
 20
-182.2099609375
 10
348.1900024414062
 20
-193.6400146484384
 10
332.4600219726562
 20
-211.1499633789062
 10
316.8499755859384
 20
-228.5399780273438
 10
298.1099853515634
 20
-255.6599731445312
 10
297.530029296875
 20
-286.1499633789062
 10
297.0399780273438
 20
-311.510009765625
 10
308.9400024414062
 20
-335.3099975585938
 10
332.9400024414062
 20
-357.0799560546884
 10
332.97998046875
 20
-357.1099853515634
 10
333.010009765625
 20
-357.1400146484384
 10
333.0499877929688
 20
-357.1799926757812
 10
337.0499877929688
 20
-360.7999877929688
 10
341.3900146484384
 20
-364.3699951171884
 10
346.0599975585938
 20
-367.8800048828134
 10
347.5399780273438
 20
-371.6699829101562
 10
349.2100219726562
 20
-375.6099853515634
 10
351.0599975585938
 20
-379.7000122070312
 10
342.3900146484384
 20
-381.7000122070312
 10
334.97998046875
 20
-384.5799560546884
 10
328.8699951171884
 20
-388.3699951171884
 10
317.4600219726562
 20
-395.4299926757812
 10
314.3200073242188
 20
-403.469970703125
 10
313.52001953125
 20
-406.3999633789062
 10
313.52001953125
 20
-406.3999633789062
 10
305.3900146484384
 20
-406.3399658203134
 10
305.3900146484384
 20
-406.3399658203134
 10
305.0599975585938
 20
-406.3499755859384
 10
304.7100219726562
 20
-406.469970703125
 10
304.469970703125
 20
-406.7099609375
 10
304.219970703125
 20
-406.9599609375
 10
304.0800170898438
 20
-407.2899780273438
 10
304.0800170898438
 20
-407.6400146484384
 10
304.0800170898438
 20
-407.6400146484384
 10
304.0800170898438
 20
-418.1199951171884
 10
304.0800170898438
 20
-418.1199951171884
 10
304.0800170898438
 20
-418.8399658203134
 10
304.6599731445312
 20
-419.4199829101562
 10
305.3800048828134
 20
-419.4199829101562
 10
305.3800048828134
 20
-419.4199829101562
 10
310.4000244140634
 20
-419.4199829101562
 10
310.4000244140634
 20
-419.4199829101562
 10
310.2899780273438
 20
-425.8599853515634
 10
310.5900268554688
 20
-453.8999633789062
 10
322.6799926757812
 20
-477.8900146484384
 10
333.5399780273438
 20
-499.4400024414062
 10
355.260009765625
 20
-512.7999877929688
 10
378.3400268554688
 20
-512.7999877929688
 10
380.6599731445312
 20
-512.7999877929688
 10
383.0
 20
-512.6599731445312
 10
385.3400268554688
 20
-512.3800048828125
 10
388.489990234375
 20
-516.3200073242188
 10
407.77001953125
 20
-538.5199584960938
 10
448.0700073242188
 20
-548.2699584960938
 10
456.4299926757812
 20
-550.2899780273438
 10
464.9500122070312
 20
-551.5599975585938
 10
473.5999755859384
 20
-552.0899658203125
 10
473.5
 20
-553.8499755859375
 10
473.719970703125
 20
-557.0700073242188
 10
476.1599731445312
 20
-559.5599975585938
 10
479.2100219726562
 20
-562.6799926757812
 10
484.6400146484384
 20
-563.5299682617188
 10
492.27001953125
 20
-562.0899658203125
 10
493.75
 20
-561.8099975585938
 10
495.1900024414062
 20
-562.2699584960938
 10
496.0399780273438
 20
-563.2899780273438
 10
496.6500244140634
 20
-564.0299682617188
 10
496.7899780273438
 20
-564.8599853515625
 10
496.510009765625
 20
-565.8499755859375
 10
495.75
 20
-566.4599609375
 10
494.9400024414062
 20
-567.1699829101562
 10
494.0999755859384
 20
-568.0
 10
492.6500244140634
 20
-568.9199829101562
 10
484.0399780273438
 20
-574.9299926757812
 10
474.02001953125
 20
-594.1699829101562
 10
464.1900024414062
 20
-613.0299682617188
 10
451.0499877929688
 20
-648.8800048828125
 10
444.239990234375
 20
-712.5299682617188
 10
443.9600219726562
 20
-715.1099853515625
 10
443.1500244140634
 20
-717.5700073242188
 10
441.8800048828134
 20
-719.6300048828125
 10
439.22998046875
 20
-723.9599609375
 10
439.7999877929688
 20
-726.5499877929688
 10
440.75
 20
-727.9599609375
 10
441.1799926757812
 20
-728.5999755859375
 10
441.780029296875
 20
-729.1199951171875
 10
442.530029296875
 20
-729.5499877929688
 10
442.4199829101562
 20
-732.3099975585938
 10
442.0999755859384
 20
-741.3399658203125
 10
442.5700073242188
 20
-749.2000122070312
 10
442.5999755859384
 20
-749.7099609375
 10
442.9199829101562
 20
-750.1400146484375
 10
443.3800048828134
 20
-750.3299560546875
 10
443.469970703125
 20
-750.3699951171875
 10
444.1900024414062
 20
-750.6499633789062
 10
445.4299926757812
 20
-750.969970703125
 10
445.3300170898438
 20
-752.260009765625
 10
445.22998046875
 20
-753.5499877929688
 10
445.1400146484384
 20
-754.8399658203125
 10
445.1400146484384
 20
-754.8399658203125
 10
445.1300048828134
 20
-754.8499755859375
 10
445.1300048828134
 20
-754.8599853515625
 10
444.989990234375
 20
-756.8099975585938
 10
444.8699951171884
 20
-758.75
 10
444.77001953125
 20
-760.6799926757812
 10
444.4000244140634
 20
-767.0299682617188
 10
444.1900024414062
 20
-773.260009765625
 10
444.1099853515634
 20
-779.3200073242188
 10
444.1099853515634
 20
-779.4299926757812
 10
444.1099853515634
 20
-779.5399780273438
 10
444.1099853515634
 20
-779.6499633789062
 10
443.7000122070312
 20
-808.9599609375
 10
446.1500244140634
 20
-834.2000122070312
 10
447.9600219726562
 20
-848.5799560546875
 10
448.8800048828134
 20
-855.8999633789062
 10
448.3900146484384
 20
-863.4099731445312
 10
446.47998046875
 20
-870.9199829101562
 10
443.0399780273438
 20
-884.510009765625
 10
441.3900146484384
 20
-899.5599975585938
 10
440.6099853515634
 20
-909.6199951171875
 10
440.0800170898438
 20
-916.5299682617188
 10
439.9600219726562
 20
-921.0899658203125
 10
439.9500122070312
 20
-921.2000122070312
 10
439.9500122070312
 20
-921.4299926757812
 10
440.0
 20
-921.6499633789062
 10
440.1099853515634
 20
-921.8499755859375
 10
440.5399780273438
 20
-922.6599731445312
 10
440.989990234375
 20
-923.4400024414062
 10
441.4400024414062
 20
-924.22998046875
 10
435.9400024414062
 20
-924.8399658203125
 10
421.5599975585938
 20
-927.47998046875
 10
419.7100219726562
 20
-938.3099975585938
 10
418.8200073242188
 20
-939.1799926757812
 10
417.2899780273438
 20
-941.489990234375
 10
417.489990234375
 20
-947.0499877929688
 10
417.5
 20
-947.3599853515625
 10
417.6300048828134
 20
-947.6599731445312
 10
417.8400268554688
 20
-947.8900146484375
 10
418.3499755859384
 20
-948.4299926757812
 10
427.7000122070312
 20
-958.0399780273438
 10
450.8499755859384
 20
-958.0399780273438
 10
458.6500244140634
 20
-958.0399780273438
 10
468.030029296875
 20
-956.9400024414062
 10
479.1500244140634
 20
-954.0399780273438
 10
479.52001953125
 20
-954.1300048828125
 10
479.8800048828134
 20
-954.2099609375
 10
480.25
 20
-954.2799682617188
 10
484.8099975585938
 20
-955.2799682617188
 10
489.3300170898438
 20
-955.6900024414062
 10
493.7000122070312
 20
-955.6900024414062
 10
514.4099731445312
 20
-955.6900024414062
 10
531.6500244140625
 20
-946.5199584960938
 10
532.5599975585938
 20
-946.0299682617188
 10
532.9299926757812
 20
-945.8299560546875
 10
533.1799926757812
 20
-945.469970703125
 10
533.22998046875
 20
-945.0499877929688
 10
533.8300170898438
 20
-940.469970703125
 10
533.989990234375
 20
-935.6499633789062
 10
533.7999877929688
 20
-930.72998046875
 10
533.1799926757812
 20
-914.2699584960938
 10
528.739990234375
 20
-896.760009765625
 10
524.5700073242188
 20
-883.6699829101562
 10
518.8200073242188
 20
-865.5499877929688
 10
520.5700073242188
 20
-845.6099853515625
 10
529.3800048828125
 20
-828.9500122070312
 10
530.2999877929688
 20
-827.2099609375
 10
531.25
 20
-825.5
 10
532.219970703125
 20
-823.8399658203125
 10
565.8800048828125
 20
-857.9500122070312
 10
563.4000244140625
 20
-935.9199829101562
 10
563.3800048828125
 20
-936.719970703125
 10
563.3499755859375
 20
-937.2999877929688
 10
563.72998046875
 20
-937.8299560546875
 10
564.2899780273438
 20
-938.010009765625
 10
579.2899780273438
 20
-942.6400146484375
 10
592.0499877929688
 20
-944.3599853515625
 10
602.72998046875
 20
-944.3599853515625
 10
632.8200073242188
 20
-944.3599853515625
 10
646.3900146484375
 20
-930.6799926757812
 10
647.1400146484375
 20
-929.8999633789062
 10
647.4000244140625
 20
-929.6400146484375
 10
647.530029296875
 20
-929.2799682617188
 10
647.5
 20
-928.9099731445312
 10
645.219970703125
 20
-894.3599853515625
 10
622.5900268554688
 20
-849.4400024414062
 10
612.969970703125
 20
-831.739990234375
 10
609.25
 20
-824.8800048828125
 10
606.6599731445312
 20
-817.5799560546875
 10
605.2899780273438
 20
-810.0299682617188
 10
601.2000122070312
 20
-787.489990234375
 10
600.8800048828125
 20
-755.2000122070312
 10
600.8800048828125
 20
-754.8699951171875
 10
600.8800048828125
 20
-750.7699584960938
 10
600.47998046875
 20
-747.260009765625
 10
599.8699951171875
 20
-744.3099975585938
 10
611.989990234375
 20
-742.1099853515625
 10
617.4299926757812
 20
-734.0899658203125
 10
619.6099853515625
 20
-729.3800048828125
 10
620.9199829101562
 20
-726.5499877929688
 10
620.2899780273438
 20
-723.1499633789062
 10
618.0499877929688
 20
-720.9299926757812
 10
610.1599731445312
 20
-713.1400146484375
 10
605.2999877929688
 20
-702.239990234375
 10
603.9400024414062
 20
-698.9199829101562
 10
624.7100219726562
 20
-686.4599609375
 10
633.5
 20
-673.4299926757812
 10
637.2100219726562
 20
-664.4400024414062
 10
640.1699829101562
 20
-657.2699584960938
 10
639.219970703125
 20
-649.1900024414062
 10
634.6599731445312
 20
-642.8299560546875
 10
596.510009765625
 20
-589.4599609375
 10
593.7899780273438
 20
-531.8299560546875
 10
593.5999755859375
 20
-524.4299926757812
 10
614.6099853515625
 20
-514.0499877929688
 10
631.1400146484375
 20
-501.5999755859384
 10
643.030029296875
 20
-487.219970703125
 10
645.6099853515625
 20
-486.4599609375
 10
658.8200073242188
 20
-482.1900024414062
 10
668.530029296875
 20
-472.6599731445312
 10
668.530029296875
 20
-472.6599731445312
 10
669.75
 20
-482.3499755859384
 10
669.75
 20
-482.3499755859384
 10
669.75
 20
-482.3499755859384
 10
665.2100219726562
 20
-482.4500122070312
 10
665.2100219726562
 20
-482.4500122070312
 10
664.8699951171875
 20
-482.4599609375
 10
664.5499877929688
 20
-482.6199951171884
 10
664.3499755859375
 20
-482.8999633789062
 10
664.3499755859375
 20
-482.8999633789062
 10
662.280029296875
 20
-485.719970703125
 10
662.280029296875
 20
-485.719970703125
 10
662.010009765625
 20
-486.0799560546884
 10
662.0
 20
-486.5799560546884
 10
662.25
 20
-486.9599609375
 10
662.25
 20
-486.9599609375
 10
664.0599975585938
 20
-489.7799682617188
 10
664.0599975585938
 20
-489.7799682617188
 10
664.260009765625
 20
-490.0999755859384
 10
664.6099853515625
 20
-490.2899780273438
 10
664.989990234375
 20
-490.2899780273438
 10
664.989990234375
 20
-490.2899780273438
 10
669.9099731445312
 20
-490.2899780273438
 10
669.9099731445312
 20
-490.2899780273438
 10
669.9099731445312
 20
-490.2899780273438
 10
667.6500244140625
 20
-513.3699951171875
 10
667.6500244140625
 20
-513.3699951171875
 10
667.6199951171875
 20
-513.6499633789062
 10
667.7000122070312
 20
-513.9199829101562
 10
667.8699951171875
 20
-514.1400146484375
 10
667.8699951171875
 20
-514.1400146484375
 10
672.75
 20
-520.5299682617188
 10
672.75
 20
-520.5299682617188
 10
672.9600219726562
 20
-520.7999877929688
 10
673.280029296875
 20
-520.9599609375
 10
673.6199951171875
 20
-520.9599609375
 10
673.6300048828125
 20
-520.9599609375
 10
673.6400146484375
 20
-520.9599609375
 10
673.6500244140625
 20
-520.9599609375
 10
674.0
 20
-520.9599609375
 10
674.3200073242188
 20
-520.7799682617188
 10
674.52001953125
 20
-520.5
 10
674.52001953125
 20
-520.5
 10
678.780029296875
 20
-514.489990234375
 10
678.780029296875
 20
-514.489990234375
 10
678.9400024414062
 20
-514.260009765625
 10
679.010009765625
 20
-513.989990234375
 10
678.969970703125
 20
-513.719970703125
 10
678.969970703125
 20
-513.719970703125
 10
676.1500244140625
 20
-490.2899780273438
 10
676.1500244140625
 20
-490.2899780273438
 10
676.1500244140625
 20
-490.2899780273438
 10
679.8900146484375
 20
-490.2899780273438
 10
679.8900146484375
 20
-490.2899780273438
 10
680.280029296875
 20
-490.2899780273438
 10
680.6400146484375
 20
-490.0799560546884
 10
680.8300170898438
 20
-489.739990234375
 10
680.8300170898438
 20
-489.739990234375
 10
682.52001953125
 20
-486.8599853515634
 10
682.52001953125
 20
-486.8599853515634
 10
682.739990234375
 20
-486.5
 10
682.72998046875
 20
-486.0499877929688
 10
682.5
 20
-485.7000122070312
 10
682.5
 20
-485.7000122070312
 10
680.6199951171875
 20
-482.8200073242188
 10
680.6199951171875
 20
-482.8200073242188
 10
680.4199829101562
 20
-482.510009765625
 10
680.0700073242188
 20
-482.3299560546884
 10
679.7000122070312
 20
-482.3299560546884
 10
679.7000122070312
 20
-482.3299560546884
 10
676.1400146484375
 20
-482.3299560546884
 10
676.1400146484375
 20
-482.3299560546884
 10
676.1400146484375
 20
-482.3299560546884
 10
677.5999755859375
 20
-469.6499633789062
 10
677.5999755859375
 20
-469.6499633789062
 10
677.6300048828125
 20
-469.3599853515634
 10
677.5499877929688
 20
-469.0700073242188
 10
677.3699951171875
 20
-468.8399658203134
 10
677.3699951171875
 20
-468.8399658203134
 10
674.7999877929688
 20
-465.6099853515634
 10
674.7999877929688
 20
-465.6099853515634
 10
679.1300048828125
 20
-464.4299926757812
 10
681.25
 20
-460.9099731445312
 10
682.1400146484375
 20
-457.1400146484384
 10
685.9099731445312
 20
-455.7999877929688
 10
726.1500244140625
 20
-440.489990234375
 10
725.1199951171875
 20
-396.5499877929688
 10
724.9199829101562
 20
-387.6799926757812
 10
720.5800170898438
 20
-379.7699584960938
 10
713.52001953125
 20
-375.3699951171884
 10
713.219970703125
 20
-375.1900024414062
 10
712.9099731445312
 20
-375.010009765625
 10
712.5999755859375
 20
-374.8299560546884
 10
728.77001953125
 20
-353.6099853515634
 10
726.8800048828125
 20
-324.3999633789062
 10
725.3499755859375
 20
-312.969970703125
 10
730.5999755859375
 20
-319.7799682617188
 10
734.0399780273438
 20
-326.2899780273438
 10
734.1099853515625
 20
-326.4199829101562
 10
734.3400268554688
 20
-326.8599853515634
 10
734.780029296875
 20
-327.1199951171884
 10
735.260009765625
 20
-327.1199951171884
 10
735.2999877929688
 20
-327.1199951171884
 10
735.3400268554688
 20
-327.1199951171884
 10
735.3800048828125
 20
-327.1199951171884
 10
735.9000244140625
 20
-327.0700073242188
 10
736.3499755859375
 20
-326.7099609375
 10
736.5
 20
-326.2099609375
 10
745.22998046875
 20
-298.2999877929688
 10
736.22998046875
 20
-275.760009765625
 10
730.8099975585938
 20
-265.72998046875
 10
741.1500244140625
 20
-274.7699584960938
 10
745.739990234375
 20
-288.9099731445312
 10
745.7899780273438
 20
-289.0700073242188
 10
745.969970703125
 20
-289.6300048828134
 10
746.52001953125
 20
-290.0199584960938
 10
747.0900268554688
 20
-289.969970703125
 10
747.6900024414062
 20
-289.9400024414062
 10
748.1799926757812
 20
-289.5199584960938
 10
748.2999877929688
 20
-288.9400024414062
 10
754.969970703125
 20
-256.8599853515634
 10
744.280029296875
 20
-235.0199584960938
 10
734.1400146484375
 20
-222.3499755859384
 10
727.219970703125
 20
-213.6900024414062
 10
719.739990234375
 20
-208.0899658203134
 10
715.02001953125
 20
-205.0700073242188
 10
720.5999755859375
 20
-205.0599975585938
 10
726.469970703125
 20
-204.1699829101562
 10
731.969970703125
 20
-201.719970703125
 10
741.010009765625
 20
-197.7000122070312
 10
747.469970703125
 20
-190.0999755859384
 10
751.1799926757812
 20
-179.1499633789062
 10
753.1400146484375
 20
-177.3599853515634
 10
754.1500244140625
 20
-176.0700073242188
 10
754.1900024414062
 20
-176.0199584960938
 10
754.5399780273438
 20
-175.5499877929688
 10
754.530029296875
 20
-174.8999633789062
 10
754.1699829101562
 20
-174.4400024414062
 97
        0
 97
        0
 92
        1
 93
        1
 72
     4
 94
        3
 73
     0
 74
     1
 95
       35
 96
       31
 40
0.0
 40
0.0
 40
0.0
 40
0.0
 40
1.0
 40
1.0
 40
1.0
 40
2.0
 40
2.0
 40
2.0
 40
3.0
 40
3.0
 40
3.0
 40
4.0
 40
4.0
 40
4.0
 40
5.0
 40
5.0
 40
5.0
 40
6.0
 40
6.0
 40
6.0
 40
7.0
 40
7.0
 40
7.0
 40
8.0
 40
8.0
 40
8.0
 40
9.0
 40
9.0
 40
9.0
 40
10.0
 40
10.0
 40
10.0
 40
10.0
 10
350.1099853515634
 20
-491.72998046875
 10
340.5599975585938
 20
-484.219970703125
 10
328.0
 20
-469.010009765625
 10
322.469970703125
 20
-439.0899658203134
 10
322.2899780273438
 20
-438.3699951171884
 10
320.280029296875
 20
-429.75
 10
321.530029296875
 20
-420.010009765625
 10
321.530029296875
 20
-420.010009765625
 10
363.0399780273438
 20
-416.22998046875
 10
363.0399780273438
 20
-416.22998046875
 10
362.530029296875
 20
-417.2699584960938
 10
362.3400268554688
 20
-418.4400024414062
 10
362.510009765625
 20
-419.5999755859384
 10
363.9199829101562
 20
-428.989990234375
 10
370.8400268554688
 20
-439.0899658203134
 10
373.1199951171884
 20
-442.1900024414062
 10
373.1199951171884
 20
-442.219970703125
 10
373.1300048828134
 20
-442.260009765625
 10
373.1400146484384
 20
-442.2899780273438
 10
373.1699829101562
 20
-442.3900146484384
 10
375.8400268554688
 20
-451.9599609375
 10
374.239990234375
 20
-458.1199951171884
 10
373.9299926757812
 20
-459.2699584960938
 10
367.0999755859384
 20
-485.219970703125
 10
377.27001953125
 20
-501.3900146484384
 10
374.8099975585938
 20
-501.3999633789062
 10
372.2899780273438
 20
-501.2699584960938
 10
369.6900024414062
 20
-500.97998046875
 10
369.5999755859384
 20
-500.969970703125
 10
360.4400024414062
 20
-499.8499755859384
 10
350.1099853515634
 20
-491.72998046875
 97
        0
 97
        0
 92
        1
 93
        1
 72
     4
 94
        3
 73
     0
 74
     1
 95
       17
 96
       13
 40
0.0
 40
0.0
 40
0.0
 40
0.0
 40
1.0
 40
1.0
 40
1.0
 40
2.0
 40
2.0
 40
2.0
 40
3.0
 40
3.0
 40
3.0
 40
4.0
 40
4.0
 40
4.0
 40
4.0
 10
356.1300048828134
 20
-390.22998046875
 10
357.2100219726562
 20
-392.0899658203134
 10
359.989990234375
 20
-397.0399780273438
 10
362.1699829101562
 20
-402.469970703125
 10
362.1699829101562
 20
-402.469970703125
 10
326.3099975585938
 20
-405.7099609375
 10
326.3099975585938
 20
-405.7099609375
 10
329.5900268554688
 20
-400.3999633789062
 10
334.77001953125
 20
-395.8099975585938
 10
342.8400268554688
 20
-393.239990234375
 10
342.969970703125
 20
-393.2000122070312
 10
348.0599975585938
 20
-391.75
 10
356.1300048828134
 20
-390.22998046875
 97
        0
 97
        0
 75
     2
 76
     1
 98
        0
  0
ENDSEC
  0
SECTION
  2
OBJECTS
  0
DICTIONARY
  5
C
330
0
100
AcDbDictionary
281
     1
  3
ACAD_GROUP
350
D
  3
ACAD_LAYOUT
350
1A
  3
ACAD_MATERIAL
350
3B
  3
ACAD_MLEADERSTYLE
350
46
  3
ACAD_MLINESTYLE
350
17
  3
ACAD_PLOTSETTINGS
350
19
  3
ACAD_PLOTSTYLENAME
350
E
  3
ACAD_TABLESTYLE
350
45
  3
ACAD_VISUALSTYLE
350
2A
  0
SUN
  5
3F
330
29
100
AcDbSun
 90
        1
290
     0
 63
     7
421
 16777215
 40
1.0
291
     1
 91
  2455826
 92
 54000000
292
     0
 70
     2
 71
   256
280
     1
  0
DICTIONARY
  5
D
102
{ACAD_REACTORS
330
C
102
}
330
C
100
AcDbDictionary
281
     1
  0
DICTIONARY
  5
1A
102
{ACAD_REACTORS
330
C
102
}
330
C
100
AcDbDictionary
281
     1
  3
Layout1
350
1E
  3
Layout2
350
26
  3
Model
350
22
  0
DICTIONARY
  5
3B
102
{ACAD_REACTORS
330
C
102
}
330
C
100
AcDbDictionary
281
     1
  3
ByBlock
350
3D
  3
ByLayer
350
3C
  3
Global
350
3E
  0
DICTIONARY
  5
46
102
{ACAD_REACTORS
330
C
102
}
330
C
100
AcDbDictionary
281
     1
  0
DICTIONARY
  5
17
102
{ACAD_REACTORS
330
C
102
}
330
C
100
AcDbDictionary
281
     1
  3
Standard
350
18
  0
DICTIONARY
  5
19
102
{ACAD_REACTORS
330
C
102
}
330
C
100
AcDbDictionary
281
     1
  0
ACDBDICTIONARYWDFLT
  5
E
102
{ACAD_REACTORS
330
C
102
}
330
C
100
AcDbDictionary
281
     1
  3
Normal
350
F
100
AcDbDictionaryWithDefault
340
F
  0
DICTIONARY
  5
45
102
{ACAD_REACTORS
330
C
102
}
330
C
100
AcDbDictionary
281
     1
  0
DICTIONARY
  5
2A
102
{ACAD_REACTORS
330
C
102
}
330
C
100
AcDbDictionary
281
     1
  3
2dWireframe
350
2F
  3
3D Hidden
350
31
  3
3dWireframe
350
30
  3
Basic
350
32
  3
Brighten
350
36
  3
ColorChange
350
3A
  3
Conceptual
350
34
  3
Dim
350
35
  3
Facepattern
350
39
  3
Flat
350
2B
  3
FlatWithEdges
350
2C
  3
Gouraud
350
2D
  3
GouraudWithEdges
350
2E
  3
Linepattern
350
38
  3
Realistic
350
33
  3
Thicken
350
37
  0
LAYOUT
  5
1E
102
{ACAD_REACTORS
330
1A
102
}
330
1A
100
AcDbPlotSettings
  1

  2
none_device
  4

  6

 40
0.0
 41
0.0
 42
0.0
 43
0.0
 44
0.0
 45
0.0
 46
0.0
 47
0.0
 48
0.0
 49
0.0
140
0.0
141
0.0
142
1.0
143
1.0
 70
   688
 72
     0
 73
     0
 74
     5
  7

 75
    16
 76
     0
 77
     2
 78
   300
147
1.0
148
0.0
149
0.0
100
AcDbLayout
  1
Layout1
 70
     1
 71
     1
 10
0.0
 20
0.0
 11
12.0
 21
9.0
 12
0.0
 22
0.0
 32
0.0
 14
1.000000000000000E+20
 24
1.000000000000000E+20
 34
1.000000000000000E+20
 15
-1.000000000000000E+20
 25
-1.000000000000000E+20
 35
-1.000000000000000E+20
146
0.0
 13
0.0
 23
0.0
 33
0.0
 16
1.0
 26
0.0
 36
0.0
 17
0.0
 27
1.0
 37
0.0
 76
     0
330
1B
  0
LAYOUT
  5
26
102
{ACAD_REACTORS
330
1A
102
}
330
1A
100
AcDbPlotSettings
  1

  2
none_device
  4

  6

 40
0.0
 41
0.0
 42
0.0
 43
0.0
 44
0.0
 45
0.0
 46
0.0
 47
0.0
 48
0.0
 49
0.0
140
0.0
141
0.0
142
1.0
143
1.0
 70
   688
 72
     0
 73
     0
 74
     5
  7

 75
    16
 76
     0
 77
     2
 78
   300
147
1.0
148
0.0
149
0.0
100
AcDbLayout
  1
Layout2
 70
     1
 71
     2
 10
0.0
 20
0.0
 11
0.0
 21
0.0
 12
0.0
 22
0.0
 32
0.0
 14
0.0
 24
0.0
 34
0.0
 15
0.0
 25
0.0
 35
0.0
146
0.0
 13
0.0
 23
0.0
 33
0.0
 16
1.0
 26
0.0
 36
0.0
 17
0.0
 27
1.0
 37
0.0
 76
     0
330
23
  0
LAYOUT
  5
22
102
{ACAD_REACTORS
330
1A
102
}
330
1A
100
AcDbPlotSettings
  1

  2
none_device
  4

  6

 40
0.0
 41
0.0
 42
0.0
 43
0.0
 44
0.0
 45
0.0
 46
0.0
 47
0.0
 48
0.0
 49
0.0
140
0.0
141
0.0
142
1.0
143
1.0
 70
  1712
 72
     0
 73
     0
 74
     0
  7

 75
     0
 76
     0
 77
     2
 78
   300
147
1.0
148
0.0
149
0.0
100
AcDbLayout
  1
Model
 70
     1
 71
     0
 10
0.0
 20
0.0
 11
12.0
 21
9.0
 12
0.0
 22
0.0
 32
0.0
 14
1.000000000000000E+20
 24
1.000000000000000E+20
 34
1.000000000000000E+20
 15
-1.000000000000000E+20
 25
-1.000000000000000E+20
 35
-1.000000000000000E+20
146
0.0
 13
0.0
 23
0.0
 33
0.0
 16
1.0
 26
0.0
 36
0.0
 17
0.0
 27
1.0
 37
0.0
 76
     0
330
1F
331
29
  0
MATERIAL
  5
3D
102
{ACAD_REACTORS
330
3B
102
}
330
3B
100
AcDbMaterial
  1
ByBlock
 72
     1
 94
      127
  0
MATERIAL
  5
3C
102
{ACAD_REACTORS
330
3B
102
}
330
3B
100
AcDbMaterial
  1
ByLayer
 72
     1
 94
      127
  0
MATERIAL
  5
3E
102
{ACAD_REACTORS
330
3B
102
}
330
3B
100
AcDbMaterial
  1
Global
 72
     1
 94
      127
  0
MLINESTYLE
  5
18
102
{ACAD_REACTORS
330
17
102
}
330
17
100
AcDbMlineStyle
  2
Standard
 70
     0
  3

 62
   256
 51
90.0
 52
90.0
 71
     2
 49
0.5
 62
   256
  6
BYLAYER
 49
-0.5
 62
   256
  6
BYLAYER
  0
ACDBPLACEHOLDER
  5
F
102
{ACAD_REACTORS
330
E
102
}
330
E
  0
VISUALSTYLE
  5
2F
102
{ACAD_REACTORS
330
2A
102
}
330
2A
100
AcDbVisualStyle
  2
2dWireframe
 70
     4
177
     2
291
     0
 71
     0
176
     1
 72
     2
176
     1
 73
     0
176
     1
 90
        0
176
     1
 40
-0.6
176
     1
 41
-30.0
176
     1
 62
     5
 63
     7
421
 16777215
176
     1
 74
     1
176
     1
 91
        4
176
     1
 64
     7
176
     1
 65
   257
176
     1
 75
     1
176
     1
175
     1
176
     1
 42
1.0
176
     1
 92
        0
176
     1
 66
   257
176
     1
 43
1.0
176
     1
 76
     1
176
     1
 77
     6
176
     1
 78
     2
176
     1
 67
     7
176
     1
 79
     5
176
     1
170
     0
176
     1
171
     0
176
     1
290
     0
176
     1
 93
        1
176
     1
 44
0.0
176
     1
173
     0
176
     1
  0
VISUALSTYLE
  5
31
102
{ACAD_REACTORS
330
2A
102
}
330
2A
100
AcDbVisualStyle
  2
3D Hidden
 70
     6
177
     2
291
     0
 71
     1
176
     1
 72
     2
176
     1
 73
     2
176
     1
 90
        0
176
     1
 40
-0.6
176
     1
 41
-30.0
176
     1
 62
     5
 63
     7
421
 16777215
176
     1
 74
     2
176
     1
 91
        2
176
     1
 64
     7
176
     1
 65
   257
176
     1
 75
     2
176
     1
175
     1
176
     1
 42
40.0
176
     1
 92
        0
176
     1
 66
   257
176
     1
 43
1.0
176
     1
 76
     1
176
     1
 77
     6
176
     1
 78
     2
176
     1
 67
     7
176
     1
 79
     3
176
     1
170
     0
176
     1
171
     0
176
     1
290
     0
176
     1
 93
        1
176
     1
 44
0.0
176
     1
173
     0
176
     1
  0
VISUALSTYLE
  5
30
102
{ACAD_REACTORS
330
2A
102
}
330
2A
100
AcDbVisualStyle
  2
3dWireframe
 70
     5
177
     2
291
     0
 71
     0
176
     1
 72
     2
176
     1
 73
     0
176
     1
 90
        0
176
     1
 40
-0.6
176
     1
 41
-30.0
176
     1
 62
     5
 63
     7
421
 16777215
176
     1
 74
     1
176
     1
 91
        4
176
     1
 64
     7
176
     1
 65
   257
176
     1
 75
     1
176
     1
175
     1
176
     1
 42
1.0
176
     1
 92
        0
176
     1
 66
   257
176
     1
 43
1.0
176
     1
 76
     1
176
     1
 77
     6
176
     1
 78
     2
176
     1
 67
     7
176
     1
 79
     5
176
     1
170
     0
176
     1
171
     0
176
     1
290
     0
176
     1
 93
        1
176
     1
 44
0.0
176
     1
173
     0
176
     1
  0
VISUALSTYLE
  5
32
102
{ACAD_REACTORS
330
2A
102
}
330
2A
100
AcDbVisualStyle
  2
Basic
 70
     7
177
     2
291
     1
 71
     1
176
     1
 72
     0
176
     1
 73
     1
176
     1
 90
        0
176
     1
 40
-0.6
176
     1
 41
-30.0
176
     1
 62
     5
 63
     7
421
 16777215
176
     1
 74
     0
176
     1
 91
        4
176
     1
 64
     7
176
     1
 65
   257
176
     1
 75
     1
176
     1
175
     1
176
     1
 42
1.0
176
     1
 92
        8
176
     1
 66
     7
176
     1
 43
1.0
176
     1
 76
     1
176
     1
 77
     6
176
     1
 78
     2
176
     1
 67
     7
176
     1
 79
     5
176
     1
170
     0
176
     1
171
     0
176
     1
290
     0
176
     1
 93
        1
176
     1
 44
0.0
176
     1
173
     0
176
     1
  0
VISUALSTYLE
  5
36
102
{ACAD_REACTORS
330
2A
102
}
330
2A
100
AcDbVisualStyle
  2
Brighten
 70
    12
177
     2
291
     1
 71
     2
176
     1
 72
     2
176
     1
 73
     0
176
     1
 90
        0
176
     1
 40
-0.6
176
     1
 41
-30.0
176
     1
 62
     5
 63
     7
421
 16777215
176
     1
 74
     1
176
     1
 91
        4
176
     1
 64
     7
176
     1
 65
   257
176
     1
 75
     1
176
     1
175
     1
176
     1
 42
1.0
176
     1
 92
        8
176
     1
 66
     7
176
     1
 43
1.0
176
     1
 76
     1
176
     1
 77
     6
176
     1
 78
     2
176
     1
 67
     7
176
     1
 79
     5
176
     1
170
     0
176
     1
171
     0
176
     1
290
     0
176
     1
 93
        1
176
     1
 44
50.0
176
     1
173
     0
176
     1
  0
VISUALSTYLE
  5
3A
102
{ACAD_REACTORS
330
2A
102
}
330
2A
100
AcDbVisualStyle
  2
ColorChange
 70
    16
177
     2
291
     1
 71
     2
176
     1
 72
     2
176
     1
 73
     3
176
     1
 90
        0
176
     1
 40
-0.6
176
     1
 41
-30.0
176
     1
 62
     5
 63
     8
421
  8421504
176
     1
 74
     1
176
     1
 91
        4
176
     1
 64
     7
176
     1
 65
   257
176
     1
 75
     1
176
     1
175
     1
176
     1
 42
1.0
176
     1
 92
        8
176
     1
 66
     8
424
  8421504
176
     1
 43
1.0
176
     1
 76
     1
176
     1
 77
     6
176
     1
 78
     2
176
     1
 67
     7
176
     1
 79
     5
176
     1
170
     0
176
     1
171
     0
176
     1
290
     0
176
     1
 93
        1
176
     1
 44
0.0
176
     1
173
     0
176
     1
  0
VISUALSTYLE
  5
34
102
{ACAD_REACTORS
330
2A
102
}
330
2A
100
AcDbVisualStyle
  2
Conceptual
 70
     9
177
     2
291
     0
 71
     3
176
     1
 72
     2
176
     1
 73
     0
176
     1
 90
        0
176
     1
 40
-0.6
176
     1
 41
-30.0
176
     1
 62
     5
 63
     7
421
 16777215
176
     1
 74
     2
176
     1
 91
        2
176
     1
 64
     7
176
     1
 65
   257
176
     1
 75
     1
176
     1
175
     1
176
     1
 42
40.0
176
     1
 92
        8
176
     1
 66
     7
176
     1
 43
1.0
176
     1
 76
     1
176
     1
 77
     6
176
     1
 78
     2
176
     1
 67
     7
176
     1
 79
     3
176
     1
170
     0
176
     1
171
     0
176
     1
290
     0
176
     1
 93
        1
176
     1
 44
0.0
176
     1
173
     0
176
     1
  0
VISUALSTYLE
  5
35
102
{ACAD_REACTORS
330
2A
102
}
330
2A
100
AcDbVisualStyle
  2
Dim
 70
    11
177
     2
291
     1
 71
     2
176
     1
 72
     2
176
     1
 73
     0
176
     1
 90
        0
176
     1
 40
-0.6
176
     1
 41
-30.0
176
     1
 62
     5
 63
     7
421
 16777215
176
     1
 74
     1
176
     1
 91
        4
176
     1
 64
     7
176
     1
 65
   257
176
     1
 75
     1
176
     1
175
     1
176
     1
 42
1.0
176
     1
 92
        8
176
     1
 66
     7
176
     1
 43
1.0
176
     1
 76
     1
176
     1
 77
     6
176
     1
 78
     2
176
     1
 67
     7
176
     1
 79
     5
176
     1
170
     0
176
     1
171
     0
176
     1
290
     0
176
     1
 93
        1
176
     1
 44
-50.0
176
     1
173
     0
176
     1
  0
VISUALSTYLE
  5
39
102
{ACAD_REACTORS
330
2A
102
}
330
2A
100
AcDbVisualStyle
  2
Facepattern
 70
    15
177
     2
291
     1
 71
     2
176
     1
 72
     2
176
     1
 73
     0
176
     1
 90
        0
176
     1
 40
-0.6
176
     1
 41
-30.0
176
     1
 62
     5
 63
     7
421
 16777215
176
     1
 74
     1
176
     1
 91
        4
176
     1
 64
     7
176
     1
 65
   257
176
     1
 75
     1
176
     1
175
     1
176
     1
 42
1.0
176
     1
 92
        8
176
     1
 66
     7
176
     1
 43
1.0
176
     1
 76
     1
176
     1
 77
     6
176
     1
 78
     2
176
     1
 67
     7
176
     1
 79
     5
176
     1
170
     0
176
     1
171
     0
176
     1
290
     0
176
     1
 93
        1
176
     1
 44
0.0
176
     1
173
     0
176
     1
  0
VISUALSTYLE
  5
2B
102
{ACAD_REACTORS
330
2A
102
}
330
2A
100
AcDbVisualStyle
  2
Flat
 70
     0
177
     2
291
     1
 71
     2
176
     1
 72
     1
176
     1
 73
     1
176
     1
 90
        2
176
     1
 40
-0.6
176
     1
 41
30.0
176
     1
 62
     5
 63
     7
421
 16777215
176
     1
 74
     0
176
     1
 91
        4
176
     1
 64
     7
176
     1
 65
   257
176
     1
 75
     1
176
     1
175
     1
176
     1
 42
1.0
176
     1
 92
        8
176
     1
 66
     7
176
     1
 43
1.0
176
     1
 76
     1
176
     1
 77
     6
176
     1
 78
     2
176
     1
 67
     7
176
     1
 79
     5
176
     1
170
     0
176
     1
171
     0
176
     1
290
     0
176
     1
 93
       13
176
     1
 44
0.0
176
     1
173
     0
176
     1
  0
VISUALSTYLE
  5
2C
102
{ACAD_REACTORS
330
2A
102
}
330
2A
100
AcDbVisualStyle
  2
FlatWithEdges
 70
     1
177
     2
291
     1
 71
     2
176
     1
 72
     1
176
     1
 73
     1
176
     1
 90
        2
176
     1
 40
-0.6
176
     1
 41
30.0
176
     1
 62
     5
 63
     7
421
 16777215
176
     1
 74
     1
176
     1
 91
        4
176
     1
 64
     7
176
     1
 65
   257
176
     1
 75
     1
176
     1
175
     1
176
     1
 42
1.0
176
     1
 92
        0
176
     1
 66
   257
176
     1
 43
1.0
176
     1
 76
     1
176
     1
 77
     6
176
     1
 78
     2
176
     1
 67
     7
176
     1
 79
     5
176
     1
170
     0
176
     1
171
     0
176
     1
290
     0
176
     1
 93
       13
176
     1
 44
0.0
176
     1
173
     0
176
     1
  0
VISUALSTYLE
  5
2D
102
{ACAD_REACTORS
330
2A
102
}
330
2A
100
AcDbVisualStyle
  2
Gouraud
 70
     2
177
     2
291
     1
 71
     2
176
     1
 72
     2
176
     1
 73
     1
176
     1
 90
        2
176
     1
 40
-0.6
176
     1
 41
30.0
176
     1
 62
     5
 63
     7
421
 16777215
176
     1
 74
     0
176
     1
 91
        4
176
     1
 64
     7
176
     1
 65
   257
176
     1
 75
     1
176
     1
175
     1
176
     1
 42
1.0
176
     1
 92
        0
176
     1
 66
     7
176
     1
 43
1.0
176
     1
 76
     1
176
     1
 77
     6
176
     1
 78
     2
176
     1
 67
     7
176
     1
 79
     5
176
     1
170
     0
176
     1
171
     0
176
     1
290
     0
176
     1
 93
       13
176
     1
 44
0.0
176
     1
173
     0
176
     1
  0
VISUALSTYLE
  5
2E
102
{ACAD_REACTORS
330
2A
102
}
330
2A
100
AcDbVisualStyle
  2
GouraudWithEdges
 70
     3
177
     2
291
     1
 71
     2
176
     1
 72
     2
176
     1
 73
     1
176
     1
 90
        2
176
     1
 40
-0.6
176
     1
 41
30.0
176
     1
 62
     5
 63
     7
421
 16777215
176
     1
 74
     1
176
     1
 91
        4
176
     1
 64
     7
176
     1
 65
   257
176
     1
 75
     1
176
     1
175
     1
176
     1
 42
1.0
176
     1
 92
        0
176
     1
 66
   257
176
     1
 43
1.0
176
     1
 76
     1
176
     1
 77
     6
176
     1
 78
     2
176
     1
 67
     7
176
     1
 79
     5
176
     1
170
     0
176
     1
171
     0
176
     1
290
     0
176
     1
 93
       13
176
     1
 44
0.0
176
     1
173
     0
176
     1
  0
VISUALSTYLE
  5
38
102
{ACAD_REACTORS
330
2A
102
}
330
2A
100
AcDbVisualStyle
  2
Linepattern
 70
    14
177
     2
291
     1
 71
     2
176
     1
 72
     2
176
     1
 73
     0
176
     1
 90
        0
176
     1
 40
-0.6
176
     1
 41
-30.0
176
     1
 62
     5
 63
     7
421
 16777215
176
     1
 74
     1
176
     1
 91
        4
176
     1
 64
     7
176
     1
 65
   257
176
     1
 75
     7
176
     1
175
     7
176
     1
 42
1.0
176
     1
 92
        8
176
     1
 66
     7
176
     1
 43
1.0
176
     1
 76
     1
176
     1
 77
     6
176
     1
 78
     2
176
     1
 67
     7
176
     1
 79
     5
176
     1
170
     0
176
     1
171
     0
176
     1
290
     0
176
     1
 93
        1
176
     1
 44
0.0
176
     1
173
     0
176
     1
  0
VISUALSTYLE
  5
33
102
{ACAD_REACTORS
330
2A
102
}
330
2A
100
AcDbVisualStyle
  2
Realistic
 70
     8
177
     2
291
     0
 71
     2
176
     1
 72
     2
176
     1
 73
     0
176
     1
 90
        0
176
     1
 40
-0.6
176
     1
 41
-30.0
176
     1
 62
     5
 63
     7
421
 16777215
176
     1
 74
     1
176
     1
 91
        0
176
     1
 64
     7
176
     1
 65
   257
176
     1
 75
     1
176
     1
175
     1
176
     1
 42
1.0
176
     1
 92
        8
176
     1
 66
     8
424
  7895160
176
     1
 43
1.0
176
     1
 76
     1
176
     1
 77
     6
176
     1
 78
     2
176
     1
 67
     7
176
     1
 79
     5
176
     1
170
     0
176
     1
171
     0
176
     1
290
     0
176
     1
 93
       13
176
     1
 44
0.0
176
     1
173
     0
176
     1
  0
VISUALSTYLE
  5
37
102
{ACAD_REACTORS
330
2A
102
}
330
2A
100
AcDbVisualStyle
  2
Thicken
 70
    13
177
     2
291
     1
 71
     2
176
     1
 72
     2
176
     1
 73
     0
176
     1
 90
        0
176
     1
 40
-0.6
176
     1
 41
-30.0
176
     1
 62
     5
 63
     7
421
 16777215
176
     1
 74
     1
176
     1
 91
        4
176
     1
 64
     7
176
     1
 65
   257
176
     1
 75
     1
176
     1
175
     1
176
     1
 42
1.0
176
     1
 92
       12
176
     1
 66
     7
176
     1
 43
1.0
176
     1
 76
     1
176
     1
 77
     6
176
     1
 78
     2
176
     1
 67
     7
176
     1
 79
     5
176
     1
170
     0
176
     1
171
     0
176
     1
290
     0
176
     1
 93
        1
176
     1
 44
0.0
176
     1
173
     0
176
     1
  0
ENDSEC
  0
EOF
