  0
SECTION
  2
HEADER
  9
$ACADVER
  1
AC1024
  9
$ACADMAINTVER
 70
     6
  9
$DWGCODEPAGE
  3
ANSI_1252
  9
$INSBASE
 10
0.0
 20
0.0
 30
0.0
  9
$EXTMIN
 10
1.000000000000000E+20
 20
1.000000000000000E+20
 30
1.000000000000000E+20
  9
$EXTMAX
 10
-1.000000000000000E+20
 20
-1.000000000000000E+20
 30
-1.000000000000000E+20
  9
$LIMMIN
 10
0.0
 20
0.0
  9
$LIMMAX
 10
12.0
 20
9.0
  9
$ORTHOMODE
 70
     0
  9
$REGENMODE
 70
     1
  9
$FILLMODE
 70
     1
  9
$QTEXTMODE
 70
     0
  9
$MIRRTEXT
 70
     1
  9
$LTSCALE
 40
1.0
  9
$ATTMODE
 70
     1
  9
$TEXTSIZE
 40
0.2
  9
$TRACEWID
 40
0.05
  9
$TEXTSTYLE
  7
Standard
  9
$CLAYER
  8
0
  9
$CELTYPE
  6
ByLayer
  9
$CECOLOR
 62
   256
  9
$CELTSCALE
 40
1.0
  9
$DISPSILH
 70
     0
  9
$DIMSCALE
 40
1.0
  9
$DIMASZ
 40
0.18
  9
$DIMEXO
 40
0.0625
  9
$DIMDLI
 40
0.38
  9
$DIMRND
 40
0.0
  9
$DIMDLE
 40
0.0
  9
$DIMEXE
 40
0.18
  9
$DIMTP
 40
0.0
  9
$DIMTM
 40
0.0
  9
$DIMTXT
 40
0.18
  9
$DIMCEN
 40
0.09
  9
$DIMTSZ
 40
0.0
  9
$DIMTOL
 70
     0
  9
$DIMLIM
 70
     0
  9
$DIMTIH
 70
     1
  9
$DIMTOH
 70
     1
  9
$DIMSE1
 70
     0
  9
$DIMSE2
 70
     0
  9
$DIMTAD
 70
     0
  9
$DIMZIN
 70
     0
  9
$DIMBLK
  1

  9
$DIMASO
 70
     1
  9
$DIMSHO
 70
     1
  9
$DIMPOST
  1

  9
$DIMAPOST
  1

  9
$DIMALT
 70
     0
  9
$DIMALTD
 70
     2
  9
$DIMALTF
 40
25.4
  9
$DIMLFAC
 40
1.0
  9
$DIMTOFL
 70
     0
  9
$DIMTVP
 40
0.0
  9
$DIMTIX
 70
     0
  9
$DIMSOXD
 70
     0
  9
$DIMSAH
 70
     0
  9
$DIMBLK1
  1

  9
$DIMBLK2
  1

  9
$DIMSTYLE
  2
Standard
  9
$DIMCLRD
 70
     0
  9
$DIMCLRE
 70
     0
  9
$DIMCLRT
 70
     0
  9
$DIMTFAC
 40
1.0
  9
$DIMGAP
 40
0.09
  9
$DIMJUST
 70
     0
  9
$DIMSD1
 70
     0
  9
$DIMSD2
 70
     0
  9
$DIMTOLJ
 70
     1
  9
$DIMTZIN
 70
     0
  9
$DIMALTZ
 70
     0
  9
$DIMALTTZ
 70
     0
  9
$DIMUPT
 70
     0
  9
$DIMDEC
 70
     4
  9
$DIMTDEC
 70
     4
  9
$DIMALTU
 70
     2
  9
$DIMALTTD
 70
     2
  9
$DIMTXSTY
  7
Standard
  9
$DIMAUNIT
 70
     0
  9
$DIMADEC
 70
     0
  9
$DIMALTRND
 40
0.0
  9
$DIMAZIN
 70
     0
  9
$DIMDSEP
 70
    46
  9
$DIMATFIT
 70
     3
  9
$DIMFRAC
 70
     0
  9
$DIMLDRBLK
  1

  9
$DIMLUNIT
 70
     2
  9
$DIMLWD
 70
    -2
  9
$DIMLWE
 70
    -2
  9
$DIMTMOVE
 70
     0
  9
$DIMFXL
 40
1.0
  9
$DIMFXLON
 70
     0
  9
$DIMJOGANG
 40
0.7853981633974483
  9
$DIMTFILL
 70
     0
  9
$DIMTFILLCLR
 70
     0
  9
$DIMARCSYM
 70
     0
  9
$DIMLTYPE
  6

  9
$DIMLTEX1
  6

  9
$DIMLTEX2
  6

  9
$DIMTXTDIRECTION
 70
     0
  9
$LUNITS
 70
     2
  9
$LUPREC
 70
     4
  9
$SKETCHINC
 40
0.1
  9
$FILLETRAD
 40
0.5
  9
$AUNITS
 70
     0
  9
$AUPREC
 70
     0
  9
$MENU
  1
.
  9
$ELEVATION
 40
0.0
  9
$PELEVATION
 40
0.0
  9
$THICKNESS
 40
0.0
  9
$LIMCHECK
 70
     0
  9
$CHAMFERA
 40
0.5
  9
$CHAMFERB
 40
0.5
  9
$CHAMFERC
 40
1.0
  9
$CHAMFERD
 40
0.0
  9
$SKPOLY
 70
     0
  9
$TDCREATE
 40
2459346.850766771
  9
$TDUCREATE
 40
2459347.059100104
  9
$TDUPDATE
 40
2459346.850766794
  9
$TDUUPDATE
 40
2459347.059100127
  9
$TDINDWG
 40
0.0000000116
  9
$TDUSRTIMER
 40
0.0000000116
  9
$USRTIMER
 70
     1
  9
$ANGBASE
 50
0.0
  9
$ANGDIR
 70
     0
  9
$PDMODE
 70
     0
  9
$PDSIZE
 40
0.0
  9
$PLINEWID
 40
0.0
  9
$SPLFRAME
 70
     0
  9
$SPLINETYPE
 70
     6
  9
$SPLINESEGS
 70
     8
  9
$HANDSEED
  5
45
  9
$SURFTAB1
 70
     6
  9
$SURFTAB2
 70
     6
  9
$SURFTYPE
 70
     6
  9
$SURFU
 70
     6
  9
$SURFV
 70
     6
  9
$UCSBASE
  2

  9
$UCSNAME
  2

  9
$UCSORG
 10
0.0
 20
0.0
 30
0.0
  9
$UCSXDIR
 10
1.0
 20
0.0
 30
0.0
  9
$UCSYDIR
 10
0.0
 20
1.0
 30
0.0
  9
$UCSORTHOREF
  2

  9
$UCSORTHOVIEW
 70
     0
  9
$UCSORGTOP
 10
0.0
 20
0.0
 30
0.0
  9
$UCSORGBOTTOM
 10
0.0
 20
0.0
 30
0.0
  9
$UCSORGLEFT
 10
0.0
 20
0.0
 30
0.0
  9
$UCSORGRIGHT
 10
0.0
 20
0.0
 30
0.0
  9
$UCSORGFRONT
 10
0.0
 20
0.0
 30
0.0
  9
$UCSORGBACK
 10
0.0
 20
0.0
 30
0.0
  9
$PUCSBASE
  2

  9
$PUCSNAME
  2

  9
$PUCSORG
 10
0.0
 20
0.0
 30
0.0
  9
$PUCSXDIR
 10
1.0
 20
0.0
 30
0.0
  9
$PUCSYDIR
 10
0.0
 20
1.0
 30
0.0
  9
$PUCSORTHOREF
  2

  9
$PUCSORTHOVIEW
 70
     0
  9
$PUCSORGTOP
 10
0.0
 20
0.0
 30
0.0
  9
$PUCSORGBOTTOM
 10
0.0
 20
0.0
 30
0.0
  9
$PUCSORGLEFT
 10
0.0
 20
0.0
 30
0.0
  9
$PUCSORGRIGHT
 10
0.0
 20
0.0
 30
0.0
  9
$PUCSORGFRONT
 10
0.0
 20
0.0
 30
0.0
  9
$PUCSORGBACK
 10
0.0
 20
0.0
 30
0.0
  9
$USERI1
 70
     0
  9
$USERI2
 70
     0
  9
$USERI3
 70
     0
  9
$USERI4
 70
     0
  9
$USERI5
 70
     0
  9
$USERR1
 40
0.0
  9
$USERR2
 40
0.0
  9
$USERR3
 40
0.0
  9
$USERR4
 40
0.0
  9
$USERR5
 40
0.0
  9
$WORLDVIEW
 70
     1
  9
$SHADEDGE
 70
     3
  9
$SHADEDIF
 70
    70
  9
$TILEMODE
 70
     1
  9
$MAXACTVP
 70
    64
  9
$PINSBASE
 10
0.0
 20
0.0
 30
0.0
  9
$PLIMCHECK
 70
     0
  9
$PEXTMIN
 10
1.000000000000000E+20
 20
1.000000000000000E+20
 30
1.000000000000000E+20
  9
$PEXTMAX
 10
-1.000000000000000E+20
 20
-1.000000000000000E+20
 30
-1.000000000000000E+20
  9
$PLIMMIN
 10
0.0
 20
0.0
  9
$PLIMMAX
 10
12.0
 20
9.0
  9
$UNITMODE
 70
     0
  9
$VISRETAIN
 70
     1
  9
$PLINEGEN
 70
     0
  9
$PSLTSCALE
 70
     1
  9
$TREEDEPTH
 70
  3020
  9
$CMLSTYLE
  2
Standard
  9
$CMLJUST
 70
     0
  9
$CMLSCALE
 40
1.0
  9
$PROXYGRAPHICS
 70
     1
  9
$MEASUREMENT
 70
     0
  9
$CELWEIGHT
370
    -1
  9
$ENDCAPS
280
     0
  9
$JOINSTYLE
280
     0
  9
$LWDISPLAY
290
     1
  9
$INSUNITS
 70
     0
  9
$HYPERLINKBASE
  1

  9
$STYLESHEET
  1

  9
$XEDIT
290
     1
  9
$CEPSNTYPE
380
     0
  9
$PSTYLEMODE
290
     1
  9
$FINGERPRINTGUID
  2
{6797238A-DFEE-45E0-9A82-7248E6C66BE4}
  9
$VERSIONGUID
  2
{FAEB1C32-E019-11D5-929B-00C0DF256EC4}
  9
$EXTNAMES
290
     1
  9
$PSVPSCALE
 40
0.0
  9
$OLESTARTUP
290
     0
  9
$SORTENTS
280
   127
  9
$INDEXCTL
280
     0
  9
$HIDETEXT
280
     1
  9
$XCLIPFRAME
280
     2
  9
$HALOGAP
280
     0
  9
$OBSCOLOR
 70
   257
  9
$OBSLTYPE
280
     0
  9
$INTERSECTIONDISPLAY
280
     0
  9
$INTERSECTIONCOLOR
 70
   257
  9
$DIMASSOC
280
     2
  9
$PROJECTNAME
  1

  9
$CAMERADISPLAY
290
     0
  9
$LENSLENGTH
 40
50.0
  9
$CAMERAHEIGHT
 40
0.0
  9
$STEPSPERSEC
 40
2.0
  9
$STEPSIZE
 40
6.0
  9
$3DDWFPREC
 40
2.0
  9
$PSOLWIDTH
 40
0.25
  9
$PSOLHEIGHT
 40
4.0
  9
$LOFTANG1
 40
1.570796326794897
  9
$LOFTANG2
 40
1.570796326794897
  9
$LOFTMAG1
 40
0.0
  9
$LOFTMAG2
 40
0.0
  9
$LOFTPARAM
 70
     7
  9
$LOFTNORMALS
280
     1
  9
$LATITUDE
 40
37.795
  9
$LONGITUDE
 40
-122.394
  9
$NORTHDIRECTION
 40
0.0
  9
$TIMEZONE
 70
 -8000
  9
$LIGHTGLYPHDISPLAY
280
     1
  9
$TILEMODELIGHTSYNCH
280
     1
  9
$CMATERIAL
347
3C
  9
$SOLIDHIST
280
     1
  9
$SHOWHIST
280
     1
  9
$DWFFRAME
280
     2
  9
$DGNFRAME
280
     2
  9
$REALWORLDSCALE
290
     1
  9
$INTERFERECOLOR
 62
   256
  9
$CSHADOW
280
     0
  9
$SHADOWPLANELOCATION
 40
0.0
  0
ENDSEC
  0
SECTION
  2
CLASSES
  0
CLASS
  1
ACDBDICTIONARYWDFLT
  2
AcDbDictionaryWithDefault
  3
ObjectDBX Classes
 90
        0
 91
        4
280
     0
281
     0
  0
CLASS
  1
VISUALSTYLE
  2
AcDbVisualStyle
  3
ObjectDBX Classes
 90
     4095
 91
        4
280
     0
281
     0
  0
CLASS
  1
MATERIAL
  2
AcDbMaterial
  3
ObjectDBX Classes
 90
     1153
 91
        4
280
     0
281
     0
  0
CLASS
  1
SUN
  2
AcDbSun
  3
SCENEOE
 90
     1024
 91
        4
280
     0
281
     0
  0
ENDSEC
  0
SECTION
  2
TABLES
  0
TABLE
  2
VPORT
  5
8
330
0
100
AcDbSymbolTable
 70
     1
  0
VPORT
  5
29
330
8
100
AcDbSymbolTableRecord
100
AcDbViewportTableRecord
  2
*Active
 70
     0
 10
0.0
 20
0.0
 11
1.0
 21
1.0
 12
0.0
 22
0.0
 13
0.0
 23
0.0
 14
0.5
 24
0.5
 15
0.5
 25
0.5
 16
0.0
 26
0.0
 36
1.0
 17
540.0
 27
-540.0
 37
0.0
 40
1080.0
 41
1.0
 42
50.0
 43
0.0
 44
0.0
 50
0.0
 51
0.0
 71
     0
 72
   100
 73
     1
 74
     3
 75
     0
 76
     0
 77
     0
 78
     0
281
     0
 65
     1
110
0.0
120
0.0
130
0.0
111
1.0
121
0.0
131
0.0
112
0.0
122
1.0
132
0.0
 79
     0
146
0.0
 60
     3
 61
     5
292
     1
282
     1
141
0.0
142
0.0
 63
   250
361
3F
  0
ENDTAB
  0
TABLE
  2
LTYPE
  5
5
330
0
100
AcDbSymbolTable
 70
     1
  0
LTYPE
  5
14
330
5
100
AcDbSymbolTableRecord
100
AcDbLinetypeTableRecord
  2
ByBlock
 70
     0
  3

 72
    65
 73
     0
 40
0.0
  0
LTYPE
  5
15
330
5
100
AcDbSymbolTableRecord
100
AcDbLinetypeTableRecord
  2
ByLayer
 70
     0
  3

 72
    65
 73
     0
 40
0.0
  0
LTYPE
  5
16
330
5
100
AcDbSymbolTableRecord
100
AcDbLinetypeTableRecord
  2
Continuous
 70
     0
  3
Solid line
 72
    65
 73
     0
 40
0.0
  0
ENDTAB
  0
TABLE
  2
LAYER
  5
2
330
0
100
AcDbSymbolTable
 70
     2
  0
LAYER
  5
10
330
2
100
AcDbSymbolTableRecord
100
AcDbLayerTableRecord
  2
0
 70
     0
 62
     7
  6
Continuous
370
    -3
390
F
347
3E
  0
LAYER
  5
40
330
2
100
AcDbSymbolTableRecord
100
AcDbLayerTableRecord
  2
TH_GREEN
 70
     0
 62
     7
  6
Continuous
370
    -3
390
F
347
3E
  0
ENDTAB
  0
TABLE
  2
STYLE
  5
3
330
0
100
AcDbSymbolTable
 70
     1
  0
STYLE
  5
11
330
3
100
AcDbSymbolTableRecord
100
AcDbTextStyleTableRecord
  2
Standard
 70
     0
 40
0.0
 41
1.0
 50
0.0
 71
     0
 42
0.2
  3
txt
  4

  0
ENDTAB
  0
TABLE
  2
VIEW
  5
6
330
0
100
AcDbSymbolTable
 70
     0
  0
ENDTAB
  0
TABLE
  2
UCS
  5
7
330
0
100
AcDbSymbolTable
 70
     0
  0
ENDTAB
  0
TABLE
  2
APPID
  5
9
330
0
100
AcDbSymbolTable
 70
     1
  0
APPID
  5
12
330
9
100
AcDbSymbolTableRecord
100
AcDbRegAppTableRecord
  2
ACAD
 70
     0
  0
ENDTAB
  0
TABLE
  2
DIMSTYLE
  5
A
330
0
100
AcDbSymbolTable
 70
     1
100
AcDbDimStyleTable
  0
DIMSTYLE
105
27
330
A
100
AcDbSymbolTableRecord
100
AcDbDimStyleTableRecord
  2
Standard
 70
     0
178
     0
340
11
  0
ENDTAB
  0
TABLE
  2
BLOCK_RECORD
  5
1
330
0
100
AcDbSymbolTable
 70
     1
  0
BLOCK_RECORD
  5
1F
330
1
100
AcDbSymbolTableRecord
100
AcDbBlockTableRecord
  2
*Model_Space
340
22
 70
     0
280
     1
281
     0
  0
BLOCK_RECORD
  5
1B
330
1
100
AcDbSymbolTableRecord
100
AcDbBlockTableRecord
  2
*Paper_Space
340
1E
 70
     0
280
     1
281
     0
  0
BLOCK_RECORD
  5
23
330
1
100
AcDbSymbolTableRecord
100
AcDbBlockTableRecord
  2
*Paper_Space0
340
26
 70
     0
280
     1
281
     0
  0
ENDTAB
  0
ENDSEC
  0
SECTION
  2
BLOCKS
  0
BLOCK
  5
20
330
1F
100
AcDbEntity
  8
0
100
AcDbBlockBegin
  2
*Model_Space
 70
     0
 10
0.0
 20
0.0
 30
0.0
  3
*Model_Space
  1

  0
ENDBLK
  5
21
330
1F
100
AcDbEntity
  8
0
100
AcDbBlockEnd
  0
BLOCK
  5
1C
330
1B
100
AcDbEntity
 67
     1
  8
0
100
AcDbBlockBegin
  2
*Paper_Space
 70
     0
 10
0.0
 20
0.0
 30
0.0
  3
*Paper_Space
  1

  0
ENDBLK
  5
1D
330
1B
100
AcDbEntity
 67
     1
  8
0
100
AcDbBlockEnd
  0
BLOCK
  5
24
330
23
100
AcDbEntity
  8
0
100
AcDbBlockBegin
  2
*Paper_Space0
 70
     0
 10
0.0
 20
0.0
 30
0.0
  3
*Paper_Space0
  1

  0
ENDBLK
  5
25
330
23
100
AcDbEntity
  8
0
100
AcDbBlockEnd
  0
ENDSEC
  0
SECTION
  2
ENTITIES
  0
SPLINE
  5
41
330
1F
100
AcDbEntity
  8
TH_GREEN
370
     0
100
AcDbSpline
210
0.0
220
0.0
230
1.0
 70
    11
 71
     3
 72
   284
 73
   280
 74
     0
 42
0.0000000001
 43
0.0000000001
 12
1.0
 22
0.0
 32
0.0
 13
1.0
 23
0.0
 33
0.0
 40
0.0
 40
0.0
 40
0.0
 40
0.0
 40
1.0
 40
1.0
 40
1.0
 40
2.0
 40
2.0
 40
2.0
 40
3.0
 40
3.0
 40
3.0
 40
4.0
 40
4.0
 40
4.0
 40
5.0
 40
5.0
 40
5.0
 40
6.0
 40
6.0
 40
6.0
 40
7.0
 40
7.0
 40
7.0
 40
8.0
 40
8.0
 40
8.0
 40
9.0
 40
9.0
 40
9.0
 40
10.0
 40
10.0
 40
10.0
 40
11.0
 40
11.0
 40
11.0
 40
12.0
 40
12.0
 40
12.0
 40
13.0
 40
13.0
 40
13.0
 40
14.0
 40
14.0
 40
14.0
 40
15.0
 40
15.0
 40
15.0
 40
16.0
 40
16.0
 40
16.0
 40
17.0
 40
17.0
 40
17.0
 40
18.0
 40
18.0
 40
18.0
 40
19.0
 40
19.0
 40
19.0
 40
20.0
 40
20.0
 40
20.0
 40
21.0
 40
21.0
 40
21.0
 40
22.0
 40
22.0
 40
22.0
 40
23.0
 40
23.0
 40
23.0
 40
24.0
 40
24.0
 40
24.0
 40
25.0
 40
25.0
 40
25.0
 40
26.0
 40
26.0
 40
26.0
 40
27.0
 40
27.0
 40
27.0
 40
28.0
 40
28.0
 40
28.0
 40
29.0
 40
29.0
 40
29.0
 40
30.0
 40
30.0
 40
30.0
 40
31.0
 40
31.0
 40
31.0
 40
32.0
 40
32.0
 40
32.0
 40
33.0
 40
33.0
 40
33.0
 40
34.0
 40
34.0
 40
34.0
 40
35.0
 40
35.0
 40
35.0
 40
36.0
 40
36.0
 40
36.0
 40
37.0
 40
37.0
 40
37.0
 40
38.0
 40
38.0
 40
38.0
 40
39.0
 40
39.0
 40
39.0
 40
40.0
 40
40.0
 40
40.0
 40
41.0
 40
41.0
 40
41.0
 40
42.0
 40
42.0
 40
42.0
 40
43.0
 40
43.0
 40
43.0
 40
44.0
 40
44.0
 40
44.0
 40
45.0
 40
45.0
 40
45.0
 40
46.0
 40
46.0
 40
46.0
 40
47.0
 40
47.0
 40
47.0
 40
48.0
 40
48.0
 40
48.0
 40
49.0
 40
49.0
 40
49.0
 40
50.0
 40
50.0
 40
50.0
 40
51.0
 40
51.0
 40
51.0
 40
52.0
 40
52.0
 40
52.0
 40
53.0
 40
53.0
 40
53.0
 40
54.0
 40
54.0
 40
54.0
 40
55.0
 40
55.0
 40
55.0
 40
56.0
 40
56.0
 40
56.0
 40
57.0
 40
57.0
 40
57.0
 40
58.0
 40
58.0
 40
58.0
 40
59.0
 40
59.0
 40
59.0
 40
60.0
 40
60.0
 40
60.0
 40
61.0
 40
61.0
 40
61.0
 40
62.0
 40
62.0
 40
62.0
 40
63.0
 40
63.0
 40
63.0
 40
64.0
 40
64.0
 40
64.0
 40
65.0
 40
65.0
 40
65.0
 40
66.0
 40
66.0
 40
66.0
 40
67.0
 40
67.0
 40
67.0
 40
68.0
 40
68.0
 40
68.0
 40
69.0
 40
69.0
 40
69.0
 40
70.0
 40
70.0
 40
70.0
 40
71.0
 40
71.0
 40
71.0
 40
72.0
 40
72.0
 40
72.0
 40
73.0
 40
73.0
 40
73.0
 40
74.0
 40
74.0
 40
74.0
 40
75.0
 40
75.0
 40
75.0
 40
76.0
 40
76.0
 40
76.0
 40
77.0
 40
77.0
 40
77.0
 40
78.0
 40
78.0
 40
78.0
 40
79.0
 40
79.0
 40
79.0
 40
80.0
 40
80.0
 40
80.0
 40
81.0
 40
81.0
 40
81.0
 40
82.0
 40
82.0
 40
82.0
 40
83.0
 40
83.0
 40
83.0
 40
84.0
 40
84.0
 40
84.0
 40
85.0
 40
85.0
 40
85.0
 40
86.0
 40
86.0
 40
86.0
 40
87.0
 40
87.0
 40
87.0
 40
88.0
 40
88.0
 40
88.0
 40
89.0
 40
89.0
 40
89.0
 40
90.0
 40
90.0
 40
90.0
 40
91.0
 40
91.0
 40
91.0
 40
92.0
 40
92.0
 40
92.0
 40
93.0
 40
93.0
 40
93.0
 40
93.0
 10
757.5
 20
-348.219970703125
 30
0.0
 10
755.239990234375
 20
-378.3399658203134
 30
0.0
 10
738.0
 20
-406.3499755859384
 30
0.0
 10
706.27001953125
 20
-431.489990234375
 30
0.0
 10
705.6699829101562
 20
-434.3800048828134
 30
0.0
 10
702.239990234375
 20
-448.8099975585938
 30
0.0
 10
692.1400146484375
 20
-456.8499755859384
 30
0.0
 10
691.6900024414062
 20
-462.2000122070312
 30
0.0
 10
691.3099975585938
 20
-468.6400146484384
 30
0.0
 10
691.2999877929688
 20
-475.3099975585938
 30
0.0
 10
691.8599853515625
 20
-477.5999755859384
 30
0.0
 10
696.5700073242188
 20
-499.3399658203134
 30
0.0
 10
680.8900146484375
 20
-520.2899780273438
 30
0.0
 10
669.219970703125
 20
-535.8800048828125
 30
0.0
 10
649.6199951171875
 20
-546.75
 30
0.0
 10
622.3800048828125
 20
-552.7999877929688
 30
0.0
 10
621.2899780273438
 20
-555.6099853515625
 30
0.0
 10
617.0700073242188
 20
-567.6300048828125
 30
0.0
 10
617.8699951171875
 20
-584.7999877929688
 30
0.0
 10
634.760009765625
 20
-602.3900146484375
 30
0.0
 10
655.4500122070312
 20
-632.0999755859375
 30
0.0
 10
664.6799926757812
 20
-677.6799926757812
 30
0.0
 10
665.0800170898438
 20
-678.0199584960938
 30
0.0
 10
665.489990234375
 20
-678.3399658203125
 30
0.0
 10
665.9000244140625
 20
-678.6900024414062
 30
0.0
 10
666.1599731445312
 20
-678.9099731445312
 30
0.0
 10
666.3200073242188
 20
-679.2099609375
 30
0.0
 10
666.3499755859375
 20
-679.5499877929688
 30
0.0
 10
666.4000244140625
 20
-680.0399780273438
 30
0.0
 10
667.469970703125
 20
-691.5700073242188
 30
0.0
 10
659.77001953125
 20
-701.97998046875
 30
0.0
 10
659.239990234375
 20
-703.8099975585938
 30
0.0
 10
655.3099975585938
 20
-717.22998046875
 30
0.0
 10
651.719970703125
 20
-729.9400024414062
 30
0.0
 10
651.6799926757812
 20
-730.0700073242188
 30
0.0
 10
648.2899780273438
 20
-741.8299560546875
 30
0.0
 10
648.219970703125
 20
-754.8800048828125
 30
0.0
 10
648.2100219726562
 20
-757.3200073242188
 30
0.0
 10
646.6199951171875
 20
-759.239990234375
 30
0.0
 10
644.3200073242188
 20
-759.739990234375
 30
0.0
 10
652.719970703125
 20
-773.7000122070312
 30
0.0
 10
701.1599731445312
 20
-857.0700073242188
 30
0.0
 10
707.8200073242188
 20
-934.4299926757812
 30
0.0
 10
709.7899780273438
 20
-935.5700073242188
 30
0.0
 10
715.4500122070312
 20
-939.489990234375
 30
0.0
 10
715.4099731445312
 20
-946.5
 30
0.0
 10
715.6500244140625
 20
-947.1599731445312
 30
0.0
 10
716.3599853515625
 20
-949.22998046875
 30
0.0
 10
716.3599853515625
 20
-951.1099853515625
 30
0.0
 10
716.3599853515625
 20
-951.5700073242188
 30
0.0
 10
716.1199951171875
 20
-952.0
 30
0.0
 10
715.719970703125
 20
-952.22998046875
 30
0.0
 10
715.1599731445312
 20
-952.5700073242188
 30
0.0
 10
705.5900268554688
 20
-958.1400146484375
 30
0.0
 10
691.3300170898438
 20
-958.1400146484375
 30
0.0
 10
685.4099731445312
 20
-958.1400146484375
 30
0.0
 10
678.6799926757812
 20
-957.1699829101562
 30
0.0
 10
671.4600219726562
 20
-954.47998046875
 30
0.0
 10
670.0599975585938
 20
-955.0499877929688
 30
0.0
 10
668.5700073242188
 20
-955.3800048828125
 30
0.0
 10
667.0499877929688
 20
-955.4299926757812
 30
0.0
 10
665.72998046875
 20
-955.47998046875
 30
0.0
 10
664.260009765625
 20
-955.510009765625
 30
0.0
 10
662.6799926757812
 20
-955.510009765625
 30
0.0
 10
652.5700073242188
 20
-955.510009765625
 30
0.0
 10
637.969970703125
 20
-954.3200073242188
 30
0.0
 10
629.1900024414062
 20
-948.2799682617188
 30
0.0
 10
625.47998046875
 20
-945.72998046875
 30
0.0
 10
623.3200073242188
 20
-941.3900146484375
 30
0.0
 10
623.4099731445312
 20
-936.6799926757812
 30
0.0
 10
623.8099975585938
 20
-916.3900146484375
 30
0.0
 10
621.3599853515625
 20
-847.8200073242188
 30
0.0
 10
573.7100219726562
 20
-811.5199584960938
 30
0.0
 10
565.75
 20
-827.1900024414062
 30
0.0
 10
561.469970703125
 20
-842.719970703125
 30
0.0
 10
559.3400268554688
 20
-852.5499877929688
 30
0.0
 10
558.4500122070312
 20
-856.6199951171875
 30
0.0
 10
557.8699951171875
 20
-860.8299560546875
 30
0.0
 10
557.5999755859375
 20
-865.0399780273438
 30
0.0
 10
553.6500244140625
 20
-926.6499633789062
 30
0.0
 10
542.4199829101562
 20
-946.8200073242188
 30
0.0
 10
533.7000122070312
 20
-952.8800048828125
 30
0.0
 10
531.02001953125
 20
-954.75
 30
0.0
 10
528.739990234375
 20
-955.1199951171875
 30
0.0
 10
527.3400268554688
 20
-955.1199951171875
 30
0.0
 10
527.0900268554688
 20
-955.1199951171875
 30
0.0
 10
526.8699951171875
 20
-955.1099853515625
 30
0.0
 10
526.6799926757812
 20
-955.0899658203125
 30
0.0
 10
523.8300170898438
 20
-957.75
 30
0.0
 10
520.4199829101562
 20
-959.1900024414062
 30
0.0
 10
520.27001953125
 20
-959.260009765625
 30
0.0
 10
520.2000122070312
 20
-959.2899780273438
 30
0.0
 10
520.1300048828125
 20
-959.3099975585938
 30
0.0
 10
520.0599975585938
 20
-959.3299560546875
 30
0.0
 10
513.739990234375
 20
-960.7799682617188
 30
0.0
 10
507.3699951171884
 20
-961.2999877929688
 30
0.0
 10
501.510009765625
 20
-961.2999877929688
 30
0.0
 10
487.4500122070312
 20
-961.2999877929688
 30
0.0
 10
476.3099975585938
 20
-958.3200073242188
 30
0.0
 10
475.6599731445312
 20
-958.1400146484375
 30
0.0
 10
475.4600219726562
 20
-958.0799560546875
 30
0.0
 10
475.27001953125
 20
-957.97998046875
 30
0.0
 10
475.1199951171884
 20
-957.8399658203125
 30
0.0
 10
472.6500244140634
 20
-955.5700073242188
 30
0.0
 10
471.9299926757812
 20
-952.760009765625
 30
0.0
 10
471.719970703125
 20
-951.5599975585938
 30
0.0
 10
457.4099731445312
 20
-940.3699951171875
 30
0.0
 10
471.1699829101562
 20
-897.7999877929688
 30
0.0
 10
480.72998046875
 20
-873.22998046875
 30
0.0
 10
484.6300048828134
 20
-863.22998046875
 30
0.0
 10
486.0999755859384
 20
-852.2799682617188
 30
0.0
 10
485.0
 20
-841.5599975585938
 30
0.0
 10
480.6799926757812
 20
-799.6199951171875
 30
0.0
 10
479.780029296875
 20
-760.5
 30
0.0
 10
479.6400146484384
 20
-753.4500122070312
 30
0.0
 10
476.4099731445312
 20
-753.0399780273438
 30
0.0
 10
474.5999755859384
 20
-752.7699584960938
 30
0.0
 10
474.510009765625
 20
-752.760009765625
 30
0.0
 10
474.1099853515634
 20
-752.6900024414062
 30
0.0
 10
473.760009765625
 20
-752.4500122070312
 30
0.0
 10
473.5700073242188
 20
-752.0999755859375
 30
0.0
 10
473.3699951171884
 20
-751.739990234375
 30
0.0
 10
473.3499755859384
 20
-751.3200073242188
 30
0.0
 10
473.52001953125
 20
-750.9500122070312
 30
0.0
 10
475.530029296875
 20
-746.3399658203125
 30
0.0
 10
475.8400268554688
 20
-736.3299560546875
 30
0.0
 10
474.4000244140634
 20
-721.989990234375
 30
0.0
 10
473.6300048828134
 20
-714.3699951171875
 30
0.0
 10
472.27001953125
 20
-706.4099731445312
 30
0.0
 10
470.22998046875
 20
-697.6599731445312
 30
0.0
 10
464.989990234375
 20
-675.2000122070312
 30
0.0
 10
463.6799926757812
 20
-641.5999755859375
 30
0.0
 10
463.4199829101562
 20
-632.5499877929688
 30
0.0
 10
423.6599731445312
 20
-658.0399780273438
 30
0.0
 10
394.9299926757812
 20
-674.4500122070312
 30
0.0
 10
392.1199951171884
 20
-676.0499877929688
 30
0.0
 10
390.7899780273438
 20
-677.8499755859375
 30
0.0
 10
382.3499755859384
 20
-688.6599731445312
 30
0.0
 10
369.8099975585938
 20
-691.8900146484375
 30
0.0
 10
368.8599853515634
 20
-693.5499877929688
 30
0.0
 10
365.6799926757812
 20
-698.6499633789062
 30
0.0
 10
360.7999877929688
 20
-701.739990234375
 30
0.0
 10
361.0399780273438
 20
-702.2099609375
 30
0.0
 10
361.2100219726562
 20
-702.75
 30
0.0
 10
361.280029296875
 20
-703.3499755859375
 30
0.0
 10
361.4000244140634
 20
-704.489990234375
 30
0.0
 10
361.1599731445312
 20
-705.6599731445312
 30
0.0
 10
360.5700073242188
 20
-706.72998046875
 30
0.0
 10
357.5800170898438
 20
-712.1599731445312
 30
0.0
 10
354.1500244140634
 20
-715.1900024414062
 30
0.0
 10
350.3699951171884
 20
-715.75
 30
0.0
 10
349.9500122070312
 20
-715.8099975585938
 30
0.0
 10
349.530029296875
 20
-715.8399658203125
 30
0.0
 10
349.1300048828134
 20
-715.8399658203125
 30
0.0
 10
346.1799926757812
 20
-715.8399658203125
 30
0.0
 10
344.010009765625
 20
-714.3099975585938
 30
0.0
 10
343.2100219726562
 20
-713.6400146484375
 30
0.0
 10
342.8900146484384
 20
-713.6799926757812
 30
0.0
 10
342.5700073242188
 20
-713.7099609375
 30
0.0
 10
342.260009765625
 20
-713.7099609375
 30
0.0
 10
342.1300048828134
 20
-713.7099609375
 30
0.0
 10
342.010009765625
 20
-713.7000122070312
 30
0.0
 10
341.8900146484384
 20
-713.7000122070312
 30
0.0
 10
338.77001953125
 20
-713.5499877929688
 30
0.0
 10
336.8300170898438
 20
-711.5499877929688
 30
0.0
 10
336.0399780273438
 20
-710.5399780273438
 30
0.0
 10
335.7000122070312
 20
-710.5700073242188
 30
0.0
 10
335.3599853515634
 20
-710.5999755859375
 30
0.0
 10
335.030029296875
 20
-710.5999755859375
 30
0.0
 10
333.6199951171884
 20
-710.5999755859375
 30
0.0
 10
332.2899780273438
 20
-710.3399658203125
 30
0.0
 10
331.0499877929688
 20
-709.8299560546875
 30
0.0
 10
325.9299926757812
 20
-707.739990234375
 30
0.0
 10
323.7999877929688
 20
-701.969970703125
 30
0.0
 10
323.0399780273438
 20
-699.0799560546875
 30
0.0
 10
318.5599975585938
 20
-701.22998046875
 30
0.0
 10
314.27001953125
 20
-702.6799926757812
 30
0.0
 10
310.260009765625
 20
-703.3800048828125
 30
0.0
 10
309.9000244140634
 20
-703.4400024414062
 30
0.0
 10
309.5499877929688
 20
-703.469970703125
 30
0.0
 10
309.2000122070312
 20
-703.469970703125
 30
0.0
 10
306.8300170898438
 20
-703.469970703125
 30
0.0
 10
304.75
 20
-702.0899658203125
 30
0.0
 10
303.8099975585938
 20
-699.8200073242188
 30
0.0
 10
302.72998046875
 20
-697.22998046875
 30
0.0
 10
303.5599975585938
 20
-694.3900146484375
 30
0.0
 10
305.8599853515634
 20
-692.7799682617188
 30
0.0
 10
308.530029296875
 20
-690.8900146484375
 30
0.0
 10
311.3599853515634
 20
-689.0
 30
0.0
 10
314.27001953125
 20
-687.1499633789062
 30
0.0
 10
318.3300170898438
 20
-684.5799560546875
 30
0.0
 10
321.8200073242188
 20
-681.3599853515625
 30
0.0
 10
324.6400146484384
 20
-677.5799560546875
 30
0.0
 10
331.0700073242188
 20
-668.9599609375
 30
0.0
 10
340.2899780273438
 20
-660.2799682617188
 30
0.0
 10
343.4099731445312
 20
-657.4199829101562
 30
0.0
 10
343.1199951171884
 20
-657.3299560546875
 30
0.0
 10
342.8599853515634
 20
-657.1599731445312
 30
0.0
 10
342.6900024414062
 20
-656.8999633789062
 30
0.0
 10
342.4500122070312
 20
-656.5399780273438
 30
0.0
 10
342.4000244140634
 20
-656.0799560546875
 30
0.0
 10
342.5599975585938
 20
-655.6799926757812
 30
0.0
 10
342.6500244140634
 20
-655.47998046875
 30
0.0
 10
350.719970703125
 20
-636.6799926757812
 30
0.0
 10
369.3099975585938
 20
-636.0799560546875
 30
0.0
 10
410.2000122070312
 20
-594.5299682617188
 30
0.0
 10
435.3200073242188
 20
-571.8800048828125
 30
0.0
 10
450.530029296875
 20
-559.5399780273438
 30
0.0
 10
448.8200073242188
 20
-559.7699584960938
 30
0.0
 10
447.0999755859384
 20
-559.8800048828125
 30
0.0
 10
445.4299926757812
 20
-559.8800048828125
 30
0.0
 10
438.5999755859384
 20
-559.8800048828125
 30
0.0
 10
432.739990234375
 20
-558.3499755859375
 30
0.0
 10
432.3699951171884
 20
-558.260009765625
 30
0.0
 10
432.1799926757812
 20
-558.2099609375
 30
0.0
 10
432.0
 20
-558.1099853515625
 30
0.0
 10
431.8499755859384
 20
-557.97998046875
 30
0.0
 10
421.2100219726562
 20
-548.6400146484375
 30
0.0
 10
415.1300048828134
 20
-533.7999877929688
 30
0.0
 10
412.510009765625
 20
-526.0399780273438
 30
0.0
 10
411.4400024414062
 20
-529.5299682617188
 30
0.0
 10
409.9099731445312
 20
-532.0999755859375
 30
0.0
 10
409.8200073242188
 20
-532.260009765625
 30
0.0
 10
409.6099853515634
 20
-532.6099853515625
 30
0.0
 10
409.25
 20
-532.8399658203125
 30
0.0
 10
408.8400268554688
 20
-532.8800048828125
 30
0.0
 10
408.4299926757812
 20
-532.9199829101562
 30
0.0
 10
408.02001953125
 20
-532.7699584960938
 30
0.0
 10
407.75
 20
-532.469970703125
 30
0.0
 10
388.739990234375
 20
-511.72998046875
 30
0.0
 10
372.9299926757812
 20
-476.1799926757812
 30
0.0
 10
372.25
 20
-474.6499633789062
 30
0.0
 10
370.719970703125
 20
-474.2999877929688
 30
0.0
 10
369.1699829101562
 20
-473.8399658203134
 30
0.0
 10
367.6099853515634
 20
-473.25
 30
0.0
 10
355.8400268554688
 20
-468.7799682617188
 30
0.0
 10
346.6900024414062
 20
-458.2899780273438
 30
0.0
 10
340.4299926757812
 20
-442.0599975585938
 30
0.0
 10
340.2000122070312
 20
-441.4199829101562
 30
0.0
 10
336.0399780273438
 20
-429.97998046875
 30
0.0
 10
337.6900024414062
 20
-418.489990234375
 30
0.0
 10
337.6500244140634
 20
-418.4400024414062
 30
0.0
 10
337.5999755859384
 20
-418.3999633789062
 30
0.0
 10
337.5700073242188
 20
-418.3599853515634
 30
0.0
 10
304.989990234375
 20
-373.7899780273438
 30
0.0
 10
297.030029296875
 20
-329.5499877929688
 30
0.0
 10
313.8900146484384
 20
-286.8599853515634
 30
0.0
 10
327.9000244140634
 20
-251.3900146484384
 30
0.0
 10
356.1099853515634
 20
-225.8099975585938
 30
0.0
 10
371.6699829101562
 20
-213.719970703125
 30
0.0
 10
380.989990234375
 20
-206.489990234375
 30
0.0
 10
389.5999755859384
 20
-198.469970703125
 30
0.0
 10
397.27001953125
 20
-189.8900146484384
 30
0.0
 10
436.4400024414062
 20
-146.0499877929688
 30
0.0
 10
470.8300170898438
 20
-132.8099975585938
 30
0.0
 10
492.7899780273438
 20
-129.4199829101562
 30
0.0
 10
514.1300048828125
 20
-126.1300048828134
 30
0.0
 10
527.9099731445312
 20
-131.0899658203134
 30
0.0
 10
531.0999755859375
 20
-132.4099731445312
 30
0.0
 10
543.5
 20
-124.47998046875
 30
0.0
 10
560.52001953125
 20
-119.6400146484384
 30
0.0
 10
581.989990234375
 20
-117.989990234375
 30
0.0
 10
595.3900146484375
 20
-116.9500122070312
 30
0.0
 10
608.5900268554688
 20
-120.1499633789062
 30
0.0
 10
620.1099853515625
 20
-127.239990234375
 30
0.0
 10
634.7100219726562
 20
-136.219970703125
 30
0.0
 10
654.4400024414062
 20
-152.010009765625
 30
0.0
 10
665.5700073242188
 20
-176.260009765625
 30
0.0
 10
667.9600219726562
 20
-181.47998046875
 30
0.0
 10
669.8499755859375
 20
-186.8599853515634
 30
0.0
 10
671.239990234375
 20
-192.3900146484384
 30
0.0
 10
674.77001953125
 20
-193.1400146484384
 30
0.0
 10
688.0700073242188
 20
-196.989990234375
 30
0.0
 10
702.3800048828125
 20
-214.1300048828134
 30
0.0
 10
711.3499755859375
 20
-224.8699951171884
 30
0.0
 10
721.739990234375
 20
-242.3599853515634
 30
0.0
 10
729.719970703125
 20
-270.2799682617188
 30
0.0
 10
731.75
 20
-272.5199584960938
 30
0.0
 10
760.7100219726562
 20
-305.3099975585938
 30
0.0
 10
757.5
 20
-348.219970703125
 30
0.0
  0
HATCH
  5
42
330
1F
100
AcDbEntity
  8
TH_GREEN
 62
   125
420
  5285513
100
AcDbHatch
 10
0.0
 20
0.0
 30
0.0
210
0.0
220
0.0
230
1.0
  2
SOLID
 70
     1
 71
     0
 91
        1
 92
        1
 93
        1
 72
     4
 94
        3
 73
     0
 74
     1
 95
      284
 96
      280
 40
0.0
 40
0.0
 40
0.0
 40
0.0
 40
1.0
 40
1.0
 40
1.0
 40
2.0
 40
2.0
 40
2.0
 40
3.0
 40
3.0
 40
3.0
 40
4.0
 40
4.0
 40
4.0
 40
5.0
 40
5.0
 40
5.0
 40
6.0
 40
6.0
 40
6.0
 40
7.0
 40
7.0
 40
7.0
 40
8.0
 40
8.0
 40
8.0
 40
9.0
 40
9.0
 40
9.0
 40
10.0
 40
10.0
 40
10.0
 40
11.0
 40
11.0
 40
11.0
 40
12.0
 40
12.0
 40
12.0
 40
13.0
 40
13.0
 40
13.0
 40
14.0
 40
14.0
 40
14.0
 40
15.0
 40
15.0
 40
15.0
 40
16.0
 40
16.0
 40
16.0
 40
17.0
 40
17.0
 40
17.0
 40
18.0
 40
18.0
 40
18.0
 40
19.0
 40
19.0
 40
19.0
 40
20.0
 40
20.0
 40
20.0
 40
21.0
 40
21.0
 40
21.0
 40
22.0
 40
22.0
 40
22.0
 40
23.0
 40
23.0
 40
23.0
 40
24.0
 40
24.0
 40
24.0
 40
25.0
 40
25.0
 40
25.0
 40
26.0
 40
26.0
 40
26.0
 40
27.0
 40
27.0
 40
27.0
 40
28.0
 40
28.0
 40
28.0
 40
29.0
 40
29.0
 40
29.0
 40
30.0
 40
30.0
 40
30.0
 40
31.0
 40
31.0
 40
31.0
 40
32.0
 40
32.0
 40
32.0
 40
33.0
 40
33.0
 40
33.0
 40
34.0
 40
34.0
 40
34.0
 40
35.0
 40
35.0
 40
35.0
 40
36.0
 40
36.0
 40
36.0
 40
37.0
 40
37.0
 40
37.0
 40
38.0
 40
38.0
 40
38.0
 40
39.0
 40
39.0
 40
39.0
 40
40.0
 40
40.0
 40
40.0
 40
41.0
 40
41.0
 40
41.0
 40
42.0
 40
42.0
 40
42.0
 40
43.0
 40
43.0
 40
43.0
 40
44.0
 40
44.0
 40
44.0
 40
45.0
 40
45.0
 40
45.0
 40
46.0
 40
46.0
 40
46.0
 40
47.0
 40
47.0
 40
47.0
 40
48.0
 40
48.0
 40
48.0
 40
49.0
 40
49.0
 40
49.0
 40
50.0
 40
50.0
 40
50.0
 40
51.0
 40
51.0
 40
51.0
 40
52.0
 40
52.0
 40
52.0
 40
53.0
 40
53.0
 40
53.0
 40
54.0
 40
54.0
 40
54.0
 40
55.0
 40
55.0
 40
55.0
 40
56.0
 40
56.0
 40
56.0
 40
57.0
 40
57.0
 40
57.0
 40
58.0
 40
58.0
 40
58.0
 40
59.0
 40
59.0
 40
59.0
 40
60.0
 40
60.0
 40
60.0
 40
61.0
 40
61.0
 40
61.0
 40
62.0
 40
62.0
 40
62.0
 40
63.0
 40
63.0
 40
63.0
 40
64.0
 40
64.0
 40
64.0
 40
65.0
 40
65.0
 40
65.0
 40
66.0
 40
66.0
 40
66.0
 40
67.0
 40
67.0
 40
67.0
 40
68.0
 40
68.0
 40
68.0
 40
69.0
 40
69.0
 40
69.0
 40
70.0
 40
70.0
 40
70.0
 40
71.0
 40
71.0
 40
71.0
 40
72.0
 40
72.0
 40
72.0
 40
73.0
 40
73.0
 40
73.0
 40
74.0
 40
74.0
 40
74.0
 40
75.0
 40
75.0
 40
75.0
 40
76.0
 40
76.0
 40
76.0
 40
77.0
 40
77.0
 40
77.0
 40
78.0
 40
78.0
 40
78.0
 40
79.0
 40
79.0
 40
79.0
 40
80.0
 40
80.0
 40
80.0
 40
81.0
 40
81.0
 40
81.0
 40
82.0
 40
82.0
 40
82.0
 40
83.0
 40
83.0
 40
83.0
 40
84.0
 40
84.0
 40
84.0
 40
85.0
 40
85.0
 40
85.0
 40
86.0
 40
86.0
 40
86.0
 40
87.0
 40
87.0
 40
87.0
 40
88.0
 40
88.0
 40
88.0
 40
89.0
 40
89.0
 40
89.0
 40
90.0
 40
90.0
 40
90.0
 40
91.0
 40
91.0
 40
91.0
 40
92.0
 40
92.0
 40
92.0
 40
93.0
 40
93.0
 40
93.0
 40
93.0
 10
757.5
 20
-348.219970703125
 10
755.239990234375
 20
-378.3399658203134
 10
738.0
 20
-406.3499755859384
 10
706.27001953125
 20
-431.489990234375
 10
705.6699829101562
 20
-434.3800048828134
 10
702.239990234375
 20
-448.8099975585938
 10
692.1400146484375
 20
-456.8499755859384
 10
691.6900024414062
 20
-462.2000122070312
 10
691.3099975585938
 20
-468.6400146484384
 10
691.2999877929688
 20
-475.3099975585938
 10
691.8599853515625
 20
-477.5999755859384
 10
696.5700073242188
 20
-499.3399658203134
 10
680.8900146484375
 20
-520.2899780273438
 10
669.219970703125
 20
-535.8800048828125
 10
649.6199951171875
 20
-546.75
 10
622.3800048828125
 20
-552.7999877929688
 10
621.2899780273438
 20
-555.6099853515625
 10
617.0700073242188
 20
-567.6300048828125
 10
617.8699951171875
 20
-584.7999877929688
 10
634.760009765625
 20
-602.3900146484375
 10
655.4500122070312
 20
-632.0999755859375
 10
664.6799926757812
 20
-677.6799926757812
 10
665.0800170898438
 20
-678.0199584960938
 10
665.489990234375
 20
-678.3399658203125
 10
665.9000244140625
 20
-678.6900024414062
 10
666.1599731445312
 20
-678.9099731445312
 10
666.3200073242188
 20
-679.2099609375
 10
666.3499755859375
 20
-679.5499877929688
 10
666.4000244140625
 20
-680.0399780273438
 10
667.469970703125
 20
-691.5700073242188
 10
659.77001953125
 20
-701.97998046875
 10
659.239990234375
 20
-703.8099975585938
 10
655.3099975585938
 20
-717.22998046875
 10
651.719970703125
 20
-729.9400024414062
 10
651.6799926757812
 20
-730.0700073242188
 10
648.2899780273438
 20
-741.8299560546875
 10
648.219970703125
 20
-754.8800048828125
 10
648.2100219726562
 20
-757.3200073242188
 10
646.6199951171875
 20
-759.239990234375
 10
644.3200073242188
 20
-759.739990234375
 10
652.719970703125
 20
-773.7000122070312
 10
701.1599731445312
 20
-857.0700073242188
 10
707.8200073242188
 20
-934.4299926757812
 10
709.7899780273438
 20
-935.5700073242188
 10
715.4500122070312
 20
-939.489990234375
 10
715.4099731445312
 20
-946.5
 10
715.6500244140625
 20
-947.1599731445312
 10
716.3599853515625
 20
-949.22998046875
 10
716.3599853515625
 20
-951.1099853515625
 10
716.3599853515625
 20
-951.5700073242188
 10
716.1199951171875
 20
-952.0
 10
715.719970703125
 20
-952.22998046875
 10
715.1599731445312
 20
-952.5700073242188
 10
705.5900268554688
 20
-958.1400146484375
 10
691.3300170898438
 20
-958.1400146484375
 10
685.4099731445312
 20
-958.1400146484375
 10
678.6799926757812
 20
-957.1699829101562
 10
671.4600219726562
 20
-954.47998046875
 10
670.0599975585938
 20
-955.0499877929688
 10
668.5700073242188
 20
-955.3800048828125
 10
667.0499877929688
 20
-955.4299926757812
 10
665.72998046875
 20
-955.47998046875
 10
664.260009765625
 20
-955.510009765625
 10
662.6799926757812
 20
-955.510009765625
 10
652.5700073242188
 20
-955.510009765625
 10
637.969970703125
 20
-954.3200073242188
 10
629.1900024414062
 20
-948.2799682617188
 10
625.47998046875
 20
-945.72998046875
 10
623.3200073242188
 20
-941.3900146484375
 10
623.4099731445312
 20
-936.6799926757812
 10
623.8099975585938
 20
-916.3900146484375
 10
621.3599853515625
 20
-847.8200073242188
 10
573.7100219726562
 20
-811.5199584960938
 10
565.75
 20
-827.1900024414062
 10
561.469970703125
 20
-842.719970703125
 10
559.3400268554688
 20
-852.5499877929688
 10
558.4500122070312
 20
-856.6199951171875
 10
557.8699951171875
 20
-860.8299560546875
 10
557.5999755859375
 20
-865.0399780273438
 10
553.6500244140625
 20
-926.6499633789062
 10
542.4199829101562
 20
-946.8200073242188
 10
533.7000122070312
 20
-952.8800048828125
 10
531.02001953125
 20
-954.75
 10
528.739990234375
 20
-955.1199951171875
 10
527.3400268554688
 20
-955.1199951171875
 10
527.0900268554688
 20
-955.1199951171875
 10
526.8699951171875
 20
-955.1099853515625
 10
526.6799926757812
 20
-955.0899658203125
 10
523.8300170898438
 20
-957.75
 10
520.4199829101562
 20
-959.1900024414062
 10
520.27001953125
 20
-959.260009765625
 10
520.2000122070312
 20
-959.2899780273438
 10
520.1300048828125
 20
-959.3099975585938
 10
520.0599975585938
 20
-959.3299560546875
 10
513.739990234375
 20
-960.7799682617188
 10
507.3699951171884
 20
-961.2999877929688
 10
501.510009765625
 20
-961.2999877929688
 10
487.4500122070312
 20
-961.2999877929688
 10
476.3099975585938
 20
-958.3200073242188
 10
475.6599731445312
 20
-958.1400146484375
 10
475.4600219726562
 20
-958.0799560546875
 10
475.27001953125
 20
-957.97998046875
 10
475.1199951171884
 20
-957.8399658203125
 10
472.6500244140634
 20
-955.5700073242188
 10
471.9299926757812
 20
-952.760009765625
 10
471.719970703125
 20
-951.5599975585938
 10
457.4099731445312
 20
-940.3699951171875
 10
471.1699829101562
 20
-897.7999877929688
 10
480.72998046875
 20
-873.22998046875
 10
484.6300048828134
 20
-863.22998046875
 10
486.0999755859384
 20
-852.2799682617188
 10
485.0
 20
-841.5599975585938
 10
480.6799926757812
 20
-799.6199951171875
 10
479.780029296875
 20
-760.5
 10
479.6400146484384
 20
-753.4500122070312
 10
476.4099731445312
 20
-753.0399780273438
 10
474.5999755859384
 20
-752.7699584960938
 10
474.510009765625
 20
-752.760009765625
 10
474.1099853515634
 20
-752.6900024414062
 10
473.760009765625
 20
-752.4500122070312
 10
473.5700073242188
 20
-752.0999755859375
 10
473.3699951171884
 20
-751.739990234375
 10
473.3499755859384
 20
-751.3200073242188
 10
473.52001953125
 20
-750.9500122070312
 10
475.530029296875
 20
-746.3399658203125
 10
475.8400268554688
 20
-736.3299560546875
 10
474.4000244140634
 20
-721.989990234375
 10
473.6300048828134
 20
-714.3699951171875
 10
472.27001953125
 20
-706.4099731445312
 10
470.22998046875
 20
-697.6599731445312
 10
464.989990234375
 20
-675.2000122070312
 10
463.6799926757812
 20
-641.5999755859375
 10
463.4199829101562
 20
-632.5499877929688
 10
423.6599731445312
 20
-658.0399780273438
 10
394.9299926757812
 20
-674.4500122070312
 10
392.1199951171884
 20
-676.0499877929688
 10
390.7899780273438
 20
-677.8499755859375
 10
382.3499755859384
 20
-688.6599731445312
 10
369.8099975585938
 20
-691.8900146484375
 10
368.8599853515634
 20
-693.5499877929688
 10
365.6799926757812
 20
-698.6499633789062
 10
360.7999877929688
 20
-701.739990234375
 10
361.0399780273438
 20
-702.2099609375
 10
361.2100219726562
 20
-702.75
 10
361.280029296875
 20
-703.3499755859375
 10
361.4000244140634
 20
-704.489990234375
 10
361.1599731445312
 20
-705.6599731445312
 10
360.5700073242188
 20
-706.72998046875
 10
357.5800170898438
 20
-712.1599731445312
 10
354.1500244140634
 20
-715.1900024414062
 10
350.3699951171884
 20
-715.75
 10
349.9500122070312
 20
-715.8099975585938
 10
349.530029296875
 20
-715.8399658203125
 10
349.1300048828134
 20
-715.8399658203125
 10
346.1799926757812
 20
-715.8399658203125
 10
344.010009765625
 20
-714.3099975585938
 10
343.2100219726562
 20
-713.6400146484375
 10
342.8900146484384
 20
-713.6799926757812
 10
342.5700073242188
 20
-713.7099609375
 10
342.260009765625
 20
-713.7099609375
 10
342.1300048828134
 20
-713.7099609375
 10
342.010009765625
 20
-713.7000122070312
 10
341.8900146484384
 20
-713.7000122070312
 10
338.77001953125
 20
-713.5499877929688
 10
336.8300170898438
 20
-711.5499877929688
 10
336.0399780273438
 20
-710.5399780273438
 10
335.7000122070312
 20
-710.5700073242188
 10
335.3599853515634
 20
-710.5999755859375
 10
335.030029296875
 20
-710.5999755859375
 10
333.6199951171884
 20
-710.5999755859375
 10
332.2899780273438
 20
-710.3399658203125
 10
331.0499877929688
 20
-709.8299560546875
 10
325.9299926757812
 20
-707.739990234375
 10
323.7999877929688
 20
-701.969970703125
 10
323.0399780273438
 20
-699.0799560546875
 10
318.5599975585938
 20
-701.22998046875
 10
314.27001953125
 20
-702.6799926757812
 10
310.260009765625
 20
-703.3800048828125
 10
309.9000244140634
 20
-703.4400024414062
 10
309.5499877929688
 20
-703.469970703125
 10
309.2000122070312
 20
-703.469970703125
 10
306.8300170898438
 20
-703.469970703125
 10
304.75
 20
-702.0899658203125
 10
303.8099975585938
 20
-699.8200073242188
 10
302.72998046875
 20
-697.22998046875
 10
303.5599975585938
 20
-694.3900146484375
 10
305.8599853515634
 20
-692.7799682617188
 10
308.530029296875
 20
-690.8900146484375
 10
311.3599853515634
 20
-689.0
 10
314.27001953125
 20
-687.1499633789062
 10
318.3300170898438
 20
-684.5799560546875
 10
321.8200073242188
 20
-681.3599853515625
 10
324.6400146484384
 20
-677.5799560546875
 10
331.0700073242188
 20
-668.9599609375
 10
340.2899780273438
 20
-660.2799682617188
 10
343.4099731445312
 20
-657.4199829101562
 10
343.1199951171884
 20
-657.3299560546875
 10
342.8599853515634
 20
-657.1599731445312
 10
342.6900024414062
 20
-656.8999633789062
 10
342.4500122070312
 20
-656.5399780273438
 10
342.4000244140634
 20
-656.0799560546875
 10
342.5599975585938
 20
-655.6799926757812
 10
342.6500244140634
 20
-655.47998046875
 10
350.719970703125
 20
-636.6799926757812
 10
369.3099975585938
 20
-636.0799560546875
 10
410.2000122070312
 20
-594.5299682617188
 10
435.3200073242188
 20
-571.8800048828125
 10
450.530029296875
 20
-559.5399780273438
 10
448.8200073242188
 20
-559.7699584960938
 10
447.0999755859384
 20
-559.8800048828125
 10
445.4299926757812
 20
-559.8800048828125
 10
438.5999755859384
 20
-559.8800048828125
 10
432.739990234375
 20
-558.3499755859375
 10
432.3699951171884
 20
-558.260009765625
 10
432.1799926757812
 20
-558.2099609375
 10
432.0
 20
-558.1099853515625
 10
431.8499755859384
 20
-557.97998046875
 10
421.2100219726562
 20
-548.6400146484375
 10
415.1300048828134
 20
-533.7999877929688
 10
412.510009765625
 20
-526.0399780273438
 10
411.4400024414062
 20
-529.5299682617188
 10
409.9099731445312
 20
-532.0999755859375
 10
409.8200073242188
 20
-532.260009765625
 10
409.6099853515634
 20
-532.6099853515625
 10
409.25
 20
-532.8399658203125
 10
408.8400268554688
 20
-532.8800048828125
 10
408.4299926757812
 20
-532.9199829101562
 10
408.02001953125
 20
-532.7699584960938
 10
407.75
 20
-532.469970703125
 10
388.739990234375
 20
-511.72998046875
 10
372.9299926757812
 20
-476.1799926757812
 10
372.25
 20
-474.6499633789062
 10
370.719970703125
 20
-474.2999877929688
 10
369.1699829101562
 20
-473.8399658203134
 10
367.6099853515634
 20
-473.25
 10
355.8400268554688
 20
-468.7799682617188
 10
346.6900024414062
 20
-458.2899780273438
 10
340.4299926757812
 20
-442.0599975585938
 10
340.2000122070312
 20
-441.4199829101562
 10
336.0399780273438
 20
-429.97998046875
 10
337.6900024414062
 20
-418.489990234375
 10
337.6500244140634
 20
-418.4400024414062
 10
337.5999755859384
 20
-418.3999633789062
 10
337.5700073242188
 20
-418.3599853515634
 10
304.989990234375
 20
-373.7899780273438
 10
297.030029296875
 20
-329.5499877929688
 10
313.8900146484384
 20
-286.8599853515634
 10
327.9000244140634
 20
-251.3900146484384
 10
356.1099853515634
 20
-225.8099975585938
 10
371.6699829101562
 20
-213.719970703125
 10
380.989990234375
 20
-206.489990234375
 10
389.5999755859384
 20
-198.469970703125
 10
397.27001953125
 20
-189.8900146484384
 10
436.4400024414062
 20
-146.0499877929688
 10
470.8300170898438
 20
-132.8099975585938
 10
492.7899780273438
 20
-129.4199829101562
 10
514.1300048828125
 20
-126.1300048828134
 10
527.9099731445312
 20
-131.0899658203134
 10
531.0999755859375
 20
-132.4099731445312
 10
543.5
 20
-124.47998046875
 10
560.52001953125
 20
-119.6400146484384
 10
581.989990234375
 20
-117.989990234375
 10
595.3900146484375
 20
-116.9500122070312
 10
608.5900268554688
 20
-120.1499633789062
 10
620.1099853515625
 20
-127.239990234375
 10
634.7100219726562
 20
-136.219970703125
 10
654.4400024414062
 20
-152.010009765625
 10
665.5700073242188
 20
-176.260009765625
 10
667.9600219726562
 20
-181.47998046875
 10
669.8499755859375
 20
-186.8599853515634
 10
671.239990234375
 20
-192.3900146484384
 10
674.77001953125
 20
-193.1400146484384
 10
688.0700073242188
 20
-196.989990234375
 10
702.3800048828125
 20
-214.1300048828134
 10
711.3499755859375
 20
-224.8699951171884
 10
721.739990234375
 20
-242.3599853515634
 10
729.719970703125
 20
-270.2799682617188
 10
731.75
 20
-272.5199584960938
 10
760.7100219726562
 20
-305.3099975585938
 10
757.5
 20
-348.219970703125
 97
        0
 97
        0
 75
     2
 76
     1
 98
        0
  0
ENDSEC
  0
SECTION
  2
OBJECTS
  0
DICTIONARY
  5
C
330
0
100
AcDbDictionary
281
     1
  3
ACAD_GROUP
350
D
  3
ACAD_LAYOUT
350
1A
  3
ACAD_MATERIAL
350
3B
  3
ACAD_MLEADERSTYLE
350
44
  3
ACAD_MLINESTYLE
350
17
  3
ACAD_PLOTSETTINGS
350
19
  3
ACAD_PLOTSTYLENAME
350
E
  3
ACAD_TABLESTYLE
350
43
  3
ACAD_VISUALSTYLE
350
2A
  0
SUN
  5
3F
330
29
100
AcDbSun
 90
        1
290
     0
 63
     7
421
 16777215
 40
1.0
291
     1
 91
  2455826
 92
 54000000
292
     0
 70
     2
 71
   256
280
     1
  0
DICTIONARY
  5
D
102
{ACAD_REACTORS
330
C
102
}
330
C
100
AcDbDictionary
281
     1
  0
DICTIONARY
  5
1A
102
{ACAD_REACTORS
330
C
102
}
330
C
100
AcDbDictionary
281
     1
  3
Layout1
350
1E
  3
Layout2
350
26
  3
Model
350
22
  0
DICTIONARY
  5
3B
102
{ACAD_REACTORS
330
C
102
}
330
C
100
AcDbDictionary
281
     1
  3
ByBlock
350
3D
  3
ByLayer
350
3C
  3
Global
350
3E
  0
DICTIONARY
  5
44
102
{ACAD_REACTORS
330
C
102
}
330
C
100
AcDbDictionary
281
     1
  0
DICTIONARY
  5
17
102
{ACAD_REACTORS
330
C
102
}
330
C
100
AcDbDictionary
281
     1
  3
Standard
350
18
  0
DICTIONARY
  5
19
102
{ACAD_REACTORS
330
C
102
}
330
C
100
AcDbDictionary
281
     1
  0
ACDBDICTIONARYWDFLT
  5
E
102
{ACAD_REACTORS
330
C
102
}
330
C
100
AcDbDictionary
281
     1
  3
Normal
350
F
100
AcDbDictionaryWithDefault
340
F
  0
DICTIONARY
  5
43
102
{ACAD_REACTORS
330
C
102
}
330
C
100
AcDbDictionary
281
     1
  0
DICTIONARY
  5
2A
102
{ACAD_REACTORS
330
C
102
}
330
C
100
AcDbDictionary
281
     1
  3
2dWireframe
350
2F
  3
3D Hidden
350
31
  3
3dWireframe
350
30
  3
Basic
350
32
  3
Brighten
350
36
  3
ColorChange
350
3A
  3
Conceptual
350
34
  3
Dim
350
35
  3
Facepattern
350
39
  3
Flat
350
2B
  3
FlatWithEdges
350
2C
  3
Gouraud
350
2D
  3
GouraudWithEdges
350
2E
  3
Linepattern
350
38
  3
Realistic
350
33
  3
Thicken
350
37
  0
LAYOUT
  5
1E
102
{ACAD_REACTORS
330
1A
102
}
330
1A
100
AcDbPlotSettings
  1

  2
none_device
  4

  6

 40
0.0
 41
0.0
 42
0.0
 43
0.0
 44
0.0
 45
0.0
 46
0.0
 47
0.0
 48
0.0
 49
0.0
140
0.0
141
0.0
142
1.0
143
1.0
 70
   688
 72
     0
 73
     0
 74
     5
  7

 75
    16
 76
     0
 77
     2
 78
   300
147
1.0
148
0.0
149
0.0
100
AcDbLayout
  1
Layout1
 70
     1
 71
     1
 10
0.0
 20
0.0
 11
12.0
 21
9.0
 12
0.0
 22
0.0
 32
0.0
 14
1.000000000000000E+20
 24
1.000000000000000E+20
 34
1.000000000000000E+20
 15
-1.000000000000000E+20
 25
-1.000000000000000E+20
 35
-1.000000000000000E+20
146
0.0
 13
0.0
 23
0.0
 33
0.0
 16
1.0
 26
0.0
 36
0.0
 17
0.0
 27
1.0
 37
0.0
 76
     0
330
1B
  0
LAYOUT
  5
26
102
{ACAD_REACTORS
330
1A
102
}
330
1A
100
AcDbPlotSettings
  1

  2
none_device
  4

  6

 40
0.0
 41
0.0
 42
0.0
 43
0.0
 44
0.0
 45
0.0
 46
0.0
 47
0.0
 48
0.0
 49
0.0
140
0.0
141
0.0
142
1.0
143
1.0
 70
   688
 72
     0
 73
     0
 74
     5
  7

 75
    16
 76
     0
 77
     2
 78
   300
147
1.0
148
0.0
149
0.0
100
AcDbLayout
  1
Layout2
 70
     1
 71
     2
 10
0.0
 20
0.0
 11
0.0
 21
0.0
 12
0.0
 22
0.0
 32
0.0
 14
0.0
 24
0.0
 34
0.0
 15
0.0
 25
0.0
 35
0.0
146
0.0
 13
0.0
 23
0.0
 33
0.0
 16
1.0
 26
0.0
 36
0.0
 17
0.0
 27
1.0
 37
0.0
 76
     0
330
23
  0
LAYOUT
  5
22
102
{ACAD_REACTORS
330
1A
102
}
330
1A
100
AcDbPlotSettings
  1

  2
none_device
  4

  6

 40
0.0
 41
0.0
 42
0.0
 43
0.0
 44
0.0
 45
0.0
 46
0.0
 47
0.0
 48
0.0
 49
0.0
140
0.0
141
0.0
142
1.0
143
1.0
 70
  1712
 72
     0
 73
     0
 74
     0
  7

 75
     0
 76
     0
 77
     2
 78
   300
147
1.0
148
0.0
149
0.0
100
AcDbLayout
  1
Model
 70
     1
 71
     0
 10
0.0
 20
0.0
 11
12.0
 21
9.0
 12
0.0
 22
0.0
 32
0.0
 14
1.000000000000000E+20
 24
1.000000000000000E+20
 34
1.000000000000000E+20
 15
-1.000000000000000E+20
 25
-1.000000000000000E+20
 35
-1.000000000000000E+20
146
0.0
 13
0.0
 23
0.0
 33
0.0
 16
1.0
 26
0.0
 36
0.0
 17
0.0
 27
1.0
 37
0.0
 76
     0
330
1F
331
29
  0
MATERIAL
  5
3D
102
{ACAD_REACTORS
330
3B
102
}
330
3B
100
AcDbMaterial
  1
ByBlock
 72
     1
 94
      127
  0
MATERIAL
  5
3C
102
{ACAD_REACTORS
330
3B
102
}
330
3B
100
AcDbMaterial
  1
ByLayer
 72
     1
 94
      127
  0
MATERIAL
  5
3E
102
{ACAD_REACTORS
330
3B
102
}
330
3B
100
AcDbMaterial
  1
Global
 72
     1
 94
      127
  0
MLINESTYLE
  5
18
102
{ACAD_REACTORS
330
17
102
}
330
17
100
AcDbMlineStyle
  2
Standard
 70
     0
  3

 62
   256
 51
90.0
 52
90.0
 71
     2
 49
0.5
 62
   256
  6
BYLAYER
 49
-0.5
 62
   256
  6
BYLAYER
  0
ACDBPLACEHOLDER
  5
F
102
{ACAD_REACTORS
330
E
102
}
330
E
  0
VISUALSTYLE
  5
2F
102
{ACAD_REACTORS
330
2A
102
}
330
2A
100
AcDbVisualStyle
  2
2dWireframe
 70
     4
177
     2
291
     0
 71
     0
176
     1
 72
     2
176
     1
 73
     0
176
     1
 90
        0
176
     1
 40
-0.6
176
     1
 41
-30.0
176
     1
 62
     5
 63
     7
421
 16777215
176
     1
 74
     1
176
     1
 91
        4
176
     1
 64
     7
176
     1
 65
   257
176
     1
 75
     1
176
     1
175
     1
176
     1
 42
1.0
176
     1
 92
        0
176
     1
 66
   257
176
     1
 43
1.0
176
     1
 76
     1
176
     1
 77
     6
176
     1
 78
     2
176
     1
 67
     7
176
     1
 79
     5
176
     1
170
     0
176
     1
171
     0
176
     1
290
     0
176
     1
 93
        1
176
     1
 44
0.0
176
     1
173
     0
176
     1
  0
VISUALSTYLE
  5
31
102
{ACAD_REACTORS
330
2A
102
}
330
2A
100
AcDbVisualStyle
  2
3D Hidden
 70
     6
177
     2
291
     0
 71
     1
176
     1
 72
     2
176
     1
 73
     2
176
     1
 90
        0
176
     1
 40
-0.6
176
     1
 41
-30.0
176
     1
 62
     5
 63
     7
421
 16777215
176
     1
 74
     2
176
     1
 91
        2
176
     1
 64
     7
176
     1
 65
   257
176
     1
 75
     2
176
     1
175
     1
176
     1
 42
40.0
176
     1
 92
        0
176
     1
 66
   257
176
     1
 43
1.0
176
     1
 76
     1
176
     1
 77
     6
176
     1
 78
     2
176
     1
 67
     7
176
     1
 79
     3
176
     1
170
     0
176
     1
171
     0
176
     1
290
     0
176
     1
 93
        1
176
     1
 44
0.0
176
     1
173
     0
176
     1
  0
VISUALSTYLE
  5
30
102
{ACAD_REACTORS
330
2A
102
}
330
2A
100
AcDbVisualStyle
  2
3dWireframe
 70
     5
177
     2
291
     0
 71
     0
176
     1
 72
     2
176
     1
 73
     0
176
     1
 90
        0
176
     1
 40
-0.6
176
     1
 41
-30.0
176
     1
 62
     5
 63
     7
421
 16777215
176
     1
 74
     1
176
     1
 91
        4
176
     1
 64
     7
176
     1
 65
   257
176
     1
 75
     1
176
     1
175
     1
176
     1
 42
1.0
176
     1
 92
        0
176
     1
 66
   257
176
     1
 43
1.0
176
     1
 76
     1
176
     1
 77
     6
176
     1
 78
     2
176
     1
 67
     7
176
     1
 79
     5
176
     1
170
     0
176
     1
171
     0
176
     1
290
     0
176
     1
 93
        1
176
     1
 44
0.0
176
     1
173
     0
176
     1
  0
VISUALSTYLE
  5
32
102
{ACAD_REACTORS
330
2A
102
}
330
2A
100
AcDbVisualStyle
  2
Basic
 70
     7
177
     2
291
     1
 71
     1
176
     1
 72
     0
176
     1
 73
     1
176
     1
 90
        0
176
     1
 40
-0.6
176
     1
 41
-30.0
176
     1
 62
     5
 63
     7
421
 16777215
176
     1
 74
     0
176
     1
 91
        4
176
     1
 64
     7
176
     1
 65
   257
176
     1
 75
     1
176
     1
175
     1
176
     1
 42
1.0
176
     1
 92
        8
176
     1
 66
     7
176
     1
 43
1.0
176
     1
 76
     1
176
     1
 77
     6
176
     1
 78
     2
176
     1
 67
     7
176
     1
 79
     5
176
     1
170
     0
176
     1
171
     0
176
     1
290
     0
176
     1
 93
        1
176
     1
 44
0.0
176
     1
173
     0
176
     1
  0
VISUALSTYLE
  5
36
102
{ACAD_REACTORS
330
2A
102
}
330
2A
100
AcDbVisualStyle
  2
Brighten
 70
    12
177
     2
291
     1
 71
     2
176
     1
 72
     2
176
     1
 73
     0
176
     1
 90
        0
176
     1
 40
-0.6
176
     1
 41
-30.0
176
     1
 62
     5
 63
     7
421
 16777215
176
     1
 74
     1
176
     1
 91
        4
176
     1
 64
     7
176
     1
 65
   257
176
     1
 75
     1
176
     1
175
     1
176
     1
 42
1.0
176
     1
 92
        8
176
     1
 66
     7
176
     1
 43
1.0
176
     1
 76
     1
176
     1
 77
     6
176
     1
 78
     2
176
     1
 67
     7
176
     1
 79
     5
176
     1
170
     0
176
     1
171
     0
176
     1
290
     0
176
     1
 93
        1
176
     1
 44
50.0
176
     1
173
     0
176
     1
  0
VISUALSTYLE
  5
3A
102
{ACAD_REACTORS
330
2A
102
}
330
2A
100
AcDbVisualStyle
  2
ColorChange
 70
    16
177
     2
291
     1
 71
     2
176
     1
 72
     2
176
     1
 73
     3
176
     1
 90
        0
176
     1
 40
-0.6
176
     1
 41
-30.0
176
     1
 62
     5
 63
     8
421
  8421504
176
     1
 74
     1
176
     1
 91
        4
176
     1
 64
     7
176
     1
 65
   257
176
     1
 75
     1
176
     1
175
     1
176
     1
 42
1.0
176
     1
 92
        8
176
     1
 66
     8
424
  8421504
176
     1
 43
1.0
176
     1
 76
     1
176
     1
 77
     6
176
     1
 78
     2
176
     1
 67
     7
176
     1
 79
     5
176
     1
170
     0
176
     1
171
     0
176
     1
290
     0
176
     1
 93
        1
176
     1
 44
0.0
176
     1
173
     0
176
     1
  0
VISUALSTYLE
  5
34
102
{ACAD_REACTORS
330
2A
102
}
330
2A
100
AcDbVisualStyle
  2
Conceptual
 70
     9
177
     2
291
     0
 71
     3
176
     1
 72
     2
176
     1
 73
     0
176
     1
 90
        0
176
     1
 40
-0.6
176
     1
 41
-30.0
176
     1
 62
     5
 63
     7
421
 16777215
176
     1
 74
     2
176
     1
 91
        2
176
     1
 64
     7
176
     1
 65
   257
176
     1
 75
     1
176
     1
175
     1
176
     1
 42
40.0
176
     1
 92
        8
176
     1
 66
     7
176
     1
 43
1.0
176
     1
 76
     1
176
     1
 77
     6
176
     1
 78
     2
176
     1
 67
     7
176
     1
 79
     3
176
     1
170
     0
176
     1
171
     0
176
     1
290
     0
176
     1
 93
        1
176
     1
 44
0.0
176
     1
173
     0
176
     1
  0
VISUALSTYLE
  5
35
102
{ACAD_REACTORS
330
2A
102
}
330
2A
100
AcDbVisualStyle
  2
Dim
 70
    11
177
     2
291
     1
 71
     2
176
     1
 72
     2
176
     1
 73
     0
176
     1
 90
        0
176
     1
 40
-0.6
176
     1
 41
-30.0
176
     1
 62
     5
 63
     7
421
 16777215
176
     1
 74
     1
176
     1
 91
        4
176
     1
 64
     7
176
     1
 65
   257
176
     1
 75
     1
176
     1
175
     1
176
     1
 42
1.0
176
     1
 92
        8
176
     1
 66
     7
176
     1
 43
1.0
176
     1
 76
     1
176
     1
 77
     6
176
     1
 78
     2
176
     1
 67
     7
176
     1
 79
     5
176
     1
170
     0
176
     1
171
     0
176
     1
290
     0
176
     1
 93
        1
176
     1
 44
-50.0
176
     1
173
     0
176
     1
  0
VISUALSTYLE
  5
39
102
{ACAD_REACTORS
330
2A
102
}
330
2A
100
AcDbVisualStyle
  2
Facepattern
 70
    15
177
     2
291
     1
 71
     2
176
     1
 72
     2
176
     1
 73
     0
176
     1
 90
        0
176
     1
 40
-0.6
176
     1
 41
-30.0
176
     1
 62
     5
 63
     7
421
 16777215
176
     1
 74
     1
176
     1
 91
        4
176
     1
 64
     7
176
     1
 65
   257
176
     1
 75
     1
176
     1
175
     1
176
     1
 42
1.0
176
     1
 92
        8
176
     1
 66
     7
176
     1
 43
1.0
176
     1
 76
     1
176
     1
 77
     6
176
     1
 78
     2
176
     1
 67
     7
176
     1
 79
     5
176
     1
170
     0
176
     1
171
     0
176
     1
290
     0
176
     1
 93
        1
176
     1
 44
0.0
176
     1
173
     0
176
     1
  0
VISUALSTYLE
  5
2B
102
{ACAD_REACTORS
330
2A
102
}
330
2A
100
AcDbVisualStyle
  2
Flat
 70
     0
177
     2
291
     1
 71
     2
176
     1
 72
     1
176
     1
 73
     1
176
     1
 90
        2
176
     1
 40
-0.6
176
     1
 41
30.0
176
     1
 62
     5
 63
     7
421
 16777215
176
     1
 74
     0
176
     1
 91
        4
176
     1
 64
     7
176
     1
 65
   257
176
     1
 75
     1
176
     1
175
     1
176
     1
 42
1.0
176
     1
 92
        8
176
     1
 66
     7
176
     1
 43
1.0
176
     1
 76
     1
176
     1
 77
     6
176
     1
 78
     2
176
     1
 67
     7
176
     1
 79
     5
176
     1
170
     0
176
     1
171
     0
176
     1
290
     0
176
     1
 93
       13
176
     1
 44
0.0
176
     1
173
     0
176
     1
  0
VISUALSTYLE
  5
2C
102
{ACAD_REACTORS
330
2A
102
}
330
2A
100
AcDbVisualStyle
  2
FlatWithEdges
 70
     1
177
     2
291
     1
 71
     2
176
     1
 72
     1
176
     1
 73
     1
176
     1
 90
        2
176
     1
 40
-0.6
176
     1
 41
30.0
176
     1
 62
     5
 63
     7
421
 16777215
176
     1
 74
     1
176
     1
 91
        4
176
     1
 64
     7
176
     1
 65
   257
176
     1
 75
     1
176
     1
175
     1
176
     1
 42
1.0
176
     1
 92
        0
176
     1
 66
   257
176
     1
 43
1.0
176
     1
 76
     1
176
     1
 77
     6
176
     1
 78
     2
176
     1
 67
     7
176
     1
 79
     5
176
     1
170
     0
176
     1
171
     0
176
     1
290
     0
176
     1
 93
       13
176
     1
 44
0.0
176
     1
173
     0
176
     1
  0
VISUALSTYLE
  5
2D
102
{ACAD_REACTORS
330
2A
102
}
330
2A
100
AcDbVisualStyle
  2
Gouraud
 70
     2
177
     2
291
     1
 71
     2
176
     1
 72
     2
176
     1
 73
     1
176
     1
 90
        2
176
     1
 40
-0.6
176
     1
 41
30.0
176
     1
 62
     5
 63
     7
421
 16777215
176
     1
 74
     0
176
     1
 91
        4
176
     1
 64
     7
176
     1
 65
   257
176
     1
 75
     1
176
     1
175
     1
176
     1
 42
1.0
176
     1
 92
        0
176
     1
 66
     7
176
     1
 43
1.0
176
     1
 76
     1
176
     1
 77
     6
176
     1
 78
     2
176
     1
 67
     7
176
     1
 79
     5
176
     1
170
     0
176
     1
171
     0
176
     1
290
     0
176
     1
 93
       13
176
     1
 44
0.0
176
     1
173
     0
176
     1
  0
VISUALSTYLE
  5
2E
102
{ACAD_REACTORS
330
2A
102
}
330
2A
100
AcDbVisualStyle
  2
GouraudWithEdges
 70
     3
177
     2
291
     1
 71
     2
176
     1
 72
     2
176
     1
 73
     1
176
     1
 90
        2
176
     1
 40
-0.6
176
     1
 41
30.0
176
     1
 62
     5
 63
     7
421
 16777215
176
     1
 74
     1
176
     1
 91
        4
176
     1
 64
     7
176
     1
 65
   257
176
     1
 75
     1
176
     1
175
     1
176
     1
 42
1.0
176
     1
 92
        0
176
     1
 66
   257
176
     1
 43
1.0
176
     1
 76
     1
176
     1
 77
     6
176
     1
 78
     2
176
     1
 67
     7
176
     1
 79
     5
176
     1
170
     0
176
     1
171
     0
176
     1
290
     0
176
     1
 93
       13
176
     1
 44
0.0
176
     1
173
     0
176
     1
  0
VISUALSTYLE
  5
38
102
{ACAD_REACTORS
330
2A
102
}
330
2A
100
AcDbVisualStyle
  2
Linepattern
 70
    14
177
     2
291
     1
 71
     2
176
     1
 72
     2
176
     1
 73
     0
176
     1
 90
        0
176
     1
 40
-0.6
176
     1
 41
-30.0
176
     1
 62
     5
 63
     7
421
 16777215
176
     1
 74
     1
176
     1
 91
        4
176
     1
 64
     7
176
     1
 65
   257
176
     1
 75
     7
176
     1
175
     7
176
     1
 42
1.0
176
     1
 92
        8
176
     1
 66
     7
176
     1
 43
1.0
176
     1
 76
     1
176
     1
 77
     6
176
     1
 78
     2
176
     1
 67
     7
176
     1
 79
     5
176
     1
170
     0
176
     1
171
     0
176
     1
290
     0
176
     1
 93
        1
176
     1
 44
0.0
176
     1
173
     0
176
     1
  0
VISUALSTYLE
  5
33
102
{ACAD_REACTORS
330
2A
102
}
330
2A
100
AcDbVisualStyle
  2
Realistic
 70
     8
177
     2
291
     0
 71
     2
176
     1
 72
     2
176
     1
 73
     0
176
     1
 90
        0
176
     1
 40
-0.6
176
     1
 41
-30.0
176
     1
 62
     5
 63
     7
421
 16777215
176
     1
 74
     1
176
     1
 91
        0
176
     1
 64
     7
176
     1
 65
   257
176
     1
 75
     1
176
     1
175
     1
176
     1
 42
1.0
176
     1
 92
        8
176
     1
 66
     8
424
  7895160
176
     1
 43
1.0
176
     1
 76
     1
176
     1
 77
     6
176
     1
 78
     2
176
     1
 67
     7
176
     1
 79
     5
176
     1
170
     0
176
     1
171
     0
176
     1
290
     0
176
     1
 93
       13
176
     1
 44
0.0
176
     1
173
     0
176
     1
  0
VISUALSTYLE
  5
37
102
{ACAD_REACTORS
330
2A
102
}
330
2A
100
AcDbVisualStyle
  2
Thicken
 70
    13
177
     2
291
     1
 71
     2
176
     1
 72
     2
176
     1
 73
     0
176
     1
 90
        0
176
     1
 40
-0.6
176
     1
 41
-30.0
176
     1
 62
     5
 63
     7
421
 16777215
176
     1
 74
     1
176
     1
 91
        4
176
     1
 64
     7
176
     1
 65
   257
176
     1
 75
     1
176
     1
175
     1
176
     1
 42
1.0
176
     1
 92
       12
176
     1
 66
     7
176
     1
 43
1.0
176
     1
 76
     1
176
     1
 77
     6
176
     1
 78
     2
176
     1
 67
     7
176
     1
 79
     5
176
     1
170
     0
176
     1
171
     0
176
     1
290
     0
176
     1
 93
        1
176
     1
 44
0.0
176
     1
173
     0
176
     1
  0
ENDSEC
  0
EOF
