<?xml version="1.0" encoding="utf-8"?>
<!-- Generator: Adobe Illustrator 24.3.0, SVG Export Plug-In . SVG Version: 6.00 Build 0)  -->
<svg version="1.1" id="SUGA_x5F_COLORS" xmlns="http://www.w3.org/2000/svg" xmlns:xlink="http://www.w3.org/1999/xlink" x="0px"
	 y="0px" viewBox="0 0 1080 1080" style="enable-background:new 0 0 1080 1080;" xml:space="preserve">
<style type="text/css">
	.st0{fill:#010202;}
	.st1{display:none;fill:#010202;}
	.st2{fill:#542E22;}
	.st3{fill:#FDE8B8;}
	.st4{fill:#B65C46;}
	.st5{fill:#483D45;}
	.st6{fill:#432F2A;}
	.st7{fill:#6F4E2C;}
	.st8{fill:#A17E4D;}
	.st9{fill:#FFFFFF;}
	.st10{fill:#DD618E;}
</style>
<path id="FILL_x5F_000000" class="st0" d="M705.16,836.21c-4.28-6.1-7.25-12.9-8.81-20.21c-7.55-35.43-7.9-68.99-7.92-71.61
	c2.33-7.97,2.03-14.66,1.84-16.89c1.66-1.37,5.11-5.68,2.62-16.65c-0.43-1.91-0.76-3.97-1.04-6.48
	c-1.74-15.6-8.38-71.23-20.94-133.3c10.42-20.42,15.71-42.51,17.94-53.9c0.85-4.34,2.25-8.94,4.28-14.07
	c3.65-9.21,3.61-20.19,3.53-23.23c2.94-1.77,4.82-5,4.82-8.5c0.01-3.54-0.19-6.67-0.58-9.3c-0.4-2.64-0.28-5.35,0.35-8.05
	c1.41-6.05,1.99-17.44-9.75-26.24c-1.02-6.26-2.52-14.09-4.68-22.93c32.9-3.35,35.6-38.98,35.21-54.34
	c-0.14-5.21-1.48-10.2-3.85-14.58c9.68-45.17,0.07-81.21-9.77-103.57c5.72,5.95,9.27,13.23,9.32,13.32
	c0.22,0.46,0.68,0.73,1.17,0.73c0.12,0,0.25-0.01,0.38-0.05c0.61-0.19,0.99-0.79,0.9-1.43c-2.74-19.3-9-37.68-18.59-54.63
	c-22.24-39.29-61.18-67.46-106.82-77.3c-40.17-8.65-71.95-2.07-91.53,4.98c-20.24,7.29-31.7,16.31-33.17,17.51
	c-3.38,0.86-6.34,2.09-8.9,3.51c-41.03-5.65-79.55,6.79-114.49,37c-30.29,26.19-51.92,61.21-62.54,101.29
	c-8.7,32.83-11.08,62.97-7.07,89.59c3.22,21.34,10.52,40.48,21.72,56.87c19.08,27.94,43.24,38.37,43.48,38.47
	c0.59,0.25,1.28,0.03,1.61-0.51c0.34-0.54,0.23-1.25-0.25-1.67c-3.28-2.83-5.34-7.1-6.58-10.69c10.98,13.48,24.89,15.92,33.52,15.92
	c3.46,0,6.07-0.4,7.29-0.62l10.15,10.8c0.37,5.99,1.45,12.61,3.22,19.84c0.65,2.64,2.8,4.64,5.48,5.09c1.65,0.28,3.56,0.54,5.56,0.7
	c0.21,3.55,2.59,31.77,26.36,50.93c15.09,12.15,35.37,18.25,60.56,18.25c11.03,0,23.01-1.18,35.9-3.53
	c-0.31,0.9-0.68,2.06-1.08,3.44c-3.13,2.73-28.32,25.63-31,56.83c-0.01,0.16-1.17,13.15-5.95,23c-0.97-0.25-1.96-0.34-2.95-0.23
	c-1,0.1-1.89,0.69-2.38,1.58c-0.43,0.78-0.49,1.69-0.2,2.51c0.07,1.38,0.59,13.89-4.54,19.11c-1.68,1.71-2.05,4.29-0.9,6.28
	c0.7,1.2,1.81,2.49,3.5,3.8c-1.65,4.19-8.6,21.8-15.16,37.85c-0.86,2.11-2.55,3.78-4.65,4.57c-2.49,0.94-5.84,2.47-9.48,4.76
	c-2.37-1.53-5.68-2.74-9.87-3.59c-1.56-0.31-3.07,0.43-3.78,1.85c-0.7,1.42-0.37,3.08,0.83,4.13c1.78,1.55,3.37,2.71,4.51,3.49
	c-1.81,1.02-3.81,1.78-5.91,2.22c-1.56,0.32-3.19,0.58-4.87,0.77c-2.09,0.24-3.7,1.8-3.99,3.9c-0.28,2.05,0.81,3.94,2.72,4.72
	c2.99,1.22,6.43,1.83,10.29,1.83c1.92,0,3.96-0.16,6.1-0.46c-1.53,2.49-3.39,4.96-5.59,7.39c-1.37,1.51-1.54,3.67-0.43,5.36
	c0.86,1.3,2.24,2.03,3.71,2.03c0.49,0,0.99-0.08,1.48-0.25c2.47-0.84,4.93-2.1,7.3-3.75c3.08-2.15,6.68-3.6,10.4-4.19
	c17.2-2.73,24.35-11.49,27.08-16.47c1.71-3.11,3.86-5.95,6.4-8.45c10.2-10.03,19.17-20.04,23.72-25.25
	c-0.06,0.28-0.11,0.57-0.17,0.85c-1.46,6.57-2.08,12.08-1.86,16.4c-1.54,2.1-1.89,3.67-1.93,3.88c-0.01,0.07-0.02,0.15-0.02,0.23
	c0,0.4-0.03,9.74,3.28,17.88c-1.51,5.97-20.31,79.04-56.64,161.04c-1.32,2.99-2.68,6-4.05,9.02c-0.19,0.41-0.14,0.89,0.11,1.26
	c0.26,0.38,0.7,0.6,1.15,0.58c0.01,0,0.1-0.01,0.28,0.01c-5.23,3.23-15.65,10.64-18.33,19.7c-0.77,2.62,0.17,5.51,2.34,7.18
	c4.26,3.27,14.81,8.91,36.99,8.91c10.94,0,24.72-1.37,41.97-5.08c3.7,0.84,7.47,1.38,11.25,1.63c0.08,0.01,0.16,0.05,0.24,0.05
	c0.06,0,0.11-0.02,0.17-0.03c1.39,0.08,2.78,0.14,4.17,0.14c4.49,0,8.99-0.44,13.42-1.31c0.81-0.16,1.64-0.34,2.47-0.53
	c0.49-0.11,0.87-0.48,0.98-0.97c0.03-0.13,1.01-4.31,2.46-11.62c2.93-14.64,7.8-41.83,10.86-74.01c0.67-7.06,3.91-13.56,9.13-18.27
	c7.47-6.76,18.05-16.81,26.79-26.87c19.57,24.45,34.4,63.41,41.3,83.76c3.22,9.51,5.23,19.28,5.98,29.17
	c0.29,3.72,0.41,7.45,0.34,11.2v0.18c-0.02,0.75,0.41,1.4,1.07,1.72c0,1.38,0.06,3.63,0.28,6.06c0.26,2.76,2.13,5.13,4.75,6.03
	c5.26,1.81,16.17,4.8,30.7,4.8c8.37,0,17.94-0.99,28.32-3.78c2.81-0.76,4.79-3.21,4.94-6.11c0.11-2.35,0.17-5.66-0.11-9.01
	c3.13,0.9,5.81,1.73,7.81,2.38c0.53,0.17,1.07,0.25,1.61,0.25c0.97,0,1.92-0.26,2.76-0.78c1.28-0.8,2.15-2.11,2.37-3.6
	c0.42-2.8,0.68-5.61,0.81-8.42C740.16,890.71,716.15,851.85,705.16,836.21z"/>
<path id="OUTLINE_x5F_000000" class="st1" d="M705.16,836.21c-4.28-6.1-7.25-12.9-8.81-20.21c-7.55-35.43-7.9-68.99-7.92-71.61
	c2.33-7.97,2.03-14.66,1.84-16.89c1.66-1.37,5.11-5.68,2.62-16.65c-0.43-1.91-0.76-3.97-1.04-6.48
	c-1.74-15.6-8.38-71.23-20.94-133.3c10.42-20.42,15.71-42.51,17.94-53.9c0.85-4.34,2.25-8.94,4.28-14.07
	c3.65-9.21,3.61-20.19,3.53-23.23c2.94-1.77,4.82-5,4.82-8.5c0.01-3.54-0.19-6.67-0.58-9.3c-0.4-2.64-0.28-5.35,0.35-8.05
	c1.41-6.05,1.99-17.44-9.75-26.24c-1.02-6.26-2.52-14.09-4.68-22.93c32.9-3.35,35.6-38.98,35.21-54.34
	c-0.14-5.21-1.48-10.2-3.85-14.58c9.68-45.17,0.07-81.21-9.77-103.57c5.72,5.95,9.27,13.23,9.32,13.32
	c0.22,0.46,0.68,0.73,1.17,0.73c0.12,0,0.25-0.01,0.38-0.05c0.61-0.19,0.99-0.79,0.9-1.43c-2.74-19.3-9-37.68-18.59-54.63
	c-22.24-39.29-61.18-67.46-106.82-77.3c-40.17-8.65-71.95-2.07-91.53,4.98c-20.24,7.29-31.7,16.31-33.17,17.51
	c-3.38,0.86-6.34,2.09-8.9,3.51c-41.03-5.65-79.55,6.79-114.49,37c-30.29,26.19-51.92,61.21-62.54,101.29
	c-8.7,32.83-11.08,62.97-7.07,89.59c3.22,21.34,10.52,40.48,21.72,56.87c19.08,27.94,43.24,38.37,43.48,38.47
	c0.59,0.25,1.28,0.03,1.61-0.51c0.34-0.54,0.23-1.25-0.25-1.67c-3.28-2.83-5.34-7.1-6.58-10.69c10.98,13.48,24.89,15.92,33.52,15.92
	c3.46,0,6.07-0.4,7.29-0.62l10.15,10.8c-0.09-1.35-0.14-2.67-0.15-3.96l-8.54-9.08c-1.66-2.37-3.08-4.69-4.28-6.88
	c-0.65-1.16-1.23-2.27-1.76-3.34c-2.03-4.15-3.24-7.52-3.83-9.37c1.87-0.12,3.74-0.38,5.61-0.79c0.74-0.14,1.47-0.32,2.21-0.52
	c6.06-1.62,12.09-4.66,18.05-9.12c0.36-0.26,0.55-0.69,0.52-1.13c-0.03-0.45-0.28-0.84-0.67-1.05c-0.1-0.05-3.5-1.93-7.88-5
	c-0.53-0.37-1.08-0.76-1.63-1.17c-1.94-1.4-3.99-3-5.99-4.76c-0.65-0.57-1.3-1.15-1.93-1.75c-4.46-4.21-8.38-9.12-9.71-14.18
	c4.92,3.03,10.34,5.65,16.27,7.7c0.97,0.34,1.96,0.65,2.96,0.96c2.78,0.84,5.68,1.57,8.69,2.15c0.91,0.18,1.83,0.35,2.77,0.5
	c5,0.82,10.31,1.27,15.94,1.28c0.54,0,1.03-0.33,1.22-0.84c0.19-0.5,0.05-1.08-0.36-1.43c-0.23-0.2-20.15-17.88-26.2-38.77
	c4.76,7.49,13.77,17.57,27.44,17.03c0.5-0.02,0.95-0.33,1.14-0.78c0.2-0.46,0.12-0.99-0.2-1.37c-0.16-0.19-15.18-17.93-16.7-35.87
	c2.08,2.76,4.25,5.41,6.52,7.92c17.03,18.83,39.58,30.86,67.03,35.74c0.08,0.01,0.15,0.02,0.23,0.02c0.51,0,0.98-0.3,1.19-0.77
	c0.24-0.55,0.08-1.19-0.39-1.56c-0.22-0.17-21.47-17.04-32.68-52.26c9.23,7.81,20.51,14.31,33.96,17.15
	c0.09,0.02,0.18,0.03,0.27,0.03c0.26,0,0.52-0.08,0.74-0.23c0.15-0.1,0.27-0.23,0.37-0.38c0.09-0.15,0.15-0.31,0.18-0.49
	c0.04-0.27,2.86-19.06,1.6-47.02c4.66,2.34,16.97,8.93,27.31,18.05c0.52,0.47,1.05,0.94,1.56,1.42c2.32,2.15,4.51,4.43,6.45,6.82
	c0.44,0.54,0.87,1.09,1.28,1.64c1.51,2.01,2.83,4.09,3.9,6.23c0.17,0.34,0.48,0.59,0.85,0.68c0.1,0.03,0.2,0.04,0.31,0.04
	c0.27,0,0.53-0.08,0.75-0.24c0.4-0.29,5.2-3.83,10.3-12.24c0.52-0.86,1.05-1.78,1.58-2.76c1.39-2.57,2.77-5.51,4.05-8.86
	c0.27-0.7,0.54-1.42,0.8-2.15c2.41-6.84,4.4-15.23,5.36-25.41c3.15,4.03,9.08,13,10.35,24.72c0.08,0.66,0.14,1.34,0.17,2.02
	c0.07,0.97,0.09,1.96,0.08,2.96c0,0.4,0.18,0.79,0.5,1.04c0.31,0.25,0.73,0.34,1.12,0.24c0.36-0.09,3.48-0.9,7.91-2.61
	c0.01,0,0.01,0,0.01,0c0.99-0.38,2.03-0.8,3.13-1.27c7.03-3,16.05-7.91,22.89-15.23c-1.82,4.22-5,9.3-10.3,11.59
	c-0.53,0.23-0.84,0.78-0.77,1.35c0.07,0.57,0.5,1.03,1.07,1.13c0.38,0.06,8.81,1.48,14.16,0.24c1.76,3.07,4.03,6.48,6.58,9.12
	c-3.43,0.14-7.18,0.15-10.87-0.12c-2.38-0.18-4.46,1.26-5.18,3.57c-0.7,2.25,0.19,4.56,2.2,5.74c0.83,0.49,1.75,0.89,2.73,1.22
	c-0.84,0.88-1.4,2.02-1.56,3.33c-0.34,2.68,1.12,5.15,3.62,6.14c1.63,0.65,3.29,1.07,4.95,1.31c-1.42,0.78-2.28,2.25-2.26,3.89
	c0.03,1.68,1,3.16,2.52,3.87c2.77,1.29,5.91,1.69,9.1,1.16c3.83-0.63,8.02-0.47,10.86-0.23c1.58,0.14,3.01,1.04,3.84,2.41
	c5.88,9.75,17.68,13.75,21.26,14.77c0.04,2.27,0.61,4.94,0.95,6.32c-1.26,1.01-2.1,2.76-2.1,4.74c0,3.09,2.03,5.61,4.53,5.65
	c0.47,3.22,1.48,12.41,0.14,24.93c-2.23,1.06-8.21,5-9.87,17.27c-0.35,2.57-1.18,5.07-2.48,7.4c-1.43,2.58-3.21,6.7-3.6,11.69
	c-0.13,1.68-0.01,3.35,0.33,4.97c-2.65,4.29-22.88,37.19-40.3,70.45c-1.23,2.34-3.02,4.36-5.17,5.83
	c-1.73,0.67-16.6,6.45-23.73,12.81c-0.15,0.13-0.26,0.29-0.34,0.47c-0.07,0.17-0.4,0.95-0.89,2.17c-1.47,1.04-8.56,5.88-16.89,8.79
	c-1.35,0.11-9.62,0.84-16.41,2.65c-42.59,8.12-75.06,3.49-96.5-13.77c-22.49-18.08-25.14-44.59-25.42-48.8
	c-0.88-0.01-1.75-0.06-2.61-0.13c0.21,3.55,2.59,31.77,26.36,50.93c15.09,12.15,35.37,18.25,60.56,18.25
	c11.03,0,23.01-1.18,35.9-3.53c-0.31,0.9-0.68,2.06-1.08,3.44c-3.13,2.73-28.32,25.63-31,56.83c-0.01,0.16-1.17,13.15-5.95,23
	c-0.97-0.25-1.96-0.34-2.95-0.23c-1,0.1-1.89,0.69-2.38,1.58c-0.43,0.78-0.49,1.69-0.2,2.51c0.07,1.38,0.59,13.89-4.54,19.11
	c-1.68,1.71-2.05,4.29-0.9,6.28c0.7,1.2,1.81,2.49,3.5,3.8c-1.65,4.19-8.6,21.8-15.16,37.85c-0.86,2.11-2.55,3.78-4.65,4.57
	c-2.49,0.94-5.84,2.47-9.48,4.76c-2.37-1.53-5.68-2.74-9.87-3.59c-1.56-0.31-3.07,0.43-3.78,1.85c-0.7,1.42-0.37,3.08,0.83,4.13
	c1.78,1.55,3.37,2.71,4.51,3.49c-1.81,1.02-3.81,1.78-5.91,2.22c-1.56,0.32-3.19,0.58-4.87,0.77c-2.09,0.24-3.7,1.8-3.99,3.9
	c-0.28,2.05,0.81,3.94,2.72,4.72c2.99,1.22,6.43,1.83,10.29,1.83c1.92,0,3.96-0.16,6.1-0.46c-1.53,2.49-3.39,4.96-5.59,7.39
	c-1.37,1.51-1.54,3.67-0.43,5.36c0.86,1.3,2.24,2.03,3.71,2.03c0.49,0,0.99-0.08,1.48-0.25c2.47-0.84,4.93-2.1,7.3-3.75
	c3.08-2.15,6.68-3.6,10.4-4.19c17.2-2.73,24.35-11.49,27.08-16.47c1.71-3.11,3.86-5.95,6.4-8.45c10.2-10.03,19.17-20.04,23.72-25.25
	c-0.06,0.28-0.11,0.57-0.17,0.85c-1.46,6.57-2.08,12.08-1.86,16.4c-1.54,2.1-1.89,3.67-1.93,3.88c-0.01,0.07-0.02,0.15-0.02,0.23
	c0,0.4-0.03,9.74,3.28,17.88c-1.51,5.97-20.31,79.04-56.64,161.04c-1.32,2.99-2.68,6-4.05,9.02c-0.19,0.41-0.14,0.89,0.11,1.26
	c0.26,0.38,0.7,0.6,1.15,0.58c0.01,0,0.1-0.01,0.28,0.01c-5.23,3.23-15.65,10.64-18.33,19.7c-0.77,2.62,0.17,5.51,2.34,7.18
	c4.26,3.27,14.81,8.91,36.99,8.91c10.94,0,24.72-1.37,41.97-5.08c3.7,0.84,7.47,1.38,11.25,1.63c0.08,0.01,0.16,0.05,0.24,0.05
	c0.06,0,0.11-0.02,0.17-0.03c1.39,0.08,2.78,0.14,4.17,0.14c4.49,0,8.99-0.44,13.42-1.31c0.81-0.16,1.64-0.34,2.47-0.53
	c0.49-0.11,0.87-0.48,0.98-0.97c0.03-0.13,1.01-4.31,2.46-11.62c2.93-14.64,7.8-41.83,10.86-74.01c0.67-7.06,3.91-13.56,9.13-18.27
	c7.47-6.76,18.05-16.81,26.79-26.87c19.57,24.45,34.4,63.41,41.3,83.76c3.22,9.51,5.23,19.28,5.98,29.17
	c0.29,3.72,0.41,7.45,0.34,11.2v0.18c-0.02,0.75,0.41,1.4,1.07,1.72c0,1.38,0.06,3.63,0.28,6.06c0.26,2.76,2.13,5.13,4.75,6.03
	c5.26,1.81,16.17,4.8,30.7,4.8c8.37,0,17.94-0.99,28.32-3.78c2.81-0.76,4.79-3.21,4.94-6.11c0.11-2.35,0.17-5.66-0.11-9.01
	c3.13,0.9,5.81,1.73,7.81,2.38c0.53,0.17,1.07,0.25,1.61,0.25c0.97,0,1.92-0.26,2.76-0.78c1.28-0.8,2.15-2.11,2.37-3.6
	c0.42-2.8,0.68-5.61,0.81-8.42C740.16,890.71,716.15,851.85,705.16,836.21z M719.43,350.58c0.47,18.22-3.27,48.93-33.24,51.73
	c-2.29-9.04-5.25-19.02-9.06-29.36c0.33-0.06,0.66-0.15,0.97-0.27c1.33-0.52,2.29-1.53,2.63-2.76c0.69-2.44-1.19-5.11-4.19-5.95
	c-1.06-0.3-2.14-0.34-3.14-0.14c-0.18-2.48-0.5-7.39-0.62-13.07c5.35-8.1,11.36-12.62,17.88-13.4c9.05-1.07,16.11,5.54,16.18,5.61
	c0.44,0.41,1.14,0.4,1.56-0.04c0.42-0.44,0.4-1.13-0.03-1.55c-0.32-0.3-7.85-7.4-17.95-6.21c-6.46,0.77-12.39,4.74-17.68,11.81
	c0-3.45,0.08-7.04,0.33-10.44c0.21-2.82,1.7-5.36,4.1-6.96c6.84-4.59,20.14-10.73,32.34-0.36
	C715.59,334.4,719.21,342.18,719.43,350.58z M674.75,370.31c-1.59-0.45-2.69-1.71-2.4-2.75c0.17-0.6,0.75-0.91,1.09-1.04
	c0.36-0.14,0.79-0.21,1.23-0.21c0.38,0,0.78,0.05,1.16,0.16c1.43,0.4,2.45,1.45,2.45,2.4c0,0.12-0.02,0.24-0.05,0.35
	c-0.17,0.6-0.75,0.91-1.08,1.04C676.46,370.53,675.59,370.54,674.75,370.31z M592.41,316.88c0.32,0.66,0.69,1.4,1.11,2.19
	c-2.64,0.46-6.04,0.31-8.63,0.06c8.21-5.98,10.37-17.59,10.46-18.14c0.11-0.61-0.22-1.21-0.8-1.44c-0.57-0.22-1.23-0.02-1.56,0.5
	c-7.38,11.29-21.11,18-29.58,21.26c-2.42,0.93-4.41,1.58-5.7,1.97c-0.02-0.73-0.06-1.46-0.12-2.17
	c-1.32-17.69-12.66-29.44-13.18-29.97c-0.35-0.36-0.89-0.48-1.37-0.3c-0.48,0.17-0.81,0.61-0.85,1.12
	c-0.86,12.19-3.26,21.9-6.15,29.48c-1.83,4.82-3.87,8.78-5.83,11.98c-3.35,5.46-6.5,8.7-8.13,10.19c-1.1-1.99-2.39-3.92-3.83-5.78
	c-2.34-3.05-5.06-5.92-7.95-8.58c-12-11.05-26.99-18.52-30.42-20.16c-0.61-11.31-1.9-24-4.29-37.5c-0.13-0.7-0.8-1.17-1.51-1.05
	c-0.7,0.13-1.18,0.8-1.05,1.51c7.65,43.2,3.93,78.03,3.01,85.25c-48.95-11.38-68.76-73.24-68.96-73.87
	c-0.21-0.68-0.94-1.06-1.63-0.85c-0.68,0.21-1.07,0.94-0.85,1.63c0.05,0.16,5.18,16.43,16.56,33.79
	c4.55,6.94,10.53,14.67,18.02,21.68c8.46,29.73,24.22,47.61,31.25,54.44c-46.24-9.75-76.65-40.19-90.44-90.51
	c-10.65-38.91-6.78-75.75-6.74-76.12c0.08-0.71-0.44-1.35-1.15-1.43c-0.71-0.08-1.36,0.43-1.44,1.15
	c-0.04,0.37-3.96,37.64,6.81,77.01c4.81,17.59,11.79,32.98,20.82,45.96c-0.43,16.53,11.13,33.2,15.67,39.09
	c-17.55-1.39-26.23-22.91-26.32-23.14c-0.24-0.6-0.88-0.93-1.51-0.79c-0.63,0.15-1.05,0.74-1,1.38
	c1.77,20.98,19.48,40.05,26.17,46.56c-4.19-0.14-8.25-0.53-12.19-1.15c-4.13-0.66-8.11-1.59-11.96-2.78
	c-23.2-7.18-41.27-24.05-53.92-50.41c-12.95-26.99-15.02-54.35-15.04-54.62c-0.05-0.72-0.67-1.26-1.38-1.21
	c-0.72,0.05-1.26,0.67-1.21,1.39c0.02,0.28,2.11,28.06,15.26,55.5c6.87,14.35,17.64,30.26,34.18,41.43
	c1.08,10.09,11.74,19.51,19.81,25.28c3,2.15,5.65,3.79,7.3,4.77c-5.3,3.71-10.63,6.26-15.98,7.63c-6,1.55-12.01,1.61-17.99,0.18
	c-27.78-6.61-46.29-43.21-46.47-43.58c-0.32-0.64-1.1-0.9-1.74-0.58c-0.65,0.32-0.91,1.1-0.59,1.74
	c0.77,1.55,19.22,38.05,48.19,44.95c3.06,0.73,6.12,1.09,9.18,1.1c0.64,2.13,2.45,7.52,6.15,14.12c0.94,1.69,2.01,3.46,3.21,5.27
	c-6.37,0.91-27.39,2-40.93-20.11c-0.32-0.52-0.96-0.75-1.54-0.55c-0.58,0.21-0.94,0.79-0.85,1.4c0.05,0.4,1.09,7.65,4.91,13.86
	c-8.12-4.69-23.63-15.4-36.77-34.63c-17.26-25.28-33.75-70.84-14.27-144.33c10.48-39.56,31.82-74.14,61.72-99.98
	c33.47-28.93,70.23-41.3,109.32-36.79c-7.18,5.1-10.26,11.12-10.32,11.24c-0.32,0.65-0.05,1.42,0.59,1.74
	c0.18,0.09,0.38,0.14,0.57,0.14c0.48,0,0.94-0.27,1.17-0.73c0.43-0.87,10.93-21.28,40.25-15.88c0.7,0.12,1.38-0.34,1.51-1.05
	c0.13-0.7-0.34-1.38-1.04-1.51c-5.42-1-10.23-1.12-14.51-0.67c5.17-3.48,14.81-9.22,28.32-14.07c19.24-6.91,50.47-13.36,89.98-4.85
	c44.92,9.68,83.23,37.4,105.11,76.04c8.27,14.62,14.02,30.32,17.13,46.76c-2.49-3.77-6.18-8.47-10.77-11.84
	c-10.15-20.76-21.39-32.4-21.51-32.53c-0.5-0.51-1.32-0.52-1.84-0.02c-0.51,0.5-0.52,1.32-0.02,1.84
	c0.13,0.13,13.15,13.63,23.68,37.56c9.49,21.53,18.8,56.07,10.19,99.37c-1.44-2.02-3.1-3.87-5-5.48
	c-13.5-11.48-28.02-4.81-35.47,0.18c-3.07,2.05-4.98,5.31-5.24,8.94c-0.6,8.13-0.29,17.33,0.04,23.24
	c-3.23-5.29-9.38-13.35-19.61-19.88c-10.71-18.05-25.01-34.36-25.15-34.52c-0.27-0.31-0.68-0.47-1.08-0.44
	c-0.41,0.03-0.77,0.25-0.99,0.59c-4.63,7.24-15.64,11.47-18.52,12.48l-6.27-5.78c-1.43-1.32-3.54-1.47-5.15-0.36
	C592.07,312.86,591.5,315.05,592.41,316.88z M667.58,373.13c0.24-1.54,1.24-2.72,2.25-2.72c0.06,0,0.13,0,0.19,0.01
	c0.62,0.1,0.99,0.64,1.16,0.95c0.35,0.65,0.47,1.52,0.34,2.38c-0.26,1.63-1.38,2.87-2.45,2.7
	C668,376.28,667.32,374.76,667.58,373.13z M668.16,380.81c-0.2,0.59-0.8,0.87-1.14,0.99c-0.7,0.23-1.57,0.21-2.39-0.07
	c-0.83-0.28-1.54-0.79-1.95-1.39c-0.2-0.3-0.51-0.88-0.31-1.47c0.2-0.59,0.79-0.87,1.13-0.99c0.32-0.1,0.67-0.16,1.04-0.16
	c0.45,0,0.91,0.08,1.36,0.23C667.46,378.48,668.5,379.79,668.16,380.81z M646.19,336.99c-6.5-3.4-14.35-6.11-23.81-7.33
	c-0.34-0.04-0.68-0.06-1.03-0.1c-1.05-1.13-4.41-4.53-9.04-6.69c-1.67-0.77-3.31-1.81-4.9-3.08c4.02-1.53,12.64-5.36,17.47-11.62
	C628.07,311.92,637.78,323.64,646.19,336.99z M594.74,315.74c-0.33-0.68-0.12-1.48,0.5-1.91c0.59-0.41,1.37-0.36,1.89,0.13
	l6.84,6.31c2.31,2.13,4.75,3.8,7.24,4.96c2.53,1.18,4.68,2.81,6.19,4.13c-1.71,0.01-3.46,0.12-5.24,0.33
	c-1.79,0.22-4.26,0.49-7.12,0.68C600.41,326.65,596.31,318.95,594.74,315.74z M623.6,361.53c-1.26-2.08-3.44-3.45-5.85-3.65
	c-2.99-0.27-7.41-0.43-11.51,0.24c-2.66,0.44-5.28,0.12-7.57-0.95c-0.62-0.29-1-0.87-1.02-1.56c-0.01-0.69,0.35-1.29,0.97-1.6
	l3.95-2.01c9.06-0.46,16.89-4.92,17.33-5.17c0.62-0.36,0.84-1.16,0.48-1.78s-1.16-0.83-1.78-0.47c-0.14,0.08-13.98,7.96-25.28,3.47
	c-1.71-0.68-2.15-2.27-2-3.42c0.14-1.18,0.94-2.54,2.72-2.77l0.09-0.01c5.58,0.69,12.99-0.43,22.67-3.37
	c0.69-0.21,1.08-0.94,0.87-1.63c-0.21-0.68-0.93-1.07-1.62-0.86c-13.38,4.06-22.01,4.55-27.17,1.53c-1.17-0.68-1.29-1.85-1.02-2.72
	c0.27-0.87,1.08-1.85,2.5-1.75c4.94,0.36,9.99,0.24,14.25-0.04c0.01,0,0.01,0,0.01,0c0.01,0,0.01,0,0.02,0
	c3.16-0.21,5.9-0.5,7.84-0.73c3.35-0.41,6.57-0.43,9.57-0.04c33.83,4.37,46.46,28.39,48.63,33.11c-0.38,0.44-0.67,0.95-0.83,1.51
	c-0.09,0.31-0.13,0.64-0.14,0.96c-2.24,0.07-4.26,2.12-4.7,4.9c-0.14,0.85-0.1,1.68,0.06,2.44c-0.83-0.06-1.65,0.01-2.4,0.26
	c-1.35,0.45-2.36,1.41-2.77,2.62c-0.09,0.29-0.15,0.59-0.18,0.89c-1.12-0.04-2.25,0.41-3.16,1.29c-0.9,0.86-1.51,2.06-1.77,3.4
	c-1.86-1.07-4.03-1.07-5.46,0.18c-0.16,0.14-0.28,0.31-0.42,0.47c-0.78-0.76-1.76-1.22-2.84-1.22c-0.01,0-0.02,0-0.04,0
	c-0.36-1.56-0.93-4.37-0.78-6.31c0.05-0.64-0.37-1.22-1-1.36C644.11,375.34,629.85,371.9,623.6,361.53z M661.25,384.87
	c-0.26,1.63-1.4,2.86-2.45,2.7c-0.61-0.1-0.99-0.64-1.16-0.95c-0.34-0.65-0.47-1.52-0.33-2.38c0.13-0.85,0.52-1.64,1.05-2.15
	c0.23-0.22,0.67-0.57,1.2-0.57c0.07,0,0.13,0.01,0.19,0.02C660.82,381.71,661.51,383.23,661.25,384.87z M655.07,390.35
	c-0.82,0.71-2.43,0.26-3.52-0.98c-0.57-0.65-0.93-1.45-0.98-2.19c-0.03-0.35,0-1.01,0.47-1.42c0.26-0.23,0.61-0.34,0.99-0.34
	c0.81,0,1.78,0.48,2.52,1.32c0.57,0.65,0.93,1.45,0.99,2.19C655.56,389.28,655.54,389.94,655.07,390.35z M646.07,391.76
	c-1.08,0-1.99-1.4-1.99-3.06c0-1.65,0.91-3.05,1.99-3.05c1.09,0,2,1.4,2,3.05C648.07,390.36,647.16,391.76,646.07,391.76z
	 M648.51,393.48c0.63-0.48,1.16-1.15,1.53-1.94c1.19,1.13,2.67,1.73,4.05,1.73c1,0,1.94-0.31,2.69-0.96
	c0.65-0.58,1.07-1.37,1.25-2.25c0.12,0.03,0.24,0.06,0.37,0.08c0.19,0.03,0.39,0.04,0.59,0.04c2.28,0,4.38-2.07,4.83-4.91
	c0.05-0.35,0.08-0.71,0.08-1.05c0.69,0.22,1.39,0.34,2.08,0.34c0.65,0,1.28-0.1,1.87-0.3c1.35-0.45,2.36-1.41,2.77-2.62
	c0.31-0.92,0.24-1.89-0.13-2.8c1.77-0.59,3.23-2.38,3.59-4.69c0.08-0.44,0.09-0.88,0.07-1.32c0.06,0.02,0.12,0.03,0.18,0.04
	c12.77,34.21,16.06,64.6,16.55,69.89c-24.46,13.82-41.68-6.04-44.41-9.48C651.08,412.67,649.13,397.28,648.51,393.48z
	 M632.79,455.84c0.35-4.52,1.98-8.27,3.29-10.63c1.45-2.62,2.38-5.41,2.78-8.32c1.19-8.78,4.66-12.69,6.89-14.35
	c-0.45,3.39-1.09,6.99-1.95,10.75c-0.08,0.37,0,0.76,0.22,1.06c0.16,0.21,11.86,15.78,30.04,15.78c5.7,0,12.03-1.53,18.85-5.54
	c0.43-0.25,0.67-0.73,0.64-1.22c-0.01-0.12-0.36-4.47-1.44-11.71c8.31,7.61,7.78,16.74,6.61,21.77c-0.71,3.03-0.84,6.06-0.39,9.03
	c0.37,2.46,0.56,5.54,0.55,8.91c0,2.8-1.62,5.39-4.12,6.59c0,0.01,0,0.01,0,0.01h-0.01c-28.03,13.49-49.31-2.42-57.16-9.89
	C634.19,464.85,632.44,460.39,632.79,455.84z M585.34,539.58c0.48-0.19,0.76-0.3,0.78-0.31c0.09-0.03,0.18-0.08,0.27-0.14l0.09-0.06
	c2.53-1.72,4.62-4.07,6.06-6.81c15.77-30.11,33.85-59.94,39.03-68.38c0.95,2.25,2.38,4.33,4.22,6.08
	c5.94,5.65,19.18,15.88,37.13,15.88c6.48,0,13.57-1.34,21.15-4.7c0.02,3.97-0.3,13.29-3.36,21.01c-2.09,5.27-3.53,10.02-4.41,14.52
	c-2.21,11.29-7.46,33.21-17.79,53.4c-1.35,1.13-10.68,8.49-23.49,6.56c-13.12-1.98-25.54-12.7-36.9-31.88
	c-0.37-0.62-1.16-0.82-1.78-0.46c-0.62,0.37-0.83,1.16-0.46,1.78c11.79,19.91,24.85,31.06,38.79,33.14c1.63,0.24,3.2,0.35,4.71,0.35
	c9.3,0,16.24-4.12,19.31-6.34c12.33,61.3,18.85,116,20.58,131.44c0.29,2.61,0.63,4.76,1.09,6.77c1.83,8.09,0.14,11.82-1.07,13.36
	c-1.41-2.46-3.49-4.59-6.12-6.43c-0.15-0.17-0.33-0.3-0.55-0.37c-1.99-1.33-4.26-2.49-6.78-3.52c-0.22-0.2-0.51-0.33-0.83-0.34
	c-3.18-1.24-6.71-2.27-10.5-3.12c-0.2-0.12-0.42-0.21-0.67-0.21c-0.05,0-0.1,0.02-0.15,0.03c-2.47-0.53-5.04-0.99-7.69-1.38
	c-0.18-0.08-0.37-0.15-0.58-0.15c-0.07,0-0.13,0.03-0.2,0.04c-11.5-1.62-24.38-2.02-36.48-1.82c-0.03,0-0.06-0.02-0.09-0.02
	c-0.04,0-0.07,0.02-0.1,0.02c-12.81,0.22-24.73,1.1-33.18,1.9c-7.29,0.68-15.04,0.96-23.03,0.83c-2.08-0.04-4.04-0.02-5.93,0.02
	c-0.01,0-0.03-0.01-0.04-0.01c-0.02,0-0.03,0.01-0.05,0.02c-1.88,0.04-3.68,0.12-5.39,0.23c-0.79-5.38-0.38-9.98-0.15-11.79
	c0.14-1.07,0.26-2.14,0.36-3.21c1.51-15.65,1.22-34.84,1.02-42.37c-0.05-2.05-0.19-4.27-0.42-6.79c-2.2-23.78-1.32-52.38-1.31-52.64
	c0.15-2.82,0.8-6.34,1.75-10.13c7.69-10.68,13.97-21.16,15.96-24.53c4.47,2.59,7.56,4.91,9.06,6.11c0.63,0.5,1.47,0.61,2.2,0.28
	c0.73-0.33,1.21-1.03,1.26-1.84C581.09,555.33,584.53,542.5,585.34,539.58z M686.44,741.8c-1.22-1.22-2.41-2.59-2.95-3.21v-16.74
	c1.83,1.58,3.24,3.36,4.14,5.37C687.74,728.3,688.26,734.35,686.44,741.8z M680.89,719.9v18.16c-1.93,0.4-3.64,0.2-4.61,0v-20.65
	C677.96,718.16,679.5,718.99,680.89,719.9z M663.49,767.26c-1.02,0.16-2.01,0.29-2.99,0.4c-10.15,1.12-18.32-0.63-24.38-5.26
	c-4.05-3.09-6.64-7.12-8.31-11.02c-0.47-1.09-0.87-2.17-1.2-3.22c16.93-0.17,30.98-0.04,34.86,0.01c1.59,8.26,3.22,15.83,3.85,18.77
	C664.7,767.05,664.09,767.16,663.49,767.26z M663.82,746.63c-0.11-0.6-0.64-1.04-1.26-1.05c-0.16,0-16.47-0.23-36.67-0.01
	c-0.73-2.98-0.96-5.43-1.04-6.69c1.2-0.14,2.46-0.44,3.72-0.97c2.17,0.23,14.58,1.51,26.54,1.56c0.65,0.3,2.2,0.89,4.36,0.89
	c1.29,0,2.81-0.23,4.47-0.85c0.36,0.06,0.98,0.16,1.82,0.28c0.53,3.03,2.31,13.04,5.09,25.91c-1.01,0.27-2,0.5-2.98,0.72
	C667.21,763.38,665.48,755.28,663.82,746.63z M620.14,736.13l-0.18-25.99c2.29-0.03,4.6-0.03,6.94-0.02l0.18,25.59
	C624.34,736.71,621.54,736.4,620.14,736.13z M629.5,710.16c8.33,0.13,16.79,0.62,24.62,1.66v25.04c-10.45-0.1-21.03-1.1-24.45-1.45
	L629.5,710.16z M656.72,737.32v-25.13c1.99,0.3,3.94,0.65,5.82,1.03v24.04C659.81,738.14,657.72,737.67,656.72,737.32z
	 M665.14,737.07v-23.28c3.06,0.72,5.93,1.56,8.54,2.55v21.42C669.87,737.71,666.7,737.31,665.14,737.07z M617.54,736
	c-9.33,0.95-17.77,0.48-20.77,0.26l-0.24-25.14c6-0.41,13.17-0.78,20.83-0.94L617.54,736z M594.18,736.6
	c-2.89,1.07-5.8,0.38-7.13-0.05l-0.25-24.66c2.04-0.18,4.44-0.38,7.13-0.58L594.18,736.6z M584.45,736.28
	c-5.05,0.5-9.51,0.4-11.54,0.31l-0.57-23.81c4.06-0.11,8.02-0.33,11.86-0.67L584.45,736.28z M560.21,720.99
	c-0.7,0.02-1.26,0.6-1.26,1.3v14.54h-1.28v-23.98c0.43-0.01,0.84-0.02,1.28-0.02v5.75c0,0.72,0.58,1.3,1.3,1.3h6.18
	c0.71,0,1.3-0.58,1.3-1.3v-5.71c0.67-0.01,1.34-0.02,2.01-0.03l0.56,23.68h-2.18l-0.57-14.46c-0.03-0.71-0.66-1.25-1.34-1.25
	L560.21,720.99z M565.52,736.54c-1.35,0.05-2.88,0.13-3.97,0.2v-13.19l3.45-0.1L565.52,736.54z M561.55,717.28v-4.44
	c0.25,0,0.49,0,0.74,0.01c0.96,0.01,1.89,0,2.84,0.01v4.42H561.55z M545.27,729.2c-0.25-0.25-0.6-0.39-0.95-0.36l-4.24,0.17
	c-0.63,0.03-1.16,0.51-1.23,1.14c-0.44,3.77,1.18,7.26,4.22,9.17c-4.16,0.78-8.36,1.04-10.37,1.12l-1.65-23.34
	c4.3-1.7,10.12-3.14,17.97-3.83v17.99c0,0.87-0.71,2-1.43,2.27c-0.19,0.07-0.39,0.12-0.77-0.06c-0.7-0.33-1.15-1.11-1.15-1.98v-1.36
	C545.67,729.78,545.53,729.44,545.27,729.2z M541.38,731.54l1.69-0.07v0.02c0,1.86,1.04,3.55,2.64,4.3c0.94,0.45,1.86,0.5,2.79,0.15
	c1.75-0.65,3.12-2.71,3.12-4.68v-18.18c0.5-0.03,1-0.06,1.51-0.09v20.03c0,1.98-1.42,3.37-2.61,4.19c-1.72,1.17-3.99,1.18-5.93,0.02
	C542.57,736.03,541.42,733.95,541.38,731.54z M563.28,551.45c4.95-4.31,13.92-8.46,19.02-10.63c-1.22,4.62-3.65,14.45-4.18,21.75
	c-1.89-1.46-5.23-3.85-9.82-6.41c-0.63-0.35-1.41-0.13-1.77,0.48c-0.06,0.11-5.13,8.93-12.21,19.33
	C557.82,564.68,562.49,553.34,563.28,551.45z M558.41,556.58c-2.41,6.14-5.94,15.72-8.25,24.42c-4.7-6.94-5.31-15.06-5.37-17.68
	C550.38,561.28,555.29,558.52,558.41,556.58z M528.06,566.14c5.25-1.33,11.43-2.04,14.14-2.31c0.12,3.56,1.06,12.85,7.14,20.42
	c-0.14,0.59-0.27,1.17-0.39,1.75c-7.44-8.28-16.29-14.81-16.69-15.11c-0.34-0.25-0.78-0.32-1.18-0.19c-0.4,0.14-0.71,0.45-0.84,0.85
	c-2.29,7.4-5.31,16.06-7.45,22.05C523.22,580.24,527.07,568.85,528.06,566.14z M495.6,627.22c2.18-25.33,19.78-45.08,27.16-52.33
	c-1.42,5.91-2.74,13.84-2.6,22.41c0.02,0.97,0.7,1.75,1.65,1.91c0.12,0.02,0.23,0.03,0.34,0.03c0.83,0,1.55-0.5,1.84-1.3
	c1.93-5.32,5.44-15.19,8.18-23.84c3.07,2.39,10.37,8.36,16.16,15.14c-0.25,1.56-0.43,3.03-0.5,4.36
	c-0.01,0.29-0.89,29.05,1.32,52.98c0.23,2.47,0.36,4.64,0.41,6.62c0.2,7.48,0.49,26.56-1.01,42.06c-0.1,1.05-0.22,2.09-0.35,3.13
	c-0.3,2.35-0.64,6.93,0.14,12.32c-15.24,1.4-23.23,5.55-27.4,9.26c0.1-3.63,0.71-8,1.83-13.05c1-4.53,1.69-9.14,2.07-13.75
	c0-0.02,0.01-0.04,0.01-0.06s-0.01-0.04-0.01-0.06c0.63-7.81,0.34-15.66-0.84-23.32c0-0.03-0.01-0.06-0.01-0.08
	c-0.35-2.26-0.77-4.49-1.27-6.7c-4.15-18.18-5.1-33.76-5.11-33.91c-0.05-0.72-0.64-1.25-1.38-1.22c-0.71,0.04-1.26,0.65-1.22,1.37
	c0.01,0.16,0.98,15.93,5.17,34.33c0.36,1.58,0.68,3.18,0.96,4.78c-9.18-1.91-27.41-6.66-34.57-12.32
	C493.98,645.61,495.54,627.99,495.6,627.22z M530.12,740.91c-1.05,0.32-3,0.72-4.98,0l-1.07-20.05c1.19-0.89,2.65-1.79,4.45-2.66
	L530.12,740.91z M478.34,677.95c-0.56-0.98-0.36-2.28,0.5-3.15c4.33-4.41,5.21-12.65,5.33-17.48c8.47,7.55,31.77,12.59,37.4,13.72
	c0.98,6.76,1.23,13.66,0.77,20.54c-23.89-2.2-35.06-6.34-40.25-9.91c-0.04-0.03-0.08-0.05-0.12-0.08
	C480.04,680.25,478.95,678.98,478.34,677.95z M439.19,730.66c-0.45-0.39-0.29-0.84-0.21-1.02c0.09-0.18,0.35-0.58,0.94-0.45
	c3.25,0.66,5.96,1.56,7.98,2.65c-1.04,0.73-2.09,1.51-3.15,2.38c-0.14,0.11-0.28,0.21-0.41,0.32
	C443.34,733.9,441.41,732.59,439.19,730.66z M494.85,728.91c-2.71,2.67-5.02,5.72-6.85,9.05c-2.5,4.56-9.1,12.6-25.21,15.15
	c-4.11,0.66-8.07,2.25-11.48,4.63c-2.17,1.51-4.4,2.66-6.64,3.42c-1.02,0.34-1.8-0.16-2.18-0.74c-0.18-0.27-0.69-1.23,0.18-2.2
	c4.16-4.6,7.22-9.37,9.09-14.17c0.26-0.66-0.07-1.42-0.74-1.68c-0.67-0.25-1.43,0.07-1.69,0.74c-0.39,1.03-0.86,2.05-1.37,3.07
	c-6.8,1.26-12.53,0.98-17.04-0.86c-1.22-0.5-1.17-1.63-1.12-1.97c0.1-0.72,0.6-1.54,1.7-1.66c1.76-0.2,3.48-0.48,5.12-0.82
	c3.06-0.64,5.95-1.89,8.44-3.63c0,0,0.01-0.01,0.02-0.01c0.45-0.32,0.9-0.65,1.32-1c5.41-4.45,10.76-6.99,14.3-8.33
	c2.77-1.05,5-3.24,6.14-6.02c6.3-15.43,12.97-32.31,14.95-37.33c6.32,3.83,18.24,7.58,40.34,9.62c-0.2,2.1-0.46,4.19-0.79,6.28
	C519.59,702.5,508.29,715.69,494.85,728.91z M519.02,727.04c0.12-0.4,0.68-2,2.56-3.99l0.97,18.23l-1,1.03
	C519.18,735.55,519.03,728.17,519.02,727.04z M446.15,941.48c-1.33-1.02-1.9-2.78-1.43-4.38c2.91-9.88,16.82-18.09,19.57-19.63
	c5.08,1.55,15.45,5.98,33.77,18.69c6.14,4.27,12.86,7.52,19.85,9.7C470.54,955.17,452.01,945.99,446.15,941.48z M576.92,840.52
	c-5.69,5.15-9.23,12.24-9.97,19.96c-2.93,30.78-7.51,56.98-10.45,71.92c-0.28,1.38-0.53,2.65-0.77,3.83
	c-0.9,4.39-1.56,7.39-1.86,8.73c-0.54,0.12-1.07,0.23-1.61,0.34c-5.05,1-10.19,1.37-15.32,1.19c1.1-2.65,2.16-5.38,3.18-8.18
	c0.49-1.33,0.97-2.67,1.44-4.03c9.6-27.62,15.86-60.42,18.96-79.21c1.41-8.54,5.69-16.51,12.03-22.45
	c12.78-11.96,23.91-21.16,27.06-23.74c1.41,1.47,2.81,3.03,4.17,4.66C595.08,823.62,584.42,833.73,576.92,840.52z M720.54,948.48
	c-0.09,1.77-1.3,3.27-3.01,3.73c-3.25,0.87-6.42,1.56-9.5,2.1c-23.12,4.06-40.89-0.63-48-3.07c-1.66-0.57-2.84-2.07-3.01-3.81
	c-0.27-2.93-0.28-5.66-0.27-6.68c0.36-0.49,0.75-0.96,1.16-1.39c-0.03,1.1-0.04,2.41,0.04,3.81c0.04,0.91,0.5,1.73,1.25,2.24
	s1.66,0.64,2.52,0.36c0.21-0.07,0.42-0.14,0.65-0.2c6.57-2.02,23.11-5.25,47.31,2.52c0.48,0.15,0.96,0.22,1.44,0.22
	c2,0,3.87-1.25,4.55-3.22c0.6-1.78,1.3-4.33,1.51-7.09c1.1,0.29,2.15,0.57,3.17,0.85C720.72,942.38,720.66,945.99,720.54,948.48z
	 M660.66,937.07c11.9-7.99,36.36-4.09,53.96,0.28c-0.14,2.66-0.83,5.18-1.41,6.9c-0.39,1.11-1.61,1.72-2.74,1.36
	c-25.77-8.27-43.25-4.37-49.56-2.31c-0.08,0.03-0.16,0.02-0.24-0.03c-0.04-0.03-0.12-0.11-0.13-0.24
	C660.4,940.43,660.57,938.1,660.66,937.07z M724.56,937.33c-20.61-6.03-56.01-13.61-68.86,0.57c0.01-2.51-0.07-5.02-0.22-7.51
	c-0.08-1.42-0.19-2.83-0.33-4.24c-0.88-9.37-2.87-18.62-5.93-27.65c-7.03-20.75-22.24-60.57-42.56-85.41
	c-0.07-0.19-0.18-0.36-0.34-0.5c-0.04-0.03-0.08-0.04-0.12-0.07c-1.76-2.13-3.57-4.14-5.41-6.02c-0.03-0.06-0.04-0.12-0.08-0.17
	c-0.12-0.15-0.26-0.26-0.42-0.34c-7.7-7.74-16.03-13.08-24.85-14.4c-0.7-0.1-1.37,0.39-1.48,1.1c-0.1,0.71,0.39,1.37,1.1,1.47
	c7.99,1.2,15.61,5.93,22.71,12.87c-3.42,2.8-14.41,11.91-26.99,23.69c-6.77,6.33-11.32,14.83-12.82,23.92
	c-3.12,18.9-9.45,52.07-19.17,79.68c-0.46,1.34-0.94,2.67-1.43,3.98c-1.03,2.76-2.09,5.44-3.18,8.04
	c-12.24-0.93-24.28-5.12-34.64-12.31c-18.87-13.1-29.57-17.63-34.94-19.18c-0.05-0.02-0.09-0.03-0.13-0.04
	c-0.95-0.27-1.73-0.44-2.35-0.56c0.84-1.84,1.66-3.68,2.48-5.52c0.54-1.22,1.08-2.44,1.62-3.65c36.01-81.7,54.6-154.17,56.02-159.76
	l1.96-2c1.15,0.43,2.29,0.6,3.32,0.6c2.02,0,3.62-0.58,4.25-0.85c1.33-0.03,7.55-0.23,13.4-1.52c3.56-0.79,6.3-1.31,8.2-1.64
	c0.03,6.3,0.56,29.82,6.72,42.14c0.23,0.45,0.69,0.72,1.16,0.72c0.2,0,0.4-0.05,0.58-0.14c0.64-0.32,0.9-1.1,0.58-1.74
	c-5.97-11.95-6.41-36.01-6.44-41.4c0.24-0.03,0.4-0.05,0.48-0.06h3.8c0.03,0,0.06,0,0.09-0.01c0.05,0,4.31-0.3,6.53-0.3h4.71
	c0.3,0.02,2.13,0.15,4.88,0.15c2.47,0,5.67-0.11,9.11-0.49c0.77,0.31,2.78,0.99,5.28,0.99c1.5,0,3.16-0.27,4.83-0.99
	c1.08,0.09,4.89,0.39,10.07,0.39c3.78,0,8.3-0.16,12.99-0.68c0.53,0.14,1.82,0.43,3.51,0.49c0.1,2,0.54,6.62,2.45,11.75
	c0.36,0.98,0.78,1.98,1.27,2.98c1.82,3.81,4.53,7.66,8.56,10.75c5.35,4.09,12.13,6.14,20.28,6.14c2.41,0,4.95-0.18,7.6-0.55
	c1.53-0.21,3.1-0.48,4.71-0.81c0.02,0,0.03,0,0.04,0l0.01-0.01c1.38-0.28,2.8-0.61,4.24-0.98c0.19,0.87,0.39,1.76,0.59,2.66
	c0.21,0.96,0.43,1.93,0.66,2.92c2.52,11.04,5.64,23.36,9.21,34.88c3.88,12.48,9.39,24.51,16.4,35.75
	c9.69,15.54,30.13,52.45,27.71,83.79c-0.08,1-0.18,2-0.32,2.99C725.41,933.3,725.04,935.33,724.56,937.33z M735,937.47
	c-0.11,0.74-0.52,1.37-1.16,1.77c-0.66,0.41-1.46,0.5-2.2,0.26c-1.39-0.44-2.93-0.93-4.58-1.43c0.66-2.66,1.11-5.38,1.39-8.14
	c0.03-0.16,0.04-0.32,0.05-0.48c2.97-30.92-15.73-66.66-28.02-86.36c-6.89-11.06-12.32-22.89-16.13-35.16
	c-3.73-12-6.95-24.89-9.51-36.26c-3.38-14.92-5.62-27.23-6.39-31.58c1.68,0.15,3.7,0.27,5.91,0.27c0.14,0,0.28,0,0.42,0
	c0.54,0.16,1.95,0.53,3.82,0.53c0.95,0,2.01-0.1,3.13-0.36c0.85,0.98,2.57,2.92,4.11,4.29c0.05,4.78,0.65,37.38,7.97,71.72
	c1.64,7.66,4.74,14.78,9.22,21.16c10.66,15.16,33.74,52.46,32.82,89.77c-0.03,1.34-0.1,2.69-0.2,4.03
	C735.51,933.5,735.29,935.49,735,937.47z M708.89,951.29c-0.08,0.61-0.57,1.07-1.18,1.12c-0.53,0.04-6.77,0.53-15.02,0.53
	c-9.23,0-21-0.61-30.14-3.16c-0.56-0.16-0.95-0.67-0.95-1.26c0-0.58,0.39-1.09,0.95-1.25c0.05-0.01,0.16-0.04,0.32-0.08
	c2.93-0.75,23.48-5.46,45.19,2.71C708.63,950.11,708.98,950.69,708.89,951.29z M565.2,586.78c1.07,3.13,2.84,6.03,4.14,7.92
	c1.2,1.75,3.07,2.89,5.14,3.13c0.84,0.1,1.66,0.14,2.44,0.14c12.81,0,17.72-12.63,19.28-18.32c0.48-1.73,0.41-3.57-0.18-5.31
	c-1.77-5.19-4.33-9.99-4.44-10.19c-0.22-0.4-0.62-0.66-1.08-0.69c-0.46-0.03-0.89,0.19-1.14,0.57
	c-8.54,12.53-23.43,21.12-23.58,21.2C565.24,585.54,564.99,586.19,565.2,586.78z M590.24,567.27c0.9,1.85,2.27,4.84,3.32,7.91
	c0.42,1.25,0.47,2.56,0.13,3.78c-1.47,5.39-6.28,17.77-18.91,16.29c-1.32-0.16-2.52-0.89-3.3-2.02c-1.06-1.55-2.47-3.83-3.46-6.31
	C571.35,584.89,582.52,577.64,590.24,567.27z M581.88,591.44c2.3,0,4.18-1.88,4.18-4.18c0-2.31-1.88-4.19-4.18-4.19
	c-2.31,0-4.19,1.88-4.19,4.19C577.69,589.56,579.57,591.44,581.88,591.44z M581.88,585.24c1.11,0,2.01,0.9,2.01,2.02
	c0,1.11-0.9,2.01-2.01,2.01c-1.12,0-2.02-0.9-2.02-2.01C579.86,586.14,580.76,585.24,581.88,585.24z M559.58,642.81
	c-2.9,0-5.27,2.37-5.27,5.28c0,2.91,2.37,5.27,5.27,5.27c2.91,0,5.28-2.36,5.28-5.27C564.86,645.18,562.49,642.81,559.58,642.81z
	 M559.58,650.76c-1.47,0-2.67-1.2-2.67-2.67c0-1.48,1.2-2.68,2.67-2.68c1.48,0,2.68,1.2,2.68,2.68
	C562.26,649.56,561.06,650.76,559.58,650.76z M559.58,683.76c-2.9,0-5.27,2.36-5.27,5.27c0,2.91,2.37,5.27,5.27,5.27
	c2.91,0,5.28-2.36,5.28-5.27C564.86,686.12,562.49,683.76,559.58,683.76z M559.58,691.7c-1.47,0-2.67-1.2-2.67-2.67
	c0-1.48,1.2-2.68,2.67-2.68c1.48,0,2.68,1.2,2.68,2.68C562.26,690.5,561.06,691.7,559.58,691.7z M558.59,594.82
	c2.91,0,5.27-2.37,5.27-5.27c0-2.91-2.36-5.28-5.27-5.28c-2.91,0-5.27,2.37-5.27,5.28C553.32,592.45,555.68,594.82,558.59,594.82z
	 M558.59,586.87c1.47,0,2.67,1.2,2.67,2.68c0,1.47-1.2,2.67-2.67,2.67c-1.47,0-2.67-1.2-2.67-2.67
	C555.92,588.07,557.12,586.87,558.59,586.87z M558.59,618.8c2.91,0,5.27-2.36,5.27-5.27c0-2.91-2.36-5.27-5.27-5.27
	c-2.91,0-5.27,2.36-5.27,5.27C553.32,616.44,555.68,618.8,558.59,618.8z M558.59,610.86c1.47,0,2.67,1.19,2.67,2.67
	c0,1.47-1.2,2.67-2.67,2.67c-1.47,0-2.67-1.2-2.67-2.67C555.92,612.05,557.12,610.86,558.59,610.86z M447.79,936.79
	c24.26,5.78,54.9,5.49,55.21,5.49c0.66,0.01,1.23,0.49,1.31,1.16c0.07,0.66-0.36,1.27-1.01,1.41c-9.22,2.04-17.22,2.83-24.05,2.83
	c-22.06,0-32.07-8.18-32.6-8.63c-0.46-0.39-0.6-1.04-0.32-1.58C446.6,936.93,447.2,936.65,447.79,936.79z"/>
<path id="CODE_x5F_542E22" class="st2" d="M716.19,332.72c-1.44-2.02-3.1-3.87-5-5.48c-13.5-11.48-28.02-4.81-35.47,0.18
	c-3.07,2.05-4.98,5.31-5.24,8.94c-0.6,8.13-0.29,17.33,0.04,23.24c-3.23-5.29-9.38-13.35-19.61-19.88
	c-10.71-18.05-25.01-34.36-25.15-34.52c-0.27-0.31-0.68-0.47-1.08-0.44c-0.41,0.03-0.77,0.25-0.99,0.59
	c-4.63,7.24-15.64,11.47-18.52,12.48l-6.27-5.78c-1.43-1.32-3.54-1.47-5.15-0.36c-1.68,1.17-2.25,3.36-1.34,5.19
	c0.32,0.66,0.69,1.4,1.11,2.19c-2.64,0.46-6.04,0.31-8.63,0.06c8.21-5.98,10.37-17.59,10.46-18.14c0.11-0.61-0.22-1.21-0.8-1.44
	c-0.57-0.22-1.23-0.02-1.56,0.5c-7.38,11.29-21.11,18-29.58,21.26c-2.42,0.93-4.41,1.58-5.7,1.97c-0.02-0.73-0.06-1.46-0.12-2.17
	c-1.32-17.69-12.66-29.44-13.18-29.97c-0.35-0.36-0.89-0.48-1.37-0.3c-0.48,0.17-0.81,0.61-0.85,1.12
	c-0.86,12.19-3.26,21.9-6.15,29.48c-1.83,4.82-3.87,8.78-5.83,11.98c-3.35,5.46-6.5,8.7-8.13,10.19c-1.1-1.99-2.39-3.92-3.83-5.78
	c-2.34-3.05-5.06-5.92-7.95-8.58c-12-11.05-26.99-18.52-30.42-20.16c-0.61-11.31-1.9-24-4.29-37.5c-0.13-0.7-0.8-1.17-1.51-1.05
	c-0.7,0.13-1.18,0.8-1.05,1.51c7.65,43.2,3.93,78.03,3.01,85.25c-48.95-11.38-68.76-73.24-68.96-73.87
	c-0.21-0.68-0.94-1.06-1.63-0.85c-0.68,0.21-1.07,0.94-0.85,1.63c0.05,0.16,5.18,16.43,16.56,33.79
	c4.55,6.94,10.53,14.67,18.02,21.68c8.46,29.73,24.22,47.61,31.25,54.44c-46.24-9.75-76.65-40.19-90.44-90.51
	c-10.65-38.91-6.78-75.75-6.74-76.12c0.08-0.71-0.44-1.35-1.15-1.43c-0.71-0.08-1.36,0.43-1.44,1.15
	c-0.04,0.37-3.96,37.64,6.81,77.01c4.81,17.59,11.79,32.98,20.82,45.96c-0.43,16.53,11.13,33.2,15.67,39.09
	c-17.55-1.39-26.23-22.91-26.32-23.14c-0.24-0.6-0.88-0.93-1.51-0.79c-0.63,0.15-1.05,0.74-1,1.38
	c1.77,20.98,19.48,40.05,26.17,46.56c-4.19-0.14-8.25-0.53-12.19-1.15c-4.13-0.66-8.11-1.59-11.96-2.78
	c-23.2-7.18-41.27-24.05-53.92-50.41c-12.95-26.99-15.02-54.35-15.04-54.62c-0.05-0.72-0.67-1.26-1.38-1.21
	c-0.72,0.05-1.26,0.67-1.21,1.39c0.02,0.28,2.11,28.06,15.26,55.5c6.87,14.35,17.64,30.26,34.18,41.43
	c1.08,10.09,11.74,19.51,19.81,25.28c3,2.15,5.65,3.79,7.3,4.77c-5.3,3.71-10.63,6.26-15.98,7.63c-6,1.55-12.01,1.61-17.99,0.18
	c-27.78-6.61-46.29-43.21-46.47-43.58c-0.32-0.64-1.1-0.9-1.74-0.58c-0.65,0.32-0.91,1.1-0.59,1.74
	c0.77,1.55,19.22,38.05,48.19,44.95c3.06,0.73,6.12,1.09,9.18,1.1c0.64,2.13,2.45,7.52,6.15,14.12c0.94,1.69,2.01,3.46,3.21,5.27
	c-6.37,0.91-27.39,2-40.93-20.11c-0.32-0.52-0.96-0.75-1.54-0.55c-0.58,0.21-0.94,0.79-0.85,1.4c0.05,0.4,1.09,7.65,4.91,13.86
	c-8.12-4.69-23.63-15.4-36.77-34.63c-17.26-25.28-33.75-70.84-14.27-144.33c10.48-39.56,31.82-74.14,61.72-99.98
	c33.47-28.93,70.23-41.3,109.32-36.79c-7.18,5.1-10.26,11.12-10.32,11.24c-0.32,0.65-0.05,1.42,0.59,1.74
	c0.18,0.09,0.38,0.14,0.57,0.14c0.48,0,0.94-0.27,1.17-0.73c0.43-0.87,10.93-21.28,40.25-15.88c0.7,0.12,1.38-0.34,1.51-1.05
	c0.13-0.7-0.34-1.38-1.04-1.51c-5.42-1-10.23-1.12-14.51-0.67c5.17-3.48,14.81-9.22,28.32-14.07c19.24-6.91,50.47-13.36,89.98-4.85
	c44.92,9.68,83.23,37.4,105.11,76.04c8.27,14.62,14.02,30.32,17.13,46.76c-2.49-3.77-6.18-8.47-10.77-11.84
	c-10.15-20.76-21.39-32.4-21.51-32.53c-0.5-0.51-1.32-0.52-1.84-0.02c-0.51,0.5-0.52,1.32-0.02,1.84
	c0.13,0.13,13.15,13.63,23.68,37.56C715.49,254.88,724.8,289.42,716.19,332.72z M564.77,384.13c0.94,2.91,1.28,5.59,1.01,7.95
	c-0.47,4.15-3.79,7.42-7.9,7.78c-6.22,0.54-9.68-5.86-9.72-5.92c-0.13-0.26-0.37-0.44-0.65-0.51c-0.29-0.06-0.58,0-0.82,0.17
	l-9.95,7.22c-1.81-3.67-2.84-7.9-2.84-12.41c0-8.94,3.36-16.32,9.48-20.82c4.99-1.01,10.58-1.37,16.79-0.77
	c2.89,0.27,5.8,0.77,8.73,1.48c2.75,2.3,4.88,5.19,6.33,8.52l-10.03,6.15C564.81,383.21,564.63,383.69,564.77,384.13z
	 M553.15,373.79c-0.47-2.17-1.69-3.84-3.46-4.68c-1.77-0.84-3.84-0.75-5.82,0.25c-1.89,0.96-3.49,2.67-4.51,4.79
	c-1.02,2.13-1.33,4.44-0.89,6.52c0.46,2.18,1.69,3.84,3.46,4.68c0.8,0.39,1.67,0.58,2.56,0.58c1.07,0,2.18-0.28,3.26-0.83
	c1.89-0.96,3.49-2.66,4.51-4.79C553.27,378.19,553.59,375.87,553.15,373.79z M444.09,451.51c-1.58-6.78-5.12-12.09-8.26-13.8
	c-6.74,0.77-12.19,2.29-16.57,4.14c0.19,0.05,0.38,0.11,0.57,0.18c1.95,0.72,3.45,2.3,4.21,4.43c0.73,2.08,0.69,4.44-0.13,6.67
	c-1.4,3.77-4.7,6.19-8.02,6.19c-0.77,0-1.54-0.13-2.29-0.4c-1.96-0.73-3.45-2.3-4.21-4.44c-0.07-0.19-0.13-0.38-0.18-0.58
	c-0.35,1.26-0.62,2.58-0.81,3.93c-0.79,5.52-0.07,10.82,1.76,15.2l10.09-7.26c0.25-0.17,0.55-0.23,0.84-0.15
	c0.29,0.07,0.53,0.27,0.66,0.54c0.02,0.06,2.47,5.2,7.59,6.77c4.26,1.31,8.81-1.11,10.13-5.4c0.98-3.16,1-7.03,0.07-11.51
	c-0.08-0.36,0.05-0.73,0.33-0.97L444.09,451.51z"/>
<path id="CODE_x5F_FDE8B8" class="st3" d="M686.19,402.31c-2.29-9.04-5.25-19.02-9.06-29.36c0.33-0.06,0.66-0.15,0.97-0.27
	c1.33-0.52,2.29-1.53,2.63-2.76c0.69-2.44-1.19-5.11-4.19-5.95c-1.06-0.3-2.14-0.34-3.14-0.14c-0.18-2.48-0.5-7.39-0.62-13.07
	c5.35-8.1,11.36-12.62,17.88-13.4c9.05-1.07,16.11,5.54,16.18,5.61c0.44,0.41,1.14,0.4,1.56-0.04c0.42-0.44,0.4-1.13-0.03-1.55
	c-0.32-0.3-7.85-7.4-17.95-6.21c-6.46,0.77-12.39,4.74-17.68,11.81c0-3.45,0.08-7.04,0.33-10.44c0.21-2.82,1.7-5.36,4.1-6.96
	c6.84-4.59,20.14-10.73,32.34-0.36c6.08,5.18,9.7,12.96,9.92,21.36C719.9,368.8,716.16,399.51,686.19,402.31z M674.15,372.83
	c0.02,0.44,0.01,0.88-0.07,1.32c-0.36,2.31-1.82,4.1-3.59,4.69c0.37,0.91,0.44,1.88,0.13,2.8c-0.41,1.21-1.42,2.17-2.77,2.62
	c-0.59,0.2-1.22,0.3-1.87,0.3c-0.69,0-1.39-0.12-2.08-0.34c0,0.34-0.03,0.7-0.08,1.05c-0.45,2.84-2.55,4.91-4.83,4.91
	c-0.2,0-0.4-0.01-0.59-0.04c-0.13-0.02-0.25-0.05-0.37-0.08c-0.18,0.88-0.6,1.67-1.25,2.25c-0.75,0.65-1.69,0.96-2.69,0.96
	c-1.38,0-2.86-0.6-4.05-1.73c-0.37,0.79-0.9,1.46-1.53,1.94c0.62,3.8,2.57,19.19-2.04,39.8c2.73,3.44,19.95,23.3,44.41,9.48
	c-0.49-5.29-3.78-35.68-16.55-69.89C674.27,372.86,674.21,372.85,674.15,372.83z M612.48,332.28c-1.94,0.23-4.68,0.52-7.84,0.73
	c-0.01,0-0.01,0-0.02,0c0,0,0,0-0.01,0c-4.26,0.28-9.31,0.4-14.25,0.04c-1.42-0.1-2.23,0.88-2.5,1.75
	c-0.27,0.87-0.15,2.04,1.02,2.72c5.16,3.02,13.79,2.53,27.17-1.53c0.69-0.21,1.41,0.18,1.62,0.86c0.21,0.69-0.18,1.42-0.87,1.63
	c-9.68,2.94-17.09,4.06-22.67,3.37l-0.09,0.01c-1.78,0.23-2.58,1.59-2.72,2.77c-0.15,1.15,0.29,2.74,2,3.42
	c11.3,4.49,25.14-3.39,25.28-3.47c0.62-0.36,1.42-0.15,1.78,0.47s0.14,1.42-0.48,1.78c-0.44,0.25-8.27,4.71-17.33,5.17l-3.95,2.01
	c-0.62,0.31-0.98,0.91-0.97,1.6c0.02,0.69,0.4,1.27,1.02,1.56c2.29,1.07,4.91,1.39,7.57,0.95c4.1-0.67,8.52-0.51,11.51-0.24
	c2.41,0.2,4.59,1.57,5.85,3.65c6.25,10.37,20.51,13.81,20.65,13.85c0.63,0.14,1.05,0.72,1,1.36c-0.15,1.94,0.42,4.75,0.78,6.31
	c0.02,0,0.03,0,0.04,0c1.08,0,2.06,0.46,2.84,1.22c0.14-0.16,0.26-0.33,0.42-0.47c1.43-1.25,3.6-1.25,5.46-0.18
	c0.26-1.34,0.87-2.54,1.77-3.4c0.91-0.88,2.04-1.33,3.16-1.29c0.03-0.3,0.09-0.6,0.18-0.89c0.41-1.21,1.42-2.17,2.77-2.62
	c0.75-0.25,1.57-0.32,2.4-0.26c-0.16-0.76-0.2-1.59-0.06-2.44c0.44-2.78,2.46-4.83,4.7-4.9c0.01-0.32,0.05-0.65,0.14-0.96
	c0.16-0.56,0.45-1.07,0.83-1.51c-2.17-4.72-14.8-28.74-48.63-33.11C619.05,331.85,615.83,331.87,612.48,332.28z M646.15,419.28
	c-2.23,1.06-8.21,5-9.87,17.27c-0.35,2.57-1.18,5.07-2.48,7.4c-1.43,2.58-3.21,6.7-3.6,11.69c-0.13,1.68-0.01,3.35,0.33,4.97
	c-2.65,4.29-22.88,37.19-40.3,70.45c-1.23,2.34-3.02,4.36-5.17,5.83c-1.73,0.67-16.6,6.45-23.73,12.81
	c-0.15,0.13-0.26,0.29-0.34,0.47c-0.07,0.17-0.4,0.95-0.89,2.17c-1.47,1.04-8.56,5.88-16.89,8.79c-1.35,0.11-9.62,0.84-16.41,2.65
	c-42.59,8.12-75.06,3.49-96.5-13.77c-22.49-18.08-25.14-44.59-25.42-48.8c0.35,0.02,0.7,0.02,1.05,0.02c2.24,0,4.48-0.18,6.5-0.67
	c0.34-0.09,0.61-0.34,0.72-0.68v-0.01c1.32,0.3,3.89,0.59,6.96-0.58c2.3-1.12,4.39-2.58,6.38-4.17c1.97-1.6,3.8-3.38,5.56-5.22
	c1.76-1.84,3.39-3.82,4.89-5.89c1.45-1.98,2.7-4.12,3.81-6.31c3.04-3.99,5.08-9,5.85-14.44c0.56-3.92,0.34-7.87-0.43-11.52
	c0-0.01,0-0.02,0-0.02c-1.34-6.38-4.33-11.84-7.74-14.64c0.1-0.14,0.16-0.3,0.17-0.47c0.04-0.49-0.27-0.93-0.74-1.05
	c-1.06-0.28-26.1-6.6-40.47,7.57c-6.49,6.4-9.67,15.89-9.53,28.36l-8.54-9.08c-1.66-2.37-3.08-4.69-4.28-6.88
	c0.1-2.04,0.51-7.72,2.23-14.02c6.06-1.62,12.09-4.66,18.05-9.12c0.36-0.26,0.55-0.69,0.52-1.13c-0.03-0.45-0.28-0.84-0.67-1.05
	c-0.1-0.05-3.5-1.93-7.88-5c1.7-2.02,6.16-7.03,11.43-10.55c5,0.82,10.31,1.27,15.94,1.28c0.54,0,1.03-0.33,1.22-0.84
	c0.19-0.5,0.05-1.08-0.36-1.43c-0.23-0.2-20.15-17.88-26.2-38.77c4.76,7.49,13.77,17.57,27.44,17.03c0.5-0.02,0.95-0.33,1.14-0.78
	c0.2-0.46,0.12-0.99-0.2-1.37c-0.16-0.19-15.18-17.93-16.7-35.87c2.08,2.76,4.25,5.41,6.52,7.92
	c17.03,18.83,39.58,30.86,67.03,35.74c0.08,0.01,0.15,0.02,0.23,0.02c0.51,0,0.98-0.3,1.19-0.77c0.24-0.55,0.08-1.19-0.39-1.56
	c-0.22-0.17-21.47-17.04-32.68-52.26c9.23,7.81,20.51,14.31,33.96,17.15c0.09,0.02,0.18,0.03,0.27,0.03c0.26,0,0.52-0.08,0.74-0.23
	c0.15-0.1,0.27-0.23,0.37-0.38c0.09-0.15,0.15-0.31,0.18-0.49c0.04-0.27,2.86-19.06,1.6-47.02c4.66,2.34,16.97,8.93,27.31,18.05
	c-4.81,2.75-19.41,12.3-26.85,30.4c-1.12,2.72-2.07,5.62-2.81,8.73c-0.11,0.46,0.12,0.93,0.55,1.13c0.13,0.07,0.28,0.1,0.42,0.1
	c0.31,0,0.61-0.14,0.8-0.4c0.17-0.22,16.2-21.31,37.18-30.08c1.51,2.01,2.83,4.09,3.9,6.23c0.17,0.34,0.48,0.59,0.85,0.68
	c0.1,0.03,0.2,0.04,0.31,0.04c0.27,0,0.53-0.08,0.75-0.24c0.4-0.29,5.2-3.83,10.3-12.24c16.91-7.06,48.67-5.25,48.99-5.23
	c0.44,0.03,0.91-0.29,1.03-0.75c0.12-0.47-0.11-0.95-0.55-1.16c-4.94-2.29-10.76-4-14.41-4.94c7.03-3,16.05-7.91,22.89-15.23
	c-1.82,4.22-5,9.3-10.3,11.59c-0.53,0.23-0.84,0.78-0.77,1.35c0.07,0.57,0.5,1.03,1.07,1.13c0.38,0.06,8.81,1.48,14.16,0.24
	c1.76,3.07,4.03,6.48,6.58,9.12c-3.43,0.14-7.18,0.15-10.87-0.12c-2.38-0.18-4.46,1.26-5.18,3.57c-0.7,2.25,0.19,4.56,2.2,5.74
	c0.83,0.49,1.75,0.89,2.73,1.22c-0.84,0.88-1.4,2.02-1.56,3.33c-0.34,2.68,1.12,5.15,3.62,6.14c1.63,0.65,3.29,1.07,4.95,1.31
	c-1.42,0.78-2.28,2.25-2.26,3.89c0.03,1.68,1,3.16,2.52,3.87c2.77,1.29,5.91,1.69,9.1,1.16c3.83-0.63,8.02-0.47,10.86-0.23
	c1.58,0.14,3.01,1.04,3.84,2.41c5.88,9.75,17.68,13.75,21.26,14.77c0.04,2.27,0.61,4.94,0.95,6.32c-1.26,1.01-2.1,2.76-2.1,4.74
	c0,3.09,2.03,5.61,4.53,5.65C646.48,397.57,647.49,406.76,646.15,419.28z M532.27,472.78c-0.58-0.43-1.39-0.31-1.82,0.26
	c-7.61,10.14-19.57,15.67-26.02,18.07c-3.81,1.41-7.2,3.96-9.81,7.37c-5.69,7.44-13.3,8.27-13.38,8.28
	c-0.71,0.07-1.23,0.7-1.17,1.42c0.07,0.67,0.63,1.18,1.3,1.18c0.04,0,0.08-0.01,0.12-0.01c0.36-0.03,8.79-0.91,15.19-9.29
	c2.31-3.02,5.3-5.27,8.65-6.52c6.72-2.49,19.19-8.27,27.2-18.94C532.96,474.03,532.84,473.21,532.27,472.78z M597.58,366.3
	c-9.48-4.21-34.61-13.38-63.25-7.69c-0.27,0.06-27.37,6.38-27.84,34.6c-0.01,0.48,0.31,0.89,0.77,0.99
	c0.07,0.02,0.15,0.03,0.23,0.03c0.14,0,0.27-0.03,0.39-0.09c2,4.38,11.71,23.19,32.31,24.93c4.51,0.52,9.11,0.04,13.56-0.9
	c4.46-0.96,8.84-2.41,12.96-4.4c4.08-2.04,8.07-4.35,11.58-7.27c1.84-1.35,3.43-3,5.08-4.54c0.84-0.77,1.55-1.67,2.3-2.52
	c0.74-0.86,1.46-1.73,2.17-2.6c3.14-4.77,4.18-10.67,4.48-12.97c0.29,0.03,0.59-0.07,0.8-0.27c0.2-0.19,4.8-4.67,7.19-10.81
	C601.29,370.26,600.09,367.41,597.58,366.3z M621.35,329.56c0.35,0.04,0.69,0.06,1.03,0.1c9.46,1.22,17.31,3.93,23.81,7.33
	c-8.41-13.35-18.12-25.07-21.31-28.82c-4.83,6.26-13.45,10.09-17.47,11.62c1.59,1.27,3.23,2.31,4.9,3.08
	C616.94,325.03,620.3,328.43,621.35,329.56z M605.04,330.37c2.86-0.19,5.33-0.46,7.12-0.68c1.78-0.21,3.53-0.32,5.24-0.33
	c-1.51-1.32-3.66-2.95-6.19-4.13c-2.49-1.16-4.93-2.83-7.24-4.96l-6.84-6.31c-0.52-0.49-1.3-0.54-1.89-0.13
	c-0.62,0.43-0.83,1.23-0.5,1.91C596.31,318.95,600.41,326.65,605.04,330.37z M550.16,581c2.31-8.7,5.84-18.28,8.25-24.42
	c-3.12,1.94-8.03,4.7-13.62,6.74C544.85,565.94,545.46,574.06,550.16,581z M554.87,320c-1.27-11.72-7.2-20.69-10.35-24.72
	c-0.96,10.18-2.95,18.57-5.36,25.41C542.13,320.24,548.33,319.51,554.87,320z M466.84,721.88c-1.14,2.78-3.37,4.97-6.14,6.02
	c-3.54,1.34-8.89,3.88-14.3,8.33c-0.42,0.35-0.87,0.68-1.32,1c-0.01,0-0.02,0.01-0.02,0.01c-2.49,1.74-5.38,2.99-8.44,3.63
	c-1.64,0.34-3.36,0.62-5.12,0.82c-1.1,0.12-1.6,0.94-1.7,1.66c-0.05,0.34-0.1,1.47,1.12,1.97c4.51,1.84,10.24,2.12,17.04,0.86
	c0.51-1.02,0.98-2.04,1.37-3.07c0.26-0.67,1.02-0.99,1.69-0.74c0.67,0.26,1,1.02,0.74,1.68c-1.87,4.8-4.93,9.57-9.09,14.17
	c-0.87,0.97-0.36,1.93-0.18,2.2c0.38,0.58,1.16,1.08,2.18,0.74c2.24-0.76,4.47-1.91,6.64-3.42c3.41-2.38,7.37-3.97,11.48-4.63
	c16.11-2.55,22.71-10.59,25.21-15.15c1.83-3.33,4.14-6.38,6.85-9.05c13.44-13.22,24.74-26.41,26.49-28.46
	c0.33-2.09,0.59-4.18,0.79-6.28c-22.1-2.04-34.02-5.79-40.34-9.62C479.81,689.57,473.14,706.45,466.84,721.88z M444.75,734.22
	c1.06-0.87,2.11-1.65,3.15-2.38c-2.02-1.09-4.73-1.99-7.98-2.65c-0.59-0.13-0.85,0.27-0.94,0.45c-0.08,0.18-0.24,0.63,0.21,1.02
	c2.22,1.93,4.15,3.24,5.15,3.88C444.47,734.43,444.61,734.33,444.75,734.22z M377.74,417.53c2.31-2.77,4.89-5.09,6.56-6.48
	c-5.93-2.05-11.35-4.67-16.27-7.7C369.36,408.41,373.28,413.32,377.74,417.53z"/>
<path id="CODE_x5F_B65C46" class="st4" d="M698.33,462.46c0.37,2.46,0.56,5.54,0.55,8.91c0,2.8-1.62,5.39-4.12,6.59
	c0,0.01,0,0.01,0,0.01h-0.01c-28.03,13.49-49.31-2.42-57.16-9.89c-3.4-3.23-5.15-7.69-4.8-12.24c0.35-4.52,1.98-8.27,3.29-10.63
	c1.45-2.62,2.38-5.41,2.78-8.32c1.19-8.78,4.66-12.69,6.89-14.35c-0.45,3.39-1.09,6.99-1.95,10.75c-0.08,0.37,0,0.76,0.22,1.06
	c0.16,0.21,11.86,15.78,30.04,15.78c5.7,0,12.03-1.53,18.85-5.54c0.43-0.25,0.67-0.73,0.64-1.22c-0.01-0.12-0.36-4.47-1.44-11.71
	c8.31,7.61,7.78,16.74,6.61,21.77C698.01,456.46,697.88,459.49,698.33,462.46z M672.92,485.84c-17.95,0-31.19-10.23-37.13-15.88
	c-1.84-1.75-3.27-3.83-4.22-6.08c-5.18,8.44-23.26,38.27-39.03,68.38c-1.44,2.74-3.53,5.09-6.06,6.81l-0.09,0.06
	c-0.09,0.06-0.18,0.11-0.27,0.14c-0.02,0.01-0.3,0.12-0.78,0.31c-0.81,2.92-4.25,15.75-4.68,24.02c-0.05,0.81-0.53,1.51-1.26,1.84
	c-0.73,0.33-1.57,0.22-2.2-0.28c-1.5-1.2-4.59-3.52-9.06-6.11c-1.99,3.37-8.27,13.85-15.96,24.53c-0.95,3.79-1.6,7.31-1.75,10.13
	c-0.01,0.26-0.89,28.86,1.31,52.64c0.23,2.52,0.37,4.74,0.42,6.79c0.2,7.53,0.49,26.72-1.02,42.37c-0.1,1.07-0.22,2.14-0.36,3.21
	c-0.23,1.81-0.64,6.41,0.15,11.79c1.71-0.11,3.51-0.19,5.39-0.23c0.02-0.01,0.03-0.02,0.05-0.02c0.01,0,0.03,0.01,0.04,0.01
	c1.89-0.04,3.85-0.06,5.93-0.02c7.99,0.13,15.74-0.15,23.03-0.83c8.45-0.8,20.37-1.68,33.18-1.9c0.03,0,0.06-0.02,0.1-0.02
	c0.03,0,0.06,0.02,0.09,0.02c12.1-0.2,24.98,0.2,36.48,1.82c0.07-0.01,0.13-0.04,0.2-0.04c0.21,0,0.4,0.07,0.58,0.15
	c2.65,0.39,5.22,0.85,7.69,1.38c0.05-0.01,0.1-0.03,0.15-0.03c0.25,0,0.47,0.09,0.67,0.21c3.79,0.85,7.32,1.88,10.5,3.12
	c0.32,0.01,0.61,0.14,0.83,0.34c2.52,1.03,4.79,2.19,6.78,3.52c0.22,0.07,0.4,0.2,0.55,0.37c2.63,1.84,4.71,3.97,6.12,6.43
	c1.21-1.54,2.9-5.27,1.07-13.36c-0.46-2.01-0.8-4.16-1.09-6.77c-1.73-15.44-8.25-70.14-20.58-131.44
	c-3.07,2.22-10.01,6.34-19.31,6.34c-1.51,0-3.08-0.11-4.71-0.35c-13.94-2.08-27-13.23-38.79-33.14c-0.37-0.62-0.16-1.41,0.46-1.78
	c0.62-0.36,1.41-0.16,1.78,0.46c11.36,19.18,23.78,29.9,36.9,31.88c12.81,1.93,22.14-5.43,23.49-6.56
	c10.33-20.19,15.58-42.11,17.79-53.4c0.88-4.5,2.32-9.25,4.41-14.52c3.06-7.72,3.38-17.04,3.36-21.01
	C686.49,484.5,679.4,485.84,672.92,485.84z M576.92,597.97c-0.78,0-1.6-0.04-2.44-0.14c-2.07-0.24-3.94-1.38-5.14-3.13
	c-1.3-1.89-3.07-4.79-4.14-7.92c-0.21-0.59,0.04-1.24,0.58-1.55c0.15-0.08,15.04-8.67,23.58-21.2c0.25-0.38,0.68-0.6,1.14-0.57
	c0.46,0.03,0.86,0.29,1.08,0.69c0.11,0.2,2.67,5,4.44,10.19c0.59,1.74,0.66,3.58,0.18,5.31
	C594.64,585.34,589.73,597.97,576.92,597.97z M559.58,653.36c-2.9,0-5.27-2.36-5.27-5.27s2.37-5.28,5.27-5.28
	c2.91,0,5.28,2.37,5.28,5.28S562.49,653.36,559.58,653.36z M559.58,694.3c-2.9,0-5.27-2.36-5.27-5.27s2.37-5.27,5.27-5.27
	c2.91,0,5.28,2.36,5.28,5.27S562.49,694.3,559.58,694.3z M558.59,594.82c-2.91,0-5.27-2.37-5.27-5.27c0-2.91,2.36-5.28,5.27-5.28
	c2.91,0,5.27,2.37,5.27,5.28C563.86,592.45,561.5,594.82,558.59,594.82z M558.59,618.8c-2.91,0-5.27-2.36-5.27-5.27
	s2.36-5.27,5.27-5.27c2.91,0,5.27,2.36,5.27,5.27S561.5,618.8,558.59,618.8z M590.24,567.27c-7.72,10.37-18.89,17.62-22.22,19.65
	c0.99,2.48,2.4,4.76,3.46,6.31c0.78,1.13,1.98,1.86,3.3,2.02c12.63,1.48,17.44-10.9,18.91-16.29c0.34-1.22,0.29-2.53-0.13-3.78
	C592.51,572.11,591.14,569.12,590.24,567.27z M581.88,591.44c-2.31,0-4.19-1.88-4.19-4.18c0-2.31,1.88-4.19,4.19-4.19
	c2.3,0,4.18,1.88,4.18,4.19C586.06,589.56,584.18,591.44,581.88,591.44z M579.86,587.26c0,1.11,0.9,2.01,2.02,2.01
	c1.11,0,2.01-0.9,2.01-2.01c0-1.12-0.9-2.02-2.01-2.02C580.76,585.24,579.86,586.14,579.86,587.26z M563.28,551.45
	c-0.79,1.89-5.46,13.23-8.96,24.52c7.08-10.4,12.15-19.22,12.21-19.33c0.36-0.61,1.14-0.83,1.77-0.48c4.59,2.56,7.93,4.95,9.82,6.41
	c0.53-7.3,2.96-17.13,4.18-21.75C577.2,542.99,568.23,547.14,563.28,551.45z M556.91,648.09c0,1.47,1.2,2.67,2.67,2.67
	c1.48,0,2.68-1.2,2.68-2.67c0-1.48-1.2-2.68-2.68-2.68C558.11,645.41,556.91,646.61,556.91,648.09z M556.91,689.03
	c0,1.47,1.2,2.67,2.67,2.67c1.48,0,2.68-1.2,2.68-2.67c0-1.48-1.2-2.68-2.68-2.68C558.11,686.35,556.91,687.55,556.91,689.03z
	 M555.92,589.55c0,1.47,1.2,2.67,2.67,2.67c1.47,0,2.67-1.2,2.67-2.67c0-1.48-1.2-2.68-2.67-2.68
	C557.12,586.87,555.92,588.07,555.92,589.55z M555.92,613.53c0,1.47,1.2,2.67,2.67,2.67c1.47,0,2.67-1.2,2.67-2.67
	c0-1.48-1.2-2.67-2.67-2.67C557.12,610.86,555.92,612.05,555.92,613.53z M549.15,646.58c-2.21-23.93-1.33-52.69-1.32-52.98
	c0.07-1.33,0.25-2.8,0.5-4.36c-5.79-6.78-13.09-12.75-16.16-15.14c-2.74,8.65-6.25,18.52-8.18,23.84c-0.29,0.8-1.01,1.3-1.84,1.3
	c-0.11,0-0.22-0.01-0.34-0.03c-0.95-0.16-1.63-0.94-1.65-1.91c-0.14-8.57,1.18-16.5,2.6-22.41c-7.38,7.25-24.98,27-27.16,52.33
	c-0.06,0.77-1.62,18.39-9.03,28.76c7.16,5.66,25.39,10.41,34.57,12.32c-0.28-1.6-0.6-3.2-0.96-4.78
	c-4.19-18.4-5.16-34.17-5.17-34.33c-0.04-0.72,0.51-1.33,1.22-1.37c0.74-0.03,1.33,0.5,1.38,1.22c0.01,0.15,0.96,15.73,5.11,33.91
	c0.5,2.21,0.92,4.44,1.27,6.7c0,0.02,0.01,0.05,0.01,0.08c1.18,7.66,1.47,15.51,0.84,23.32c0,0.02,0.01,0.04,0.01,0.06
	c0,0.02-0.01,0.04-0.01,0.06c-0.38,4.61-1.07,9.22-2.07,13.75c-1.12,5.05-1.73,9.42-1.83,13.05c4.17-3.71,12.16-7.86,27.4-9.26
	c-0.78-5.39-0.44-9.97-0.14-12.32c0.13-1.04,0.25-2.08,0.35-3.13c1.5-15.5,1.21-34.58,1.01-42.06
	C549.51,651.22,549.38,649.05,549.15,646.58z M542.2,563.83c-2.71,0.27-8.89,0.98-14.14,2.31c-0.99,2.71-4.84,14.1-5.27,27.46
	c2.14-5.99,5.16-14.65,7.45-22.05c0.13-0.4,0.44-0.71,0.84-0.85c0.4-0.13,0.84-0.06,1.18,0.19c0.4,0.3,9.25,6.83,16.69,15.11
	c0.12-0.58,0.25-1.16,0.39-1.75C543.26,576.68,542.32,567.39,542.2,563.83z M484.17,657.32c-0.12,4.83-1,13.07-5.33,17.48
	c-0.86,0.87-1.06,2.17-0.5,3.15c0.61,1.03,1.7,2.3,3.63,3.64c0.04,0.03,0.08,0.05,0.12,0.08c5.19,3.57,16.36,7.71,40.25,9.91
	c0.46-6.88,0.21-13.78-0.77-20.54C515.94,669.91,492.64,664.87,484.17,657.32z"/>
<path id="CODE_x5F_483D45" class="st5" d="M703.03,837.7c10.66,15.16,33.74,52.46,32.82,89.77c-1.45,0.15-2.92,0.24-4.4,0.29
	c-1.01,0.03-1.83,0.81-1.93,1.79l-1.02-0.1c2.97-30.92-15.73-66.66-28.02-86.36c-6.89-11.06-12.32-22.89-16.13-35.16
	c-3.73-12-6.95-24.89-9.51-36.26c-3.38-14.92-5.62-27.23-6.39-31.58c1.68,0.15,3.7,0.27,5.91,0.27c0.14,0,0.28,0,0.42,0
	c0.54,0.16,1.95,0.53,3.82,0.53c0.95,0,2.01-0.1,3.13-0.36c0.85,0.98,2.57,2.92,4.11,4.29c0.05,4.78,0.65,37.38,7.97,71.72
	C695.45,824.2,698.55,831.32,703.03,837.7z M731.57,931.75c-0.02,0-0.04,0-0.06,0c-1.07,0-1.96-0.85-2-1.94c0-0.09,0-0.17,0.01-0.26
	l-1.02-0.1c-0.01,0.16-0.02,0.32-0.05,0.48c-0.28,2.76-0.73,5.48-1.39,8.14c1.65,0.5,3.19,0.99,4.58,1.43
	c0.74,0.24,1.54,0.15,2.2-0.26c0.64-0.4,1.05-1.03,1.16-1.77c0.29-1.98,0.51-3.97,0.65-5.97
	C734.31,931.63,732.93,931.71,731.57,931.75z M681.87,808.71c-3.57-11.52-6.69-23.84-9.21-34.88c-1.65,0.45-3.28,0.85-4.85,1.2
	c-0.1,0.02-0.21,0.03-0.32,0.03c-0.69,0-1.31-0.48-1.46-1.18c-0.18-0.81,0.34-1.61,1.15-1.78c1.56-0.35,3.18-0.74,4.82-1.19
	c-0.2-0.9-0.4-1.79-0.59-2.66c-1.44,0.37-2.86,0.7-4.24,0.98l-0.01,0.01c-0.01,0-0.02,0-0.04,0c-1.61,0.33-3.18,0.6-4.71,0.81
	c-2.65,0.37-5.19,0.55-7.6,0.55c-8.15,0-14.93-2.05-20.28-6.14c-4.03-3.09-6.74-6.94-8.56-10.75c-0.04,0.01-0.09,0.01-0.14,0.01
	l-6,0.04h-0.01c-0.82,0-1.49-0.67-1.5-1.5c0-0.83,0.67-1.5,1.49-1.5l4.89-0.03c-1.91-5.13-2.35-9.75-2.45-11.75
	c-1.69-0.06-2.98-0.35-3.51-0.49c-4.69,0.52-9.21,0.68-12.99,0.68c-5.18,0-8.99-0.3-10.07-0.39c-1.67,0.72-3.33,0.99-4.83,0.99
	c-2.5,0-4.51-0.68-5.28-0.99c-3.44,0.38-6.64,0.49-9.11,0.49c-2.75,0-4.58-0.13-4.88-0.15h-4.71c-2.22,0-6.48,0.3-6.53,0.3
	c-0.03,0.01-0.06,0.01-0.09,0.01h-3.8c-0.08,0.01-0.24,0.03-0.48,0.06c0.03,5.39,0.47,29.45,6.44,41.4
	c0.32,0.64,0.06,1.42-0.58,1.74c-0.18,0.09-0.38,0.14-0.58,0.14c-0.47,0-0.93-0.27-1.16-0.72c-6.16-12.32-6.69-35.84-6.72-42.14
	c-1.9,0.33-4.64,0.85-8.2,1.64c-5.85,1.29-12.07,1.49-13.4,1.52c-0.63,0.27-2.23,0.85-4.25,0.85c-1.03,0-2.17-0.17-3.32-0.6l-1.96,2
	c-1.42,5.59-20.01,78.06-56.02,159.76c0.5,0.15,2.55,0.8,5.7,2.07c1.03,0.41,1.52,1.58,1.11,2.6c-0.31,0.78-1.06,1.26-1.86,1.26
	c-0.24,0-0.5-0.05-0.74-0.15c-3.38-1.36-5.45-1.98-5.47-1.98c-0.13-0.04-0.25-0.09-0.36-0.15c-0.82,1.84-1.64,3.68-2.48,5.52
	c0.62,0.12,1.4,0.29,2.35,0.56c0.04,0.01,0.08,0.02,0.13,0.04c5.37,1.55,16.07,6.08,34.94,19.18c10.36,7.19,22.4,11.38,34.64,12.31
	c1.09-2.6,2.15-5.28,3.18-8.04c-0.21,0-0.42,0-0.63-0.01c-1.11-0.04-1.98-0.96-1.94-2.07c0.04-1.1,0.96-1.98,2.06-1.93
	c0.64,0.02,1.29,0.03,1.94,0.03c9.72-27.61,16.05-60.78,19.17-79.68c1.5-9.09,6.05-17.59,12.82-23.92
	c12.58-11.78,23.57-20.89,26.99-23.69c-7.1-6.94-14.72-11.67-22.71-12.87c-0.71-0.1-1.2-0.76-1.1-1.47c0.11-0.71,0.78-1.2,1.48-1.1
	c8.82,1.32,17.15,6.66,24.85,14.4c0.16,0.08,0.3,0.19,0.42,0.34c0.04,0.05,0.05,0.11,0.08,0.17c1.84,1.88,3.65,3.89,5.41,6.02
	c0.04,0.03,0.08,0.04,0.12,0.07c0.16,0.14,0.27,0.31,0.34,0.5c20.32,24.84,35.53,64.66,42.56,85.41c3.06,9.03,5.05,18.28,5.93,27.65
	c0.99-0.44,2.56-1.07,4.68-1.73c1.05-0.33,2.18,0.25,2.51,1.31c0.33,1.05-0.25,2.17-1.31,2.51c-3.4,1.07-5.23,2.02-5.25,2.03
	c-0.1,0.05-0.2,0.09-0.3,0.12c0.15,2.49,0.23,5,0.22,7.51c12.85-14.18,48.25-6.6,68.86-0.57c0.48-2,0.85-4.03,1.1-6.09
	c-0.32,0.24-0.72,0.37-1.14,0.37c-0.05,0-0.09,0-0.14-0.01c-2.03-0.14-4.09-0.37-6.13-0.68c-1.09-0.16-1.84-1.18-1.67-2.27
	c0.16-1.1,1.18-1.85,2.27-1.68c1.93,0.29,3.88,0.51,5.81,0.64c0.52,0.04,0.99,0.28,1.32,0.64c2.42-31.34-18.02-68.25-27.71-83.79
	C691.26,833.22,685.75,821.19,681.87,808.71z M711.69,929.57c-0.16,0-0.33-0.02-0.49-0.06c-2.58-0.65-4.25-1.22-4.69-1.38
	c-0.35-0.08-0.7-0.17-1.05-0.25c-1.07-0.24-1.75-1.32-1.5-2.39c0.25-1.08,1.33-1.75,2.4-1.5c0.4,0.09,0.8,0.18,1.19,0.28
	c0.08,0.02,0.16,0.04,0.23,0.07c0.01,0,1.64,0.6,4.39,1.29c1.08,0.27,1.73,1.36,1.46,2.43C713.4,928.97,712.58,929.57,711.69,929.57
	z M699.05,926.56c-0.11,0-0.22,0-0.33-0.02c-1.95-0.33-3.91-0.6-5.83-0.81c-1.1-0.12-1.89-1.11-1.77-2.21
	c0.12-1.09,1.13-1.88,2.2-1.77c2,0.22,4.04,0.5,6.06,0.84c1.09,0.18,1.83,1.22,1.64,2.31C700.86,925.87,700.01,926.56,699.05,926.56
	z M686.13,925.23c-0.03,0-0.05,0-0.07,0c-2.06-0.08-4.01-0.08-5.87-0.02c-0.02,0-0.04,0-0.06,0c-1.08,0-1.97-0.86-2-1.94
	c-0.03-1.11,0.84-2.03,1.94-2.06c1.94-0.06,3.99-0.06,6.13,0.02c1.1,0.04,1.97,0.97,1.93,2.07
	C688.09,924.38,687.2,925.23,686.13,925.23z M667.6,926.58c-0.13,0.03-0.26,0.04-0.38,0.04c-0.94,0-1.78-0.66-1.96-1.62
	c-0.22-1.08,0.49-2.13,1.57-2.35c1.98-0.38,4.02-0.7,6.09-0.94c1.09-0.12,2.09,0.67,2.21,1.77c0.13,1.09-0.66,2.08-1.76,2.21
	C671.41,925.91,669.47,926.21,667.6,926.58z M654.67,776.76c-0.01,0-0.03,0-0.05,0c-0.8,0-1.47-0.64-1.5-1.45
	c-0.02-0.83,0.63-1.52,1.45-1.55c1.88-0.06,3.84-0.22,5.84-0.48c0.82-0.1,1.57,0.48,1.68,1.3c0.1,0.82-0.48,1.57-1.3,1.68
	C658.7,776.52,656.64,776.69,654.67,776.76z M647.64,776.53c-0.05,0-0.1,0-0.15,0c-2.12-0.22-4.18-0.59-6.12-1.09
	c-0.8-0.2-1.28-1.02-1.08-1.82c0.21-0.8,1.02-1.29,1.83-1.08c1.8,0.46,3.71,0.8,5.68,1c0.82,0.09,1.42,0.83,1.33,1.65
	C649.05,775.96,648.4,776.53,647.64,776.53z M635.19,773.09c-0.22,0-0.45-0.05-0.66-0.16c-1.9-0.93-3.69-2.05-5.33-3.32
	c-0.66-0.5-0.78-1.44-0.28-2.1c0.51-0.66,1.45-0.78,2.11-0.27c1.48,1.14,3.11,2.16,4.83,3c0.74,0.37,1.05,1.27,0.68,2.01
	C636.28,772.78,635.75,773.09,635.19,773.09z M625.13,765.03c-0.44,0-0.87-0.19-1.17-0.56c-1.3-1.63-2.46-3.4-3.43-5.27
	c-0.38-0.74-0.09-1.65,0.64-2.03c0.74-0.38,1.64-0.09,2.02,0.64c0.89,1.7,1.93,3.31,3.11,4.78c0.52,0.65,0.42,1.59-0.23,2.11
	C625.79,764.92,625.46,765.03,625.13,765.03z M529.81,937.76c-0.08,0-0.16,0-0.25-0.01l-0.28-0.04c-1.92-0.23-3.88-0.56-5.8-0.95
	c-1.08-0.23-1.77-1.29-1.55-2.37c0.23-1.08,1.28-1.77,2.37-1.55c1.81,0.38,3.65,0.68,5.48,0.9l0.28,0.04
	c1.1,0.14,1.87,1.14,1.74,2.23C531.67,937.02,530.81,937.76,529.81,937.76z M517.12,935.04c-0.2,0-0.4-0.03-0.6-0.1
	c-1.95-0.61-3.9-1.31-5.8-2.08c-1.02-0.42-1.51-1.59-1.1-2.61c0.42-1.02,1.59-1.52,2.61-1.1c1.8,0.73,3.65,1.4,5.49,1.98
	c1.05,0.33,1.64,1.45,1.31,2.5C518.76,934.49,517.97,935.04,517.12,935.04z M505.12,930.07c-0.31,0-0.62-0.07-0.92-0.23
	c-1.81-0.93-3.61-1.96-5.34-3.04c-0.94-0.58-1.23-1.81-0.65-2.75c0.58-0.94,1.81-1.23,2.75-0.65c1.66,1.03,3.37,2,5.09,2.9
	c0.98,0.5,1.36,1.71,0.85,2.69C506.54,929.68,505.84,930.07,505.12,930.07z M494.09,923.21c-0.38,0-0.77-0.11-1.11-0.34
	c-1.62-1.08-3.29-2.15-4.98-3.17c-0.95-0.58-1.25-1.81-0.68-2.75c0.57-0.95,1.8-1.25,2.75-0.68c1.74,1.06,3.47,2.17,5.14,3.28
	c0.91,0.62,1.16,1.86,0.54,2.78C495.37,922.9,494.73,923.21,494.09,923.21z M482.95,916.52c-0.32,0-0.64-0.07-0.94-0.23
	c-1.74-0.93-3.52-1.83-5.28-2.66c-1-0.47-1.42-1.67-0.95-2.67c0.47-0.99,1.67-1.42,2.66-0.95c1.82,0.87,3.66,1.79,5.45,2.75
	c0.97,0.52,1.34,1.73,0.82,2.7C484.35,916.14,483.66,916.52,482.95,916.52z M676.28,717.41v20.65c0.97,0.2,2.68,0.4,4.61,0V719.9
	C679.5,718.99,677.96,718.16,676.28,717.41z M665.76,739.79c-0.84-0.12-1.46-0.22-1.82-0.28c-1.66,0.62-3.18,0.85-4.47,0.85
	c-2.16,0-3.71-0.59-4.36-0.89c-11.96-0.05-24.37-1.33-26.54-1.56c-1.26,0.53-2.52,0.83-3.72,0.97c0.08,1.26,0.31,3.71,1.04,6.69
	c20.2-0.22,36.51,0.01,36.67,0.01c0.62,0.01,1.15,0.45,1.26,1.05c1.66,8.65,3.39,16.75,4.05,19.79c0.98-0.22,1.97-0.45,2.98-0.72
	C668.07,752.83,666.29,742.82,665.76,739.79z M661.47,748.17c-3.88-0.05-17.93-0.18-34.86-0.01c0.33,1.05,0.73,2.13,1.2,3.22
	c1.67,3.9,4.26,7.93,8.31,11.02c6.06,4.63,14.23,6.38,24.38,5.26l-0.5-2.11c-0.2-0.81,0.3-1.62,1.11-1.81
	c0.81-0.2,1.61,0.3,1.81,1.11l0.57,2.41c0.6-0.1,1.21-0.21,1.83-0.32C664.69,764,663.06,756.43,661.47,748.17z M659.83,759.89
	c-0.68,0-1.3-0.47-1.46-1.15l-1.4-5.84c-0.19-0.8,0.3-1.61,1.11-1.81c0.8-0.19,1.61,0.31,1.81,1.11l1.4,5.84
	c0.19,0.8-0.31,1.61-1.11,1.81C660.06,759.88,659.94,759.89,659.83,759.89z M645.83,753.62h-0.01c-0.82,0-1.49-0.67-1.5-1.49
	c0-0.83,0.67-1.51,1.49-1.51l6-0.03c0.01,0,0.01,0,0.01,0c0.83,0,1.5,0.67,1.5,1.49c0.01,0.83-0.66,1.51-1.49,1.51L645.83,753.62z
	 M632.83,753.69h-0.01c-0.82,0-1.49-0.67-1.5-1.49c0-0.83,0.67-1.51,1.49-1.51l6-0.03c0.01,0,0.01,0,0.01,0
	c0.83,0,1.5,0.66,1.5,1.49c0.01,0.83-0.66,1.5-1.49,1.51L632.83,753.69z M656.72,712.19v25.13c1,0.35,3.09,0.82,5.82-0.06v-24.04
	C660.66,712.84,658.71,712.49,656.72,712.19z M619.96,710.14l0.18,25.99c1.4,0.27,4.2,0.58,6.94-0.42l-0.18-25.59
	C624.56,710.11,622.25,710.11,619.96,710.14z M572.55,832.62c-6.34,5.94-10.62,13.91-12.03,22.45c-3.1,18.79-9.36,51.59-18.96,79.21
	c0.38-0.01,0.76-0.02,1.13-0.04c1.1-0.06,2.04,0.79,2.09,1.89c0.06,1.11-0.79,2.05-1.89,2.1c-0.91,0.05-1.84,0.07-2.77,0.08
	c-1.02,2.8-2.08,5.53-3.18,8.18c5.13,0.18,10.27-0.19,15.32-1.19c0.54-0.11,1.07-0.22,1.61-0.34c0.3-1.34,0.96-4.34,1.86-8.73
	c-1.8,0.51-3.7,0.92-5.66,1.24c-0.11,0.02-0.22,0.03-0.33,0.03c-0.96,0-1.81-0.69-1.97-1.67c-0.18-1.09,0.56-2.12,1.65-2.3
	c1.96-0.32,3.85-0.75,5.62-1.27c0.51-0.14,1.03-0.08,1.46,0.14c2.94-14.94,7.52-41.14,10.45-71.92c0.74-7.72,4.28-14.81,9.97-19.96
	c7.5-6.79,18.16-16.9,26.86-26.98c-1.36-1.63-2.76-3.19-4.17-4.66C596.46,811.46,585.33,820.66,572.55,832.62z M586.8,711.89
	l0.25,24.66c1.33,0.43,4.24,1.12,7.13,0.05l-0.25-25.29C591.24,711.51,588.84,711.71,586.8,711.89z M524.07,720.86l1.07,20.05
	c1.98,0.72,3.93,0.32,4.98,0l-1.6-22.71C526.72,719.07,525.26,719.97,524.07,720.86z"/>
<path id="CODE_x5F_432F2A" class="st6" d="M720.35,938.85c-1.02-0.28-2.07-0.56-3.17-0.85c-0.21,2.76-0.91,5.31-1.51,7.09
	c-0.68,1.97-2.55,3.22-4.55,3.22c-0.48,0-0.96-0.07-1.44-0.22c-24.2-7.77-40.74-4.54-47.31-2.52c-0.23,0.06-0.44,0.13-0.65,0.2
	c-0.86,0.28-1.77,0.15-2.52-0.36s-1.21-1.33-1.25-2.24c-0.08-1.4-0.07-2.71-0.04-3.81c-0.41,0.43-0.8,0.9-1.16,1.39
	c-0.01,1.02,0,3.75,0.27,6.68c0.17,1.74,1.35,3.24,3.01,3.81c7.11,2.44,24.88,7.13,48,3.07c3.08-0.54,6.25-1.23,9.5-2.1
	c1.71-0.46,2.92-1.96,3.01-3.73C720.66,945.99,720.72,942.38,720.35,938.85z M707.71,952.41c-0.53,0.04-6.77,0.53-15.02,0.53
	c-9.23,0-21-0.61-30.14-3.16c-0.56-0.16-0.95-0.67-0.95-1.26c0-0.58,0.39-1.09,0.95-1.25c0.05-0.01,0.16-0.04,0.32-0.08
	c2.93-0.75,23.48-5.46,45.19,2.71c0.57,0.21,0.92,0.79,0.83,1.39C708.81,951.9,708.32,952.36,707.71,952.41z M660.54,943.03
	c-0.14-2.6,0.03-4.93,0.12-5.96c11.9-7.99,36.36-4.09,53.96,0.28c-0.14,2.66-0.83,5.18-1.41,6.9c-0.39,1.11-1.61,1.72-2.74,1.36
	c-25.77-8.27-43.25-4.37-49.56-2.31c-0.08,0.03-0.16,0.02-0.24-0.03C660.63,943.24,660.55,943.16,660.54,943.03z M686.44,741.8
	c-1.22-1.22-2.41-2.59-2.95-3.21v-16.74c1.83,1.58,3.24,3.36,4.14,5.37C687.74,728.3,688.26,734.35,686.44,741.8z M673.68,737.76
	c-3.81-0.05-6.98-0.45-8.54-0.69v-23.28c3.06,0.72,5.93,1.56,8.54,2.55V737.76z M629.5,710.16c8.33,0.13,16.79,0.62,24.62,1.66
	v25.04c-10.45-0.1-21.03-1.1-24.45-1.45L629.5,710.16z M617.36,710.18l0.18,25.82c-9.33,0.95-17.77,0.48-20.77,0.26l-0.24-25.14
	C602.53,710.71,609.7,710.34,617.36,710.18z M584.2,712.11l0.25,24.17c-5.05,0.5-9.51,0.4-11.54,0.31l-0.57-23.81
	C576.4,712.67,580.36,712.45,584.2,712.11z M565,723.45l0.52,13.09c-1.35,0.05-2.88,0.13-3.97,0.2v-13.19L565,723.45z
	 M565.13,717.28h-3.58v-4.44c0.25,0,0.49,0,0.74,0.01c0.96,0.01,1.89,0,2.84,0.01V717.28z M531.05,717.1
	c4.3-1.7,10.12-3.14,17.97-3.83v17.99c0,0.87-0.71,2-1.43,2.27c-0.19,0.07-0.39,0.12-0.77-0.06c-0.7-0.33-1.15-1.11-1.15-1.98v-1.36
	c0-0.35-0.14-0.69-0.4-0.93c-0.25-0.25-0.6-0.39-0.95-0.36l-4.24,0.17c-0.63,0.03-1.16,0.51-1.23,1.14
	c-0.44,3.77,1.18,7.26,4.22,9.17c-4.16,0.78-8.36,1.04-10.37,1.12L531.05,717.1z M521.58,723.05l0.97,18.23l-1,1.03
	c-2.37-6.76-2.52-14.14-2.53-15.27C519.14,726.64,519.7,725.04,521.58,723.05z M464.29,917.47c-2.75,1.54-16.66,9.75-19.57,19.63
	c-0.47,1.6,0.1,3.36,1.43,4.38c5.86,4.51,24.39,13.69,71.76,4.38c-6.99-2.18-13.71-5.43-19.85-9.7
	C479.74,923.45,469.37,919.02,464.29,917.47z M503,942.28c0.66,0.01,1.23,0.49,1.31,1.16c0.07,0.66-0.36,1.27-1.01,1.41
	c-9.22,2.04-17.22,2.83-24.05,2.83c-22.06,0-32.07-8.18-32.6-8.63c-0.46-0.39-0.6-1.04-0.32-1.58c0.27-0.54,0.87-0.82,1.46-0.68
	C472.05,942.57,502.69,942.28,503,942.28z"/>
<path id="CODE_x5F_6F4E2C" class="st7" d="M597.58,366.3c-9.48-4.21-34.61-13.38-63.25-7.69c-0.27,0.06-27.37,6.38-27.84,34.6
	c-0.01,0.48,0.31,0.89,0.77,0.99c0.07,0.02,0.15,0.03,0.23,0.03c0.14,0,0.27-0.03,0.39-0.09c0.22-0.08,0.4-0.25,0.51-0.48
	c0.11-0.23,9.18-18.7,30.77-25.03c-4.71,4.89-7.26,11.76-7.26,19.78c0,5.24,1.3,10.13,3.55,14.29c0.02,0.07,0.06,0.14,0.11,0.21
	c0.01,0.01,0.01,0.01,0.02,0.02c4.11,7.44,11.3,12.46,19.52,12.69c-0.61,0.2-1.23,0.4-1.85,0.59c-4.24,1.28-8.58,2.3-13.06,2.86
	c4.51,0.52,9.11,0.04,13.56-0.9c4.46-0.96,8.84-2.41,12.96-4.4c4.08-2.04,8.07-4.35,11.58-7.27c1.84-1.35,3.43-3,5.08-4.54
	c0.84-0.77,1.55-1.67,2.3-2.52c0.74-0.86,1.46-1.73,2.17-2.6c-0.91,0.68-1.8,1.38-2.67,2.08c-0.89,0.68-1.69,1.46-2.64,2.08
	c-1.82,1.29-3.55,2.69-5.44,3.86c-0.94,0.59-1.84,1.23-2.78,1.82l-1.83,1.07c4.36-4.94,7.06-11.78,7.06-19.34
	c0-4.23-0.74-8.18-2.2-11.71c-1.09-2.71-2.59-5.17-4.49-7.32c2.71,0.83,5.42,1.84,8.12,3.02c2.33,1.03,4.5,2.07,6.46,3.09
	c1.47,0.77,2.58,2.11,3.03,3.68c0.48,1.62,0.81,2.93,0.98,3.89c0.07,0.36,0.33,0.66,0.68,0.77c0.07,0.02,0.13,0.04,0.2,0.04
	c0.29,0.03,0.59-0.07,0.8-0.27c0.2-0.19,4.8-4.67,7.19-10.81C601.29,370.26,600.09,367.41,597.58,366.3z M575.23,376.82
	c0.27,0.62,0.52,1.24,0.74,1.89c1.03,2.97,1.57,6.23,1.57,9.7c0,10.87-5.98,20.15-14.32,23.7c-2.34,0.99-4.87,1.53-7.5,1.53
	c-7.48,0-14.1-4.38-18.03-11.04c-0.34-0.57-0.66-1.17-0.95-1.78c-1.81-3.67-2.84-7.9-2.84-12.41c0-8.94,3.36-16.32,9.48-20.82
	c4.99-1.01,10.58-1.37,16.79-0.77c2.89,0.27,5.8,0.77,8.73,1.48C571.65,370.6,573.78,373.49,575.23,376.82z M532.73,334.46
	c0.52-0.86,1.05-1.78,1.58-2.76c1.39-2.57,2.77-5.51,4.05-8.86c0.27-0.7,0.54-1.42,0.8-2.15c2.97-0.45,9.17-1.18,15.71-0.69
	c0.08,0.66,0.14,1.34,0.17,2.02c0.07,0.97,0.09,1.96,0.08,2.96c0,0.4,0.18,0.79,0.5,1.04c0.31,0.25,0.73,0.34,1.12,0.24
	c0.36-0.09,3.48-0.9,7.91-2.61c0.01,0,0.01,0,0.01,0c0.99-0.38,2.03-0.8,3.13-1.27c3.65,0.94,9.47,2.65,14.41,4.94
	c0.44,0.21,0.67,0.69,0.55,1.16c-0.12,0.46-0.59,0.78-1.03,0.75C581.4,329.21,549.64,327.4,532.73,334.46z M532.27,472.78
	c0.57,0.43,0.69,1.25,0.26,1.82c-8.01,10.67-20.48,16.45-27.2,18.94c-3.35,1.25-6.34,3.5-8.65,6.52c-6.4,8.38-14.83,9.26-15.19,9.29
	c-0.04,0-0.08,0.01-0.12,0.01c-0.67,0-1.23-0.51-1.3-1.18c-0.06-0.72,0.46-1.35,1.17-1.42c0.08-0.01,7.69-0.84,13.38-8.28
	c2.61-3.41,6-5.96,9.81-7.37c6.45-2.4,18.41-7.93,26.02-18.07C530.88,472.47,531.69,472.35,532.27,472.78z M479.44,370.07
	c-0.19,0.26-0.49,0.4-0.8,0.4c-0.14,0-0.29-0.03-0.42-0.1c-0.43-0.2-0.66-0.67-0.55-1.13c0.74-3.11,1.69-6.01,2.81-8.73
	c7.44-18.1,22.04-27.65,26.85-30.4c0.52,0.47,1.05,0.94,1.56,1.42c2.32,2.15,4.51,4.43,6.45,6.82c0.44,0.54,0.87,1.09,1.28,1.64
	C495.64,348.76,479.61,369.85,479.44,370.07z M446.17,451.72c-1.34-6.38-4.33-11.84-7.74-14.64c0.1-0.14,0.16-0.3,0.17-0.47
	c0.04-0.49-0.27-0.93-0.74-1.05c-1.06-0.28-26.1-6.6-40.47,7.57c-6.49,6.4-9.67,15.89-9.53,28.36c0.01,1.29,0.06,2.61,0.15,3.96
	c0.37,5.99,1.45,12.61,3.22,19.84c0.65,2.64,2.8,4.64,5.48,5.09c1.65,0.28,3.56,0.54,5.56,0.7c0.86,0.07,1.73,0.12,2.61,0.13
	c0.35,0.02,0.7,0.02,1.05,0.02c2.24,0,4.48-0.18,6.5-0.67c0.34-0.09,0.61-0.34,0.72-0.68v-0.01c0.1-0.34,0.02-0.7-0.22-0.96
	c-0.19-0.22-19.68-22.11-10.17-43.4c0.03-0.08,1.73-3.83,6.78-7.92c-1.57,3.02-2.61,6.36-3.12,9.96c-0.9,6.32,0.06,12.38,2.37,17.29
	c0,0,0,0.01,0.01,0.02c0.04,0.09,0.09,0.17,0.13,0.26c0,0.01,0.01,0.01,0.01,0.02c2.91,5.98,7.85,10.2,13.9,11.06
	c0.76,0.11,1.52,0.16,2.28,0.16c3.15,0,6.27-0.92,9.16-2.69c-1.24,1.62-2.52,3.2-3.88,4.73c-1.62,1.87-3.34,3.66-5.07,5.45
	c-1.74,1.79-3.48,3.58-5.22,5.44c2.3-1.12,4.39-2.58,6.38-4.17c1.97-1.6,3.8-3.38,5.56-5.22c1.76-1.84,3.39-3.82,4.89-5.89
	c1.45-1.98,2.7-4.12,3.81-6.31c3.04-3.99,5.08-9,5.85-14.44c0.56-3.92,0.34-7.87-0.43-11.52
	C446.17,451.73,446.17,451.72,446.17,451.72z M444.62,462.98c-0.72,5.09-2.62,9.76-5.45,13.48c-0.71,0.96-1.5,1.86-2.35,2.69
	c-4.04,3.95-8.9,5.75-13.7,5.07c-5.18-0.74-9.45-4.28-12.1-9.35c-0.31-0.59-0.6-1.2-0.86-1.84c-1.83-4.38-2.55-9.68-1.76-15.2
	c0.19-1.35,0.46-2.67,0.81-3.93c0.6-2.15,1.42-4.17,2.46-6.05c0.01,0,0.01-0.01,0.01-0.02c0.22-0.47,0.49-0.92,0.79-1.34
	c0.4-0.64,0.83-1.26,1.29-1.86c1.61-0.96,3.44-1.91,5.5-2.78c4.38-1.85,9.83-3.37,16.57-4.14c3.14,1.71,6.68,7.02,8.26,13.8
	c0.17,0.73,0.32,1.49,0.43,2.25C444.99,456.67,445.07,459.79,444.62,462.98z M387.29,425.21c-0.53-0.37-1.08-0.76-1.63-1.17
	c-1.94-1.4-3.99-3-5.99-4.76c-0.65-0.57-1.3-1.15-1.93-1.75c2.31-2.77,4.89-5.09,6.56-6.48c0.97,0.34,1.96,0.65,2.96,0.96
	c2.78,0.84,5.68,1.57,8.69,2.15c0.91,0.18,1.83,0.35,2.77,0.5C393.45,418.18,388.99,423.19,387.29,425.21z M375.06,442.03
	c0.74-0.14,1.47-0.32,2.21-0.52c-1.72,6.3-2.13,11.98-2.23,14.02c-0.65-1.16-1.23-2.27-1.76-3.34c-2.03-4.15-3.24-7.52-3.83-9.37
	C371.32,442.7,373.19,442.44,375.06,442.03z"/>
<path id="CODE_x5F_A17E4D" class="st8" d="M735.85,927.47c-0.03,1.34-0.1,2.69-0.2,4.03c-1.34,0.13-2.72,0.21-4.08,0.25
	c-0.02,0-0.04,0-0.06,0c-1.07,0-1.96-0.85-2-1.94c0-0.09,0-0.17,0.01-0.26c0.1-0.98,0.92-1.76,1.93-1.79
	C732.93,927.71,734.4,927.62,735.85,927.47z M718.85,926.97c-1.09-0.17-2.11,0.58-2.27,1.68c-0.17,1.09,0.58,2.11,1.67,2.27
	c2.04,0.31,4.1,0.54,6.13,0.68c0.05,0.01,0.09,0.01,0.14,0.01c0.42,0,0.82-0.13,1.14-0.37c0.14-0.99,0.24-1.99,0.32-2.99
	c-0.33-0.36-0.8-0.6-1.32-0.64C722.73,927.48,720.78,927.26,718.85,926.97z M712.17,925.63c-2.75-0.69-4.38-1.29-4.39-1.29
	c-0.07-0.03-0.15-0.05-0.23-0.07c-0.39-0.1-0.79-0.19-1.19-0.28c-1.07-0.25-2.15,0.42-2.4,1.5c-0.25,1.07,0.43,2.15,1.5,2.39
	c0.35,0.08,0.7,0.17,1.05,0.25c0.44,0.16,2.11,0.73,4.69,1.38c0.16,0.04,0.33,0.06,0.49,0.06c0.89,0,1.71-0.6,1.94-1.51
	C713.9,926.99,713.25,925.9,712.17,925.63z M699.38,922.59c-2.02-0.34-4.06-0.62-6.06-0.84c-1.07-0.11-2.08,0.68-2.2,1.77
	c-0.12,1.1,0.67,2.09,1.77,2.21c1.92,0.21,3.88,0.48,5.83,0.81c0.11,0.02,0.22,0.02,0.33,0.02c0.96,0,1.81-0.69,1.97-1.66
	C701.21,923.81,700.47,922.77,699.38,922.59z M686.2,921.23c-2.14-0.08-4.19-0.08-6.13-0.02c-1.1,0.03-1.97,0.95-1.94,2.06
	c0.03,1.08,0.92,1.94,2,1.94c0.02,0,0.04,0,0.06,0c1.86-0.06,3.81-0.06,5.87,0.02c0.02,0,0.04,0,0.07,0c1.07,0,1.96-0.85,2-1.93
	C688.17,922.2,687.3,921.27,686.2,921.23z M678.28,368.87c0-0.95-1.02-2-2.45-2.4c-0.38-0.11-0.78-0.16-1.16-0.16
	c-0.44,0-0.87,0.07-1.23,0.21c-0.34,0.13-0.92,0.44-1.09,1.04c-0.29,1.04,0.81,2.3,2.4,2.75c0.84,0.23,1.71,0.22,2.4-0.05
	c0.33-0.13,0.91-0.44,1.08-1.04C678.26,369.11,678.28,368.99,678.28,368.87z M672.92,921.71c-2.07,0.24-4.11,0.56-6.09,0.94
	c-1.08,0.22-1.79,1.27-1.57,2.35c0.18,0.96,1.02,1.62,1.96,1.62c0.12,0,0.25-0.01,0.38-0.04c1.87-0.37,3.81-0.67,5.77-0.89
	c1.1-0.13,1.89-1.12,1.76-2.21C675.01,922.38,674.01,921.59,672.92,921.71z M666.03,773.88c0.15,0.7,0.77,1.18,1.46,1.18
	c0.11,0,0.22-0.01,0.32-0.03c1.57-0.35,3.2-0.75,4.85-1.2c-0.23-0.99-0.45-1.96-0.66-2.92c-1.64,0.45-3.26,0.84-4.82,1.19
	C666.37,772.27,665.85,773.07,666.03,773.88z M669.07,376.45c1.07,0.17,2.19-1.07,2.45-2.7c0.13-0.86,0.01-1.73-0.34-2.38
	c-0.17-0.31-0.54-0.85-1.16-0.95c-0.06-0.01-0.13-0.01-0.19-0.01c-1.01,0-2.01,1.18-2.25,2.72
	C667.32,374.76,668,376.28,669.07,376.45z M667.02,381.8c0.34-0.12,0.94-0.4,1.14-0.99c0.34-1.02-0.7-2.33-2.26-2.86
	c-0.45-0.15-0.91-0.23-1.36-0.23c-0.37,0-0.72,0.06-1.04,0.16c-0.34,0.12-0.93,0.4-1.13,0.99c-0.2,0.59,0.11,1.17,0.31,1.47
	c0.41,0.6,1.12,1.11,1.95,1.39C665.45,382.01,666.32,382.03,667.02,381.8z M661.11,763.74c-0.81,0.19-1.31,1-1.11,1.81l0.5,2.11
	c0.98-0.11,1.97-0.24,2.99-0.4l-0.57-2.41C662.72,764.04,661.92,763.54,661.11,763.74z M659.83,924.42
	c-2.12,0.66-3.69,1.29-4.68,1.73c0.14,1.41,0.25,2.82,0.33,4.24c0.1-0.03,0.2-0.07,0.3-0.12c0.02-0.01,1.85-0.96,5.25-2.03
	c1.06-0.34,1.64-1.46,1.31-2.51C662.01,924.67,660.88,924.09,659.83,924.42z M662.09,774.58c-0.11-0.82-0.86-1.4-1.68-1.3
	c-2,0.26-3.96,0.42-5.84,0.48c-0.82,0.03-1.47,0.72-1.45,1.55c0.03,0.81,0.7,1.45,1.5,1.45c0.02,0,0.04,0,0.05,0
	c1.97-0.07,4.03-0.24,6.12-0.5C661.61,776.15,662.19,775.4,662.09,774.58z M658.37,758.74c0.16,0.68,0.78,1.15,1.46,1.15
	c0.11,0,0.23-0.01,0.35-0.04c0.8-0.2,1.3-1.01,1.11-1.81l-1.4-5.84c-0.2-0.8-1.01-1.3-1.81-1.11c-0.81,0.2-1.3,1.01-1.11,1.81
	L658.37,758.74z M658.8,387.57c1.05,0.16,2.19-1.07,2.45-2.7c0.26-1.64-0.43-3.16-1.5-3.33c-0.06-0.01-0.12-0.02-0.19-0.02
	c-0.53,0-0.97,0.35-1.2,0.57c-0.53,0.51-0.92,1.3-1.05,2.15c-0.14,0.86-0.01,1.73,0.33,2.38
	C657.81,386.93,658.19,387.47,658.8,387.57z M651.55,389.37c1.09,1.24,2.7,1.69,3.52,0.98c0.47-0.41,0.49-1.07,0.47-1.42
	c-0.06-0.74-0.42-1.54-0.99-2.19c-0.74-0.84-1.71-1.32-2.52-1.32c-0.38,0-0.73,0.11-0.99,0.34c-0.47,0.41-0.5,1.07-0.47,1.42
	C650.62,387.92,650.98,388.72,651.55,389.37z M651.82,750.59c0,0,0,0-0.01,0l-6,0.03c-0.82,0-1.49,0.68-1.49,1.51
	c0.01,0.82,0.68,1.49,1.5,1.49h0.01l6-0.03c0.83,0,1.5-0.68,1.49-1.51C653.32,751.26,652.65,750.59,651.82,750.59z M647.8,773.54
	c-1.97-0.2-3.88-0.54-5.68-1c-0.81-0.21-1.62,0.28-1.83,1.08c-0.2,0.8,0.28,1.62,1.08,1.82c1.94,0.5,4,0.87,6.12,1.09
	c0.05,0,0.1,0,0.15,0c0.76,0,1.41-0.57,1.49-1.34C649.22,774.37,648.62,773.63,647.8,773.54z M646.07,391.76c1.09,0,2-1.4,2-3.06
	c0-1.65-0.91-3.05-2-3.05c-1.08,0-1.99,1.4-1.99,3.05C644.08,390.36,644.99,391.76,646.07,391.76z M638.82,750.66c0,0,0,0-0.01,0
	l-6,0.03c-0.82,0-1.49,0.68-1.49,1.51c0.01,0.82,0.68,1.49,1.5,1.49h0.01l6-0.03c0.83-0.01,1.5-0.68,1.49-1.51
	C640.32,751.32,639.65,750.66,638.82,750.66z M635.86,770.24c-1.72-0.84-3.35-1.86-4.83-3c-0.66-0.51-1.6-0.39-2.11,0.27
	c-0.5,0.66-0.38,1.6,0.28,2.1c1.64,1.27,3.43,2.39,5.33,3.32c0.21,0.11,0.44,0.16,0.66,0.16c0.56,0,1.09-0.31,1.35-0.84
	C636.91,771.51,636.6,770.61,635.86,770.24z M623.19,757.81c-0.38-0.73-1.28-1.02-2.02-0.64c-0.73,0.38-1.02,1.29-0.64,2.03
	c0.97,1.87,2.13,3.64,3.43,5.27c0.3,0.37,0.73,0.56,1.17,0.56c0.33,0,0.66-0.11,0.94-0.33c0.65-0.52,0.75-1.46,0.23-2.11
	C625.12,761.12,624.08,759.51,623.19,757.81z M625.97,753.71c-0.49-1-0.91-2-1.27-2.98l-4.89,0.03c-0.82,0-1.49,0.67-1.49,1.5
	c0.01,0.83,0.68,1.5,1.5,1.5h0.01l6-0.04C625.88,753.72,625.93,753.72,625.97,753.71z M575.23,376.82l-10.03,6.15
	c-0.39,0.24-0.57,0.72-0.43,1.16c0.94,2.91,1.28,5.59,1.01,7.95c-0.47,4.15-3.79,7.42-7.9,7.78c-6.22,0.54-9.68-5.86-9.72-5.92
	c-0.13-0.26-0.37-0.44-0.65-0.51c-0.29-0.06-0.58,0-0.82,0.17l-9.95,7.22c0.29,0.61,0.61,1.21,0.95,1.78
	c3.93,6.66,10.55,11.04,18.03,11.04c2.63,0,5.16-0.54,7.5-1.53c8.34-3.55,14.32-12.83,14.32-23.7c0-3.47-0.54-6.73-1.57-9.7
	C575.75,378.06,575.5,377.44,575.23,376.82z M567.73,712.87v5.71c0,0.72-0.59,1.3-1.3,1.3h-6.18c-0.72,0-1.3-0.58-1.3-1.3v-5.75
	c-0.44,0-0.85,0.01-1.28,0.02v23.98h1.28v-14.54c0-0.7,0.56-1.28,1.26-1.3l6-0.18c0.68,0,1.31,0.54,1.34,1.25l0.57,14.46h2.18
	l-0.56-23.68C569.07,712.85,568.4,712.86,567.73,712.87z M555.04,932.26c-1.77,0.52-3.66,0.95-5.62,1.27
	c-1.09,0.18-1.83,1.21-1.65,2.3c0.16,0.98,1.01,1.67,1.97,1.67c0.11,0,0.22-0.01,0.33-0.03c1.96-0.32,3.86-0.73,5.66-1.24
	c0.24-1.18,0.49-2.45,0.77-3.83C556.07,932.18,555.55,932.12,555.04,932.26z M553.13,733.02v-20.03c-0.51,0.03-1.01,0.06-1.51,0.09
	v18.18c0,1.97-1.37,4.03-3.12,4.68c-0.93,0.35-1.85,0.3-2.79-0.15c-1.6-0.75-2.64-2.44-2.64-4.3v-0.02l-1.69,0.07
	c0.04,2.41,1.19,4.49,3.21,5.69c1.94,1.16,4.21,1.15,5.93-0.02C551.71,736.39,553.13,735,553.13,733.02z M542.69,934.24
	c-0.37,0.02-0.75,0.03-1.13,0.04c-0.47,1.36-0.95,2.7-1.44,4.03c0.93-0.01,1.86-0.03,2.77-0.08c1.1-0.05,1.95-0.99,1.89-2.1
	C544.73,935.03,543.79,934.18,542.69,934.24z M534.79,936.22c-0.04,1.11,0.83,2.03,1.94,2.07c0.21,0.01,0.42,0.01,0.63,0.01
	c0.49-1.31,0.97-2.64,1.43-3.98c-0.65,0-1.3-0.01-1.94-0.03C535.75,934.24,534.83,935.12,534.79,936.22z M530.06,933.78l-0.28-0.04
	c-1.83-0.22-3.67-0.52-5.48-0.9c-1.09-0.22-2.14,0.47-2.37,1.55c-0.22,1.08,0.47,2.14,1.55,2.37c1.92,0.39,3.88,0.72,5.8,0.95
	l0.28,0.04c0.09,0.01,0.17,0.01,0.25,0.01c1,0,1.86-0.74,1.99-1.75C531.93,934.92,531.16,933.92,530.06,933.78z M517.72,931.13
	c-1.84-0.58-3.69-1.25-5.49-1.98c-1.02-0.42-2.19,0.08-2.61,1.1c-0.41,1.02,0.08,2.19,1.1,2.61c1.9,0.77,3.85,1.47,5.8,2.08
	c0.2,0.07,0.4,0.1,0.6,0.1c0.85,0,1.64-0.55,1.91-1.41C519.36,932.58,518.77,931.46,517.72,931.13z M506.05,926.3
	c-1.72-0.9-3.43-1.87-5.09-2.9c-0.94-0.58-2.17-0.29-2.75,0.65c-0.58,0.94-0.29,2.17,0.65,2.75c1.73,1.08,3.53,2.11,5.34,3.04
	c0.3,0.16,0.61,0.23,0.92,0.23c0.72,0,1.42-0.39,1.78-1.08C507.41,928.01,507.03,926.8,506.05,926.3z M495.21,919.55
	c-1.67-1.11-3.4-2.22-5.14-3.28c-0.95-0.57-2.18-0.27-2.75,0.68c-0.57,0.94-0.27,2.17,0.68,2.75c1.69,1.02,3.36,2.09,4.98,3.17
	c0.34,0.23,0.73,0.34,1.11,0.34c0.64,0,1.28-0.31,1.66-0.88C496.37,921.41,496.12,920.17,495.21,919.55z M483.89,912.76
	c-1.79-0.96-3.63-1.88-5.45-2.75c-0.99-0.47-2.19-0.04-2.66,0.95c-0.47,1-0.05,2.2,0.95,2.67c1.76,0.83,3.54,1.73,5.28,2.66
	c0.3,0.16,0.62,0.23,0.94,0.23c0.71,0,1.4-0.38,1.76-1.06C485.23,914.49,484.86,913.28,483.89,912.76z M471.92,907.15
	c-3.15-1.27-5.2-1.92-5.7-2.07c-0.54,1.21-1.08,2.43-1.62,3.65c0.11,0.06,0.23,0.11,0.36,0.15c0.02,0,2.09,0.62,5.47,1.98
	c0.24,0.1,0.5,0.15,0.74,0.15c0.8,0,1.55-0.48,1.86-1.26C473.44,908.73,472.95,907.56,471.92,907.15z M444.09,451.51l-4.22,3.54
	c-0.28,0.24-0.41,0.61-0.33,0.97c0.93,4.48,0.91,8.35-0.07,11.51c-1.32,4.29-5.87,6.71-10.13,5.4c-5.12-1.57-7.57-6.71-7.59-6.77
	c-0.13-0.27-0.37-0.47-0.66-0.54c-0.29-0.08-0.59-0.02-0.84,0.15l-10.09,7.26c0.26,0.64,0.55,1.25,0.86,1.84
	c2.65,5.07,6.92,8.61,12.1,9.35c4.8,0.68,9.66-1.12,13.7-5.07c0.85-0.83,1.64-1.73,2.35-2.69c2.83-3.72,4.73-8.39,5.45-13.48
	c0.45-3.19,0.37-6.31-0.1-9.22C444.41,453,444.26,452.24,444.09,451.51z"/>
<path id="CODE_x5F_FFFFFF" class="st9" d="M592.32,383.87c-0.3,2.3-1.34,8.2-4.48,12.97c-0.91,0.68-1.8,1.38-2.67,2.08
	c-0.89,0.68-1.69,1.46-2.64,2.08c-1.82,1.29-3.55,2.69-5.44,3.86c-0.94,0.59-1.84,1.23-2.78,1.82l-1.83,1.07
	c4.36-4.94,7.06-11.78,7.06-19.34c0-4.23-0.74-8.18-2.2-11.71c-1.09-2.71-2.59-5.17-4.49-7.32c2.71,0.83,5.42,1.84,8.12,3.02
	c2.33,1.03,4.5,2.07,6.46,3.09c1.47,0.77,2.58,2.11,3.03,3.68c0.48,1.62,0.81,2.93,0.98,3.89c0.07,0.36,0.33,0.66,0.68,0.77
	C592.19,383.85,592.25,383.87,592.32,383.87z M535.58,402.93c-0.01-0.01-0.01-0.01-0.02-0.02c-0.05-0.07-0.09-0.14-0.11-0.21
	c-2.25-4.16-3.55-9.05-3.55-14.29c0-8.02,2.55-14.89,7.26-19.78c-21.59,6.33-30.66,24.8-30.77,25.03c-0.11,0.23-0.29,0.4-0.51,0.48
	c2,4.38,11.71,23.19,32.31,24.93c4.48-0.56,8.82-1.58,13.06-2.86c0.62-0.19,1.24-0.39,1.85-0.59
	C546.88,415.39,539.69,410.37,535.58,402.93z M538.47,380.67c0.46,2.18,1.69,3.84,3.46,4.68c0.8,0.39,1.67,0.58,2.56,0.58
	c1.07,0,2.18-0.28,3.26-0.83c1.89-0.96,3.49-2.66,4.51-4.79c1.01-2.12,1.33-4.44,0.89-6.52c-0.47-2.17-1.69-3.84-3.46-4.68
	c-1.77-0.84-3.84-0.75-5.82,0.25c-1.89,0.96-3.49,2.67-4.51,4.79C538.34,376.28,538.03,378.59,538.47,380.67z M422.84,486.2
	c-6.05-0.86-10.99-5.08-13.9-11.06c0-0.01-0.01-0.01-0.01-0.02c-0.06-0.08-0.1-0.17-0.13-0.26c-0.01-0.01-0.01-0.02-0.01-0.02
	c-2.31-4.91-3.27-10.97-2.37-17.29c0.51-3.6,1.55-6.94,3.12-9.96c-5.05,4.09-6.75,7.84-6.78,7.92c-9.51,21.29,9.98,43.18,10.17,43.4
	c0.24,0.26,0.32,0.62,0.22,0.96c1.32,0.3,3.89,0.59,6.96-0.58c1.74-1.86,3.48-3.65,5.22-5.44c1.73-1.79,3.45-3.58,5.07-5.45
	c1.36-1.53,2.64-3.11,3.88-4.73c-2.89,1.77-6.01,2.69-9.16,2.69C424.36,486.36,423.6,486.31,422.84,486.2z M409.39,454.48
	c0.76,2.14,2.25,3.71,4.21,4.44c0.75,0.27,1.52,0.4,2.29,0.4c3.32,0,6.62-2.42,8.02-6.19c0.82-2.23,0.86-4.59,0.13-6.67
	c-0.76-2.13-2.26-3.71-4.21-4.43c-0.19-0.07-0.38-0.13-0.57-0.18c-2.06,0.87-3.89,1.82-5.5,2.78c-0.46,0.6-0.89,1.22-1.29,1.86
	c-0.28,0.44-0.54,0.88-0.79,1.34c0,0.01,0,0.02-0.01,0.02c-1.04,1.88-1.86,3.9-2.46,6.05C409.26,454.1,409.32,454.29,409.39,454.48z
	"/>
<path id="CODE_x5F_DD618E" class="st10" d="M605.46,815.58c3.16,3.95,6.2,8.29,9.11,12.86c-5.31,5.32-10.52,10.19-14.74,14.01
	c-5.22,4.71-8.46,11.21-9.13,18.27c-3.06,32.18-7.93,59.37-10.86,74.01c-1.45,7.31-2.43,11.49-2.46,11.62
	c-0.11,0.49-0.49,0.86-0.98,0.97c-0.83,0.19-1.66,0.37-2.47,0.53c-4.43,0.87-8.93,1.31-13.42,1.31c-1.39,0-2.78-0.06-4.17-0.14
	c-0.06,0.01-0.11,0.03-0.17,0.03c-0.08,0-0.16-0.04-0.24-0.05c-2.02-0.13-4.03-0.36-6.04-0.66c0.96-0.15,1.92-0.31,2.88-0.49
	c0.81-0.16,1.64-0.34,2.47-0.53c0.49-0.11,0.87-0.48,0.98-0.97c0.03-0.13,1.01-4.31,2.46-11.62c2.93-14.64,7.8-41.83,10.86-74.01
	c0.67-7.06,3.91-13.56,9.13-18.27C586.14,835.69,596.72,825.64,605.46,815.58z M726.32,836.21c-4.28-6.1-7.25-12.9-8.81-20.21
	c-7.55-35.43-7.9-68.99-7.92-71.61c2.33-7.97,2.03-14.66,1.84-16.89c1.66-1.37,5.11-5.68,2.62-16.65c-0.43-1.91-0.76-3.97-1.04-6.48
	c-1.74-15.6-8.38-71.23-20.94-133.3c10.42-20.42,15.71-42.51,17.94-53.9c0.85-4.34,2.25-8.94,4.28-14.07
	c3.65-9.21,3.61-20.19,3.53-23.23c2.94-1.77,4.82-5,4.82-8.5c0.01-3.54-0.19-6.67-0.58-9.3c-0.4-2.64-0.28-5.35,0.35-8.05
	c1.41-6.05,1.99-17.44-9.75-26.24c-1.02-6.26-2.52-14.09-4.68-22.93c32.9-3.35,35.6-38.98,35.21-54.34
	c-0.14-5.21-1.48-10.2-3.85-14.58c9.68-45.17,0.07-81.21-9.77-103.57c5.72,5.95,9.27,13.23,9.32,13.32
	c0.22,0.46,0.68,0.73,1.17,0.73c0.12,0,0.25-0.01,0.38-0.05c0.61-0.19,0.99-0.79,0.9-1.43c-2.74-19.3-9-37.68-18.59-54.63
	c-22.24-39.29-61.18-67.46-106.82-77.3c-17.94-3.86-34.21-4.68-48.46-3.79c8.59,0.53,17.7,1.72,27.3,3.79
	c45.64,9.84,84.58,38.01,106.82,77.3c9.59,16.95,15.85,35.33,18.59,54.63c0.09,0.64-0.29,1.24-0.9,1.43
	c-0.13,0.04-0.26,0.05-0.38,0.05c-0.49,0-0.95-0.27-1.17-0.73c-0.05-0.09-3.6-7.37-9.32-13.32c9.84,22.36,19.45,58.4,9.77,103.57
	c2.37,4.38,3.71,9.37,3.85,14.58c0.39,15.36-2.31,50.99-35.21,54.34c2.16,8.84,3.66,16.67,4.68,22.93
	c11.74,8.8,11.16,20.19,9.75,26.24c-0.63,2.7-0.75,5.41-0.35,8.05c0.39,2.63,0.59,5.76,0.58,9.3c0,3.5-1.88,6.73-4.82,8.5
	c0.08,3.04,0.12,14.02-3.53,23.23c-2.03,5.13-3.43,9.73-4.28,14.07c-2.23,11.39-7.52,33.48-17.94,53.9
	c12.56,62.07,19.2,117.7,20.94,133.3c0.28,2.51,0.61,4.57,1.04,6.48c2.49,10.97-0.96,15.28-2.62,16.65
	c0.19,2.23,0.49,8.92-1.84,16.89c0.02,2.62,0.37,36.18,7.92,71.61c1.56,7.31,4.53,14.11,8.81,20.21c10.99,15.64,35,54.5,33.23,93.22
	c-0.13,2.81-0.39,5.62-0.81,8.42c-0.22,1.49-1.09,2.8-2.37,3.6c-0.84,0.52-1.79,0.78-2.76,0.78c-0.54,0-1.08-0.08-1.61-0.25
	c-2-0.65-4.68-1.48-7.81-2.38c0.28,3.35,0.22,6.66,0.11,9.01c-0.15,2.9-2.13,5.35-4.94,6.11c-6.23,1.67-12.16,2.69-17.72,3.24
	c3.25,0.33,6.78,0.54,10.56,0.54c8.37,0,17.94-0.99,28.32-3.78c2.81-0.76,4.79-3.21,4.94-6.11c0.11-2.35,0.17-5.66-0.11-9.01
	c3.13,0.9,5.81,1.73,7.81,2.38c0.53,0.17,1.07,0.25,1.61,0.25c0.97,0,1.92-0.26,2.76-0.78c1.28-0.8,2.15-2.11,2.37-3.6
	c0.42-2.8,0.68-5.61,0.81-8.42C761.32,890.71,737.31,851.85,726.32,836.21z"/>
</svg>
