  0
SECTION
  2
HEADER
  9
$ACADVER
  1
AC1024
  9
$ACADMAINTVER
 70
     6
  9
$DWGCODEPAGE
  3
ANSI_1252
  9
$INSBASE
 10
0.0
 20
0.0
 30
0.0
  9
$EXTMIN
 10
1.000000000000000E+20
 20
1.000000000000000E+20
 30
1.000000000000000E+20
  9
$EXTMAX
 10
-1.000000000000000E+20
 20
-1.000000000000000E+20
 30
-1.000000000000000E+20
  9
$LIMMIN
 10
0.0
 20
0.0
  9
$LIMMAX
 10
12.0
 20
9.0
  9
$ORTHOMODE
 70
     0
  9
$REGENMODE
 70
     1
  9
$FILLMODE
 70
     1
  9
$QTEXTMODE
 70
     0
  9
$MIRRTEXT
 70
     1
  9
$LTSCALE
 40
1.0
  9
$ATTMODE
 70
     1
  9
$TEXTSIZE
 40
0.2
  9
$TRACEWID
 40
0.05
  9
$TEXTSTYLE
  7
Standard
  9
$CLAYER
  8
0
  9
$CELTYPE
  6
ByLayer
  9
$CECOLOR
 62
   256
  9
$CELTSCALE
 40
1.0
  9
$DISPSILH
 70
     0
  9
$DIMSCALE
 40
1.0
  9
$DIMASZ
 40
0.18
  9
$DIMEXO
 40
0.0625
  9
$DIMDLI
 40
0.38
  9
$DIMRND
 40
0.0
  9
$DIMDLE
 40
0.0
  9
$DIMEXE
 40
0.18
  9
$DIMTP
 40
0.0
  9
$DIMTM
 40
0.0
  9
$DIMTXT
 40
0.18
  9
$DIMCEN
 40
0.09
  9
$DIMTSZ
 40
0.0
  9
$DIMTOL
 70
     0
  9
$DIMLIM
 70
     0
  9
$DIMTIH
 70
     1
  9
$DIMTOH
 70
     1
  9
$DIMSE1
 70
     0
  9
$DIMSE2
 70
     0
  9
$DIMTAD
 70
     0
  9
$DIMZIN
 70
     0
  9
$DIMBLK
  1

  9
$DIMASO
 70
     1
  9
$DIMSHO
 70
     1
  9
$DIMPOST
  1

  9
$DIMAPOST
  1

  9
$DIMALT
 70
     0
  9
$DIMALTD
 70
     2
  9
$DIMALTF
 40
25.4
  9
$DIMLFAC
 40
1.0
  9
$DIMTOFL
 70
     0
  9
$DIMTVP
 40
0.0
  9
$DIMTIX
 70
     0
  9
$DIMSOXD
 70
     0
  9
$DIMSAH
 70
     0
  9
$DIMBLK1
  1

  9
$DIMBLK2
  1

  9
$DIMSTYLE
  2
Standard
  9
$DIMCLRD
 70
     0
  9
$DIMCLRE
 70
     0
  9
$DIMCLRT
 70
     0
  9
$DIMTFAC
 40
1.0
  9
$DIMGAP
 40
0.09
  9
$DIMJUST
 70
     0
  9
$DIMSD1
 70
     0
  9
$DIMSD2
 70
     0
  9
$DIMTOLJ
 70
     1
  9
$DIMTZIN
 70
     0
  9
$DIMALTZ
 70
     0
  9
$DIMALTTZ
 70
     0
  9
$DIMUPT
 70
     0
  9
$DIMDEC
 70
     4
  9
$DIMTDEC
 70
     4
  9
$DIMALTU
 70
     2
  9
$DIMALTTD
 70
     2
  9
$DIMTXSTY
  7
Standard
  9
$DIMAUNIT
 70
     0
  9
$DIMADEC
 70
     0
  9
$DIMALTRND
 40
0.0
  9
$DIMAZIN
 70
     0
  9
$DIMDSEP
 70
    46
  9
$DIMATFIT
 70
     3
  9
$DIMFRAC
 70
     0
  9
$DIMLDRBLK
  1

  9
$DIMLUNIT
 70
     2
  9
$DIMLWD
 70
    -2
  9
$DIMLWE
 70
    -2
  9
$DIMTMOVE
 70
     0
  9
$DIMFXL
 40
1.0
  9
$DIMFXLON
 70
     0
  9
$DIMJOGANG
 40
0.7853981633974483
  9
$DIMTFILL
 70
     0
  9
$DIMTFILLCLR
 70
     0
  9
$DIMARCSYM
 70
     0
  9
$DIMLTYPE
  6

  9
$DIMLTEX1
  6

  9
$DIMLTEX2
  6

  9
$DIMTXTDIRECTION
 70
     0
  9
$LUNITS
 70
     2
  9
$LUPREC
 70
     4
  9
$SKETCHINC
 40
0.1
  9
$FILLETRAD
 40
0.5
  9
$AUNITS
 70
     0
  9
$AUPREC
 70
     0
  9
$MENU
  1
.
  9
$ELEVATION
 40
0.0
  9
$PELEVATION
 40
0.0
  9
$THICKNESS
 40
0.0
  9
$LIMCHECK
 70
     0
  9
$CHAMFERA
 40
0.5
  9
$CHAMFERB
 40
0.5
  9
$CHAMFERC
 40
1.0
  9
$CHAMFERD
 40
0.0
  9
$SKPOLY
 70
     0
  9
$TDCREATE
 40
2459346.835638935
  9
$TDUCREATE
 40
2459347.043972269
  9
$TDUPDATE
 40
2459346.835638947
  9
$TDUUPDATE
 40
2459347.04397228
  9
$TDINDWG
 40
0.0000000116
  9
$TDUSRTIMER
 40
0.0000000116
  9
$USRTIMER
 70
     1
  9
$ANGBASE
 50
0.0
  9
$ANGDIR
 70
     0
  9
$PDMODE
 70
     0
  9
$PDSIZE
 40
0.0
  9
$PLINEWID
 40
0.0
  9
$SPLFRAME
 70
     0
  9
$SPLINETYPE
 70
     6
  9
$SPLINESEGS
 70
     8
  9
$HANDSEED
  5
45
  9
$SURFTAB1
 70
     6
  9
$SURFTAB2
 70
     6
  9
$SURFTYPE
 70
     6
  9
$SURFU
 70
     6
  9
$SURFV
 70
     6
  9
$UCSBASE
  2

  9
$UCSNAME
  2

  9
$UCSORG
 10
0.0
 20
0.0
 30
0.0
  9
$UCSXDIR
 10
1.0
 20
0.0
 30
0.0
  9
$UCSYDIR
 10
0.0
 20
1.0
 30
0.0
  9
$UCSORTHOREF
  2

  9
$UCSORTHOVIEW
 70
     0
  9
$UCSORGTOP
 10
0.0
 20
0.0
 30
0.0
  9
$UCSORGBOTTOM
 10
0.0
 20
0.0
 30
0.0
  9
$UCSORGLEFT
 10
0.0
 20
0.0
 30
0.0
  9
$UCSORGRIGHT
 10
0.0
 20
0.0
 30
0.0
  9
$UCSORGFRONT
 10
0.0
 20
0.0
 30
0.0
  9
$UCSORGBACK
 10
0.0
 20
0.0
 30
0.0
  9
$PUCSBASE
  2

  9
$PUCSNAME
  2

  9
$PUCSORG
 10
0.0
 20
0.0
 30
0.0
  9
$PUCSXDIR
 10
1.0
 20
0.0
 30
0.0
  9
$PUCSYDIR
 10
0.0
 20
1.0
 30
0.0
  9
$PUCSORTHOREF
  2

  9
$PUCSORTHOVIEW
 70
     0
  9
$PUCSORGTOP
 10
0.0
 20
0.0
 30
0.0
  9
$PUCSORGBOTTOM
 10
0.0
 20
0.0
 30
0.0
  9
$PUCSORGLEFT
 10
0.0
 20
0.0
 30
0.0
  9
$PUCSORGRIGHT
 10
0.0
 20
0.0
 30
0.0
  9
$PUCSORGFRONT
 10
0.0
 20
0.0
 30
0.0
  9
$PUCSORGBACK
 10
0.0
 20
0.0
 30
0.0
  9
$USERI1
 70
     0
  9
$USERI2
 70
     0
  9
$USERI3
 70
     0
  9
$USERI4
 70
     0
  9
$USERI5
 70
     0
  9
$USERR1
 40
0.0
  9
$USERR2
 40
0.0
  9
$USERR3
 40
0.0
  9
$USERR4
 40
0.0
  9
$USERR5
 40
0.0
  9
$WORLDVIEW
 70
     1
  9
$SHADEDGE
 70
     3
  9
$SHADEDIF
 70
    70
  9
$TILEMODE
 70
     1
  9
$MAXACTVP
 70
    64
  9
$PINSBASE
 10
0.0
 20
0.0
 30
0.0
  9
$PLIMCHECK
 70
     0
  9
$PEXTMIN
 10
1.000000000000000E+20
 20
1.000000000000000E+20
 30
1.000000000000000E+20
  9
$PEXTMAX
 10
-1.000000000000000E+20
 20
-1.000000000000000E+20
 30
-1.000000000000000E+20
  9
$PLIMMIN
 10
0.0
 20
0.0
  9
$PLIMMAX
 10
12.0
 20
9.0
  9
$UNITMODE
 70
     0
  9
$VISRETAIN
 70
     1
  9
$PLINEGEN
 70
     0
  9
$PSLTSCALE
 70
     1
  9
$TREEDEPTH
 70
  3020
  9
$CMLSTYLE
  2
Standard
  9
$CMLJUST
 70
     0
  9
$CMLSCALE
 40
1.0
  9
$PROXYGRAPHICS
 70
     1
  9
$MEASUREMENT
 70
     0
  9
$CELWEIGHT
370
    -1
  9
$ENDCAPS
280
     0
  9
$JOINSTYLE
280
     0
  9
$LWDISPLAY
290
     1
  9
$INSUNITS
 70
     0
  9
$HYPERLINKBASE
  1

  9
$STYLESHEET
  1

  9
$XEDIT
290
     1
  9
$CEPSNTYPE
380
     0
  9
$PSTYLEMODE
290
     1
  9
$FINGERPRINTGUID
  2
{CB655A9C-C210-4738-94AF-3DD92A482D07}
  9
$VERSIONGUID
  2
{FAEB1C32-E019-11D5-929B-00C0DF256EC4}
  9
$EXTNAMES
290
     1
  9
$PSVPSCALE
 40
0.0
  9
$OLESTARTUP
290
     0
  9
$SORTENTS
280
   127
  9
$INDEXCTL
280
     0
  9
$HIDETEXT
280
     1
  9
$XCLIPFRAME
280
     2
  9
$HALOGAP
280
     0
  9
$OBSCOLOR
 70
   257
  9
$OBSLTYPE
280
     0
  9
$INTERSECTIONDISPLAY
280
     0
  9
$INTERSECTIONCOLOR
 70
   257
  9
$DIMASSOC
280
     2
  9
$PROJECTNAME
  1

  9
$CAMERADISPLAY
290
     0
  9
$LENSLENGTH
 40
50.0
  9
$CAMERAHEIGHT
 40
0.0
  9
$STEPSPERSEC
 40
2.0
  9
$STEPSIZE
 40
6.0
  9
$3DDWFPREC
 40
2.0
  9
$PSOLWIDTH
 40
0.25
  9
$PSOLHEIGHT
 40
4.0
  9
$LOFTANG1
 40
1.570796326794897
  9
$LOFTANG2
 40
1.570796326794897
  9
$LOFTMAG1
 40
0.0
  9
$LOFTMAG2
 40
0.0
  9
$LOFTPARAM
 70
     7
  9
$LOFTNORMALS
280
     1
  9
$LATITUDE
 40
37.795
  9
$LONGITUDE
 40
-122.394
  9
$NORTHDIRECTION
 40
0.0
  9
$TIMEZONE
 70
 -8000
  9
$LIGHTGLYPHDISPLAY
280
     1
  9
$TILEMODELIGHTSYNCH
280
     1
  9
$CMATERIAL
347
3C
  9
$SOLIDHIST
280
     1
  9
$SHOWHIST
280
     1
  9
$DWFFRAME
280
     2
  9
$DGNFRAME
280
     2
  9
$REALWORLDSCALE
290
     1
  9
$INTERFERECOLOR
 62
   256
  9
$CSHADOW
280
     0
  9
$SHADOWPLANELOCATION
 40
0.0
  0
ENDSEC
  0
SECTION
  2
CLASSES
  0
CLASS
  1
ACDBDICTIONARYWDFLT
  2
AcDbDictionaryWithDefault
  3
ObjectDBX Classes
 90
        0
 91
        4
280
     0
281
     0
  0
CLASS
  1
VISUALSTYLE
  2
AcDbVisualStyle
  3
ObjectDBX Classes
 90
     4095
 91
        4
280
     0
281
     0
  0
CLASS
  1
MATERIAL
  2
AcDbMaterial
  3
ObjectDBX Classes
 90
     1153
 91
        4
280
     0
281
     0
  0
CLASS
  1
SUN
  2
AcDbSun
  3
SCENEOE
 90
     1024
 91
        4
280
     0
281
     0
  0
ENDSEC
  0
SECTION
  2
TABLES
  0
TABLE
  2
VPORT
  5
8
330
0
100
AcDbSymbolTable
 70
     1
  0
VPORT
  5
29
330
8
100
AcDbSymbolTableRecord
100
AcDbViewportTableRecord
  2
*Active
 70
     0
 10
0.0
 20
0.0
 11
1.0
 21
1.0
 12
0.0
 22
0.0
 13
0.0
 23
0.0
 14
0.5
 24
0.5
 15
0.5
 25
0.5
 16
0.0
 26
0.0
 36
1.0
 17
540.0
 27
-540.0
 37
0.0
 40
1080.0
 41
1.0
 42
50.0
 43
0.0
 44
0.0
 50
0.0
 51
0.0
 71
     0
 72
   100
 73
     1
 74
     3
 75
     0
 76
     0
 77
     0
 78
     0
281
     0
 65
     1
110
0.0
120
0.0
130
0.0
111
1.0
121
0.0
131
0.0
112
0.0
122
1.0
132
0.0
 79
     0
146
0.0
 60
     3
 61
     5
292
     1
282
     1
141
0.0
142
0.0
 63
   250
361
3F
  0
ENDTAB
  0
TABLE
  2
LTYPE
  5
5
330
0
100
AcDbSymbolTable
 70
     1
  0
LTYPE
  5
14
330
5
100
AcDbSymbolTableRecord
100
AcDbLinetypeTableRecord
  2
ByBlock
 70
     0
  3

 72
    65
 73
     0
 40
0.0
  0
LTYPE
  5
15
330
5
100
AcDbSymbolTableRecord
100
AcDbLinetypeTableRecord
  2
ByLayer
 70
     0
  3

 72
    65
 73
     0
 40
0.0
  0
LTYPE
  5
16
330
5
100
AcDbSymbolTableRecord
100
AcDbLinetypeTableRecord
  2
Continuous
 70
     0
  3
Solid line
 72
    65
 73
     0
 40
0.0
  0
ENDTAB
  0
TABLE
  2
LAYER
  5
2
330
0
100
AcDbSymbolTable
 70
     2
  0
LAYER
  5
10
330
2
100
AcDbSymbolTableRecord
100
AcDbLayerTableRecord
  2
0
 70
     0
 62
     7
  6
Continuous
370
    -3
390
F
347
3E
  0
LAYER
  5
40
330
2
100
AcDbSymbolTableRecord
100
AcDbLayerTableRecord
  2
JK_PURPLE
 70
     0
 62
     7
  6
Continuous
370
    -3
390
F
347
3E
  0
ENDTAB
  0
TABLE
  2
STYLE
  5
3
330
0
100
AcDbSymbolTable
 70
     1
  0
STYLE
  5
11
330
3
100
AcDbSymbolTableRecord
100
AcDbTextStyleTableRecord
  2
Standard
 70
     0
 40
0.0
 41
1.0
 50
0.0
 71
     0
 42
0.2
  3
txt
  4

  0
ENDTAB
  0
TABLE
  2
VIEW
  5
6
330
0
100
AcDbSymbolTable
 70
     0
  0
ENDTAB
  0
TABLE
  2
UCS
  5
7
330
0
100
AcDbSymbolTable
 70
     0
  0
ENDTAB
  0
TABLE
  2
APPID
  5
9
330
0
100
AcDbSymbolTable
 70
     1
  0
APPID
  5
12
330
9
100
AcDbSymbolTableRecord
100
AcDbRegAppTableRecord
  2
ACAD
 70
     0
  0
ENDTAB
  0
TABLE
  2
DIMSTYLE
  5
A
330
0
100
AcDbSymbolTable
 70
     1
100
AcDbDimStyleTable
  0
DIMSTYLE
105
27
330
A
100
AcDbSymbolTableRecord
100
AcDbDimStyleTableRecord
  2
Standard
 70
     0
178
     0
340
11
  0
ENDTAB
  0
TABLE
  2
BLOCK_RECORD
  5
1
330
0
100
AcDbSymbolTable
 70
     1
  0
BLOCK_RECORD
  5
1F
330
1
100
AcDbSymbolTableRecord
100
AcDbBlockTableRecord
  2
*Model_Space
340
22
 70
     0
280
     1
281
     0
  0
BLOCK_RECORD
  5
1B
330
1
100
AcDbSymbolTableRecord
100
AcDbBlockTableRecord
  2
*Paper_Space
340
1E
 70
     0
280
     1
281
     0
  0
BLOCK_RECORD
  5
23
330
1
100
AcDbSymbolTableRecord
100
AcDbBlockTableRecord
  2
*Paper_Space0
340
26
 70
     0
280
     1
281
     0
  0
ENDTAB
  0
ENDSEC
  0
SECTION
  2
BLOCKS
  0
BLOCK
  5
20
330
1F
100
AcDbEntity
  8
0
100
AcDbBlockBegin
  2
*Model_Space
 70
     0
 10
0.0
 20
0.0
 30
0.0
  3
*Model_Space
  1

  0
ENDBLK
  5
21
330
1F
100
AcDbEntity
  8
0
100
AcDbBlockEnd
  0
BLOCK
  5
1C
330
1B
100
AcDbEntity
 67
     1
  8
0
100
AcDbBlockBegin
  2
*Paper_Space
 70
     0
 10
0.0
 20
0.0
 30
0.0
  3
*Paper_Space
  1

  0
ENDBLK
  5
1D
330
1B
100
AcDbEntity
 67
     1
  8
0
100
AcDbBlockEnd
  0
BLOCK
  5
24
330
23
100
AcDbEntity
  8
0
100
AcDbBlockBegin
  2
*Paper_Space0
 70
     0
 10
0.0
 20
0.0
 30
0.0
  3
*Paper_Space0
  1

  0
ENDBLK
  5
25
330
23
100
AcDbEntity
  8
0
100
AcDbBlockEnd
  0
ENDSEC
  0
SECTION
  2
ENTITIES
  0
SPLINE
  5
41
330
1F
100
AcDbEntity
  8
JK_PURPLE
370
     0
100
AcDbSpline
210
0.0
220
0.0
230
1.0
 70
    11
 71
     3
 72
   524
 73
   520
 74
     0
 42
0.0000000001
 43
0.0000000001
 12
1.0
 22
0.0
 32
0.0
 13
1.0
 23
0.0
 33
0.0
 40
0.0
 40
0.0
 40
0.0
 40
0.0
 40
1.0
 40
1.0
 40
1.0
 40
2.0
 40
2.0
 40
2.0
 40
3.0
 40
3.0
 40
3.0
 40
4.0
 40
4.0
 40
4.0
 40
5.0
 40
5.0
 40
5.0
 40
6.0
 40
6.0
 40
6.0
 40
7.0
 40
7.0
 40
7.0
 40
8.0
 40
8.0
 40
8.0
 40
9.0
 40
9.0
 40
9.0
 40
10.0
 40
10.0
 40
10.0
 40
11.0
 40
11.0
 40
11.0
 40
12.0
 40
12.0
 40
12.0
 40
13.0
 40
13.0
 40
13.0
 40
14.0
 40
14.0
 40
14.0
 40
15.0
 40
15.0
 40
15.0
 40
16.0
 40
16.0
 40
16.0
 40
17.0
 40
17.0
 40
17.0
 40
18.0
 40
18.0
 40
18.0
 40
19.0
 40
19.0
 40
19.0
 40
20.0
 40
20.0
 40
20.0
 40
21.0
 40
21.0
 40
21.0
 40
22.0
 40
22.0
 40
22.0
 40
23.0
 40
23.0
 40
23.0
 40
24.0
 40
24.0
 40
24.0
 40
25.0
 40
25.0
 40
25.0
 40
26.0
 40
26.0
 40
26.0
 40
27.0
 40
27.0
 40
27.0
 40
28.0
 40
28.0
 40
28.0
 40
29.0
 40
29.0
 40
29.0
 40
30.0
 40
30.0
 40
30.0
 40
31.0
 40
31.0
 40
31.0
 40
32.0
 40
32.0
 40
32.0
 40
33.0
 40
33.0
 40
33.0
 40
34.0
 40
34.0
 40
34.0
 40
35.0
 40
35.0
 40
35.0
 40
36.0
 40
36.0
 40
36.0
 40
37.0
 40
37.0
 40
37.0
 40
38.0
 40
38.0
 40
38.0
 40
39.0
 40
39.0
 40
39.0
 40
40.0
 40
40.0
 40
40.0
 40
41.0
 40
41.0
 40
41.0
 40
42.0
 40
42.0
 40
42.0
 40
43.0
 40
43.0
 40
43.0
 40
44.0
 40
44.0
 40
44.0
 40
45.0
 40
45.0
 40
45.0
 40
46.0
 40
46.0
 40
46.0
 40
47.0
 40
47.0
 40
47.0
 40
48.0
 40
48.0
 40
48.0
 40
49.0
 40
49.0
 40
49.0
 40
50.0
 40
50.0
 40
50.0
 40
51.0
 40
51.0
 40
51.0
 40
52.0
 40
52.0
 40
52.0
 40
53.0
 40
53.0
 40
53.0
 40
54.0
 40
54.0
 40
54.0
 40
55.0
 40
55.0
 40
55.0
 40
56.0
 40
56.0
 40
56.0
 40
57.0
 40
57.0
 40
57.0
 40
58.0
 40
58.0
 40
58.0
 40
59.0
 40
59.0
 40
59.0
 40
60.0
 40
60.0
 40
60.0
 40
61.0
 40
61.0
 40
61.0
 40
62.0
 40
62.0
 40
62.0
 40
63.0
 40
63.0
 40
63.0
 40
64.0
 40
64.0
 40
64.0
 40
65.0
 40
65.0
 40
65.0
 40
66.0
 40
66.0
 40
66.0
 40
67.0
 40
67.0
 40
67.0
 40
68.0
 40
68.0
 40
68.0
 40
69.0
 40
69.0
 40
69.0
 40
70.0
 40
70.0
 40
70.0
 40
71.0
 40
71.0
 40
71.0
 40
72.0
 40
72.0
 40
72.0
 40
73.0
 40
73.0
 40
73.0
 40
74.0
 40
74.0
 40
74.0
 40
75.0
 40
75.0
 40
75.0
 40
76.0
 40
76.0
 40
76.0
 40
77.0
 40
77.0
 40
77.0
 40
78.0
 40
78.0
 40
78.0
 40
79.0
 40
79.0
 40
79.0
 40
80.0
 40
80.0
 40
80.0
 40
81.0
 40
81.0
 40
81.0
 40
82.0
 40
82.0
 40
82.0
 40
83.0
 40
83.0
 40
83.0
 40
84.0
 40
84.0
 40
84.0
 40
85.0
 40
85.0
 40
85.0
 40
86.0
 40
86.0
 40
86.0
 40
87.0
 40
87.0
 40
87.0
 40
88.0
 40
88.0
 40
88.0
 40
89.0
 40
89.0
 40
89.0
 40
90.0
 40
90.0
 40
90.0
 40
91.0
 40
91.0
 40
91.0
 40
92.0
 40
92.0
 40
92.0
 40
93.0
 40
93.0
 40
93.0
 40
94.0
 40
94.0
 40
94.0
 40
95.0
 40
95.0
 40
95.0
 40
96.0
 40
96.0
 40
96.0
 40
97.0
 40
97.0
 40
97.0
 40
98.0
 40
98.0
 40
98.0
 40
99.0
 40
99.0
 40
99.0
 40
100.0
 40
100.0
 40
100.0
 40
101.0
 40
101.0
 40
101.0
 40
102.0
 40
102.0
 40
102.0
 40
103.0
 40
103.0
 40
103.0
 40
104.0
 40
104.0
 40
104.0
 40
105.0
 40
105.0
 40
105.0
 40
106.0
 40
106.0
 40
106.0
 40
107.0
 40
107.0
 40
107.0
 40
108.0
 40
108.0
 40
108.0
 40
109.0
 40
109.0
 40
109.0
 40
110.0
 40
110.0
 40
110.0
 40
111.0
 40
111.0
 40
111.0
 40
112.0
 40
112.0
 40
112.0
 40
113.0
 40
113.0
 40
113.0
 40
114.0
 40
114.0
 40
114.0
 40
115.0
 40
115.0
 40
115.0
 40
116.0
 40
116.0
 40
116.0
 40
117.0
 40
117.0
 40
117.0
 40
118.0
 40
118.0
 40
118.0
 40
119.0
 40
119.0
 40
119.0
 40
120.0
 40
120.0
 40
120.0
 40
121.0
 40
121.0
 40
121.0
 40
122.0
 40
122.0
 40
122.0
 40
123.0
 40
123.0
 40
123.0
 40
124.0
 40
124.0
 40
124.0
 40
125.0
 40
125.0
 40
125.0
 40
126.0
 40
126.0
 40
126.0
 40
127.0
 40
127.0
 40
127.0
 40
128.0
 40
128.0
 40
128.0
 40
129.0
 40
129.0
 40
129.0
 40
130.0
 40
130.0
 40
130.0
 40
131.0
 40
131.0
 40
131.0
 40
132.0
 40
132.0
 40
132.0
 40
133.0
 40
133.0
 40
133.0
 40
134.0
 40
134.0
 40
134.0
 40
135.0
 40
135.0
 40
135.0
 40
136.0
 40
136.0
 40
136.0
 40
137.0
 40
137.0
 40
137.0
 40
138.0
 40
138.0
 40
138.0
 40
139.0
 40
139.0
 40
139.0
 40
140.0
 40
140.0
 40
140.0
 40
141.0
 40
141.0
 40
141.0
 40
142.0
 40
142.0
 40
142.0
 40
143.0
 40
143.0
 40
143.0
 40
144.0
 40
144.0
 40
144.0
 40
145.0
 40
145.0
 40
145.0
 40
146.0
 40
146.0
 40
146.0
 40
147.0
 40
147.0
 40
147.0
 40
148.0
 40
148.0
 40
148.0
 40
149.0
 40
149.0
 40
149.0
 40
150.0
 40
150.0
 40
150.0
 40
151.0
 40
151.0
 40
151.0
 40
152.0
 40
152.0
 40
152.0
 40
153.0
 40
153.0
 40
153.0
 40
154.0
 40
154.0
 40
154.0
 40
155.0
 40
155.0
 40
155.0
 40
156.0
 40
156.0
 40
156.0
 40
157.0
 40
157.0
 40
157.0
 40
158.0
 40
158.0
 40
158.0
 40
159.0
 40
159.0
 40
159.0
 40
160.0
 40
160.0
 40
160.0
 40
161.0
 40
161.0
 40
161.0
 40
162.0
 40
162.0
 40
162.0
 40
163.0
 40
163.0
 40
163.0
 40
164.0
 40
164.0
 40
164.0
 40
165.0
 40
165.0
 40
165.0
 40
166.0
 40
166.0
 40
166.0
 40
167.0
 40
167.0
 40
167.0
 40
168.0
 40
168.0
 40
168.0
 40
169.0
 40
169.0
 40
169.0
 40
170.0
 40
170.0
 40
170.0
 40
171.0
 40
171.0
 40
171.0
 40
172.0
 40
172.0
 40
172.0
 40
173.0
 40
173.0
 40
173.0
 40
173.0
 10
755.1900024414062
 20
-256.0599975585938
 30
0.0
 10
743.22998046875
 20
-219.719970703125
 30
0.0
 10
719.280029296875
 20
-171.739990234375
 30
0.0
 10
673.1099853515625
 20
-149.47998046875
 30
0.0
 10
638.2999877929688
 20
-132.7000122070312
 30
0.0
 10
596.0599975585938
 20
-133.1900024414062
 30
0.0
 10
547.5700073242188
 20
-150.9299926757812
 30
0.0
 10
543.9600219726562
 20
-145.2999877929688
 30
0.0
 10
539.3499755859375
 20
-140.760009765625
 30
0.0
 10
533.6799926757812
 20
-137.3900146484384
 30
0.0
 10
514.02001953125
 20
-125.6900024414062
 30
0.0
 10
482.739990234375
 20
-127.6699829101562
 30
0.0
 10
440.719970703125
 20
-143.2699584960938
 30
0.0
 10
409.6099853515634
 20
-154.8299560546884
 30
0.0
 10
383.8499755859384
 20
-169.989990234375
 30
0.0
 10
383.5999755859384
 20
-170.1400146484384
 30
0.0
 10
351.780029296875
 20
-189.010009765625
 30
0.0
 10
327.25
 20
-209.719970703125
 30
0.0
 10
310.6799926757812
 20
-231.6900024414062
 30
0.0
 10
297.3699951171884
 20
-249.3299560546884
 30
0.0
 10
289.1300048828134
 20
-267.8200073242188
 30
0.0
 10
286.1900024414062
 20
-286.6499633789062
 30
0.0
 10
281.3800048828134
 20
-317.3900146484384
 30
0.0
 10
292.1400146484384
 20
-338.5
 30
0.0
 10
293.5399780273438
 20
-341.0700073242188
 30
0.0
 10
293.6400146484384
 20
-356.3900146484384
 30
0.0
 10
298.4099731445312
 20
-368.4199829101562
 30
0.0
 10
303.3800048828134
 20
-376.8200073242188
 30
0.0
 10
310.8599853515634
 20
-389.469970703125
 30
0.0
 10
320.02001953125
 20
-396.4400024414062
 30
0.0
 10
321.9000244140634
 20
-397.7899780273438
 30
0.0
 10
323.75
 20
-404.0599975585938
 30
0.0
 10
327.030029296875
 20
-410.8399658203134
 30
0.0
 10
332.6500244140634
 20
-417.3599853515634
 30
0.0
 10
333.280029296875
 20
-419.3200073242188
 30
0.0
 10
339.0999755859384
 20
-436.7999877929688
 30
0.0
 10
353.4400024414062
 20
-458.0199584960938
 30
0.0
 10
367.3599853515634
 20
-478.6199951171884
 30
0.0
 10
392.3900146484384
 20
-507.0799560546884
 30
0.0
 10
432.6799926757812
 20
-525.9400024414062
 30
0.0
 10
433.260009765625
 20
-527.6699829101562
 30
0.0
 10
435.0800170898438
 20
-533.6300048828125
 30
0.0
 10
434.8099975585938
 20
-539.3299560546875
 30
0.0
 10
433.6799926757812
 20
-540.260009765625
 30
0.0
 10
432.9500122070312
 20
-541.469970703125
 30
0.0
 10
432.6099853515634
 20
-542.9299926757812
 30
0.0
 10
429.9600219726562
 20
-543.25
 30
0.0
 10
422.760009765625
 20
-544.6300048828125
 30
0.0
 10
413.280029296875
 20
-550.7799682617188
 30
0.0
 10
408.0599975585938
 20
-554.1699829101562
 30
0.0
 10
402.1500244140634
 20
-559.0
 30
0.0
 10
395.9400024414062
 20
-565.8999633789062
 30
0.0
 10
393.7999877929688
 20
-568.2699584960938
 30
0.0
 10
391.6199951171884
 20
-570.8999633789062
 30
0.0
 10
389.4199829101562
 20
-573.7899780273438
 30
0.0
 10
385.5499877929688
 20
-578.8800048828125
 30
0.0
 10
381.6099853515634
 20
-584.7999877929688
 30
0.0
 10
377.7000122070312
 20
-591.7000122070312
 30
0.0
 10
377.6500244140634
 20
-591.8099975585938
 30
0.0
 10
374.9199829101562
 20
-596.8099975585938
 30
0.0
 10
370.1300048828134
 20
-604.1400146484375
 30
0.0
 10
368.5599975585938
 20
-606.5399780273438
 30
0.0
 10
366.77001953125
 20
-609.1900024414062
 30
0.0
 10
364.760009765625
 20
-612.010009765625
 30
0.0
 10
359.4299926757812
 20
-619.5499877929688
 30
0.0
 10
352.6400146484384
 20
-628.22998046875
 30
0.0
 10
344.8099975585938
 20
-636.3299560546875
 30
0.0
 10
343.8699951171884
 20
-636.72998046875
 30
0.0
 10
342.739990234375
 20
-637.5700073242188
 30
0.0
 10
342.0800170898438
 20
-639.3299560546875
 30
0.0
 10
341.8900146484384
 20
-639.8599853515625
 30
0.0
 10
341.77001953125
 20
-640.4299926757812
 30
0.0
 10
341.719970703125
 20
-641.0
 30
0.0
 10
341.1300048828134
 20
-641.0899658203125
 30
0.0
 10
340.4400024414062
 20
-641.3099975585938
 30
0.0
 10
339.7000122070312
 20
-641.8099975585938
 30
0.0
 10
338.5
 20
-642.6099853515625
 30
0.0
 10
337.5
 20
-643.9199829101562
 30
0.0
 10
336.6799926757812
 20
-645.7099609375
 30
0.0
 10
335.2000122070312
 20
-645.1900024414062
 30
0.0
 10
332.7000122070312
 20
-644.6699829101562
 30
0.0
 10
330.2100219726562
 20
-645.8399658203125
 30
0.0
 10
327.9299926757812
 20
-646.8900146484375
 30
0.0
 10
326.22998046875
 20
-649.0599975585938
 30
0.0
 10
325.0999755859384
 20
-652.2999877929688
 30
0.0
 10
323.9099731445312
 20
-652.8800048828125
 30
0.0
 10
320.530029296875
 20
-654.3900146484375
 30
0.0
 10
316.6900024414062
 20
-655.0700073242188
 30
0.0
 10
314.6400146484384
 20
-655.4299926757812
 30
0.0
 10
313.0900268554688
 20
-656.989990234375
 30
0.0
 10
312.739990234375
 20
-659.0499877929688
 30
0.0
 10
312.3800048828134
 20
-661.1599731445312
 30
0.0
 10
313.3599853515634
 20
-663.2000122070312
 30
0.0
 10
315.22998046875
 20
-664.25
 30
0.0
 10
317.3400268554688
 20
-665.4299926757812
 30
0.0
 10
319.72998046875
 20
-666.0299682617188
 30
0.0
 10
322.3800048828134
 20
-666.0299682617188
 30
0.0
 10
323.0
 20
-666.0299682617188
 30
0.0
 10
323.6400146484384
 20
-665.989990234375
 30
0.0
 10
324.2899780273438
 20
-665.9199829101562
 30
0.0
 10
324.6900024414062
 20
-667.7000122070312
 30
0.0
 10
325.3599853515634
 20
-669.4299926757812
 30
0.0
 10
326.47998046875
 20
-670.8200073242188
 30
0.0
 10
327.6099853515634
 20
-672.219970703125
 30
0.0
 10
329.2000122070312
 20
-673.0799560546875
 30
0.0
 10
330.969970703125
 20
-673.22998046875
 30
0.0
 10
331.1599731445312
 20
-673.25
 30
0.0
 10
331.3499755859384
 20
-673.260009765625
 30
0.0
 10
331.530029296875
 20
-673.260009765625
 30
0.0
 10
333.1099853515634
 20
-673.260009765625
 30
0.0
 10
334.6199951171884
 20
-672.6799926757812
 30
0.0
 10
335.8400268554688
 20
-671.6099853515625
 30
0.0
 10
335.9000244140634
 20
-671.5599975585938
 30
0.0
 10
335.9500122070312
 20
-671.489990234375
 30
0.0
 10
336.010009765625
 20
-671.4400024414062
 30
0.0
 10
336.4600219726562
 20
-672.4299926757812
 30
0.0
 10
337.010009765625
 20
-673.3399658203125
 30
0.0
 10
337.6900024414062
 20
-674.0999755859375
 30
0.0
 10
339.0900268554688
 20
-675.6799926757812
 30
0.0
 10
340.8599853515634
 20
-676.5
 30
0.0
 10
342.9600219726562
 20
-676.5599975585938
 30
0.0
 10
342.969970703125
 20
-676.5599975585938
 30
0.0
 10
342.97998046875
 20
-676.5599975585938
 30
0.0
 10
342.989990234375
 20
-676.5599975585938
 30
0.0
 10
343.1300048828134
 20
-676.5599975585938
 30
0.0
 10
343.27001953125
 20
-676.5299682617188
 30
0.0
 10
343.4000244140634
 20
-676.489990234375
 30
0.0
 10
343.5499877929688
 20
-676.4400024414062
 30
0.0
 10
345.4000244140634
 20
-675.7899780273438
 30
0.0
 10
346.9500122070312
 20
-673.5399780273438
 30
0.0
 10
348.530029296875
 20
-674.0399780273438
 30
0.0
 10
351.75
 20
-674.8699951171875
 30
0.0
 10
355.8300170898438
 20
-674.8699951171875
 30
0.0
 10
359.4500122070312
 20
-674.8699951171875
 30
0.0
 10
363.72998046875
 20
-674.2000122070312
 30
0.0
 10
368.1400146484384
 20
-672.0899658203125
 30
0.0
 10
368.6699829101562
 20
-672.719970703125
 30
0.0
 10
369.3599853515634
 20
-673.2099609375
 30
0.0
 10
370.1500244140634
 20
-673.510009765625
 30
0.0
 10
370.7100219726562
 20
-673.719970703125
 30
0.0
 10
371.2899780273438
 20
-673.8200073242188
 30
0.0
 10
371.8699951171884
 20
-673.8200073242188
 30
0.0
 10
372.8800048828134
 20
-673.8200073242188
 30
0.0
 10
373.8800048828134
 20
-673.510009765625
 30
0.0
 10
374.719970703125
 20
-672.8999633789062
 30
0.0
 10
376.9600219726562
 20
-671.2999877929688
 30
0.0
 10
378.6900024414062
 20
-669.0599975585938
 30
0.0
 10
379.9500122070312
 20
-667.0
 30
0.0
 10
383.3800048828134
 20
-666.8900146484375
 30
0.0
 10
386.9400024414062
 20
-665.4500122070312
 30
0.0
 10
387.0999755859384
 20
-665.3900146484375
 30
0.0
 10
387.1199951171884
 20
-665.3800048828125
 30
0.0
 10
387.1199951171884
 20
-665.3699951171875
 30
0.0
 10
387.1400146484384
 20
-665.3699951171875
 30
0.0
 10
387.1500244140634
 20
-665.3599853515625
 30
0.0
 10
387.1699829101562
 20
-665.3599853515625
 30
0.0
 10
387.1900024414062
 20
-665.3499755859375
 30
0.0
 10
387.280029296875
 20
-665.2999877929688
 30
0.0
 10
391.1599731445312
 20
-663.3599853515625
 30
0.0
 10
397.02001953125
 20
-659.510009765625
 30
0.0
 10
397.1300048828134
 20
-659.4400024414062
 30
0.0
 10
397.239990234375
 20
-659.3599853515625
 30
0.0
 10
397.3599853515634
 20
-659.2899780273438
 30
0.0
 10
399.4400024414062
 20
-657.9099731445312
 30
0.0
 10
401.77001953125
 20
-656.2999877929688
 30
0.0
 10
404.260009765625
 20
-654.4599609375
 30
0.0
 10
404.780029296875
 20
-662.1599731445312
 30
0.0
 10
405.7000122070312
 20
-688.3800048828125
 30
0.0
 10
397.52001953125
 20
-718.5599975585938
 30
0.0
 10
396.7999877929688
 20
-721.25
 30
0.0
 10
396.0
 20
-723.969970703125
 30
0.0
 10
395.1199951171884
 20
-726.719970703125
 30
0.0
 10
394.1300048828134
 20
-729.8099975585938
 30
0.0
 10
393.030029296875
 20
-732.9400024414062
 30
0.0
 10
391.8300170898438
 20
-736.0799560546875
 30
0.0
 10
391.3699951171884
 20
-737.2699584960938
 30
0.0
 10
390.9000244140634
 20
-738.4599609375
 30
0.0
 10
390.4099731445312
 20
-739.6499633789062
 30
0.0
 10
387.5900268554688
 20
-746.5399780273438
 30
0.0
 10
384.219970703125
 20
-753.4500122070312
 30
0.0
 10
380.2000122070312
 20
-760.239990234375
 30
0.0
 10
380.1699829101562
 20
-760.2999877929688
 30
0.0
 10
380.1599731445312
 20
-760.3599853515625
 30
0.0
 10
380.1400146484384
 20
-760.4099731445312
 30
0.0
 10
380.1099853515634
 20
-760.47998046875
 30
0.0
 10
380.0800170898438
 20
-760.5399780273438
 30
0.0
 10
380.0599975585938
 20
-760.5999755859375
 30
0.0
 10
380.0399780273438
 20
-760.7099609375
 30
0.0
 10
380.0399780273438
 20
-760.8200073242188
 30
0.0
 10
380.0399780273438
 20
-760.9299926757812
 30
0.0
 10
380.0399780273438
 20
-760.969970703125
 30
0.0
 10
380.02001953125
 20
-761.010009765625
 30
0.0
 10
380.030029296875
 20
-761.0499877929688
 30
0.0
 10
380.0900268554688
 20
-761.5700073242188
 30
0.0
 10
381.5800170898438
 20
-773.6799926757812
 30
0.0
 10
389.8499755859384
 20
-777.3999633789062
 30
0.0
 10
390.0800170898438
 20
-777.5
 30
0.0
 10
390.3200073242188
 20
-777.5999755859375
 30
0.0
 10
390.5599975585938
 20
-777.6900024414062
 30
0.0
 10
391.9199829101562
 20
-778.2000122070312
 30
0.0
 10
393.3599853515634
 20
-778.4500122070312
 30
0.0
 10
394.8900146484384
 20
-778.4500122070312
 30
0.0
 10
396.0800170898438
 20
-778.4500122070312
 30
0.0
 10
397.3200073242188
 20
-778.2999877929688
 30
0.0
 10
398.6199951171884
 20
-777.989990234375
 30
0.0
 10
401.8499755859384
 20
-777.219970703125
 30
0.0
 10
405.4000244140634
 20
-775.47998046875
 30
0.0
 10
409.239990234375
 20
-772.7899780273438
 30
0.0
 10
409.5499877929688
 20
-772.5799560546875
 30
0.0
 10
409.75
 20
-772.22998046875
 30
0.0
 10
409.7899780273438
 20
-771.8599853515625
 30
0.0
 10
409.8300170898438
 20
-771.47998046875
 30
0.0
 10
409.7000122070312
 20
-771.0999755859375
 30
0.0
 10
409.4299926757812
 20
-770.8299560546875
 30
0.0
 10
409.4099731445312
 20
-770.7999877929688
 30
0.0
 10
407.719970703125
 20
-769.0199584960938
 30
0.0
 10
406.5399780273438
 20
-766.6499633789062
 30
0.0
 10
407.719970703125
 20
-767.9199829101562
 30
0.0
 10
409.1900024414062
 20
-769.0399780273438
 30
0.0
 10
410.8800048828134
 20
-769.510009765625
 30
0.0
 10
411.1799926757812
 20
-769.5899658203125
 30
0.0
 10
411.510009765625
 20
-769.5700073242188
 30
0.0
 10
411.7899780273438
 20
-769.4299926757812
 30
0.0
 10
412.0399780273438
 20
-769.3099975585938
 30
0.0
 10
413.5900268554688
 20
-768.5599975585938
 30
0.0
 10
415.0399780273438
 20
-767.47998046875
 30
0.0
 10
416.2899780273438
 20
-776.6400146484375
 30
0.0
 10
420.0900268554688
 20
-784.8200073242188
 30
0.0
 10
424.6699829101562
 20
-791.7000122070312
 30
0.0
 10
425.02001953125
 20
-792.22998046875
 30
0.0
 10
425.3800048828134
 20
-792.75
 30
0.0
 10
425.739990234375
 20
-793.260009765625
 30
0.0
 10
429.0700073242188
 20
-798.0
 30
0.0
 10
432.7100219726562
 20
-802.0700073242188
 30
0.0
 10
436.0499877929688
 20
-805.3699951171875
 30
0.0
 10
437.0900268554688
 20
-806.8900146484375
 30
0.0
 10
446.6699829101562
 20
-821.0499877929688
 30
0.0
 10
452.3099975585938
 20
-832.2099609375
 30
0.0
 10
454.5599975585938
 20
-836.6499633789062
 30
0.0
 10
455.1599731445312
 20
-841.7999877929688
 30
0.0
 10
454.02001953125
 20
-846.7000122070312
 30
0.0
 10
451.530029296875
 20
-857.4199829101562
 30
0.0
 10
445.5800170898438
 20
-878.1900024414062
 30
0.0
 10
433.780029296875
 20
-896.8499755859375
 30
0.0
 10
429.8499755859384
 20
-903.0799560546875
 30
0.0
 10
426.969970703125
 20
-909.3299560546875
 30
0.0
 10
425.22998046875
 20
-915.4500122070312
 30
0.0
 10
425.010009765625
 20
-916.22998046875
 30
0.0
 10
424.7999877929688
 20
-917.0
 30
0.0
 10
424.6300048828134
 20
-917.739990234375
 30
0.0
 10
424.3699951171884
 20
-918.7799682617188
 30
0.0
 10
424.1500244140634
 20
-919.7899780273438
 30
0.0
 10
423.97998046875
 20
-920.760009765625
 30
0.0
 10
422.8800048828134
 20
-926.8800048828125
 30
0.0
 10
423.3499755859384
 20
-931.6599731445312
 30
0.0
 10
425.3900146484384
 20
-934.989990234375
 30
0.0
 10
425.530029296875
 20
-935.22998046875
 30
0.0
 10
425.75
 20
-935.4199829101562
 30
0.0
 10
426.010009765625
 20
-935.5199584960938
 30
0.0
 10
426.3499755859384
 20
-935.6599731445312
 30
0.0
 10
430.77001953125
 20
-937.4099731445312
 30
0.0
 10
436.8099975585938
 20
-938.7000122070312
 30
0.0
 10
436.9500122070312
 20
-939.489990234375
 30
0.0
 10
437.3099975585938
 20
-940.5499877929688
 30
0.0
 10
438.2000122070312
 20
-941.6900024414062
 30
0.0
 10
440.6699829101562
 20
-944.8399658203125
 30
0.0
 10
445.780029296875
 20
-946.8599853515625
 30
0.0
 10
453.3900146484384
 20
-947.719970703125
 30
0.0
 10
453.1599731445312
 20
-951.4400024414062
 30
0.0
 10
453.0800170898438
 20
-953.5799560546875
 30
0.0
 10
453.0800170898438
 20
-953.6799926757812
 30
0.0
 10
453.0599975585938
 20
-954.1699829101562
 30
0.0
 10
453.3200073242188
 20
-954.6300048828125
 30
0.0
 10
453.75
 20
-954.8699951171875
 30
0.0
 10
456.969970703125
 20
-956.6199951171875
 30
0.0
 10
460.719970703125
 20
-957.5999755859375
 30
0.0
 10
464.7999877929688
 20
-957.97998046875
 30
0.0
 10
464.9000244140634
 20
-959.0599975585938
 30
0.0
 10
465.3200073242188
 20
-960.0799560546875
 30
0.0
 10
466.0800170898438
 20
-961.0199584960938
 30
0.0
 10
470.7999877929688
 20
-966.8999633789062
 30
0.0
 10
487.9299926757812
 20
-967.8999633789062
 30
0.0
 10
488.6599731445312
 20
-967.9400024414062
 30
0.0
 10
489.2999877929688
 20
-967.97998046875
 30
0.0
 10
489.8599853515634
 20
-967.5399780273438
 30
0.0
 10
490.0
 20
-966.9199829101562
 30
0.0
 10
490.0
 20
-966.9199829101562
 30
0.0
 10
490.5
 20
-964.6599731445312
 30
0.0
 10
490.5
 20
-964.6599731445312
 30
0.0
 10
495.4199829101562
 20
-972.3900146484375
 30
0.0
 10
509.5
 20
-974.3999633789062
 30
0.0
 10
522.7999877929688
 20
-974.3999633789062
 30
0.0
 10
536.530029296875
 20
-974.3999633789062
 30
0.0
 10
549.4199829101562
 20
-972.260009765625
 30
0.0
 10
550.5399780273438
 20
-972.0700073242188
 30
0.0
 10
550.97998046875
 20
-971.989990234375
 30
0.0
 10
551.3499755859375
 20
-971.6900024414062
 30
0.0
 10
551.52001953125
 20
-971.2799682617188
 30
0.0
 10
552.8699951171875
 20
-968.0
 30
0.0
 10
551.8900146484375
 20
-963.2999877929688
 30
0.0
 10
551.6300048828125
 20
-962.219970703125
 30
0.0
 10
551.8200073242188
 20
-960.7899780273438
 30
0.0
 10
551.72998046875
 20
-959.3099975585938
 30
0.0
 10
551.3599853515625
 20
-957.7999877929688
 30
0.0
 10
550.4600219726562
 20
-954.1799926757812
 30
0.0
 10
547.6500244140625
 20
-951.2999877929688
 30
0.0
 10
543.8200073242188
 20
-950.1099853515625
 30
0.0
 10
536.219970703125
 20
-947.739990234375
 30
0.0
 10
530.7000122070312
 20
-938.6400146484375
 30
0.0
 10
529.9600219726562
 20
-937.3699951171875
 30
0.0
 10
529.2999877929688
 20
-934.6499633789062
 30
0.0
 10
528.77001953125
 20
-931.8299560546875
 30
0.0
 10
528.3800048828125
 20
-928.9199829101562
 30
0.0
 10
528.25
 20
-927.9400024414062
 30
0.0
 10
528.1300048828125
 20
-926.9500122070312
 30
0.0
 10
528.0399780273438
 20
-925.9500122070312
 30
0.0
 10
527.6900024414062
 20
-922.5700073242188
 30
0.0
 10
527.530029296875
 20
-919.0700073242188
 30
0.0
 10
527.5599975585938
 20
-915.489990234375
 30
0.0
 10
527.5999755859375
 20
-909.8599853515625
 30
0.0
 10
528.4000244140625
 20
-904.25
 30
0.0
 10
529.9500122070312
 20
-898.7999877929688
 30
0.0
 10
538.6900024414062
 20
-867.969970703125
 30
0.0
 10
536.760009765625
 20
-823.4299926757812
 30
0.0
 10
534.8300170898438
 20
-799.6300048828125
 30
0.0
 10
534.2100219726562
 20
-792.0399780273438
 30
0.0
 10
535.0
 20
-784.1900024414062
 30
0.0
 10
537.1699829101562
 20
-776.2999877929688
 30
0.0
 10
538.5499877929688
 20
-771.260009765625
 30
0.0
 10
539.1799926757812
 20
-766.3699951171875
 30
0.0
 10
539.4000244140625
 20
-762.0999755859375
 30
0.0
 10
553.8499755859375
 20
-760.6300048828125
 30
0.0
 10
567.760009765625
 20
-749.469970703125
 30
0.0
 10
568.2999877929688
 20
-749.0299682617188
 30
0.0
 10
570.0399780273438
 20
-747.7899780273438
 30
0.0
 10
570.8400268554688
 20
-745.3999633789062
 30
0.0
 10
570.9000244140625
 20
-742.1599731445312
 30
0.0
 10
571.0
 20
-741.8900146484375
 30
0.0
 10
570.97998046875
 20
-741.5899658203125
 30
0.0
 10
570.8900146484375
 20
-741.3099975585938
 30
0.0
 10
570.719970703125
 20
-731.6300048828125
 30
0.0
 10
564.6599731445312
 20
-715.25
 30
0.0
 10
557.7000122070312
 20
-699.5399780273438
 30
0.0
 10
556.510009765625
 20
-696.8599853515625
 30
0.0
 10
555.2999877929688
 20
-694.2000122070312
 30
0.0
 10
554.0800170898438
 20
-691.5899658203125
 30
0.0
 10
553.760009765625
 20
-690.8800048828125
 30
0.0
 10
553.4299926757812
 20
-690.1799926757812
 30
0.0
 10
553.0999755859375
 20
-689.489990234375
 30
0.0
 10
550.6500244140625
 20
-684.3200073242188
 30
0.0
 10
549.3900146484375
 20
-678.5
 30
0.0
 10
549.4400024414062
 20
-672.6699829101562
 30
0.0
 10
549.4500122070312
 20
-671.3599853515625
 30
0.0
 10
549.4500122070312
 20
-670.0599975585938
 30
0.0
 10
549.4400024414062
 20
-668.7799682617188
 30
0.0
 10
567.1199951171875
 20
-675.1499633789062
 30
0.0
 10
585.739990234375
 20
-676.5399780273438
 30
0.0
 10
585.9299926757812
 20
-676.5499877929688
 30
0.0
 10
585.9600219726562
 20
-676.5599975585938
 30
0.0
 10
585.989990234375
 20
-676.5599975585938
 30
0.0
 10
586.02001953125
 20
-676.5599975585938
 30
0.0
 10
586.3099975585938
 20
-676.5599975585938
 30
0.0
 10
586.5800170898438
 20
-676.4599609375
 30
0.0
 10
586.8099975585938
 20
-676.2899780273438
 30
0.0
 10
586.9600219726562
 20
-676.1799926757812
 30
0.0
 10
587.0900268554688
 20
-676.0599975585938
 30
0.0
 10
587.239990234375
 20
-675.9500122070312
 30
0.0
 10
587.239990234375
 20
-675.9500122070312
 30
0.0
 10
605.8599853515625
 20
-683.0
 30
0.0
 10
605.8599853515625
 20
-683.0
 30
0.0
 10
606.010009765625
 20
-683.0599975585938
 30
0.0
 10
606.1599731445312
 20
-683.0899658203125
 30
0.0
 10
606.3200073242188
 20
-683.0899658203125
 30
0.0
 10
606.5599975585938
 20
-683.0899658203125
 30
0.0
 10
606.7899780273438
 20
-683.0199584960938
 30
0.0
 10
607.0
 20
-682.8900146484375
 30
0.0
 10
609.8200073242188
 20
-681.1400146484375
 30
0.0
 10
612.1799926757812
 20
-679.1599731445312
 30
0.0
 10
614.1799926757812
 20
-677.0299682617188
 30
0.0
 10
615.3699951171875
 20
-677.8999633789062
 30
0.0
 10
616.6300048828125
 20
-678.3399658203125
 30
0.0
 10
617.9400024414062
 20
-678.3399658203125
 30
0.0
 10
618.1799926757812
 20
-678.3399658203125
 30
0.0
 10
618.4099731445312
 20
-678.3299560546875
 30
0.0
 10
618.6500244140625
 20
-678.2999877929688
 30
0.0
 10
621.0499877929688
 20
-678.0199584960938
 30
0.0
 10
623.030029296875
 20
-676.3299560546875
 30
0.0
 10
624.22998046875
 20
-675.010009765625
 30
0.0
 10
624.530029296875
 20
-675.3699951171875
 30
0.0
 10
624.8599853515625
 20
-675.7099609375
 30
0.0
 10
625.260009765625
 20
-676.0
 30
0.0
 10
626.27001953125
 20
-676.75
 30
0.0
 10
627.4299926757812
 20
-677.1199951171875
 30
0.0
 10
628.5800170898438
 20
-677.1199951171875
 30
0.0
 10
629.739990234375
 20
-677.1199951171875
 30
0.0
 10
630.9000244140625
 20
-676.75
 30
0.0
 10
631.9000244140625
 20
-675.989990234375
 30
0.0
 10
634.510009765625
 20
-674.0399780273438
 30
0.0
 10
636.1699829101562
 20
-671.719970703125
 30
0.0
 10
636.9600219726562
 20
-670.4400024414062
 30
0.0
 10
637.1400146484375
 20
-670.5599975585938
 30
0.0
 10
637.3200073242188
 20
-670.6699829101562
 30
0.0
 10
637.510009765625
 20
-670.7799682617188
 30
0.0
 10
638.4299926757812
 20
-671.2999877929688
 30
0.0
 10
639.3300170898438
 20
-671.5299682617188
 30
0.0
 10
640.1799926757812
 20
-671.5299682617188
 30
0.0
 10
641.9600219726562
 20
-671.5299682617188
 30
0.0
 10
643.510009765625
 20
-670.5299682617188
 30
0.0
 10
644.4199829101562
 20
-669.260009765625
 30
0.0
 10
646.02001953125
 20
-667.0299682617188
 30
0.0
 10
645.7100219726562
 20
-664.2099609375
 30
0.0
 10
643.6599731445312
 20
-662.3999633789062
 30
0.0
 10
643.530029296875
 20
-662.2899780273438
 30
0.0
 10
643.4199829101562
 20
-662.2000122070312
 30
0.0
 10
643.3099975585938
 20
-662.0999755859375
 30
0.0
 10
644.1599731445312
 20
-660.8599853515625
 30
0.0
 10
644.3800048828125
 20
-659.2799682617188
 30
0.0
 10
643.8300170898438
 20
-657.8200073242188
 30
0.0
 10
643.5800170898438
 20
-657.1400146484375
 30
0.0
 10
643.1799926757812
 20
-656.5499877929688
 30
0.0
 10
642.6900024414062
 20
-656.0700073242188
 30
0.0
 10
644.5999755859375
 20
-655.4400024414062
 30
0.0
 10
646.3200073242188
 20
-654.5599975585938
 30
0.0
 10
647.8200073242188
 20
-653.3900146484375
 30
0.0
 10
649.9299926757812
 20
-651.739990234375
 30
0.0
 10
650.5800170898438
 20
-648.97998046875
 30
0.0
 10
649.4299926757812
 20
-646.5399780273438
 30
0.0
 10
648.2899780273438
 20
-644.1300048828125
 30
0.0
 10
645.7999877929688
 20
-642.8999633789062
 30
0.0
 10
643.2100219726562
 20
-643.47998046875
 30
0.0
 10
634.3800048828125
 20
-645.4500122070312
 30
0.0
 10
625.6599731445312
 20
-641.72998046875
 30
0.0
 10
623.4500122070312
 20
-640.6799926757812
 30
0.0
 10
622.760009765625
 20
-635.6199951171875
 30
0.0
 10
621.7100219726562
 20
-632.260009765625
 30
0.0
 10
621.6699829101562
 20
-632.1499633789062
 30
0.0
 10
621.5
 20
-631.6199951171875
 30
0.0
 10
621.0
 20
-631.25
 30
0.0
 10
620.4400024414062
 20
-631.25
 30
0.0
 10
620.4400024414062
 20
-631.25
 30
0.0
 10
603.2999877929688
 20
-631.25
 30
0.0
 10
603.2999877929688
 20
-631.25
 30
0.0
 10
602.739990234375
 20
-628.1199951171875
 30
0.0
 10
602.0999755859375
 20
-626.2000122070312
 30
0.0
 10
602.0800170898438
 20
-626.1300048828125
 30
0.0
 10
601.9500122070312
 20
-625.75
 30
0.0
 10
601.6500244140625
 20
-625.4500122070312
 30
0.0
 10
601.27001953125
 20
-625.3200073242188
 30
0.0
 10
585.3200073242188
 20
-619.8299560546875
 30
0.0
 10
569.0900268554688
 20
-619.6499633789062
 30
0.0
 10
560.8400268554688
 20
-620.0399780273438
 30
0.0
 10
560.6799926757812
 20
-620.0499877929688
 30
0.0
 10
560.52001953125
 20
-620.0499877929688
 30
0.0
 10
560.3699951171875
 20
-620.0399780273438
 30
0.0
 10
558.9099731445312
 20
-619.9099731445312
 30
0.0
 10
557.6900024414062
 20
-618.8399658203125
 30
0.0
 10
557.3200073242188
 20
-617.3900146484375
 30
0.0
 10
553.0900268554688
 20
-600.4400024414062
 30
0.0
 10
545.4199829101562
 20
-585.4199829101562
 30
0.0
 10
539.8599853515625
 20
-576.0
 30
0.0
 10
539.3900146484375
 20
-575.2000122070312
 30
0.0
 10
538.9299926757812
 20
-574.4400024414062
 30
0.0
 10
538.489990234375
 20
-573.719970703125
 30
0.0
 10
537.0800170898438
 20
-571.4099731445312
 30
0.0
 10
535.8699951171875
 20
-569.5499877929688
 30
0.0
 10
534.9600219726562
 20
-568.1900024414062
 30
0.0
 10
539.6500244140625
 20
-568.8599853515625
 30
0.0
 10
544.3800048828125
 20
-569.2099609375
 30
0.0
 10
549.0999755859375
 20
-569.2099609375
 30
0.0
 10
550.4400024414062
 20
-569.2099609375
 30
0.0
 10
551.77001953125
 20
-569.1799926757812
 30
0.0
 10
553.0999755859375
 20
-569.1300048828125
 30
0.0
 10
570.0900268554688
 20
-568.4500122070312
 30
0.0
 10
602.1199951171875
 20
-565.4599609375
 30
0.0
 10
625.8400268554688
 20
-553.1300048828125
 30
0.0
 10
643.6599731445312
 20
-543.8800048828125
 30
0.0
 10
655.6500244140625
 20
-525.5299682617188
 30
0.0
 10
657.1400146484375
 20
-505.260009765625
 30
0.0
 10
657.5499877929688
 20
-499.7099609375
 30
0.0
 10
657.8099975585938
 20
-492.2699584960938
 30
0.0
 10
656.1099853515625
 20
-483.72998046875
 30
0.0
 10
658.7899780273438
 20
-482.5599975585938
 30
0.0
 10
661.0499877929688
 20
-481.1400146484384
 30
0.0
 10
662.4500122070312
 20
-480.1900024414062
 30
0.0
 10
665.0800170898438
 20
-489.5799560546884
 30
0.0
 10
672.3099975585938
 20
-493.8999633789062
 30
0.0
 10
672.6400146484375
 20
-494.0799560546884
 30
0.0
 10
672.8400268554688
 20
-494.2000122070312
 30
0.0
 10
673.0599975585938
 20
-494.260009765625
 30
0.0
 10
673.2899780273438
 20
-494.260009765625
 30
0.0
 10
673.4299926757812
 20
-494.260009765625
 30
0.0
 10
673.5700073242188
 20
-494.239990234375
 30
0.0
 10
673.7000122070312
 20
-494.1900024414062
 30
0.0
 10
674.0599975585938
 20
-494.0799560546884
 30
0.0
 10
674.3499755859375
 20
-493.8099975585938
 30
0.0
 10
674.489990234375
 20
-493.4599609375
 30
0.0
 10
674.6199951171875
 20
-493.1499633789062
 30
0.0
 10
687.3800048828125
 20
-462.9400024414062
 30
0.0
 10
703.3699951171875
 20
-455.8299560546884
 30
0.0
 10
708.989990234375
 20
-458.8200073242188
 30
0.0
 10
715.280029296875
 20
-461.3299560546884
 30
0.0
 10
722.25
 20
-463.3299560546884
 30
0.0
 10
722.3699951171875
 20
-463.3599853515634
 30
0.0
 10
722.489990234375
 20
-463.3800048828134
 30
0.0
 10
722.6099853515625
 20
-463.3800048828134
 30
0.0
 10
722.97998046875
 20
-463.3800048828134
 30
0.0
 10
723.3499755859375
 20
-463.219970703125
 30
0.0
 10
723.5999755859375
 20
-462.9299926757812
 30
0.0
 10
723.9299926757812
 20
-462.5399780273438
 30
0.0
 10
724.010009765625
 20
-462.0
 30
0.0
 10
723.7899780273438
 20
-461.5399780273438
 30
0.0
 10
723.719970703125
 20
-461.3699951171884
 30
0.0
 10
720.9600219726562
 20
-455.219970703125
 30
0.0
 10
718.1599731445312
 20
-445.5499877929688
 30
0.0
 10
721.8200073242188
 20
-441.6900024414062
 30
0.0
 10
742.239990234375
 20
-419.0299682617188
 30
0.0
 10
755.1699829101562
 20
-381.1499633789062
 30
0.0
 10
768.6900024414062
 20
-341.510009765625
 30
0.0
 10
768.7000122070312
 20
-297.0899658203134
 30
0.0
 10
755.1900024414062
 20
-256.0599975585938
 30
0.0
  0
HATCH
  5
42
330
1F
100
AcDbEntity
  8
JK_PURPLE
 62
   195
420
  8013460
100
AcDbHatch
 10
0.0
 20
0.0
 30
0.0
210
0.0
220
0.0
230
1.0
  2
SOLID
 70
     1
 71
     0
 91
        1
 92
        1
 93
        1
 72
     4
 94
        3
 73
     0
 74
     1
 95
      524
 96
      520
 40
0.0
 40
0.0
 40
0.0
 40
0.0
 40
1.0
 40
1.0
 40
1.0
 40
2.0
 40
2.0
 40
2.0
 40
3.0
 40
3.0
 40
3.0
 40
4.0
 40
4.0
 40
4.0
 40
5.0
 40
5.0
 40
5.0
 40
6.0
 40
6.0
 40
6.0
 40
7.0
 40
7.0
 40
7.0
 40
8.0
 40
8.0
 40
8.0
 40
9.0
 40
9.0
 40
9.0
 40
10.0
 40
10.0
 40
10.0
 40
11.0
 40
11.0
 40
11.0
 40
12.0
 40
12.0
 40
12.0
 40
13.0
 40
13.0
 40
13.0
 40
14.0
 40
14.0
 40
14.0
 40
15.0
 40
15.0
 40
15.0
 40
16.0
 40
16.0
 40
16.0
 40
17.0
 40
17.0
 40
17.0
 40
18.0
 40
18.0
 40
18.0
 40
19.0
 40
19.0
 40
19.0
 40
20.0
 40
20.0
 40
20.0
 40
21.0
 40
21.0
 40
21.0
 40
22.0
 40
22.0
 40
22.0
 40
23.0
 40
23.0
 40
23.0
 40
24.0
 40
24.0
 40
24.0
 40
25.0
 40
25.0
 40
25.0
 40
26.0
 40
26.0
 40
26.0
 40
27.0
 40
27.0
 40
27.0
 40
28.0
 40
28.0
 40
28.0
 40
29.0
 40
29.0
 40
29.0
 40
30.0
 40
30.0
 40
30.0
 40
31.0
 40
31.0
 40
31.0
 40
32.0
 40
32.0
 40
32.0
 40
33.0
 40
33.0
 40
33.0
 40
34.0
 40
34.0
 40
34.0
 40
35.0
 40
35.0
 40
35.0
 40
36.0
 40
36.0
 40
36.0
 40
37.0
 40
37.0
 40
37.0
 40
38.0
 40
38.0
 40
38.0
 40
39.0
 40
39.0
 40
39.0
 40
40.0
 40
40.0
 40
40.0
 40
41.0
 40
41.0
 40
41.0
 40
42.0
 40
42.0
 40
42.0
 40
43.0
 40
43.0
 40
43.0
 40
44.0
 40
44.0
 40
44.0
 40
45.0
 40
45.0
 40
45.0
 40
46.0
 40
46.0
 40
46.0
 40
47.0
 40
47.0
 40
47.0
 40
48.0
 40
48.0
 40
48.0
 40
49.0
 40
49.0
 40
49.0
 40
50.0
 40
50.0
 40
50.0
 40
51.0
 40
51.0
 40
51.0
 40
52.0
 40
52.0
 40
52.0
 40
53.0
 40
53.0
 40
53.0
 40
54.0
 40
54.0
 40
54.0
 40
55.0
 40
55.0
 40
55.0
 40
56.0
 40
56.0
 40
56.0
 40
57.0
 40
57.0
 40
57.0
 40
58.0
 40
58.0
 40
58.0
 40
59.0
 40
59.0
 40
59.0
 40
60.0
 40
60.0
 40
60.0
 40
61.0
 40
61.0
 40
61.0
 40
62.0
 40
62.0
 40
62.0
 40
63.0
 40
63.0
 40
63.0
 40
64.0
 40
64.0
 40
64.0
 40
65.0
 40
65.0
 40
65.0
 40
66.0
 40
66.0
 40
66.0
 40
67.0
 40
67.0
 40
67.0
 40
68.0
 40
68.0
 40
68.0
 40
69.0
 40
69.0
 40
69.0
 40
70.0
 40
70.0
 40
70.0
 40
71.0
 40
71.0
 40
71.0
 40
72.0
 40
72.0
 40
72.0
 40
73.0
 40
73.0
 40
73.0
 40
74.0
 40
74.0
 40
74.0
 40
75.0
 40
75.0
 40
75.0
 40
76.0
 40
76.0
 40
76.0
 40
77.0
 40
77.0
 40
77.0
 40
78.0
 40
78.0
 40
78.0
 40
79.0
 40
79.0
 40
79.0
 40
80.0
 40
80.0
 40
80.0
 40
81.0
 40
81.0
 40
81.0
 40
82.0
 40
82.0
 40
82.0
 40
83.0
 40
83.0
 40
83.0
 40
84.0
 40
84.0
 40
84.0
 40
85.0
 40
85.0
 40
85.0
 40
86.0
 40
86.0
 40
86.0
 40
87.0
 40
87.0
 40
87.0
 40
88.0
 40
88.0
 40
88.0
 40
89.0
 40
89.0
 40
89.0
 40
90.0
 40
90.0
 40
90.0
 40
91.0
 40
91.0
 40
91.0
 40
92.0
 40
92.0
 40
92.0
 40
93.0
 40
93.0
 40
93.0
 40
94.0
 40
94.0
 40
94.0
 40
95.0
 40
95.0
 40
95.0
 40
96.0
 40
96.0
 40
96.0
 40
97.0
 40
97.0
 40
97.0
 40
98.0
 40
98.0
 40
98.0
 40
99.0
 40
99.0
 40
99.0
 40
100.0
 40
100.0
 40
100.0
 40
101.0
 40
101.0
 40
101.0
 40
102.0
 40
102.0
 40
102.0
 40
103.0
 40
103.0
 40
103.0
 40
104.0
 40
104.0
 40
104.0
 40
105.0
 40
105.0
 40
105.0
 40
106.0
 40
106.0
 40
106.0
 40
107.0
 40
107.0
 40
107.0
 40
108.0
 40
108.0
 40
108.0
 40
109.0
 40
109.0
 40
109.0
 40
110.0
 40
110.0
 40
110.0
 40
111.0
 40
111.0
 40
111.0
 40
112.0
 40
112.0
 40
112.0
 40
113.0
 40
113.0
 40
113.0
 40
114.0
 40
114.0
 40
114.0
 40
115.0
 40
115.0
 40
115.0
 40
116.0
 40
116.0
 40
116.0
 40
117.0
 40
117.0
 40
117.0
 40
118.0
 40
118.0
 40
118.0
 40
119.0
 40
119.0
 40
119.0
 40
120.0
 40
120.0
 40
120.0
 40
121.0
 40
121.0
 40
121.0
 40
122.0
 40
122.0
 40
122.0
 40
123.0
 40
123.0
 40
123.0
 40
124.0
 40
124.0
 40
124.0
 40
125.0
 40
125.0
 40
125.0
 40
126.0
 40
126.0
 40
126.0
 40
127.0
 40
127.0
 40
127.0
 40
128.0
 40
128.0
 40
128.0
 40
129.0
 40
129.0
 40
129.0
 40
130.0
 40
130.0
 40
130.0
 40
131.0
 40
131.0
 40
131.0
 40
132.0
 40
132.0
 40
132.0
 40
133.0
 40
133.0
 40
133.0
 40
134.0
 40
134.0
 40
134.0
 40
135.0
 40
135.0
 40
135.0
 40
136.0
 40
136.0
 40
136.0
 40
137.0
 40
137.0
 40
137.0
 40
138.0
 40
138.0
 40
138.0
 40
139.0
 40
139.0
 40
139.0
 40
140.0
 40
140.0
 40
140.0
 40
141.0
 40
141.0
 40
141.0
 40
142.0
 40
142.0
 40
142.0
 40
143.0
 40
143.0
 40
143.0
 40
144.0
 40
144.0
 40
144.0
 40
145.0
 40
145.0
 40
145.0
 40
146.0
 40
146.0
 40
146.0
 40
147.0
 40
147.0
 40
147.0
 40
148.0
 40
148.0
 40
148.0
 40
149.0
 40
149.0
 40
149.0
 40
150.0
 40
150.0
 40
150.0
 40
151.0
 40
151.0
 40
151.0
 40
152.0
 40
152.0
 40
152.0
 40
153.0
 40
153.0
 40
153.0
 40
154.0
 40
154.0
 40
154.0
 40
155.0
 40
155.0
 40
155.0
 40
156.0
 40
156.0
 40
156.0
 40
157.0
 40
157.0
 40
157.0
 40
158.0
 40
158.0
 40
158.0
 40
159.0
 40
159.0
 40
159.0
 40
160.0
 40
160.0
 40
160.0
 40
161.0
 40
161.0
 40
161.0
 40
162.0
 40
162.0
 40
162.0
 40
163.0
 40
163.0
 40
163.0
 40
164.0
 40
164.0
 40
164.0
 40
165.0
 40
165.0
 40
165.0
 40
166.0
 40
166.0
 40
166.0
 40
167.0
 40
167.0
 40
167.0
 40
168.0
 40
168.0
 40
168.0
 40
169.0
 40
169.0
 40
169.0
 40
170.0
 40
170.0
 40
170.0
 40
171.0
 40
171.0
 40
171.0
 40
172.0
 40
172.0
 40
172.0
 40
173.0
 40
173.0
 40
173.0
 40
173.0
 10
755.1900024414062
 20
-256.0599975585938
 10
743.22998046875
 20
-219.719970703125
 10
719.280029296875
 20
-171.739990234375
 10
673.1099853515625
 20
-149.47998046875
 10
638.2999877929688
 20
-132.7000122070312
 10
596.0599975585938
 20
-133.1900024414062
 10
547.5700073242188
 20
-150.9299926757812
 10
543.9600219726562
 20
-145.2999877929688
 10
539.3499755859375
 20
-140.760009765625
 10
533.6799926757812
 20
-137.3900146484384
 10
514.02001953125
 20
-125.6900024414062
 10
482.739990234375
 20
-127.6699829101562
 10
440.719970703125
 20
-143.2699584960938
 10
409.6099853515634
 20
-154.8299560546884
 10
383.8499755859384
 20
-169.989990234375
 10
383.5999755859384
 20
-170.1400146484384
 10
351.780029296875
 20
-189.010009765625
 10
327.25
 20
-209.719970703125
 10
310.6799926757812
 20
-231.6900024414062
 10
297.3699951171884
 20
-249.3299560546884
 10
289.1300048828134
 20
-267.8200073242188
 10
286.1900024414062
 20
-286.6499633789062
 10
281.3800048828134
 20
-317.3900146484384
 10
292.1400146484384
 20
-338.5
 10
293.5399780273438
 20
-341.0700073242188
 10
293.6400146484384
 20
-356.3900146484384
 10
298.4099731445312
 20
-368.4199829101562
 10
303.3800048828134
 20
-376.8200073242188
 10
310.8599853515634
 20
-389.469970703125
 10
320.02001953125
 20
-396.4400024414062
 10
321.9000244140634
 20
-397.7899780273438
 10
323.75
 20
-404.0599975585938
 10
327.030029296875
 20
-410.8399658203134
 10
332.6500244140634
 20
-417.3599853515634
 10
333.280029296875
 20
-419.3200073242188
 10
339.0999755859384
 20
-436.7999877929688
 10
353.4400024414062
 20
-458.0199584960938
 10
367.3599853515634
 20
-478.6199951171884
 10
392.3900146484384
 20
-507.0799560546884
 10
432.6799926757812
 20
-525.9400024414062
 10
433.260009765625
 20
-527.6699829101562
 10
435.0800170898438
 20
-533.6300048828125
 10
434.8099975585938
 20
-539.3299560546875
 10
433.6799926757812
 20
-540.260009765625
 10
432.9500122070312
 20
-541.469970703125
 10
432.6099853515634
 20
-542.9299926757812
 10
429.9600219726562
 20
-543.25
 10
422.760009765625
 20
-544.6300048828125
 10
413.280029296875
 20
-550.7799682617188
 10
408.0599975585938
 20
-554.1699829101562
 10
402.1500244140634
 20
-559.0
 10
395.9400024414062
 20
-565.8999633789062
 10
393.7999877929688
 20
-568.2699584960938
 10
391.6199951171884
 20
-570.8999633789062
 10
389.4199829101562
 20
-573.7899780273438
 10
385.5499877929688
 20
-578.8800048828125
 10
381.6099853515634
 20
-584.7999877929688
 10
377.7000122070312
 20
-591.7000122070312
 10
377.6500244140634
 20
-591.8099975585938
 10
374.9199829101562
 20
-596.8099975585938
 10
370.1300048828134
 20
-604.1400146484375
 10
368.5599975585938
 20
-606.5399780273438
 10
366.77001953125
 20
-609.1900024414062
 10
364.760009765625
 20
-612.010009765625
 10
359.4299926757812
 20
-619.5499877929688
 10
352.6400146484384
 20
-628.22998046875
 10
344.8099975585938
 20
-636.3299560546875
 10
343.8699951171884
 20
-636.72998046875
 10
342.739990234375
 20
-637.5700073242188
 10
342.0800170898438
 20
-639.3299560546875
 10
341.8900146484384
 20
-639.8599853515625
 10
341.77001953125
 20
-640.4299926757812
 10
341.719970703125
 20
-641.0
 10
341.1300048828134
 20
-641.0899658203125
 10
340.4400024414062
 20
-641.3099975585938
 10
339.7000122070312
 20
-641.8099975585938
 10
338.5
 20
-642.6099853515625
 10
337.5
 20
-643.9199829101562
 10
336.6799926757812
 20
-645.7099609375
 10
335.2000122070312
 20
-645.1900024414062
 10
332.7000122070312
 20
-644.6699829101562
 10
330.2100219726562
 20
-645.8399658203125
 10
327.9299926757812
 20
-646.8900146484375
 10
326.22998046875
 20
-649.0599975585938
 10
325.0999755859384
 20
-652.2999877929688
 10
323.9099731445312
 20
-652.8800048828125
 10
320.530029296875
 20
-654.3900146484375
 10
316.6900024414062
 20
-655.0700073242188
 10
314.6400146484384
 20
-655.4299926757812
 10
313.0900268554688
 20
-656.989990234375
 10
312.739990234375
 20
-659.0499877929688
 10
312.3800048828134
 20
-661.1599731445312
 10
313.3599853515634
 20
-663.2000122070312
 10
315.22998046875
 20
-664.25
 10
317.3400268554688
 20
-665.4299926757812
 10
319.72998046875
 20
-666.0299682617188
 10
322.3800048828134
 20
-666.0299682617188
 10
323.0
 20
-666.0299682617188
 10
323.6400146484384
 20
-665.989990234375
 10
324.2899780273438
 20
-665.9199829101562
 10
324.6900024414062
 20
-667.7000122070312
 10
325.3599853515634
 20
-669.4299926757812
 10
326.47998046875
 20
-670.8200073242188
 10
327.6099853515634
 20
-672.219970703125
 10
329.2000122070312
 20
-673.0799560546875
 10
330.969970703125
 20
-673.22998046875
 10
331.1599731445312
 20
-673.25
 10
331.3499755859384
 20
-673.260009765625
 10
331.530029296875
 20
-673.260009765625
 10
333.1099853515634
 20
-673.260009765625
 10
334.6199951171884
 20
-672.6799926757812
 10
335.8400268554688
 20
-671.6099853515625
 10
335.9000244140634
 20
-671.5599975585938
 10
335.9500122070312
 20
-671.489990234375
 10
336.010009765625
 20
-671.4400024414062
 10
336.4600219726562
 20
-672.4299926757812
 10
337.010009765625
 20
-673.3399658203125
 10
337.6900024414062
 20
-674.0999755859375
 10
339.0900268554688
 20
-675.6799926757812
 10
340.8599853515634
 20
-676.5
 10
342.9600219726562
 20
-676.5599975585938
 10
342.969970703125
 20
-676.5599975585938
 10
342.97998046875
 20
-676.5599975585938
 10
342.989990234375
 20
-676.5599975585938
 10
343.1300048828134
 20
-676.5599975585938
 10
343.27001953125
 20
-676.5299682617188
 10
343.4000244140634
 20
-676.489990234375
 10
343.5499877929688
 20
-676.4400024414062
 10
345.4000244140634
 20
-675.7899780273438
 10
346.9500122070312
 20
-673.5399780273438
 10
348.530029296875
 20
-674.0399780273438
 10
351.75
 20
-674.8699951171875
 10
355.8300170898438
 20
-674.8699951171875
 10
359.4500122070312
 20
-674.8699951171875
 10
363.72998046875
 20
-674.2000122070312
 10
368.1400146484384
 20
-672.0899658203125
 10
368.6699829101562
 20
-672.719970703125
 10
369.3599853515634
 20
-673.2099609375
 10
370.1500244140634
 20
-673.510009765625
 10
370.7100219726562
 20
-673.719970703125
 10
371.2899780273438
 20
-673.8200073242188
 10
371.8699951171884
 20
-673.8200073242188
 10
372.8800048828134
 20
-673.8200073242188
 10
373.8800048828134
 20
-673.510009765625
 10
374.719970703125
 20
-672.8999633789062
 10
376.9600219726562
 20
-671.2999877929688
 10
378.6900024414062
 20
-669.0599975585938
 10
379.9500122070312
 20
-667.0
 10
383.3800048828134
 20
-666.8900146484375
 10
386.9400024414062
 20
-665.4500122070312
 10
387.0999755859384
 20
-665.3900146484375
 10
387.1199951171884
 20
-665.3800048828125
 10
387.1199951171884
 20
-665.3699951171875
 10
387.1400146484384
 20
-665.3699951171875
 10
387.1500244140634
 20
-665.3599853515625
 10
387.1699829101562
 20
-665.3599853515625
 10
387.1900024414062
 20
-665.3499755859375
 10
387.280029296875
 20
-665.2999877929688
 10
391.1599731445312
 20
-663.3599853515625
 10
397.02001953125
 20
-659.510009765625
 10
397.1300048828134
 20
-659.4400024414062
 10
397.239990234375
 20
-659.3599853515625
 10
397.3599853515634
 20
-659.2899780273438
 10
399.4400024414062
 20
-657.9099731445312
 10
401.77001953125
 20
-656.2999877929688
 10
404.260009765625
 20
-654.4599609375
 10
404.780029296875
 20
-662.1599731445312
 10
405.7000122070312
 20
-688.3800048828125
 10
397.52001953125
 20
-718.5599975585938
 10
396.7999877929688
 20
-721.25
 10
396.0
 20
-723.969970703125
 10
395.1199951171884
 20
-726.719970703125
 10
394.1300048828134
 20
-729.8099975585938
 10
393.030029296875
 20
-732.9400024414062
 10
391.8300170898438
 20
-736.0799560546875
 10
391.3699951171884
 20
-737.2699584960938
 10
390.9000244140634
 20
-738.4599609375
 10
390.4099731445312
 20
-739.6499633789062
 10
387.5900268554688
 20
-746.5399780273438
 10
384.219970703125
 20
-753.4500122070312
 10
380.2000122070312
 20
-760.239990234375
 10
380.1699829101562
 20
-760.2999877929688
 10
380.1599731445312
 20
-760.3599853515625
 10
380.1400146484384
 20
-760.4099731445312
 10
380.1099853515634
 20
-760.47998046875
 10
380.0800170898438
 20
-760.5399780273438
 10
380.0599975585938
 20
-760.5999755859375
 10
380.0399780273438
 20
-760.7099609375
 10
380.0399780273438
 20
-760.8200073242188
 10
380.0399780273438
 20
-760.9299926757812
 10
380.0399780273438
 20
-760.969970703125
 10
380.02001953125
 20
-761.010009765625
 10
380.030029296875
 20
-761.0499877929688
 10
380.0900268554688
 20
-761.5700073242188
 10
381.5800170898438
 20
-773.6799926757812
 10
389.8499755859384
 20
-777.3999633789062
 10
390.0800170898438
 20
-777.5
 10
390.3200073242188
 20
-777.5999755859375
 10
390.5599975585938
 20
-777.6900024414062
 10
391.9199829101562
 20
-778.2000122070312
 10
393.3599853515634
 20
-778.4500122070312
 10
394.8900146484384
 20
-778.4500122070312
 10
396.0800170898438
 20
-778.4500122070312
 10
397.3200073242188
 20
-778.2999877929688
 10
398.6199951171884
 20
-777.989990234375
 10
401.8499755859384
 20
-777.219970703125
 10
405.4000244140634
 20
-775.47998046875
 10
409.239990234375
 20
-772.7899780273438
 10
409.5499877929688
 20
-772.5799560546875
 10
409.75
 20
-772.22998046875
 10
409.7899780273438
 20
-771.8599853515625
 10
409.8300170898438
 20
-771.47998046875
 10
409.7000122070312
 20
-771.0999755859375
 10
409.4299926757812
 20
-770.8299560546875
 10
409.4099731445312
 20
-770.7999877929688
 10
407.719970703125
 20
-769.0199584960938
 10
406.5399780273438
 20
-766.6499633789062
 10
407.719970703125
 20
-767.9199829101562
 10
409.1900024414062
 20
-769.0399780273438
 10
410.8800048828134
 20
-769.510009765625
 10
411.1799926757812
 20
-769.5899658203125
 10
411.510009765625
 20
-769.5700073242188
 10
411.7899780273438
 20
-769.4299926757812
 10
412.0399780273438
 20
-769.3099975585938
 10
413.5900268554688
 20
-768.5599975585938
 10
415.0399780273438
 20
-767.47998046875
 10
416.2899780273438
 20
-776.6400146484375
 10
420.0900268554688
 20
-784.8200073242188
 10
424.6699829101562
 20
-791.7000122070312
 10
425.02001953125
 20
-792.22998046875
 10
425.3800048828134
 20
-792.75
 10
425.739990234375
 20
-793.260009765625
 10
429.0700073242188
 20
-798.0
 10
432.7100219726562
 20
-802.0700073242188
 10
436.0499877929688
 20
-805.3699951171875
 10
437.0900268554688
 20
-806.8900146484375
 10
446.6699829101562
 20
-821.0499877929688
 10
452.3099975585938
 20
-832.2099609375
 10
454.5599975585938
 20
-836.6499633789062
 10
455.1599731445312
 20
-841.7999877929688
 10
454.02001953125
 20
-846.7000122070312
 10
451.530029296875
 20
-857.4199829101562
 10
445.5800170898438
 20
-878.1900024414062
 10
433.780029296875
 20
-896.8499755859375
 10
429.8499755859384
 20
-903.0799560546875
 10
426.969970703125
 20
-909.3299560546875
 10
425.22998046875
 20
-915.4500122070312
 10
425.010009765625
 20
-916.22998046875
 10
424.7999877929688
 20
-917.0
 10
424.6300048828134
 20
-917.739990234375
 10
424.3699951171884
 20
-918.7799682617188
 10
424.1500244140634
 20
-919.7899780273438
 10
423.97998046875
 20
-920.760009765625
 10
422.8800048828134
 20
-926.8800048828125
 10
423.3499755859384
 20
-931.6599731445312
 10
425.3900146484384
 20
-934.989990234375
 10
425.530029296875
 20
-935.22998046875
 10
425.75
 20
-935.4199829101562
 10
426.010009765625
 20
-935.5199584960938
 10
426.3499755859384
 20
-935.6599731445312
 10
430.77001953125
 20
-937.4099731445312
 10
436.8099975585938
 20
-938.7000122070312
 10
436.9500122070312
 20
-939.489990234375
 10
437.3099975585938
 20
-940.5499877929688
 10
438.2000122070312
 20
-941.6900024414062
 10
440.6699829101562
 20
-944.8399658203125
 10
445.780029296875
 20
-946.8599853515625
 10
453.3900146484384
 20
-947.719970703125
 10
453.1599731445312
 20
-951.4400024414062
 10
453.0800170898438
 20
-953.5799560546875
 10
453.0800170898438
 20
-953.6799926757812
 10
453.0599975585938
 20
-954.1699829101562
 10
453.3200073242188
 20
-954.6300048828125
 10
453.75
 20
-954.8699951171875
 10
456.969970703125
 20
-956.6199951171875
 10
460.719970703125
 20
-957.5999755859375
 10
464.7999877929688
 20
-957.97998046875
 10
464.9000244140634
 20
-959.0599975585938
 10
465.3200073242188
 20
-960.0799560546875
 10
466.0800170898438
 20
-961.0199584960938
 10
470.7999877929688
 20
-966.8999633789062
 10
487.9299926757812
 20
-967.8999633789062
 10
488.6599731445312
 20
-967.9400024414062
 10
489.2999877929688
 20
-967.97998046875
 10
489.8599853515634
 20
-967.5399780273438
 10
490.0
 20
-966.9199829101562
 10
490.0
 20
-966.9199829101562
 10
490.5
 20
-964.6599731445312
 10
490.5
 20
-964.6599731445312
 10
495.4199829101562
 20
-972.3900146484375
 10
509.5
 20
-974.3999633789062
 10
522.7999877929688
 20
-974.3999633789062
 10
536.530029296875
 20
-974.3999633789062
 10
549.4199829101562
 20
-972.260009765625
 10
550.5399780273438
 20
-972.0700073242188
 10
550.97998046875
 20
-971.989990234375
 10
551.3499755859375
 20
-971.6900024414062
 10
551.52001953125
 20
-971.2799682617188
 10
552.8699951171875
 20
-968.0
 10
551.8900146484375
 20
-963.2999877929688
 10
551.6300048828125
 20
-962.219970703125
 10
551.8200073242188
 20
-960.7899780273438
 10
551.72998046875
 20
-959.3099975585938
 10
551.3599853515625
 20
-957.7999877929688
 10
550.4600219726562
 20
-954.1799926757812
 10
547.6500244140625
 20
-951.2999877929688
 10
543.8200073242188
 20
-950.1099853515625
 10
536.219970703125
 20
-947.739990234375
 10
530.7000122070312
 20
-938.6400146484375
 10
529.9600219726562
 20
-937.3699951171875
 10
529.2999877929688
 20
-934.6499633789062
 10
528.77001953125
 20
-931.8299560546875
 10
528.3800048828125
 20
-928.9199829101562
 10
528.25
 20
-927.9400024414062
 10
528.1300048828125
 20
-926.9500122070312
 10
528.0399780273438
 20
-925.9500122070312
 10
527.6900024414062
 20
-922.5700073242188
 10
527.530029296875
 20
-919.0700073242188
 10
527.5599975585938
 20
-915.489990234375
 10
527.5999755859375
 20
-909.8599853515625
 10
528.4000244140625
 20
-904.25
 10
529.9500122070312
 20
-898.7999877929688
 10
538.6900024414062
 20
-867.969970703125
 10
536.760009765625
 20
-823.4299926757812
 10
534.8300170898438
 20
-799.6300048828125
 10
534.2100219726562
 20
-792.0399780273438
 10
535.0
 20
-784.1900024414062
 10
537.1699829101562
 20
-776.2999877929688
 10
538.5499877929688
 20
-771.260009765625
 10
539.1799926757812
 20
-766.3699951171875
 10
539.4000244140625
 20
-762.0999755859375
 10
553.8499755859375
 20
-760.6300048828125
 10
567.760009765625
 20
-749.469970703125
 10
568.2999877929688
 20
-749.0299682617188
 10
570.0399780273438
 20
-747.7899780273438
 10
570.8400268554688
 20
-745.3999633789062
 10
570.9000244140625
 20
-742.1599731445312
 10
571.0
 20
-741.8900146484375
 10
570.97998046875
 20
-741.5899658203125
 10
570.8900146484375
 20
-741.3099975585938
 10
570.719970703125
 20
-731.6300048828125
 10
564.6599731445312
 20
-715.25
 10
557.7000122070312
 20
-699.5399780273438
 10
556.510009765625
 20
-696.8599853515625
 10
555.2999877929688
 20
-694.2000122070312
 10
554.0800170898438
 20
-691.5899658203125
 10
553.760009765625
 20
-690.8800048828125
 10
553.4299926757812
 20
-690.1799926757812
 10
553.0999755859375
 20
-689.489990234375
 10
550.6500244140625
 20
-684.3200073242188
 10
549.3900146484375
 20
-678.5
 10
549.4400024414062
 20
-672.6699829101562
 10
549.4500122070312
 20
-671.3599853515625
 10
549.4500122070312
 20
-670.0599975585938
 10
549.4400024414062
 20
-668.7799682617188
 10
567.1199951171875
 20
-675.1499633789062
 10
585.739990234375
 20
-676.5399780273438
 10
585.9299926757812
 20
-676.5499877929688
 10
585.9600219726562
 20
-676.5599975585938
 10
585.989990234375
 20
-676.5599975585938
 10
586.02001953125
 20
-676.5599975585938
 10
586.3099975585938
 20
-676.5599975585938
 10
586.5800170898438
 20
-676.4599609375
 10
586.8099975585938
 20
-676.2899780273438
 10
586.9600219726562
 20
-676.1799926757812
 10
587.0900268554688
 20
-676.0599975585938
 10
587.239990234375
 20
-675.9500122070312
 10
587.239990234375
 20
-675.9500122070312
 10
605.8599853515625
 20
-683.0
 10
605.8599853515625
 20
-683.0
 10
606.010009765625
 20
-683.0599975585938
 10
606.1599731445312
 20
-683.0899658203125
 10
606.3200073242188
 20
-683.0899658203125
 10
606.5599975585938
 20
-683.0899658203125
 10
606.7899780273438
 20
-683.0199584960938
 10
607.0
 20
-682.8900146484375
 10
609.8200073242188
 20
-681.1400146484375
 10
612.1799926757812
 20
-679.1599731445312
 10
614.1799926757812
 20
-677.0299682617188
 10
615.3699951171875
 20
-677.8999633789062
 10
616.6300048828125
 20
-678.3399658203125
 10
617.9400024414062
 20
-678.3399658203125
 10
618.1799926757812
 20
-678.3399658203125
 10
618.4099731445312
 20
-678.3299560546875
 10
618.6500244140625
 20
-678.2999877929688
 10
621.0499877929688
 20
-678.0199584960938
 10
623.030029296875
 20
-676.3299560546875
 10
624.22998046875
 20
-675.010009765625
 10
624.530029296875
 20
-675.3699951171875
 10
624.8599853515625
 20
-675.7099609375
 10
625.260009765625
 20
-676.0
 10
626.27001953125
 20
-676.75
 10
627.4299926757812
 20
-677.1199951171875
 10
628.5800170898438
 20
-677.1199951171875
 10
629.739990234375
 20
-677.1199951171875
 10
630.9000244140625
 20
-676.75
 10
631.9000244140625
 20
-675.989990234375
 10
634.510009765625
 20
-674.0399780273438
 10
636.1699829101562
 20
-671.719970703125
 10
636.9600219726562
 20
-670.4400024414062
 10
637.1400146484375
 20
-670.5599975585938
 10
637.3200073242188
 20
-670.6699829101562
 10
637.510009765625
 20
-670.7799682617188
 10
638.4299926757812
 20
-671.2999877929688
 10
639.3300170898438
 20
-671.5299682617188
 10
640.1799926757812
 20
-671.5299682617188
 10
641.9600219726562
 20
-671.5299682617188
 10
643.510009765625
 20
-670.5299682617188
 10
644.4199829101562
 20
-669.260009765625
 10
646.02001953125
 20
-667.0299682617188
 10
645.7100219726562
 20
-664.2099609375
 10
643.6599731445312
 20
-662.3999633789062
 10
643.530029296875
 20
-662.2899780273438
 10
643.4199829101562
 20
-662.2000122070312
 10
643.3099975585938
 20
-662.0999755859375
 10
644.1599731445312
 20
-660.8599853515625
 10
644.3800048828125
 20
-659.2799682617188
 10
643.8300170898438
 20
-657.8200073242188
 10
643.5800170898438
 20
-657.1400146484375
 10
643.1799926757812
 20
-656.5499877929688
 10
642.6900024414062
 20
-656.0700073242188
 10
644.5999755859375
 20
-655.4400024414062
 10
646.3200073242188
 20
-654.5599975585938
 10
647.8200073242188
 20
-653.3900146484375
 10
649.9299926757812
 20
-651.739990234375
 10
650.5800170898438
 20
-648.97998046875
 10
649.4299926757812
 20
-646.5399780273438
 10
648.2899780273438
 20
-644.1300048828125
 10
645.7999877929688
 20
-642.8999633789062
 10
643.2100219726562
 20
-643.47998046875
 10
634.3800048828125
 20
-645.4500122070312
 10
625.6599731445312
 20
-641.72998046875
 10
623.4500122070312
 20
-640.6799926757812
 10
622.760009765625
 20
-635.6199951171875
 10
621.7100219726562
 20
-632.260009765625
 10
621.6699829101562
 20
-632.1499633789062
 10
621.5
 20
-631.6199951171875
 10
621.0
 20
-631.25
 10
620.4400024414062
 20
-631.25
 10
620.4400024414062
 20
-631.25
 10
603.2999877929688
 20
-631.25
 10
603.2999877929688
 20
-631.25
 10
602.739990234375
 20
-628.1199951171875
 10
602.0999755859375
 20
-626.2000122070312
 10
602.0800170898438
 20
-626.1300048828125
 10
601.9500122070312
 20
-625.75
 10
601.6500244140625
 20
-625.4500122070312
 10
601.27001953125
 20
-625.3200073242188
 10
585.3200073242188
 20
-619.8299560546875
 10
569.0900268554688
 20
-619.6499633789062
 10
560.8400268554688
 20
-620.0399780273438
 10
560.6799926757812
 20
-620.0499877929688
 10
560.52001953125
 20
-620.0499877929688
 10
560.3699951171875
 20
-620.0399780273438
 10
558.9099731445312
 20
-619.9099731445312
 10
557.6900024414062
 20
-618.8399658203125
 10
557.3200073242188
 20
-617.3900146484375
 10
553.0900268554688
 20
-600.4400024414062
 10
545.4199829101562
 20
-585.4199829101562
 10
539.8599853515625
 20
-576.0
 10
539.3900146484375
 20
-575.2000122070312
 10
538.9299926757812
 20
-574.4400024414062
 10
538.489990234375
 20
-573.719970703125
 10
537.0800170898438
 20
-571.4099731445312
 10
535.8699951171875
 20
-569.5499877929688
 10
534.9600219726562
 20
-568.1900024414062
 10
539.6500244140625
 20
-568.8599853515625
 10
544.3800048828125
 20
-569.2099609375
 10
549.0999755859375
 20
-569.2099609375
 10
550.4400024414062
 20
-569.2099609375
 10
551.77001953125
 20
-569.1799926757812
 10
553.0999755859375
 20
-569.1300048828125
 10
570.0900268554688
 20
-568.4500122070312
 10
602.1199951171875
 20
-565.4599609375
 10
625.8400268554688
 20
-553.1300048828125
 10
643.6599731445312
 20
-543.8800048828125
 10
655.6500244140625
 20
-525.5299682617188
 10
657.1400146484375
 20
-505.260009765625
 10
657.5499877929688
 20
-499.7099609375
 10
657.8099975585938
 20
-492.2699584960938
 10
656.1099853515625
 20
-483.72998046875
 10
658.7899780273438
 20
-482.5599975585938
 10
661.0499877929688
 20
-481.1400146484384
 10
662.4500122070312
 20
-480.1900024414062
 10
665.0800170898438
 20
-489.5799560546884
 10
672.3099975585938
 20
-493.8999633789062
 10
672.6400146484375
 20
-494.0799560546884
 10
672.8400268554688
 20
-494.2000122070312
 10
673.0599975585938
 20
-494.260009765625
 10
673.2899780273438
 20
-494.260009765625
 10
673.4299926757812
 20
-494.260009765625
 10
673.5700073242188
 20
-494.239990234375
 10
673.7000122070312
 20
-494.1900024414062
 10
674.0599975585938
 20
-494.0799560546884
 10
674.3499755859375
 20
-493.8099975585938
 10
674.489990234375
 20
-493.4599609375
 10
674.6199951171875
 20
-493.1499633789062
 10
687.3800048828125
 20
-462.9400024414062
 10
703.3699951171875
 20
-455.8299560546884
 10
708.989990234375
 20
-458.8200073242188
 10
715.280029296875
 20
-461.3299560546884
 10
722.25
 20
-463.3299560546884
 10
722.3699951171875
 20
-463.3599853515634
 10
722.489990234375
 20
-463.3800048828134
 10
722.6099853515625
 20
-463.3800048828134
 10
722.97998046875
 20
-463.3800048828134
 10
723.3499755859375
 20
-463.219970703125
 10
723.5999755859375
 20
-462.9299926757812
 10
723.9299926757812
 20
-462.5399780273438
 10
724.010009765625
 20
-462.0
 10
723.7899780273438
 20
-461.5399780273438
 10
723.719970703125
 20
-461.3699951171884
 10
720.9600219726562
 20
-455.219970703125
 10
718.1599731445312
 20
-445.5499877929688
 10
721.8200073242188
 20
-441.6900024414062
 10
742.239990234375
 20
-419.0299682617188
 10
755.1699829101562
 20
-381.1499633789062
 10
768.6900024414062
 20
-341.510009765625
 10
768.7000122070312
 20
-297.0899658203134
 10
755.1900024414062
 20
-256.0599975585938
 97
        0
 97
        0
 75
     2
 76
     1
 98
        0
  0
ENDSEC
  0
SECTION
  2
OBJECTS
  0
DICTIONARY
  5
C
330
0
100
AcDbDictionary
281
     1
  3
ACAD_GROUP
350
D
  3
ACAD_LAYOUT
350
1A
  3
ACAD_MATERIAL
350
3B
  3
ACAD_MLEADERSTYLE
350
44
  3
ACAD_MLINESTYLE
350
17
  3
ACAD_PLOTSETTINGS
350
19
  3
ACAD_PLOTSTYLENAME
350
E
  3
ACAD_TABLESTYLE
350
43
  3
ACAD_VISUALSTYLE
350
2A
  0
SUN
  5
3F
330
29
100
AcDbSun
 90
        1
290
     0
 63
     7
421
 16777215
 40
1.0
291
     1
 91
  2455826
 92
 54000000
292
     0
 70
     2
 71
   256
280
     1
  0
DICTIONARY
  5
D
102
{ACAD_REACTORS
330
C
102
}
330
C
100
AcDbDictionary
281
     1
  0
DICTIONARY
  5
1A
102
{ACAD_REACTORS
330
C
102
}
330
C
100
AcDbDictionary
281
     1
  3
Layout1
350
1E
  3
Layout2
350
26
  3
Model
350
22
  0
DICTIONARY
  5
3B
102
{ACAD_REACTORS
330
C
102
}
330
C
100
AcDbDictionary
281
     1
  3
ByBlock
350
3D
  3
ByLayer
350
3C
  3
Global
350
3E
  0
DICTIONARY
  5
44
102
{ACAD_REACTORS
330
C
102
}
330
C
100
AcDbDictionary
281
     1
  0
DICTIONARY
  5
17
102
{ACAD_REACTORS
330
C
102
}
330
C
100
AcDbDictionary
281
     1
  3
Standard
350
18
  0
DICTIONARY
  5
19
102
{ACAD_REACTORS
330
C
102
}
330
C
100
AcDbDictionary
281
     1
  0
ACDBDICTIONARYWDFLT
  5
E
102
{ACAD_REACTORS
330
C
102
}
330
C
100
AcDbDictionary
281
     1
  3
Normal
350
F
100
AcDbDictionaryWithDefault
340
F
  0
DICTIONARY
  5
43
102
{ACAD_REACTORS
330
C
102
}
330
C
100
AcDbDictionary
281
     1
  0
DICTIONARY
  5
2A
102
{ACAD_REACTORS
330
C
102
}
330
C
100
AcDbDictionary
281
     1
  3
2dWireframe
350
2F
  3
3D Hidden
350
31
  3
3dWireframe
350
30
  3
Basic
350
32
  3
Brighten
350
36
  3
ColorChange
350
3A
  3
Conceptual
350
34
  3
Dim
350
35
  3
Facepattern
350
39
  3
Flat
350
2B
  3
FlatWithEdges
350
2C
  3
Gouraud
350
2D
  3
GouraudWithEdges
350
2E
  3
Linepattern
350
38
  3
Realistic
350
33
  3
Thicken
350
37
  0
LAYOUT
  5
1E
102
{ACAD_REACTORS
330
1A
102
}
330
1A
100
AcDbPlotSettings
  1

  2
none_device
  4

  6

 40
0.0
 41
0.0
 42
0.0
 43
0.0
 44
0.0
 45
0.0
 46
0.0
 47
0.0
 48
0.0
 49
0.0
140
0.0
141
0.0
142
1.0
143
1.0
 70
   688
 72
     0
 73
     0
 74
     5
  7

 75
    16
 76
     0
 77
     2
 78
   300
147
1.0
148
0.0
149
0.0
100
AcDbLayout
  1
Layout1
 70
     1
 71
     1
 10
0.0
 20
0.0
 11
12.0
 21
9.0
 12
0.0
 22
0.0
 32
0.0
 14
1.000000000000000E+20
 24
1.000000000000000E+20
 34
1.000000000000000E+20
 15
-1.000000000000000E+20
 25
-1.000000000000000E+20
 35
-1.000000000000000E+20
146
0.0
 13
0.0
 23
0.0
 33
0.0
 16
1.0
 26
0.0
 36
0.0
 17
0.0
 27
1.0
 37
0.0
 76
     0
330
1B
  0
LAYOUT
  5
26
102
{ACAD_REACTORS
330
1A
102
}
330
1A
100
AcDbPlotSettings
  1

  2
none_device
  4

  6

 40
0.0
 41
0.0
 42
0.0
 43
0.0
 44
0.0
 45
0.0
 46
0.0
 47
0.0
 48
0.0
 49
0.0
140
0.0
141
0.0
142
1.0
143
1.0
 70
   688
 72
     0
 73
     0
 74
     5
  7

 75
    16
 76
     0
 77
     2
 78
   300
147
1.0
148
0.0
149
0.0
100
AcDbLayout
  1
Layout2
 70
     1
 71
     2
 10
0.0
 20
0.0
 11
0.0
 21
0.0
 12
0.0
 22
0.0
 32
0.0
 14
0.0
 24
0.0
 34
0.0
 15
0.0
 25
0.0
 35
0.0
146
0.0
 13
0.0
 23
0.0
 33
0.0
 16
1.0
 26
0.0
 36
0.0
 17
0.0
 27
1.0
 37
0.0
 76
     0
330
23
  0
LAYOUT
  5
22
102
{ACAD_REACTORS
330
1A
102
}
330
1A
100
AcDbPlotSettings
  1

  2
none_device
  4

  6

 40
0.0
 41
0.0
 42
0.0
 43
0.0
 44
0.0
 45
0.0
 46
0.0
 47
0.0
 48
0.0
 49
0.0
140
0.0
141
0.0
142
1.0
143
1.0
 70
  1712
 72
     0
 73
     0
 74
     0
  7

 75
     0
 76
     0
 77
     2
 78
   300
147
1.0
148
0.0
149
0.0
100
AcDbLayout
  1
Model
 70
     1
 71
     0
 10
0.0
 20
0.0
 11
12.0
 21
9.0
 12
0.0
 22
0.0
 32
0.0
 14
1.000000000000000E+20
 24
1.000000000000000E+20
 34
1.000000000000000E+20
 15
-1.000000000000000E+20
 25
-1.000000000000000E+20
 35
-1.000000000000000E+20
146
0.0
 13
0.0
 23
0.0
 33
0.0
 16
1.0
 26
0.0
 36
0.0
 17
0.0
 27
1.0
 37
0.0
 76
     0
330
1F
331
29
  0
MATERIAL
  5
3D
102
{ACAD_REACTORS
330
3B
102
}
330
3B
100
AcDbMaterial
  1
ByBlock
 72
     1
 94
      127
  0
MATERIAL
  5
3C
102
{ACAD_REACTORS
330
3B
102
}
330
3B
100
AcDbMaterial
  1
ByLayer
 72
     1
 94
      127
  0
MATERIAL
  5
3E
102
{ACAD_REACTORS
330
3B
102
}
330
3B
100
AcDbMaterial
  1
Global
 72
     1
 94
      127
  0
MLINESTYLE
  5
18
102
{ACAD_REACTORS
330
17
102
}
330
17
100
AcDbMlineStyle
  2
Standard
 70
     0
  3

 62
   256
 51
90.0
 52
90.0
 71
     2
 49
0.5
 62
   256
  6
BYLAYER
 49
-0.5
 62
   256
  6
BYLAYER
  0
ACDBPLACEHOLDER
  5
F
102
{ACAD_REACTORS
330
E
102
}
330
E
  0
VISUALSTYLE
  5
2F
102
{ACAD_REACTORS
330
2A
102
}
330
2A
100
AcDbVisualStyle
  2
2dWireframe
 70
     4
177
     2
291
     0
 71
     0
176
     1
 72
     2
176
     1
 73
     0
176
     1
 90
        0
176
     1
 40
-0.6
176
     1
 41
-30.0
176
     1
 62
     5
 63
     7
421
 16777215
176
     1
 74
     1
176
     1
 91
        4
176
     1
 64
     7
176
     1
 65
   257
176
     1
 75
     1
176
     1
175
     1
176
     1
 42
1.0
176
     1
 92
        0
176
     1
 66
   257
176
     1
 43
1.0
176
     1
 76
     1
176
     1
 77
     6
176
     1
 78
     2
176
     1
 67
     7
176
     1
 79
     5
176
     1
170
     0
176
     1
171
     0
176
     1
290
     0
176
     1
 93
        1
176
     1
 44
0.0
176
     1
173
     0
176
     1
  0
VISUALSTYLE
  5
31
102
{ACAD_REACTORS
330
2A
102
}
330
2A
100
AcDbVisualStyle
  2
3D Hidden
 70
     6
177
     2
291
     0
 71
     1
176
     1
 72
     2
176
     1
 73
     2
176
     1
 90
        0
176
     1
 40
-0.6
176
     1
 41
-30.0
176
     1
 62
     5
 63
     7
421
 16777215
176
     1
 74
     2
176
     1
 91
        2
176
     1
 64
     7
176
     1
 65
   257
176
     1
 75
     2
176
     1
175
     1
176
     1
 42
40.0
176
     1
 92
        0
176
     1
 66
   257
176
     1
 43
1.0
176
     1
 76
     1
176
     1
 77
     6
176
     1
 78
     2
176
     1
 67
     7
176
     1
 79
     3
176
     1
170
     0
176
     1
171
     0
176
     1
290
     0
176
     1
 93
        1
176
     1
 44
0.0
176
     1
173
     0
176
     1
  0
VISUALSTYLE
  5
30
102
{ACAD_REACTORS
330
2A
102
}
330
2A
100
AcDbVisualStyle
  2
3dWireframe
 70
     5
177
     2
291
     0
 71
     0
176
     1
 72
     2
176
     1
 73
     0
176
     1
 90
        0
176
     1
 40
-0.6
176
     1
 41
-30.0
176
     1
 62
     5
 63
     7
421
 16777215
176
     1
 74
     1
176
     1
 91
        4
176
     1
 64
     7
176
     1
 65
   257
176
     1
 75
     1
176
     1
175
     1
176
     1
 42
1.0
176
     1
 92
        0
176
     1
 66
   257
176
     1
 43
1.0
176
     1
 76
     1
176
     1
 77
     6
176
     1
 78
     2
176
     1
 67
     7
176
     1
 79
     5
176
     1
170
     0
176
     1
171
     0
176
     1
290
     0
176
     1
 93
        1
176
     1
 44
0.0
176
     1
173
     0
176
     1
  0
VISUALSTYLE
  5
32
102
{ACAD_REACTORS
330
2A
102
}
330
2A
100
AcDbVisualStyle
  2
Basic
 70
     7
177
     2
291
     1
 71
     1
176
     1
 72
     0
176
     1
 73
     1
176
     1
 90
        0
176
     1
 40
-0.6
176
     1
 41
-30.0
176
     1
 62
     5
 63
     7
421
 16777215
176
     1
 74
     0
176
     1
 91
        4
176
     1
 64
     7
176
     1
 65
   257
176
     1
 75
     1
176
     1
175
     1
176
     1
 42
1.0
176
     1
 92
        8
176
     1
 66
     7
176
     1
 43
1.0
176
     1
 76
     1
176
     1
 77
     6
176
     1
 78
     2
176
     1
 67
     7
176
     1
 79
     5
176
     1
170
     0
176
     1
171
     0
176
     1
290
     0
176
     1
 93
        1
176
     1
 44
0.0
176
     1
173
     0
176
     1
  0
VISUALSTYLE
  5
36
102
{ACAD_REACTORS
330
2A
102
}
330
2A
100
AcDbVisualStyle
  2
Brighten
 70
    12
177
     2
291
     1
 71
     2
176
     1
 72
     2
176
     1
 73
     0
176
     1
 90
        0
176
     1
 40
-0.6
176
     1
 41
-30.0
176
     1
 62
     5
 63
     7
421
 16777215
176
     1
 74
     1
176
     1
 91
        4
176
     1
 64
     7
176
     1
 65
   257
176
     1
 75
     1
176
     1
175
     1
176
     1
 42
1.0
176
     1
 92
        8
176
     1
 66
     7
176
     1
 43
1.0
176
     1
 76
     1
176
     1
 77
     6
176
     1
 78
     2
176
     1
 67
     7
176
     1
 79
     5
176
     1
170
     0
176
     1
171
     0
176
     1
290
     0
176
     1
 93
        1
176
     1
 44
50.0
176
     1
173
     0
176
     1
  0
VISUALSTYLE
  5
3A
102
{ACAD_REACTORS
330
2A
102
}
330
2A
100
AcDbVisualStyle
  2
ColorChange
 70
    16
177
     2
291
     1
 71
     2
176
     1
 72
     2
176
     1
 73
     3
176
     1
 90
        0
176
     1
 40
-0.6
176
     1
 41
-30.0
176
     1
 62
     5
 63
     8
421
  8421504
176
     1
 74
     1
176
     1
 91
        4
176
     1
 64
     7
176
     1
 65
   257
176
     1
 75
     1
176
     1
175
     1
176
     1
 42
1.0
176
     1
 92
        8
176
     1
 66
     8
424
  8421504
176
     1
 43
1.0
176
     1
 76
     1
176
     1
 77
     6
176
     1
 78
     2
176
     1
 67
     7
176
     1
 79
     5
176
     1
170
     0
176
     1
171
     0
176
     1
290
     0
176
     1
 93
        1
176
     1
 44
0.0
176
     1
173
     0
176
     1
  0
VISUALSTYLE
  5
34
102
{ACAD_REACTORS
330
2A
102
}
330
2A
100
AcDbVisualStyle
  2
Conceptual
 70
     9
177
     2
291
     0
 71
     3
176
     1
 72
     2
176
     1
 73
     0
176
     1
 90
        0
176
     1
 40
-0.6
176
     1
 41
-30.0
176
     1
 62
     5
 63
     7
421
 16777215
176
     1
 74
     2
176
     1
 91
        2
176
     1
 64
     7
176
     1
 65
   257
176
     1
 75
     1
176
     1
175
     1
176
     1
 42
40.0
176
     1
 92
        8
176
     1
 66
     7
176
     1
 43
1.0
176
     1
 76
     1
176
     1
 77
     6
176
     1
 78
     2
176
     1
 67
     7
176
     1
 79
     3
176
     1
170
     0
176
     1
171
     0
176
     1
290
     0
176
     1
 93
        1
176
     1
 44
0.0
176
     1
173
     0
176
     1
  0
VISUALSTYLE
  5
35
102
{ACAD_REACTORS
330
2A
102
}
330
2A
100
AcDbVisualStyle
  2
Dim
 70
    11
177
     2
291
     1
 71
     2
176
     1
 72
     2
176
     1
 73
     0
176
     1
 90
        0
176
     1
 40
-0.6
176
     1
 41
-30.0
176
     1
 62
     5
 63
     7
421
 16777215
176
     1
 74
     1
176
     1
 91
        4
176
     1
 64
     7
176
     1
 65
   257
176
     1
 75
     1
176
     1
175
     1
176
     1
 42
1.0
176
     1
 92
        8
176
     1
 66
     7
176
     1
 43
1.0
176
     1
 76
     1
176
     1
 77
     6
176
     1
 78
     2
176
     1
 67
     7
176
     1
 79
     5
176
     1
170
     0
176
     1
171
     0
176
     1
290
     0
176
     1
 93
        1
176
     1
 44
-50.0
176
     1
173
     0
176
     1
  0
VISUALSTYLE
  5
39
102
{ACAD_REACTORS
330
2A
102
}
330
2A
100
AcDbVisualStyle
  2
Facepattern
 70
    15
177
     2
291
     1
 71
     2
176
     1
 72
     2
176
     1
 73
     0
176
     1
 90
        0
176
     1
 40
-0.6
176
     1
 41
-30.0
176
     1
 62
     5
 63
     7
421
 16777215
176
     1
 74
     1
176
     1
 91
        4
176
     1
 64
     7
176
     1
 65
   257
176
     1
 75
     1
176
     1
175
     1
176
     1
 42
1.0
176
     1
 92
        8
176
     1
 66
     7
176
     1
 43
1.0
176
     1
 76
     1
176
     1
 77
     6
176
     1
 78
     2
176
     1
 67
     7
176
     1
 79
     5
176
     1
170
     0
176
     1
171
     0
176
     1
290
     0
176
     1
 93
        1
176
     1
 44
0.0
176
     1
173
     0
176
     1
  0
VISUALSTYLE
  5
2B
102
{ACAD_REACTORS
330
2A
102
}
330
2A
100
AcDbVisualStyle
  2
Flat
 70
     0
177
     2
291
     1
 71
     2
176
     1
 72
     1
176
     1
 73
     1
176
     1
 90
        2
176
     1
 40
-0.6
176
     1
 41
30.0
176
     1
 62
     5
 63
     7
421
 16777215
176
     1
 74
     0
176
     1
 91
        4
176
     1
 64
     7
176
     1
 65
   257
176
     1
 75
     1
176
     1
175
     1
176
     1
 42
1.0
176
     1
 92
        8
176
     1
 66
     7
176
     1
 43
1.0
176
     1
 76
     1
176
     1
 77
     6
176
     1
 78
     2
176
     1
 67
     7
176
     1
 79
     5
176
     1
170
     0
176
     1
171
     0
176
     1
290
     0
176
     1
 93
       13
176
     1
 44
0.0
176
     1
173
     0
176
     1
  0
VISUALSTYLE
  5
2C
102
{ACAD_REACTORS
330
2A
102
}
330
2A
100
AcDbVisualStyle
  2
FlatWithEdges
 70
     1
177
     2
291
     1
 71
     2
176
     1
 72
     1
176
     1
 73
     1
176
     1
 90
        2
176
     1
 40
-0.6
176
     1
 41
30.0
176
     1
 62
     5
 63
     7
421
 16777215
176
     1
 74
     1
176
     1
 91
        4
176
     1
 64
     7
176
     1
 65
   257
176
     1
 75
     1
176
     1
175
     1
176
     1
 42
1.0
176
     1
 92
        0
176
     1
 66
   257
176
     1
 43
1.0
176
     1
 76
     1
176
     1
 77
     6
176
     1
 78
     2
176
     1
 67
     7
176
     1
 79
     5
176
     1
170
     0
176
     1
171
     0
176
     1
290
     0
176
     1
 93
       13
176
     1
 44
0.0
176
     1
173
     0
176
     1
  0
VISUALSTYLE
  5
2D
102
{ACAD_REACTORS
330
2A
102
}
330
2A
100
AcDbVisualStyle
  2
Gouraud
 70
     2
177
     2
291
     1
 71
     2
176
     1
 72
     2
176
     1
 73
     1
176
     1
 90
        2
176
     1
 40
-0.6
176
     1
 41
30.0
176
     1
 62
     5
 63
     7
421
 16777215
176
     1
 74
     0
176
     1
 91
        4
176
     1
 64
     7
176
     1
 65
   257
176
     1
 75
     1
176
     1
175
     1
176
     1
 42
1.0
176
     1
 92
        0
176
     1
 66
     7
176
     1
 43
1.0
176
     1
 76
     1
176
     1
 77
     6
176
     1
 78
     2
176
     1
 67
     7
176
     1
 79
     5
176
     1
170
     0
176
     1
171
     0
176
     1
290
     0
176
     1
 93
       13
176
     1
 44
0.0
176
     1
173
     0
176
     1
  0
VISUALSTYLE
  5
2E
102
{ACAD_REACTORS
330
2A
102
}
330
2A
100
AcDbVisualStyle
  2
GouraudWithEdges
 70
     3
177
     2
291
     1
 71
     2
176
     1
 72
     2
176
     1
 73
     1
176
     1
 90
        2
176
     1
 40
-0.6
176
     1
 41
30.0
176
     1
 62
     5
 63
     7
421
 16777215
176
     1
 74
     1
176
     1
 91
        4
176
     1
 64
     7
176
     1
 65
   257
176
     1
 75
     1
176
     1
175
     1
176
     1
 42
1.0
176
     1
 92
        0
176
     1
 66
   257
176
     1
 43
1.0
176
     1
 76
     1
176
     1
 77
     6
176
     1
 78
     2
176
     1
 67
     7
176
     1
 79
     5
176
     1
170
     0
176
     1
171
     0
176
     1
290
     0
176
     1
 93
       13
176
     1
 44
0.0
176
     1
173
     0
176
     1
  0
VISUALSTYLE
  5
38
102
{ACAD_REACTORS
330
2A
102
}
330
2A
100
AcDbVisualStyle
  2
Linepattern
 70
    14
177
     2
291
     1
 71
     2
176
     1
 72
     2
176
     1
 73
     0
176
     1
 90
        0
176
     1
 40
-0.6
176
     1
 41
-30.0
176
     1
 62
     5
 63
     7
421
 16777215
176
     1
 74
     1
176
     1
 91
        4
176
     1
 64
     7
176
     1
 65
   257
176
     1
 75
     7
176
     1
175
     7
176
     1
 42
1.0
176
     1
 92
        8
176
     1
 66
     7
176
     1
 43
1.0
176
     1
 76
     1
176
     1
 77
     6
176
     1
 78
     2
176
     1
 67
     7
176
     1
 79
     5
176
     1
170
     0
176
     1
171
     0
176
     1
290
     0
176
     1
 93
        1
176
     1
 44
0.0
176
     1
173
     0
176
     1
  0
VISUALSTYLE
  5
33
102
{ACAD_REACTORS
330
2A
102
}
330
2A
100
AcDbVisualStyle
  2
Realistic
 70
     8
177
     2
291
     0
 71
     2
176
     1
 72
     2
176
     1
 73
     0
176
     1
 90
        0
176
     1
 40
-0.6
176
     1
 41
-30.0
176
     1
 62
     5
 63
     7
421
 16777215
176
     1
 74
     1
176
     1
 91
        0
176
     1
 64
     7
176
     1
 65
   257
176
     1
 75
     1
176
     1
175
     1
176
     1
 42
1.0
176
     1
 92
        8
176
     1
 66
     8
424
  7895160
176
     1
 43
1.0
176
     1
 76
     1
176
     1
 77
     6
176
     1
 78
     2
176
     1
 67
     7
176
     1
 79
     5
176
     1
170
     0
176
     1
171
     0
176
     1
290
     0
176
     1
 93
       13
176
     1
 44
0.0
176
     1
173
     0
176
     1
  0
VISUALSTYLE
  5
37
102
{ACAD_REACTORS
330
2A
102
}
330
2A
100
AcDbVisualStyle
  2
Thicken
 70
    13
177
     2
291
     1
 71
     2
176
     1
 72
     2
176
     1
 73
     0
176
     1
 90
        0
176
     1
 40
-0.6
176
     1
 41
-30.0
176
     1
 62
     5
 63
     7
421
 16777215
176
     1
 74
     1
176
     1
 91
        4
176
     1
 64
     7
176
     1
 65
   257
176
     1
 75
     1
176
     1
175
     1
176
     1
 42
1.0
176
     1
 92
       12
176
     1
 66
     7
176
     1
 43
1.0
176
     1
 76
     1
176
     1
 77
     6
176
     1
 78
     2
176
     1
 67
     7
176
     1
 79
     5
176
     1
170
     0
176
     1
171
     0
176
     1
290
     0
176
     1
 93
        1
176
     1
 44
0.0
176
     1
173
     0
176
     1
  0
ENDSEC
  0
EOF
