  0
SECTION
  2
HEADER
  9
$ACADVER
  1
AC1024
  9
$ACADMAINTVER
 70
     6
  9
$DWGCODEPAGE
  3
ANSI_1252
  9
$INSBASE
 10
0.0
 20
0.0
 30
0.0
  9
$EXTMIN
 10
1.000000000000000E+20
 20
1.000000000000000E+20
 30
1.000000000000000E+20
  9
$EXTMAX
 10
-1.000000000000000E+20
 20
-1.000000000000000E+20
 30
-1.000000000000000E+20
  9
$LIMMIN
 10
0.0
 20
0.0
  9
$LIMMAX
 10
12.0
 20
9.0
  9
$ORTHOMODE
 70
     0
  9
$REGENMODE
 70
     1
  9
$FILLMODE
 70
     1
  9
$QTEXTMODE
 70
     0
  9
$MIRRTEXT
 70
     1
  9
$LTSCALE
 40
1.0
  9
$ATTMODE
 70
     1
  9
$TEXTSIZE
 40
0.2
  9
$TRACEWID
 40
0.05
  9
$TEXTSTYLE
  7
Standard
  9
$CLAYER
  8
0
  9
$CELTYPE
  6
ByLayer
  9
$CECOLOR
 62
   256
  9
$CELTSCALE
 40
1.0
  9
$DISPSILH
 70
     0
  9
$DIMSCALE
 40
1.0
  9
$DIMASZ
 40
0.18
  9
$DIMEXO
 40
0.0625
  9
$DIMDLI
 40
0.38
  9
$DIMRND
 40
0.0
  9
$DIMDLE
 40
0.0
  9
$DIMEXE
 40
0.18
  9
$DIMTP
 40
0.0
  9
$DIMTM
 40
0.0
  9
$DIMTXT
 40
0.18
  9
$DIMCEN
 40
0.09
  9
$DIMTSZ
 40
0.0
  9
$DIMTOL
 70
     0
  9
$DIMLIM
 70
     0
  9
$DIMTIH
 70
     1
  9
$DIMTOH
 70
     1
  9
$DIMSE1
 70
     0
  9
$DIMSE2
 70
     0
  9
$DIMTAD
 70
     0
  9
$DIMZIN
 70
     0
  9
$DIMBLK
  1

  9
$DIMASO
 70
     1
  9
$DIMSHO
 70
     1
  9
$DIMPOST
  1

  9
$DIMAPOST
  1

  9
$DIMALT
 70
     0
  9
$DIMALTD
 70
     2
  9
$DIMALTF
 40
25.4
  9
$DIMLFAC
 40
1.0
  9
$DIMTOFL
 70
     0
  9
$DIMTVP
 40
0.0
  9
$DIMTIX
 70
     0
  9
$DIMSOXD
 70
     0
  9
$DIMSAH
 70
     0
  9
$DIMBLK1
  1

  9
$DIMBLK2
  1

  9
$DIMSTYLE
  2
Standard
  9
$DIMCLRD
 70
     0
  9
$DIMCLRE
 70
     0
  9
$DIMCLRT
 70
     0
  9
$DIMTFAC
 40
1.0
  9
$DIMGAP
 40
0.09
  9
$DIMJUST
 70
     0
  9
$DIMSD1
 70
     0
  9
$DIMSD2
 70
     0
  9
$DIMTOLJ
 70
     1
  9
$DIMTZIN
 70
     0
  9
$DIMALTZ
 70
     0
  9
$DIMALTTZ
 70
     0
  9
$DIMUPT
 70
     0
  9
$DIMDEC
 70
     4
  9
$DIMTDEC
 70
     4
  9
$DIMALTU
 70
     2
  9
$DIMALTTD
 70
     2
  9
$DIMTXSTY
  7
Standard
  9
$DIMAUNIT
 70
     0
  9
$DIMADEC
 70
     0
  9
$DIMALTRND
 40
0.0
  9
$DIMAZIN
 70
     0
  9
$DIMDSEP
 70
    46
  9
$DIMATFIT
 70
     3
  9
$DIMFRAC
 70
     0
  9
$DIMLDRBLK
  1

  9
$DIMLUNIT
 70
     2
  9
$DIMLWD
 70
    -2
  9
$DIMLWE
 70
    -2
  9
$DIMTMOVE
 70
     0
  9
$DIMFXL
 40
1.0
  9
$DIMFXLON
 70
     0
  9
$DIMJOGANG
 40
0.7853981633974483
  9
$DIMTFILL
 70
     0
  9
$DIMTFILLCLR
 70
     0
  9
$DIMARCSYM
 70
     0
  9
$DIMLTYPE
  6

  9
$DIMLTEX1
  6

  9
$DIMLTEX2
  6

  9
$DIMTXTDIRECTION
 70
     0
  9
$LUNITS
 70
     2
  9
$LUPREC
 70
     4
  9
$SKETCHINC
 40
0.1
  9
$FILLETRAD
 40
0.5
  9
$AUNITS
 70
     0
  9
$AUPREC
 70
     0
  9
$MENU
  1
.
  9
$ELEVATION
 40
0.0
  9
$PELEVATION
 40
0.0
  9
$THICKNESS
 40
0.0
  9
$LIMCHECK
 70
     0
  9
$CHAMFERA
 40
0.5
  9
$CHAMFERB
 40
0.5
  9
$CHAMFERC
 40
1.0
  9
$CHAMFERD
 40
0.0
  9
$SKPOLY
 70
     0
  9
$TDCREATE
 40
2459346.55269397
  9
$TDUCREATE
 40
2459346.761027303
  9
$TDUPDATE
 40
2459346.552693993
  9
$TDUUPDATE
 40
2459346.761027326
  9
$TDINDWG
 40
0.0000000116
  9
$TDUSRTIMER
 40
0.0000000116
  9
$USRTIMER
 70
     1
  9
$ANGBASE
 50
0.0
  9
$ANGDIR
 70
     0
  9
$PDMODE
 70
     0
  9
$PDSIZE
 40
0.0
  9
$PLINEWID
 40
0.0
  9
$SPLFRAME
 70
     0
  9
$SPLINETYPE
 70
     6
  9
$SPLINESEGS
 70
     8
  9
$HANDSEED
  5
45
  9
$SURFTAB1
 70
     6
  9
$SURFTAB2
 70
     6
  9
$SURFTYPE
 70
     6
  9
$SURFU
 70
     6
  9
$SURFV
 70
     6
  9
$UCSBASE
  2

  9
$UCSNAME
  2

  9
$UCSORG
 10
0.0
 20
0.0
 30
0.0
  9
$UCSXDIR
 10
1.0
 20
0.0
 30
0.0
  9
$UCSYDIR
 10
0.0
 20
1.0
 30
0.0
  9
$UCSORTHOREF
  2

  9
$UCSORTHOVIEW
 70
     0
  9
$UCSORGTOP
 10
0.0
 20
0.0
 30
0.0
  9
$UCSORGBOTTOM
 10
0.0
 20
0.0
 30
0.0
  9
$UCSORGLEFT
 10
0.0
 20
0.0
 30
0.0
  9
$UCSORGRIGHT
 10
0.0
 20
0.0
 30
0.0
  9
$UCSORGFRONT
 10
0.0
 20
0.0
 30
0.0
  9
$UCSORGBACK
 10
0.0
 20
0.0
 30
0.0
  9
$PUCSBASE
  2

  9
$PUCSNAME
  2

  9
$PUCSORG
 10
0.0
 20
0.0
 30
0.0
  9
$PUCSXDIR
 10
1.0
 20
0.0
 30
0.0
  9
$PUCSYDIR
 10
0.0
 20
1.0
 30
0.0
  9
$PUCSORTHOREF
  2

  9
$PUCSORTHOVIEW
 70
     0
  9
$PUCSORGTOP
 10
0.0
 20
0.0
 30
0.0
  9
$PUCSORGBOTTOM
 10
0.0
 20
0.0
 30
0.0
  9
$PUCSORGLEFT
 10
0.0
 20
0.0
 30
0.0
  9
$PUCSORGRIGHT
 10
0.0
 20
0.0
 30
0.0
  9
$PUCSORGFRONT
 10
0.0
 20
0.0
 30
0.0
  9
$PUCSORGBACK
 10
0.0
 20
0.0
 30
0.0
  9
$USERI1
 70
     0
  9
$USERI2
 70
     0
  9
$USERI3
 70
     0
  9
$USERI4
 70
     0
  9
$USERI5
 70
     0
  9
$USERR1
 40
0.0
  9
$USERR2
 40
0.0
  9
$USERR3
 40
0.0
  9
$USERR4
 40
0.0
  9
$USERR5
 40
0.0
  9
$WORLDVIEW
 70
     1
  9
$SHADEDGE
 70
     3
  9
$SHADEDIF
 70
    70
  9
$TILEMODE
 70
     1
  9
$MAXACTVP
 70
    64
  9
$PINSBASE
 10
0.0
 20
0.0
 30
0.0
  9
$PLIMCHECK
 70
     0
  9
$PEXTMIN
 10
1.000000000000000E+20
 20
1.000000000000000E+20
 30
1.000000000000000E+20
  9
$PEXTMAX
 10
-1.000000000000000E+20
 20
-1.000000000000000E+20
 30
-1.000000000000000E+20
  9
$PLIMMIN
 10
0.0
 20
0.0
  9
$PLIMMAX
 10
12.0
 20
9.0
  9
$UNITMODE
 70
     0
  9
$VISRETAIN
 70
     1
  9
$PLINEGEN
 70
     0
  9
$PSLTSCALE
 70
     1
  9
$TREEDEPTH
 70
  3020
  9
$CMLSTYLE
  2
Standard
  9
$CMLJUST
 70
     0
  9
$CMLSCALE
 40
1.0
  9
$PROXYGRAPHICS
 70
     1
  9
$MEASUREMENT
 70
     0
  9
$CELWEIGHT
370
    -1
  9
$ENDCAPS
280
     0
  9
$JOINSTYLE
280
     0
  9
$LWDISPLAY
290
     1
  9
$INSUNITS
 70
     0
  9
$HYPERLINKBASE
  1

  9
$STYLESHEET
  1

  9
$XEDIT
290
     1
  9
$CEPSNTYPE
380
     0
  9
$PSTYLEMODE
290
     1
  9
$FINGERPRINTGUID
  2
{8CE41757-AC4C-4348-A608-5FE780EC5673}
  9
$VERSIONGUID
  2
{FAEB1C32-E019-11D5-929B-00C0DF256EC4}
  9
$EXTNAMES
290
     1
  9
$PSVPSCALE
 40
0.0
  9
$OLESTARTUP
290
     0
  9
$SORTENTS
280
   127
  9
$INDEXCTL
280
     0
  9
$HIDETEXT
280
     1
  9
$XCLIPFRAME
280
     2
  9
$HALOGAP
280
     0
  9
$OBSCOLOR
 70
   257
  9
$OBSLTYPE
280
     0
  9
$INTERSECTIONDISPLAY
280
     0
  9
$INTERSECTIONCOLOR
 70
   257
  9
$DIMASSOC
280
     2
  9
$PROJECTNAME
  1

  9
$CAMERADISPLAY
290
     0
  9
$LENSLENGTH
 40
50.0
  9
$CAMERAHEIGHT
 40
0.0
  9
$STEPSPERSEC
 40
2.0
  9
$STEPSIZE
 40
6.0
  9
$3DDWFPREC
 40
2.0
  9
$PSOLWIDTH
 40
0.25
  9
$PSOLHEIGHT
 40
4.0
  9
$LOFTANG1
 40
1.570796326794897
  9
$LOFTANG2
 40
1.570796326794897
  9
$LOFTMAG1
 40
0.0
  9
$LOFTMAG2
 40
0.0
  9
$LOFTPARAM
 70
     7
  9
$LOFTNORMALS
280
     1
  9
$LATITUDE
 40
37.795
  9
$LONGITUDE
 40
-122.394
  9
$NORTHDIRECTION
 40
0.0
  9
$TIMEZONE
 70
 -8000
  9
$LIGHTGLYPHDISPLAY
280
     1
  9
$TILEMODELIGHTSYNCH
280
     1
  9
$CMATERIAL
347
3C
  9
$SOLIDHIST
280
     1
  9
$SHOWHIST
280
     1
  9
$DWFFRAME
280
     2
  9
$DGNFRAME
280
     2
  9
$REALWORLDSCALE
290
     1
  9
$INTERFERECOLOR
 62
   256
  9
$CSHADOW
280
     0
  9
$SHADOWPLANELOCATION
 40
0.0
  0
ENDSEC
  0
SECTION
  2
CLASSES
  0
CLASS
  1
ACDBDICTIONARYWDFLT
  2
AcDbDictionaryWithDefault
  3
ObjectDBX Classes
 90
        0
 91
        4
280
     0
281
     0
  0
CLASS
  1
VISUALSTYLE
  2
AcDbVisualStyle
  3
ObjectDBX Classes
 90
     4095
 91
        4
280
     0
281
     0
  0
CLASS
  1
MATERIAL
  2
AcDbMaterial
  3
ObjectDBX Classes
 90
     1153
 91
        4
280
     0
281
     0
  0
CLASS
  1
SUN
  2
AcDbSun
  3
SCENEOE
 90
     1024
 91
        4
280
     0
281
     0
  0
ENDSEC
  0
SECTION
  2
TABLES
  0
TABLE
  2
VPORT
  5
8
330
0
100
AcDbSymbolTable
 70
     1
  0
VPORT
  5
29
330
8
100
AcDbSymbolTableRecord
100
AcDbViewportTableRecord
  2
*Active
 70
     0
 10
0.0
 20
0.0
 11
1.0
 21
1.0
 12
0.0
 22
0.0
 13
0.0
 23
0.0
 14
0.5
 24
0.5
 15
0.5
 25
0.5
 16
0.0
 26
0.0
 36
1.0
 17
540.0
 27
-540.0
 37
0.0
 40
1080.0
 41
1.0
 42
50.0
 43
0.0
 44
0.0
 50
0.0
 51
0.0
 71
     0
 72
   100
 73
     1
 74
     3
 75
     0
 76
     0
 77
     0
 78
     0
281
     0
 65
     1
110
0.0
120
0.0
130
0.0
111
1.0
121
0.0
131
0.0
112
0.0
122
1.0
132
0.0
 79
     0
146
0.0
 60
     3
 61
     5
292
     1
282
     1
141
0.0
142
0.0
 63
   250
361
3F
  0
ENDTAB
  0
TABLE
  2
LTYPE
  5
5
330
0
100
AcDbSymbolTable
 70
     1
  0
LTYPE
  5
14
330
5
100
AcDbSymbolTableRecord
100
AcDbLinetypeTableRecord
  2
ByBlock
 70
     0
  3

 72
    65
 73
     0
 40
0.0
  0
LTYPE
  5
15
330
5
100
AcDbSymbolTableRecord
100
AcDbLinetypeTableRecord
  2
ByLayer
 70
     0
  3

 72
    65
 73
     0
 40
0.0
  0
LTYPE
  5
16
330
5
100
AcDbSymbolTableRecord
100
AcDbLinetypeTableRecord
  2
Continuous
 70
     0
  3
Solid line
 72
    65
 73
     0
 40
0.0
  0
ENDTAB
  0
TABLE
  2
LAYER
  5
2
330
0
100
AcDbSymbolTable
 70
     2
  0
LAYER
  5
10
330
2
100
AcDbSymbolTableRecord
100
AcDbLayerTableRecord
  2
0
 70
     0
 62
     7
  6
Continuous
370
    -3
390
F
347
3E
  0
LAYER
  5
40
330
2
100
AcDbSymbolTableRecord
100
AcDbLayerTableRecord
  2
RM_RED
 70
     0
 62
     7
  6
Continuous
370
    -3
390
F
347
3E
  0
ENDTAB
  0
TABLE
  2
STYLE
  5
3
330
0
100
AcDbSymbolTable
 70
     1
  0
STYLE
  5
11
330
3
100
AcDbSymbolTableRecord
100
AcDbTextStyleTableRecord
  2
Standard
 70
     0
 40
0.0
 41
1.0
 50
0.0
 71
     0
 42
0.2
  3
txt
  4

  0
ENDTAB
  0
TABLE
  2
VIEW
  5
6
330
0
100
AcDbSymbolTable
 70
     0
  0
ENDTAB
  0
TABLE
  2
UCS
  5
7
330
0
100
AcDbSymbolTable
 70
     0
  0
ENDTAB
  0
TABLE
  2
APPID
  5
9
330
0
100
AcDbSymbolTable
 70
     1
  0
APPID
  5
12
330
9
100
AcDbSymbolTableRecord
100
AcDbRegAppTableRecord
  2
ACAD
 70
     0
  0
ENDTAB
  0
TABLE
  2
DIMSTYLE
  5
A
330
0
100
AcDbSymbolTable
 70
     1
100
AcDbDimStyleTable
  0
DIMSTYLE
105
27
330
A
100
AcDbSymbolTableRecord
100
AcDbDimStyleTableRecord
  2
Standard
 70
     0
178
     0
340
11
  0
ENDTAB
  0
TABLE
  2
BLOCK_RECORD
  5
1
330
0
100
AcDbSymbolTable
 70
     1
  0
BLOCK_RECORD
  5
1F
330
1
100
AcDbSymbolTableRecord
100
AcDbBlockTableRecord
  2
*Model_Space
340
22
 70
     0
280
     1
281
     0
  0
BLOCK_RECORD
  5
1B
330
1
100
AcDbSymbolTableRecord
100
AcDbBlockTableRecord
  2
*Paper_Space
340
1E
 70
     0
280
     1
281
     0
  0
BLOCK_RECORD
  5
23
330
1
100
AcDbSymbolTableRecord
100
AcDbBlockTableRecord
  2
*Paper_Space0
340
26
 70
     0
280
     1
281
     0
  0
ENDTAB
  0
ENDSEC
  0
SECTION
  2
BLOCKS
  0
BLOCK
  5
20
330
1F
100
AcDbEntity
  8
0
100
AcDbBlockBegin
  2
*Model_Space
 70
     0
 10
0.0
 20
0.0
 30
0.0
  3
*Model_Space
  1

  0
ENDBLK
  5
21
330
1F
100
AcDbEntity
  8
0
100
AcDbBlockEnd
  0
BLOCK
  5
1C
330
1B
100
AcDbEntity
 67
     1
  8
0
100
AcDbBlockBegin
  2
*Paper_Space
 70
     0
 10
0.0
 20
0.0
 30
0.0
  3
*Paper_Space
  1

  0
ENDBLK
  5
1D
330
1B
100
AcDbEntity
 67
     1
  8
0
100
AcDbBlockEnd
  0
BLOCK
  5
24
330
23
100
AcDbEntity
  8
0
100
AcDbBlockBegin
  2
*Paper_Space0
 70
     0
 10
0.0
 20
0.0
 30
0.0
  3
*Paper_Space0
  1

  0
ENDBLK
  5
25
330
23
100
AcDbEntity
  8
0
100
AcDbBlockEnd
  0
ENDSEC
  0
SECTION
  2
ENTITIES
  0
SPLINE
  5
41
330
1F
100
AcDbEntity
  8
RM_RED
370
     0
100
AcDbSpline
210
0.0
220
0.0
230
1.0
 70
    11
 71
     3
 72
   353
 73
   349
 74
     0
 42
0.0000000001
 43
0.0000000001
 12
1.0
 22
0.0
 32
0.0
 13
1.0
 23
0.0
 33
0.0
 40
0.0
 40
0.0
 40
0.0
 40
0.0
 40
1.0
 40
1.0
 40
1.0
 40
2.0
 40
2.0
 40
2.0
 40
3.0
 40
3.0
 40
3.0
 40
4.0
 40
4.0
 40
4.0
 40
5.0
 40
5.0
 40
5.0
 40
6.0
 40
6.0
 40
6.0
 40
7.0
 40
7.0
 40
7.0
 40
8.0
 40
8.0
 40
8.0
 40
9.0
 40
9.0
 40
9.0
 40
10.0
 40
10.0
 40
10.0
 40
11.0
 40
11.0
 40
11.0
 40
12.0
 40
12.0
 40
12.0
 40
13.0
 40
13.0
 40
13.0
 40
14.0
 40
14.0
 40
14.0
 40
15.0
 40
15.0
 40
15.0
 40
16.0
 40
16.0
 40
16.0
 40
17.0
 40
17.0
 40
17.0
 40
18.0
 40
18.0
 40
18.0
 40
19.0
 40
19.0
 40
19.0
 40
20.0
 40
20.0
 40
20.0
 40
21.0
 40
21.0
 40
21.0
 40
22.0
 40
22.0
 40
22.0
 40
23.0
 40
23.0
 40
23.0
 40
24.0
 40
24.0
 40
24.0
 40
25.0
 40
25.0
 40
25.0
 40
26.0
 40
26.0
 40
26.0
 40
27.0
 40
27.0
 40
27.0
 40
28.0
 40
28.0
 40
28.0
 40
29.0
 40
29.0
 40
29.0
 40
30.0
 40
30.0
 40
30.0
 40
31.0
 40
31.0
 40
31.0
 40
32.0
 40
32.0
 40
32.0
 40
33.0
 40
33.0
 40
33.0
 40
34.0
 40
34.0
 40
34.0
 40
35.0
 40
35.0
 40
35.0
 40
36.0
 40
36.0
 40
36.0
 40
37.0
 40
37.0
 40
37.0
 40
38.0
 40
38.0
 40
38.0
 40
39.0
 40
39.0
 40
39.0
 40
40.0
 40
40.0
 40
40.0
 40
41.0
 40
41.0
 40
41.0
 40
42.0
 40
42.0
 40
42.0
 40
43.0
 40
43.0
 40
43.0
 40
44.0
 40
44.0
 40
44.0
 40
45.0
 40
45.0
 40
45.0
 40
46.0
 40
46.0
 40
46.0
 40
47.0
 40
47.0
 40
47.0
 40
48.0
 40
48.0
 40
48.0
 40
49.0
 40
49.0
 40
49.0
 40
50.0
 40
50.0
 40
50.0
 40
51.0
 40
51.0
 40
51.0
 40
52.0
 40
52.0
 40
52.0
 40
53.0
 40
53.0
 40
53.0
 40
54.0
 40
54.0
 40
54.0
 40
55.0
 40
55.0
 40
55.0
 40
56.0
 40
56.0
 40
56.0
 40
57.0
 40
57.0
 40
57.0
 40
58.0
 40
58.0
 40
58.0
 40
59.0
 40
59.0
 40
59.0
 40
60.0
 40
60.0
 40
60.0
 40
61.0
 40
61.0
 40
61.0
 40
62.0
 40
62.0
 40
62.0
 40
63.0
 40
63.0
 40
63.0
 40
64.0
 40
64.0
 40
64.0
 40
65.0
 40
65.0
 40
65.0
 40
66.0
 40
66.0
 40
66.0
 40
67.0
 40
67.0
 40
67.0
 40
68.0
 40
68.0
 40
68.0
 40
69.0
 40
69.0
 40
69.0
 40
70.0
 40
70.0
 40
70.0
 40
71.0
 40
71.0
 40
71.0
 40
72.0
 40
72.0
 40
72.0
 40
73.0
 40
73.0
 40
73.0
 40
74.0
 40
74.0
 40
74.0
 40
75.0
 40
75.0
 40
75.0
 40
76.0
 40
76.0
 40
76.0
 40
77.0
 40
77.0
 40
77.0
 40
78.0
 40
78.0
 40
78.0
 40
79.0
 40
79.0
 40
79.0
 40
80.0
 40
80.0
 40
80.0
 40
81.0
 40
81.0
 40
81.0
 40
82.0
 40
82.0
 40
82.0
 40
83.0
 40
83.0
 40
83.0
 40
84.0
 40
84.0
 40
84.0
 40
85.0
 40
85.0
 40
85.0
 40
86.0
 40
86.0
 40
86.0
 40
87.0
 40
87.0
 40
87.0
 40
88.0
 40
88.0
 40
88.0
 40
89.0
 40
89.0
 40
89.0
 40
90.0
 40
90.0
 40
90.0
 40
91.0
 40
91.0
 40
91.0
 40
92.0
 40
92.0
 40
92.0
 40
93.0
 40
93.0
 40
93.0
 40
94.0
 40
94.0
 40
94.0
 40
95.0
 40
95.0
 40
95.0
 40
96.0
 40
96.0
 40
96.0
 40
97.0
 40
97.0
 40
97.0
 40
98.0
 40
98.0
 40
98.0
 40
99.0
 40
99.0
 40
99.0
 40
100.0
 40
100.0
 40
100.0
 40
101.0
 40
101.0
 40
101.0
 40
102.0
 40
102.0
 40
102.0
 40
103.0
 40
103.0
 40
103.0
 40
104.0
 40
104.0
 40
104.0
 40
105.0
 40
105.0
 40
105.0
 40
106.0
 40
106.0
 40
106.0
 40
107.0
 40
107.0
 40
107.0
 40
108.0
 40
108.0
 40
108.0
 40
109.0
 40
109.0
 40
109.0
 40
110.0
 40
110.0
 40
110.0
 40
111.0
 40
111.0
 40
111.0
 40
112.0
 40
112.0
 40
112.0
 40
113.0
 40
113.0
 40
113.0
 40
114.0
 40
114.0
 40
114.0
 40
115.0
 40
115.0
 40
115.0
 40
116.0
 40
116.0
 40
116.0
 40
116.0
 10
751.4099731445312
 20
-287.1099853515634
 30
0.0
 10
747.8599853515625
 20
-258.239990234375
 30
0.0
 10
736.9000244140625
 20
-236.5599975585938
 30
0.0
 10
718.8200073242188
 20
-222.6799926757812
 30
0.0
 10
694.0999755859375
 20
-203.7099609375
 30
0.0
 10
663.5
 20
-205.5299682617188
 30
0.0
 10
657.27001953125
 20
-206.1400146484384
 30
0.0
 10
656.4299926757812
 20
-202.969970703125
 30
0.0
 10
655.4099731445312
 20
-199.719970703125
 30
0.0
 10
654.1799926757812
 20
-196.4199829101562
 30
0.0
 10
645.3599853515625
 20
-172.8200073242188
 30
0.0
 10
623.7100219726562
 20
-142.0899658203134
 30
0.0
 10
570.6199951171875
 20
-129.72998046875
 30
0.0
 10
570.4299926757812
 20
-129.6900024414062
 30
0.0
 10
551.510009765625
 20
-125.469970703125
 30
0.0
 10
525.4600219726562
 20
-127.6699829101562
 30
0.0
 10
501.4400024414062
 20
-129.7000122070312
 30
0.0
 10
466.239990234375
 20
-137.760009765625
 30
0.0
 10
434.8699951171884
 20
-164.5999755859384
 30
0.0
 10
431.1500244140634
 20
-166.5999755859384
 30
0.0
 10
427.5599975585938
 20
-169.0700073242188
 30
0.0
 10
423.8800048828134
 20
-172.1400146484384
 30
0.0
 10
412.6799926757812
 20
-181.5199584960938
 30
0.0
 10
372.97998046875
 20
-211.2000122070312
 30
0.0
 10
332.7000122070312
 20
-199.4199829101562
 30
0.0
 10
332.2999877929688
 20
-199.2999877929688
 30
0.0
 10
331.8599853515634
 20
-199.3900146484384
 30
0.0
 10
331.530029296875
 20
-199.6400146484384
 30
0.0
 10
331.2000122070312
 20
-199.8999633789062
 30
0.0
 10
331.02001953125
 20
-200.3099975585938
 30
0.0
 10
331.0399780273438
 20
-200.72998046875
 30
0.0
 10
331.0800170898438
 20
-201.72998046875
 30
0.0
 10
332.4099731445312
 20
-225.4599609375
 30
0.0
 10
351.8300170898438
 20
-237.0299682617188
 30
0.0
 10
353.8099975585938
 20
-238.2099609375
 30
0.0
 10
355.9099731445312
 20
-239.1900024414062
 30
0.0
 10
358.1099853515634
 20
-240.0299682617188
 30
0.0
 10
353.1500244140634
 20
-246.969970703125
 30
0.0
 10
333.3300170898438
 20
-277.9599609375
 30
0.0
 10
345.77001953125
 20
-314.0899658203134
 30
0.0
 10
345.9500122070312
 20
-314.6199951171884
 30
0.0
 10
346.4500122070312
 20
-314.969970703125
 30
0.0
 10
347.0
 20
-314.969970703125
 30
0.0
 10
347.02001953125
 20
-314.969970703125
 30
0.0
 10
347.0499877929688
 20
-314.969970703125
 30
0.0
 10
347.0800170898438
 20
-314.9599609375
 30
0.0
 10
347.6599731445312
 20
-314.9299926757812
 30
0.0
 10
348.1500244140634
 20
-314.510009765625
 30
0.0
 10
348.27001953125
 20
-313.9400024414062
 30
0.0
 10
348.2999877929688
 20
-313.7999877929688
 30
0.0
 10
350.7999877929688
 20
-302.6199951171884
 30
0.0
 10
358.4199829101562
 20
-291.3200073242188
 30
0.0
 10
342.5
 20
-334.3999633789062
 30
0.0
 10
361.0
 20
-370.5700073242188
 30
0.0
 10
365.260009765625
 20
-377.97998046875
 30
0.0
 10
362.5800170898438
 20
-379.1300048828134
 30
0.0
 10
357.2000122070312
 20
-382.2799682617188
 30
0.0
 10
354.2999877929688
 20
-389.739990234375
 30
0.0
 10
350.3300170898438
 20
-399.8999633789062
 30
0.0
 10
350.7000122070312
 20
-419.8599853515634
 30
0.0
 10
374.7899780273438
 20
-457.260009765625
 30
0.0
 10
372.0499877929688
 20
-465.5700073242188
 30
0.0
 10
367.5800170898438
 20
-485.9400024414062
 30
0.0
 10
379.4199829101562
 20
-508.1099853515634
 30
0.0
 10
392.9600219726562
 20
-533.47998046875
 30
0.0
 10
423.0
 20
-553.47998046875
 30
0.0
 10
468.7899780273438
 20
-567.6499633789062
 30
0.0
 10
464.3200073242188
 20
-569.969970703125
 30
0.0
 10
455.760009765625
 20
-575.3099975585938
 30
0.0
 10
447.030029296875
 20
-585.5399780273438
 30
0.0
 10
435.6799926757812
 20
-598.8399658203125
 30
0.0
 10
421.97998046875
 20
-623.2899780273438
 30
0.0
 10
421.2000122070312
 20
-664.22998046875
 30
0.0
 10
421.1900024414062
 20
-664.9199829101562
 30
0.0
 10
421.719970703125
 20
-665.5
 30
0.0
 10
422.4199829101562
 20
-665.5499877929688
 30
0.0
 10
422.4299926757812
 20
-665.5499877929688
 30
0.0
 10
422.5700073242188
 20
-665.5599975585938
 30
0.0
 10
422.7999877929688
 20
-665.5799560546875
 30
0.0
 10
422.47998046875
 20
-667.4099731445312
 30
0.0
 10
421.989990234375
 20
-670.6699829101562
 30
0.0
 10
422.0800170898438
 20
-673.1699829101562
 30
0.0
 10
422.1099853515634
 20
-674.0799560546875
 30
0.0
 10
421.9299926757812
 20
-674.9099731445312
 30
0.0
 10
421.5499877929688
 20
-675.6599731445312
 30
0.0
 10
418.0
 20
-682.5999755859375
 30
0.0
 10
406.0599975585938
 20
-708.1300048828125
 30
0.0
 10
401.4000244140634
 20
-745.239990234375
 30
0.0
 10
401.25
 20
-746.4299926757812
 30
0.0
 10
401.0499877929688
 20
-747.5799560546875
 30
0.0
 10
400.8200073242188
 20
-748.6400146484375
 30
0.0
 10
400.3300170898438
 20
-750.8999633789062
 30
0.0
 10
399.219970703125
 20
-755.6499633789062
 30
0.0
 10
397.280029296875
 20
-762.0199584960938
 30
0.0
 10
396.6599731445312
 20
-764.0499877929688
 30
0.0
 10
397.3499755859384
 20
-766.2099609375
 30
0.0
 10
399.0399780273438
 20
-767.5
 30
0.0
 10
399.9600219726562
 20
-768.2000122070312
 30
0.0
 10
401.030029296875
 20
-768.5499877929688
 30
0.0
 10
402.1199951171884
 20
-768.5499877929688
 30
0.0
 10
403.0499877929688
 20
-768.5499877929688
 30
0.0
 10
403.97998046875
 20
-768.2899780273438
 30
0.0
 10
404.8099975585938
 20
-767.7699584960938
 30
0.0
 10
406.280029296875
 20
-766.8499755859375
 30
0.0
 10
407.47998046875
 20
-766.0199584960938
 30
0.0
 10
408.510009765625
 20
-764.6300048828125
 30
0.0
 10
408.9299926757812
 20
-765.0700073242188
 30
0.0
 10
409.4000244140634
 20
-765.469970703125
 30
0.0
 10
409.9199829101562
 20
-765.8200073242188
 30
0.0
 10
409.780029296875
 20
-768.8699951171875
 30
0.0
 10
409.5399780273438
 20
-772.47998046875
 30
0.0
 10
409.0800170898438
 20
-775.719970703125
 30
0.0
 10
408.77001953125
 20
-777.9099731445312
 30
0.0
 10
409.9600219726562
 20
-779.8999633789062
 30
0.0
 10
412.0399780273438
 20
-780.6599731445312
 30
0.0
 10
412.5800170898438
 20
-780.8699951171875
 30
0.0
 10
413.1400146484384
 20
-780.9599609375
 30
0.0
 10
413.6799926757812
 20
-780.9599609375
 30
0.0
 10
414.0399780273438
 20
-780.9599609375
 30
0.0
 10
414.4099731445312
 20
-780.9199829101562
 30
0.0
 10
414.760009765625
 20
-780.8299560546875
 30
0.0
 10
413.8599853515634
 20
-789.22998046875
 30
0.0
 10
411.530029296875
 20
-815.22998046875
 30
0.0
 10
413.3099975585938
 20
-844.6900024414062
 30
0.0
 10
414.3200073242188
 20
-861.2899780273438
 30
0.0
 10
412.77001953125
 20
-877.2699584960938
 30
0.0
 10
408.7000122070312
 20
-892.1699829101562
 30
0.0
 10
405.3900146484384
 20
-904.3200073242188
 30
0.0
 10
404.2100219726562
 20
-915.6300048828125
 30
0.0
 10
405.1699829101562
 20
-925.8299560546875
 30
0.0
 10
404.1199951171884
 20
-927.1499633789062
 30
0.0
 10
401.1599731445312
 20
-931.3299560546875
 30
0.0
 10
401.0999755859384
 20
-936.1699829101562
 30
0.0
 10
400.6300048828134
 20
-936.260009765625
 30
0.0
 10
400.1699829101562
 20
-936.4500122070312
 30
0.0
 10
399.7899780273438
 20
-936.760009765625
 30
0.0
 10
399.0999755859384
 20
-937.3200073242188
 30
0.0
 10
398.7000122070312
 20
-938.1499633789062
 30
0.0
 10
398.7000122070312
 20
-939.0399780273438
 30
0.0
 10
398.7000122070312
 20
-939.0399780273438
 30
0.0
 10
398.7000122070312
 20
-942.5899658203125
 30
0.0
 10
398.7000122070312
 20
-942.5899658203125
 30
0.0
 10
398.7000122070312
 20
-943.8499755859375
 30
0.0
 10
399.5
 20
-944.9599609375
 30
0.0
 10
400.6900024414062
 20
-945.3599853515625
 30
0.0
 10
408.739990234375
 20
-948.0899658203125
 30
0.0
 10
416.72998046875
 20
-949.0999755859375
 30
0.0
 10
424.1599731445312
 20
-949.0999755859375
 30
0.0
 10
443.4000244140634
 20
-949.0999755859375
 30
0.0
 10
458.8699951171884
 20
-942.3099975585938
 30
0.0
 10
461.9500122070312
 20
-940.8599853515625
 30
0.0
 10
463.8400268554688
 20
-941.6099853515625
 30
0.0
 10
465.8200073242188
 20
-941.989990234375
 30
0.0
 10
467.8300170898438
 20
-941.989990234375
 30
0.0
 10
470.3499755859384
 20
-941.989990234375
 30
0.0
 10
472.8900146484384
 20
-941.3900146484375
 30
0.0
 10
475.280029296875
 20
-940.1799926757812
 30
0.0
 10
480.7100219726562
 20
-937.4299926757812
 30
0.0
 10
484.0800170898438
 20
-932.1699829101562
 30
0.0
 10
484.2999877929688
 20
-926.1199951171875
 30
0.0
 10
484.6599731445312
 20
-915.8800048828125
 30
0.0
 10
483.47998046875
 20
-904.219970703125
 30
0.0
 10
480.780029296875
 20
-891.5499877929688
 30
0.0
 10
480.760009765625
 20
-891.3900146484375
 30
0.0
 10
478.2899780273438
 20
-875.739990234375
 30
0.0
 10
477.7000122070312
 20
-861.0
 30
0.0
 10
477.3900146484384
 20
-853.3200073242188
 30
0.0
 10
478.4099731445312
 20
-845.719970703125
 30
0.0
 10
480.72998046875
 20
-838.4099731445312
 30
0.0
 10
482.8900146484384
 20
-831.5799560546875
 30
0.0
 10
486.0399780273438
 20
-822.4500122070312
 30
0.0
 10
489.1699829101562
 20
-816.25
 30
0.0
 10
490.9000244140634
 20
-817.72998046875
 30
0.0
 10
492.75
 20
-819.25
 30
0.0
 10
494.739990234375
 20
-820.7999877929688
 30
0.0
 10
505.1900024414062
 20
-828.9500122070312
 30
0.0
 10
514.260009765625
 20
-838.010009765625
 30
0.0
 10
521.7100219726562
 20
-847.739990234375
 30
0.0
 10
529.9199829101562
 20
-858.4599609375
 30
0.0
 10
535.6599731445312
 20
-868.3699951171875
 30
0.0
 10
538.760009765625
 20
-877.1499633789062
 30
0.0
 10
538.8499755859375
 20
-877.4099731445312
 30
0.0
 10
547.02001953125
 20
-902.8399658203125
 30
0.0
 10
551.2100219726562
 20
-949.1199951171875
 30
0.0
 10
551.2100219726562
 20
-949.1499633789062
 30
0.0
 10
551.219970703125
 20
-949.1699829101562
 30
0.0
 10
551.219970703125
 20
-949.2000122070312
 30
0.0
 10
551.22998046875
 20
-949.22998046875
 30
0.0
 10
551.239990234375
 20
-949.260009765625
 30
0.0
 10
551.239990234375
 20
-949.2899780273438
 30
0.0
 10
551.3099975585938
 20
-949.5899658203125
 30
0.0
 10
551.47998046875
 20
-949.8399658203125
 30
0.0
 10
551.7100219726562
 20
-950.0199584960938
 30
0.0
 10
551.739990234375
 20
-950.0399780273438
 30
0.0
 10
551.760009765625
 20
-950.0599975585938
 30
0.0
 10
551.7899780273438
 20
-950.0799560546875
 30
0.0
 10
551.8200073242188
 20
-950.0999755859375
 30
0.0
 10
551.8300170898438
 20
-950.1199951171875
 30
0.0
 10
551.8599853515625
 20
-950.1300048828125
 30
0.0
 10
551.969970703125
 20
-950.1900024414062
 30
0.0
 10
552.0800170898438
 20
-950.22998046875
 30
0.0
 10
552.2000122070312
 20
-950.260009765625
 30
0.0
 10
552.2100219726562
 20
-950.260009765625
 30
0.0
 10
552.219970703125
 20
-950.2699584960938
 30
0.0
 10
552.22998046875
 20
-950.2699584960938
 30
0.0
 10
552.5399780273438
 20
-950.3399658203125
 30
0.0
 10
558.739990234375
 20
-951.6599731445312
 30
0.0
 10
564.0599975585938
 20
-951.6599731445312
 30
0.0
 10
564.8099975585938
 20
-951.6599731445312
 30
0.0
 10
565.52001953125
 20
-951.6199951171875
 30
0.0
 10
566.219970703125
 20
-951.5599975585938
 30
0.0
 10
566.219970703125
 20
-951.5700073242188
 30
0.0
 10
566.219970703125
 20
-951.5899658203125
 30
0.0
 10
566.219970703125
 20
-951.5999755859375
 30
0.0
 10
566.469970703125
 20
-952.97998046875
 30
0.0
 10
567.0700073242188
 20
-954.22998046875
 30
0.0
 10
567.9000244140625
 20
-955.2899780273438
 30
0.0
 10
567.8599853515625
 20
-956.6799926757812
 30
0.0
 10
567.75
 20
-960.8299560546875
 30
0.0
 10
567.9199829101562
 20
-962.7000122070312
 30
0.0
 10
567.969970703125
 20
-963.2000122070312
 30
0.0
 10
568.2899780273438
 20
-963.6199951171875
 30
0.0
 10
568.760009765625
 20
-963.7999877929688
 30
0.0
 10
569.2999877929688
 20
-964.010009765625
 30
0.0
 10
578.6500244140625
 20
-967.4500122070312
 30
0.0
 10
591.719970703125
 20
-967.4500122070312
 30
0.0
 10
597.2100219726562
 20
-967.4500122070312
 30
0.0
 10
603.3699951171875
 20
-966.8399658203125
 30
0.0
 10
609.7999877929688
 20
-965.1199951171875
 30
0.0
 10
610.3499755859375
 20
-964.97998046875
 30
0.0
 10
610.739990234375
 20
-964.489990234375
 30
0.0
 10
610.77001953125
 20
-963.9199829101562
 30
0.0
 10
610.77001953125
 20
-963.719970703125
 30
0.0
 10
610.9199829101562
 20
-959.5399780273438
 30
0.0
 10
610.1599731445312
 20
-956.6199951171875
 30
0.0
 10
610.739990234375
 20
-956.0799560546875
 30
0.0
 10
611.22998046875
 20
-955.4500122070312
 30
0.0
 10
611.6199951171875
 20
-954.75
 30
0.0
 10
612.219970703125
 20
-953.6799926757812
 30
0.0
 10
612.530029296875
 20
-952.5299682617188
 30
0.0
 10
612.5499877929688
 20
-951.3599853515625
 30
0.0
 10
612.9400024414062
 20
-951.6199951171875
 30
0.0
 10
613.3300170898438
 20
-951.8699951171875
 30
0.0
 10
613.7100219726562
 20
-952.1400146484375
 30
0.0
 10
615.4199829101562
 20
-953.3599853515625
 30
0.0
 10
617.4099731445312
 20
-953.97998046875
 30
0.0
 10
619.4199829101562
 20
-953.97998046875
 30
0.0
 10
621.02001953125
 20
-953.97998046875
 30
0.0
 10
622.6300048828125
 20
-953.5899658203125
 30
0.0
 10
624.1099853515625
 20
-952.7899780273438
 30
0.0
 10
627.5
 20
-950.969970703125
 30
0.0
 10
629.52001953125
 20
-947.4599609375
 30
0.0
 10
629.3800048828125
 20
-943.6400146484375
 30
0.0
 10
628.6900024414062
 20
-924.010009765625
 30
0.0
 10
623.4299926757812
 20
-893.3599853515625
 30
0.0
 10
602.3900146484375
 20
-858.7899780273438
 30
0.0
 10
602.0499877929688
 20
-858.1599731445312
 30
0.0
 10
567.9199829101562
 20
-794.9599609375
 30
0.0
 10
568.739990234375
 20
-760.5599975585938
 30
0.0
 10
568.739990234375
 20
-760.489990234375
 30
0.0
 10
568.7100219726562
 20
-760.4400024414062
 30
0.0
 10
568.7100219726562
 20
-760.3800048828125
 30
0.0
 10
568.7100219726562
 20
-760.3800048828125
 30
0.0
 10
569.5499877929688
 20
-748.719970703125
 30
0.0
 10
569.5499877929688
 20
-748.719970703125
 30
0.0
 10
572.1500244140625
 20
-748.3599853515625
 30
0.0
 10
574.469970703125
 20
-747.0999755859375
 30
0.0
 10
576.1500244140625
 20
-745.1199951171875
 30
0.0
 10
578.0599975585938
 20
-742.8699951171875
 30
0.0
 10
578.9099731445312
 20
-739.97998046875
 30
0.0
 10
578.5499877929688
 20
-736.97998046875
 30
0.0
 10
572.1799926757812
 20
-683.6699829101562
 30
0.0
 10
586.260009765625
 20
-654.7999877929688
 30
0.0
 10
592.6099853515625
 20
-644.8599853515625
 30
0.0
 10
593.7000122070312
 20
-643.1499633789062
 30
0.0
 10
595.6400146484375
 20
-642.22998046875
 30
0.0
 10
597.6799926757812
 20
-642.469970703125
 30
0.0
 10
607.239990234375
 20
-643.5599975585938
 30
0.0
 10
618.969970703125
 20
-643.6199951171875
 30
0.0
 10
620.3099975585938
 20
-643.6300048828125
 30
0.0
 10
620.9400024414062
 20
-643.7999877929688
 30
0.0
 10
621.5800170898438
 20
-643.8900146484375
 30
0.0
 10
622.22998046875
 20
-643.8900146484375
 30
0.0
 10
623.3300170898438
 20
-643.8900146484375
 30
0.0
 10
624.4299926757812
 20
-643.6499633789062
 30
0.0
 10
625.4500122070312
 20
-643.1699829101562
 30
0.0
 10
629.280029296875
 20
-641.3599853515625
 30
0.0
 10
636.469970703125
 20
-636.8800048828125
 30
0.0
 10
642.1199951171875
 20
-627.1699829101562
 30
0.0
 10
652.7100219726562
 20
-625.4199829101562
 30
0.0
 10
656.8900146484375
 20
-620.2000122070312
 30
0.0
 10
657.1699829101562
 20
-619.8200073242188
 30
0.0
 10
668.1400146484375
 20
-606.4400024414062
 30
0.0
 10
657.27001953125
 20
-573.8399658203125
 30
0.0
 10
655.4500122070312
 20
-568.6900024414062
 30
0.0
 10
660.5800170898438
 20
-560.8800048828125
 30
0.0
 10
659.5
 20
-544.760009765625
 30
0.0
 10
659.3200073242188
 20
-542.469970703125
 30
0.0
 10
662.4000244140625
 20
-531.9299926757812
 30
0.0
 10
663.7999877929688
 20
-522.6900024414062
 30
0.0
 10
664.3599853515625
 20
-518.0899658203125
 30
0.0
 10
664.4500122070312
 20
-517.3200073242188
 30
0.0
 10
664.280029296875
 20
-516.5899658203125
 30
0.0
 10
663.8900146484375
 20
-515.989990234375
 30
0.0
 10
664.030029296875
 20
-516.0599975585938
 30
0.0
 10
664.1699829101562
 20
-516.1400146484375
 30
0.0
 10
664.2999877929688
 20
-516.2099609375
 30
0.0
 10
665.6400146484375
 20
-516.8999633789062
 30
0.0
 10
667.0800170898438
 20
-517.25
 30
0.0
 10
668.5
 20
-517.25
 30
0.0
 10
669.1599731445312
 20
-517.25
 30
0.0
 10
669.8200073242188
 20
-517.1699829101562
 30
0.0
 10
670.4600219726562
 20
-517.0199584960938
 30
0.0
 10
674.8699951171875
 20
-515.9400024414062
 30
0.0
 10
676.27001953125
 20
-511.6300048828134
 30
0.0
 10
676.3900146484375
 20
-509.760009765625
 30
0.0
 10
676.5399780273438
 20
-508.5599975585938
 30
0.0
 10
676.489990234375
 20
-506.9500122070312
 30
0.0
 10
676.25
 20
-504.97998046875
 30
0.0
 10
682.2899780273438
 20
-502.3900146484384
 30
0.0
 10
725.239990234375
 20
-482.739990234375
 30
0.0
 10
723.6300048828125
 20
-450.0999755859384
 30
0.0
 10
723.3599853515625
 20
-444.5799560546884
 30
0.0
 10
721.3599853515625
 20
-440.6199951171884
 30
0.0
 10
717.6799926757812
 20
-438.3399658203134
 30
0.0
 10
716.3300170898438
 20
-437.510009765625
 30
0.0
 10
714.8200073242188
 20
-436.9500122070312
 30
0.0
 10
713.239990234375
 20
-436.6099853515634
 30
0.0
 10
734.8599853515625
 20
-420.1599731445312
 30
0.0
 10
737.2100219726562
 20
-374.4099731445312
 30
0.0
 10
737.2999877929688
 20
-372.3699951171884
 30
0.0
 10
737.4199829101562
 20
-367.5199584960938
 30
0.0
 10
737.239990234375
 20
-363.0299682617188
 30
0.0
 10
736.8099975585938
 20
-358.8499755859384
 30
0.0
 10
748.8200073242188
 20
-349.9500122070312
 30
0.0
 10
747.8900146484375
 20
-329.0299682617188
 30
0.0
 10
747.1199951171875
 20
-321.510009765625
 30
0.0
 10
750.0
 20
-324.2000122070312
 30
0.0
 10
752.6199951171875
 20
-330.1099853515634
 30
0.0
 10
753.530029296875
 20
-332.6099853515634
 30
0.0
 10
753.72998046875
 20
-333.1599731445312
 30
0.0
 10
754.27001953125
 20
-333.5
 30
0.0
 10
754.8400268554688
 20
-333.4599609375
 30
0.0
 10
755.4199829101562
 20
-333.4199829101562
 30
0.0
 10
755.9000244140625
 20
-333.010009765625
 30
0.0
 10
756.02001953125
 20
-332.4400024414062
 30
0.0
 10
760.0599975585938
 20
-313.7999877929688
 30
0.0
 10
758.489990234375
 20
-298.5899658203134
 30
0.0
 10
751.4099731445312
 20
-287.1099853515634
 30
0.0
  0
HATCH
  5
42
330
1F
100
AcDbEntity
  8
RM_RED
 62
   242
420
 14886464
100
AcDbHatch
 10
0.0
 20
0.0
 30
0.0
210
0.0
220
0.0
230
1.0
  2
SOLID
 70
     1
 71
     0
 91
        1
 92
        1
 93
        1
 72
     4
 94
        3
 73
     0
 74
     1
 95
      353
 96
      349
 40
0.0
 40
0.0
 40
0.0
 40
0.0
 40
1.0
 40
1.0
 40
1.0
 40
2.0
 40
2.0
 40
2.0
 40
3.0
 40
3.0
 40
3.0
 40
4.0
 40
4.0
 40
4.0
 40
5.0
 40
5.0
 40
5.0
 40
6.0
 40
6.0
 40
6.0
 40
7.0
 40
7.0
 40
7.0
 40
8.0
 40
8.0
 40
8.0
 40
9.0
 40
9.0
 40
9.0
 40
10.0
 40
10.0
 40
10.0
 40
11.0
 40
11.0
 40
11.0
 40
12.0
 40
12.0
 40
12.0
 40
13.0
 40
13.0
 40
13.0
 40
14.0
 40
14.0
 40
14.0
 40
15.0
 40
15.0
 40
15.0
 40
16.0
 40
16.0
 40
16.0
 40
17.0
 40
17.0
 40
17.0
 40
18.0
 40
18.0
 40
18.0
 40
19.0
 40
19.0
 40
19.0
 40
20.0
 40
20.0
 40
20.0
 40
21.0
 40
21.0
 40
21.0
 40
22.0
 40
22.0
 40
22.0
 40
23.0
 40
23.0
 40
23.0
 40
24.0
 40
24.0
 40
24.0
 40
25.0
 40
25.0
 40
25.0
 40
26.0
 40
26.0
 40
26.0
 40
27.0
 40
27.0
 40
27.0
 40
28.0
 40
28.0
 40
28.0
 40
29.0
 40
29.0
 40
29.0
 40
30.0
 40
30.0
 40
30.0
 40
31.0
 40
31.0
 40
31.0
 40
32.0
 40
32.0
 40
32.0
 40
33.0
 40
33.0
 40
33.0
 40
34.0
 40
34.0
 40
34.0
 40
35.0
 40
35.0
 40
35.0
 40
36.0
 40
36.0
 40
36.0
 40
37.0
 40
37.0
 40
37.0
 40
38.0
 40
38.0
 40
38.0
 40
39.0
 40
39.0
 40
39.0
 40
40.0
 40
40.0
 40
40.0
 40
41.0
 40
41.0
 40
41.0
 40
42.0
 40
42.0
 40
42.0
 40
43.0
 40
43.0
 40
43.0
 40
44.0
 40
44.0
 40
44.0
 40
45.0
 40
45.0
 40
45.0
 40
46.0
 40
46.0
 40
46.0
 40
47.0
 40
47.0
 40
47.0
 40
48.0
 40
48.0
 40
48.0
 40
49.0
 40
49.0
 40
49.0
 40
50.0
 40
50.0
 40
50.0
 40
51.0
 40
51.0
 40
51.0
 40
52.0
 40
52.0
 40
52.0
 40
53.0
 40
53.0
 40
53.0
 40
54.0
 40
54.0
 40
54.0
 40
55.0
 40
55.0
 40
55.0
 40
56.0
 40
56.0
 40
56.0
 40
57.0
 40
57.0
 40
57.0
 40
58.0
 40
58.0
 40
58.0
 40
59.0
 40
59.0
 40
59.0
 40
60.0
 40
60.0
 40
60.0
 40
61.0
 40
61.0
 40
61.0
 40
62.0
 40
62.0
 40
62.0
 40
63.0
 40
63.0
 40
63.0
 40
64.0
 40
64.0
 40
64.0
 40
65.0
 40
65.0
 40
65.0
 40
66.0
 40
66.0
 40
66.0
 40
67.0
 40
67.0
 40
67.0
 40
68.0
 40
68.0
 40
68.0
 40
69.0
 40
69.0
 40
69.0
 40
70.0
 40
70.0
 40
70.0
 40
71.0
 40
71.0
 40
71.0
 40
72.0
 40
72.0
 40
72.0
 40
73.0
 40
73.0
 40
73.0
 40
74.0
 40
74.0
 40
74.0
 40
75.0
 40
75.0
 40
75.0
 40
76.0
 40
76.0
 40
76.0
 40
77.0
 40
77.0
 40
77.0
 40
78.0
 40
78.0
 40
78.0
 40
79.0
 40
79.0
 40
79.0
 40
80.0
 40
80.0
 40
80.0
 40
81.0
 40
81.0
 40
81.0
 40
82.0
 40
82.0
 40
82.0
 40
83.0
 40
83.0
 40
83.0
 40
84.0
 40
84.0
 40
84.0
 40
85.0
 40
85.0
 40
85.0
 40
86.0
 40
86.0
 40
86.0
 40
87.0
 40
87.0
 40
87.0
 40
88.0
 40
88.0
 40
88.0
 40
89.0
 40
89.0
 40
89.0
 40
90.0
 40
90.0
 40
90.0
 40
91.0
 40
91.0
 40
91.0
 40
92.0
 40
92.0
 40
92.0
 40
93.0
 40
93.0
 40
93.0
 40
94.0
 40
94.0
 40
94.0
 40
95.0
 40
95.0
 40
95.0
 40
96.0
 40
96.0
 40
96.0
 40
97.0
 40
97.0
 40
97.0
 40
98.0
 40
98.0
 40
98.0
 40
99.0
 40
99.0
 40
99.0
 40
100.0
 40
100.0
 40
100.0
 40
101.0
 40
101.0
 40
101.0
 40
102.0
 40
102.0
 40
102.0
 40
103.0
 40
103.0
 40
103.0
 40
104.0
 40
104.0
 40
104.0
 40
105.0
 40
105.0
 40
105.0
 40
106.0
 40
106.0
 40
106.0
 40
107.0
 40
107.0
 40
107.0
 40
108.0
 40
108.0
 40
108.0
 40
109.0
 40
109.0
 40
109.0
 40
110.0
 40
110.0
 40
110.0
 40
111.0
 40
111.0
 40
111.0
 40
112.0
 40
112.0
 40
112.0
 40
113.0
 40
113.0
 40
113.0
 40
114.0
 40
114.0
 40
114.0
 40
115.0
 40
115.0
 40
115.0
 40
116.0
 40
116.0
 40
116.0
 40
116.0
 10
751.4099731445312
 20
-287.1099853515634
 10
747.8599853515625
 20
-258.239990234375
 10
736.9000244140625
 20
-236.5599975585938
 10
718.8200073242188
 20
-222.6799926757812
 10
694.0999755859375
 20
-203.7099609375
 10
663.5
 20
-205.5299682617188
 10
657.27001953125
 20
-206.1400146484384
 10
656.4299926757812
 20
-202.969970703125
 10
655.4099731445312
 20
-199.719970703125
 10
654.1799926757812
 20
-196.4199829101562
 10
645.3599853515625
 20
-172.8200073242188
 10
623.7100219726562
 20
-142.0899658203134
 10
570.6199951171875
 20
-129.72998046875
 10
570.4299926757812
 20
-129.6900024414062
 10
551.510009765625
 20
-125.469970703125
 10
525.4600219726562
 20
-127.6699829101562
 10
501.4400024414062
 20
-129.7000122070312
 10
466.239990234375
 20
-137.760009765625
 10
434.8699951171884
 20
-164.5999755859384
 10
431.1500244140634
 20
-166.5999755859384
 10
427.5599975585938
 20
-169.0700073242188
 10
423.8800048828134
 20
-172.1400146484384
 10
412.6799926757812
 20
-181.5199584960938
 10
372.97998046875
 20
-211.2000122070312
 10
332.7000122070312
 20
-199.4199829101562
 10
332.2999877929688
 20
-199.2999877929688
 10
331.8599853515634
 20
-199.3900146484384
 10
331.530029296875
 20
-199.6400146484384
 10
331.2000122070312
 20
-199.8999633789062
 10
331.02001953125
 20
-200.3099975585938
 10
331.0399780273438
 20
-200.72998046875
 10
331.0800170898438
 20
-201.72998046875
 10
332.4099731445312
 20
-225.4599609375
 10
351.8300170898438
 20
-237.0299682617188
 10
353.8099975585938
 20
-238.2099609375
 10
355.9099731445312
 20
-239.1900024414062
 10
358.1099853515634
 20
-240.0299682617188
 10
353.1500244140634
 20
-246.969970703125
 10
333.3300170898438
 20
-277.9599609375
 10
345.77001953125
 20
-314.0899658203134
 10
345.9500122070312
 20
-314.6199951171884
 10
346.4500122070312
 20
-314.969970703125
 10
347.0
 20
-314.969970703125
 10
347.02001953125
 20
-314.969970703125
 10
347.0499877929688
 20
-314.969970703125
 10
347.0800170898438
 20
-314.9599609375
 10
347.6599731445312
 20
-314.9299926757812
 10
348.1500244140634
 20
-314.510009765625
 10
348.27001953125
 20
-313.9400024414062
 10
348.2999877929688
 20
-313.7999877929688
 10
350.7999877929688
 20
-302.6199951171884
 10
358.4199829101562
 20
-291.3200073242188
 10
342.5
 20
-334.3999633789062
 10
361.0
 20
-370.5700073242188
 10
365.260009765625
 20
-377.97998046875
 10
362.5800170898438
 20
-379.1300048828134
 10
357.2000122070312
 20
-382.2799682617188
 10
354.2999877929688
 20
-389.739990234375
 10
350.3300170898438
 20
-399.8999633789062
 10
350.7000122070312
 20
-419.8599853515634
 10
374.7899780273438
 20
-457.260009765625
 10
372.0499877929688
 20
-465.5700073242188
 10
367.5800170898438
 20
-485.9400024414062
 10
379.4199829101562
 20
-508.1099853515634
 10
392.9600219726562
 20
-533.47998046875
 10
423.0
 20
-553.47998046875
 10
468.7899780273438
 20
-567.6499633789062
 10
464.3200073242188
 20
-569.969970703125
 10
455.760009765625
 20
-575.3099975585938
 10
447.030029296875
 20
-585.5399780273438
 10
435.6799926757812
 20
-598.8399658203125
 10
421.97998046875
 20
-623.2899780273438
 10
421.2000122070312
 20
-664.22998046875
 10
421.1900024414062
 20
-664.9199829101562
 10
421.719970703125
 20
-665.5
 10
422.4199829101562
 20
-665.5499877929688
 10
422.4299926757812
 20
-665.5499877929688
 10
422.5700073242188
 20
-665.5599975585938
 10
422.7999877929688
 20
-665.5799560546875
 10
422.47998046875
 20
-667.4099731445312
 10
421.989990234375
 20
-670.6699829101562
 10
422.0800170898438
 20
-673.1699829101562
 10
422.1099853515634
 20
-674.0799560546875
 10
421.9299926757812
 20
-674.9099731445312
 10
421.5499877929688
 20
-675.6599731445312
 10
418.0
 20
-682.5999755859375
 10
406.0599975585938
 20
-708.1300048828125
 10
401.4000244140634
 20
-745.239990234375
 10
401.25
 20
-746.4299926757812
 10
401.0499877929688
 20
-747.5799560546875
 10
400.8200073242188
 20
-748.6400146484375
 10
400.3300170898438
 20
-750.8999633789062
 10
399.219970703125
 20
-755.6499633789062
 10
397.280029296875
 20
-762.0199584960938
 10
396.6599731445312
 20
-764.0499877929688
 10
397.3499755859384
 20
-766.2099609375
 10
399.0399780273438
 20
-767.5
 10
399.9600219726562
 20
-768.2000122070312
 10
401.030029296875
 20
-768.5499877929688
 10
402.1199951171884
 20
-768.5499877929688
 10
403.0499877929688
 20
-768.5499877929688
 10
403.97998046875
 20
-768.2899780273438
 10
404.8099975585938
 20
-767.7699584960938
 10
406.280029296875
 20
-766.8499755859375
 10
407.47998046875
 20
-766.0199584960938
 10
408.510009765625
 20
-764.6300048828125
 10
408.9299926757812
 20
-765.0700073242188
 10
409.4000244140634
 20
-765.469970703125
 10
409.9199829101562
 20
-765.8200073242188
 10
409.780029296875
 20
-768.8699951171875
 10
409.5399780273438
 20
-772.47998046875
 10
409.0800170898438
 20
-775.719970703125
 10
408.77001953125
 20
-777.9099731445312
 10
409.9600219726562
 20
-779.8999633789062
 10
412.0399780273438
 20
-780.6599731445312
 10
412.5800170898438
 20
-780.8699951171875
 10
413.1400146484384
 20
-780.9599609375
 10
413.6799926757812
 20
-780.9599609375
 10
414.0399780273438
 20
-780.9599609375
 10
414.4099731445312
 20
-780.9199829101562
 10
414.760009765625
 20
-780.8299560546875
 10
413.8599853515634
 20
-789.22998046875
 10
411.530029296875
 20
-815.22998046875
 10
413.3099975585938
 20
-844.6900024414062
 10
414.3200073242188
 20
-861.2899780273438
 10
412.77001953125
 20
-877.2699584960938
 10
408.7000122070312
 20
-892.1699829101562
 10
405.3900146484384
 20
-904.3200073242188
 10
404.2100219726562
 20
-915.6300048828125
 10
405.1699829101562
 20
-925.8299560546875
 10
404.1199951171884
 20
-927.1499633789062
 10
401.1599731445312
 20
-931.3299560546875
 10
401.0999755859384
 20
-936.1699829101562
 10
400.6300048828134
 20
-936.260009765625
 10
400.1699829101562
 20
-936.4500122070312
 10
399.7899780273438
 20
-936.760009765625
 10
399.0999755859384
 20
-937.3200073242188
 10
398.7000122070312
 20
-938.1499633789062
 10
398.7000122070312
 20
-939.0399780273438
 10
398.7000122070312
 20
-939.0399780273438
 10
398.7000122070312
 20
-942.5899658203125
 10
398.7000122070312
 20
-942.5899658203125
 10
398.7000122070312
 20
-943.8499755859375
 10
399.5
 20
-944.9599609375
 10
400.6900024414062
 20
-945.3599853515625
 10
408.739990234375
 20
-948.0899658203125
 10
416.72998046875
 20
-949.0999755859375
 10
424.1599731445312
 20
-949.0999755859375
 10
443.4000244140634
 20
-949.0999755859375
 10
458.8699951171884
 20
-942.3099975585938
 10
461.9500122070312
 20
-940.8599853515625
 10
463.8400268554688
 20
-941.6099853515625
 10
465.8200073242188
 20
-941.989990234375
 10
467.8300170898438
 20
-941.989990234375
 10
470.3499755859384
 20
-941.989990234375
 10
472.8900146484384
 20
-941.3900146484375
 10
475.280029296875
 20
-940.1799926757812
 10
480.7100219726562
 20
-937.4299926757812
 10
484.0800170898438
 20
-932.1699829101562
 10
484.2999877929688
 20
-926.1199951171875
 10
484.6599731445312
 20
-915.8800048828125
 10
483.47998046875
 20
-904.219970703125
 10
480.780029296875
 20
-891.5499877929688
 10
480.760009765625
 20
-891.3900146484375
 10
478.2899780273438
 20
-875.739990234375
 10
477.7000122070312
 20
-861.0
 10
477.3900146484384
 20
-853.3200073242188
 10
478.4099731445312
 20
-845.719970703125
 10
480.72998046875
 20
-838.4099731445312
 10
482.8900146484384
 20
-831.5799560546875
 10
486.0399780273438
 20
-822.4500122070312
 10
489.1699829101562
 20
-816.25
 10
490.9000244140634
 20
-817.72998046875
 10
492.75
 20
-819.25
 10
494.739990234375
 20
-820.7999877929688
 10
505.1900024414062
 20
-828.9500122070312
 10
514.260009765625
 20
-838.010009765625
 10
521.7100219726562
 20
-847.739990234375
 10
529.9199829101562
 20
-858.4599609375
 10
535.6599731445312
 20
-868.3699951171875
 10
538.760009765625
 20
-877.1499633789062
 10
538.8499755859375
 20
-877.4099731445312
 10
547.02001953125
 20
-902.8399658203125
 10
551.2100219726562
 20
-949.1199951171875
 10
551.2100219726562
 20
-949.1499633789062
 10
551.219970703125
 20
-949.1699829101562
 10
551.219970703125
 20
-949.2000122070312
 10
551.22998046875
 20
-949.22998046875
 10
551.239990234375
 20
-949.260009765625
 10
551.239990234375
 20
-949.2899780273438
 10
551.3099975585938
 20
-949.5899658203125
 10
551.47998046875
 20
-949.8399658203125
 10
551.7100219726562
 20
-950.0199584960938
 10
551.739990234375
 20
-950.0399780273438
 10
551.760009765625
 20
-950.0599975585938
 10
551.7899780273438
 20
-950.0799560546875
 10
551.8200073242188
 20
-950.0999755859375
 10
551.8300170898438
 20
-950.1199951171875
 10
551.8599853515625
 20
-950.1300048828125
 10
551.969970703125
 20
-950.1900024414062
 10
552.0800170898438
 20
-950.22998046875
 10
552.2000122070312
 20
-950.260009765625
 10
552.2100219726562
 20
-950.260009765625
 10
552.219970703125
 20
-950.2699584960938
 10
552.22998046875
 20
-950.2699584960938
 10
552.5399780273438
 20
-950.3399658203125
 10
558.739990234375
 20
-951.6599731445312
 10
564.0599975585938
 20
-951.6599731445312
 10
564.8099975585938
 20
-951.6599731445312
 10
565.52001953125
 20
-951.6199951171875
 10
566.219970703125
 20
-951.5599975585938
 10
566.219970703125
 20
-951.5700073242188
 10
566.219970703125
 20
-951.5899658203125
 10
566.219970703125
 20
-951.5999755859375
 10
566.469970703125
 20
-952.97998046875
 10
567.0700073242188
 20
-954.22998046875
 10
567.9000244140625
 20
-955.2899780273438
 10
567.8599853515625
 20
-956.6799926757812
 10
567.75
 20
-960.8299560546875
 10
567.9199829101562
 20
-962.7000122070312
 10
567.969970703125
 20
-963.2000122070312
 10
568.2899780273438
 20
-963.6199951171875
 10
568.760009765625
 20
-963.7999877929688
 10
569.2999877929688
 20
-964.010009765625
 10
578.6500244140625
 20
-967.4500122070312
 10
591.719970703125
 20
-967.4500122070312
 10
597.2100219726562
 20
-967.4500122070312
 10
603.3699951171875
 20
-966.8399658203125
 10
609.7999877929688
 20
-965.1199951171875
 10
610.3499755859375
 20
-964.97998046875
 10
610.739990234375
 20
-964.489990234375
 10
610.77001953125
 20
-963.9199829101562
 10
610.77001953125
 20
-963.719970703125
 10
610.9199829101562
 20
-959.5399780273438
 10
610.1599731445312
 20
-956.6199951171875
 10
610.739990234375
 20
-956.0799560546875
 10
611.22998046875
 20
-955.4500122070312
 10
611.6199951171875
 20
-954.75
 10
612.219970703125
 20
-953.6799926757812
 10
612.530029296875
 20
-952.5299682617188
 10
612.5499877929688
 20
-951.3599853515625
 10
612.9400024414062
 20
-951.6199951171875
 10
613.3300170898438
 20
-951.8699951171875
 10
613.7100219726562
 20
-952.1400146484375
 10
615.4199829101562
 20
-953.3599853515625
 10
617.4099731445312
 20
-953.97998046875
 10
619.4199829101562
 20
-953.97998046875
 10
621.02001953125
 20
-953.97998046875
 10
622.6300048828125
 20
-953.5899658203125
 10
624.1099853515625
 20
-952.7899780273438
 10
627.5
 20
-950.969970703125
 10
629.52001953125
 20
-947.4599609375
 10
629.3800048828125
 20
-943.6400146484375
 10
628.6900024414062
 20
-924.010009765625
 10
623.4299926757812
 20
-893.3599853515625
 10
602.3900146484375
 20
-858.7899780273438
 10
602.0499877929688
 20
-858.1599731445312
 10
567.9199829101562
 20
-794.9599609375
 10
568.739990234375
 20
-760.5599975585938
 10
568.739990234375
 20
-760.489990234375
 10
568.7100219726562
 20
-760.4400024414062
 10
568.7100219726562
 20
-760.3800048828125
 10
568.7100219726562
 20
-760.3800048828125
 10
569.5499877929688
 20
-748.719970703125
 10
569.5499877929688
 20
-748.719970703125
 10
572.1500244140625
 20
-748.3599853515625
 10
574.469970703125
 20
-747.0999755859375
 10
576.1500244140625
 20
-745.1199951171875
 10
578.0599975585938
 20
-742.8699951171875
 10
578.9099731445312
 20
-739.97998046875
 10
578.5499877929688
 20
-736.97998046875
 10
572.1799926757812
 20
-683.6699829101562
 10
586.260009765625
 20
-654.7999877929688
 10
592.6099853515625
 20
-644.8599853515625
 10
593.7000122070312
 20
-643.1499633789062
 10
595.6400146484375
 20
-642.22998046875
 10
597.6799926757812
 20
-642.469970703125
 10
607.239990234375
 20
-643.5599975585938
 10
618.969970703125
 20
-643.6199951171875
 10
620.3099975585938
 20
-643.6300048828125
 10
620.9400024414062
 20
-643.7999877929688
 10
621.5800170898438
 20
-643.8900146484375
 10
622.22998046875
 20
-643.8900146484375
 10
623.3300170898438
 20
-643.8900146484375
 10
624.4299926757812
 20
-643.6499633789062
 10
625.4500122070312
 20
-643.1699829101562
 10
629.280029296875
 20
-641.3599853515625
 10
636.469970703125
 20
-636.8800048828125
 10
642.1199951171875
 20
-627.1699829101562
 10
652.7100219726562
 20
-625.4199829101562
 10
656.8900146484375
 20
-620.2000122070312
 10
657.1699829101562
 20
-619.8200073242188
 10
668.1400146484375
 20
-606.4400024414062
 10
657.27001953125
 20
-573.8399658203125
 10
655.4500122070312
 20
-568.6900024414062
 10
660.5800170898438
 20
-560.8800048828125
 10
659.5
 20
-544.760009765625
 10
659.3200073242188
 20
-542.469970703125
 10
662.4000244140625
 20
-531.9299926757812
 10
663.7999877929688
 20
-522.6900024414062
 10
664.3599853515625
 20
-518.0899658203125
 10
664.4500122070312
 20
-517.3200073242188
 10
664.280029296875
 20
-516.5899658203125
 10
663.8900146484375
 20
-515.989990234375
 10
664.030029296875
 20
-516.0599975585938
 10
664.1699829101562
 20
-516.1400146484375
 10
664.2999877929688
 20
-516.2099609375
 10
665.6400146484375
 20
-516.8999633789062
 10
667.0800170898438
 20
-517.25
 10
668.5
 20
-517.25
 10
669.1599731445312
 20
-517.25
 10
669.8200073242188
 20
-517.1699829101562
 10
670.4600219726562
 20
-517.0199584960938
 10
674.8699951171875
 20
-515.9400024414062
 10
676.27001953125
 20
-511.6300048828134
 10
676.3900146484375
 20
-509.760009765625
 10
676.5399780273438
 20
-508.5599975585938
 10
676.489990234375
 20
-506.9500122070312
 10
676.25
 20
-504.97998046875
 10
682.2899780273438
 20
-502.3900146484384
 10
725.239990234375
 20
-482.739990234375
 10
723.6300048828125
 20
-450.0999755859384
 10
723.3599853515625
 20
-444.5799560546884
 10
721.3599853515625
 20
-440.6199951171884
 10
717.6799926757812
 20
-438.3399658203134
 10
716.3300170898438
 20
-437.510009765625
 10
714.8200073242188
 20
-436.9500122070312
 10
713.239990234375
 20
-436.6099853515634
 10
734.8599853515625
 20
-420.1599731445312
 10
737.2100219726562
 20
-374.4099731445312
 10
737.2999877929688
 20
-372.3699951171884
 10
737.4199829101562
 20
-367.5199584960938
 10
737.239990234375
 20
-363.0299682617188
 10
736.8099975585938
 20
-358.8499755859384
 10
748.8200073242188
 20
-349.9500122070312
 10
747.8900146484375
 20
-329.0299682617188
 10
747.1199951171875
 20
-321.510009765625
 10
750.0
 20
-324.2000122070312
 10
752.6199951171875
 20
-330.1099853515634
 10
753.530029296875
 20
-332.6099853515634
 10
753.72998046875
 20
-333.1599731445312
 10
754.27001953125
 20
-333.5
 10
754.8400268554688
 20
-333.4599609375
 10
755.4199829101562
 20
-333.4199829101562
 10
755.9000244140625
 20
-333.010009765625
 10
756.02001953125
 20
-332.4400024414062
 10
760.0599975585938
 20
-313.7999877929688
 10
758.489990234375
 20
-298.5899658203134
 10
751.4099731445312
 20
-287.1099853515634
 97
        0
 97
        0
 75
     2
 76
     1
 98
        0
  0
ENDSEC
  0
SECTION
  2
OBJECTS
  0
DICTIONARY
  5
C
330
0
100
AcDbDictionary
281
     1
  3
ACAD_GROUP
350
D
  3
ACAD_LAYOUT
350
1A
  3
ACAD_MATERIAL
350
3B
  3
ACAD_MLEADERSTYLE
350
44
  3
ACAD_MLINESTYLE
350
17
  3
ACAD_PLOTSETTINGS
350
19
  3
ACAD_PLOTSTYLENAME
350
E
  3
ACAD_TABLESTYLE
350
43
  3
ACAD_VISUALSTYLE
350
2A
  0
SUN
  5
3F
330
29
100
AcDbSun
 90
        1
290
     0
 63
     7
421
 16777215
 40
1.0
291
     1
 91
  2455826
 92
 54000000
292
     0
 70
     2
 71
   256
280
     1
  0
DICTIONARY
  5
D
102
{ACAD_REACTORS
330
C
102
}
330
C
100
AcDbDictionary
281
     1
  0
DICTIONARY
  5
1A
102
{ACAD_REACTORS
330
C
102
}
330
C
100
AcDbDictionary
281
     1
  3
Layout1
350
1E
  3
Layout2
350
26
  3
Model
350
22
  0
DICTIONARY
  5
3B
102
{ACAD_REACTORS
330
C
102
}
330
C
100
AcDbDictionary
281
     1
  3
ByBlock
350
3D
  3
ByLayer
350
3C
  3
Global
350
3E
  0
DICTIONARY
  5
44
102
{ACAD_REACTORS
330
C
102
}
330
C
100
AcDbDictionary
281
     1
  0
DICTIONARY
  5
17
102
{ACAD_REACTORS
330
C
102
}
330
C
100
AcDbDictionary
281
     1
  3
Standard
350
18
  0
DICTIONARY
  5
19
102
{ACAD_REACTORS
330
C
102
}
330
C
100
AcDbDictionary
281
     1
  0
ACDBDICTIONARYWDFLT
  5
E
102
{ACAD_REACTORS
330
C
102
}
330
C
100
AcDbDictionary
281
     1
  3
Normal
350
F
100
AcDbDictionaryWithDefault
340
F
  0
DICTIONARY
  5
43
102
{ACAD_REACTORS
330
C
102
}
330
C
100
AcDbDictionary
281
     1
  0
DICTIONARY
  5
2A
102
{ACAD_REACTORS
330
C
102
}
330
C
100
AcDbDictionary
281
     1
  3
2dWireframe
350
2F
  3
3D Hidden
350
31
  3
3dWireframe
350
30
  3
Basic
350
32
  3
Brighten
350
36
  3
ColorChange
350
3A
  3
Conceptual
350
34
  3
Dim
350
35
  3
Facepattern
350
39
  3
Flat
350
2B
  3
FlatWithEdges
350
2C
  3
Gouraud
350
2D
  3
GouraudWithEdges
350
2E
  3
Linepattern
350
38
  3
Realistic
350
33
  3
Thicken
350
37
  0
LAYOUT
  5
1E
102
{ACAD_REACTORS
330
1A
102
}
330
1A
100
AcDbPlotSettings
  1

  2
none_device
  4

  6

 40
0.0
 41
0.0
 42
0.0
 43
0.0
 44
0.0
 45
0.0
 46
0.0
 47
0.0
 48
0.0
 49
0.0
140
0.0
141
0.0
142
1.0
143
1.0
 70
   688
 72
     0
 73
     0
 74
     5
  7

 75
    16
 76
     0
 77
     2
 78
   300
147
1.0
148
0.0
149
0.0
100
AcDbLayout
  1
Layout1
 70
     1
 71
     1
 10
0.0
 20
0.0
 11
12.0
 21
9.0
 12
0.0
 22
0.0
 32
0.0
 14
1.000000000000000E+20
 24
1.000000000000000E+20
 34
1.000000000000000E+20
 15
-1.000000000000000E+20
 25
-1.000000000000000E+20
 35
-1.000000000000000E+20
146
0.0
 13
0.0
 23
0.0
 33
0.0
 16
1.0
 26
0.0
 36
0.0
 17
0.0
 27
1.0
 37
0.0
 76
     0
330
1B
  0
LAYOUT
  5
26
102
{ACAD_REACTORS
330
1A
102
}
330
1A
100
AcDbPlotSettings
  1

  2
none_device
  4

  6

 40
0.0
 41
0.0
 42
0.0
 43
0.0
 44
0.0
 45
0.0
 46
0.0
 47
0.0
 48
0.0
 49
0.0
140
0.0
141
0.0
142
1.0
143
1.0
 70
   688
 72
     0
 73
     0
 74
     5
  7

 75
    16
 76
     0
 77
     2
 78
   300
147
1.0
148
0.0
149
0.0
100
AcDbLayout
  1
Layout2
 70
     1
 71
     2
 10
0.0
 20
0.0
 11
0.0
 21
0.0
 12
0.0
 22
0.0
 32
0.0
 14
0.0
 24
0.0
 34
0.0
 15
0.0
 25
0.0
 35
0.0
146
0.0
 13
0.0
 23
0.0
 33
0.0
 16
1.0
 26
0.0
 36
0.0
 17
0.0
 27
1.0
 37
0.0
 76
     0
330
23
  0
LAYOUT
  5
22
102
{ACAD_REACTORS
330
1A
102
}
330
1A
100
AcDbPlotSettings
  1

  2
none_device
  4

  6

 40
0.0
 41
0.0
 42
0.0
 43
0.0
 44
0.0
 45
0.0
 46
0.0
 47
0.0
 48
0.0
 49
0.0
140
0.0
141
0.0
142
1.0
143
1.0
 70
  1712
 72
     0
 73
     0
 74
     0
  7

 75
     0
 76
     0
 77
     2
 78
   300
147
1.0
148
0.0
149
0.0
100
AcDbLayout
  1
Model
 70
     1
 71
     0
 10
0.0
 20
0.0
 11
12.0
 21
9.0
 12
0.0
 22
0.0
 32
0.0
 14
1.000000000000000E+20
 24
1.000000000000000E+20
 34
1.000000000000000E+20
 15
-1.000000000000000E+20
 25
-1.000000000000000E+20
 35
-1.000000000000000E+20
146
0.0
 13
0.0
 23
0.0
 33
0.0
 16
1.0
 26
0.0
 36
0.0
 17
0.0
 27
1.0
 37
0.0
 76
     0
330
1F
331
29
  0
MATERIAL
  5
3D
102
{ACAD_REACTORS
330
3B
102
}
330
3B
100
AcDbMaterial
  1
ByBlock
 72
     1
 94
      127
  0
MATERIAL
  5
3C
102
{ACAD_REACTORS
330
3B
102
}
330
3B
100
AcDbMaterial
  1
ByLayer
 72
     1
 94
      127
  0
MATERIAL
  5
3E
102
{ACAD_REACTORS
330
3B
102
}
330
3B
100
AcDbMaterial
  1
Global
 72
     1
 94
      127
  0
MLINESTYLE
  5
18
102
{ACAD_REACTORS
330
17
102
}
330
17
100
AcDbMlineStyle
  2
Standard
 70
     0
  3

 62
   256
 51
90.0
 52
90.0
 71
     2
 49
0.5
 62
   256
  6
BYLAYER
 49
-0.5
 62
   256
  6
BYLAYER
  0
ACDBPLACEHOLDER
  5
F
102
{ACAD_REACTORS
330
E
102
}
330
E
  0
VISUALSTYLE
  5
2F
102
{ACAD_REACTORS
330
2A
102
}
330
2A
100
AcDbVisualStyle
  2
2dWireframe
 70
     4
177
     2
291
     0
 71
     0
176
     1
 72
     2
176
     1
 73
     0
176
     1
 90
        0
176
     1
 40
-0.6
176
     1
 41
-30.0
176
     1
 62
     5
 63
     7
421
 16777215
176
     1
 74
     1
176
     1
 91
        4
176
     1
 64
     7
176
     1
 65
   257
176
     1
 75
     1
176
     1
175
     1
176
     1
 42
1.0
176
     1
 92
        0
176
     1
 66
   257
176
     1
 43
1.0
176
     1
 76
     1
176
     1
 77
     6
176
     1
 78
     2
176
     1
 67
     7
176
     1
 79
     5
176
     1
170
     0
176
     1
171
     0
176
     1
290
     0
176
     1
 93
        1
176
     1
 44
0.0
176
     1
173
     0
176
     1
  0
VISUALSTYLE
  5
31
102
{ACAD_REACTORS
330
2A
102
}
330
2A
100
AcDbVisualStyle
  2
3D Hidden
 70
     6
177
     2
291
     0
 71
     1
176
     1
 72
     2
176
     1
 73
     2
176
     1
 90
        0
176
     1
 40
-0.6
176
     1
 41
-30.0
176
     1
 62
     5
 63
     7
421
 16777215
176
     1
 74
     2
176
     1
 91
        2
176
     1
 64
     7
176
     1
 65
   257
176
     1
 75
     2
176
     1
175
     1
176
     1
 42
40.0
176
     1
 92
        0
176
     1
 66
   257
176
     1
 43
1.0
176
     1
 76
     1
176
     1
 77
     6
176
     1
 78
     2
176
     1
 67
     7
176
     1
 79
     3
176
     1
170
     0
176
     1
171
     0
176
     1
290
     0
176
     1
 93
        1
176
     1
 44
0.0
176
     1
173
     0
176
     1
  0
VISUALSTYLE
  5
30
102
{ACAD_REACTORS
330
2A
102
}
330
2A
100
AcDbVisualStyle
  2
3dWireframe
 70
     5
177
     2
291
     0
 71
     0
176
     1
 72
     2
176
     1
 73
     0
176
     1
 90
        0
176
     1
 40
-0.6
176
     1
 41
-30.0
176
     1
 62
     5
 63
     7
421
 16777215
176
     1
 74
     1
176
     1
 91
        4
176
     1
 64
     7
176
     1
 65
   257
176
     1
 75
     1
176
     1
175
     1
176
     1
 42
1.0
176
     1
 92
        0
176
     1
 66
   257
176
     1
 43
1.0
176
     1
 76
     1
176
     1
 77
     6
176
     1
 78
     2
176
     1
 67
     7
176
     1
 79
     5
176
     1
170
     0
176
     1
171
     0
176
     1
290
     0
176
     1
 93
        1
176
     1
 44
0.0
176
     1
173
     0
176
     1
  0
VISUALSTYLE
  5
32
102
{ACAD_REACTORS
330
2A
102
}
330
2A
100
AcDbVisualStyle
  2
Basic
 70
     7
177
     2
291
     1
 71
     1
176
     1
 72
     0
176
     1
 73
     1
176
     1
 90
        0
176
     1
 40
-0.6
176
     1
 41
-30.0
176
     1
 62
     5
 63
     7
421
 16777215
176
     1
 74
     0
176
     1
 91
        4
176
     1
 64
     7
176
     1
 65
   257
176
     1
 75
     1
176
     1
175
     1
176
     1
 42
1.0
176
     1
 92
        8
176
     1
 66
     7
176
     1
 43
1.0
176
     1
 76
     1
176
     1
 77
     6
176
     1
 78
     2
176
     1
 67
     7
176
     1
 79
     5
176
     1
170
     0
176
     1
171
     0
176
     1
290
     0
176
     1
 93
        1
176
     1
 44
0.0
176
     1
173
     0
176
     1
  0
VISUALSTYLE
  5
36
102
{ACAD_REACTORS
330
2A
102
}
330
2A
100
AcDbVisualStyle
  2
Brighten
 70
    12
177
     2
291
     1
 71
     2
176
     1
 72
     2
176
     1
 73
     0
176
     1
 90
        0
176
     1
 40
-0.6
176
     1
 41
-30.0
176
     1
 62
     5
 63
     7
421
 16777215
176
     1
 74
     1
176
     1
 91
        4
176
     1
 64
     7
176
     1
 65
   257
176
     1
 75
     1
176
     1
175
     1
176
     1
 42
1.0
176
     1
 92
        8
176
     1
 66
     7
176
     1
 43
1.0
176
     1
 76
     1
176
     1
 77
     6
176
     1
 78
     2
176
     1
 67
     7
176
     1
 79
     5
176
     1
170
     0
176
     1
171
     0
176
     1
290
     0
176
     1
 93
        1
176
     1
 44
50.0
176
     1
173
     0
176
     1
  0
VISUALSTYLE
  5
3A
102
{ACAD_REACTORS
330
2A
102
}
330
2A
100
AcDbVisualStyle
  2
ColorChange
 70
    16
177
     2
291
     1
 71
     2
176
     1
 72
     2
176
     1
 73
     3
176
     1
 90
        0
176
     1
 40
-0.6
176
     1
 41
-30.0
176
     1
 62
     5
 63
     8
421
  8421504
176
     1
 74
     1
176
     1
 91
        4
176
     1
 64
     7
176
     1
 65
   257
176
     1
 75
     1
176
     1
175
     1
176
     1
 42
1.0
176
     1
 92
        8
176
     1
 66
     8
424
  8421504
176
     1
 43
1.0
176
     1
 76
     1
176
     1
 77
     6
176
     1
 78
     2
176
     1
 67
     7
176
     1
 79
     5
176
     1
170
     0
176
     1
171
     0
176
     1
290
     0
176
     1
 93
        1
176
     1
 44
0.0
176
     1
173
     0
176
     1
  0
VISUALSTYLE
  5
34
102
{ACAD_REACTORS
330
2A
102
}
330
2A
100
AcDbVisualStyle
  2
Conceptual
 70
     9
177
     2
291
     0
 71
     3
176
     1
 72
     2
176
     1
 73
     0
176
     1
 90
        0
176
     1
 40
-0.6
176
     1
 41
-30.0
176
     1
 62
     5
 63
     7
421
 16777215
176
     1
 74
     2
176
     1
 91
        2
176
     1
 64
     7
176
     1
 65
   257
176
     1
 75
     1
176
     1
175
     1
176
     1
 42
40.0
176
     1
 92
        8
176
     1
 66
     7
176
     1
 43
1.0
176
     1
 76
     1
176
     1
 77
     6
176
     1
 78
     2
176
     1
 67
     7
176
     1
 79
     3
176
     1
170
     0
176
     1
171
     0
176
     1
290
     0
176
     1
 93
        1
176
     1
 44
0.0
176
     1
173
     0
176
     1
  0
VISUALSTYLE
  5
35
102
{ACAD_REACTORS
330
2A
102
}
330
2A
100
AcDbVisualStyle
  2
Dim
 70
    11
177
     2
291
     1
 71
     2
176
     1
 72
     2
176
     1
 73
     0
176
     1
 90
        0
176
     1
 40
-0.6
176
     1
 41
-30.0
176
     1
 62
     5
 63
     7
421
 16777215
176
     1
 74
     1
176
     1
 91
        4
176
     1
 64
     7
176
     1
 65
   257
176
     1
 75
     1
176
     1
175
     1
176
     1
 42
1.0
176
     1
 92
        8
176
     1
 66
     7
176
     1
 43
1.0
176
     1
 76
     1
176
     1
 77
     6
176
     1
 78
     2
176
     1
 67
     7
176
     1
 79
     5
176
     1
170
     0
176
     1
171
     0
176
     1
290
     0
176
     1
 93
        1
176
     1
 44
-50.0
176
     1
173
     0
176
     1
  0
VISUALSTYLE
  5
39
102
{ACAD_REACTORS
330
2A
102
}
330
2A
100
AcDbVisualStyle
  2
Facepattern
 70
    15
177
     2
291
     1
 71
     2
176
     1
 72
     2
176
     1
 73
     0
176
     1
 90
        0
176
     1
 40
-0.6
176
     1
 41
-30.0
176
     1
 62
     5
 63
     7
421
 16777215
176
     1
 74
     1
176
     1
 91
        4
176
     1
 64
     7
176
     1
 65
   257
176
     1
 75
     1
176
     1
175
     1
176
     1
 42
1.0
176
     1
 92
        8
176
     1
 66
     7
176
     1
 43
1.0
176
     1
 76
     1
176
     1
 77
     6
176
     1
 78
     2
176
     1
 67
     7
176
     1
 79
     5
176
     1
170
     0
176
     1
171
     0
176
     1
290
     0
176
     1
 93
        1
176
     1
 44
0.0
176
     1
173
     0
176
     1
  0
VISUALSTYLE
  5
2B
102
{ACAD_REACTORS
330
2A
102
}
330
2A
100
AcDbVisualStyle
  2
Flat
 70
     0
177
     2
291
     1
 71
     2
176
     1
 72
     1
176
     1
 73
     1
176
     1
 90
        2
176
     1
 40
-0.6
176
     1
 41
30.0
176
     1
 62
     5
 63
     7
421
 16777215
176
     1
 74
     0
176
     1
 91
        4
176
     1
 64
     7
176
     1
 65
   257
176
     1
 75
     1
176
     1
175
     1
176
     1
 42
1.0
176
     1
 92
        8
176
     1
 66
     7
176
     1
 43
1.0
176
     1
 76
     1
176
     1
 77
     6
176
     1
 78
     2
176
     1
 67
     7
176
     1
 79
     5
176
     1
170
     0
176
     1
171
     0
176
     1
290
     0
176
     1
 93
       13
176
     1
 44
0.0
176
     1
173
     0
176
     1
  0
VISUALSTYLE
  5
2C
102
{ACAD_REACTORS
330
2A
102
}
330
2A
100
AcDbVisualStyle
  2
FlatWithEdges
 70
     1
177
     2
291
     1
 71
     2
176
     1
 72
     1
176
     1
 73
     1
176
     1
 90
        2
176
     1
 40
-0.6
176
     1
 41
30.0
176
     1
 62
     5
 63
     7
421
 16777215
176
     1
 74
     1
176
     1
 91
        4
176
     1
 64
     7
176
     1
 65
   257
176
     1
 75
     1
176
     1
175
     1
176
     1
 42
1.0
176
     1
 92
        0
176
     1
 66
   257
176
     1
 43
1.0
176
     1
 76
     1
176
     1
 77
     6
176
     1
 78
     2
176
     1
 67
     7
176
     1
 79
     5
176
     1
170
     0
176
     1
171
     0
176
     1
290
     0
176
     1
 93
       13
176
     1
 44
0.0
176
     1
173
     0
176
     1
  0
VISUALSTYLE
  5
2D
102
{ACAD_REACTORS
330
2A
102
}
330
2A
100
AcDbVisualStyle
  2
Gouraud
 70
     2
177
     2
291
     1
 71
     2
176
     1
 72
     2
176
     1
 73
     1
176
     1
 90
        2
176
     1
 40
-0.6
176
     1
 41
30.0
176
     1
 62
     5
 63
     7
421
 16777215
176
     1
 74
     0
176
     1
 91
        4
176
     1
 64
     7
176
     1
 65
   257
176
     1
 75
     1
176
     1
175
     1
176
     1
 42
1.0
176
     1
 92
        0
176
     1
 66
     7
176
     1
 43
1.0
176
     1
 76
     1
176
     1
 77
     6
176
     1
 78
     2
176
     1
 67
     7
176
     1
 79
     5
176
     1
170
     0
176
     1
171
     0
176
     1
290
     0
176
     1
 93
       13
176
     1
 44
0.0
176
     1
173
     0
176
     1
  0
VISUALSTYLE
  5
2E
102
{ACAD_REACTORS
330
2A
102
}
330
2A
100
AcDbVisualStyle
  2
GouraudWithEdges
 70
     3
177
     2
291
     1
 71
     2
176
     1
 72
     2
176
     1
 73
     1
176
     1
 90
        2
176
     1
 40
-0.6
176
     1
 41
30.0
176
     1
 62
     5
 63
     7
421
 16777215
176
     1
 74
     1
176
     1
 91
        4
176
     1
 64
     7
176
     1
 65
   257
176
     1
 75
     1
176
     1
175
     1
176
     1
 42
1.0
176
     1
 92
        0
176
     1
 66
   257
176
     1
 43
1.0
176
     1
 76
     1
176
     1
 77
     6
176
     1
 78
     2
176
     1
 67
     7
176
     1
 79
     5
176
     1
170
     0
176
     1
171
     0
176
     1
290
     0
176
     1
 93
       13
176
     1
 44
0.0
176
     1
173
     0
176
     1
  0
VISUALSTYLE
  5
38
102
{ACAD_REACTORS
330
2A
102
}
330
2A
100
AcDbVisualStyle
  2
Linepattern
 70
    14
177
     2
291
     1
 71
     2
176
     1
 72
     2
176
     1
 73
     0
176
     1
 90
        0
176
     1
 40
-0.6
176
     1
 41
-30.0
176
     1
 62
     5
 63
     7
421
 16777215
176
     1
 74
     1
176
     1
 91
        4
176
     1
 64
     7
176
     1
 65
   257
176
     1
 75
     7
176
     1
175
     7
176
     1
 42
1.0
176
     1
 92
        8
176
     1
 66
     7
176
     1
 43
1.0
176
     1
 76
     1
176
     1
 77
     6
176
     1
 78
     2
176
     1
 67
     7
176
     1
 79
     5
176
     1
170
     0
176
     1
171
     0
176
     1
290
     0
176
     1
 93
        1
176
     1
 44
0.0
176
     1
173
     0
176
     1
  0
VISUALSTYLE
  5
33
102
{ACAD_REACTORS
330
2A
102
}
330
2A
100
AcDbVisualStyle
  2
Realistic
 70
     8
177
     2
291
     0
 71
     2
176
     1
 72
     2
176
     1
 73
     0
176
     1
 90
        0
176
     1
 40
-0.6
176
     1
 41
-30.0
176
     1
 62
     5
 63
     7
421
 16777215
176
     1
 74
     1
176
     1
 91
        0
176
     1
 64
     7
176
     1
 65
   257
176
     1
 75
     1
176
     1
175
     1
176
     1
 42
1.0
176
     1
 92
        8
176
     1
 66
     8
424
  7895160
176
     1
 43
1.0
176
     1
 76
     1
176
     1
 77
     6
176
     1
 78
     2
176
     1
 67
     7
176
     1
 79
     5
176
     1
170
     0
176
     1
171
     0
176
     1
290
     0
176
     1
 93
       13
176
     1
 44
0.0
176
     1
173
     0
176
     1
  0
VISUALSTYLE
  5
37
102
{ACAD_REACTORS
330
2A
102
}
330
2A
100
AcDbVisualStyle
  2
Thicken
 70
    13
177
     2
291
     1
 71
     2
176
     1
 72
     2
176
     1
 73
     0
176
     1
 90
        0
176
     1
 40
-0.6
176
     1
 41
-30.0
176
     1
 62
     5
 63
     7
421
 16777215
176
     1
 74
     1
176
     1
 91
        4
176
     1
 64
     7
176
     1
 65
   257
176
     1
 75
     1
176
     1
175
     1
176
     1
 42
1.0
176
     1
 92
       12
176
     1
 66
     7
176
     1
 43
1.0
176
     1
 76
     1
176
     1
 77
     6
176
     1
 78
     2
176
     1
 67
     7
176
     1
 79
     5
176
     1
170
     0
176
     1
171
     0
176
     1
290
     0
176
     1
 93
        1
176
     1
 44
0.0
176
     1
173
     0
176
     1
  0
ENDSEC
  0
EOF
